<?xml version="1.0" encoding="UTF-8" standalone="no"?>
<!DOCTYPE svg PUBLIC "-//W3C//DTD SVG 1.1//EN"
 "http://www.w3.org/Graphics/SVG/1.1/DTD/svg11.dtd">
<!-- Generated by graphviz version 2.43.0 (0)
 -->
<!-- Title: src/model/Board.cpp Pages: 1 -->
<svg width="809pt" height="335pt"
 viewBox="0.00 0.00 808.81 335.00" xmlns="http://www.w3.org/2000/svg" xmlns:xlink="http://www.w3.org/1999/xlink">
<g id="graph0" class="graph" transform="scale(1 1) rotate(0) translate(4 331)">
<title>src/model/Board.cpp</title>
<!-- Node1 -->
<g id="Node000001" class="node">
<title>Node1</title>
<g id="a_Node000001"><a xlink:title=" ">
<polygon fill="#999999" stroke="#666666" points="606.31,-327 499.31,-327 499.31,-308 606.31,-308 606.31,-327"/>
<text text-anchor="middle" x="552.81" y="-315" font-family="Helvetica,sans-Serif" font-size="10.00">src/model/Board.cpp</text>
</a>
</g>
</g>
<!-- Node2 -->
<g id="Node000002" class="node">
<title>Node2</title>
<g id="a_Node000002"><a xlink:href="Board_8hpp.html" target="_top" xlink:title=" ">
<polygon fill="white" stroke="#666666" points="353.31,-272 258.31,-272 258.31,-242 353.31,-242 353.31,-272"/>
<text text-anchor="start" x="266.31" y="-260" font-family="Helvetica,sans-Serif" font-size="10.00">../../include/model</text>
<text text-anchor="middle" x="305.81" y="-249" font-family="Helvetica,sans-Serif" font-size="10.00">/Board.hpp</text>
</a>
</g>
</g>
<!-- Node1&#45;&gt;Node2 -->
<g id="edge1_Node000001_Node000002" class="edge">
<title>Node1&#45;&gt;Node2</title>
<g id="a_edge1_Node000001_Node000002"><a xlink:title=" ">
<path fill="none" stroke="#63b8ff" d="M516.9,-307.99C476.67,-298.47 410.92,-282.89 363.47,-271.66"/>
<polygon fill="#63b8ff" stroke="#63b8ff" points="364.18,-268.23 353.64,-269.33 362.57,-275.04 364.18,-268.23"/>
</a>
</g>
</g>
<!-- Node7 -->
<g id="Node000007" class="node">
<title>Node7</title>
<g id="a_Node000007"><a xlink:title=" ">
<polygon fill="#e0e0e0" stroke="#999999" points="296.31,-19 237.31,-19 237.31,0 296.31,0 296.31,-19"/>
<text text-anchor="middle" x="266.81" y="-7" font-family="Helvetica,sans-Serif" font-size="10.00">stdexcept</text>
</a>
</g>
</g>
<!-- Node1&#45;&gt;Node7 -->
<g id="edge30_Node000001_Node000007" class="edge">
<title>Node1&#45;&gt;Node7</title>
<g id="a_edge30_Node000001_Node000007"><a xlink:title=" ">
<path fill="none" stroke="#63b8ff" d="M606.32,-313.91C679.22,-307.17 800.81,-283.1 800.81,-197.5 800.81,-197.5 800.81,-197.5 800.81,-135 800.81,-33.6 431,-14.75 306.88,-11.27"/>
<polygon fill="#63b8ff" stroke="#63b8ff" points="306.75,-7.77 296.67,-11.01 306.57,-14.77 306.75,-7.77"/>
</a>
</g>
</g>
<!-- Node3 -->
<g id="Node000003" class="node">
<title>Node3</title>
<g id="a_Node000003"><a xlink:title=" ">
<polygon fill="#e0e0e0" stroke="#999999" points="422.81,-206 378.81,-206 378.81,-187 422.81,-187 422.81,-206"/>
<text text-anchor="middle" x="400.81" y="-194" font-family="Helvetica,sans-Serif" font-size="10.00">vector</text>
</a>
</g>
</g>
<!-- Node2&#45;&gt;Node3 -->
<g id="edge2_Node000002_Node000003" class="edge">
<title>Node2&#45;&gt;Node3</title>
<g id="a_edge2_Node000002_Node000003"><a xlink:title=" ">
<path fill="none" stroke="#63b8ff" d="M328.81,-241.84C343.82,-232.6 363.32,-220.59 378.24,-211.4"/>
<polygon fill="#63b8ff" stroke="#63b8ff" points="380.18,-214.32 386.86,-206.09 376.51,-208.36 380.18,-214.32"/>
</a>
</g>
</g>
<!-- Node4 -->
<g id="Node000004" class="node">
<title>Node4</title>
<g id="a_Node000004"><a xlink:title=" ">
<polygon fill="#e0e0e0" stroke="#999999" points="60.81,-19 8.81,-19 8.81,0 60.81,0 60.81,-19"/>
<text text-anchor="middle" x="34.81" y="-7" font-family="Helvetica,sans-Serif" font-size="10.00">memory</text>
</a>
</g>
</g>
<!-- Node2&#45;&gt;Node4 -->
<g id="edge3_Node000002_Node000004" class="edge">
<title>Node2&#45;&gt;Node4</title>
<g id="a_edge3_Node000002_Node000004"><a xlink:title=" ">
<path fill="none" stroke="#63b8ff" d="M258.22,-255.31C189.71,-251.39 65.63,-232.7 11.81,-151 -13.25,-112.95 9.71,-56.84 24.53,-28.41"/>
<polygon fill="#63b8ff" stroke="#63b8ff" points="27.79,-29.73 29.51,-19.28 21.65,-26.38 27.79,-29.73"/>
</a>
</g>
</g>
<!-- Node5 -->
<g id="Node000005" class="node">
<title>Node5</title>
<g id="a_Node000005"><a xlink:href="Property_8hpp.html" target="_top" xlink:title=" ">
<polygon fill="white" stroke="#666666" points="320.81,-145.5 212.81,-145.5 212.81,-126.5 320.81,-126.5 320.81,-145.5"/>
<text text-anchor="middle" x="266.81" y="-133.5" font-family="Helvetica,sans-Serif" font-size="10.00">squares/Property.hpp</text>
</a>
</g>
</g>
<!-- Node2&#45;&gt;Node5 -->
<g id="edge4_Node000002_Node000005" class="edge">
<title>Node2&#45;&gt;Node5</title>
<g id="a_edge4_Node000002_Node000005"><a xlink:title=" ">
<path fill="none" stroke="#63b8ff" d="M278.19,-241.85C264.88,-233.41 250.22,-221.34 242.81,-206 234.58,-188.95 244.11,-168.32 253.49,-154.08"/>
<polygon fill="#63b8ff" stroke="#63b8ff" points="256.47,-155.92 259.44,-145.75 250.78,-151.85 256.47,-155.92"/>
</a>
</g>
</g>
<!-- Node6 -->
<g id="Node000006" class="node">
<title>Node6</title>
<g id="a_Node000006"><a xlink:href="Square_8hpp.html" target="_top" xlink:title=" ">
<polygon fill="white" stroke="#666666" points="217.81,-79.5 151.81,-79.5 151.81,-60.5 217.81,-60.5 217.81,-79.5"/>
<text text-anchor="middle" x="184.81" y="-67.5" font-family="Helvetica,sans-Serif" font-size="10.00">Square.hpp</text>
</a>
</g>
</g>
<!-- Node2&#45;&gt;Node6 -->
<g id="edge12_Node000002_Node000006" class="edge">
<title>Node2&#45;&gt;Node6</title>
<g id="a_edge12_Node000002_Node000006"><a xlink:title=" ">
<path fill="none" stroke="#63b8ff" d="M280.36,-241.94C265.78,-233.01 247.86,-220.42 234.81,-206 204.31,-172.28 191.91,-118.3 187.29,-89.89"/>
<polygon fill="#63b8ff" stroke="#63b8ff" points="190.71,-89.11 185.79,-79.73 183.78,-90.13 190.71,-89.11"/>
</a>
</g>
</g>
<!-- Node11 -->
<g id="Node000011" class="node">
<title>Node11</title>
<g id="a_Node000011"><a xlink:href="Railroad_8hpp.html" target="_top" xlink:title=" ">
<polygon fill="white" stroke="#666666" points="360.31,-206 251.31,-206 251.31,-187 360.31,-187 360.31,-206"/>
<text text-anchor="middle" x="305.81" y="-194" font-family="Helvetica,sans-Serif" font-size="10.00">squares/Railroad.hpp</text>
</a>
</g>
</g>
<!-- Node2&#45;&gt;Node11 -->
<g id="edge13_Node000002_Node000011" class="edge">
<title>Node2&#45;&gt;Node11</title>
<g id="a_edge13_Node000002_Node000011"><a xlink:title=" ">
<path fill="none" stroke="#63b8ff" d="M305.81,-241.84C305.81,-234.21 305.81,-224.7 305.81,-216.45"/>
<polygon fill="#63b8ff" stroke="#63b8ff" points="309.31,-216.27 305.81,-206.27 302.31,-216.27 309.31,-216.27"/>
</a>
</g>
</g>
<!-- Node14 -->
<g id="Node000014" class="node">
<title>Node14</title>
<g id="a_Node000014"><a xlink:href="Utility_8hpp.html" target="_top" xlink:title=" ">
<polygon fill="white" stroke="#666666" points="538.31,-206 441.31,-206 441.31,-187 538.31,-187 538.31,-206"/>
<text text-anchor="middle" x="489.81" y="-194" font-family="Helvetica,sans-Serif" font-size="10.00">squares/Utility.hpp</text>
</a>
</g>
</g>
<!-- Node2&#45;&gt;Node14 -->
<g id="edge18_Node000002_Node000014" class="edge">
<title>Node2&#45;&gt;Node14</title>
<g id="a_edge18_Node000002_Node000014"><a xlink:title=" ">
<path fill="none" stroke="#63b8ff" d="M349.89,-241.99C381.5,-231.94 423.6,-218.55 453.33,-209.1"/>
<polygon fill="#63b8ff" stroke="#63b8ff" points="454.44,-212.42 462.91,-206.05 452.32,-205.75 454.44,-212.42"/>
</a>
</g>
</g>
<!-- Node16 -->
<g id="Node000016" class="node">
<title>Node16</title>
<g id="a_Node000016"><a xlink:href="Street_8hpp.html" target="_top" xlink:title=" ">
<polygon fill="white" stroke="#666666" points="655.31,-206 556.31,-206 556.31,-187 655.31,-187 655.31,-206"/>
<text text-anchor="middle" x="605.81" y="-194" font-family="Helvetica,sans-Serif" font-size="10.00">squares/Street.hpp</text>
</a>
</g>
</g>
<!-- Node2&#45;&gt;Node16 -->
<g id="edge23_Node000002_Node000016" class="edge">
<title>Node2&#45;&gt;Node16</title>
<g id="a_edge23_Node000002_Node000016"><a xlink:title=" ">
<path fill="none" stroke="#63b8ff" d="M353.35,-246.73C407.43,-236.18 495.56,-219 552.09,-207.98"/>
<polygon fill="#63b8ff" stroke="#63b8ff" points="552.77,-211.41 561.92,-206.06 551.43,-204.54 552.77,-211.41"/>
</a>
</g>
</g>
<!-- Node18 -->
<g id="Node000018" class="node">
<title>Node18</title>
<g id="a_Node000018"><a xlink:href="SpecialSquare_8hpp.html" target="_top" xlink:title=" ">
<polygon fill="white" stroke="#666666" points="156.81,-145.5 20.81,-145.5 20.81,-126.5 156.81,-126.5 156.81,-145.5"/>
<text text-anchor="middle" x="88.81" y="-133.5" font-family="Helvetica,sans-Serif" font-size="10.00">squares/SpecialSquare.hpp</text>
</a>
</g>
</g>
<!-- Node2&#45;&gt;Node18 -->
<g id="edge28_Node000002_Node000018" class="edge">
<title>Node2&#45;&gt;Node18</title>
<g id="a_edge28_Node000002_Node000018"><a xlink:title=" ">
<path fill="none" stroke="#63b8ff" d="M258.1,-242.77C231.42,-234.3 198.14,-221.9 170.81,-206 145.34,-191.18 120,-168.28 104.38,-152.98"/>
<polygon fill="#63b8ff" stroke="#63b8ff" points="106.69,-150.34 97.14,-145.75 101.74,-155.3 106.69,-150.34"/>
</a>
</g>
</g>
<!-- Node5&#45;&gt;Node6 -->
<g id="edge5_Node000005_Node000006" class="edge">
<title>Node5&#45;&gt;Node6</title>
<g id="a_edge5_Node000005_Node000006"><a xlink:title=" ">
<path fill="none" stroke="#63b8ff" d="M255.75,-126.37C242.55,-116.06 220.23,-98.65 204.15,-86.09"/>
<polygon fill="#63b8ff" stroke="#63b8ff" points="205.99,-83.09 195.96,-79.7 201.69,-88.61 205.99,-83.09"/>
</a>
</g>
</g>
<!-- Node5&#45;&gt;Node7 -->
<g id="edge10_Node000005_Node000007" class="edge">
<title>Node5&#45;&gt;Node7</title>
<g id="a_edge10_Node000005_Node000007"><a xlink:title=" ">
<path fill="none" stroke="#63b8ff" d="M266.81,-126.44C266.81,-106.54 266.81,-56.76 266.81,-29.35"/>
<polygon fill="#63b8ff" stroke="#63b8ff" points="270.31,-29.12 266.81,-19.12 263.31,-29.12 270.31,-29.12"/>
</a>
</g>
</g>
<!-- Node10 -->
<g id="Node000010" class="node">
<title>Node10</title>
<g id="a_Node000010"><a xlink:href="StrategyRentCalculator_8hpp.html" target="_top" xlink:title=" ">
<polygon fill="white" stroke="#666666" points="499.81,-85 359.81,-85 359.81,-55 499.81,-55 499.81,-85"/>
<text text-anchor="start" x="367.81" y="-73" font-family="Helvetica,sans-Serif" font-size="10.00">../../utils/strategy</text>
<text text-anchor="middle" x="429.81" y="-62" font-family="Helvetica,sans-Serif" font-size="10.00">/StrategyRentCalculator.hpp</text>
</a>
</g>
</g>
<!-- Node5&#45;&gt;Node10 -->
<g id="edge11_Node000005_Node000010" class="edge">
<title>Node5&#45;&gt;Node10</title>
<g id="a_edge11_Node000005_Node000010"><a xlink:title=" ">
<path fill="none" stroke="#63b8ff" d="M288.8,-126.37C313.21,-116.78 353.29,-101.05 384.49,-88.8"/>
<polygon fill="#63b8ff" stroke="#63b8ff" points="385.83,-92.03 393.86,-85.12 383.27,-85.51 385.83,-92.03"/>
</a>
</g>
</g>
<!-- Node6&#45;&gt;Node4 -->
<g id="edge6_Node000006_Node000004" class="edge">
<title>Node6&#45;&gt;Node4</title>
<g id="a_edge6_Node000006_Node000004"><a xlink:title=" ">
<path fill="none" stroke="#63b8ff" d="M163,-60.49C137.56,-50.57 95.3,-34.09 66.3,-22.78"/>
<polygon fill="#63b8ff" stroke="#63b8ff" points="67.24,-19.39 56.65,-19.02 64.69,-25.91 67.24,-19.39"/>
</a>
</g>
</g>
<!-- Node6&#45;&gt;Node7 -->
<g id="edge7_Node000006_Node000007" class="edge">
<title>Node6&#45;&gt;Node7</title>
<g id="a_edge7_Node000006_Node000007"><a xlink:title=" ">
<path fill="none" stroke="#63b8ff" d="M196.91,-60.37C209.87,-51.12 230.67,-36.28 246.22,-25.19"/>
<polygon fill="#63b8ff" stroke="#63b8ff" points="248.56,-27.82 254.66,-19.17 244.49,-22.13 248.56,-27.82"/>
</a>
</g>
</g>
<!-- Node8 -->
<g id="Node000008" class="node">
<title>Node8</title>
<g id="a_Node000008"><a xlink:title=" ">
<polygon fill="#e0e0e0" stroke="#999999" points="212.31,-19 171.31,-19 171.31,0 212.31,0 212.31,-19"/>
<text text-anchor="middle" x="191.81" y="-7" font-family="Helvetica,sans-Serif" font-size="10.00">string</text>
</a>
</g>
</g>
<!-- Node6&#45;&gt;Node8 -->
<g id="edge8_Node000006_Node000008" class="edge">
<title>Node6&#45;&gt;Node8</title>
<g id="a_edge8_Node000006_Node000008"><a xlink:title=" ">
<path fill="none" stroke="#63b8ff" d="M185.85,-60.37C186.82,-52.25 188.31,-39.81 189.55,-29.39"/>
<polygon fill="#63b8ff" stroke="#63b8ff" points="193.06,-29.51 190.78,-19.17 186.11,-28.68 193.06,-29.51"/>
</a>
</g>
</g>
<!-- Node9 -->
<g id="Node000009" class="node">
<title>Node9</title>
<g id="a_Node000009"><a xlink:title=" ">
<polygon fill="#e0e0e0" stroke="#999999" points="152.81,-19 112.81,-19 112.81,0 152.81,0 152.81,-19"/>
<text text-anchor="middle" x="132.81" y="-7" font-family="Helvetica,sans-Serif" font-size="10.00">utility</text>
</a>
</g>
</g>
<!-- Node6&#45;&gt;Node9 -->
<g id="edge9_Node000006_Node000009" class="edge">
<title>Node6&#45;&gt;Node9</title>
<g id="a_edge9_Node000006_Node000009"><a xlink:title=" ">
<path fill="none" stroke="#63b8ff" d="M177.14,-60.37C169.31,-51.55 156.95,-37.66 147.28,-26.77"/>
<polygon fill="#63b8ff" stroke="#63b8ff" points="149.78,-24.32 140.52,-19.17 144.54,-28.97 149.78,-24.32"/>
</a>
</g>
</g>
<!-- Node11&#45;&gt;Node5 -->
<g id="edge14_Node000011_Node000005" class="edge">
<title>Node11&#45;&gt;Node5</title>
<g id="a_edge14_Node000011_Node000005"><a xlink:title=" ">
<path fill="none" stroke="#63b8ff" d="M300.06,-186.87C294.35,-178.31 285.46,-164.97 278.31,-154.24"/>
<polygon fill="#63b8ff" stroke="#63b8ff" points="281.05,-152.05 272.59,-145.67 275.23,-155.93 281.05,-152.05"/>
</a>
</g>
</g>
<!-- Node12 -->
<g id="Node000012" class="node">
<title>Node12</title>
<g id="a_Node000012"><a xlink:href="RailroadRentCalculator_8hpp.html" target="_top" xlink:title=" ">
<polygon fill="white" stroke="#666666" points="478.31,-151 339.31,-151 339.31,-121 478.31,-121 478.31,-151"/>
<text text-anchor="start" x="347.31" y="-139" font-family="Helvetica,sans-Serif" font-size="10.00">../../utils/strategy</text>
<text text-anchor="middle" x="408.81" y="-128" font-family="Helvetica,sans-Serif" font-size="10.00">/RailroadRentCalculator.hpp</text>
</a>
</g>
</g>
<!-- Node11&#45;&gt;Node12 -->
<g id="edge15_Node000011_Node000012" class="edge">
<title>Node11&#45;&gt;Node12</title>
<g id="a_edge15_Node000011_Node000012"><a xlink:title=" ">
<path fill="none" stroke="#63b8ff" d="M321.01,-186.87C335.12,-178.86 356.61,-166.65 374.81,-156.31"/>
<polygon fill="#63b8ff" stroke="#63b8ff" points="376.99,-159.1 383.96,-151.11 373.54,-153.01 376.99,-159.1"/>
</a>
</g>
</g>
<!-- Node12&#45;&gt;Node10 -->
<g id="edge16_Node000012_Node000010" class="edge">
<title>Node12&#45;&gt;Node10</title>
<g id="a_edge16_Node000012_Node000010"><a xlink:title=" ">
<path fill="none" stroke="#63b8ff" d="M413.47,-120.8C415.97,-113.17 419.12,-103.57 421.99,-94.84"/>
<polygon fill="#63b8ff" stroke="#63b8ff" points="425.37,-95.76 425.16,-85.16 418.72,-93.57 425.37,-95.76"/>
</a>
</g>
</g>
<!-- Node13 -->
<g id="Node000013" class="node">
<title>Node13</title>
<g id="a_Node000013"><a xlink:title=" ">
<polygon fill="#e0e0e0" stroke="#999999" points="582.81,-79.5 538.81,-79.5 538.81,-60.5 582.81,-60.5 582.81,-79.5"/>
<text text-anchor="middle" x="560.81" y="-67.5" font-family="Helvetica,sans-Serif" font-size="10.00">cmath</text>
</a>
</g>
</g>
<!-- Node12&#45;&gt;Node13 -->
<g id="edge17_Node000012_Node000013" class="edge">
<title>Node12&#45;&gt;Node13</title>
<g id="a_edge17_Node000012_Node000013"><a xlink:title=" ">
<path fill="none" stroke="#63b8ff" d="M442.17,-120.95C468.71,-109.78 505.51,-94.29 531.05,-83.53"/>
<polygon fill="#63b8ff" stroke="#63b8ff" points="532.73,-86.62 540.58,-79.52 530.01,-80.17 532.73,-86.62"/>
</a>
</g>
</g>
<!-- Node14&#45;&gt;Node5 -->
<g id="edge19_Node000014_Node000005" class="edge">
<title>Node14&#45;&gt;Node5</title>
<g id="a_edge19_Node000014_Node000005"><a xlink:title=" ">
<path fill="none" stroke="#63b8ff" d="M457.39,-186.99C418.25,-176.73 352.32,-159.43 309.19,-148.12"/>
<polygon fill="#63b8ff" stroke="#63b8ff" points="309.84,-144.67 299.28,-145.52 308.06,-151.44 309.84,-144.67"/>
</a>
</g>
</g>
<!-- Node15 -->
<g id="Node000015" class="node">
<title>Node15</title>
<g id="a_Node000015"><a xlink:href="UtilityRentCalculator_8hpp.html" target="_top" xlink:title=" ">
<polygon fill="white" stroke="#666666" points="624.81,-151 496.81,-151 496.81,-121 624.81,-121 624.81,-151"/>
<text text-anchor="start" x="504.81" y="-139" font-family="Helvetica,sans-Serif" font-size="10.00">../../utils/strategy</text>
<text text-anchor="middle" x="560.81" y="-128" font-family="Helvetica,sans-Serif" font-size="10.00">/UtilityRentCalculator.hpp</text>
</a>
</g>
</g>
<!-- Node14&#45;&gt;Node15 -->
<g id="edge20_Node000014_Node000015" class="edge">
<title>Node14&#45;&gt;Node15</title>
<g id="a_edge20_Node000014_Node000015"><a xlink:title=" ">
<path fill="none" stroke="#63b8ff" d="M500.29,-186.87C509.57,-179.22 523.48,-167.76 535.63,-157.75"/>
<polygon fill="#63b8ff" stroke="#63b8ff" points="538.19,-160.17 543.68,-151.11 533.74,-154.77 538.19,-160.17"/>
</a>
</g>
</g>
<!-- Node15&#45;&gt;Node10 -->
<g id="edge21_Node000015_Node000010" class="edge">
<title>Node15&#45;&gt;Node10</title>
<g id="a_edge21_Node000015_Node000010"><a xlink:title=" ">
<path fill="none" stroke="#63b8ff" d="M532.06,-120.95C513.12,-111.7 488.12,-99.49 467.58,-89.45"/>
<polygon fill="#63b8ff" stroke="#63b8ff" points="469.02,-86.26 458.49,-85.01 465.94,-92.55 469.02,-86.26"/>
</a>
</g>
</g>
<!-- Node15&#45;&gt;Node13 -->
<g id="edge22_Node000015_Node000013" class="edge">
<title>Node15&#45;&gt;Node13</title>
<g id="a_edge22_Node000015_Node000013"><a xlink:title=" ">
<path fill="none" stroke="#63b8ff" d="M560.81,-120.8C560.81,-111.7 560.81,-99.79 560.81,-89.9"/>
<polygon fill="#63b8ff" stroke="#63b8ff" points="564.31,-89.84 560.81,-79.84 557.31,-89.84 564.31,-89.84"/>
</a>
</g>
</g>
<!-- Node16&#45;&gt;Node5 -->
<g id="edge24_Node000016_Node000005" class="edge">
<title>Node16&#45;&gt;Node5</title>
<g id="a_edge24_Node000016_Node000005"><a xlink:title=" ">
<path fill="none" stroke="#63b8ff" d="M556.28,-187.82C489.21,-177.36 373.04,-159.03 330.81,-151 325.44,-149.98 319.82,-148.84 314.24,-147.68"/>
<polygon fill="#63b8ff" stroke="#63b8ff" points="314.82,-144.22 304.31,-145.56 313.36,-151.07 314.82,-144.22"/>
</a>
</g>
</g>
<!-- Node17 -->
<g id="Node000017" class="node">
<title>Node17</title>
<g id="a_Node000017"><a xlink:href="StreetRentCalculator_8hpp.html" target="_top" xlink:title=" ">
<polygon fill="white" stroke="#666666" points="772.31,-151 643.31,-151 643.31,-121 772.31,-121 772.31,-151"/>
<text text-anchor="start" x="651.31" y="-139" font-family="Helvetica,sans-Serif" font-size="10.00">../../utils/strategy</text>
<text text-anchor="middle" x="707.81" y="-128" font-family="Helvetica,sans-Serif" font-size="10.00">/StreetRentCalculator.hpp</text>
</a>
</g>
</g>
<!-- Node16&#45;&gt;Node17 -->
<g id="edge25_Node000016_Node000017" class="edge">
<title>Node16&#45;&gt;Node17</title>
<g id="a_edge25_Node000016_Node000017"><a xlink:title=" ">
<path fill="none" stroke="#63b8ff" d="M620.86,-186.87C634.83,-178.86 656.12,-166.65 674.14,-156.31"/>
<polygon fill="#63b8ff" stroke="#63b8ff" points="676.27,-159.13 683.2,-151.11 672.79,-153.05 676.27,-159.13"/>
</a>
</g>
</g>
<!-- Node17&#45;&gt;Node10 -->
<g id="edge26_Node000017_Node000010" class="edge">
<title>Node17&#45;&gt;Node10</title>
<g id="a_edge26_Node000017_Node000010"><a xlink:title=" ">
<path fill="none" stroke="#63b8ff" d="M646.8,-120.95C603.71,-111.03 545.83,-97.71 500.69,-87.32"/>
<polygon fill="#63b8ff" stroke="#63b8ff" points="501.21,-83.85 490.68,-85.01 499.64,-90.67 501.21,-83.85"/>
</a>
</g>
</g>
<!-- Node17&#45;&gt;Node13 -->
<g id="edge27_Node000017_Node000013" class="edge">
<title>Node17&#45;&gt;Node13</title>
<g id="a_edge27_Node000017_Node000013"><a xlink:title=" ">
<path fill="none" stroke="#63b8ff" d="M675.55,-120.95C649.89,-109.78 614.3,-94.29 589.59,-83.53"/>
<polygon fill="#63b8ff" stroke="#63b8ff" points="590.94,-80.3 580.38,-79.52 588.15,-86.72 590.94,-80.3"/>
</a>
</g>
</g>
<!-- Node18&#45;&gt;Node6 -->
<g id="edge29_Node000018_Node000006" class="edge">
<title>Node18&#45;&gt;Node6</title>
<g id="a_edge29_Node000018_Node000006"><a xlink:title=" ">
<path fill="none" stroke="#63b8ff" d="M101.76,-126.37C117.51,-115.87 144.32,-98 163.21,-85.4"/>
<polygon fill="#63b8ff" stroke="#63b8ff" points="165.38,-88.16 171.76,-79.7 161.5,-82.33 165.38,-88.16"/>
</a>
</g>
</g>
</g>
</svg>
