<?xml version="1.0" encoding="UTF-8" standalone="no"?>
<!DOCTYPE svg PUBLIC "-//W3C//DTD SVG 1.1//EN"
 "http://www.w3.org/Graphics/SVG/1.1/DTD/svg11.dtd">
<!-- Generated by graphviz version 2.43.0 (0)
 -->
<!-- Title: include/model/Board.hpp Pages: 1 -->
<!--zoomable 269 -->

<svg id="main" version="1.1" xmlns="http://www.w3.org/2000/svg" xmlns:xlink="http://www.w3.org/1999/xlink" xml:space="preserve" onload="init(evt)">
<style type="text/css"><![CDATA[
.node, .edge {opacity: 0.7;}
.node.selected, .edge.selected {opacity: 1;}
.edge:hover path { stroke: red; }
.edge:hover polygon { stroke: red; fill: red; }
]]></style>

<defs>
  <circle id="rim" cx="0" cy="0" r="7"/>
  <circle id="rim2" cx="0" cy="0" r="3.5"/>
  <g id="zoomPlus">
    <use xlink:href="#rim" fill="#404040"><set attributeName="fill" to="#808080" begin="zoomplus.mouseover" end="zoomplus.mouseout"/></use>
    <path d="M-4,0h8M0,-4v8" fill="none" stroke="white" stroke-width="1.5" pointer-events="none"/>
  </g>
  <g id="zoomMin">
    <use xlink:href="#rim" fill="#404040"><set attributeName="fill" to="#808080" begin="zoomminus.mouseover" end="zoomminus.mouseout"/></use>
    <path d="M-4,0h8" fill="none" stroke="white" stroke-width="1.5" pointer-events="none"/>
  </g>
  <g id="arrowUp" transform="translate(30 24)">
    <use xlink:href="#rim"/>
    <path pointer-events="none" fill="none" stroke="white" stroke-width="1.5" d="M0,-3.0v7 M-2.5,-0.5L0,-3.0L2.5,-0.5"/>
  </g>
  <g id="arrowRight" transform="rotate(90) translate(36 -43)">
    <use xlink:href="#rim"/>
    <path pointer-events="none" fill="none" stroke="white" stroke-width="1.5" d="M0,-3.0v7 M-2.5,-0.5L0,-3.0L2.5,-0.5"/>
  </g>
  <g id="arrowDown" transform="rotate(180) translate(-30 -48)">
    <use xlink:href="#rim"/>
    <path pointer-events="none" fill="none" stroke="white" stroke-width="1.5" d="M0,-3.0v7 M-2.5,-0.5L0,-3.0L2.5,-0.5"/>
  </g>
  <g id="arrowLeft" transform="rotate(270) translate(-36 17)">
    <use xlink:href="#rim"/>
    <path pointer-events="none" fill="none" stroke="white" stroke-width="1.5" d="M0,-3.0v7 M-2.5,-0.5L0,-3.0L2.5,-0.5"/>
  </g>
  <g id="resetDef">
    <use xlink:href="#rim2" fill="#404040"><set attributeName="fill" to="#808080" begin="reset.mouseover" end="reset.mouseout"/></use>
  </g>
</defs>
<script type="application/ecmascript">
var viewWidth = 860;
var viewHeight = 269;
var sectionId = 'dynsection-0';
</script>
<script type="application/ecmascript" xlink:href="svg.min.js"/>
<svg id="graph" class="graph">
<g id="viewport">
<title>include/model/Board.hpp</title>
<!-- Node1 -->
<g id="Node000001" class="node">
<title>Node1</title>
<g id="a_Node000001"><a xlink:title=" ">
<polygon fill="#999999" stroke="#666666" points="287,-261 163,-261 163,-242 287,-242 287,-261"/>
<text text-anchor="middle" x="225" y="-249" font-family="Helvetica,sans-Serif" font-size="10.00">include/model/Board.hpp</text>
</a>
</g>
</g>
<!-- Node2 -->
<g id="Node000002" class="node">
<title>Node2</title>
<g id="a_Node000002"><a xlink:title=" ">
<polygon fill="#e0e0e0" stroke="#999999" points="44,-206 0,-206 0,-187 44,-187 44,-206"/>
<text text-anchor="middle" x="22" y="-194" font-family="Helvetica,sans-Serif" font-size="10.00">vector</text>
</a>
</g>
</g>
<!-- Node1&#45;&gt;Node2 -->
<g id="edge1_Node000001_Node000002" class="edge">
<title>Node1&#45;&gt;Node2</title>
<g id="a_edge1_Node000001_Node000002"><a xlink:title=" ">
<path fill="none" stroke="#63b8ff" d="M192.38,-241.98C154.38,-232.06 91.97,-215.77 54.16,-205.9"/>
<polygon fill="#63b8ff" stroke="#63b8ff" points="54.75,-202.43 44.19,-203.29 52.98,-209.21 54.75,-202.43"/>
</a>
</g>
</g>
<!-- Node3 -->
<g id="Node000003" class="node">
<title>Node3</title>
<g id="a_Node000003"><a xlink:title=" ">
<polygon fill="#e0e0e0" stroke="#999999" points="113,-19 61,-19 61,0 113,0 113,-19"/>
<text text-anchor="middle" x="87" y="-7" font-family="Helvetica,sans-Serif" font-size="10.00">memory</text>
</a>
</g>
</g>
<!-- Node1&#45;&gt;Node3 -->
<g id="edge2_Node000001_Node000003" class="edge">
<title>Node1&#45;&gt;Node3</title>
<g id="a_edge2_Node000001_Node000003"><a xlink:title=" ">
<path fill="none" stroke="#63b8ff" d="M202.03,-241.86C185.03,-234.49 162.25,-222.47 147,-206 99.78,-155.01 89.69,-67.69 87.56,-29.42"/>
<polygon fill="#63b8ff" stroke="#63b8ff" points="91.05,-29.05 87.12,-19.21 84.05,-29.35 91.05,-29.05"/>
</a>
</g>
</g>
<!-- Node4 -->
<g id="Node000004" class="node">
<title>Node4</title>
<g id="a_Node000004"><a xlink:href="Property_8hpp.html" target="_top" xlink:title=" ">
<polygon fill="white" stroke="#666666" points="400,-145.5 292,-145.5 292,-126.5 400,-126.5 400,-145.5"/>
<text text-anchor="middle" x="346" y="-133.5" font-family="Helvetica,sans-Serif" font-size="10.00">squares/Property.hpp</text>
</a>
</g>
</g>
<!-- Node1&#45;&gt;Node4 -->
<g id="edge3_Node000001_Node000004" class="edge">
<title>Node1&#45;&gt;Node4</title>
<g id="a_edge3_Node000001_Node000004"><a xlink:title=" ">
<path fill="none" stroke="#63b8ff" d="M228.71,-241.82C234.65,-228.71 247.32,-203.62 264,-187 279.4,-171.65 300.39,-158.96 317.28,-150.21"/>
<polygon fill="#63b8ff" stroke="#63b8ff" points="319.29,-153.12 326.67,-145.52 316.16,-146.86 319.29,-153.12"/>
</a>
</g>
</g>
<!-- Node5 -->
<g id="Node000005" class="node">
<title>Node5</title>
<g id="a_Node000005"><a xlink:href="Square_8hpp.html" target="_top" xlink:title=" ">
<polygon fill="white" stroke="#666666" points="239,-79.5 173,-79.5 173,-60.5 239,-60.5 239,-79.5"/>
<text text-anchor="middle" x="206" y="-67.5" font-family="Helvetica,sans-Serif" font-size="10.00">Square.hpp</text>
</a>
</g>
</g>
<!-- Node1&#45;&gt;Node5 -->
<g id="edge11_Node000001_Node000005" class="edge">
<title>Node1&#45;&gt;Node5</title>
<g id="a_edge11_Node000001_Node000005"><a xlink:title=" ">
<path fill="none" stroke="#63b8ff" d="M211.5,-241.78C189.28,-226.53 145.81,-192.62 129,-151 124.01,-138.64 122.64,-132.72 129,-121 138.22,-104.02 155.97,-91.91 172.11,-83.87"/>
<polygon fill="#63b8ff" stroke="#63b8ff" points="173.74,-86.97 181.34,-79.59 170.8,-80.62 173.74,-86.97"/>
</a>
</g>
</g>
<!-- Node10 -->
<g id="Node000010" class="node">
<title>Node10</title>
<g id="a_Node000010"><a xlink:href="Railroad_8hpp.html" target="_top" xlink:title=" ">
<polygon fill="white" stroke="#666666" points="381.5,-206 272.5,-206 272.5,-187 381.5,-187 381.5,-206"/>
<text text-anchor="middle" x="327" y="-194" font-family="Helvetica,sans-Serif" font-size="10.00">squares/Railroad.hpp</text>
</a>
</g>
</g>
<!-- Node1&#45;&gt;Node10 -->
<g id="edge12_Node000001_Node000010" class="edge">
<title>Node1&#45;&gt;Node10</title>
<g id="a_edge12_Node000001_Node000010"><a xlink:title=" ">
<path fill="none" stroke="#63b8ff" d="M241.39,-241.98C257.57,-233.57 282.57,-220.59 301.38,-210.81"/>
<polygon fill="#63b8ff" stroke="#63b8ff" points="303.05,-213.89 310.31,-206.17 299.83,-207.68 303.05,-213.89"/>
</a>
</g>
</g>
<!-- Node13 -->
<g id="Node000013" class="node">
<title>Node13</title>
<g id="a_Node000013"><a xlink:href="Utility_8hpp.html" target="_top" xlink:title=" ">
<polygon fill="white" stroke="#666666" points="496.5,-206 399.5,-206 399.5,-187 496.5,-187 496.5,-206"/>
<text text-anchor="middle" x="448" y="-194" font-family="Helvetica,sans-Serif" font-size="10.00">squares/Utility.hpp</text>
</a>
</g>
</g>
<!-- Node1&#45;&gt;Node13 -->
<g id="edge17_Node000001_Node000013" class="edge">
<title>Node1&#45;&gt;Node13</title>
<g id="a_edge17_Node000001_Node000013"><a xlink:title=" ">
<path fill="none" stroke="#63b8ff" d="M260.83,-241.98C299.16,-232.87 360.08,-218.4 401.95,-208.45"/>
<polygon fill="#63b8ff" stroke="#63b8ff" points="402.97,-211.8 411.89,-206.08 401.35,-204.99 402.97,-211.8"/>
</a>
</g>
</g>
<!-- Node15 -->
<g id="Node000015" class="node">
<title>Node15</title>
<g id="a_Node000015"><a xlink:href="Street_8hpp.html" target="_top" xlink:title=" ">
<polygon fill="white" stroke="#666666" points="613.5,-206 514.5,-206 514.5,-187 613.5,-187 613.5,-206"/>
<text text-anchor="middle" x="564" y="-194" font-family="Helvetica,sans-Serif" font-size="10.00">squares/Street.hpp</text>
</a>
</g>
</g>
<!-- Node1&#45;&gt;Node15 -->
<g id="edge22_Node000001_Node000015" class="edge">
<title>Node1&#45;&gt;Node15</title>
<g id="a_edge22_Node000001_Node000015"><a xlink:title=" ">
<path fill="none" stroke="#63b8ff" d="M279.47,-241.98C340.9,-232.38 440.5,-216.81 504.09,-206.87"/>
<polygon fill="#63b8ff" stroke="#63b8ff" points="505.02,-210.26 514.36,-205.26 503.94,-203.35 505.02,-210.26"/>
</a>
</g>
</g>
<!-- Node17 -->
<g id="Node000017" class="node">
<title>Node17</title>
<g id="a_Node000017"><a xlink:href="SpecialSquare_8hpp.html" target="_top" xlink:title=" ">
<polygon fill="white" stroke="#666666" points="274,-145.5 138,-145.5 138,-126.5 274,-126.5 274,-145.5"/>
<text text-anchor="middle" x="206" y="-133.5" font-family="Helvetica,sans-Serif" font-size="10.00">squares/SpecialSquare.hpp</text>
</a>
</g>
</g>
<!-- Node1&#45;&gt;Node17 -->
<g id="edge27_Node000001_Node000017" class="edge">
<title>Node1&#45;&gt;Node17</title>
<g id="a_edge27_Node000001_Node000017"><a xlink:title=" ">
<path fill="none" stroke="#63b8ff" d="M223.57,-241.97C220.52,-223.73 213.29,-180.57 209.12,-155.64"/>
<polygon fill="#63b8ff" stroke="#63b8ff" points="212.55,-154.91 207.44,-145.63 205.64,-156.07 212.55,-154.91"/>
</a>
</g>
</g>
<!-- Node4&#45;&gt;Node5 -->
<g id="edge4_Node000004_Node000005" class="edge">
<title>Node4&#45;&gt;Node5</title>
<g id="a_edge4_Node000004_Node000005"><a xlink:title=" ">
<path fill="none" stroke="#63b8ff" d="M327.12,-126.37C303.22,-115.44 261.83,-96.52 234.18,-83.88"/>
<polygon fill="#63b8ff" stroke="#63b8ff" points="235.58,-80.67 225.03,-79.7 232.67,-87.04 235.58,-80.67"/>
</a>
</g>
</g>
<!-- Node6 -->
<g id="Node000006" class="node">
<title>Node6</title>
<g id="a_Node000006"><a xlink:title=" ">
<polygon fill="#e0e0e0" stroke="#999999" points="348.5,-19 289.5,-19 289.5,0 348.5,0 348.5,-19"/>
<text text-anchor="middle" x="319" y="-7" font-family="Helvetica,sans-Serif" font-size="10.00">stdexcept</text>
</a>
</g>
</g>
<!-- Node4&#45;&gt;Node6 -->
<g id="edge9_Node000004_Node000006" class="edge">
<title>Node4&#45;&gt;Node6</title>
<g id="a_edge9_Node000004_Node000006"><a xlink:title=" ">
<path fill="none" stroke="#63b8ff" d="M344.14,-126.44C339.81,-106.45 328.94,-56.32 323.01,-28.98"/>
<polygon fill="#63b8ff" stroke="#63b8ff" points="326.41,-28.15 320.87,-19.12 319.57,-29.63 326.41,-28.15"/>
</a>
</g>
</g>
<!-- Node9 -->
<g id="Node000009" class="node">
<title>Node9</title>
<g id="a_Node000009"><a xlink:href="StrategyRentCalculator_8hpp.html" target="_top" xlink:title=" ">
<polygon fill="white" stroke="#666666" points="579,-85 439,-85 439,-55 579,-55 579,-85"/>
<text text-anchor="start" x="447" y="-73" font-family="Helvetica,sans-Serif" font-size="10.00">../../utils/strategy</text>
<text text-anchor="middle" x="509" y="-62" font-family="Helvetica,sans-Serif" font-size="10.00">/StrategyRentCalculator.hpp</text>
</a>
</g>
</g>
<!-- Node4&#45;&gt;Node9 -->
<g id="edge10_Node000004_Node000009" class="edge">
<title>Node4&#45;&gt;Node9</title>
<g id="a_edge10_Node000004_Node000009"><a xlink:title=" ">
<path fill="none" stroke="#63b8ff" d="M367.98,-126.37C392.4,-116.78 432.48,-101.05 463.68,-88.8"/>
<polygon fill="#63b8ff" stroke="#63b8ff" points="465.02,-92.03 473.05,-85.12 462.46,-85.51 465.02,-92.03"/>
</a>
</g>
</g>
<!-- Node5&#45;&gt;Node3 -->
<g id="edge5_Node000005_Node000003" class="edge">
<title>Node5&#45;&gt;Node3</title>
<g id="a_edge5_Node000005_Node000003"><a xlink:title=" ">
<path fill="none" stroke="#63b8ff" d="M188.7,-60.49C168.95,-50.79 136.45,-34.81 113.51,-23.53"/>
<polygon fill="#63b8ff" stroke="#63b8ff" points="114.84,-20.29 104.32,-19.02 111.75,-26.57 114.84,-20.29"/>
</a>
</g>
</g>
<!-- Node5&#45;&gt;Node6 -->
<g id="edge6_Node000005_Node000006" class="edge">
<title>Node5&#45;&gt;Node6</title>
<g id="a_edge6_Node000005_Node000006"><a xlink:title=" ">
<path fill="none" stroke="#63b8ff" d="M222.67,-60.37C241.28,-50.73 271.62,-35.03 293.28,-23.81"/>
<polygon fill="#63b8ff" stroke="#63b8ff" points="294.99,-26.87 302.26,-19.17 291.77,-20.66 294.99,-26.87"/>
</a>
</g>
</g>
<!-- Node7 -->
<g id="Node000007" class="node">
<title>Node7</title>
<g id="a_Node000007"><a xlink:title=" ">
<polygon fill="#e0e0e0" stroke="#999999" points="235.5,-19 194.5,-19 194.5,0 235.5,0 235.5,-19"/>
<text text-anchor="middle" x="215" y="-7" font-family="Helvetica,sans-Serif" font-size="10.00">string</text>
</a>
</g>
</g>
<!-- Node5&#45;&gt;Node7 -->
<g id="edge7_Node000005_Node000007" class="edge">
<title>Node5&#45;&gt;Node7</title>
<g id="a_edge7_Node000005_Node000007"><a xlink:title=" ">
<path fill="none" stroke="#63b8ff" d="M207.33,-60.37C208.59,-52.16 210.53,-39.54 212.15,-29.05"/>
<polygon fill="#63b8ff" stroke="#63b8ff" points="215.61,-29.58 213.67,-19.17 208.69,-28.52 215.61,-29.58"/>
</a>
</g>
</g>
<!-- Node8 -->
<g id="Node000008" class="node">
<title>Node8</title>
<g id="a_Node000008"><a xlink:title=" ">
<polygon fill="#e0e0e0" stroke="#999999" points="176,-19 136,-19 136,0 176,0 176,-19"/>
<text text-anchor="middle" x="156" y="-7" font-family="Helvetica,sans-Serif" font-size="10.00">utility</text>
</a>
</g>
</g>
<!-- Node5&#45;&gt;Node8 -->
<g id="edge8_Node000005_Node000008" class="edge">
<title>Node5&#45;&gt;Node8</title>
<g id="a_edge8_Node000005_Node000008"><a xlink:title=" ">
<path fill="none" stroke="#63b8ff" d="M198.62,-60.37C191.09,-51.55 179.21,-37.66 169.91,-26.77"/>
<polygon fill="#63b8ff" stroke="#63b8ff" points="172.57,-24.5 163.41,-19.17 167.24,-29.04 172.57,-24.5"/>
</a>
</g>
</g>
<!-- Node10&#45;&gt;Node4 -->
<g id="edge13_Node000010_Node000004" class="edge">
<title>Node10&#45;&gt;Node4</title>
<g id="a_edge13_Node000010_Node000004"><a xlink:title=" ">
<path fill="none" stroke="#63b8ff" d="M329.8,-186.87C332.5,-178.57 336.65,-165.78 340.08,-155.22"/>
<polygon fill="#63b8ff" stroke="#63b8ff" points="343.42,-156.26 343.18,-145.67 336.77,-154.1 343.42,-156.26"/>
</a>
</g>
</g>
<!-- Node11 -->
<g id="Node000011" class="node">
<title>Node11</title>
<g id="a_Node000011"><a xlink:href="RailroadRentCalculator_8hpp.html" target="_top" xlink:title=" ">
<polygon fill="white" stroke="#666666" points="557.5,-151 418.5,-151 418.5,-121 557.5,-121 557.5,-151"/>
<text text-anchor="start" x="426.5" y="-139" font-family="Helvetica,sans-Serif" font-size="10.00">../../utils/strategy</text>
<text text-anchor="middle" x="488" y="-128" font-family="Helvetica,sans-Serif" font-size="10.00">/RailroadRentCalculator.hpp</text>
</a>
</g>
</g>
<!-- Node10&#45;&gt;Node11 -->
<g id="edge14_Node000010_Node000011" class="edge">
<title>Node10&#45;&gt;Node11</title>
<g id="a_edge14_Node000010_Node000011"><a xlink:title=" ">
<path fill="none" stroke="#63b8ff" d="M350.41,-186.99C373.68,-178.54 410.07,-165.32 439.58,-154.59"/>
<polygon fill="#63b8ff" stroke="#63b8ff" points="441.09,-157.77 449.29,-151.06 438.7,-151.19 441.09,-157.77"/>
</a>
</g>
</g>
<!-- Node11&#45;&gt;Node9 -->
<g id="edge15_Node000011_Node000009" class="edge">
<title>Node11&#45;&gt;Node9</title>
<g id="a_edge15_Node000011_Node000009"><a xlink:title=" ">
<path fill="none" stroke="#63b8ff" d="M492.66,-120.8C495.16,-113.17 498.31,-103.57 501.18,-94.84"/>
<polygon fill="#63b8ff" stroke="#63b8ff" points="504.56,-95.76 504.35,-85.16 497.91,-93.57 504.56,-95.76"/>
</a>
</g>
</g>
<!-- Node12 -->
<g id="Node000012" class="node">
<title>Node12</title>
<g id="a_Node000012"><a xlink:title=" ">
<polygon fill="#e0e0e0" stroke="#999999" points="662,-79.5 618,-79.5 618,-60.5 662,-60.5 662,-79.5"/>
<text text-anchor="middle" x="640" y="-67.5" font-family="Helvetica,sans-Serif" font-size="10.00">cmath</text>
</a>
</g>
</g>
<!-- Node11&#45;&gt;Node12 -->
<g id="edge16_Node000011_Node000012" class="edge">
<title>Node11&#45;&gt;Node12</title>
<g id="a_edge16_Node000011_Node000012"><a xlink:title=" ">
<path fill="none" stroke="#63b8ff" d="M521.36,-120.95C547.9,-109.78 584.69,-94.29 610.24,-83.53"/>
<polygon fill="#63b8ff" stroke="#63b8ff" points="611.91,-86.62 619.77,-79.52 609.2,-80.17 611.91,-86.62"/>
</a>
</g>
</g>
<!-- Node13&#45;&gt;Node4 -->
<g id="edge18_Node000013_Node000004" class="edge">
<title>Node13&#45;&gt;Node4</title>
<g id="a_edge18_Node000013_Node000004"><a xlink:title=" ">
<path fill="none" stroke="#63b8ff" d="M432.95,-186.87C416.38,-177.36 389.5,-161.95 370.01,-150.77"/>
<polygon fill="#63b8ff" stroke="#63b8ff" points="371.53,-147.61 361.11,-145.67 368.05,-153.68 371.53,-147.61"/>
</a>
</g>
</g>
<!-- Node14 -->
<g id="Node000014" class="node">
<title>Node14</title>
<g id="a_Node000014"><a xlink:href="UtilityRentCalculator_8hpp.html" target="_top" xlink:title=" ">
<polygon fill="white" stroke="#666666" points="704,-151 576,-151 576,-121 704,-121 704,-151"/>
<text text-anchor="start" x="584" y="-139" font-family="Helvetica,sans-Serif" font-size="10.00">../../utils/strategy</text>
<text text-anchor="middle" x="640" y="-128" font-family="Helvetica,sans-Serif" font-size="10.00">/UtilityRentCalculator.hpp</text>
</a>
</g>
</g>
<!-- Node13&#45;&gt;Node14 -->
<g id="edge19_Node000013_Node000014" class="edge">
<title>Node13&#45;&gt;Node14</title>
<g id="a_edge19_Node000013_Node000014"><a xlink:title=" ">
<path fill="none" stroke="#63b8ff" d="M475.92,-186.99C504.15,-178.39 548.58,-164.86 584.08,-154.04"/>
<polygon fill="#63b8ff" stroke="#63b8ff" points="585.29,-157.33 593.84,-151.06 583.25,-150.63 585.29,-157.33"/>
</a>
</g>
</g>
<!-- Node14&#45;&gt;Node9 -->
<g id="edge20_Node000014_Node000009" class="edge">
<title>Node14&#45;&gt;Node9</title>
<g id="a_edge20_Node000014_Node000009"><a xlink:title=" ">
<path fill="none" stroke="#63b8ff" d="M611.25,-120.95C592.31,-111.7 567.31,-99.49 546.77,-89.45"/>
<polygon fill="#63b8ff" stroke="#63b8ff" points="548.2,-86.26 537.68,-85.01 545.13,-92.55 548.2,-86.26"/>
</a>
</g>
</g>
<!-- Node14&#45;&gt;Node12 -->
<g id="edge21_Node000014_Node000012" class="edge">
<title>Node14&#45;&gt;Node12</title>
<g id="a_edge21_Node000014_Node000012"><a xlink:title=" ">
<path fill="none" stroke="#63b8ff" d="M640,-120.8C640,-111.7 640,-99.79 640,-89.9"/>
<polygon fill="#63b8ff" stroke="#63b8ff" points="643.5,-89.84 640,-79.84 636.5,-89.84 643.5,-89.84"/>
</a>
</g>
</g>
<!-- Node15&#45;&gt;Node4 -->
<g id="edge23_Node000015_Node000004" class="edge">
<title>Node15&#45;&gt;Node4</title>
<g id="a_edge23_Node000015_Node000004"><a xlink:title=" ">
<path fill="none" stroke="#63b8ff" d="M532.3,-186.99C494.04,-176.73 429.59,-159.43 387.42,-148.12"/>
<polygon fill="#63b8ff" stroke="#63b8ff" points="388.3,-144.73 377.74,-145.52 386.49,-151.49 388.3,-144.73"/>
</a>
</g>
</g>
<!-- Node16 -->
<g id="Node000016" class="node">
<title>Node16</title>
<g id="a_Node000016"><a xlink:href="StreetRentCalculator_8hpp.html" target="_top" xlink:title=" ">
<polygon fill="white" stroke="#666666" points="851.5,-151 722.5,-151 722.5,-121 851.5,-121 851.5,-151"/>
<text text-anchor="start" x="730.5" y="-139" font-family="Helvetica,sans-Serif" font-size="10.00">../../utils/strategy</text>
<text text-anchor="middle" x="787" y="-128" font-family="Helvetica,sans-Serif" font-size="10.00">/StreetRentCalculator.hpp</text>
</a>
</g>
</g>
<!-- Node15&#45;&gt;Node16 -->
<g id="edge24_Node000015_Node000016" class="edge">
<title>Node15&#45;&gt;Node16</title>
<g id="a_edge24_Node000015_Node000016"><a xlink:title=" ">
<path fill="none" stroke="#63b8ff" d="M596.43,-186.99C629.64,-178.28 682.14,-164.51 723.64,-153.62"/>
<polygon fill="#63b8ff" stroke="#63b8ff" points="724.6,-156.99 733.39,-151.06 722.83,-150.22 724.6,-156.99"/>
</a>
</g>
</g>
<!-- Node16&#45;&gt;Node9 -->
<g id="edge25_Node000016_Node000009" class="edge">
<title>Node16&#45;&gt;Node9</title>
<g id="a_edge25_Node000016_Node000009"><a xlink:title=" ">
<path fill="none" stroke="#63b8ff" d="M725.99,-120.95C682.9,-111.03 625.02,-97.71 579.88,-87.32"/>
<polygon fill="#63b8ff" stroke="#63b8ff" points="580.4,-83.85 569.87,-85.01 578.83,-90.67 580.4,-83.85"/>
</a>
</g>
</g>
<!-- Node16&#45;&gt;Node12 -->
<g id="edge26_Node000016_Node000012" class="edge">
<title>Node16&#45;&gt;Node12</title>
<g id="a_edge26_Node000016_Node000012"><a xlink:title=" ">
<path fill="none" stroke="#63b8ff" d="M754.74,-120.95C729.07,-109.78 693.49,-94.29 668.78,-83.53"/>
<polygon fill="#63b8ff" stroke="#63b8ff" points="670.13,-80.3 659.56,-79.52 667.33,-86.72 670.13,-80.3"/>
</a>
</g>
</g>
<!-- Node17&#45;&gt;Node5 -->
<g id="edge28_Node000017_Node000005" class="edge">
<title>Node17&#45;&gt;Node5</title>
<g id="a_edge28_Node000017_Node000005"><a xlink:title=" ">
<path fill="none" stroke="#63b8ff" d="M206,-126.37C206,-117.16 206,-102.29 206,-90.27"/>
<polygon fill="#63b8ff" stroke="#63b8ff" points="209.5,-89.91 206,-79.91 202.5,-89.91 209.5,-89.91"/>
</a>
</g>
</g>
</g>
</svg>

<g id="navigator" transform="translate(0 0)" fill="#404254">
  <rect fill="#f2f5e9" fill-opacity="0.5" stroke="#606060" stroke-width=".5" x="0" y="0" width="60" height="60"/>
  <use id="zoomplus" xlink:href="#zoomPlus" x="17" y="9" onmousedown="handleZoom(evt,'in')"/>
  <use id="zoomminus" xlink:href="#zoomMin" x="42" y="9" onmousedown="handleZoom(evt,'out')"/>
  <use id="reset" xlink:href="#resetDef" x="30" y="36" onmousedown="handleReset()"/>
   <use id="arrowup" xlink:href="#arrowUp" x="0" y="0" onmousedown="handlePan(0,-1)"/>
  <use id="arrowright" xlink:href="#arrowRight" x="0" y="0" onmousedown="handlePan(1,0)"/>
  <use id="arrowdown" xlink:href="#arrowDown" x="0" y="0" onmousedown="handlePan(0,1)"/>
  <use id="arrowleft" xlink:href="#arrowLeft" x="0" y="0" onmousedown="handlePan(-1,0)"/>
</g>
<svg viewBox="0 0 15 15" width="100%" height="30px" preserveAspectRatio="xMaxYMin meet">
 <g id="arrow_out" transform="scale(0.3 0.3)">
  <a xlink:href="Board_8hpp__incl_org.svg" target="_base">
   <rect id="button" ry="5" rx="5" y="6" x="6" height="38" width="38"
        fill="#f2f5e9" fill-opacity="0.5" stroke="#606060" stroke-width="1.0"/>
   <path id="arrow"
     d="M 11.500037,31.436501 C 11.940474,20.09759 22.043105,11.32322 32.158766,21.979434 L 37.068811,17.246167 C 37.068811,17.246167 37.088388,32 37.088388,32 L 22.160133,31.978069 C 22.160133,31.978069 26.997745,27.140456 26.997745,27.140456 C 18.528582,18.264221 13.291696,25.230495 11.500037,31.436501 z"
     style="fill:#404040;"/>
  </a>
 </g>
</svg>

<style type='text/css'>
<![CDATA[
[data-mouse-over-selected='false'] { opacity: 0.7; }
[data-mouse-over-selected='true']  { opacity: 1.0; }
]]>
</style>
<script type="application/ecmascript"><![CDATA[
document.addEventListener('DOMContentLoaded', (event) => {
  highlightEdges();
  highlightAdjacentNodes();
});
]]></script>
</svg>
