<?xml version="1.0" encoding="UTF-8" standalone="no"?>
<!DOCTYPE svg PUBLIC "-//W3C//DTD SVG 1.1//EN"
 "http://www.w3.org/Graphics/SVG/1.1/DTD/svg11.dtd">
<!-- Generated by graphviz version 2.43.0 (0)
 -->
<!-- Title: src/view/components/BoardView.cpp Pages: 1 -->
<svg width="1977pt" height="335pt"
 viewBox="0.00 0.00 1976.72 335.00" xmlns="http://www.w3.org/2000/svg" xmlns:xlink="http://www.w3.org/1999/xlink">
<g id="graph0" class="graph" transform="scale(1 1) rotate(0) translate(4 331)">
<title>src/view/components/BoardView.cpp</title>
<!-- Node1 -->
<g id="Node000001" class="node">
<title>Node1</title>
<g id="a_Node000001"><a xlink:title=" ">
<polygon fill="#999999" stroke="#666666" points="1136,-327 1026,-327 1026,-297 1136,-297 1136,-327"/>
<text text-anchor="start" x="1034" y="-315" font-family="Helvetica,sans-Serif" font-size="10.00">src/view/components</text>
<text text-anchor="middle" x="1081" y="-304" font-family="Helvetica,sans-Serif" font-size="10.00">/BoardView.cpp</text>
</a>
</g>
</g>
<!-- Node2 -->
<g id="Node000002" class="node">
<title>Node2</title>
<g id="a_Node000002"><a xlink:href="BoardView_8hpp.html" target="_top" xlink:title=" ">
<polygon fill="white" stroke="#666666" points="1940,-261 1800,-261 1800,-231 1940,-231 1940,-261"/>
<text text-anchor="start" x="1808" y="-249" font-family="Helvetica,sans-Serif" font-size="10.00">../../../include/view</text>
<text text-anchor="middle" x="1870" y="-238" font-family="Helvetica,sans-Serif" font-size="10.00">/components/BoardView.hpp</text>
</a>
</g>
</g>
<!-- Node1&#45;&gt;Node2 -->
<g id="edge1_Node000001_Node000002" class="edge">
<title>Node1&#45;&gt;Node2</title>
<g id="a_edge1_Node000001_Node000002"><a xlink:title=" ">
<path fill="none" stroke="#63b8ff" d="M1136.43,-309.08C1254.67,-304.56 1540.51,-291.34 1789.87,-261.05"/>
<polygon fill="#63b8ff" stroke="#63b8ff" points="1790.35,-264.52 1799.85,-259.83 1789.49,-257.57 1790.35,-264.52"/>
</a>
</g>
</g>
<!-- Node14 -->
<g id="Node000014" class="node">
<title>Node14</title>
<g id="a_Node000014"><a xlink:href="ChanceSquare_8hpp.html" target="_top" xlink:title=" ">
<polygon fill="white" stroke="#666666" points="665.5,-261 506.5,-261 506.5,-231 665.5,-231 665.5,-261"/>
<text text-anchor="start" x="514.5" y="-249" font-family="Helvetica,sans-Serif" font-size="10.00">../../../include/view</text>
<text text-anchor="middle" x="586" y="-238" font-family="Helvetica,sans-Serif" font-size="10.00">/components/ChanceSquare.hpp</text>
</a>
</g>
</g>
<!-- Node1&#45;&gt;Node14 -->
<g id="edge20_Node000001_Node000014" class="edge">
<title>Node1&#45;&gt;Node14</title>
<g id="a_edge20_Node000001_Node000014"><a xlink:title=" ">
<path fill="none" stroke="#63b8ff" d="M1025.76,-304.79C949.56,-296.09 807.63,-279.42 675.84,-261.09"/>
<polygon fill="#63b8ff" stroke="#63b8ff" points="675.94,-257.57 665.56,-259.65 674.98,-264.5 675.94,-257.57"/>
</a>
</g>
</g>
<!-- Node15 -->
<g id="Node000015" class="node">
<title>Node15</title>
<g id="a_Node000015"><a xlink:href="CommunityChestSquare_8hpp.html" target="_top" xlink:title=" ">
<polygon fill="white" stroke="#666666" points="886,-261 684,-261 684,-231 886,-231 886,-261"/>
<text text-anchor="start" x="692" y="-249" font-family="Helvetica,sans-Serif" font-size="10.00">../../../include/view</text>
<text text-anchor="middle" x="785" y="-238" font-family="Helvetica,sans-Serif" font-size="10.00">/components/CommunityChestSquare.hpp</text>
</a>
</g>
</g>
<!-- Node1&#45;&gt;Node15 -->
<g id="edge22_Node000001_Node000015" class="edge">
<title>Node1&#45;&gt;Node15</title>
<g id="a_edge22_Node000001_Node000015"><a xlink:title=" ">
<path fill="none" stroke="#63b8ff" d="M1025.67,-299.04C978.92,-288.93 911.54,-274.36 859.95,-263.21"/>
<polygon fill="#63b8ff" stroke="#63b8ff" points="860.37,-259.71 849.85,-261.02 858.89,-266.56 860.37,-259.71"/>
</a>
</g>
</g>
<!-- Node16 -->
<g id="Node000016" class="node">
<title>Node16</title>
<g id="a_Node000016"><a xlink:href="FreeParkingSquare_8hpp.html" target="_top" xlink:title=" ">
<polygon fill="white" stroke="#666666" points="1082,-261 904,-261 904,-231 1082,-231 1082,-261"/>
<text text-anchor="start" x="912" y="-249" font-family="Helvetica,sans-Serif" font-size="10.00">../../../include/view</text>
<text text-anchor="middle" x="993" y="-238" font-family="Helvetica,sans-Serif" font-size="10.00">/components/FreeParkingSquare.hpp</text>
</a>
</g>
</g>
<!-- Node1&#45;&gt;Node16 -->
<g id="edge24_Node000001_Node000016" class="edge">
<title>Node1&#45;&gt;Node16</title>
<g id="a_edge24_Node000001_Node000016"><a xlink:title=" ">
<path fill="none" stroke="#63b8ff" d="M1061.47,-296.8C1049.51,-288.1 1034.01,-276.82 1020.78,-267.2"/>
<polygon fill="#63b8ff" stroke="#63b8ff" points="1022.62,-264.22 1012.48,-261.16 1018.5,-269.88 1022.62,-264.22"/>
</a>
</g>
</g>
<!-- Node17 -->
<g id="Node000017" class="node">
<title>Node17</title>
<g id="a_Node000017"><a xlink:href="GoSquare_8hpp.html" target="_top" xlink:title=" ">
<polygon fill="white" stroke="#666666" points="1238,-261 1100,-261 1100,-231 1238,-231 1238,-261"/>
<text text-anchor="start" x="1108" y="-249" font-family="Helvetica,sans-Serif" font-size="10.00">../../../include/view</text>
<text text-anchor="middle" x="1169" y="-238" font-family="Helvetica,sans-Serif" font-size="10.00">/components/GoSquare.hpp</text>
</a>
</g>
</g>
<!-- Node1&#45;&gt;Node17 -->
<g id="edge26_Node000001_Node000017" class="edge">
<title>Node1&#45;&gt;Node17</title>
<g id="a_edge26_Node000001_Node000017"><a xlink:title=" ">
<path fill="none" stroke="#63b8ff" d="M1100.53,-296.8C1112.49,-288.1 1127.99,-276.82 1141.22,-267.2"/>
<polygon fill="#63b8ff" stroke="#63b8ff" points="1143.5,-269.88 1149.52,-261.16 1139.38,-264.22 1143.5,-269.88"/>
</a>
</g>
</g>
<!-- Node18 -->
<g id="Node000018" class="node">
<title>Node18</title>
<g id="a_Node000018"><a xlink:href="GoToJailSquare_8hpp.html" target="_top" xlink:title=" ">
<polygon fill="white" stroke="#666666" points="1420,-261 1256,-261 1256,-231 1420,-231 1420,-261"/>
<text text-anchor="start" x="1264" y="-249" font-family="Helvetica,sans-Serif" font-size="10.00">../../../include/view</text>
<text text-anchor="middle" x="1338" y="-238" font-family="Helvetica,sans-Serif" font-size="10.00">/components/GoToJailSquare.hpp</text>
</a>
</g>
</g>
<!-- Node1&#45;&gt;Node18 -->
<g id="edge28_Node000001_Node000018" class="edge">
<title>Node1&#45;&gt;Node18</title>
<g id="a_edge28_Node000001_Node000018"><a xlink:title=" ">
<path fill="none" stroke="#63b8ff" d="M1136.13,-297.27C1175.87,-287.38 1229.68,-273.98 1271.75,-263.5"/>
<polygon fill="#63b8ff" stroke="#63b8ff" points="1272.77,-266.85 1281.63,-261.04 1271.08,-260.06 1272.77,-266.85"/>
</a>
</g>
</g>
<!-- Node19 -->
<g id="Node000019" class="node">
<title>Node19</title>
<g id="a_Node000019"><a xlink:href="IncomeTaxSquare_8hpp.html" target="_top" xlink:title=" ">
<polygon fill="white" stroke="#666666" points="1611.5,-261 1438.5,-261 1438.5,-231 1611.5,-231 1611.5,-261"/>
<text text-anchor="start" x="1446.5" y="-249" font-family="Helvetica,sans-Serif" font-size="10.00">../../../include/view</text>
<text text-anchor="middle" x="1525" y="-238" font-family="Helvetica,sans-Serif" font-size="10.00">/components/IncomeTaxSquare.hpp</text>
</a>
</g>
</g>
<!-- Node1&#45;&gt;Node19 -->
<g id="edge30_Node000001_Node000019" class="edge">
<title>Node1&#45;&gt;Node19</title>
<g id="a_edge30_Node000001_Node000019"><a xlink:title=" ">
<path fill="none" stroke="#63b8ff" d="M1136.15,-303.11C1202.77,-293.58 1318.52,-276.98 1428.46,-261.08"/>
<polygon fill="#63b8ff" stroke="#63b8ff" points="1429,-264.53 1438.39,-259.64 1428,-257.61 1429,-264.53"/>
</a>
</g>
</g>
<!-- Node20 -->
<g id="Node000020" class="node">
<title>Node20</title>
<g id="a_Node000020"><a xlink:href="JailSquare_8hpp.html" target="_top" xlink:title=" ">
<polygon fill="white" stroke="#666666" points="140,-261 0,-261 0,-231 140,-231 140,-261"/>
<text text-anchor="start" x="8" y="-249" font-family="Helvetica,sans-Serif" font-size="10.00">../../../include/view</text>
<text text-anchor="middle" x="70" y="-238" font-family="Helvetica,sans-Serif" font-size="10.00">/components/JailSquare.hpp</text>
</a>
</g>
</g>
<!-- Node1&#45;&gt;Node20 -->
<g id="edge32_Node000001_Node000020" class="edge">
<title>Node1&#45;&gt;Node20</title>
<g id="a_edge32_Node000001_Node000020"><a xlink:title=" ">
<path fill="none" stroke="#63b8ff" d="M1025.92,-310.38C882.95,-308.28 488.22,-299.29 150.13,-261.03"/>
<polygon fill="#63b8ff" stroke="#63b8ff" points="150.48,-257.55 140.15,-259.89 149.68,-264.5 150.48,-257.55"/>
</a>
</g>
</g>
<!-- Node21 -->
<g id="Node000021" class="node">
<title>Node21</title>
<g id="a_Node000021"><a xlink:href="MonopolyBoard_8hpp.html" target="_top" xlink:title=" ">
<polygon fill="white" stroke="#666666" points="1650,-140 1488,-140 1488,-110 1650,-110 1650,-140"/>
<text text-anchor="start" x="1496" y="-128" font-family="Helvetica,sans-Serif" font-size="10.00">../../../include/view</text>
<text text-anchor="middle" x="1569" y="-117" font-family="Helvetica,sans-Serif" font-size="10.00">/components/MonopolyBoard.hpp</text>
</a>
</g>
</g>
<!-- Node1&#45;&gt;Node21 -->
<g id="edge34_Node000001_Node000021" class="edge">
<title>Node1&#45;&gt;Node21</title>
<g id="a_edge34_Node000001_Node000021"><a xlink:title=" ">
<path fill="none" stroke="#63b8ff" d="M1136.23,-309.88C1323.01,-305.84 1921.04,-290.62 1949,-261 2038.03,-166.7 1799.25,-138.18 1660.45,-129.63"/>
<polygon fill="#63b8ff" stroke="#63b8ff" points="1660.42,-126.12 1650.23,-129.02 1660,-133.11 1660.42,-126.12"/>
</a>
</g>
</g>
<!-- Node22 -->
<g id="Node000022" class="node">
<title>Node22</title>
<g id="a_Node000022"><a xlink:href="RailroadSquare_8hpp.html" target="_top" xlink:title=" ">
<polygon fill="white" stroke="#666666" points="319.5,-261 158.5,-261 158.5,-231 319.5,-231 319.5,-261"/>
<text text-anchor="start" x="166.5" y="-249" font-family="Helvetica,sans-Serif" font-size="10.00">../../../include/view</text>
<text text-anchor="middle" x="239" y="-238" font-family="Helvetica,sans-Serif" font-size="10.00">/components/RailroadSquare.hpp</text>
</a>
</g>
</g>
<!-- Node1&#45;&gt;Node22 -->
<g id="edge39_Node000001_Node000022" class="edge">
<title>Node1&#45;&gt;Node22</title>
<g id="a_edge39_Node000001_Node000022"><a xlink:title=" ">
<path fill="none" stroke="#63b8ff" d="M1025.58,-309.02C902.33,-304.26 596,-290.39 330.2,-261.19"/>
<polygon fill="#63b8ff" stroke="#63b8ff" points="330.29,-257.67 319.96,-260.05 329.52,-264.63 330.29,-257.67"/>
</a>
</g>
</g>
<!-- Node23 -->
<g id="Node000023" class="node">
<title>Node23</title>
<g id="a_Node000023"><a xlink:href="StreetSquare_8hpp.html" target="_top" xlink:title=" ">
<polygon fill="white" stroke="#666666" points="1782,-261 1630,-261 1630,-231 1782,-231 1782,-261"/>
<text text-anchor="start" x="1638" y="-249" font-family="Helvetica,sans-Serif" font-size="10.00">../../../include/view</text>
<text text-anchor="middle" x="1706" y="-238" font-family="Helvetica,sans-Serif" font-size="10.00">/components/StreetSquare.hpp</text>
</a>
</g>
</g>
<!-- Node1&#45;&gt;Node23 -->
<g id="edge41_Node000001_Node000023" class="edge">
<title>Node1&#45;&gt;Node23</title>
<g id="a_edge41_Node000001_Node000023"><a xlink:title=" ">
<path fill="none" stroke="#63b8ff" d="M1136.34,-307.18C1232.51,-300.25 1436.95,-284.27 1619.53,-261.13"/>
<polygon fill="#63b8ff" stroke="#63b8ff" points="1620.11,-264.59 1629.58,-259.85 1619.22,-257.64 1620.11,-264.59"/>
</a>
</g>
</g>
<!-- Node25 -->
<g id="Node000025" class="node">
<title>Node25</title>
<g id="a_Node000025"><a xlink:href="UtilitySquare_8hpp.html" target="_top" xlink:title=" ">
<polygon fill="white" stroke="#666666" points="488.5,-261 337.5,-261 337.5,-231 488.5,-231 488.5,-261"/>
<text text-anchor="start" x="345.5" y="-249" font-family="Helvetica,sans-Serif" font-size="10.00">../../../include/view</text>
<text text-anchor="middle" x="413" y="-238" font-family="Helvetica,sans-Serif" font-size="10.00">/components/UtilitySquare.hpp</text>
</a>
</g>
</g>
<!-- Node1&#45;&gt;Node25 -->
<g id="edge44_Node000001_Node000025" class="edge">
<title>Node1&#45;&gt;Node25</title>
<g id="a_edge44_Node000001_Node000025"><a xlink:title=" ">
<path fill="none" stroke="#63b8ff" d="M1025.79,-307.7C923.83,-301.29 698.92,-285.7 499.06,-261.07"/>
<polygon fill="#63b8ff" stroke="#63b8ff" points="499.31,-257.57 488.96,-259.81 498.45,-264.52 499.31,-257.57"/>
</a>
</g>
</g>
<!-- Node3 -->
<g id="Node000003" class="node">
<title>Node3</title>
<g id="a_Node000003"><a xlink:href="BoardSquareComponent_8hpp.html" target="_top" xlink:title=" ">
<polygon fill="white" stroke="#666666" points="1240,-195 1098,-195 1098,-176 1240,-176 1240,-195"/>
<text text-anchor="middle" x="1169" y="-183" font-family="Helvetica,sans-Serif" font-size="10.00">BoardSquareComponent.hpp</text>
</a>
</g>
</g>
<!-- Node2&#45;&gt;Node3 -->
<g id="edge2_Node000002_Node000003" class="edge">
<title>Node2&#45;&gt;Node3</title>
<g id="a_edge2_Node000002_Node000003"><a xlink:title=" ">
<path fill="none" stroke="#63b8ff" d="M1799.85,-232.18C1796.86,-231.76 1793.9,-231.36 1791,-231 1597.87,-207.04 1369.28,-194.79 1250.25,-189.62"/>
<polygon fill="#63b8ff" stroke="#63b8ff" points="1250.27,-186.11 1240.13,-189.18 1249.97,-193.11 1250.27,-186.11"/>
</a>
</g>
</g>
<!-- Node13 -->
<g id="Node000013" class="node">
<title>Node13</title>
<g id="a_Node000013"><a xlink:href="SFComposite_8hpp.html" target="_top" xlink:title=" ">
<polygon fill="white" stroke="#666666" points="1469.5,-134.5 1374.5,-134.5 1374.5,-115.5 1469.5,-115.5 1469.5,-134.5"/>
<text text-anchor="middle" x="1422" y="-122.5" font-family="Helvetica,sans-Serif" font-size="10.00">SFComposite.hpp</text>
</a>
</g>
</g>
<!-- Node2&#45;&gt;Node13 -->
<g id="edge15_Node000002_Node000013" class="edge">
<title>Node2&#45;&gt;Node13</title>
<g id="a_edge15_Node000002_Node000013"><a xlink:title=" ">
<path fill="none" stroke="#63b8ff" d="M1847.88,-230.88C1821.74,-214.9 1776.43,-189.35 1734,-176 1624.82,-141.64 1591.39,-161.68 1479,-140 1474.25,-139.08 1469.3,-138.02 1464.38,-136.91"/>
<polygon fill="#63b8ff" stroke="#63b8ff" points="1464.97,-133.45 1454.43,-134.56 1463.36,-140.26 1464.97,-133.45"/>
</a>
</g>
</g>
<!-- Node4 -->
<g id="Node000004" class="node">
<title>Node4</title>
<g id="a_Node000004"><a xlink:title=" ">
<polygon fill="#e0e0e0" stroke="#999999" points="1315.5,-74 1256.5,-74 1256.5,-55 1315.5,-55 1315.5,-74"/>
<text text-anchor="middle" x="1286" y="-62" font-family="Helvetica,sans-Serif" font-size="10.00">functional</text>
</a>
</g>
</g>
<!-- Node3&#45;&gt;Node4 -->
<g id="edge3_Node000003_Node000004" class="edge">
<title>Node3&#45;&gt;Node4</title>
<g id="a_edge3_Node000003_Node000004"><a xlink:title=" ">
<path fill="none" stroke="#63b8ff" d="M1166.83,-175.69C1163.68,-160.64 1159.65,-129.69 1174,-110 1190.79,-86.97 1221.43,-75.84 1246.42,-70.48"/>
<polygon fill="#63b8ff" stroke="#63b8ff" points="1247.21,-73.89 1256.38,-68.58 1245.9,-67.02 1247.21,-73.89"/>
</a>
</g>
</g>
<!-- Node5 -->
<g id="Node000005" class="node">
<title>Node5</title>
<g id="a_Node000005"><a xlink:title=" ">
<polygon fill="#e0e0e0" stroke="#999999" points="1386,-74 1334,-74 1334,-55 1386,-55 1386,-74"/>
<text text-anchor="middle" x="1360" y="-62" font-family="Helvetica,sans-Serif" font-size="10.00">memory</text>
</a>
</g>
</g>
<!-- Node3&#45;&gt;Node5 -->
<g id="edge4_Node000003_Node000005" class="edge">
<title>Node3&#45;&gt;Node5</title>
<g id="a_edge4_Node000003_Node000005"><a xlink:title=" ">
<path fill="none" stroke="#63b8ff" d="M1171.04,-175.7C1175.11,-160.1 1185.74,-127.58 1207,-110 1216.13,-102.45 1281.6,-85.06 1323.89,-74.4"/>
<polygon fill="#63b8ff" stroke="#63b8ff" points="1324.98,-77.73 1333.83,-71.91 1323.28,-70.94 1324.98,-77.73"/>
</a>
</g>
</g>
<!-- Node6 -->
<g id="Node000006" class="node">
<title>Node6</title>
<g id="a_Node000006"><a xlink:title=" ">
<polygon fill="#e0e0e0" stroke="#999999" points="1575.5,-74 1534.5,-74 1534.5,-55 1575.5,-55 1575.5,-74"/>
<text text-anchor="middle" x="1555" y="-62" font-family="Helvetica,sans-Serif" font-size="10.00">string</text>
</a>
</g>
</g>
<!-- Node3&#45;&gt;Node6 -->
<g id="edge5_Node000003_Node000006" class="edge">
<title>Node3&#45;&gt;Node6</title>
<g id="a_edge5_Node000003_Node000006"><a xlink:title=" ">
<path fill="none" stroke="#63b8ff" d="M1240.13,-183.23C1369.21,-180.18 1631.33,-170.29 1659,-140 1667.99,-130.15 1666.34,-121.13 1659,-110 1642.82,-85.47 1610.02,-74.42 1585.56,-69.46"/>
<polygon fill="#63b8ff" stroke="#63b8ff" points="1586.13,-66.01 1575.67,-67.69 1584.89,-72.9 1586.13,-66.01"/>
</a>
</g>
</g>
<!-- Node7 -->
<g id="Node000007" class="node">
<title>Node7</title>
<g id="a_Node000007"><a xlink:href="PlayerTokenComponent_8hpp.html" target="_top" xlink:title=" ">
<polygon fill="white" stroke="#666666" points="1356,-134.5 1216,-134.5 1216,-115.5 1356,-115.5 1356,-134.5"/>
<text text-anchor="middle" x="1286" y="-122.5" font-family="Helvetica,sans-Serif" font-size="10.00">PlayerTokenComponent.hpp</text>
</a>
</g>
</g>
<!-- Node3&#45;&gt;Node7 -->
<g id="edge6_Node000003_Node000007" class="edge">
<title>Node3&#45;&gt;Node7</title>
<g id="a_edge6_Node000003_Node000007"><a xlink:title=" ">
<path fill="none" stroke="#63b8ff" d="M1186.01,-175.99C1205.42,-166.29 1237.39,-150.31 1259.94,-139.03"/>
<polygon fill="#63b8ff" stroke="#63b8ff" points="1261.59,-142.12 1268.97,-134.52 1258.46,-135.86 1261.59,-142.12"/>
</a>
</g>
</g>
<!-- Node7&#45;&gt;Node4 -->
<g id="edge7_Node000007_Node000004" class="edge">
<title>Node7&#45;&gt;Node4</title>
<g id="a_edge7_Node000007_Node000004"><a xlink:title=" ">
<path fill="none" stroke="#63b8ff" d="M1286,-115.37C1286,-107.25 1286,-94.81 1286,-84.39"/>
<polygon fill="#63b8ff" stroke="#63b8ff" points="1289.5,-84.17 1286,-74.17 1282.5,-84.17 1289.5,-84.17"/>
</a>
</g>
</g>
<!-- Node7&#45;&gt;Node5 -->
<g id="edge8_Node000007_Node000005" class="edge">
<title>Node7&#45;&gt;Node5</title>
<g id="a_edge8_Node000007_Node000005"><a xlink:title=" ">
<path fill="none" stroke="#63b8ff" d="M1296.92,-115.37C1308.51,-106.21 1327.03,-91.56 1341.02,-80.51"/>
<polygon fill="#63b8ff" stroke="#63b8ff" points="1343.36,-83.11 1349.04,-74.17 1339.02,-77.62 1343.36,-83.11"/>
</a>
</g>
</g>
<!-- Node7&#45;&gt;Node6 -->
<g id="edge9_Node000007_Node000006" class="edge">
<title>Node7&#45;&gt;Node6</title>
<g id="a_edge9_Node000007_Node000006"><a xlink:title=" ">
<path fill="none" stroke="#63b8ff" d="M1325.11,-115.49C1379.01,-103.77 1475,-82.9 1524.15,-72.21"/>
<polygon fill="#63b8ff" stroke="#63b8ff" points="1525.14,-75.57 1534.17,-70.03 1523.66,-68.73 1525.14,-75.57"/>
</a>
</g>
</g>
<!-- Node8 -->
<g id="Node000008" class="node">
<title>Node8</title>
<g id="a_Node000008"><a xlink:href="SFComponent_8hpp.html" target="_top" xlink:title=" ">
<polygon fill="white" stroke="#666666" points="1502,-74 1404,-74 1404,-55 1502,-55 1502,-74"/>
<text text-anchor="middle" x="1453" y="-62" font-family="Helvetica,sans-Serif" font-size="10.00">SFComponent.hpp</text>
</a>
</g>
</g>
<!-- Node7&#45;&gt;Node8 -->
<g id="edge10_Node000007_Node000008" class="edge">
<title>Node7&#45;&gt;Node8</title>
<g id="a_edge10_Node000007_Node000008"><a xlink:title=" ">
<path fill="none" stroke="#63b8ff" d="M1310.28,-115.49C1338.98,-105.44 1386.89,-88.66 1419.2,-77.34"/>
<polygon fill="#63b8ff" stroke="#63b8ff" points="1420.41,-80.63 1428.69,-74.02 1418.09,-74.02 1420.41,-80.63"/>
</a>
</g>
</g>
<!-- Node9 -->
<g id="Node000009" class="node">
<title>Node9</title>
<g id="a_Node000009"><a xlink:title=" ">
<polygon fill="#e0e0e0" stroke="#999999" points="1316,-19 1262,-19 1262,0 1316,0 1316,-19"/>
<text text-anchor="middle" x="1289" y="-7" font-family="Helvetica,sans-Serif" font-size="10.00">iostream</text>
</a>
</g>
</g>
<!-- Node8&#45;&gt;Node9 -->
<g id="edge11_Node000008_Node000009" class="edge">
<title>Node8&#45;&gt;Node9</title>
<g id="a_edge11_Node000008_Node000009"><a xlink:title=" ">
<path fill="none" stroke="#63b8ff" d="M1426.65,-54.98C1399.24,-46.13 1356.11,-32.19 1325.44,-22.28"/>
<polygon fill="#63b8ff" stroke="#63b8ff" points="1326.15,-18.83 1315.56,-19.08 1324,-25.49 1326.15,-18.83"/>
</a>
</g>
</g>
<!-- Node10 -->
<g id="Node000010" class="node">
<title>Node10</title>
<g id="a_Node000010"><a xlink:title=" ">
<polygon fill="#e0e0e0" stroke="#999999" points="1438,-19 1334,-19 1334,0 1438,0 1438,-19"/>
<text text-anchor="middle" x="1386" y="-7" font-family="Helvetica,sans-Serif" font-size="10.00">SFML/Graphics.hpp</text>
</a>
</g>
</g>
<!-- Node8&#45;&gt;Node10 -->
<g id="edge12_Node000008_Node000010" class="edge">
<title>Node8&#45;&gt;Node10</title>
<g id="a_edge12_Node000008_Node000010"><a xlink:title=" ">
<path fill="none" stroke="#63b8ff" d="M1442.24,-54.98C1432.23,-47.07 1417.11,-35.11 1405.07,-25.58"/>
<polygon fill="#63b8ff" stroke="#63b8ff" points="1406.97,-22.63 1396.96,-19.17 1402.63,-28.12 1406.97,-22.63"/>
</a>
</g>
</g>
<!-- Node11 -->
<g id="Node000011" class="node">
<title>Node11</title>
<g id="a_Node000011"><a xlink:title=" ">
<polygon fill="#e0e0e0" stroke="#999999" points="1583.5,-19 1456.5,-19 1456.5,0 1583.5,0 1583.5,-19"/>
<text text-anchor="middle" x="1520" y="-7" font-family="Helvetica,sans-Serif" font-size="10.00">SFML/System/Clock.hpp</text>
</a>
</g>
</g>
<!-- Node8&#45;&gt;Node11 -->
<g id="edge13_Node000008_Node000011" class="edge">
<title>Node8&#45;&gt;Node11</title>
<g id="a_edge13_Node000008_Node000011"><a xlink:title=" ">
<path fill="none" stroke="#63b8ff" d="M1463.76,-54.98C1473.77,-47.07 1488.89,-35.11 1500.93,-25.58"/>
<polygon fill="#63b8ff" stroke="#63b8ff" points="1503.37,-28.12 1509.04,-19.17 1499.03,-22.63 1503.37,-28.12"/>
</a>
</g>
</g>
<!-- Node12 -->
<g id="Node000012" class="node">
<title>Node12</title>
<g id="a_Node000012"><a xlink:title=" ">
<polygon fill="#e0e0e0" stroke="#999999" points="1724.5,-19 1601.5,-19 1601.5,0 1724.5,0 1724.5,-19"/>
<text text-anchor="middle" x="1663" y="-7" font-family="Helvetica,sans-Serif" font-size="10.00">SFML/System/Time.hpp</text>
</a>
</g>
</g>
<!-- Node8&#45;&gt;Node12 -->
<g id="edge14_Node000008_Node000012" class="edge">
<title>Node8&#45;&gt;Node12</title>
<g id="a_edge14_Node000008_Node000012"><a xlink:title=" ">
<path fill="none" stroke="#63b8ff" d="M1486.74,-54.98C1522.68,-45.91 1579.72,-31.52 1619.13,-21.57"/>
<polygon fill="#63b8ff" stroke="#63b8ff" points="1620.16,-24.92 1629,-19.08 1618.44,-18.14 1620.16,-24.92"/>
</a>
</g>
</g>
<!-- Node13&#45;&gt;Node4 -->
<g id="edge16_Node000013_Node000004" class="edge">
<title>Node13&#45;&gt;Node4</title>
<g id="a_edge16_Node000013_Node000004"><a xlink:title=" ">
<path fill="none" stroke="#63b8ff" d="M1402.22,-115.49C1379.36,-105.66 1341.51,-89.38 1315.24,-78.08"/>
<polygon fill="#63b8ff" stroke="#63b8ff" points="1316.37,-74.75 1305.8,-74.02 1313.6,-81.18 1316.37,-74.75"/>
</a>
</g>
</g>
<!-- Node13&#45;&gt;Node5 -->
<g id="edge17_Node000013_Node000005" class="edge">
<title>Node13&#45;&gt;Node5</title>
<g id="a_edge17_Node000013_Node000005"><a xlink:title=" ">
<path fill="none" stroke="#63b8ff" d="M1412.85,-115.37C1403.33,-106.38 1388.2,-92.11 1376.57,-81.14"/>
<polygon fill="#63b8ff" stroke="#63b8ff" points="1378.86,-78.48 1369.19,-74.17 1374.06,-83.58 1378.86,-78.48"/>
</a>
</g>
</g>
<!-- Node13&#45;&gt;Node6 -->
<g id="edge18_Node000013_Node000006" class="edge">
<title>Node13&#45;&gt;Node6</title>
<g id="a_edge18_Node000013_Node000006"><a xlink:title=" ">
<path fill="none" stroke="#63b8ff" d="M1441.34,-115.49C1463.7,-105.66 1500.71,-89.38 1526.4,-78.08"/>
<polygon fill="#63b8ff" stroke="#63b8ff" points="1527.89,-81.25 1535.64,-74.02 1525.07,-74.84 1527.89,-81.25"/>
</a>
</g>
</g>
<!-- Node13&#45;&gt;Node8 -->
<g id="edge19_Node000013_Node000008" class="edge">
<title>Node13&#45;&gt;Node8</title>
<g id="a_edge19_Node000013_Node000008"><a xlink:title=" ">
<path fill="none" stroke="#63b8ff" d="M1426.57,-115.37C1431.06,-106.9 1438.03,-93.74 1443.69,-83.07"/>
<polygon fill="#63b8ff" stroke="#63b8ff" points="1446.82,-84.64 1448.41,-74.17 1440.63,-81.36 1446.82,-84.64"/>
</a>
</g>
</g>
<!-- Node14&#45;&gt;Node3 -->
<g id="edge21_Node000014_Node000003" class="edge">
<title>Node14&#45;&gt;Node3</title>
<g id="a_edge21_Node000014_Node000003"><a xlink:title=" ">
<path fill="none" stroke="#63b8ff" d="M665.54,-232.22C668.73,-231.79 671.9,-231.38 675,-231 819.86,-213.1 989.46,-199.4 1087.53,-192.18"/>
<polygon fill="#63b8ff" stroke="#63b8ff" points="1087.95,-195.66 1097.67,-191.44 1087.44,-188.68 1087.95,-195.66"/>
</a>
</g>
</g>
<!-- Node15&#45;&gt;Node3 -->
<g id="edge23_Node000015_Node000003" class="edge">
<title>Node15&#45;&gt;Node3</title>
<g id="a_edge23_Node000015_Node000003"><a xlink:title=" ">
<path fill="none" stroke="#63b8ff" d="M876.98,-230.99C946.65,-220.37 1040.71,-206.04 1103.03,-196.55"/>
<polygon fill="#63b8ff" stroke="#63b8ff" points="1103.77,-199.98 1113.13,-195.01 1102.72,-193.06 1103.77,-199.98"/>
</a>
</g>
</g>
<!-- Node16&#45;&gt;Node3 -->
<g id="edge25_Node000016_Node000003" class="edge">
<title>Node16&#45;&gt;Node3</title>
<g id="a_edge25_Node000016_Node000003"><a xlink:title=" ">
<path fill="none" stroke="#63b8ff" d="M1035.16,-230.99C1065.27,-220.98 1105.31,-207.67 1133.73,-198.22"/>
<polygon fill="#63b8ff" stroke="#63b8ff" points="1134.88,-201.53 1143.27,-195.05 1132.67,-194.89 1134.88,-201.53"/>
</a>
</g>
</g>
<!-- Node17&#45;&gt;Node3 -->
<g id="edge27_Node000017_Node000003" class="edge">
<title>Node17&#45;&gt;Node3</title>
<g id="a_edge27_Node000017_Node000003"><a xlink:title=" ">
<path fill="none" stroke="#63b8ff" d="M1169,-230.84C1169,-223.21 1169,-213.7 1169,-205.45"/>
<polygon fill="#63b8ff" stroke="#63b8ff" points="1172.5,-205.27 1169,-195.27 1165.5,-205.27 1172.5,-205.27"/>
</a>
</g>
</g>
<!-- Node18&#45;&gt;Node3 -->
<g id="edge29_Node000018_Node000003" class="edge">
<title>Node18&#45;&gt;Node3</title>
<g id="a_edge29_Node000018_Node000003"><a xlink:title=" ">
<path fill="none" stroke="#63b8ff" d="M1297.52,-230.99C1268.82,-221.05 1230.72,-207.86 1203.47,-198.43"/>
<polygon fill="#63b8ff" stroke="#63b8ff" points="1204.55,-195.1 1193.96,-195.14 1202.26,-201.72 1204.55,-195.1"/>
</a>
</g>
</g>
<!-- Node19&#45;&gt;Node3 -->
<g id="edge31_Node000019_Node000003" class="edge">
<title>Node19&#45;&gt;Node3</title>
<g id="a_edge31_Node000019_Node000003"><a xlink:title=" ">
<path fill="none" stroke="#63b8ff" d="M1439.73,-230.99C1375.4,-220.42 1288.66,-206.16 1230.88,-196.67"/>
<polygon fill="#63b8ff" stroke="#63b8ff" points="1231.23,-193.18 1220.79,-195.01 1230.09,-200.09 1231.23,-193.18"/>
</a>
</g>
</g>
<!-- Node20&#45;&gt;Node3 -->
<g id="edge33_Node000020_Node000003" class="edge">
<title>Node20&#45;&gt;Node3</title>
<g id="a_edge33_Node000020_Node000003"><a xlink:title=" ">
<path fill="none" stroke="#63b8ff" d="M140.14,-232.08C143.13,-231.68 146.09,-231.32 149,-231 496.87,-192.76 914.88,-187.03 1087.91,-186.42"/>
<polygon fill="#63b8ff" stroke="#63b8ff" points="1087.97,-189.92 1097.96,-186.39 1087.95,-182.92 1087.97,-189.92"/>
</a>
</g>
</g>
<!-- Node21&#45;&gt;Node4 -->
<g id="edge35_Node000021_Node000004" class="edge">
<title>Node21&#45;&gt;Node4</title>
<g id="a_edge35_Node000021_Node000004"><a xlink:title=" ">
<path fill="none" stroke="#63b8ff" d="M1499.27,-109.95C1452.83,-100.54 1390.18,-87.73 1325.74,-74.14"/>
<polygon fill="#63b8ff" stroke="#63b8ff" points="1326.31,-70.68 1315.8,-72.04 1324.86,-77.53 1326.31,-70.68"/>
</a>
</g>
</g>
<!-- Node21&#45;&gt;Node5 -->
<g id="edge36_Node000021_Node000005" class="edge">
<title>Node21&#45;&gt;Node5</title>
<g id="a_edge36_Node000021_Node000005"><a xlink:title=" ">
<path fill="none" stroke="#63b8ff" d="M1518.94,-109.99C1481.07,-99.39 1429.97,-85.09 1396.05,-75.59"/>
<polygon fill="#63b8ff" stroke="#63b8ff" points="1396.68,-72.13 1386.11,-72.81 1394.8,-78.87 1396.68,-72.13"/>
</a>
</g>
</g>
<!-- Node21&#45;&gt;Node6 -->
<g id="edge37_Node000021_Node000006" class="edge">
<title>Node21&#45;&gt;Node6</title>
<g id="a_edge37_Node000021_Node000006"><a xlink:title=" ">
<path fill="none" stroke="#63b8ff" d="M1565.61,-109.84C1563.77,-102.13 1561.46,-92.49 1559.47,-84.17"/>
<polygon fill="#63b8ff" stroke="#63b8ff" points="1562.83,-83.18 1557.1,-74.27 1556.02,-84.81 1562.83,-83.18"/>
</a>
</g>
</g>
<!-- Node21&#45;&gt;Node8 -->
<g id="edge38_Node000021_Node000008" class="edge">
<title>Node21&#45;&gt;Node8</title>
<g id="a_edge38_Node000021_Node000008"><a xlink:title=" ">
<path fill="none" stroke="#63b8ff" d="M1541.22,-109.99C1522.38,-100.49 1497.65,-88.02 1479.16,-78.69"/>
<polygon fill="#63b8ff" stroke="#63b8ff" points="1480.64,-75.52 1470.13,-74.14 1477.48,-81.77 1480.64,-75.52"/>
</a>
</g>
</g>
<!-- Node22&#45;&gt;Node3 -->
<g id="edge40_Node000022_Node000003" class="edge">
<title>Node22&#45;&gt;Node3</title>
<g id="a_edge40_Node000022_Node000003"><a xlink:title=" ">
<path fill="none" stroke="#63b8ff" d="M319.96,-231.9C322.67,-231.58 325.36,-231.28 328,-231 605.9,-201.87 937.57,-191.43 1087.85,-188.01"/>
<polygon fill="#63b8ff" stroke="#63b8ff" points="1088,-191.51 1097.92,-187.79 1087.85,-184.51 1088,-191.51"/>
</a>
</g>
</g>
<!-- Node23&#45;&gt;Node3 -->
<g id="edge42_Node000023_Node000003" class="edge">
<title>Node23&#45;&gt;Node3</title>
<g id="a_edge42_Node000023_Node000003"><a xlink:title=" ">
<path fill="none" stroke="#63b8ff" d="M1629.58,-232.17C1626.68,-231.76 1623.82,-231.37 1621,-231 1491.71,-214.01 1340.84,-200.4 1250.22,-192.89"/>
<polygon fill="#63b8ff" stroke="#63b8ff" points="1250.27,-189.39 1240.01,-192.05 1249.69,-196.36 1250.27,-189.39"/>
</a>
</g>
</g>
<!-- Node24 -->
<g id="Node000024" class="node">
<title>Node24</title>
<g id="a_Node000024"><a xlink:title=" ">
<polygon fill="#e0e0e0" stroke="#999999" points="1725,-195 1687,-195 1687,-176 1725,-176 1725,-195"/>
<text text-anchor="middle" x="1706" y="-183" font-family="Helvetica,sans-Serif" font-size="10.00">array</text>
</a>
</g>
</g>
<!-- Node23&#45;&gt;Node24 -->
<g id="edge43_Node000023_Node000024" class="edge">
<title>Node23&#45;&gt;Node24</title>
<g id="a_edge43_Node000023_Node000024"><a xlink:title=" ">
<path fill="none" stroke="#63b8ff" d="M1706,-230.84C1706,-223.21 1706,-213.7 1706,-205.45"/>
<polygon fill="#63b8ff" stroke="#63b8ff" points="1709.5,-205.27 1706,-195.27 1702.5,-205.27 1709.5,-205.27"/>
</a>
</g>
</g>
<!-- Node25&#45;&gt;Node3 -->
<g id="edge45_Node000025_Node000003" class="edge">
<title>Node25&#45;&gt;Node3</title>
<g id="a_edge45_Node000025_Node000003"><a xlink:title=" ">
<path fill="none" stroke="#63b8ff" d="M488.95,-232.12C492,-231.72 495.03,-231.34 498,-231 709.8,-206.59 960.87,-194.36 1087.41,-189.36"/>
<polygon fill="#63b8ff" stroke="#63b8ff" points="1087.93,-192.84 1097.78,-188.95 1087.66,-185.84 1087.93,-192.84"/>
</a>
</g>
</g>
</g>
</svg>
