<?xml version="1.0" encoding="UTF-8" standalone="no"?>
<!DOCTYPE svg PUBLIC "-//W3C//DTD SVG 1.1//EN"
 "http://www.w3.org/Graphics/SVG/1.1/DTD/svg11.dtd">
<!-- Generated by graphviz version 2.43.0 (0)
 -->
<!-- Title: include/view/components/BoardSquareComponent.hpp Pages: 1 -->
<!--zoomable 302 -->

<svg id="main" version="1.1" xmlns="http://www.w3.org/2000/svg" xmlns:xlink="http://www.w3.org/1999/xlink" xml:space="preserve" onload="init(evt)">
<style type="text/css"><![CDATA[
.node, .edge {opacity: 0.7;}
.node.selected, .edge.selected {opacity: 1;}
.edge:hover path { stroke: red; }
.edge:hover polygon { stroke: red; fill: red; }
]]></style>

<defs>
  <circle id="rim" cx="0" cy="0" r="7"/>
  <circle id="rim2" cx="0" cy="0" r="3.5"/>
  <g id="zoomPlus">
    <use xlink:href="#rim" fill="#404040"><set attributeName="fill" to="#808080" begin="zoomplus.mouseover" end="zoomplus.mouseout"/></use>
    <path d="M-4,0h8M0,-4v8" fill="none" stroke="white" stroke-width="1.5" pointer-events="none"/>
  </g>
  <g id="zoomMin">
    <use xlink:href="#rim" fill="#404040"><set attributeName="fill" to="#808080" begin="zoomminus.mouseover" end="zoomminus.mouseout"/></use>
    <path d="M-4,0h8" fill="none" stroke="white" stroke-width="1.5" pointer-events="none"/>
  </g>
  <g id="arrowUp" transform="translate(30 24)">
    <use xlink:href="#rim"/>
    <path pointer-events="none" fill="none" stroke="white" stroke-width="1.5" d="M0,-3.0v7 M-2.5,-0.5L0,-3.0L2.5,-0.5"/>
  </g>
  <g id="arrowRight" transform="rotate(90) translate(36 -43)">
    <use xlink:href="#rim"/>
    <path pointer-events="none" fill="none" stroke="white" stroke-width="1.5" d="M0,-3.0v7 M-2.5,-0.5L0,-3.0L2.5,-0.5"/>
  </g>
  <g id="arrowDown" transform="rotate(180) translate(-30 -48)">
    <use xlink:href="#rim"/>
    <path pointer-events="none" fill="none" stroke="white" stroke-width="1.5" d="M0,-3.0v7 M-2.5,-0.5L0,-3.0L2.5,-0.5"/>
  </g>
  <g id="arrowLeft" transform="rotate(270) translate(-36 17)">
    <use xlink:href="#rim"/>
    <path pointer-events="none" fill="none" stroke="white" stroke-width="1.5" d="M0,-3.0v7 M-2.5,-0.5L0,-3.0L2.5,-0.5"/>
  </g>
  <g id="resetDef">
    <use xlink:href="#rim2" fill="#404040"><set attributeName="fill" to="#808080" begin="reset.mouseover" end="reset.mouseout"/></use>
  </g>
</defs>
<script type="application/ecmascript">
var viewWidth = 2273;
var viewHeight = 302;
var sectionId = 'dynsection-1';
</script>
<script type="application/ecmascript" xlink:href="svg.min.js"/>
<svg id="graph" class="graph">
<g id="viewport">
<title>include/view/components/BoardSquareComponent.hpp</title>
<!-- Node1 -->
<g id="Node000001" class="node">
<title>Node1</title>
<g id="a_Node000001"><a xlink:title=" ">
<polygon fill="#999999" stroke="#666666" points="1385.5,-294 1240.5,-294 1240.5,-264 1385.5,-264 1385.5,-294"/>
<text text-anchor="start" x="1248.5" y="-282" font-family="Helvetica,sans-Serif" font-size="10.00">include/view/components</text>
<text text-anchor="middle" x="1313" y="-271" font-family="Helvetica,sans-Serif" font-size="10.00">/BoardSquareComponent.hpp</text>
</a>
</g>
</g>
<!-- Node2 -->
<g id="Node000002" class="node">
<title>Node2</title>
<g id="a_Node000002"><a xlink:href="BoardView_8hpp.html" target="_top" xlink:title=" ">
<polygon fill="white" stroke="#666666" points="486.5,-228 359.5,-228 359.5,-198 486.5,-198 486.5,-228"/>
<text text-anchor="start" x="367.5" y="-216" font-family="Helvetica,sans-Serif" font-size="10.00">include/view/components</text>
<text text-anchor="middle" x="423" y="-205" font-family="Helvetica,sans-Serif" font-size="10.00">/BoardView.hpp</text>
</a>
</g>
</g>
<!-- Node1&#45;&gt;Node2 -->
<g id="edge1_Node000001_Node000002" class="edge">
<title>Node1&#45;&gt;Node2</title>
<g id="a_edge1_Node000001_Node000002"><a xlink:title=" ">
<path fill="none" stroke="#63b8ff" d="M1230.12,-276.52C1082.02,-273.07 762.4,-262.02 495,-228 492.22,-227.65 489.39,-227.25 486.53,-226.82"/>
<polygon fill="#63b8ff" stroke="#63b8ff" points="1230.41,-280.02 1240.48,-276.75 1230.56,-273.03 1230.41,-280.02"/>
</a>
</g>
</g>
<!-- Node12 -->
<g id="Node000012" class="node">
<title>Node12</title>
<g id="a_Node000012"><a xlink:href="ChanceSquare_8hpp.html" target="_top" xlink:title=" ">
<polygon fill="white" stroke="#666666" points="631.5,-228 504.5,-228 504.5,-198 631.5,-198 631.5,-228"/>
<text text-anchor="start" x="512.5" y="-216" font-family="Helvetica,sans-Serif" font-size="10.00">include/view/components</text>
<text text-anchor="middle" x="568" y="-205" font-family="Helvetica,sans-Serif" font-size="10.00">/ChanceSquare.hpp</text>
</a>
</g>
</g>
<!-- Node1&#45;&gt;Node12 -->
<g id="edge11_Node000001_Node000012" class="edge">
<title>Node1&#45;&gt;Node12</title>
<g id="a_edge11_Node000001_Node000012"><a xlink:title=" ">
<path fill="none" stroke="#63b8ff" d="M1230.07,-274.91C1102.87,-269.47 852.15,-256.01 641,-228 637.93,-227.59 634.79,-227.14 631.63,-226.65"/>
<polygon fill="#63b8ff" stroke="#63b8ff" points="1229.99,-278.41 1240.12,-275.33 1230.28,-271.41 1229.99,-278.41"/>
</a>
</g>
</g>
<!-- Node14 -->
<g id="Node000014" class="node">
<title>Node14</title>
<g id="a_Node000014"><a xlink:href="CommunityChestSquare_8hpp.html" target="_top" xlink:title=" ">
<polygon fill="white" stroke="#666666" points="796,-228 650,-228 650,-198 796,-198 796,-228"/>
<text text-anchor="start" x="658" y="-216" font-family="Helvetica,sans-Serif" font-size="10.00">include/view/components</text>
<text text-anchor="middle" x="723" y="-205" font-family="Helvetica,sans-Serif" font-size="10.00">/CommunityChestSquare.hpp</text>
</a>
</g>
</g>
<!-- Node1&#45;&gt;Node14 -->
<g id="edge14_Node000001_Node000014" class="edge">
<title>Node1&#45;&gt;Node14</title>
<g id="a_edge14_Node000001_Node000014"><a xlink:title=" ">
<path fill="none" stroke="#63b8ff" d="M1230.36,-271.68C1129.66,-263.56 954.45,-248.09 805,-228 802.14,-227.62 799.22,-227.21 796.28,-226.78"/>
<polygon fill="#63b8ff" stroke="#63b8ff" points="1230.22,-275.18 1240.47,-272.49 1230.78,-268.2 1230.22,-275.18"/>
</a>
</g>
</g>
<!-- Node16 -->
<g id="Node000016" class="node">
<title>Node16</title>
<g id="a_Node000016"><a xlink:href="CornerSquare_8hpp.html" target="_top" xlink:title=" ">
<polygon fill="white" stroke="#666666" points="2101.5,-228 1974.5,-228 1974.5,-198 2101.5,-198 2101.5,-228"/>
<text text-anchor="start" x="1982.5" y="-216" font-family="Helvetica,sans-Serif" font-size="10.00">include/view/components</text>
<text text-anchor="middle" x="2038" y="-205" font-family="Helvetica,sans-Serif" font-size="10.00">/CornerSquare.hpp</text>
</a>
</g>
</g>
<!-- Node1&#45;&gt;Node16 -->
<g id="edge17_Node000001_Node000016" class="edge">
<title>Node1&#45;&gt;Node16</title>
<g id="a_edge17_Node000001_Node000016"><a xlink:title=" ">
<path fill="none" stroke="#63b8ff" d="M1395.96,-274.72C1520.3,-269.12 1762.15,-255.53 1966,-228 1968.78,-227.63 1971.61,-227.21 1974.46,-226.77"/>
<polygon fill="#63b8ff" stroke="#63b8ff" points="1395.6,-271.24 1385.76,-275.18 1395.91,-278.23 1395.6,-271.24"/>
</a>
</g>
</g>
<!-- Node17 -->
<g id="Node000017" class="node">
<title>Node17</title>
<g id="a_Node000017"><a xlink:href="FreeParkingSquare_8hpp.html" target="_top" xlink:title=" ">
<polygon fill="white" stroke="#666666" points="941.5,-228 814.5,-228 814.5,-198 941.5,-198 941.5,-228"/>
<text text-anchor="start" x="822.5" y="-216" font-family="Helvetica,sans-Serif" font-size="10.00">include/view/components</text>
<text text-anchor="middle" x="878" y="-205" font-family="Helvetica,sans-Serif" font-size="10.00">/FreeParkingSquare.hpp</text>
</a>
</g>
</g>
<!-- Node1&#45;&gt;Node17 -->
<g id="edge18_Node000001_Node000017" class="edge">
<title>Node1&#45;&gt;Node17</title>
<g id="a_edge18_Node000001_Node000017"><a xlink:title=" ">
<path fill="none" stroke="#63b8ff" d="M1230.01,-267.89C1156.31,-258.6 1045.75,-243.89 950,-228 947.24,-227.54 944.42,-227.06 941.57,-226.56"/>
<polygon fill="#63b8ff" stroke="#63b8ff" points="1229.8,-271.39 1240.16,-269.17 1230.68,-264.45 1229.8,-271.39"/>
</a>
</g>
</g>
<!-- Node19 -->
<g id="Node000019" class="node">
<title>Node19</title>
<g id="a_Node000019"><a xlink:href="GoSquare_8hpp.html" target="_top" xlink:title=" ">
<polygon fill="white" stroke="#666666" points="1086.5,-228 959.5,-228 959.5,-198 1086.5,-198 1086.5,-228"/>
<text text-anchor="start" x="967.5" y="-216" font-family="Helvetica,sans-Serif" font-size="10.00">include/view/components</text>
<text text-anchor="middle" x="1023" y="-205" font-family="Helvetica,sans-Serif" font-size="10.00">/GoSquare.hpp</text>
</a>
</g>
</g>
<!-- Node1&#45;&gt;Node19 -->
<g id="edge21_Node000001_Node000019" class="edge">
<title>Node1&#45;&gt;Node19</title>
<g id="a_edge21_Node000001_Node000019"><a xlink:title=" ">
<path fill="none" stroke="#63b8ff" d="M1239.5,-261.78C1192.29,-251.36 1131.6,-237.97 1086.49,-228.01"/>
<polygon fill="#63b8ff" stroke="#63b8ff" points="1238.84,-265.22 1249.36,-263.95 1240.35,-258.38 1238.84,-265.22"/>
</a>
</g>
</g>
<!-- Node21 -->
<g id="Node000021" class="node">
<title>Node21</title>
<g id="a_Node000021"><a xlink:href="GoToJailSquare_8hpp.html" target="_top" xlink:title=" ">
<polygon fill="white" stroke="#666666" points="1231.5,-228 1104.5,-228 1104.5,-198 1231.5,-198 1231.5,-228"/>
<text text-anchor="start" x="1112.5" y="-216" font-family="Helvetica,sans-Serif" font-size="10.00">include/view/components</text>
<text text-anchor="middle" x="1168" y="-205" font-family="Helvetica,sans-Serif" font-size="10.00">/GoToJailSquare.hpp</text>
</a>
</g>
</g>
<!-- Node1&#45;&gt;Node21 -->
<g id="edge24_Node000001_Node000021" class="edge">
<title>Node1&#45;&gt;Node21</title>
<g id="a_edge24_Node000001_Node000021"><a xlink:title=" ">
<path fill="none" stroke="#63b8ff" d="M1271.73,-259.78C1248.87,-249.69 1220.88,-237.34 1199.75,-228.01"/>
<polygon fill="#63b8ff" stroke="#63b8ff" points="1270.62,-263.12 1281.18,-263.95 1273.44,-256.71 1270.62,-263.12"/>
</a>
</g>
</g>
<!-- Node23 -->
<g id="Node000023" class="node">
<title>Node23</title>
<g id="a_Node000023"><a xlink:href="IncomeTaxSquare_8hpp.html" target="_top" xlink:title=" ">
<polygon fill="white" stroke="#666666" points="1376.5,-228 1249.5,-228 1249.5,-198 1376.5,-198 1376.5,-228"/>
<text text-anchor="start" x="1257.5" y="-216" font-family="Helvetica,sans-Serif" font-size="10.00">include/view/components</text>
<text text-anchor="middle" x="1313" y="-205" font-family="Helvetica,sans-Serif" font-size="10.00">/IncomeTaxSquare.hpp</text>
</a>
</g>
</g>
<!-- Node1&#45;&gt;Node23 -->
<g id="edge27_Node000001_Node000023" class="edge">
<title>Node1&#45;&gt;Node23</title>
<g id="a_edge27_Node000001_Node000023"><a xlink:title=" ">
<path fill="none" stroke="#63b8ff" d="M1313,-253.54C1313,-244.96 1313,-235.61 1313,-228.16"/>
<polygon fill="#63b8ff" stroke="#63b8ff" points="1309.5,-253.8 1313,-263.8 1316.5,-253.8 1309.5,-253.8"/>
</a>
</g>
</g>
<!-- Node25 -->
<g id="Node000025" class="node">
<title>Node25</title>
<g id="a_Node000025"><a xlink:href="JailSquare_8hpp.html" target="_top" xlink:title=" ">
<polygon fill="white" stroke="#666666" points="1521.5,-228 1394.5,-228 1394.5,-198 1521.5,-198 1521.5,-228"/>
<text text-anchor="start" x="1402.5" y="-216" font-family="Helvetica,sans-Serif" font-size="10.00">include/view/components</text>
<text text-anchor="middle" x="1458" y="-205" font-family="Helvetica,sans-Serif" font-size="10.00">/JailSquare.hpp</text>
</a>
</g>
</g>
<!-- Node1&#45;&gt;Node25 -->
<g id="edge30_Node000001_Node000025" class="edge">
<title>Node1&#45;&gt;Node25</title>
<g id="a_edge30_Node000001_Node000025"><a xlink:title=" ">
<path fill="none" stroke="#63b8ff" d="M1354.27,-259.78C1377.13,-249.69 1405.12,-237.34 1426.25,-228.01"/>
<polygon fill="#63b8ff" stroke="#63b8ff" points="1352.56,-256.71 1344.82,-263.95 1355.38,-263.12 1352.56,-256.71"/>
</a>
</g>
</g>
<!-- Node27 -->
<g id="Node000027" class="node">
<title>Node27</title>
<g id="a_Node000027"><a xlink:href="RailroadSquare_8hpp.html" target="_top" xlink:title=" ">
<polygon fill="white" stroke="#666666" points="1666.5,-228 1539.5,-228 1539.5,-198 1666.5,-198 1666.5,-228"/>
<text text-anchor="start" x="1547.5" y="-216" font-family="Helvetica,sans-Serif" font-size="10.00">include/view/components</text>
<text text-anchor="middle" x="1603" y="-205" font-family="Helvetica,sans-Serif" font-size="10.00">/RailroadSquare.hpp</text>
</a>
</g>
</g>
<!-- Node1&#45;&gt;Node27 -->
<g id="edge33_Node000001_Node000027" class="edge">
<title>Node1&#45;&gt;Node27</title>
<g id="a_edge33_Node000001_Node000027"><a xlink:title=" ">
<path fill="none" stroke="#63b8ff" d="M1386.5,-261.78C1433.71,-251.36 1494.4,-237.97 1539.51,-228.01"/>
<polygon fill="#63b8ff" stroke="#63b8ff" points="1385.65,-258.38 1376.64,-263.95 1387.16,-265.22 1385.65,-258.38"/>
</a>
</g>
</g>
<!-- Node29 -->
<g id="Node000029" class="node">
<title>Node29</title>
<g id="a_Node000029"><a xlink:href="StreetSquare_8hpp.html" target="_top" xlink:title=" ">
<polygon fill="white" stroke="#666666" points="1811.5,-228 1684.5,-228 1684.5,-198 1811.5,-198 1811.5,-228"/>
<text text-anchor="start" x="1692.5" y="-216" font-family="Helvetica,sans-Serif" font-size="10.00">include/view/components</text>
<text text-anchor="middle" x="1748" y="-205" font-family="Helvetica,sans-Serif" font-size="10.00">/StreetSquare.hpp</text>
</a>
</g>
</g>
<!-- Node1&#45;&gt;Node29 -->
<g id="edge36_Node000001_Node000029" class="edge">
<title>Node1&#45;&gt;Node29</title>
<g id="a_edge36_Node000001_Node000029"><a xlink:title=" ">
<path fill="none" stroke="#63b8ff" d="M1395.99,-267.89C1469.69,-258.6 1580.25,-243.89 1676,-228 1678.76,-227.54 1681.58,-227.06 1684.43,-226.56"/>
<polygon fill="#63b8ff" stroke="#63b8ff" points="1395.32,-264.45 1385.84,-269.17 1396.2,-271.39 1395.32,-264.45"/>
</a>
</g>
</g>
<!-- Node31 -->
<g id="Node000031" class="node">
<title>Node31</title>
<g id="a_Node000031"><a xlink:href="UtilitySquare_8hpp.html" target="_top" xlink:title=" ">
<polygon fill="white" stroke="#666666" points="1956.5,-228 1829.5,-228 1829.5,-198 1956.5,-198 1956.5,-228"/>
<text text-anchor="start" x="1837.5" y="-216" font-family="Helvetica,sans-Serif" font-size="10.00">include/view/components</text>
<text text-anchor="middle" x="1893" y="-205" font-family="Helvetica,sans-Serif" font-size="10.00">/UtilitySquare.hpp</text>
</a>
</g>
</g>
<!-- Node1&#45;&gt;Node31 -->
<g id="edge39_Node000001_Node000031" class="edge">
<title>Node1&#45;&gt;Node31</title>
<g id="a_edge39_Node000001_Node000031"><a xlink:title=" ">
<path fill="none" stroke="#63b8ff" d="M1395.72,-272.26C1496.5,-264.71 1671.79,-249.8 1821,-228 1823.77,-227.59 1826.6,-227.16 1829.45,-226.69"/>
<polygon fill="#63b8ff" stroke="#63b8ff" points="1395.32,-268.78 1385.61,-273.01 1395.84,-275.76 1395.32,-268.78"/>
</a>
</g>
</g>
<!-- Node33 -->
<g id="Node000033" class="node">
<title>Node33</title>
<g id="a_Node000033"><a xlink:href="BoardSquareComponent_8cpp.html" target="_top" xlink:title=" ">
<polygon fill="white" stroke="#666666" points="2264.5,-228 2119.5,-228 2119.5,-198 2264.5,-198 2264.5,-228"/>
<text text-anchor="start" x="2127.5" y="-216" font-family="Helvetica,sans-Serif" font-size="10.00">src/view/components</text>
<text text-anchor="middle" x="2192" y="-205" font-family="Helvetica,sans-Serif" font-size="10.00">/BoardSquareComponent.cpp</text>
</a>
</g>
</g>
<!-- Node1&#45;&gt;Node33 -->
<g id="edge42_Node000001_Node000033" class="edge">
<title>Node1&#45;&gt;Node33</title>
<g id="a_edge42_Node000001_Node000033"><a xlink:title=" ">
<path fill="none" stroke="#63b8ff" d="M1395.75,-275.78C1540.97,-271.21 1850.99,-258.52 2111,-228 2113.69,-227.68 2116.43,-227.34 2119.2,-226.97"/>
<polygon fill="#63b8ff" stroke="#63b8ff" points="1395.47,-272.28 1385.58,-276.09 1395.69,-279.28 1395.47,-272.28"/>
</a>
</g>
</g>
<!-- Node3 -->
<g id="Node000003" class="node">
<title>Node3</title>
<g id="a_Node000003"><a xlink:href="GameView_8hpp.html" target="_top" xlink:title="Main view class for the Monopoly game&#39;s graphical interface.">
<polygon fill="white" stroke="#666666" points="488.5,-156.5 349.5,-156.5 349.5,-137.5 488.5,-137.5 488.5,-156.5"/>
<text text-anchor="middle" x="419" y="-144.5" font-family="Helvetica,sans-Serif" font-size="10.00">include/view/GameView.hpp</text>
</a>
</g>
</g>
<!-- Node2&#45;&gt;Node3 -->
<g id="edge2_Node000002_Node000003" class="edge">
<title>Node2&#45;&gt;Node3</title>
<g id="a_edge2_Node000002_Node000003"><a xlink:title=" ">
<path fill="none" stroke="#63b8ff" d="M421.48,-187.6C420.8,-176.8 420.05,-164.78 419.55,-156.84"/>
<polygon fill="#63b8ff" stroke="#63b8ff" points="418,-188.03 422.11,-197.8 424.98,-187.6 418,-188.03"/>
</a>
</g>
</g>
<!-- Node11 -->
<g id="Node000011" class="node">
<title>Node11</title>
<g id="a_Node000011"><a xlink:href="BoardView_8cpp.html" target="_top" xlink:title=" ">
<polygon fill="white" stroke="#666666" points="1177,-162 1067,-162 1067,-132 1177,-132 1177,-162"/>
<text text-anchor="start" x="1075" y="-150" font-family="Helvetica,sans-Serif" font-size="10.00">src/view/components</text>
<text text-anchor="middle" x="1122" y="-139" font-family="Helvetica,sans-Serif" font-size="10.00">/BoardView.cpp</text>
</a>
</g>
</g>
<!-- Node2&#45;&gt;Node11 -->
<g id="edge10_Node000002_Node000011" class="edge">
<title>Node2&#45;&gt;Node11</title>
<g id="a_edge10_Node000002_Node000011"><a xlink:title=" ">
<path fill="none" stroke="#63b8ff" d="M496.6,-197.91C745.46,-166.81 812.98,-196.43 1058,-162 1060.93,-161.59 1063.92,-161.12 1066.94,-160.6"/>
<polygon fill="#63b8ff" stroke="#63b8ff" points="496.01,-194.46 486.53,-199.19 496.89,-201.4 496.01,-194.46"/>
</a>
</g>
</g>
<!-- Node4 -->
<g id="Node000004" class="node">
<title>Node4</title>
<g id="a_Node000004"><a xlink:href="GameController_8hpp.html" target="_top" xlink:title="Main controller class for the Monopoly game implementation.">
<polygon fill="white" stroke="#666666" points="406,-96 300,-96 300,-66 406,-66 406,-96"/>
<text text-anchor="start" x="308" y="-84" font-family="Helvetica,sans-Serif" font-size="10.00">include/controller</text>
<text text-anchor="middle" x="353" y="-73" font-family="Helvetica,sans-Serif" font-size="10.00">/GameController.hpp</text>
</a>
</g>
</g>
<!-- Node3&#45;&gt;Node4 -->
<g id="edge3_Node000003_Node000004" class="edge">
<title>Node3&#45;&gt;Node4</title>
<g id="a_edge3_Node000003_Node000004"><a xlink:title=" ">
<path fill="none" stroke="#63b8ff" d="M402.61,-130.1C391.85,-119.68 377.92,-106.16 367.56,-96.12"/>
<polygon fill="#63b8ff" stroke="#63b8ff" points="400.48,-132.92 410.1,-137.37 405.36,-127.89 400.48,-132.92"/>
</a>
</g>
</g>
<!-- Node10 -->
<g id="Node000010" class="node">
<title>Node10</title>
<g id="a_Node000010"><a xlink:href="GameView_8cpp.html" target="_top" xlink:title=" ">
<polygon fill="white" stroke="#666666" points="546,-90.5 424,-90.5 424,-71.5 546,-71.5 546,-90.5"/>
<text text-anchor="middle" x="485" y="-78.5" font-family="Helvetica,sans-Serif" font-size="10.00">src/view/GameView.cpp</text>
</a>
</g>
</g>
<!-- Node3&#45;&gt;Node10 -->
<g id="edge9_Node000003_Node000010" class="edge">
<title>Node3&#45;&gt;Node10</title>
<g id="a_edge9_Node000003_Node000010"><a xlink:title=" ">
<path fill="none" stroke="#63b8ff" d="M435.16,-130.33C447.94,-117.94 465.32,-101.09 475.82,-90.91"/>
<polygon fill="#63b8ff" stroke="#63b8ff" points="432.64,-127.89 427.9,-137.37 437.52,-132.92 432.64,-127.89"/>
</a>
</g>
</g>
<!-- Node5 -->
<g id="Node000005" class="node">
<title>Node5</title>
<g id="a_Node000005"><a xlink:href="GameController_8cpp.html" target="_top" xlink:title=" ">
<polygon fill="white" stroke="#666666" points="162,-24.5 0,-24.5 0,-5.5 162,-5.5 162,-24.5"/>
<text text-anchor="middle" x="81" y="-12.5" font-family="Helvetica,sans-Serif" font-size="10.00">src/controller/GameController.cpp</text>
</a>
</g>
</g>
<!-- Node4&#45;&gt;Node5 -->
<g id="edge4_Node000004_Node000005" class="edge">
<title>Node4&#45;&gt;Node5</title>
<g id="a_edge4_Node000004_Node000005"><a xlink:title=" ">
<path fill="none" stroke="#63b8ff" d="M289.84,-65.14C236.33,-52.55 161.47,-34.93 117.43,-24.57"/>
<polygon fill="#63b8ff" stroke="#63b8ff" points="289.37,-68.62 299.91,-67.51 290.98,-61.81 289.37,-68.62"/>
</a>
</g>
</g>
<!-- Node6 -->
<g id="Node000006" class="node">
<title>Node6</title>
<g id="a_Node000006"><a xlink:href="GameState_8cpp.html" target="_top" xlink:title=" ">
<polygon fill="white" stroke="#666666" points="283.5,-30 180.5,-30 180.5,0 283.5,0 283.5,-30"/>
<text text-anchor="start" x="188.5" y="-18" font-family="Helvetica,sans-Serif" font-size="10.00">src/controller/states</text>
<text text-anchor="middle" x="232" y="-7" font-family="Helvetica,sans-Serif" font-size="10.00">/GameState.cpp</text>
</a>
</g>
</g>
<!-- Node4&#45;&gt;Node6 -->
<g id="edge5_Node000004_Node000006" class="edge">
<title>Node4&#45;&gt;Node6</title>
<g id="a_edge5_Node000004_Node000006"><a xlink:title=" ">
<path fill="none" stroke="#63b8ff" d="M317.53,-61.24C298.65,-51.25 275.82,-39.18 258.49,-30.01"/>
<polygon fill="#63b8ff" stroke="#63b8ff" points="315.97,-64.37 326.45,-65.95 319.24,-58.19 315.97,-64.37"/>
</a>
</g>
</g>
<!-- Node7 -->
<g id="Node000007" class="node">
<title>Node7</title>
<g id="a_Node000007"><a xlink:href="RollDiceState_8cpp.html" target="_top" xlink:title=" ">
<polygon fill="white" stroke="#666666" points="404.5,-30 301.5,-30 301.5,0 404.5,0 404.5,-30"/>
<text text-anchor="start" x="309.5" y="-18" font-family="Helvetica,sans-Serif" font-size="10.00">src/controller/states</text>
<text text-anchor="middle" x="353" y="-7" font-family="Helvetica,sans-Serif" font-size="10.00">/RollDiceState.cpp</text>
</a>
</g>
</g>
<!-- Node4&#45;&gt;Node7 -->
<g id="edge6_Node000004_Node000007" class="edge">
<title>Node4&#45;&gt;Node7</title>
<g id="a_edge6_Node000004_Node000007"><a xlink:title=" ">
<path fill="none" stroke="#63b8ff" d="M353,-55.54C353,-46.96 353,-37.61 353,-30.16"/>
<polygon fill="#63b8ff" stroke="#63b8ff" points="349.5,-55.8 353,-65.8 356.5,-55.8 349.5,-55.8"/>
</a>
</g>
</g>
<!-- Node8 -->
<g id="Node000008" class="node">
<title>Node8</title>
<g id="a_Node000008"><a xlink:href="StartState_8cpp.html" target="_top" xlink:title=" ">
<polygon fill="white" stroke="#666666" points="525.5,-30 422.5,-30 422.5,0 525.5,0 525.5,-30"/>
<text text-anchor="start" x="430.5" y="-18" font-family="Helvetica,sans-Serif" font-size="10.00">src/controller/states</text>
<text text-anchor="middle" x="474" y="-7" font-family="Helvetica,sans-Serif" font-size="10.00">/StartState.cpp</text>
</a>
</g>
</g>
<!-- Node4&#45;&gt;Node8 -->
<g id="edge7_Node000004_Node000008" class="edge">
<title>Node4&#45;&gt;Node8</title>
<g id="a_edge7_Node000004_Node000008"><a xlink:title=" ">
<path fill="none" stroke="#63b8ff" d="M388.47,-61.24C407.35,-51.25 430.18,-39.18 447.51,-30.01"/>
<polygon fill="#63b8ff" stroke="#63b8ff" points="386.76,-58.19 379.55,-65.95 390.03,-64.37 386.76,-58.19"/>
</a>
</g>
</g>
<!-- Node9 -->
<g id="Node000009" class="node">
<title>Node9</title>
<g id="a_Node000009"><a xlink:href="TurnState_8cpp.html" target="_top" xlink:title=" ">
<polygon fill="white" stroke="#666666" points="646.5,-30 543.5,-30 543.5,0 646.5,0 646.5,-30"/>
<text text-anchor="start" x="551.5" y="-18" font-family="Helvetica,sans-Serif" font-size="10.00">src/controller/states</text>
<text text-anchor="middle" x="595" y="-7" font-family="Helvetica,sans-Serif" font-size="10.00">/TurnState.cpp</text>
</a>
</g>
</g>
<!-- Node4&#45;&gt;Node9 -->
<g id="edge8_Node000004_Node000009" class="edge">
<title>Node4&#45;&gt;Node9</title>
<g id="a_edge8_Node000004_Node000009"><a xlink:title=" ">
<path fill="none" stroke="#63b8ff" d="M415.93,-63.36C455.52,-52.89 506,-39.54 543.26,-29.68"/>
<polygon fill="#63b8ff" stroke="#63b8ff" points="414.88,-60.01 406.11,-65.95 416.67,-66.78 414.88,-60.01"/>
</a>
</g>
</g>
<!-- Node12&#45;&gt;Node11 -->
<g id="edge12_Node000012_Node000011" class="edge">
<title>Node12&#45;&gt;Node11</title>
<g id="a_edge12_Node000012_Node000011"><a xlink:title=" ">
<path fill="none" stroke="#63b8ff" d="M641.71,-198.01C827.02,-173.05 877.32,-189.44 1058,-162 1060.92,-161.56 1063.91,-161.06 1066.93,-160.52"/>
<polygon fill="#63b8ff" stroke="#63b8ff" points="641.07,-194.57 631.64,-199.39 642.02,-201.5 641.07,-194.57"/>
</a>
</g>
</g>
<!-- Node13 -->
<g id="Node000013" class="node">
<title>Node13</title>
<g id="a_Node000013"><a xlink:href="ChanceSquare_8cpp.html" target="_top" xlink:title=" ">
<polygon fill="white" stroke="#666666" points="617,-162 507,-162 507,-132 617,-132 617,-162"/>
<text text-anchor="start" x="515" y="-150" font-family="Helvetica,sans-Serif" font-size="10.00">src/view/components</text>
<text text-anchor="middle" x="562" y="-139" font-family="Helvetica,sans-Serif" font-size="10.00">/ChanceSquare.cpp</text>
</a>
</g>
</g>
<!-- Node12&#45;&gt;Node13 -->
<g id="edge13_Node000012_Node000013" class="edge">
<title>Node12&#45;&gt;Node13</title>
<g id="a_edge13_Node000012_Node000013"><a xlink:title=" ">
<path fill="none" stroke="#63b8ff" d="M565.73,-187.83C564.92,-179.17 564.03,-169.7 563.33,-162.16"/>
<polygon fill="#63b8ff" stroke="#63b8ff" points="562.25,-188.17 566.67,-197.8 569.22,-187.51 562.25,-188.17"/>
</a>
</g>
</g>
<!-- Node14&#45;&gt;Node11 -->
<g id="edge15_Node000014_Node000011" class="edge">
<title>Node14&#45;&gt;Node11</title>
<g id="a_edge15_Node000014_Node000011"><a xlink:title=" ">
<path fill="none" stroke="#63b8ff" d="M806.36,-197.82C918.92,-180.52 949.39,-181.58 1058,-162 1060.91,-161.48 1063.89,-160.91 1066.89,-160.33"/>
<polygon fill="#63b8ff" stroke="#63b8ff" points="805.65,-194.39 796.3,-199.38 806.72,-201.31 805.65,-194.39"/>
</a>
</g>
</g>
<!-- Node15 -->
<g id="Node000015" class="node">
<title>Node15</title>
<g id="a_Node000015"><a xlink:href="CommunityChestSquare_8cpp.html" target="_top" xlink:title=" ">
<polygon fill="white" stroke="#666666" points="781,-162 635,-162 635,-132 781,-132 781,-162"/>
<text text-anchor="start" x="643" y="-150" font-family="Helvetica,sans-Serif" font-size="10.00">src/view/components</text>
<text text-anchor="middle" x="708" y="-139" font-family="Helvetica,sans-Serif" font-size="10.00">/CommunityChestSquare.cpp</text>
</a>
</g>
</g>
<!-- Node14&#45;&gt;Node15 -->
<g id="edge16_Node000014_Node000015" class="edge">
<title>Node14&#45;&gt;Node15</title>
<g id="a_edge16_Node000014_Node000015"><a xlink:title=" ">
<path fill="none" stroke="#63b8ff" d="M717.33,-187.83C715.31,-179.17 713.09,-169.7 711.32,-162.16"/>
<polygon fill="#63b8ff" stroke="#63b8ff" points="713.98,-188.86 719.67,-197.8 720.8,-187.26 713.98,-188.86"/>
</a>
</g>
</g>
<!-- Node17&#45;&gt;Node11 -->
<g id="edge19_Node000017_Node000011" class="edge">
<title>Node17&#45;&gt;Node11</title>
<g id="a_edge19_Node000017_Node000011"><a xlink:title=" ">
<path fill="none" stroke="#63b8ff" d="M941.34,-195.39C980.84,-185.03 1031.1,-171.84 1068.58,-162.01"/>
<polygon fill="#63b8ff" stroke="#63b8ff" points="940.33,-192.03 931.55,-197.95 942.11,-198.8 940.33,-192.03"/>
</a>
</g>
</g>
<!-- Node18 -->
<g id="Node000018" class="node">
<title>Node18</title>
<g id="a_Node000018"><a xlink:href="FreeParkingSquare_8cpp.html" target="_top" xlink:title=" ">
<polygon fill="white" stroke="#666666" points="921,-162 799,-162 799,-132 921,-132 921,-162"/>
<text text-anchor="start" x="807" y="-150" font-family="Helvetica,sans-Serif" font-size="10.00">src/view/components</text>
<text text-anchor="middle" x="860" y="-139" font-family="Helvetica,sans-Serif" font-size="10.00">/FreeParkingSquare.cpp</text>
</a>
</g>
</g>
<!-- Node17&#45;&gt;Node18 -->
<g id="edge20_Node000017_Node000018" class="edge">
<title>Node17&#45;&gt;Node18</title>
<g id="a_edge20_Node000017_Node000018"><a xlink:title=" ">
<path fill="none" stroke="#63b8ff" d="M871.28,-188.11C868.82,-179.38 866.13,-169.78 863.98,-162.16"/>
<polygon fill="#63b8ff" stroke="#63b8ff" points="867.93,-189.12 874.01,-197.8 874.67,-187.22 867.93,-189.12"/>
</a>
</g>
</g>
<!-- Node19&#45;&gt;Node11 -->
<g id="edge22_Node000019_Node000011" class="edge">
<title>Node19&#45;&gt;Node11</title>
<g id="a_edge22_Node000019_Node000011"><a xlink:title=" ">
<path fill="none" stroke="#63b8ff" d="M1053.47,-192.3C1068.54,-182.56 1086.39,-171.02 1100.09,-162.16"/>
<polygon fill="#63b8ff" stroke="#63b8ff" points="1051.47,-189.43 1044.97,-197.8 1055.27,-195.31 1051.47,-189.43"/>
</a>
</g>
</g>
<!-- Node20 -->
<g id="Node000020" class="node">
<title>Node20</title>
<g id="a_Node000020"><a xlink:href="GoSquare_8cpp.html" target="_top" xlink:title=" ">
<polygon fill="white" stroke="#666666" points="1049,-162 939,-162 939,-132 1049,-132 1049,-162"/>
<text text-anchor="start" x="947" y="-150" font-family="Helvetica,sans-Serif" font-size="10.00">src/view/components</text>
<text text-anchor="middle" x="994" y="-139" font-family="Helvetica,sans-Serif" font-size="10.00">/GoSquare.cpp</text>
</a>
</g>
</g>
<!-- Node19&#45;&gt;Node20 -->
<g id="edge23_Node000019_Node000020" class="edge">
<title>Node19&#45;&gt;Node20</title>
<g id="a_edge23_Node000019_Node000020"><a xlink:title=" ">
<path fill="none" stroke="#63b8ff" d="M1012.43,-188.68C1008.41,-179.79 1003.94,-169.95 1000.42,-162.16"/>
<polygon fill="#63b8ff" stroke="#63b8ff" points="1009.25,-190.13 1016.56,-197.8 1015.62,-187.24 1009.25,-190.13"/>
</a>
</g>
</g>
<!-- Node21&#45;&gt;Node11 -->
<g id="edge25_Node000021_Node000011" class="edge">
<title>Node21&#45;&gt;Node11</title>
<g id="a_edge25_Node000021_Node000011"><a xlink:title=" ">
<path fill="none" stroke="#63b8ff" d="M1151.85,-189.53C1145.31,-180.43 1137.95,-170.19 1132.18,-162.16"/>
<polygon fill="#63b8ff" stroke="#63b8ff" points="1149.11,-191.72 1157.79,-197.8 1154.8,-187.63 1149.11,-191.72"/>
</a>
</g>
</g>
<!-- Node22 -->
<g id="Node000022" class="node">
<title>Node22</title>
<g id="a_Node000022"><a xlink:href="GoToJailSquare_8cpp.html" target="_top" xlink:title=" ">
<polygon fill="white" stroke="#666666" points="1305,-162 1195,-162 1195,-132 1305,-132 1305,-162"/>
<text text-anchor="start" x="1203" y="-150" font-family="Helvetica,sans-Serif" font-size="10.00">src/view/components</text>
<text text-anchor="middle" x="1250" y="-139" font-family="Helvetica,sans-Serif" font-size="10.00">/GoToJailSquare.cpp</text>
</a>
</g>
</g>
<!-- Node21&#45;&gt;Node22 -->
<g id="edge26_Node000021_Node000022" class="edge">
<title>Node21&#45;&gt;Node22</title>
<g id="a_edge26_Node000021_Node000022"><a xlink:title=" ">
<path fill="none" stroke="#63b8ff" d="M1194.29,-191.48C1206.55,-181.91 1220.82,-170.77 1231.85,-162.16"/>
<polygon fill="#63b8ff" stroke="#63b8ff" points="1191.93,-188.88 1186.2,-197.8 1196.24,-194.4 1191.93,-188.88"/>
</a>
</g>
</g>
<!-- Node23&#45;&gt;Node11 -->
<g id="edge28_Node000023_Node000011" class="edge">
<title>Node23&#45;&gt;Node11</title>
<g id="a_edge28_Node000023_Node000011"><a xlink:title=" ">
<path fill="none" stroke="#63b8ff" d="M1261.44,-194.72C1230.84,-184.47 1192.53,-171.63 1163.82,-162.01"/>
<polygon fill="#63b8ff" stroke="#63b8ff" points="1260.49,-198.1 1271.08,-197.95 1262.71,-191.46 1260.49,-198.1"/>
</a>
</g>
</g>
<!-- Node24 -->
<g id="Node000024" class="node">
<title>Node24</title>
<g id="a_Node000024"><a xlink:href="IncomeTaxSquare_8cpp.html" target="_top" xlink:title=" ">
<polygon fill="white" stroke="#666666" points="1440.5,-162 1323.5,-162 1323.5,-132 1440.5,-132 1440.5,-162"/>
<text text-anchor="start" x="1331.5" y="-150" font-family="Helvetica,sans-Serif" font-size="10.00">src/view/components</text>
<text text-anchor="middle" x="1382" y="-139" font-family="Helvetica,sans-Serif" font-size="10.00">/IncomeTaxSquare.cpp</text>
</a>
</g>
</g>
<!-- Node23&#45;&gt;Node24 -->
<g id="edge29_Node000023_Node000024" class="edge">
<title>Node23&#45;&gt;Node24</title>
<g id="a_edge29_Node000023_Node000024"><a xlink:title=" ">
<path fill="none" stroke="#63b8ff" d="M1335.72,-190.92C1345.9,-181.49 1357.63,-170.61 1366.73,-162.16"/>
<polygon fill="#63b8ff" stroke="#63b8ff" points="1333.26,-188.43 1328.31,-197.8 1338.03,-193.56 1333.26,-188.43"/>
</a>
</g>
</g>
<!-- Node25&#45;&gt;Node11 -->
<g id="edge31_Node000025_Node000011" class="edge">
<title>Node25&#45;&gt;Node11</title>
<g id="a_edge31_Node000025_Node000011"><a xlink:title=" ">
<path fill="none" stroke="#63b8ff" d="M1384.43,-197.72C1295.55,-181.24 1271.46,-179.03 1186,-162 1183.1,-161.42 1180.13,-160.82 1177.13,-160.2"/>
<polygon fill="#63b8ff" stroke="#63b8ff" points="1383.93,-201.19 1394.41,-199.58 1385.22,-194.31 1383.93,-201.19"/>
</a>
</g>
</g>
<!-- Node26 -->
<g id="Node000026" class="node">
<title>Node26</title>
<g id="a_Node000026"><a xlink:href="JailSquare_8cpp.html" target="_top" xlink:title=" ">
<polygon fill="white" stroke="#666666" points="1569,-162 1459,-162 1459,-132 1569,-132 1569,-162"/>
<text text-anchor="start" x="1467" y="-150" font-family="Helvetica,sans-Serif" font-size="10.00">src/view/components</text>
<text text-anchor="middle" x="1514" y="-139" font-family="Helvetica,sans-Serif" font-size="10.00">/JailSquare.cpp</text>
</a>
</g>
</g>
<!-- Node25&#45;&gt;Node26 -->
<g id="edge32_Node000025_Node000026" class="edge">
<title>Node25&#45;&gt;Node26</title>
<g id="a_edge32_Node000025_Node000026"><a xlink:title=" ">
<path fill="none" stroke="#63b8ff" d="M1477.17,-190.09C1485.26,-180.85 1494.44,-170.36 1501.61,-162.16"/>
<polygon fill="#63b8ff" stroke="#63b8ff" points="1474.38,-187.97 1470.43,-197.8 1479.65,-192.58 1474.38,-187.97"/>
</a>
</g>
</g>
<!-- Node27&#45;&gt;Node11 -->
<g id="edge34_Node000027_Node000011" class="edge">
<title>Node27&#45;&gt;Node11</title>
<g id="a_edge34_Node000027_Node000011"><a xlink:title=" ">
<path fill="none" stroke="#63b8ff" d="M1529.24,-197.83C1376.74,-175.73 1334.93,-185.98 1186,-162 1183.08,-161.53 1180.09,-161.01 1177.08,-160.46"/>
<polygon fill="#63b8ff" stroke="#63b8ff" points="1529.05,-201.33 1539.45,-199.33 1530.07,-194.41 1529.05,-201.33"/>
</a>
</g>
</g>
<!-- Node28 -->
<g id="Node000028" class="node">
<title>Node28</title>
<g id="a_Node000028"><a xlink:href="RailroadSquare_8cpp.html" target="_top" xlink:title=" ">
<polygon fill="white" stroke="#666666" points="1697,-162 1587,-162 1587,-132 1697,-132 1697,-162"/>
<text text-anchor="start" x="1595" y="-150" font-family="Helvetica,sans-Serif" font-size="10.00">src/view/components</text>
<text text-anchor="middle" x="1642" y="-139" font-family="Helvetica,sans-Serif" font-size="10.00">/RailroadSquare.cpp</text>
</a>
</g>
</g>
<!-- Node27&#45;&gt;Node28 -->
<g id="edge35_Node000027_Node000028" class="edge">
<title>Node27&#45;&gt;Node28</title>
<g id="a_edge35_Node000027_Node000028"><a xlink:title=" ">
<path fill="none" stroke="#63b8ff" d="M1616.87,-189.24C1622.37,-180.21 1628.53,-170.11 1633.37,-162.16"/>
<polygon fill="#63b8ff" stroke="#63b8ff" points="1613.87,-187.44 1611.66,-197.8 1619.85,-191.08 1613.87,-187.44"/>
</a>
</g>
</g>
<!-- Node29&#45;&gt;Node11 -->
<g id="edge37_Node000029_Node000011" class="edge">
<title>Node29&#45;&gt;Node11</title>
<g id="a_edge37_Node000029_Node000011"><a xlink:title=" ">
<path fill="none" stroke="#63b8ff" d="M1674.36,-197.89C1457.78,-169.83 1398.82,-192.94 1186,-162 1183.07,-161.57 1180.08,-161.09 1177.07,-160.57"/>
<polygon fill="#63b8ff" stroke="#63b8ff" points="1674.09,-201.39 1684.46,-199.22 1675.01,-194.45 1674.09,-201.39"/>
</a>
</g>
</g>
<!-- Node30 -->
<g id="Node000030" class="node">
<title>Node30</title>
<g id="a_Node000030"><a xlink:href="StreetSquare_8cpp.html" target="_top" xlink:title=" ">
<polygon fill="white" stroke="#666666" points="1825,-162 1715,-162 1715,-132 1825,-132 1825,-162"/>
<text text-anchor="start" x="1723" y="-150" font-family="Helvetica,sans-Serif" font-size="10.00">src/view/components</text>
<text text-anchor="middle" x="1770" y="-139" font-family="Helvetica,sans-Serif" font-size="10.00">/StreetSquare.cpp</text>
</a>
</g>
</g>
<!-- Node29&#45;&gt;Node30 -->
<g id="edge38_Node000029_Node000030" class="edge">
<title>Node29&#45;&gt;Node30</title>
<g id="a_edge38_Node000029_Node000030"><a xlink:title=" ">
<path fill="none" stroke="#63b8ff" d="M1756.21,-188.11C1759.21,-179.38 1762.51,-169.78 1765.13,-162.16"/>
<polygon fill="#63b8ff" stroke="#63b8ff" points="1752.82,-187.2 1752.88,-197.8 1759.44,-189.48 1752.82,-187.2"/>
</a>
</g>
</g>
<!-- Node31&#45;&gt;Node11 -->
<g id="edge40_Node000031_Node000011" class="edge">
<title>Node31&#45;&gt;Node11</title>
<g id="a_edge40_Node000031_Node000011"><a xlink:title=" ">
<path fill="none" stroke="#63b8ff" d="M1819.4,-197.92C1538.73,-163.81 1462.78,-199.87 1186,-162 1183.07,-161.6 1180.08,-161.14 1177.06,-160.63"/>
<polygon fill="#63b8ff" stroke="#63b8ff" points="1819.12,-201.41 1829.47,-199.16 1819.98,-194.46 1819.12,-201.41"/>
</a>
</g>
</g>
<!-- Node32 -->
<g id="Node000032" class="node">
<title>Node32</title>
<g id="a_Node000032"><a xlink:href="UtilitySquare_8cpp.html" target="_top" xlink:title=" ">
<polygon fill="white" stroke="#666666" points="1953,-162 1843,-162 1843,-132 1953,-132 1953,-162"/>
<text text-anchor="start" x="1851" y="-150" font-family="Helvetica,sans-Serif" font-size="10.00">src/view/components</text>
<text text-anchor="middle" x="1898" y="-139" font-family="Helvetica,sans-Serif" font-size="10.00">/UtilitySquare.cpp</text>
</a>
</g>
</g>
<!-- Node31&#45;&gt;Node32 -->
<g id="edge41_Node000031_Node000032" class="edge">
<title>Node31&#45;&gt;Node32</title>
<g id="a_edge41_Node000031_Node000032"><a xlink:title=" ">
<path fill="none" stroke="#63b8ff" d="M1894.89,-187.83C1895.56,-179.17 1896.3,-169.7 1896.89,-162.16"/>
<polygon fill="#63b8ff" stroke="#63b8ff" points="1891.4,-187.55 1894.11,-197.8 1898.38,-188.1 1891.4,-187.55"/>
</a>
</g>
</g>
</g>
</svg>

<g id="navigator" transform="translate(0 0)" fill="#404254">
  <rect fill="#f2f5e9" fill-opacity="0.5" stroke="#606060" stroke-width=".5" x="0" y="0" width="60" height="60"/>
  <use id="zoomplus" xlink:href="#zoomPlus" x="17" y="9" onmousedown="handleZoom(evt,'in')"/>
  <use id="zoomminus" xlink:href="#zoomMin" x="42" y="9" onmousedown="handleZoom(evt,'out')"/>
  <use id="reset" xlink:href="#resetDef" x="30" y="36" onmousedown="handleReset()"/>
   <use id="arrowup" xlink:href="#arrowUp" x="0" y="0" onmousedown="handlePan(0,-1)"/>
  <use id="arrowright" xlink:href="#arrowRight" x="0" y="0" onmousedown="handlePan(1,0)"/>
  <use id="arrowdown" xlink:href="#arrowDown" x="0" y="0" onmousedown="handlePan(0,1)"/>
  <use id="arrowleft" xlink:href="#arrowLeft" x="0" y="0" onmousedown="handlePan(-1,0)"/>
</g>
<svg viewBox="0 0 15 15" width="100%" height="30px" preserveAspectRatio="xMaxYMin meet">
 <g id="arrow_out" transform="scale(0.3 0.3)">
  <a xlink:href="BoardSquareComponent_8hpp__dep__incl_org.svg" target="_base">
   <rect id="button" ry="5" rx="5" y="6" x="6" height="38" width="38"
        fill="#f2f5e9" fill-opacity="0.5" stroke="#606060" stroke-width="1.0"/>
   <path id="arrow"
     d="M 11.500037,31.436501 C 11.940474,20.09759 22.043105,11.32322 32.158766,21.979434 L 37.068811,17.246167 C 37.068811,17.246167 37.088388,32 37.088388,32 L 22.160133,31.978069 C 22.160133,31.978069 26.997745,27.140456 26.997745,27.140456 C 18.528582,18.264221 13.291696,25.230495 11.500037,31.436501 z"
     style="fill:#404040;"/>
  </a>
 </g>
</svg>

<style type='text/css'>
<![CDATA[
[data-mouse-over-selected='false'] { opacity: 0.7; }
[data-mouse-over-selected='true']  { opacity: 1.0; }
]]>
</style>
<script type="application/ecmascript"><![CDATA[
document.addEventListener('DOMContentLoaded', (event) => {
  highlightEdges();
  highlightAdjacentNodes();
});
]]></script>
</svg>
