<?xml version="1.0" encoding="UTF-8" standalone="no"?>
<!DOCTYPE svg PUBLIC "-//W3C//DTD SVG 1.1//EN"
 "http://www.w3.org/Graphics/SVG/1.1/DTD/svg11.dtd">
<!-- Generated by graphviz version 2.43.0 (0)
 -->
<!-- Title: src/view/components/BoardSquareComponent.cpp Pages: 1 -->
<svg width="476pt" height="269pt"
 viewBox="0.00 0.00 476.00 269.00" xmlns="http://www.w3.org/2000/svg" xmlns:xlink="http://www.w3.org/1999/xlink">
<g id="graph0" class="graph" transform="scale(1 1) rotate(0) translate(4 265)">
<title>src/view/components/BoardSquareComponent.cpp</title>
<!-- Node1 -->
<g id="Node000001" class="node">
<title>Node1</title>
<g id="a_Node000001"><a xlink:title=" ">
<polygon fill="#999999" stroke="#666666" points="210,-261 65,-261 65,-231 210,-231 210,-261"/>
<text text-anchor="start" x="73" y="-249" font-family="Helvetica,sans-Serif" font-size="10.00">src/view/components</text>
<text text-anchor="middle" x="137.5" y="-238" font-family="Helvetica,sans-Serif" font-size="10.00">/BoardSquareComponent.cpp</text>
</a>
</g>
</g>
<!-- Node2 -->
<g id="Node000002" class="node">
<title>Node2</title>
<g id="a_Node000002"><a xlink:href="BoardSquareComponent_8hpp.html" target="_top" xlink:title=" ">
<polygon fill="white" stroke="#666666" points="238,-195 37,-195 37,-165 238,-165 238,-195"/>
<text text-anchor="start" x="45" y="-183" font-family="Helvetica,sans-Serif" font-size="10.00">../../../include/view</text>
<text text-anchor="middle" x="137.5" y="-172" font-family="Helvetica,sans-Serif" font-size="10.00">/components/BoardSquareComponent.hpp</text>
</a>
</g>
</g>
<!-- Node1&#45;&gt;Node2 -->
<g id="edge1_Node000001_Node000002" class="edge">
<title>Node1&#45;&gt;Node2</title>
<g id="a_edge1_Node000001_Node000002"><a xlink:title=" ">
<path fill="none" stroke="#63b8ff" d="M137.5,-230.8C137.5,-223.34 137.5,-213.99 137.5,-205.41"/>
<polygon fill="#63b8ff" stroke="#63b8ff" points="141,-205.16 137.5,-195.16 134,-205.16 141,-205.16"/>
</a>
</g>
</g>
<!-- Node3 -->
<g id="Node000003" class="node">
<title>Node3</title>
<g id="a_Node000003"><a xlink:title=" ">
<polygon fill="#e0e0e0" stroke="#999999" points="59,-74 0,-74 0,-55 59,-55 59,-74"/>
<text text-anchor="middle" x="29.5" y="-62" font-family="Helvetica,sans-Serif" font-size="10.00">functional</text>
</a>
</g>
</g>
<!-- Node2&#45;&gt;Node3 -->
<g id="edge2_Node000002_Node000003" class="edge">
<title>Node2&#45;&gt;Node3</title>
<g id="a_edge2_Node000002_Node000003"><a xlink:title=" ">
<path fill="none" stroke="#63b8ff" d="M123.82,-164.63C103.6,-143.37 65.85,-103.71 44.76,-81.54"/>
<polygon fill="#63b8ff" stroke="#63b8ff" points="47.24,-79.06 37.81,-74.23 42.16,-83.89 47.24,-79.06"/>
</a>
</g>
</g>
<!-- Node4 -->
<g id="Node000004" class="node">
<title>Node4</title>
<g id="a_Node000004"><a xlink:title=" ">
<polygon fill="#e0e0e0" stroke="#999999" points="129.5,-74 77.5,-74 77.5,-55 129.5,-55 129.5,-74"/>
<text text-anchor="middle" x="103.5" y="-62" font-family="Helvetica,sans-Serif" font-size="10.00">memory</text>
</a>
</g>
</g>
<!-- Node2&#45;&gt;Node4 -->
<g id="edge3_Node000002_Node000004" class="edge">
<title>Node2&#45;&gt;Node4</title>
<g id="a_edge3_Node000002_Node000004"><a xlink:title=" ">
<path fill="none" stroke="#63b8ff" d="M126.3,-164.58C119.56,-155.04 111.53,-141.95 107.5,-129 103.03,-114.63 102.18,-97.56 102.37,-84.74"/>
<polygon fill="#63b8ff" stroke="#63b8ff" points="105.88,-84.49 102.76,-74.36 98.89,-84.23 105.88,-84.49"/>
</a>
</g>
</g>
<!-- Node5 -->
<g id="Node000005" class="node">
<title>Node5</title>
<g id="a_Node000005"><a xlink:title=" ">
<polygon fill="#e0e0e0" stroke="#999999" points="305,-74 264,-74 264,-55 305,-55 305,-74"/>
<text text-anchor="middle" x="284.5" y="-62" font-family="Helvetica,sans-Serif" font-size="10.00">string</text>
</a>
</g>
</g>
<!-- Node2&#45;&gt;Node5 -->
<g id="edge4_Node000002_Node000005" class="edge">
<title>Node2&#45;&gt;Node5</title>
<g id="a_edge4_Node000002_Node000005"><a xlink:title=" ">
<path fill="none" stroke="#63b8ff" d="M205.81,-164.91C227.41,-157.43 249.74,-146.11 265.5,-129 276.71,-116.84 281.32,-98.31 283.21,-84.4"/>
<polygon fill="#63b8ff" stroke="#63b8ff" points="286.73,-84.35 284.24,-74.05 279.77,-83.65 286.73,-84.35"/>
</a>
</g>
</g>
<!-- Node6 -->
<g id="Node000006" class="node">
<title>Node6</title>
<g id="a_Node000006"><a xlink:href="PlayerTokenComponent_8hpp.html" target="_top" xlink:title=" ">
<polygon fill="white" stroke="#666666" points="256.5,-129 116.5,-129 116.5,-110 256.5,-110 256.5,-129"/>
<text text-anchor="middle" x="186.5" y="-117" font-family="Helvetica,sans-Serif" font-size="10.00">PlayerTokenComponent.hpp</text>
</a>
</g>
</g>
<!-- Node2&#45;&gt;Node6 -->
<g id="edge5_Node000002_Node000006" class="edge">
<title>Node2&#45;&gt;Node6</title>
<g id="a_edge5_Node000002_Node000006"><a xlink:title=" ">
<path fill="none" stroke="#63b8ff" d="M149.36,-164.84C156.4,-156.43 165.36,-145.74 172.71,-136.96"/>
<polygon fill="#63b8ff" stroke="#63b8ff" points="175.42,-139.18 179.16,-129.27 170.05,-134.68 175.42,-139.18"/>
</a>
</g>
</g>
<!-- Node6&#45;&gt;Node3 -->
<g id="edge6_Node000006_Node000003" class="edge">
<title>Node6&#45;&gt;Node3</title>
<g id="a_edge6_Node000006_Node000003"><a xlink:title=" ">
<path fill="none" stroke="#63b8ff" d="M161.28,-109.98C135.14,-101.16 94.1,-87.31 64.77,-77.41"/>
<polygon fill="#63b8ff" stroke="#63b8ff" points="65.52,-73.96 54.92,-74.08 63.28,-80.6 65.52,-73.96"/>
</a>
</g>
</g>
<!-- Node6&#45;&gt;Node4 -->
<g id="edge7_Node000006_Node000004" class="edge">
<title>Node6&#45;&gt;Node4</title>
<g id="a_edge7_Node000006_Node000004"><a xlink:title=" ">
<path fill="none" stroke="#63b8ff" d="M173.16,-109.98C160.41,-101.84 140.95,-89.41 125.83,-79.76"/>
<polygon fill="#63b8ff" stroke="#63b8ff" points="127.39,-76.6 117.08,-74.17 123.62,-82.5 127.39,-76.6"/>
</a>
</g>
</g>
<!-- Node6&#45;&gt;Node5 -->
<g id="edge8_Node000006_Node000005" class="edge">
<title>Node6&#45;&gt;Node5</title>
<g id="a_edge8_Node000006_Node000005"><a xlink:title=" ">
<path fill="none" stroke="#63b8ff" d="M202.25,-109.98C217.73,-101.61 241.59,-88.7 259.64,-78.95"/>
<polygon fill="#63b8ff" stroke="#63b8ff" points="261.34,-82.01 268.47,-74.17 258.01,-75.85 261.34,-82.01"/>
</a>
</g>
</g>
<!-- Node7 -->
<g id="Node000007" class="node">
<title>Node7</title>
<g id="a_Node000007"><a xlink:href="SFComponent_8hpp.html" target="_top" xlink:title=" ">
<polygon fill="white" stroke="#666666" points="245.5,-74 147.5,-74 147.5,-55 245.5,-55 245.5,-74"/>
<text text-anchor="middle" x="196.5" y="-62" font-family="Helvetica,sans-Serif" font-size="10.00">SFComponent.hpp</text>
</a>
</g>
</g>
<!-- Node6&#45;&gt;Node7 -->
<g id="edge9_Node000006_Node000007" class="edge">
<title>Node6&#45;&gt;Node7</title>
<g id="a_edge9_Node000006_Node000007"><a xlink:title=" ">
<path fill="none" stroke="#63b8ff" d="M188.15,-109.75C189.46,-102.8 191.34,-92.85 192.98,-84.13"/>
<polygon fill="#63b8ff" stroke="#63b8ff" points="196.46,-84.56 194.88,-74.09 189.59,-83.27 196.46,-84.56"/>
</a>
</g>
</g>
<!-- Node8 -->
<g id="Node000008" class="node">
<title>Node8</title>
<g id="a_Node000008"><a xlink:title=" ">
<polygon fill="#e0e0e0" stroke="#999999" points="59.5,-19 5.5,-19 5.5,0 59.5,0 59.5,-19"/>
<text text-anchor="middle" x="32.5" y="-7" font-family="Helvetica,sans-Serif" font-size="10.00">iostream</text>
</a>
</g>
</g>
<!-- Node7&#45;&gt;Node8 -->
<g id="edge10_Node000007_Node000008" class="edge">
<title>Node7&#45;&gt;Node8</title>
<g id="a_edge10_Node000007_Node000008"><a xlink:title=" ">
<path fill="none" stroke="#63b8ff" d="M170.15,-54.98C142.74,-46.13 99.61,-32.19 68.94,-22.28"/>
<polygon fill="#63b8ff" stroke="#63b8ff" points="69.65,-18.83 59.06,-19.08 67.5,-25.49 69.65,-18.83"/>
</a>
</g>
</g>
<!-- Node9 -->
<g id="Node000009" class="node">
<title>Node9</title>
<g id="a_Node000009"><a xlink:title=" ">
<polygon fill="#e0e0e0" stroke="#999999" points="181.5,-19 77.5,-19 77.5,0 181.5,0 181.5,-19"/>
<text text-anchor="middle" x="129.5" y="-7" font-family="Helvetica,sans-Serif" font-size="10.00">SFML/Graphics.hpp</text>
</a>
</g>
</g>
<!-- Node7&#45;&gt;Node9 -->
<g id="edge11_Node000007_Node000009" class="edge">
<title>Node7&#45;&gt;Node9</title>
<g id="a_edge11_Node000007_Node000009"><a xlink:title=" ">
<path fill="none" stroke="#63b8ff" d="M185.74,-54.98C175.73,-47.07 160.61,-35.11 148.57,-25.58"/>
<polygon fill="#63b8ff" stroke="#63b8ff" points="150.47,-22.63 140.46,-19.17 146.13,-28.12 150.47,-22.63"/>
</a>
</g>
</g>
<!-- Node10 -->
<g id="Node000010" class="node">
<title>Node10</title>
<g id="a_Node000010"><a xlink:title=" ">
<polygon fill="#e0e0e0" stroke="#999999" points="327,-19 200,-19 200,0 327,0 327,-19"/>
<text text-anchor="middle" x="263.5" y="-7" font-family="Helvetica,sans-Serif" font-size="10.00">SFML/System/Clock.hpp</text>
</a>
</g>
</g>
<!-- Node7&#45;&gt;Node10 -->
<g id="edge12_Node000007_Node000010" class="edge">
<title>Node7&#45;&gt;Node10</title>
<g id="a_edge12_Node000007_Node000010"><a xlink:title=" ">
<path fill="none" stroke="#63b8ff" d="M207.26,-54.98C217.27,-47.07 232.39,-35.11 244.43,-25.58"/>
<polygon fill="#63b8ff" stroke="#63b8ff" points="246.87,-28.12 252.54,-19.17 242.53,-22.63 246.87,-28.12"/>
</a>
</g>
</g>
<!-- Node11 -->
<g id="Node000011" class="node">
<title>Node11</title>
<g id="a_Node000011"><a xlink:title=" ">
<polygon fill="#e0e0e0" stroke="#999999" points="468,-19 345,-19 345,0 468,0 468,-19"/>
<text text-anchor="middle" x="406.5" y="-7" font-family="Helvetica,sans-Serif" font-size="10.00">SFML/System/Time.hpp</text>
</a>
</g>
</g>
<!-- Node7&#45;&gt;Node11 -->
<g id="edge13_Node000007_Node000011" class="edge">
<title>Node7&#45;&gt;Node11</title>
<g id="a_edge13_Node000007_Node000011"><a xlink:title=" ">
<path fill="none" stroke="#63b8ff" d="M230.24,-54.98C266.18,-45.91 323.22,-31.52 362.63,-21.57"/>
<polygon fill="#63b8ff" stroke="#63b8ff" points="363.66,-24.92 372.5,-19.08 361.94,-18.14 363.66,-24.92"/>
</a>
</g>
</g>
</g>
</svg>
