<?xml version="1.0" encoding="UTF-8" standalone="no"?>
<!DOCTYPE svg PUBLIC "-//W3C//DTD SVG 1.1//EN"
 "http://www.w3.org/Graphics/SVG/1.1/DTD/svg11.dtd">
<!-- Generated by graphviz version 2.43.0 (0)
 -->
<!-- Title: include/view/components/BoardSquareComposite.hpp Pages: 1 -->
<!--zoomable 335 -->

<svg id="main" version="1.1" xmlns="http://www.w3.org/2000/svg" xmlns:xlink="http://www.w3.org/1999/xlink" xml:space="preserve" onload="init(evt)">
<style type="text/css"><![CDATA[
.node, .edge {opacity: 0.7;}
.node.selected, .edge.selected {opacity: 1;}
.edge:hover path { stroke: red; }
.edge:hover polygon { stroke: red; fill: red; }
]]></style>

<defs>
  <circle id="rim" cx="0" cy="0" r="7"/>
  <circle id="rim2" cx="0" cy="0" r="3.5"/>
  <g id="zoomPlus">
    <use xlink:href="#rim" fill="#404040"><set attributeName="fill" to="#808080" begin="zoomplus.mouseover" end="zoomplus.mouseout"/></use>
    <path d="M-4,0h8M0,-4v8" fill="none" stroke="white" stroke-width="1.5" pointer-events="none"/>
  </g>
  <g id="zoomMin">
    <use xlink:href="#rim" fill="#404040"><set attributeName="fill" to="#808080" begin="zoomminus.mouseover" end="zoomminus.mouseout"/></use>
    <path d="M-4,0h8" fill="none" stroke="white" stroke-width="1.5" pointer-events="none"/>
  </g>
  <g id="arrowUp" transform="translate(30 24)">
    <use xlink:href="#rim"/>
    <path pointer-events="none" fill="none" stroke="white" stroke-width="1.5" d="M0,-3.0v7 M-2.5,-0.5L0,-3.0L2.5,-0.5"/>
  </g>
  <g id="arrowRight" transform="rotate(90) translate(36 -43)">
    <use xlink:href="#rim"/>
    <path pointer-events="none" fill="none" stroke="white" stroke-width="1.5" d="M0,-3.0v7 M-2.5,-0.5L0,-3.0L2.5,-0.5"/>
  </g>
  <g id="arrowDown" transform="rotate(180) translate(-30 -48)">
    <use xlink:href="#rim"/>
    <path pointer-events="none" fill="none" stroke="white" stroke-width="1.5" d="M0,-3.0v7 M-2.5,-0.5L0,-3.0L2.5,-0.5"/>
  </g>
  <g id="arrowLeft" transform="rotate(270) translate(-36 17)">
    <use xlink:href="#rim"/>
    <path pointer-events="none" fill="none" stroke="white" stroke-width="1.5" d="M0,-3.0v7 M-2.5,-0.5L0,-3.0L2.5,-0.5"/>
  </g>
  <g id="resetDef">
    <use xlink:href="#rim2" fill="#404040"><set attributeName="fill" to="#808080" begin="reset.mouseover" end="reset.mouseout"/></use>
  </g>
</defs>
<script type="application/ecmascript">
var viewWidth = 1481;
var viewHeight = 335;
var sectionId = 'dynsection-0';
</script>
<script type="application/ecmascript" xlink:href="svg.min.js"/>
<svg id="graph" class="graph">
<g id="viewport">
<title>include/view/components/BoardSquareComposite.hpp</title>
<!-- Node1 -->
<g id="Node000001" class="node">
<title>Node1</title>
<g id="a_Node000001"><a xlink:title=" ">
<polygon fill="#999999" stroke="#666666" points="638,-327 496,-327 496,-297 638,-297 638,-327"/>
<text text-anchor="start" x="504" y="-315" font-family="Helvetica,sans-Serif" font-size="10.00">include/view/components</text>
<text text-anchor="middle" x="567" y="-304" font-family="Helvetica,sans-Serif" font-size="10.00">/BoardSquareComposite.hpp</text>
</a>
</g>
</g>
<!-- Node2 -->
<g id="Node000002" class="node">
<title>Node2</title>
<g id="a_Node000002"><a xlink:title=" ">
<polygon fill="#e0e0e0" stroke="#999999" points="346.5,-206 287.5,-206 287.5,-187 346.5,-187 346.5,-206"/>
<text text-anchor="middle" x="317" y="-194" font-family="Helvetica,sans-Serif" font-size="10.00">functional</text>
</a>
</g>
</g>
<!-- Node1&#45;&gt;Node2 -->
<g id="edge1_Node000001_Node000002" class="edge">
<title>Node1&#45;&gt;Node2</title>
<g id="a_edge1_Node000001_Node000002"><a xlink:title=" ">
<path fill="none" stroke="#63b8ff" d="M525.7,-296.94C499.38,-287.59 464.77,-274.58 435,-261 401.33,-245.64 363.94,-224.85 340.45,-211.31"/>
<polygon fill="#63b8ff" stroke="#63b8ff" points="341.99,-208.15 331.58,-206.16 338.47,-214.21 341.99,-208.15"/>
</a>
</g>
</g>
<!-- Node3 -->
<g id="Node000003" class="node">
<title>Node3</title>
<g id="a_Node000003"><a xlink:title=" ">
<polygon fill="#e0e0e0" stroke="#999999" points="664,-19 612,-19 612,0 664,0 664,-19"/>
<text text-anchor="middle" x="638" y="-7" font-family="Helvetica,sans-Serif" font-size="10.00">memory</text>
</a>
</g>
</g>
<!-- Node1&#45;&gt;Node3 -->
<g id="edge2_Node000001_Node000003" class="edge">
<title>Node1&#45;&gt;Node3</title>
<g id="a_edge2_Node000001_Node000003"><a xlink:title=" ">
<path fill="none" stroke="#63b8ff" d="M575.06,-296.82C586.21,-275.82 605,-234.9 605,-197.5 605,-197.5 605,-197.5 605,-135 605,-96.02 620.3,-52.41 630.06,-28.54"/>
<polygon fill="#63b8ff" stroke="#63b8ff" points="633.41,-29.62 634.08,-19.05 626.96,-26.89 633.41,-29.62"/>
</a>
</g>
</g>
<!-- Node4 -->
<g id="Node000004" class="node">
<title>Node4</title>
<g id="a_Node000004"><a xlink:title=" ">
<polygon fill="#e0e0e0" stroke="#999999" points="587.5,-19 546.5,-19 546.5,0 587.5,0 587.5,-19"/>
<text text-anchor="middle" x="567" y="-7" font-family="Helvetica,sans-Serif" font-size="10.00">string</text>
</a>
</g>
</g>
<!-- Node1&#45;&gt;Node4 -->
<g id="edge3_Node000001_Node000004" class="edge">
<title>Node1&#45;&gt;Node4</title>
<g id="a_edge3_Node000001_Node000004"><a xlink:title=" ">
<path fill="none" stroke="#63b8ff" d="M567,-296.67C567,-275.14 567,-233.17 567,-197.5 567,-197.5 567,-197.5 567,-135 567,-97.49 567,-53.63 567,-29.26"/>
<polygon fill="#63b8ff" stroke="#63b8ff" points="570.5,-29.25 567,-19.25 563.5,-29.25 570.5,-29.25"/>
</a>
</g>
</g>
<!-- Node5 -->
<g id="Node000005" class="node">
<title>Node5</title>
<g id="a_Node000005"><a xlink:href="SFComposite_8hpp.html" target="_top" xlink:title=" ">
<polygon fill="white" stroke="#666666" points="538.5,-261 443.5,-261 443.5,-242 538.5,-242 538.5,-261"/>
<text text-anchor="middle" x="491" y="-249" font-family="Helvetica,sans-Serif" font-size="10.00">SFComposite.hpp</text>
</a>
</g>
</g>
<!-- Node1&#45;&gt;Node5 -->
<g id="edge4_Node000001_Node000005" class="edge">
<title>Node1&#45;&gt;Node5</title>
<g id="a_edge4_Node000001_Node000005"><a xlink:title=" ">
<path fill="none" stroke="#63b8ff" d="M548.6,-296.84C537.12,-288 522.35,-276.63 510.64,-267.62"/>
<polygon fill="#63b8ff" stroke="#63b8ff" points="512.45,-264.59 502.39,-261.27 508.18,-270.14 512.45,-264.59"/>
</a>
</g>
</g>
<!-- Node11 -->
<g id="Node000011" class="node">
<title>Node11</title>
<g id="a_Node000011"><a xlink:href="Board_8hpp.html" target="_top" xlink:title=" ">
<polygon fill="white" stroke="#666666" points="942,-261 852,-261 852,-242 942,-242 942,-261"/>
<text text-anchor="middle" x="897" y="-249" font-family="Helvetica,sans-Serif" font-size="10.00">model/Board.hpp</text>
</a>
</g>
</g>
<!-- Node1&#45;&gt;Node11 -->
<g id="edge13_Node000001_Node000011" class="edge">
<title>Node1&#45;&gt;Node11</title>
<g id="a_edge13_Node000001_Node000011"><a xlink:title=" ">
<path fill="none" stroke="#63b8ff" d="M638.2,-298.38C699.2,-287.56 785.82,-272.21 841.72,-262.3"/>
<polygon fill="#63b8ff" stroke="#63b8ff" points="842.55,-265.71 851.78,-260.52 841.33,-258.81 842.55,-265.71"/>
</a>
</g>
</g>
<!-- Node5&#45;&gt;Node2 -->
<g id="edge5_Node000005_Node000002" class="edge">
<title>Node5&#45;&gt;Node2</title>
<g id="a_edge5_Node000005_Node000002"><a xlink:title=" ">
<path fill="none" stroke="#63b8ff" d="M463.04,-241.98C433.7,-233.05 387.4,-218.94 354.81,-209.02"/>
<polygon fill="#63b8ff" stroke="#63b8ff" points="355.76,-205.65 345.18,-206.08 353.72,-212.34 355.76,-205.65"/>
</a>
</g>
</g>
<!-- Node5&#45;&gt;Node3 -->
<g id="edge6_Node000005_Node000003" class="edge">
<title>Node5&#45;&gt;Node3</title>
<g id="a_edge6_Node000005_Node000003"><a xlink:title=" ">
<path fill="none" stroke="#63b8ff" d="M494.24,-241.71C505.07,-213.04 542.1,-120.3 591,-55 599.04,-44.26 609.81,-33.85 619.01,-25.81"/>
<polygon fill="#63b8ff" stroke="#63b8ff" points="621.52,-28.27 626.9,-19.14 617,-22.93 621.52,-28.27"/>
</a>
</g>
</g>
<!-- Node5&#45;&gt;Node4 -->
<g id="edge7_Node000005_Node000004" class="edge">
<title>Node5&#45;&gt;Node4</title>
<g id="a_edge7_Node000005_Node000004"><a xlink:title=" ">
<path fill="none" stroke="#63b8ff" d="M489.93,-241.65C486.87,-212.77 480.4,-119.48 515,-55 521.5,-42.89 532.73,-32.65 543.1,-25.05"/>
<polygon fill="#63b8ff" stroke="#63b8ff" points="545.21,-27.84 551.48,-19.3 541.26,-22.07 545.21,-27.84"/>
</a>
</g>
</g>
<!-- Node6 -->
<g id="Node000006" class="node">
<title>Node6</title>
<g id="a_Node000006"><a xlink:href="SFComponent_8hpp.html" target="_top" xlink:title=" ">
<polygon fill="white" stroke="#666666" points="463,-206 365,-206 365,-187 463,-187 463,-206"/>
<text text-anchor="middle" x="414" y="-194" font-family="Helvetica,sans-Serif" font-size="10.00">SFComponent.hpp</text>
</a>
</g>
</g>
<!-- Node5&#45;&gt;Node6 -->
<g id="edge8_Node000005_Node000006" class="edge">
<title>Node5&#45;&gt;Node6</title>
<g id="a_edge8_Node000005_Node000006"><a xlink:title=" ">
<path fill="none" stroke="#63b8ff" d="M478.63,-241.98C466.91,-233.92 449.08,-221.65 435.11,-212.03"/>
<polygon fill="#63b8ff" stroke="#63b8ff" points="436.82,-208.96 426.6,-206.17 432.85,-214.72 436.82,-208.96"/>
</a>
</g>
</g>
<!-- Node7 -->
<g id="Node000007" class="node">
<title>Node7</title>
<g id="a_Node000007"><a xlink:title=" ">
<polygon fill="#e0e0e0" stroke="#999999" points="463,-145.5 409,-145.5 409,-126.5 463,-126.5 463,-145.5"/>
<text text-anchor="middle" x="436" y="-133.5" font-family="Helvetica,sans-Serif" font-size="10.00">iostream</text>
</a>
</g>
</g>
<!-- Node6&#45;&gt;Node7 -->
<g id="edge9_Node000006_Node000007" class="edge">
<title>Node6&#45;&gt;Node7</title>
<g id="a_edge9_Node000006_Node000007"><a xlink:title=" ">
<path fill="none" stroke="#63b8ff" d="M417.25,-186.87C420.37,-178.57 425.18,-165.78 429.15,-155.22"/>
<polygon fill="#63b8ff" stroke="#63b8ff" points="432.5,-156.26 432.74,-145.67 425.94,-153.8 432.5,-156.26"/>
</a>
</g>
</g>
<!-- Node8 -->
<g id="Node000008" class="node">
<title>Node8</title>
<g id="a_Node000008"><a xlink:title=" ">
<polygon fill="#e0e0e0" stroke="#999999" points="104,-145.5 0,-145.5 0,-126.5 104,-126.5 104,-145.5"/>
<text text-anchor="middle" x="52" y="-133.5" font-family="Helvetica,sans-Serif" font-size="10.00">SFML/Graphics.hpp</text>
</a>
</g>
</g>
<!-- Node6&#45;&gt;Node8 -->
<g id="edge10_Node000006_Node000008" class="edge">
<title>Node6&#45;&gt;Node8</title>
<g id="a_edge10_Node000006_Node000008"><a xlink:title=" ">
<path fill="none" stroke="#63b8ff" d="M364.86,-188.29C281.13,-175.99 119.15,-152.16 113,-151 107.86,-150.03 102.5,-148.93 97.17,-147.79"/>
<polygon fill="#63b8ff" stroke="#63b8ff" points="97.58,-144.29 87.06,-145.54 96.07,-151.13 97.58,-144.29"/>
</a>
</g>
</g>
<!-- Node9 -->
<g id="Node000009" class="node">
<title>Node9</title>
<g id="a_Node000009"><a xlink:title=" ">
<polygon fill="#e0e0e0" stroke="#999999" points="249.5,-145.5 122.5,-145.5 122.5,-126.5 249.5,-126.5 249.5,-145.5"/>
<text text-anchor="middle" x="186" y="-133.5" font-family="Helvetica,sans-Serif" font-size="10.00">SFML/System/Clock.hpp</text>
</a>
</g>
</g>
<!-- Node6&#45;&gt;Node9 -->
<g id="edge11_Node000006_Node000009" class="edge">
<title>Node6&#45;&gt;Node9</title>
<g id="a_edge11_Node000006_Node000009"><a xlink:title=" ">
<path fill="none" stroke="#63b8ff" d="M380.85,-186.99C340.74,-176.7 273.14,-159.36 229.05,-148.04"/>
<polygon fill="#63b8ff" stroke="#63b8ff" points="229.75,-144.61 219.19,-145.52 228.01,-151.39 229.75,-144.61"/>
</a>
</g>
</g>
<!-- Node10 -->
<g id="Node000010" class="node">
<title>Node10</title>
<g id="a_Node000010"><a xlink:title=" ">
<polygon fill="#e0e0e0" stroke="#999999" points="390.5,-145.5 267.5,-145.5 267.5,-126.5 390.5,-126.5 390.5,-145.5"/>
<text text-anchor="middle" x="329" y="-133.5" font-family="Helvetica,sans-Serif" font-size="10.00">SFML/System/Time.hpp</text>
</a>
</g>
</g>
<!-- Node6&#45;&gt;Node10 -->
<g id="edge12_Node000006_Node000010" class="edge">
<title>Node6&#45;&gt;Node10</title>
<g id="a_edge12_Node000006_Node000010"><a xlink:title=" ">
<path fill="none" stroke="#63b8ff" d="M401.46,-186.87C387.9,-177.54 366.06,-162.51 349.9,-151.38"/>
<polygon fill="#63b8ff" stroke="#63b8ff" points="351.82,-148.45 341.59,-145.67 347.85,-154.22 351.82,-148.45"/>
</a>
</g>
</g>
<!-- Node11&#45;&gt;Node3 -->
<g id="edge15_Node000011_Node000003" class="edge">
<title>Node11&#45;&gt;Node3</title>
<g id="a_edge15_Node000011_Node000003"><a xlink:title=" ">
<path fill="none" stroke="#63b8ff" d="M851.88,-248.13C791.01,-243.95 687.27,-232.97 662,-206 616.03,-156.94 626.51,-67.94 633.85,-29.27"/>
<polygon fill="#63b8ff" stroke="#63b8ff" points="637.3,-29.88 635.88,-19.38 630.44,-28.47 637.3,-29.88"/>
</a>
</g>
</g>
<!-- Node12 -->
<g id="Node000012" class="node">
<title>Node12</title>
<g id="a_Node000012"><a xlink:title=" ">
<polygon fill="#e0e0e0" stroke="#999999" points="869,-206 825,-206 825,-187 869,-187 869,-206"/>
<text text-anchor="middle" x="847" y="-194" font-family="Helvetica,sans-Serif" font-size="10.00">vector</text>
</a>
</g>
</g>
<!-- Node11&#45;&gt;Node12 -->
<g id="edge14_Node000011_Node000012" class="edge">
<title>Node11&#45;&gt;Node12</title>
<g id="a_edge14_Node000011_Node000012"><a xlink:title=" ">
<path fill="none" stroke="#63b8ff" d="M888.74,-241.75C881.54,-234.11 870.89,-222.82 862.15,-213.56"/>
<polygon fill="#63b8ff" stroke="#63b8ff" points="864.51,-210.96 855.1,-206.09 859.42,-215.76 864.51,-210.96"/>
</a>
</g>
</g>
<!-- Node13 -->
<g id="Node000013" class="node">
<title>Node13</title>
<g id="a_Node000013"><a xlink:href="Property_8hpp.html" target="_top" xlink:title=" ">
<polygon fill="white" stroke="#666666" points="1021,-145.5 913,-145.5 913,-126.5 1021,-126.5 1021,-145.5"/>
<text text-anchor="middle" x="967" y="-133.5" font-family="Helvetica,sans-Serif" font-size="10.00">squares/Property.hpp</text>
</a>
</g>
</g>
<!-- Node11&#45;&gt;Node13 -->
<g id="edge16_Node000011_Node000013" class="edge">
<title>Node11&#45;&gt;Node13</title>
<g id="a_edge16_Node000011_Node000013"><a xlink:title=" ">
<path fill="none" stroke="#63b8ff" d="M902.26,-241.97C913.71,-223.4 941.09,-179.01 956.32,-154.32"/>
<polygon fill="#63b8ff" stroke="#63b8ff" points="959.41,-155.98 961.68,-145.63 953.45,-152.3 959.41,-155.98"/>
</a>
</g>
</g>
<!-- Node14 -->
<g id="Node000014" class="node">
<title>Node14</title>
<g id="a_Node000014"><a xlink:href="Square_8hpp.html" target="_top" xlink:title=" ">
<polygon fill="white" stroke="#666666" points="874,-79.5 808,-79.5 808,-60.5 874,-60.5 874,-79.5"/>
<text text-anchor="middle" x="841" y="-67.5" font-family="Helvetica,sans-Serif" font-size="10.00">Square.hpp</text>
</a>
</g>
</g>
<!-- Node11&#45;&gt;Node14 -->
<g id="edge24_Node000011_Node000014" class="edge">
<title>Node11&#45;&gt;Node14</title>
<g id="a_edge24_Node000011_Node000014"><a xlink:title=" ">
<path fill="none" stroke="#63b8ff" d="M894.47,-241.86C890.87,-229.62 884.05,-206.57 878,-187 867.33,-152.46 854.4,-112.3 847,-89.44"/>
<polygon fill="#63b8ff" stroke="#63b8ff" points="850.25,-88.15 843.84,-79.71 843.6,-90.31 850.25,-88.15"/>
</a>
</g>
</g>
<!-- Node18 -->
<g id="Node000018" class="node">
<title>Node18</title>
<g id="a_Node000018"><a xlink:href="Railroad_8hpp.html" target="_top" xlink:title=" ">
<polygon fill="white" stroke="#666666" points="1072.5,-206 963.5,-206 963.5,-187 1072.5,-187 1072.5,-206"/>
<text text-anchor="middle" x="1018" y="-194" font-family="Helvetica,sans-Serif" font-size="10.00">squares/Railroad.hpp</text>
</a>
</g>
</g>
<!-- Node11&#45;&gt;Node18 -->
<g id="edge25_Node000011_Node000018" class="edge">
<title>Node11&#45;&gt;Node18</title>
<g id="a_edge25_Node000011_Node000018"><a xlink:title=" ">
<path fill="none" stroke="#63b8ff" d="M916.44,-241.98C935.99,-233.42 966.38,-220.11 988.82,-210.28"/>
<polygon fill="#63b8ff" stroke="#63b8ff" points="990.45,-213.39 998.21,-206.17 987.64,-206.98 990.45,-213.39"/>
</a>
</g>
</g>
<!-- Node21 -->
<g id="Node000021" class="node">
<title>Node21</title>
<g id="a_Node000021"><a xlink:href="Utility_8hpp.html" target="_top" xlink:title=" ">
<polygon fill="white" stroke="#666666" points="1187.5,-206 1090.5,-206 1090.5,-187 1187.5,-187 1187.5,-206"/>
<text text-anchor="middle" x="1139" y="-194" font-family="Helvetica,sans-Serif" font-size="10.00">squares/Utility.hpp</text>
</a>
</g>
</g>
<!-- Node11&#45;&gt;Node21 -->
<g id="edge30_Node000011_Node000021" class="edge">
<title>Node11&#45;&gt;Node21</title>
<g id="a_edge30_Node000011_Node000021"><a xlink:title=" ">
<path fill="none" stroke="#63b8ff" d="M935.88,-241.98C977.74,-232.82 1044.43,-218.21 1089.88,-208.26"/>
<polygon fill="#63b8ff" stroke="#63b8ff" points="1090.79,-211.64 1099.81,-206.08 1089.3,-204.8 1090.79,-211.64"/>
</a>
</g>
</g>
<!-- Node23 -->
<g id="Node000023" class="node">
<title>Node23</title>
<g id="a_Node000023"><a xlink:href="Street_8hpp.html" target="_top" xlink:title=" ">
<polygon fill="white" stroke="#666666" points="1304.5,-206 1205.5,-206 1205.5,-187 1304.5,-187 1304.5,-206"/>
<text text-anchor="middle" x="1255" y="-194" font-family="Helvetica,sans-Serif" font-size="10.00">squares/Street.hpp</text>
</a>
</g>
</g>
<!-- Node11&#45;&gt;Node23 -->
<g id="edge35_Node000011_Node000023" class="edge">
<title>Node11&#45;&gt;Node23</title>
<g id="a_edge35_Node000011_Node000023"><a xlink:title=" ">
<path fill="none" stroke="#63b8ff" d="M942.34,-243.79C1006.54,-234.28 1124.04,-216.89 1195.28,-206.34"/>
<polygon fill="#63b8ff" stroke="#63b8ff" points="1196.06,-209.76 1205.44,-204.84 1195.03,-202.84 1196.06,-209.76"/>
</a>
</g>
</g>
<!-- Node25 -->
<g id="Node000025" class="node">
<title>Node25</title>
<g id="a_Node000025"><a xlink:href="SpecialSquare_8hpp.html" target="_top" xlink:title=" ">
<polygon fill="white" stroke="#666666" points="807,-206 671,-206 671,-187 807,-187 807,-206"/>
<text text-anchor="middle" x="739" y="-194" font-family="Helvetica,sans-Serif" font-size="10.00">squares/SpecialSquare.hpp</text>
</a>
</g>
</g>
<!-- Node11&#45;&gt;Node25 -->
<g id="edge40_Node000011_Node000025" class="edge">
<title>Node11&#45;&gt;Node25</title>
<g id="a_edge40_Node000011_Node000025"><a xlink:title=" ">
<path fill="none" stroke="#63b8ff" d="M871.61,-241.98C845.2,-233.13 803.65,-219.19 774.11,-209.28"/>
<polygon fill="#63b8ff" stroke="#63b8ff" points="775.18,-205.94 764.58,-206.08 772.95,-212.58 775.18,-205.94"/>
</a>
</g>
</g>
<!-- Node13&#45;&gt;Node14 -->
<g id="edge17_Node000013_Node000014" class="edge">
<title>Node13&#45;&gt;Node14</title>
<g id="a_edge17_Node000013_Node000014"><a xlink:title=" ">
<path fill="none" stroke="#63b8ff" d="M950.01,-126.37C928.78,-115.59 892.22,-97.02 867.35,-84.38"/>
<polygon fill="#63b8ff" stroke="#63b8ff" points="868.63,-81.11 858.13,-79.7 865.46,-87.35 868.63,-81.11"/>
</a>
</g>
</g>
<!-- Node15 -->
<g id="Node000015" class="node">
<title>Node15</title>
<g id="a_Node000015"><a xlink:title=" ">
<polygon fill="#e0e0e0" stroke="#999999" points="984.5,-19 925.5,-19 925.5,0 984.5,0 984.5,-19"/>
<text text-anchor="middle" x="955" y="-7" font-family="Helvetica,sans-Serif" font-size="10.00">stdexcept</text>
</a>
</g>
</g>
<!-- Node13&#45;&gt;Node15 -->
<g id="edge22_Node000013_Node000015" class="edge">
<title>Node13&#45;&gt;Node15</title>
<g id="a_edge22_Node000013_Node000015"><a xlink:title=" ">
<path fill="none" stroke="#63b8ff" d="M966.18,-126.44C964.26,-106.54 959.46,-56.76 956.82,-29.35"/>
<polygon fill="#63b8ff" stroke="#63b8ff" points="960.27,-28.74 955.83,-19.12 953.31,-29.41 960.27,-28.74"/>
</a>
</g>
</g>
<!-- Node17 -->
<g id="Node000017" class="node">
<title>Node17</title>
<g id="a_Node000017"><a xlink:href="StrategyRentCalculator_8hpp.html" target="_top" xlink:title=" ">
<polygon fill="white" stroke="#666666" points="1200,-85 1060,-85 1060,-55 1200,-55 1200,-85"/>
<text text-anchor="start" x="1068" y="-73" font-family="Helvetica,sans-Serif" font-size="10.00">../../utils/strategy</text>
<text text-anchor="middle" x="1130" y="-62" font-family="Helvetica,sans-Serif" font-size="10.00">/StrategyRentCalculator.hpp</text>
</a>
</g>
</g>
<!-- Node13&#45;&gt;Node17 -->
<g id="edge23_Node000013_Node000017" class="edge">
<title>Node13&#45;&gt;Node17</title>
<g id="a_edge23_Node000013_Node000017"><a xlink:title=" ">
<path fill="none" stroke="#63b8ff" d="M988.98,-126.37C1013.4,-116.78 1053.48,-101.05 1084.68,-88.8"/>
<polygon fill="#63b8ff" stroke="#63b8ff" points="1086.02,-92.03 1094.05,-85.12 1083.46,-85.51 1086.02,-92.03"/>
</a>
</g>
</g>
<!-- Node14&#45;&gt;Node3 -->
<g id="edge18_Node000014_Node000003" class="edge">
<title>Node14&#45;&gt;Node3</title>
<g id="a_edge18_Node000014_Node000003"><a xlink:title=" ">
<path fill="none" stroke="#63b8ff" d="M811.48,-60.49C774.96,-49.97 712.83,-32.07 673.68,-20.78"/>
<polygon fill="#63b8ff" stroke="#63b8ff" points="674.59,-17.4 664.01,-18 672.65,-24.13 674.59,-17.4"/>
</a>
</g>
</g>
<!-- Node14&#45;&gt;Node4 -->
<g id="edge20_Node000014_Node000004" class="edge">
<title>Node14&#45;&gt;Node4</title>
<g id="a_edge20_Node000014_Node000004"><a xlink:title=" ">
<path fill="none" stroke="#63b8ff" d="M807.83,-62.3C761.79,-52.94 675.94,-35.27 603,-19 601.28,-18.62 599.51,-18.22 597.72,-17.81"/>
<polygon fill="#63b8ff" stroke="#63b8ff" points="598.07,-14.3 587.54,-15.44 596.49,-21.11 598.07,-14.3"/>
</a>
</g>
</g>
<!-- Node14&#45;&gt;Node15 -->
<g id="edge19_Node000014_Node000015" class="edge">
<title>Node14&#45;&gt;Node15</title>
<g id="a_edge19_Node000014_Node000015"><a xlink:title=" ">
<path fill="none" stroke="#63b8ff" d="M857.82,-60.37C876.6,-50.73 907.2,-35.03 929.05,-23.81"/>
<polygon fill="#63b8ff" stroke="#63b8ff" points="930.81,-26.85 938.11,-19.17 927.61,-20.62 930.81,-26.85"/>
</a>
</g>
</g>
<!-- Node16 -->
<g id="Node000016" class="node">
<title>Node16</title>
<g id="a_Node000016"><a xlink:title=" ">
<polygon fill="#e0e0e0" stroke="#999999" points="861,-19 821,-19 821,0 861,0 861,-19"/>
<text text-anchor="middle" x="841" y="-7" font-family="Helvetica,sans-Serif" font-size="10.00">utility</text>
</a>
</g>
</g>
<!-- Node14&#45;&gt;Node16 -->
<g id="edge21_Node000014_Node000016" class="edge">
<title>Node14&#45;&gt;Node16</title>
<g id="a_edge21_Node000014_Node000016"><a xlink:title=" ">
<path fill="none" stroke="#63b8ff" d="M841,-60.37C841,-52.25 841,-39.81 841,-29.39"/>
<polygon fill="#63b8ff" stroke="#63b8ff" points="844.5,-29.17 841,-19.17 837.5,-29.17 844.5,-29.17"/>
</a>
</g>
</g>
<!-- Node18&#45;&gt;Node13 -->
<g id="edge26_Node000018_Node000013" class="edge">
<title>Node18&#45;&gt;Node13</title>
<g id="a_edge26_Node000018_Node000013"><a xlink:title=" ">
<path fill="none" stroke="#63b8ff" d="M1010.47,-186.87C1002.79,-178.05 990.68,-164.16 981.19,-153.27"/>
<polygon fill="#63b8ff" stroke="#63b8ff" points="983.77,-150.91 974.56,-145.67 978.49,-155.51 983.77,-150.91"/>
</a>
</g>
</g>
<!-- Node19 -->
<g id="Node000019" class="node">
<title>Node19</title>
<g id="a_Node000019"><a xlink:href="RailroadRentCalculator_8hpp.html" target="_top" xlink:title=" ">
<polygon fill="white" stroke="#666666" points="1178.5,-151 1039.5,-151 1039.5,-121 1178.5,-121 1178.5,-151"/>
<text text-anchor="start" x="1047.5" y="-139" font-family="Helvetica,sans-Serif" font-size="10.00">../../utils/strategy</text>
<text text-anchor="middle" x="1109" y="-128" font-family="Helvetica,sans-Serif" font-size="10.00">/RailroadRentCalculator.hpp</text>
</a>
</g>
</g>
<!-- Node18&#45;&gt;Node19 -->
<g id="edge27_Node000018_Node000019" class="edge">
<title>Node18&#45;&gt;Node19</title>
<g id="a_edge27_Node000018_Node000019"><a xlink:title=" ">
<path fill="none" stroke="#63b8ff" d="M1031.43,-186.87C1043.77,-178.93 1062.53,-166.87 1078.51,-156.6"/>
<polygon fill="#63b8ff" stroke="#63b8ff" points="1080.52,-159.47 1087.04,-151.11 1076.74,-153.58 1080.52,-159.47"/>
</a>
</g>
</g>
<!-- Node19&#45;&gt;Node17 -->
<g id="edge28_Node000019_Node000017" class="edge">
<title>Node19&#45;&gt;Node17</title>
<g id="a_edge28_Node000019_Node000017"><a xlink:title=" ">
<path fill="none" stroke="#63b8ff" d="M1113.66,-120.8C1116.16,-113.17 1119.31,-103.57 1122.18,-94.84"/>
<polygon fill="#63b8ff" stroke="#63b8ff" points="1125.56,-95.76 1125.35,-85.16 1118.91,-93.57 1125.56,-95.76"/>
</a>
</g>
</g>
<!-- Node20 -->
<g id="Node000020" class="node">
<title>Node20</title>
<g id="a_Node000020"><a xlink:title=" ">
<polygon fill="#e0e0e0" stroke="#999999" points="1283,-79.5 1239,-79.5 1239,-60.5 1283,-60.5 1283,-79.5"/>
<text text-anchor="middle" x="1261" y="-67.5" font-family="Helvetica,sans-Serif" font-size="10.00">cmath</text>
</a>
</g>
</g>
<!-- Node19&#45;&gt;Node20 -->
<g id="edge29_Node000019_Node000020" class="edge">
<title>Node19&#45;&gt;Node20</title>
<g id="a_edge29_Node000019_Node000020"><a xlink:title=" ">
<path fill="none" stroke="#63b8ff" d="M1142.36,-120.95C1168.9,-109.78 1205.69,-94.29 1231.24,-83.53"/>
<polygon fill="#63b8ff" stroke="#63b8ff" points="1232.91,-86.62 1240.77,-79.52 1230.2,-80.17 1232.91,-86.62"/>
</a>
</g>
</g>
<!-- Node21&#45;&gt;Node13 -->
<g id="edge31_Node000021_Node000013" class="edge">
<title>Node21&#45;&gt;Node13</title>
<g id="a_edge31_Node000021_Node000013"><a xlink:title=" ">
<path fill="none" stroke="#63b8ff" d="M1113.99,-186.99C1084.44,-176.94 1035.09,-160.16 1001.81,-148.84"/>
<polygon fill="#63b8ff" stroke="#63b8ff" points="1002.63,-145.42 992.04,-145.52 1000.38,-152.05 1002.63,-145.42"/>
</a>
</g>
</g>
<!-- Node22 -->
<g id="Node000022" class="node">
<title>Node22</title>
<g id="a_Node000022"><a xlink:href="UtilityRentCalculator_8hpp.html" target="_top" xlink:title=" ">
<polygon fill="white" stroke="#666666" points="1325,-151 1197,-151 1197,-121 1325,-121 1325,-151"/>
<text text-anchor="start" x="1205" y="-139" font-family="Helvetica,sans-Serif" font-size="10.00">../../utils/strategy</text>
<text text-anchor="middle" x="1261" y="-128" font-family="Helvetica,sans-Serif" font-size="10.00">/UtilityRentCalculator.hpp</text>
</a>
</g>
</g>
<!-- Node21&#45;&gt;Node22 -->
<g id="edge32_Node000021_Node000022" class="edge">
<title>Node21&#45;&gt;Node22</title>
<g id="a_edge32_Node000021_Node000022"><a xlink:title=" ">
<path fill="none" stroke="#63b8ff" d="M1156.74,-186.99C1173.86,-178.79 1200.34,-166.09 1222.32,-155.55"/>
<polygon fill="#63b8ff" stroke="#63b8ff" points="1223.93,-158.66 1231.43,-151.18 1220.9,-152.35 1223.93,-158.66"/>
</a>
</g>
</g>
<!-- Node22&#45;&gt;Node17 -->
<g id="edge33_Node000022_Node000017" class="edge">
<title>Node22&#45;&gt;Node17</title>
<g id="a_edge33_Node000022_Node000017"><a xlink:title=" ">
<path fill="none" stroke="#63b8ff" d="M1232.25,-120.95C1213.31,-111.7 1188.31,-99.49 1167.77,-89.45"/>
<polygon fill="#63b8ff" stroke="#63b8ff" points="1169.2,-86.26 1158.68,-85.01 1166.13,-92.55 1169.2,-86.26"/>
</a>
</g>
</g>
<!-- Node22&#45;&gt;Node20 -->
<g id="edge34_Node000022_Node000020" class="edge">
<title>Node22&#45;&gt;Node20</title>
<g id="a_edge34_Node000022_Node000020"><a xlink:title=" ">
<path fill="none" stroke="#63b8ff" d="M1261,-120.8C1261,-111.7 1261,-99.79 1261,-89.9"/>
<polygon fill="#63b8ff" stroke="#63b8ff" points="1264.5,-89.84 1261,-79.84 1257.5,-89.84 1264.5,-89.84"/>
</a>
</g>
</g>
<!-- Node23&#45;&gt;Node13 -->
<g id="edge36_Node000023_Node000013" class="edge">
<title>Node23&#45;&gt;Node13</title>
<g id="a_edge36_Node000023_Node000013"><a xlink:title=" ">
<path fill="none" stroke="#63b8ff" d="M1210.75,-186.97C1165.53,-178.19 1093.29,-164 1031,-151 1025.98,-149.95 1020.74,-148.84 1015.52,-147.72"/>
<polygon fill="#63b8ff" stroke="#63b8ff" points="1016.07,-144.25 1005.56,-145.56 1014.59,-151.1 1016.07,-144.25"/>
</a>
</g>
</g>
<!-- Node24 -->
<g id="Node000024" class="node">
<title>Node24</title>
<g id="a_Node000024"><a xlink:href="StreetRentCalculator_8hpp.html" target="_top" xlink:title=" ">
<polygon fill="white" stroke="#666666" points="1472.5,-151 1343.5,-151 1343.5,-121 1472.5,-121 1472.5,-151"/>
<text text-anchor="start" x="1351.5" y="-139" font-family="Helvetica,sans-Serif" font-size="10.00">../../utils/strategy</text>
<text text-anchor="middle" x="1408" y="-128" font-family="Helvetica,sans-Serif" font-size="10.00">/StreetRentCalculator.hpp</text>
</a>
</g>
</g>
<!-- Node23&#45;&gt;Node24 -->
<g id="edge37_Node000023_Node000024" class="edge">
<title>Node23&#45;&gt;Node24</title>
<g id="a_edge37_Node000023_Node000024"><a xlink:title=" ">
<path fill="none" stroke="#63b8ff" d="M1277.25,-186.99C1299.27,-178.57 1333.64,-165.43 1361.62,-154.73"/>
<polygon fill="#63b8ff" stroke="#63b8ff" points="1363.13,-157.9 1371.22,-151.06 1360.63,-151.37 1363.13,-157.9"/>
</a>
</g>
</g>
<!-- Node24&#45;&gt;Node17 -->
<g id="edge38_Node000024_Node000017" class="edge">
<title>Node24&#45;&gt;Node17</title>
<g id="a_edge38_Node000024_Node000017"><a xlink:title=" ">
<path fill="none" stroke="#63b8ff" d="M1346.99,-120.95C1303.9,-111.03 1246.02,-97.71 1200.88,-87.32"/>
<polygon fill="#63b8ff" stroke="#63b8ff" points="1201.4,-83.85 1190.87,-85.01 1199.83,-90.67 1201.4,-83.85"/>
</a>
</g>
</g>
<!-- Node24&#45;&gt;Node20 -->
<g id="edge39_Node000024_Node000020" class="edge">
<title>Node24&#45;&gt;Node20</title>
<g id="a_edge39_Node000024_Node000020"><a xlink:title=" ">
<path fill="none" stroke="#63b8ff" d="M1375.74,-120.95C1350.07,-109.78 1314.49,-94.29 1289.78,-83.53"/>
<polygon fill="#63b8ff" stroke="#63b8ff" points="1291.13,-80.3 1280.56,-79.52 1288.33,-86.72 1291.13,-80.3"/>
</a>
</g>
</g>
<!-- Node25&#45;&gt;Node14 -->
<g id="edge41_Node000025_Node000014" class="edge">
<title>Node25&#45;&gt;Node14</title>
<g id="a_edge41_Node000025_Node000014"><a xlink:title=" ">
<path fill="none" stroke="#63b8ff" d="M746.01,-186.94C762.75,-166.51 805.3,-114.57 827.32,-87.69"/>
<polygon fill="#63b8ff" stroke="#63b8ff" points="830.31,-89.57 833.94,-79.62 824.9,-85.13 830.31,-89.57"/>
</a>
</g>
</g>
</g>
</svg>

<g id="navigator" transform="translate(0 0)" fill="#404254">
  <rect fill="#f2f5e9" fill-opacity="0.5" stroke="#606060" stroke-width=".5" x="0" y="0" width="60" height="60"/>
  <use id="zoomplus" xlink:href="#zoomPlus" x="17" y="9" onmousedown="handleZoom(evt,'in')"/>
  <use id="zoomminus" xlink:href="#zoomMin" x="42" y="9" onmousedown="handleZoom(evt,'out')"/>
  <use id="reset" xlink:href="#resetDef" x="30" y="36" onmousedown="handleReset()"/>
   <use id="arrowup" xlink:href="#arrowUp" x="0" y="0" onmousedown="handlePan(0,-1)"/>
  <use id="arrowright" xlink:href="#arrowRight" x="0" y="0" onmousedown="handlePan(1,0)"/>
  <use id="arrowdown" xlink:href="#arrowDown" x="0" y="0" onmousedown="handlePan(0,1)"/>
  <use id="arrowleft" xlink:href="#arrowLeft" x="0" y="0" onmousedown="handlePan(-1,0)"/>
</g>
<svg viewBox="0 0 15 15" width="100%" height="30px" preserveAspectRatio="xMaxYMin meet">
 <g id="arrow_out" transform="scale(0.3 0.3)">
  <a xlink:href="BoardSquareComposite_8hpp__incl_org.svg" target="_base">
   <rect id="button" ry="5" rx="5" y="6" x="6" height="38" width="38"
        fill="#f2f5e9" fill-opacity="0.5" stroke="#606060" stroke-width="1.0"/>
   <path id="arrow"
     d="M 11.500037,31.436501 C 11.940474,20.09759 22.043105,11.32322 32.158766,21.979434 L 37.068811,17.246167 C 37.068811,17.246167 37.088388,32 37.088388,32 L 22.160133,31.978069 C 22.160133,31.978069 26.997745,27.140456 26.997745,27.140456 C 18.528582,18.264221 13.291696,25.230495 11.500037,31.436501 z"
     style="fill:#404040;"/>
  </a>
 </g>
</svg>

<style type='text/css'>
<![CDATA[
[data-mouse-over-selected='false'] { opacity: 0.7; }
[data-mouse-over-selected='true']  { opacity: 1.0; }
]]>
</style>
<script type="application/ecmascript"><![CDATA[
document.addEventListener('DOMContentLoaded', (event) => {
  highlightEdges();
  highlightAdjacentNodes();
});
]]></script>
</svg>
