<?xml version="1.0" encoding="UTF-8" standalone="no"?>
<!DOCTYPE svg PUBLIC "-//W3C//DTD SVG 1.1//EN"
 "http://www.w3.org/Graphics/SVG/1.1/DTD/svg11.dtd">
<!-- Generated by graphviz version 2.43.0 (0)
 -->
<!-- Title: monopoly::GameController::GameController Pages: 1 -->
<svg width="455pt" height="86pt"
 viewBox="0.00 0.00 455.00 86.00" xmlns="http://www.w3.org/2000/svg" xmlns:xlink="http://www.w3.org/1999/xlink">
<g id="graph0" class="graph" transform="scale(1 1) rotate(0) translate(4 82)">
<title>monopoly::GameController::GameController</title>
<!-- Node1 -->
<g id="Node000001" class="node">
<title>Node1</title>
<g id="a_Node000001"><a xlink:title="Constructor for GameController.">
<polygon fill="#999999" stroke="#666666" points="133,-54 0,-54 0,-24 133,-24 133,-54"/>
<text text-anchor="start" x="8" y="-42" font-family="Helvetica,sans-Serif" font-size="10.00">monopoly::GameController</text>
<text text-anchor="middle" x="66.5" y="-31" font-family="Helvetica,sans-Serif" font-size="10.00">::GameController</text>
</a>
</g>
</g>
<!-- Node2 -->
<g id="Node000002" class="node">
<title>Node2</title>
<g id="a_Node000002"><a xlink:href="classmonopoly_1_1GameController.html#af9a704d24cc6257db2ecd626b869a7f4" target="_top" xlink:title="Change the current game state.">
<polygon fill="white" stroke="#666666" points="302,-78 169,-78 169,-48 302,-48 302,-78"/>
<text text-anchor="start" x="177" y="-66" font-family="Helvetica,sans-Serif" font-size="10.00">monopoly::GameController</text>
<text text-anchor="middle" x="235.5" y="-55" font-family="Helvetica,sans-Serif" font-size="10.00">::changeState</text>
</a>
</g>
</g>
<!-- Node1&#45;&gt;Node2 -->
<g id="edge1_Node000001_Node000002" class="edge">
<title>Node1&#45;&gt;Node2</title>
<g id="a_edge1_Node000001_Node000002"><a xlink:title=" ">
<path fill="none" stroke="#63b8ff" d="M133.02,-48.42C141.5,-49.63 150.23,-50.89 158.85,-52.13"/>
<polygon fill="#63b8ff" stroke="#63b8ff" points="158.5,-55.61 168.89,-53.57 159.49,-48.68 158.5,-55.61"/>
</a>
</g>
</g>
<!-- Node3 -->
<g id="Node000003" class="node">
<title>Node3</title>
<g id="a_Node000003"><a xlink:href="classmonopoly_1_1StartState.html#af54b3a9411ce1d1e9c3c7b3b1ce4a7a5" target="_top" xlink:title=" ">
<polygon fill="white" stroke="#666666" points="290,-30 181,-30 181,0 290,0 290,-30"/>
<text text-anchor="start" x="189" y="-18" font-family="Helvetica,sans-Serif" font-size="10.00">monopoly::StartState</text>
<text text-anchor="middle" x="235.5" y="-7" font-family="Helvetica,sans-Serif" font-size="10.00">::getInstance</text>
</a>
</g>
</g>
<!-- Node1&#45;&gt;Node3 -->
<g id="edge2_Node000001_Node000003" class="edge">
<title>Node1&#45;&gt;Node3</title>
<g id="a_edge2_Node000001_Node000003"><a xlink:title=" ">
<path fill="none" stroke="#63b8ff" d="M133.02,-29.58C145.37,-27.81 158.28,-25.95 170.58,-24.19"/>
<polygon fill="#63b8ff" stroke="#63b8ff" points="171.34,-27.61 180.74,-22.73 170.35,-20.68 171.34,-27.61"/>
</a>
</g>
</g>
<!-- Node4 -->
<g id="Node000004" class="node">
<title>Node4</title>
<g id="a_Node000004"><a xlink:href="classmonopoly_1_1StartState.html#a470be521bba7301fbe0ded48560dafb2" target="_top" xlink:title=" ">
<polygon fill="white" stroke="#666666" points="447,-30 338,-30 338,0 447,0 447,-30"/>
<text text-anchor="start" x="346" y="-18" font-family="Helvetica,sans-Serif" font-size="10.00">monopoly::StartState</text>
<text text-anchor="middle" x="392.5" y="-7" font-family="Helvetica,sans-Serif" font-size="10.00">::StartState</text>
</a>
</g>
</g>
<!-- Node3&#45;&gt;Node4 -->
<g id="edge3_Node000003_Node000004" class="edge">
<title>Node3&#45;&gt;Node4</title>
<g id="a_edge3_Node000003_Node000004"><a xlink:title=" ">
<path fill="none" stroke="#63b8ff" d="M290.28,-15C302.3,-15 315.16,-15 327.55,-15"/>
<polygon fill="#63b8ff" stroke="#63b8ff" points="327.82,-18.5 337.82,-15 327.82,-11.5 327.82,-18.5"/>
</a>
</g>
</g>
</g>
</svg>
