<?xml version="1.0" encoding="UTF-8" standalone="no"?>
<!DOCTYPE svg PUBLIC "-//W3C//DTD SVG 1.1//EN"
 "http://www.w3.org/Graphics/SVG/1.1/DTD/svg11.dtd">
<!-- Generated by graphviz version 2.43.0 (0)
 -->
<!-- Title: monopoly::GameModel::rollDice Pages: 1 -->
<!--zoomable 268 -->

<svg id="main" version="1.1" xmlns="http://www.w3.org/2000/svg" xmlns:xlink="http://www.w3.org/1999/xlink" xml:space="preserve" onload="init(evt)">
<style type="text/css"><![CDATA[
.node, .edge {opacity: 0.7;}
.node.selected, .edge.selected {opacity: 1;}
.edge:hover path { stroke: red; }
.edge:hover polygon { stroke: red; fill: red; }
]]></style>

<defs>
  <circle id="rim" cx="0" cy="0" r="7"/>
  <circle id="rim2" cx="0" cy="0" r="3.5"/>
  <g id="zoomPlus">
    <use xlink:href="#rim" fill="#404040"><set attributeName="fill" to="#808080" begin="zoomplus.mouseover" end="zoomplus.mouseout"/></use>
    <path d="M-4,0h8M0,-4v8" fill="none" stroke="white" stroke-width="1.5" pointer-events="none"/>
  </g>
  <g id="zoomMin">
    <use xlink:href="#rim" fill="#404040"><set attributeName="fill" to="#808080" begin="zoomminus.mouseover" end="zoomminus.mouseout"/></use>
    <path d="M-4,0h8" fill="none" stroke="white" stroke-width="1.5" pointer-events="none"/>
  </g>
  <g id="arrowUp" transform="translate(30 24)">
    <use xlink:href="#rim"/>
    <path pointer-events="none" fill="none" stroke="white" stroke-width="1.5" d="M0,-3.0v7 M-2.5,-0.5L0,-3.0L2.5,-0.5"/>
  </g>
  <g id="arrowRight" transform="rotate(90) translate(36 -43)">
    <use xlink:href="#rim"/>
    <path pointer-events="none" fill="none" stroke="white" stroke-width="1.5" d="M0,-3.0v7 M-2.5,-0.5L0,-3.0L2.5,-0.5"/>
  </g>
  <g id="arrowDown" transform="rotate(180) translate(-30 -48)">
    <use xlink:href="#rim"/>
    <path pointer-events="none" fill="none" stroke="white" stroke-width="1.5" d="M0,-3.0v7 M-2.5,-0.5L0,-3.0L2.5,-0.5"/>
  </g>
  <g id="arrowLeft" transform="rotate(270) translate(-36 17)">
    <use xlink:href="#rim"/>
    <path pointer-events="none" fill="none" stroke="white" stroke-width="1.5" d="M0,-3.0v7 M-2.5,-0.5L0,-3.0L2.5,-0.5"/>
  </g>
  <g id="resetDef">
    <use xlink:href="#rim2" fill="#404040"><set attributeName="fill" to="#808080" begin="reset.mouseover" end="reset.mouseout"/></use>
  </g>
</defs>
<script type="application/ecmascript">
var viewWidth = 803;
var viewHeight = 268;
var sectionId = 'dynsection-43';
</script>
<script type="application/ecmascript" xlink:href="svg.min.js"/>
<svg id="graph" class="graph">
<g id="viewport">
<title>monopoly::GameModel::rollDice</title>
<!-- Node1 -->
<g id="Node000001" class="node">
<title>Node1</title>
<g id="a_Node000001"><a xlink:title="Roll two dice and return their values.">
<polygon fill="#999999" stroke="#666666" points="117,-140 0,-140 0,-110 117,-110 117,-140"/>
<text text-anchor="start" x="8" y="-128" font-family="Helvetica,sans-Serif" font-size="10.00">monopoly::GameModel</text>
<text text-anchor="middle" x="58.5" y="-117" font-family="Helvetica,sans-Serif" font-size="10.00">::rollDice</text>
</a>
</g>
</g>
<!-- Node2 -->
<g id="Node000002" class="node">
<title>Node2</title>
<g id="a_Node000002"><a xlink:href="classmonopoly_1_1GameModel.html#a235817e4a0e8aae94e261ecc3f561b67" target="_top" xlink:title="Process doubles roll consequences.">
<polygon fill="white" stroke="#666666" points="270,-140 153,-140 153,-110 270,-110 270,-140"/>
<text text-anchor="start" x="161" y="-128" font-family="Helvetica,sans-Serif" font-size="10.00">monopoly::GameModel</text>
<text text-anchor="middle" x="211.5" y="-117" font-family="Helvetica,sans-Serif" font-size="10.00">::handleDouble</text>
</a>
</g>
</g>
<!-- Node1&#45;&gt;Node2 -->
<g id="edge1_Node000001_Node000002" class="edge">
<title>Node1&#45;&gt;Node2</title>
<g id="a_edge1_Node000001_Node000002"><a xlink:title=" ">
<path fill="none" stroke="#63b8ff" d="M117.02,-125C125.46,-125 134.23,-125 142.86,-125"/>
<polygon fill="#63b8ff" stroke="#63b8ff" points="142.89,-128.5 152.89,-125 142.89,-121.5 142.89,-128.5"/>
</a>
</g>
</g>
<!-- Node3 -->
<g id="Node000003" class="node">
<title>Node3</title>
<g id="a_Node000003"><a xlink:href="classmonopoly_1_1GameModel.html#a61c4fbccfe0fd1f1870bfd4df55571f1" target="_top" xlink:title=" ">
<polygon fill="white" stroke="#666666" points="432,-260 315,-260 315,-230 432,-230 432,-260"/>
<text text-anchor="start" x="323" y="-248" font-family="Helvetica,sans-Serif" font-size="10.00">monopoly::GameModel</text>
<text text-anchor="middle" x="373.5" y="-237" font-family="Helvetica,sans-Serif" font-size="10.00">::getCurrentPlayer</text>
</a>
</g>
</g>
<!-- Node2&#45;&gt;Node3 -->
<g id="edge2_Node000002_Node000003" class="edge">
<title>Node2&#45;&gt;Node3</title>
<g id="a_edge2_Node000002_Node000003"><a xlink:title=" ">
<path fill="none" stroke="#63b8ff" d="M223.56,-140.06C239.58,-160.92 271.19,-198.57 306,-221 308.42,-222.56 310.95,-224.03 313.56,-225.42"/>
<polygon fill="#63b8ff" stroke="#63b8ff" points="312.12,-228.62 322.64,-229.85 315.18,-222.32 312.12,-228.62"/>
</a>
</g>
</g>
<!-- Node4 -->
<g id="Node000004" class="node">
<title>Node4</title>
<g id="a_Node000004"><a xlink:href="classmonopoly_1_1GameModel.html#aebe46d5f977b0b926548e81a0977476e" target="_top" xlink:title="Send player to jail.">
<polygon fill="white" stroke="#666666" points="432,-212 315,-212 315,-182 432,-182 432,-212"/>
<text text-anchor="start" x="323" y="-200" font-family="Helvetica,sans-Serif" font-size="10.00">monopoly::GameModel</text>
<text text-anchor="middle" x="373.5" y="-189" font-family="Helvetica,sans-Serif" font-size="10.00">::goToJail</text>
</a>
</g>
</g>
<!-- Node2&#45;&gt;Node4 -->
<g id="edge3_Node000002_Node000004" class="edge">
<title>Node2&#45;&gt;Node4</title>
<g id="a_edge3_Node000002_Node000004"><a xlink:title=" ">
<path fill="none" stroke="#63b8ff" d="M239.47,-140.01C257.91,-149.98 283.08,-163.03 306,-173 310.1,-174.78 314.38,-176.54 318.7,-178.25"/>
<polygon fill="#63b8ff" stroke="#63b8ff" points="317.6,-181.58 328.19,-181.9 320.11,-175.05 317.6,-181.58"/>
</a>
</g>
</g>
<!-- Node8 -->
<g id="Node000008" class="node">
<title>Node8</title>
<g id="a_Node000008"><a xlink:href="classmonopoly_1_1Player.html#acc8d1f7bc1137f75c14fdad5990657bc" target="_top" xlink:title=" ">
<polygon fill="white" stroke="#666666" points="440,-164 307,-164 307,-134 440,-134 440,-164"/>
<text text-anchor="start" x="315" y="-152" font-family="Helvetica,sans-Serif" font-size="10.00">monopoly::Player::hasMax</text>
<text text-anchor="middle" x="373.5" y="-141" font-family="Helvetica,sans-Serif" font-size="10.00">ConsecutiveDoubles</text>
</a>
</g>
</g>
<!-- Node2&#45;&gt;Node8 -->
<g id="edge7_Node000002_Node000008" class="edge">
<title>Node2&#45;&gt;Node8</title>
<g id="a_edge7_Node000002_Node000008"><a xlink:title=" ">
<path fill="none" stroke="#63b8ff" d="M270.26,-133.66C278.91,-134.96 287.94,-136.32 296.89,-137.66"/>
<polygon fill="#63b8ff" stroke="#63b8ff" points="296.54,-141.14 306.95,-139.17 297.58,-134.22 296.54,-141.14"/>
</a>
</g>
</g>
<!-- Node9 -->
<g id="Node000009" class="node">
<title>Node9</title>
<g id="a_Node000009"><a xlink:href="classmonopoly_1_1Player.html#aa3ba1169f3a92d4587f935cfda5165e0" target="_top" xlink:title="Increments number of consecutive doubles rolled.">
<polygon fill="white" stroke="#666666" points="441,-116 306,-116 306,-86 441,-86 441,-116"/>
<text text-anchor="start" x="314" y="-104" font-family="Helvetica,sans-Serif" font-size="10.00">monopoly::Player::increase</text>
<text text-anchor="middle" x="373.5" y="-93" font-family="Helvetica,sans-Serif" font-size="10.00">Doubles</text>
</a>
</g>
</g>
<!-- Node2&#45;&gt;Node9 -->
<g id="edge8_Node000002_Node000009" class="edge">
<title>Node2&#45;&gt;Node9</title>
<g id="a_edge8_Node000002_Node000009"><a xlink:title=" ">
<path fill="none" stroke="#63b8ff" d="M270.26,-116.34C278.56,-115.09 287.21,-113.79 295.8,-112.5"/>
<polygon fill="#63b8ff" stroke="#63b8ff" points="296.48,-115.94 305.85,-111 295.44,-109.02 296.48,-115.94"/>
</a>
</g>
</g>
<!-- Node10 -->
<g id="Node000010" class="node">
<title>Node10</title>
<g id="a_Node000010"><a xlink:href="classmonopoly_1_1Player.html#a53a8859bb9ad558e3d1d27635c513884" target="_top" xlink:title=" ">
<polygon fill="white" stroke="#666666" points="438,-67.5 309,-67.5 309,-48.5 438,-48.5 438,-67.5"/>
<text text-anchor="middle" x="373.5" y="-55.5" font-family="Helvetica,sans-Serif" font-size="10.00">monopoly::Player::isInJail</text>
</a>
</g>
</g>
<!-- Node2&#45;&gt;Node10 -->
<g id="edge9_Node000002_Node000010" class="edge">
<title>Node2&#45;&gt;Node10</title>
<g id="a_edge9_Node000002_Node000010"><a xlink:title=" ">
<path fill="none" stroke="#63b8ff" d="M238.46,-109.93C256.87,-99.67 282.41,-86.32 306,-77 311.86,-74.68 318.12,-72.52 324.36,-70.54"/>
<polygon fill="#63b8ff" stroke="#63b8ff" points="325.54,-73.84 334.09,-67.59 323.51,-67.14 325.54,-73.84"/>
</a>
</g>
</g>
<!-- Node11 -->
<g id="Node000011" class="node">
<title>Node11</title>
<g id="a_Node000011"><a xlink:href="classmonopoly_1_1GameModel.html#a6f2af19f816ef3c47b501967bf52cbfe" target="_top" xlink:title="Release player from jail.">
<polygon fill="white" stroke="#666666" points="432,-30 315,-30 315,0 432,0 432,-30"/>
<text text-anchor="start" x="323" y="-18" font-family="Helvetica,sans-Serif" font-size="10.00">monopoly::GameModel</text>
<text text-anchor="middle" x="373.5" y="-7" font-family="Helvetica,sans-Serif" font-size="10.00">::outOfJail</text>
</a>
</g>
</g>
<!-- Node2&#45;&gt;Node11 -->
<g id="edge10_Node000002_Node000011" class="edge">
<title>Node2&#45;&gt;Node11</title>
<g id="a_edge10_Node000002_Node000011"><a xlink:title=" ">
<path fill="none" stroke="#63b8ff" d="M225.32,-109.98C242.14,-91.1 273.37,-58.78 306,-39 308.64,-37.4 311.41,-35.88 314.25,-34.44"/>
<polygon fill="#63b8ff" stroke="#63b8ff" points="315.93,-37.52 323.51,-30.13 312.97,-31.18 315.93,-37.52"/>
</a>
</g>
</g>
<!-- Node5 -->
<g id="Node000005" class="node">
<title>Node5</title>
<g id="a_Node000005"><a xlink:href="classmonopoly_1_1Player.html#a17f8a21fc65696c4832bb8d50508424b" target="_top" xlink:title=" ">
<polygon fill="white" stroke="#666666" points="624,-206.5 477,-206.5 477,-187.5 624,-187.5 624,-206.5"/>
<text text-anchor="middle" x="550.5" y="-194.5" font-family="Helvetica,sans-Serif" font-size="10.00">monopoly::Player::setPosition</text>
</a>
</g>
</g>
<!-- Node4&#45;&gt;Node5 -->
<g id="edge4_Node000004_Node000005" class="edge">
<title>Node4&#45;&gt;Node5</title>
<g id="a_edge4_Node000004_Node000005"><a xlink:title=" ">
<path fill="none" stroke="#63b8ff" d="M432.29,-197C443.3,-197 455.02,-197 466.64,-197"/>
<polygon fill="#63b8ff" stroke="#63b8ff" points="466.79,-200.5 476.79,-197 466.79,-193.5 466.79,-200.5"/>
</a>
</g>
</g>
<!-- Node6 -->
<g id="Node000006" class="node">
<title>Node6</title>
<g id="a_Node000006"><a xlink:href="classmonopoly_1_1Player.html#a7000d4fac178a4d138f51d23626a8184" target="_top" xlink:title="Toggles player&#39;s jail status and resets jail turns if freed.">
<polygon fill="white" stroke="#666666" points="613,-100 488,-100 488,-70 613,-70 613,-100"/>
<text text-anchor="start" x="496" y="-88" font-family="Helvetica,sans-Serif" font-size="10.00">monopoly::Player::toggle</text>
<text text-anchor="middle" x="550.5" y="-77" font-family="Helvetica,sans-Serif" font-size="10.00">JailState</text>
</a>
</g>
</g>
<!-- Node4&#45;&gt;Node6 -->
<g id="edge5_Node000004_Node000006" class="edge">
<title>Node4&#45;&gt;Node6</title>
<g id="a_edge5_Node000004_Node000006"><a xlink:title=" ">
<path fill="none" stroke="#63b8ff" d="M422.24,-181.98C428.7,-179.32 435.12,-176.32 441,-173 473.4,-154.71 505.93,-126.74 526.8,-107.26"/>
<polygon fill="#63b8ff" stroke="#63b8ff" points="529.35,-109.67 534.2,-100.25 524.54,-104.58 529.35,-109.67"/>
</a>
</g>
</g>
<!-- Node7 -->
<g id="Node000007" class="node">
<title>Node7</title>
<g id="a_Node000007"><a xlink:href="classmonopoly_1_1Player.html#a953651fa4828e09ef52d39277c6de5f2" target="_top" xlink:title="Resets jail turn counter to 0.">
<polygon fill="white" stroke="#666666" points="795,-100 660,-100 660,-70 795,-70 795,-100"/>
<text text-anchor="start" x="668" y="-88" font-family="Helvetica,sans-Serif" font-size="10.00">monopoly::Player::resetJail</text>
<text text-anchor="middle" x="727.5" y="-77" font-family="Helvetica,sans-Serif" font-size="10.00">Turns</text>
</a>
</g>
</g>
<!-- Node6&#45;&gt;Node7 -->
<g id="edge6_Node000006_Node000007" class="edge">
<title>Node6&#45;&gt;Node7</title>
<g id="a_edge6_Node000006_Node000007"><a xlink:title=" ">
<path fill="none" stroke="#63b8ff" d="M613.2,-85C624.96,-85 637.41,-85 649.58,-85"/>
<polygon fill="#63b8ff" stroke="#63b8ff" points="649.71,-88.5 659.71,-85 649.71,-81.5 649.71,-88.5"/>
</a>
</g>
</g>
<!-- Node11&#45;&gt;Node6 -->
<g id="edge11_Node000011_Node000006" class="edge">
<title>Node11&#45;&gt;Node6</title>
<g id="a_edge11_Node000011_Node000006"><a xlink:title=" ">
<path fill="none" stroke="#63b8ff" d="M417.2,-30.02C425.14,-32.92 433.34,-36 441,-39 462.44,-47.41 486.01,-57.32 505.68,-65.78"/>
<polygon fill="#63b8ff" stroke="#63b8ff" points="504.44,-69.05 515,-69.81 507.21,-62.63 504.44,-69.05"/>
</a>
</g>
</g>
</g>
</svg>

<g id="navigator" transform="translate(0 0)" fill="#404254">
  <rect fill="#f2f5e9" fill-opacity="0.5" stroke="#606060" stroke-width=".5" x="0" y="0" width="60" height="60"/>
  <use id="zoomplus" xlink:href="#zoomPlus" x="17" y="9" onmousedown="handleZoom(evt,'in')"/>
  <use id="zoomminus" xlink:href="#zoomMin" x="42" y="9" onmousedown="handleZoom(evt,'out')"/>
  <use id="reset" xlink:href="#resetDef" x="30" y="36" onmousedown="handleReset()"/>
   <use id="arrowup" xlink:href="#arrowUp" x="0" y="0" onmousedown="handlePan(0,-1)"/>
  <use id="arrowright" xlink:href="#arrowRight" x="0" y="0" onmousedown="handlePan(1,0)"/>
  <use id="arrowdown" xlink:href="#arrowDown" x="0" y="0" onmousedown="handlePan(0,1)"/>
  <use id="arrowleft" xlink:href="#arrowLeft" x="0" y="0" onmousedown="handlePan(-1,0)"/>
</g>
<svg viewBox="0 0 15 15" width="100%" height="30px" preserveAspectRatio="xMaxYMin meet">
 <g id="arrow_out" transform="scale(0.3 0.3)">
  <a xlink:href="classmonopoly_1_1GameModel_ad53cf6f13f83ba2408a6bbcffda3a99e_cgraph_org.svg" target="_base">
   <rect id="button" ry="5" rx="5" y="6" x="6" height="38" width="38"
        fill="#f2f5e9" fill-opacity="0.5" stroke="#606060" stroke-width="1.0"/>
   <path id="arrow"
     d="M 11.500037,31.436501 C 11.940474,20.09759 22.043105,11.32322 32.158766,21.979434 L 37.068811,17.246167 C 37.068811,17.246167 37.088388,32 37.088388,32 L 22.160133,31.978069 C 22.160133,31.978069 26.997745,27.140456 26.997745,27.140456 C 18.528582,18.264221 13.291696,25.230495 11.500037,31.436501 z"
     style="fill:#404040;"/>
  </a>
 </g>
</svg>

<style type='text/css'>
<![CDATA[
[data-mouse-over-selected='false'] { opacity: 0.7; }
[data-mouse-over-selected='true']  { opacity: 1.0; }
]]>
</style>
<script type="application/ecmascript"><![CDATA[
document.addEventListener('DOMContentLoaded', (event) => {
  highlightEdges();
  highlightAdjacentNodes();
});
]]></script>
</svg>
