<?xml version="1.0" encoding="UTF-8" standalone="no"?>
<!DOCTYPE svg PUBLIC "-//W3C//DTD SVG 1.1//EN"
 "http://www.w3.org/Graphics/SVG/1.1/DTD/svg11.dtd">
<!-- Generated by graphviz version 2.43.0 (0)
 -->
<!-- Title: monopoly::GameState Pages: 1 -->
<svg width="377pt" height="307pt"
 viewBox="0.00 0.00 377.00 307.00" xmlns="http://www.w3.org/2000/svg" xmlns:xlink="http://www.w3.org/1999/xlink">
<g id="graph0" class="graph" transform="scale(1 1) rotate(0) translate(4 303)">
<title>monopoly::GameState</title>
<!-- Node1 -->
<g id="Node000001" class="node">
<title>Node1</title>
<g id="a_Node000001"><a xlink:title=" ">
<polygon fill="#999999" stroke="transparent" points="244.5,-299 136.5,-299 136.5,-130 244.5,-130 244.5,-299"/>
<text text-anchor="start" x="141.5" y="-286.5" font-family="Helvetica,sans-Serif" font-size="10.00">monopoly::GameState</text>
<text text-anchor="start" x="188.5" y="-271.5" font-family="Helvetica,sans-Serif" font-size="10.00"> </text>
<text text-anchor="start" x="140.5" y="-256.5" font-family="Helvetica,sans-Serif" font-size="10.00">+</text>
<text text-anchor="start" x="151.5" y="-256.5" font-family="Helvetica,sans-Serif" font-size="10.00">~GameState()</text>
<text text-anchor="start" x="140.5" y="-241.5" font-family="Helvetica,sans-Serif" font-size="10.00">+</text>
<text text-anchor="start" x="151.5" y="-241.5" font-family="Helvetica,sans-Serif" font-size="10.00">onEnter()</text>
<text text-anchor="start" x="140.5" y="-226.5" font-family="Helvetica,sans-Serif" font-size="10.00">+</text>
<text text-anchor="start" x="151.5" y="-226.5" font-family="Helvetica,sans-Serif" font-size="10.00">handleKeyRelease()</text>
<text text-anchor="start" x="140.5" y="-211.5" font-family="Helvetica,sans-Serif" font-size="10.00">+</text>
<text text-anchor="start" x="151.5" y="-211.5" font-family="Helvetica,sans-Serif" font-size="10.00">update()</text>
<text text-anchor="start" x="140.5" y="-196.5" font-family="Helvetica,sans-Serif" font-size="10.00">+</text>
<text text-anchor="start" x="151.5" y="-196.5" font-family="Helvetica,sans-Serif" font-size="10.00">getInstance()</text>
<text text-anchor="start" x="141" y="-181.5" font-family="Helvetica,sans-Serif" font-size="10.00">#</text>
<text text-anchor="start" x="151.5" y="-181.5" font-family="Helvetica,sans-Serif" font-size="10.00">GameState()</text>
<text text-anchor="start" x="141" y="-166.5" font-family="Helvetica,sans-Serif" font-size="10.00">#</text>
<text text-anchor="start" x="151.5" y="-166.5" font-family="Helvetica,sans-Serif" font-size="10.00">changeState()</text>
<text text-anchor="start" x="141" y="-151.5" font-family="Helvetica,sans-Serif" font-size="10.00">#</text>
<text text-anchor="start" x="151.5" y="-151.5" font-family="Helvetica,sans-Serif" font-size="10.00">GameState()</text>
<text text-anchor="start" x="141" y="-136.5" font-family="Helvetica,sans-Serif" font-size="10.00">#</text>
<text text-anchor="start" x="151.5" y="-136.5" font-family="Helvetica,sans-Serif" font-size="10.00">operator=()</text>
<polygon fill="#666666" stroke="#666666" points="136.5,-281.5 136.5,-281.5 244.5,-281.5 244.5,-281.5 136.5,-281.5"/>
<polygon fill="#666666" stroke="#666666" points="136.5,-266.5 136.5,-266.5 244.5,-266.5 244.5,-266.5 136.5,-266.5"/>
<polygon fill="none" stroke="#666666" points="136.5,-130 136.5,-299 244.5,-299 244.5,-130 136.5,-130"/>
</a>
</g>
</g>
<!-- Node2 -->
<g id="Node000002" class="node">
<title>Node2</title>
<g id="a_Node000002"><a xlink:href="classmonopoly_1_1RollDiceState.html" target="_top" xlink:title=" ">
<polygon fill="white" stroke="transparent" points="119,-94 0,-94 0,0 119,0 119,-94"/>
<text text-anchor="start" x="5.5" y="-82" font-family="Helvetica,sans-Serif" font-size="10.00">monopoly::RollDiceState</text>
<text text-anchor="start" x="9" y="-67" font-family="Helvetica,sans-Serif" font-size="10.00">&#45;</text>
<text text-anchor="start" x="21.5" y="-67" font-family="Helvetica,sans-Serif" font-size="10.00">instance</text>
<text text-anchor="start" x="7.5" y="-52" font-family="Helvetica,sans-Serif" font-size="10.00">+</text>
<text text-anchor="start" x="21.5" y="-52" font-family="Helvetica,sans-Serif" font-size="10.00">onEnter()</text>
<text text-anchor="start" x="7.5" y="-37" font-family="Helvetica,sans-Serif" font-size="10.00">+</text>
<text text-anchor="start" x="21.5" y="-37" font-family="Helvetica,sans-Serif" font-size="10.00">handleKeyRelease()</text>
<text text-anchor="start" x="7.5" y="-22" font-family="Helvetica,sans-Serif" font-size="10.00">+</text>
<text text-anchor="start" x="21.5" y="-22" font-family="Helvetica,sans-Serif" font-size="10.00">getInstance()</text>
<text text-anchor="start" x="9" y="-7" font-family="Helvetica,sans-Serif" font-size="10.00">&#45;</text>
<text text-anchor="start" x="21.5" y="-7" font-family="Helvetica,sans-Serif" font-size="10.00">RollDiceState()</text>
<polygon fill="#666666" stroke="#666666" points="0.5,-77 0.5,-77 119.5,-77 119.5,-77 0.5,-77"/>
<polygon fill="#666666" stroke="#666666" points="0.5,-62 0.5,-62 19.5,-62 19.5,-62 0.5,-62"/>
<polygon fill="#666666" stroke="#666666" points="19.5,-62 19.5,-62 119.5,-62 119.5,-62 19.5,-62"/>
<polygon fill="none" stroke="#666666" points="0,0 0,-94 119,-94 119,0 0,0"/>
</a>
</g>
</g>
<!-- Node1&#45;&gt;Node2 -->
<g id="edge1_Node000001_Node000002" class="edge">
<title>Node1&#45;&gt;Node2</title>
<g id="a_edge1_Node000001_Node000002"><a xlink:title=" ">
<path fill="none" stroke="#63b8ff" d="M130.08,-137.16C118.53,-122.58 106.77,-107.72 96.25,-94.43"/>
<polygon fill="none" stroke="#63b8ff" points="127.51,-139.56 136.46,-145.23 133,-135.22 127.51,-139.56"/>
</a>
</g>
</g>
<!-- Node3 -->
<g id="Node000003" class="node">
<title>Node3</title>
<g id="a_Node000003"><a xlink:href="classmonopoly_1_1StartState.html" target="_top" xlink:title=" ">
<polygon fill="white" stroke="transparent" points="244,-94 137,-94 137,0 244,0 244,-94"/>
<text text-anchor="start" x="144.5" y="-82" font-family="Helvetica,sans-Serif" font-size="10.00">monopoly::StartState</text>
<text text-anchor="start" x="143" y="-67" font-family="Helvetica,sans-Serif" font-size="10.00">&#45;</text>
<text text-anchor="start" x="152.5" y="-67" font-family="Helvetica,sans-Serif" font-size="10.00">instance</text>
<text text-anchor="start" x="141.5" y="-52" font-family="Helvetica,sans-Serif" font-size="10.00">+</text>
<text text-anchor="start" x="152.5" y="-52" font-family="Helvetica,sans-Serif" font-size="10.00">onEnter()</text>
<text text-anchor="start" x="141.5" y="-37" font-family="Helvetica,sans-Serif" font-size="10.00">+</text>
<text text-anchor="start" x="152.5" y="-37" font-family="Helvetica,sans-Serif" font-size="10.00">handleKeyRelease()</text>
<text text-anchor="start" x="141.5" y="-22" font-family="Helvetica,sans-Serif" font-size="10.00">+</text>
<text text-anchor="start" x="152.5" y="-22" font-family="Helvetica,sans-Serif" font-size="10.00">getInstance()</text>
<text text-anchor="start" x="143" y="-7" font-family="Helvetica,sans-Serif" font-size="10.00">&#45;</text>
<text text-anchor="start" x="152.5" y="-7" font-family="Helvetica,sans-Serif" font-size="10.00">StartState()</text>
<polygon fill="#666666" stroke="#666666" points="137.5,-77 137.5,-77 244.5,-77 244.5,-77 137.5,-77"/>
<polygon fill="#666666" stroke="#666666" points="137.5,-62 137.5,-62 150.5,-62 150.5,-62 137.5,-62"/>
<polygon fill="#666666" stroke="#666666" points="150.5,-62 150.5,-62 244.5,-62 244.5,-62 150.5,-62"/>
<polygon fill="none" stroke="#666666" points="137,0 137,-94 244,-94 244,0 137,0"/>
</a>
</g>
</g>
<!-- Node1&#45;&gt;Node3 -->
<g id="edge2_Node000001_Node000003" class="edge">
<title>Node1&#45;&gt;Node3</title>
<g id="a_edge2_Node000001_Node000003"><a xlink:title=" ">
<path fill="none" stroke="#63b8ff" d="M190.5,-119.53C190.5,-110.84 190.5,-102.32 190.5,-94.36"/>
<polygon fill="none" stroke="#63b8ff" points="187,-119.78 190.5,-129.78 194,-119.78 187,-119.78"/>
</a>
</g>
</g>
<!-- Node4 -->
<g id="Node000004" class="node">
<title>Node4</title>
<g id="a_Node000004"><a xlink:href="classmonopoly_1_1TurnState.html" target="_top" xlink:title=" ">
<polygon fill="white" stroke="transparent" points="369,-94 262,-94 262,0 369,0 369,-94"/>
<text text-anchor="start" x="270.5" y="-82" font-family="Helvetica,sans-Serif" font-size="10.00">monopoly::TurnState</text>
<text text-anchor="start" x="268" y="-67" font-family="Helvetica,sans-Serif" font-size="10.00">&#45;</text>
<text text-anchor="start" x="277.5" y="-67" font-family="Helvetica,sans-Serif" font-size="10.00">instance</text>
<text text-anchor="start" x="266.5" y="-52" font-family="Helvetica,sans-Serif" font-size="10.00">+</text>
<text text-anchor="start" x="277.5" y="-52" font-family="Helvetica,sans-Serif" font-size="10.00">onEnter()</text>
<text text-anchor="start" x="266.5" y="-37" font-family="Helvetica,sans-Serif" font-size="10.00">+</text>
<text text-anchor="start" x="277.5" y="-37" font-family="Helvetica,sans-Serif" font-size="10.00">handleKeyRelease()</text>
<text text-anchor="start" x="266.5" y="-22" font-family="Helvetica,sans-Serif" font-size="10.00">+</text>
<text text-anchor="start" x="277.5" y="-22" font-family="Helvetica,sans-Serif" font-size="10.00">getInstance()</text>
<text text-anchor="start" x="268" y="-7" font-family="Helvetica,sans-Serif" font-size="10.00">&#45;</text>
<text text-anchor="start" x="277.5" y="-7" font-family="Helvetica,sans-Serif" font-size="10.00">TurnState()</text>
<polygon fill="#666666" stroke="#666666" points="262.5,-77 262.5,-77 369.5,-77 369.5,-77 262.5,-77"/>
<polygon fill="#666666" stroke="#666666" points="262.5,-62 262.5,-62 275.5,-62 275.5,-62 262.5,-62"/>
<polygon fill="#666666" stroke="#666666" points="275.5,-62 275.5,-62 369.5,-62 369.5,-62 275.5,-62"/>
<polygon fill="none" stroke="#666666" points="262,0 262,-94 369,-94 369,0 262,0"/>
</a>
</g>
</g>
<!-- Node1&#45;&gt;Node4 -->
<g id="edge3_Node000001_Node000004" class="edge">
<title>Node1&#45;&gt;Node4</title>
<g id="a_edge3_Node000001_Node000004"><a xlink:title=" ">
<path fill="none" stroke="#63b8ff" d="M250.89,-133.55C261.02,-120.13 271.22,-106.62 280.44,-94.42"/>
<polygon fill="none" stroke="#63b8ff" points="247.83,-131.78 244.6,-141.87 253.42,-136 247.83,-131.78"/>
</a>
</g>
</g>
</g>
</svg>
