<?xml version="1.0" encoding="UTF-8" standalone="no"?>
<!DOCTYPE svg PUBLIC "-//W3C//DTD SVG 1.1//EN"
 "http://www.w3.org/Graphics/SVG/1.1/DTD/svg11.dtd">
<!-- Generated by graphviz version 2.43.0 (0)
 -->
<!-- Title: UtilitySquare::draw Pages: 1 -->
<svg width="426pt" height="38pt"
 viewBox="0.00 0.00 426.00 38.00" xmlns="http://www.w3.org/2000/svg" xmlns:xlink="http://www.w3.org/1999/xlink">
<g id="graph0" class="graph" transform="scale(1 1) rotate(0) translate(4 34)">
<title>UtilitySquare::draw</title>
<!-- Node1 -->
<g id="Node000001" class="node">
<title>Node1</title>
<g id="a_Node000001"><a xlink:title=" ">
<polygon fill="#999999" stroke="#666666" points="100,-24.5 0,-24.5 0,-5.5 100,-5.5 100,-24.5"/>
<text text-anchor="middle" x="50" y="-12.5" font-family="Helvetica,sans-Serif" font-size="10.00">UtilitySquare::draw</text>
</a>
</g>
</g>
<!-- Node2 -->
<g id="Node000002" class="node">
<title>Node2</title>
<g id="a_Node000002"><a xlink:href="classBoardSquareComponent.html#a881195405144e0c5ed22e5c3a9deaf1b" target="_top" xlink:title=" ">
<polygon fill="white" stroke="#666666" points="259,-30 136,-30 136,0 259,0 259,-30"/>
<text text-anchor="start" x="144" y="-18" font-family="Helvetica,sans-Serif" font-size="10.00">BoardSquareComponent</text>
<text text-anchor="middle" x="197.5" y="-7" font-family="Helvetica,sans-Serif" font-size="10.00">::draw</text>
</a>
</g>
</g>
<!-- Node1&#45;&gt;Node2 -->
<g id="edge1_Node000001_Node000002" class="edge">
<title>Node1&#45;&gt;Node2</title>
<g id="a_edge1_Node000001_Node000002"><a xlink:title=" ">
<path fill="none" stroke="#63b8ff" d="M100.26,-15C108.5,-15 117.18,-15 125.83,-15"/>
<polygon fill="#63b8ff" stroke="#63b8ff" points="125.93,-18.5 135.93,-15 125.93,-11.5 125.93,-18.5"/>
</a>
</g>
</g>
<!-- Node3 -->
<g id="Node000003" class="node">
<title>Node3</title>
<g id="a_Node000003"><a xlink:href="classBoardSquareComponent.html#a9fff7f24accf46ae4c0db14173d3079c" target="_top" xlink:title=" ">
<polygon fill="white" stroke="#666666" points="418,-30 295,-30 295,0 418,0 418,-30"/>
<text text-anchor="start" x="303" y="-18" font-family="Helvetica,sans-Serif" font-size="10.00">BoardSquareComponent</text>
<text text-anchor="middle" x="356.5" y="-7" font-family="Helvetica,sans-Serif" font-size="10.00">::drawPlayers</text>
</a>
</g>
</g>
<!-- Node2&#45;&gt;Node3 -->
<g id="edge2_Node000002_Node000003" class="edge">
<title>Node2&#45;&gt;Node3</title>
<g id="a_edge2_Node000002_Node000003"><a xlink:title=" ">
<path fill="none" stroke="#63b8ff" d="M259.2,-15C267.64,-15 276.36,-15 284.95,-15"/>
<polygon fill="#63b8ff" stroke="#63b8ff" points="284.96,-18.5 294.96,-15 284.96,-11.5 284.96,-18.5"/>
</a>
</g>
</g>
</g>
</svg>
