<?xml version="1.0" encoding="UTF-8" standalone="no"?>
<!DOCTYPE svg PUBLIC "-//W3C//DTD SVG 1.1//EN"
 "http://www.w3.org/Graphics/SVG/1.1/DTD/svg11.dtd">
<!-- Generated by graphviz version 2.43.0 (0)
 -->
<!-- Title: monopoly::TurnState::handleKeyRelease Pages: 1 -->
<svg width="453pt" height="268pt"
 viewBox="0.00 0.00 453.00 267.50" xmlns="http://www.w3.org/2000/svg" xmlns:xlink="http://www.w3.org/1999/xlink">
<g id="graph0" class="graph" transform="scale(1 1) rotate(0) translate(4 263.5)">
<title>monopoly::TurnState::handleKeyRelease</title>
<!-- Node1 -->
<g id="Node000001" class="node">
<title>Node1</title>
<g id="a_Node000001"><a xlink:title=" ">
<polygon fill="#999999" stroke="#666666" points="107,-139.5 0,-139.5 0,-109.5 107,-109.5 107,-139.5"/>
<text text-anchor="start" x="8" y="-127.5" font-family="Helvetica,sans-Serif" font-size="10.00">monopoly::TurnState</text>
<text text-anchor="middle" x="53.5" y="-116.5" font-family="Helvetica,sans-Serif" font-size="10.00">::handleKeyRelease</text>
</a>
</g>
</g>
<!-- Node2 -->
<g id="Node000002" class="node">
<title>Node2</title>
<g id="a_Node000002"><a xlink:href="classmonopoly_1_1GameState.html#aaa7ff9309d3c14dcf9c396f311189355" target="_top" xlink:title=" ">
<polygon fill="white" stroke="#666666" points="266.5,-259.5 152.5,-259.5 152.5,-229.5 266.5,-229.5 266.5,-259.5"/>
<text text-anchor="start" x="160.5" y="-247.5" font-family="Helvetica,sans-Serif" font-size="10.00">monopoly::GameState</text>
<text text-anchor="middle" x="209.5" y="-236.5" font-family="Helvetica,sans-Serif" font-size="10.00">::changeState</text>
</a>
</g>
</g>
<!-- Node1&#45;&gt;Node2 -->
<g id="edge1_Node000001_Node000002" class="edge">
<title>Node1&#45;&gt;Node2</title>
<g id="a_edge1_Node000001_Node000002"><a xlink:title=" ">
<path fill="none" stroke="#63b8ff" d="M64.79,-139.57C79.76,-160.44 109.44,-198.1 143,-220.5 145.28,-222.02 147.67,-223.47 150.14,-224.83"/>
<polygon fill="#63b8ff" stroke="#63b8ff" points="148.79,-228.07 159.3,-229.42 151.93,-221.81 148.79,-228.07"/>
</a>
</g>
</g>
<!-- Node4 -->
<g id="Node000004" class="node">
<title>Node4</title>
<g id="a_Node000004"><a xlink:href="classmonopoly_1_1GameModel.html#a61c4fbccfe0fd1f1870bfd4df55571f1" target="_top" xlink:title=" ">
<polygon fill="white" stroke="#666666" points="268,-211.5 151,-211.5 151,-181.5 268,-181.5 268,-211.5"/>
<text text-anchor="start" x="159" y="-199.5" font-family="Helvetica,sans-Serif" font-size="10.00">monopoly::GameModel</text>
<text text-anchor="middle" x="209.5" y="-188.5" font-family="Helvetica,sans-Serif" font-size="10.00">::getCurrentPlayer</text>
</a>
</g>
</g>
<!-- Node1&#45;&gt;Node4 -->
<g id="edge3_Node000001_Node000004" class="edge">
<title>Node1&#45;&gt;Node4</title>
<g id="a_edge3_Node000001_Node000004"><a xlink:title=" ">
<path fill="none" stroke="#63b8ff" d="M79.94,-139.59C97.36,-149.59 121.18,-162.65 143,-172.5 147.02,-174.32 151.22,-176.1 155.47,-177.83"/>
<polygon fill="#63b8ff" stroke="#63b8ff" points="154.22,-181.09 164.81,-181.5 156.78,-174.58 154.22,-181.09"/>
</a>
</g>
</g>
<!-- Node5 -->
<g id="Node000005" class="node">
<title>Node5</title>
<g id="a_Node000005"><a xlink:href="classmonopoly_1_1RollDiceState.html#a770af9ae84cdcd7089e6e89d4eb5d13f" target="_top" xlink:title=" ">
<polygon fill="white" stroke="#666666" points="272,-163.5 147,-163.5 147,-133.5 272,-133.5 272,-163.5"/>
<text text-anchor="start" x="155" y="-151.5" font-family="Helvetica,sans-Serif" font-size="10.00">monopoly::RollDiceState</text>
<text text-anchor="middle" x="209.5" y="-140.5" font-family="Helvetica,sans-Serif" font-size="10.00">::getInstance</text>
</a>
</g>
</g>
<!-- Node1&#45;&gt;Node5 -->
<g id="edge4_Node000001_Node000005" class="edge">
<title>Node1&#45;&gt;Node5</title>
<g id="a_edge4_Node000001_Node000005"><a xlink:title=" ">
<path fill="none" stroke="#63b8ff" d="M107.07,-132.69C116.67,-134.19 126.85,-135.77 136.9,-137.34"/>
<polygon fill="#63b8ff" stroke="#63b8ff" points="136.46,-140.81 146.88,-138.9 137.54,-133.9 136.46,-140.81"/>
</a>
</g>
</g>
<!-- Node7 -->
<g id="Node000007" class="node">
<title>Node7</title>
<g id="a_Node000007"><a xlink:href="classmonopoly_1_1GameController.html#ae6b73b1fe95e80ea943e403b578a72bc" target="_top" xlink:title="Get the current game model.">
<polygon fill="white" stroke="#666666" points="276,-115.5 143,-115.5 143,-85.5 276,-85.5 276,-115.5"/>
<text text-anchor="start" x="151" y="-103.5" font-family="Helvetica,sans-Serif" font-size="10.00">monopoly::GameController</text>
<text text-anchor="middle" x="209.5" y="-92.5" font-family="Helvetica,sans-Serif" font-size="10.00">::getModel</text>
</a>
</g>
</g>
<!-- Node1&#45;&gt;Node7 -->
<g id="edge6_Node000001_Node000007" class="edge">
<title>Node1&#45;&gt;Node7</title>
<g id="a_edge6_Node000001_Node000007"><a xlink:title=" ">
<path fill="none" stroke="#63b8ff" d="M107.07,-116.31C115.33,-115.02 124.02,-113.67 132.69,-112.32"/>
<polygon fill="#63b8ff" stroke="#63b8ff" points="133.48,-115.73 142.82,-110.74 132.4,-108.82 133.48,-115.73"/>
</a>
</g>
</g>
<!-- Node8 -->
<g id="Node000008" class="node">
<title>Node8</title>
<g id="a_Node000008"><a xlink:href="classmonopoly_1_1GameModel.html#acc512c58d9496ef6c91bfe093026ff36" target="_top" xlink:title=" ">
<polygon fill="white" stroke="#666666" points="268,-67.5 151,-67.5 151,-37.5 268,-37.5 268,-67.5"/>
<text text-anchor="start" x="159" y="-55.5" font-family="Helvetica,sans-Serif" font-size="10.00">monopoly::GameModel</text>
<text text-anchor="middle" x="209.5" y="-44.5" font-family="Helvetica,sans-Serif" font-size="10.00">::isGameOver</text>
</a>
</g>
</g>
<!-- Node1&#45;&gt;Node8 -->
<g id="edge7_Node000001_Node000008" class="edge">
<title>Node1&#45;&gt;Node8</title>
<g id="a_edge7_Node000001_Node000008"><a xlink:title=" ">
<path fill="none" stroke="#63b8ff" d="M79.94,-109.41C97.36,-99.41 121.18,-86.35 143,-76.5 147.02,-74.68 151.22,-72.9 155.47,-71.17"/>
<polygon fill="#63b8ff" stroke="#63b8ff" points="156.78,-74.42 164.81,-67.5 154.22,-67.91 156.78,-74.42"/>
</a>
</g>
</g>
<!-- Node9 -->
<g id="Node000009" class="node">
<title>Node9</title>
<g id="a_Node000009"><a xlink:href="classmonopoly_1_1Player.html#a53a8859bb9ad558e3d1d27635c513884" target="_top" xlink:title=" ">
<polygon fill="white" stroke="#666666" points="274,-19 145,-19 145,0 274,0 274,-19"/>
<text text-anchor="middle" x="209.5" y="-7" font-family="Helvetica,sans-Serif" font-size="10.00">monopoly::Player::isInJail</text>
</a>
</g>
</g>
<!-- Node1&#45;&gt;Node9 -->
<g id="edge8_Node000001_Node000009" class="edge">
<title>Node1&#45;&gt;Node9</title>
<g id="a_edge8_Node000001_Node000009"><a xlink:title=" ">
<path fill="none" stroke="#63b8ff" d="M64.34,-109.46C78.98,-88.28 108.5,-49.85 143,-28.5 146.41,-26.39 150.07,-24.5 153.85,-22.82"/>
<polygon fill="#63b8ff" stroke="#63b8ff" points="155.4,-25.97 163.42,-19.04 152.83,-19.46 155.4,-25.97"/>
</a>
</g>
</g>
<!-- Node3 -->
<g id="Node000003" class="node">
<title>Node3</title>
<g id="a_Node000003"><a xlink:href="classmonopoly_1_1GameController.html#af9a704d24cc6257db2ecd626b869a7f4" target="_top" xlink:title="Change the current game state.">
<polygon fill="white" stroke="#666666" points="445,-259.5 312,-259.5 312,-229.5 445,-229.5 445,-259.5"/>
<text text-anchor="start" x="320" y="-247.5" font-family="Helvetica,sans-Serif" font-size="10.00">monopoly::GameController</text>
<text text-anchor="middle" x="378.5" y="-236.5" font-family="Helvetica,sans-Serif" font-size="10.00">::changeState</text>
</a>
</g>
</g>
<!-- Node2&#45;&gt;Node3 -->
<g id="edge2_Node000002_Node000003" class="edge">
<title>Node2&#45;&gt;Node3</title>
<g id="a_edge2_Node000002_Node000003"><a xlink:title=" ">
<path fill="none" stroke="#63b8ff" d="M266.57,-244.5C277.79,-244.5 289.74,-244.5 301.5,-244.5"/>
<polygon fill="#63b8ff" stroke="#63b8ff" points="301.75,-248 311.75,-244.5 301.75,-241 301.75,-248"/>
</a>
</g>
</g>
<!-- Node6 -->
<g id="Node000006" class="node">
<title>Node6</title>
<g id="a_Node000006"><a xlink:href="classmonopoly_1_1RollDiceState.html#a90c5ebd8e157aaba80daed38981af146" target="_top" xlink:title=" ">
<polygon fill="white" stroke="#666666" points="441,-163.5 316,-163.5 316,-133.5 441,-133.5 441,-163.5"/>
<text text-anchor="start" x="324" y="-151.5" font-family="Helvetica,sans-Serif" font-size="10.00">monopoly::RollDiceState</text>
<text text-anchor="middle" x="378.5" y="-140.5" font-family="Helvetica,sans-Serif" font-size="10.00">::RollDiceState</text>
</a>
</g>
</g>
<!-- Node5&#45;&gt;Node6 -->
<g id="edge5_Node000005_Node000006" class="edge">
<title>Node5&#45;&gt;Node6</title>
<g id="a_edge5_Node000005_Node000006"><a xlink:title=" ">
<path fill="none" stroke="#63b8ff" d="M272.21,-148.5C283.09,-148.5 294.51,-148.5 305.64,-148.5"/>
<polygon fill="#63b8ff" stroke="#63b8ff" points="305.76,-152 315.76,-148.5 305.76,-145 305.76,-152"/>
</a>
</g>
</g>
</g>
</svg>
