<?xml version="1.0" encoding="UTF-8" standalone="no"?>
<!DOCTYPE svg PUBLIC "-//W3C//DTD SVG 1.1//EN"
 "http://www.w3.org/Graphics/SVG/1.1/DTD/svg11.dtd">
<!-- Generated by graphviz version 2.43.0 (0)
 -->
<!-- Title: monopoly::GameModel::buyProperty Pages: 1 -->
<svg width="301pt" height="247pt"
 viewBox="0.00 0.00 301.00 246.50" xmlns="http://www.w3.org/2000/svg" xmlns:xlink="http://www.w3.org/1999/xlink">
<g id="graph0" class="graph" transform="scale(1 1) rotate(0) translate(4 242.5)">
<title>monopoly::GameModel::buyProperty</title>
<!-- Node1 -->
<g id="Node000001" class="node">
<title>Node1</title>
<g id="a_Node000001"><a xlink:title="Process property purchase.">
<polygon fill="#999999" stroke="#666666" points="117,-139 0,-139 0,-109 117,-109 117,-139"/>
<text text-anchor="start" x="8" y="-127" font-family="Helvetica,sans-Serif" font-size="10.00">monopoly::GameModel</text>
<text text-anchor="middle" x="58.5" y="-116" font-family="Helvetica,sans-Serif" font-size="10.00">::buyProperty</text>
</a>
</g>
</g>
<!-- Node2 -->
<g id="Node000002" class="node">
<title>Node2</title>
<g id="a_Node000002"><a xlink:href="classmonopoly_1_1Player.html#a3ac4e53730a8d5f12ee3f9ffd1d9e528" target="_top" xlink:title="Checks if player can afford a payment.">
<polygon fill="white" stroke="#666666" points="293,-238.5 153,-238.5 153,-219.5 293,-219.5 293,-238.5"/>
<text text-anchor="middle" x="223" y="-226.5" font-family="Helvetica,sans-Serif" font-size="10.00">monopoly::Player::canAfford</text>
</a>
</g>
</g>
<!-- Node1&#45;&gt;Node2 -->
<g id="edge1_Node000001_Node000002" class="edge">
<title>Node1&#45;&gt;Node2</title>
<g id="a_edge1_Node000001_Node000002"><a xlink:title=" ">
<path fill="none" stroke="#63b8ff" d="M71.8,-139.09C88.3,-158.35 119.44,-191.39 153,-210 157.13,-212.29 161.55,-214.32 166.09,-216.11"/>
<polygon fill="#63b8ff" stroke="#63b8ff" points="164.92,-219.41 175.52,-219.47 167.28,-212.82 164.92,-219.41"/>
</a>
</g>
</g>
<!-- Node3 -->
<g id="Node000003" class="node">
<title>Node3</title>
<g id="a_Node000003"><a xlink:href="classmonopoly_1_1Player.html#a05d74a839e1ef637d52e77bc39f5bb4f" target="_top" xlink:title="Attempts to decrease player&#39;s balance.">
<polygon fill="white" stroke="#666666" points="292,-201 154,-201 154,-171 292,-171 292,-201"/>
<text text-anchor="start" x="162" y="-189" font-family="Helvetica,sans-Serif" font-size="10.00">monopoly::Player::decrease</text>
<text text-anchor="middle" x="223" y="-178" font-family="Helvetica,sans-Serif" font-size="10.00">Balance</text>
</a>
</g>
</g>
<!-- Node1&#45;&gt;Node3 -->
<g id="edge2_Node000001_Node000003" class="edge">
<title>Node1&#45;&gt;Node3</title>
<g id="a_edge2_Node000001_Node000003"><a xlink:title=" ">
<path fill="none" stroke="#63b8ff" d="M95.29,-139.05C112.64,-146.21 133.82,-154.77 153,-162 157.85,-163.83 162.9,-165.68 167.98,-167.51"/>
<polygon fill="#63b8ff" stroke="#63b8ff" points="167.11,-170.91 177.71,-170.97 169.46,-164.32 167.11,-170.91"/>
</a>
</g>
</g>
<!-- Node4 -->
<g id="Node000004" class="node">
<title>Node4</title>
<g id="a_Node000004"><a xlink:href="classmonopoly_1_1Player.html#a25b1794379aa66e656ba1ba9632ff76e" target="_top" xlink:title=" ">
<polygon fill="white" stroke="#666666" points="283,-152.5 163,-152.5 163,-133.5 283,-133.5 283,-152.5"/>
<text text-anchor="middle" x="223" y="-140.5" font-family="Helvetica,sans-Serif" font-size="10.00">monopoly::Player::getId</text>
</a>
</g>
</g>
<!-- Node1&#45;&gt;Node4 -->
<g id="edge3_Node000001_Node000004" class="edge">
<title>Node1&#45;&gt;Node4</title>
<g id="a_edge3_Node000001_Node000004"><a xlink:title=" ">
<path fill="none" stroke="#63b8ff" d="M117.25,-130.75C128.68,-132.09 140.79,-133.5 152.56,-134.88"/>
<polygon fill="#63b8ff" stroke="#63b8ff" points="152.45,-138.39 162.79,-136.08 153.27,-131.44 152.45,-138.39"/>
</a>
</g>
</g>
<!-- Node5 -->
<g id="Node000005" class="node">
<title>Node5</title>
<g id="a_Node000005"><a xlink:href="classmonopoly_1_1Square.html#a6245251a3e881d9066cf7558d8b0d793" target="_top" xlink:title="Gets the unique identifier of the square.">
<polygon fill="white" stroke="#666666" points="284.5,-115.5 161.5,-115.5 161.5,-96.5 284.5,-96.5 284.5,-115.5"/>
<text text-anchor="middle" x="223" y="-103.5" font-family="Helvetica,sans-Serif" font-size="10.00">monopoly::Square::getId</text>
</a>
</g>
</g>
<!-- Node1&#45;&gt;Node5 -->
<g id="edge4_Node000001_Node000005" class="edge">
<title>Node1&#45;&gt;Node5</title>
<g id="a_edge4_Node000001_Node000005"><a xlink:title=" ">
<path fill="none" stroke="#63b8ff" d="M117.25,-117.6C128.33,-116.38 140.04,-115.08 151.47,-113.81"/>
<polygon fill="#63b8ff" stroke="#63b8ff" points="151.86,-117.29 161.41,-112.71 151.09,-110.33 151.86,-117.29"/>
</a>
</g>
</g>
<!-- Node6 -->
<g id="Node000006" class="node">
<title>Node6</title>
<g id="a_Node000006"><a xlink:href="classmonopoly_1_1Property.html#a199e7751d65d99c7ce443d9a782f4e2e" target="_top" xlink:title="Gets the property&#39;s purchase price.">
<polygon fill="white" stroke="#666666" points="273.5,-78 172.5,-78 172.5,-48 273.5,-48 273.5,-78"/>
<text text-anchor="start" x="180.5" y="-66" font-family="Helvetica,sans-Serif" font-size="10.00">monopoly::Property</text>
<text text-anchor="middle" x="223" y="-55" font-family="Helvetica,sans-Serif" font-size="10.00">::getPrice</text>
</a>
</g>
</g>
<!-- Node1&#45;&gt;Node6 -->
<g id="edge5_Node000001_Node000006" class="edge">
<title>Node1&#45;&gt;Node6</title>
<g id="a_edge5_Node000001_Node000006"><a xlink:title=" ">
<path fill="none" stroke="#63b8ff" d="M98.1,-108.94C114.93,-102.42 134.91,-94.76 153,-88 158.58,-85.91 164.43,-83.76 170.25,-81.62"/>
<polygon fill="#63b8ff" stroke="#63b8ff" points="171.79,-84.79 179.99,-78.07 169.4,-78.21 171.79,-84.79"/>
</a>
</g>
</g>
<!-- Node7 -->
<g id="Node000007" class="node">
<title>Node7</title>
<g id="a_Node000007"><a xlink:href="classmonopoly_1_1Property.html#a431be9f07f9cc274ffa2c686bb1eb55e" target="_top" xlink:title="Checks if property is owned by a player (not the bank)">
<polygon fill="white" stroke="#666666" points="273.5,-30 172.5,-30 172.5,0 273.5,0 273.5,-30"/>
<text text-anchor="start" x="180.5" y="-18" font-family="Helvetica,sans-Serif" font-size="10.00">monopoly::Property</text>
<text text-anchor="middle" x="223" y="-7" font-family="Helvetica,sans-Serif" font-size="10.00">::isOwned</text>
</a>
</g>
</g>
<!-- Node1&#45;&gt;Node7 -->
<g id="edge6_Node000001_Node000007" class="edge">
<title>Node1&#45;&gt;Node7</title>
<g id="a_edge6_Node000001_Node000007"><a xlink:title=" ">
<path fill="none" stroke="#63b8ff" d="M72.62,-108.78C89.51,-90.02 120.56,-58.28 153,-39 156.19,-37.11 159.54,-35.33 162.99,-33.68"/>
<polygon fill="#63b8ff" stroke="#63b8ff" points="164.55,-36.81 172.28,-29.56 161.72,-30.41 164.55,-36.81"/>
</a>
</g>
</g>
</g>
</svg>
