<?xml version="1.0" encoding="UTF-8" standalone="no"?>
<!DOCTYPE svg PUBLIC "-//W3C//DTD SVG 1.1//EN"
 "http://www.w3.org/Graphics/SVG/1.1/DTD/svg11.dtd">
<!-- Generated by graphviz version 2.43.0 (0)
 -->
<!-- Title: monopoly::GameModel::landOn Pages: 1 -->
<!--zoomable 307 -->

<svg id="main" version="1.1" xmlns="http://www.w3.org/2000/svg" xmlns:xlink="http://www.w3.org/1999/xlink" xml:space="preserve" onload="init(evt)">
<style type="text/css"><![CDATA[
.node, .edge {opacity: 0.7;}
.node.selected, .edge.selected {opacity: 1;}
.edge:hover path { stroke: red; }
.edge:hover polygon { stroke: red; fill: red; }
]]></style>

<defs>
  <circle id="rim" cx="0" cy="0" r="7"/>
  <circle id="rim2" cx="0" cy="0" r="3.5"/>
  <g id="zoomPlus">
    <use xlink:href="#rim" fill="#404040"><set attributeName="fill" to="#808080" begin="zoomplus.mouseover" end="zoomplus.mouseout"/></use>
    <path d="M-4,0h8M0,-4v8" fill="none" stroke="white" stroke-width="1.5" pointer-events="none"/>
  </g>
  <g id="zoomMin">
    <use xlink:href="#rim" fill="#404040"><set attributeName="fill" to="#808080" begin="zoomminus.mouseover" end="zoomminus.mouseout"/></use>
    <path d="M-4,0h8" fill="none" stroke="white" stroke-width="1.5" pointer-events="none"/>
  </g>
  <g id="arrowUp" transform="translate(30 24)">
    <use xlink:href="#rim"/>
    <path pointer-events="none" fill="none" stroke="white" stroke-width="1.5" d="M0,-3.0v7 M-2.5,-0.5L0,-3.0L2.5,-0.5"/>
  </g>
  <g id="arrowRight" transform="rotate(90) translate(36 -43)">
    <use xlink:href="#rim"/>
    <path pointer-events="none" fill="none" stroke="white" stroke-width="1.5" d="M0,-3.0v7 M-2.5,-0.5L0,-3.0L2.5,-0.5"/>
  </g>
  <g id="arrowDown" transform="rotate(180) translate(-30 -48)">
    <use xlink:href="#rim"/>
    <path pointer-events="none" fill="none" stroke="white" stroke-width="1.5" d="M0,-3.0v7 M-2.5,-0.5L0,-3.0L2.5,-0.5"/>
  </g>
  <g id="arrowLeft" transform="rotate(270) translate(-36 17)">
    <use xlink:href="#rim"/>
    <path pointer-events="none" fill="none" stroke="white" stroke-width="1.5" d="M0,-3.0v7 M-2.5,-0.5L0,-3.0L2.5,-0.5"/>
  </g>
  <g id="resetDef">
    <use xlink:href="#rim2" fill="#404040"><set attributeName="fill" to="#808080" begin="reset.mouseover" end="reset.mouseout"/></use>
  </g>
</defs>
<script type="application/ecmascript">
var viewWidth = 627;
var viewHeight = 307;
var sectionId = 'dynsection-28';
</script>
<script type="application/ecmascript" xlink:href="svg.min.js"/>
<svg id="graph" class="graph">
<g id="viewport">
<title>monopoly::GameModel::landOn</title>
<!-- Node1 -->
<g id="Node000001" class="node">
<title>Node1</title>
<g id="a_Node000001"><a xlink:title="Process landing on a square.">
<polygon fill="#999999" stroke="#666666" points="117,-147 0,-147 0,-117 117,-117 117,-147"/>
<text text-anchor="start" x="8" y="-135" font-family="Helvetica,sans-Serif" font-size="10.00">monopoly::GameModel</text>
<text text-anchor="middle" x="58.5" y="-124" font-family="Helvetica,sans-Serif" font-size="10.00">::landOn</text>
</a>
</g>
</g>
<!-- Node2 -->
<g id="Node000002" class="node">
<title>Node2</title>
<g id="a_Node000002"><a xlink:href="classmonopoly_1_1GameModel.html#ae273a37a47da242648a26db59a2a7672" target="_top" xlink:title=" ">
<polygon fill="white" stroke="#666666" points="270,-195 153,-195 153,-165 270,-165 270,-195"/>
<text text-anchor="start" x="161" y="-183" font-family="Helvetica,sans-Serif" font-size="10.00">monopoly::GameModel</text>
<text text-anchor="middle" x="211.5" y="-172" font-family="Helvetica,sans-Serif" font-size="10.00">::getSquareAt</text>
</a>
</g>
</g>
<!-- Node1&#45;&gt;Node2 -->
<g id="edge1_Node000001_Node000002" class="edge">
<title>Node1&#45;&gt;Node2</title>
<g id="a_edge1_Node000001_Node000002"><a xlink:title=" ">
<path fill="none" stroke="#63b8ff" d="M106.86,-147.06C121.62,-151.75 138.05,-156.97 153.4,-161.85"/>
<polygon fill="#63b8ff" stroke="#63b8ff" points="152.71,-165.3 163.31,-165 154.84,-158.63 152.71,-165.3"/>
</a>
</g>
</g>
<!-- Node3 -->
<g id="Node000003" class="node">
<title>Node3</title>
<g id="a_Node000003"><a xlink:href="classmonopoly_1_1GameModel.html#ac72ba97e17895b069ea84f783709e9e3" target="_top" xlink:title="Handle landing on property square.">
<polygon fill="white" stroke="#666666" points="270,-147 153,-147 153,-117 270,-117 270,-147"/>
<text text-anchor="start" x="161" y="-135" font-family="Helvetica,sans-Serif" font-size="10.00">monopoly::GameModel</text>
<text text-anchor="middle" x="211.5" y="-124" font-family="Helvetica,sans-Serif" font-size="10.00">::landOnProperty</text>
</a>
</g>
</g>
<!-- Node1&#45;&gt;Node3 -->
<g id="edge2_Node000001_Node000003" class="edge">
<title>Node1&#45;&gt;Node3</title>
<g id="a_edge2_Node000001_Node000003"><a xlink:title=" ">
<path fill="none" stroke="#63b8ff" d="M117.02,-132C125.46,-132 134.23,-132 142.86,-132"/>
<polygon fill="#63b8ff" stroke="#63b8ff" points="142.89,-135.5 152.89,-132 142.89,-128.5 142.89,-135.5"/>
</a>
</g>
</g>
<!-- Node14 -->
<g id="Node000014" class="node">
<title>Node14</title>
<g id="a_Node000014"><a xlink:href="classmonopoly_1_1GameModel.html#aad47dc1e87c2c4970e4f36594e2bf6ff" target="_top" xlink:title="Handle landing on special square.">
<polygon fill="white" stroke="#666666" points="270,-99 153,-99 153,-69 270,-69 270,-99"/>
<text text-anchor="start" x="161" y="-87" font-family="Helvetica,sans-Serif" font-size="10.00">monopoly::GameModel</text>
<text text-anchor="middle" x="211.5" y="-76" font-family="Helvetica,sans-Serif" font-size="10.00">::landOnSpecialSquare</text>
</a>
</g>
</g>
<!-- Node1&#45;&gt;Node14 -->
<g id="edge15_Node000001_Node000014" class="edge">
<title>Node1&#45;&gt;Node14</title>
<g id="a_edge15_Node000001_Node000014"><a xlink:title=" ">
<path fill="none" stroke="#63b8ff" d="M106.86,-116.94C121.62,-112.25 138.05,-107.03 153.4,-102.15"/>
<polygon fill="#63b8ff" stroke="#63b8ff" points="154.84,-105.37 163.31,-99 152.71,-98.7 154.84,-105.37"/>
</a>
</g>
</g>
<!-- Node4 -->
<g id="Node000004" class="node">
<title>Node4</title>
<g id="a_Node000004"><a xlink:href="classmonopoly_1_1Player.html#a3ac4e53730a8d5f12ee3f9ffd1d9e528" target="_top" xlink:title="Checks if player can afford a payment.">
<polygon fill="white" stroke="#666666" points="609,-298.5 469,-298.5 469,-279.5 609,-279.5 609,-298.5"/>
<text text-anchor="middle" x="539" y="-286.5" font-family="Helvetica,sans-Serif" font-size="10.00">monopoly::Player::canAfford</text>
</a>
</g>
</g>
<!-- Node3&#45;&gt;Node4 -->
<g id="edge3_Node000003_Node000004" class="edge">
<title>Node3&#45;&gt;Node4</title>
<g id="a_edge3_Node000003_Node000004"><a xlink:title=" ">
<path fill="none" stroke="#63b8ff" d="M257.32,-147.09C261.88,-149.65 266.21,-152.61 270,-156 294.6,-178.03 280.54,-199.97 306,-221 349.05,-256.56 410.01,-273.53 458.64,-281.62"/>
<polygon fill="#63b8ff" stroke="#63b8ff" points="458.4,-285.12 468.82,-283.22 459.48,-278.21 458.4,-285.12"/>
</a>
</g>
</g>
<!-- Node5 -->
<g id="Node000005" class="node">
<title>Node5</title>
<g id="a_Node000005"><a xlink:href="classmonopoly_1_1GameModel.html#ad2cc951c35bb0f9d412e79adb790d510" target="_top" xlink:title="Check if houses can be built on street.">
<polygon fill="white" stroke="#666666" points="423,-212 306,-212 306,-182 423,-182 423,-212"/>
<text text-anchor="start" x="314" y="-200" font-family="Helvetica,sans-Serif" font-size="10.00">monopoly::GameModel</text>
<text text-anchor="middle" x="364.5" y="-189" font-family="Helvetica,sans-Serif" font-size="10.00">::canBuildOnStreet</text>
</a>
</g>
</g>
<!-- Node3&#45;&gt;Node5 -->
<g id="edge4_Node000003_Node000005" class="edge">
<title>Node3&#45;&gt;Node5</title>
<g id="a_edge4_Node000003_Node000005"><a xlink:title=" ">
<path fill="none" stroke="#63b8ff" d="M248.74,-147.01C255.8,-149.97 263.14,-153.06 270,-156 286.33,-162.99 304.2,-170.79 319.9,-177.69"/>
<polygon fill="#63b8ff" stroke="#63b8ff" points="318.81,-181.03 329.37,-181.86 321.63,-174.63 318.81,-181.03"/>
</a>
</g>
</g>
<!-- Node8 -->
<g id="Node000008" class="node">
<title>Node8</title>
<g id="a_Node000008"><a xlink:href="classmonopoly_1_1Player.html#a25b1794379aa66e656ba1ba9632ff76e" target="_top" xlink:title=" ">
<polygon fill="white" stroke="#666666" points="599,-101.5 479,-101.5 479,-82.5 599,-82.5 599,-101.5"/>
<text text-anchor="middle" x="539" y="-89.5" font-family="Helvetica,sans-Serif" font-size="10.00">monopoly::Player::getId</text>
</a>
</g>
</g>
<!-- Node3&#45;&gt;Node8 -->
<g id="edge11_Node000003_Node000008" class="edge">
<title>Node3&#45;&gt;Node8</title>
<g id="a_edge11_Node000003_Node000008"><a xlink:title=" ">
<path fill="none" stroke="#63b8ff" d="M270.35,-134.15C282.14,-134.5 294.47,-134.82 306,-135 357.99,-135.83 373.23,-150.07 423,-135 441.4,-129.43 441.38,-118.7 459,-111 464.68,-108.52 470.74,-106.33 476.89,-104.4"/>
<polygon fill="#63b8ff" stroke="#63b8ff" points="477.94,-107.74 486.56,-101.59 475.98,-101.02 477.94,-107.74"/>
</a>
</g>
</g>
<!-- Node11 -->
<g id="Node000011" class="node">
<title>Node11</title>
<g id="a_Node000011"><a xlink:href="classmonopoly_1_1Property.html#ac6c0069d0c07e7da36ed18d62e1d23b5" target="_top" xlink:title="Gets the current owner&#39;s ID.">
<polygon fill="white" stroke="#666666" points="415,-126 314,-126 314,-96 415,-96 415,-126"/>
<text text-anchor="start" x="322" y="-114" font-family="Helvetica,sans-Serif" font-size="10.00">monopoly::Property</text>
<text text-anchor="middle" x="364.5" y="-103" font-family="Helvetica,sans-Serif" font-size="10.00">::getOwnerId</text>
</a>
</g>
</g>
<!-- Node3&#45;&gt;Node11 -->
<g id="edge12_Node000003_Node000011" class="edge">
<title>Node3&#45;&gt;Node11</title>
<g id="a_edge12_Node000003_Node000011"><a xlink:title=" ">
<path fill="none" stroke="#63b8ff" d="M270.02,-124C280.99,-122.47 292.51,-120.87 303.56,-119.34"/>
<polygon fill="#63b8ff" stroke="#63b8ff" points="304.12,-122.79 313.54,-117.95 303.16,-115.86 304.12,-122.79"/>
</a>
</g>
</g>
<!-- Node12 -->
<g id="Node000012" class="node">
<title>Node12</title>
<g id="a_Node000012"><a xlink:href="classmonopoly_1_1Property.html#a199e7751d65d99c7ce443d9a782f4e2e" target="_top" xlink:title="Gets the property&#39;s purchase price.">
<polygon fill="white" stroke="#666666" points="415,-78 314,-78 314,-48 415,-48 415,-78"/>
<text text-anchor="start" x="322" y="-66" font-family="Helvetica,sans-Serif" font-size="10.00">monopoly::Property</text>
<text text-anchor="middle" x="364.5" y="-55" font-family="Helvetica,sans-Serif" font-size="10.00">::getPrice</text>
</a>
</g>
</g>
<!-- Node3&#45;&gt;Node12 -->
<g id="edge13_Node000003_Node000012" class="edge">
<title>Node3&#45;&gt;Node12</title>
<g id="a_edge13_Node000003_Node000012"><a xlink:title=" ">
<path fill="none" stroke="#63b8ff" d="M250.56,-116.95C257.11,-114.13 263.8,-111.08 270,-108 286.58,-99.75 289.42,-95.25 306,-87 309.29,-85.36 312.73,-83.73 316.2,-82.15"/>
<polygon fill="#63b8ff" stroke="#63b8ff" points="317.72,-85.3 325.44,-78.05 314.88,-78.9 317.72,-85.3"/>
</a>
</g>
</g>
<!-- Node13 -->
<g id="Node000013" class="node">
<title>Node13</title>
<g id="a_Node000013"><a xlink:href="classmonopoly_1_1Property.html#a431be9f07f9cc274ffa2c686bb1eb55e" target="_top" xlink:title="Checks if property is owned by a player (not the bank)">
<polygon fill="white" stroke="#666666" points="415,-30 314,-30 314,0 415,0 415,-30"/>
<text text-anchor="start" x="322" y="-18" font-family="Helvetica,sans-Serif" font-size="10.00">monopoly::Property</text>
<text text-anchor="middle" x="364.5" y="-7" font-family="Helvetica,sans-Serif" font-size="10.00">::isOwned</text>
</a>
</g>
</g>
<!-- Node3&#45;&gt;Node13 -->
<g id="edge14_Node000003_Node000013" class="edge">
<title>Node3&#45;&gt;Node13</title>
<g id="a_edge14_Node000003_Node000013"><a xlink:title=" ">
<path fill="none" stroke="#63b8ff" d="M257.7,-116.84C262.13,-114.3 266.33,-111.36 270,-108 295.48,-84.61 280.52,-62.39 306,-39 307.26,-37.84 308.58,-36.74 309.96,-35.68"/>
<polygon fill="#63b8ff" stroke="#63b8ff" points="311.89,-38.6 318.3,-30.16 308.03,-32.76 311.89,-38.6"/>
</a>
</g>
</g>
<!-- Node5&#45;&gt;Node4 -->
<g id="edge5_Node000005_Node000004" class="edge">
<title>Node5&#45;&gt;Node4</title>
<g id="a_edge5_Node000005_Node000004"><a xlink:title=" ">
<path fill="none" stroke="#63b8ff" d="M380.24,-212.2C397.53,-229.12 427.82,-256.06 459,-271 463.11,-272.97 467.44,-274.73 471.87,-276.3"/>
<polygon fill="#63b8ff" stroke="#63b8ff" points="471.1,-279.72 481.7,-279.44 473.24,-273.06 471.1,-279.72"/>
</a>
</g>
</g>
<!-- Node6 -->
<g id="Node000006" class="node">
<title>Node6</title>
<g id="a_Node000006"><a xlink:href="classmonopoly_1_1Street.html#a285ac818e3b1b75df0458c3928eddf7f" target="_top" xlink:title="Get the cost to build a house.">
<polygon fill="white" stroke="#666666" points="619,-261.5 459,-261.5 459,-242.5 619,-242.5 619,-261.5"/>
<text text-anchor="middle" x="539" y="-249.5" font-family="Helvetica,sans-Serif" font-size="10.00">monopoly::Street::getHouseCost</text>
</a>
</g>
</g>
<!-- Node5&#45;&gt;Node6 -->
<g id="edge6_Node000005_Node000006" class="edge">
<title>Node5&#45;&gt;Node6</title>
<g id="a_edge6_Node000005_Node000006"><a xlink:title=" ">
<path fill="none" stroke="#63b8ff" d="M400.12,-212.17C417.56,-219.43 439.16,-227.85 459,-234 465.93,-236.15 473.27,-238.16 480.58,-240"/>
<polygon fill="#63b8ff" stroke="#63b8ff" points="479.94,-243.45 490.48,-242.41 481.59,-236.65 479.94,-243.45"/>
</a>
</g>
</g>
<!-- Node7 -->
<g id="Node000007" class="node">
<title>Node7</title>
<g id="a_Node000007"><a xlink:href="classmonopoly_1_1Street.html#a5457f695453457b85a54bb83ca8a2597" target="_top" xlink:title="Get the number of houses.">
<polygon fill="white" stroke="#666666" points="611,-224.5 467,-224.5 467,-205.5 611,-205.5 611,-224.5"/>
<text text-anchor="middle" x="539" y="-212.5" font-family="Helvetica,sans-Serif" font-size="10.00">monopoly::Street::getHouses</text>
</a>
</g>
</g>
<!-- Node5&#45;&gt;Node7 -->
<g id="edge7_Node000005_Node000007" class="edge">
<title>Node5&#45;&gt;Node7</title>
<g id="a_edge7_Node000005_Node000007"><a xlink:title=" ">
<path fill="none" stroke="#63b8ff" d="M423.42,-203.04C434.06,-204.15 445.35,-205.33 456.53,-206.5"/>
<polygon fill="#63b8ff" stroke="#63b8ff" points="456.44,-210.01 466.75,-207.56 457.16,-203.05 456.44,-210.01"/>
</a>
</g>
</g>
<!-- Node5&#45;&gt;Node8 -->
<g id="edge8_Node000005_Node000008" class="edge">
<title>Node5&#45;&gt;Node8</title>
<g id="a_edge8_Node000005_Node000008"><a xlink:title=" ">
<path fill="none" stroke="#63b8ff" d="M402.68,-181.98C409.89,-178.07 417.04,-173.41 423,-168 445.18,-147.86 434.64,-128.45 459,-111 462.26,-108.66 465.77,-106.61 469.44,-104.81"/>
<polygon fill="#63b8ff" stroke="#63b8ff" points="470.98,-107.96 478.81,-100.83 468.24,-101.52 470.98,-107.96"/>
</a>
</g>
</g>
<!-- Node9 -->
<g id="Node000009" class="node">
<title>Node9</title>
<g id="a_Node000009"><a xlink:href="classmonopoly_1_1Square.html#a6245251a3e881d9066cf7558d8b0d793" target="_top" xlink:title="Gets the unique identifier of the square.">
<polygon fill="white" stroke="#666666" points="600.5,-187.5 477.5,-187.5 477.5,-168.5 600.5,-168.5 600.5,-187.5"/>
<text text-anchor="middle" x="539" y="-175.5" font-family="Helvetica,sans-Serif" font-size="10.00">monopoly::Square::getId</text>
</a>
</g>
</g>
<!-- Node5&#45;&gt;Node9 -->
<g id="edge9_Node000005_Node000009" class="edge">
<title>Node5&#45;&gt;Node9</title>
<g id="a_edge9_Node000005_Node000009"><a xlink:title=" ">
<path fill="none" stroke="#63b8ff" d="M423.42,-190.62C437.5,-189.07 452.7,-187.39 467.3,-185.79"/>
<polygon fill="#63b8ff" stroke="#63b8ff" points="467.73,-189.26 477.28,-184.69 466.96,-182.3 467.73,-189.26"/>
</a>
</g>
</g>
<!-- Node10 -->
<g id="Node000010" class="node">
<title>Node10</title>
<g id="a_Node000010"><a xlink:href="classmonopoly_1_1GameModel.html#aa5cb7ec7c6c8ba1f993594ed2d33f9dc" target="_top" xlink:title="Check if player has monopoly on property group.">
<polygon fill="white" stroke="#666666" points="597.5,-150 480.5,-150 480.5,-120 597.5,-120 597.5,-150"/>
<text text-anchor="start" x="488.5" y="-138" font-family="Helvetica,sans-Serif" font-size="10.00">monopoly::GameModel</text>
<text text-anchor="middle" x="539" y="-127" font-family="Helvetica,sans-Serif" font-size="10.00">::hasMonopoly</text>
</a>
</g>
</g>
<!-- Node5&#45;&gt;Node10 -->
<g id="edge10_Node000005_Node000010" class="edge">
<title>Node5&#45;&gt;Node10</title>
<g id="a_edge10_Node000005_Node000010"><a xlink:title=" ">
<path fill="none" stroke="#63b8ff" d="M401.69,-181.99C418.93,-175.02 439.92,-166.78 459,-160 465.37,-157.73 472.07,-155.46 478.76,-153.25"/>
<polygon fill="#63b8ff" stroke="#63b8ff" points="480.09,-156.5 488.52,-150.07 477.92,-149.84 480.09,-156.5"/>
</a>
</g>
</g>
</g>
</svg>

<g id="navigator" transform="translate(0 0)" fill="#404254">
  <rect fill="#f2f5e9" fill-opacity="0.5" stroke="#606060" stroke-width=".5" x="0" y="0" width="60" height="60"/>
  <use id="zoomplus" xlink:href="#zoomPlus" x="17" y="9" onmousedown="handleZoom(evt,'in')"/>
  <use id="zoomminus" xlink:href="#zoomMin" x="42" y="9" onmousedown="handleZoom(evt,'out')"/>
  <use id="reset" xlink:href="#resetDef" x="30" y="36" onmousedown="handleReset()"/>
   <use id="arrowup" xlink:href="#arrowUp" x="0" y="0" onmousedown="handlePan(0,-1)"/>
  <use id="arrowright" xlink:href="#arrowRight" x="0" y="0" onmousedown="handlePan(1,0)"/>
  <use id="arrowdown" xlink:href="#arrowDown" x="0" y="0" onmousedown="handlePan(0,1)"/>
  <use id="arrowleft" xlink:href="#arrowLeft" x="0" y="0" onmousedown="handlePan(-1,0)"/>
</g>
<svg viewBox="0 0 15 15" width="100%" height="30px" preserveAspectRatio="xMaxYMin meet">
 <g id="arrow_out" transform="scale(0.3 0.3)">
  <a xlink:href="classmonopoly_1_1GameModel_a5ee956b08d9a835512ea1dda80d2cca9_cgraph_org.svg" target="_base">
   <rect id="button" ry="5" rx="5" y="6" x="6" height="38" width="38"
        fill="#f2f5e9" fill-opacity="0.5" stroke="#606060" stroke-width="1.0"/>
   <path id="arrow"
     d="M 11.500037,31.436501 C 11.940474,20.09759 22.043105,11.32322 32.158766,21.979434 L 37.068811,17.246167 C 37.068811,17.246167 37.088388,32 37.088388,32 L 22.160133,31.978069 C 22.160133,31.978069 26.997745,27.140456 26.997745,27.140456 C 18.528582,18.264221 13.291696,25.230495 11.500037,31.436501 z"
     style="fill:#404040;"/>
  </a>
 </g>
</svg>

<style type='text/css'>
<![CDATA[
[data-mouse-over-selected='false'] { opacity: 0.7; }
[data-mouse-over-selected='true']  { opacity: 1.0; }
]]>
</style>
<script type="application/ecmascript"><![CDATA[
document.addEventListener('DOMContentLoaded', (event) => {
  highlightEdges();
  highlightAdjacentNodes();
});
]]></script>
</svg>
