<?xml version="1.0" encoding="UTF-8" standalone="no"?>
<!DOCTYPE svg PUBLIC "-//W3C//DTD SVG 1.1//EN"
 "http://www.w3.org/Graphics/SVG/1.1/DTD/svg11.dtd">
<!-- Generated by graphviz version 2.43.0 (0)
 -->
<!-- Title: monopoly::Player::canAfford Pages: 1 -->
<svg width="607pt" height="172pt"
 viewBox="0.00 0.00 607.00 172.00" xmlns="http://www.w3.org/2000/svg" xmlns:xlink="http://www.w3.org/1999/xlink">
<g id="graph0" class="graph" transform="scale(1 1) rotate(0) translate(4 168)">
<title>monopoly::Player::canAfford</title>
<!-- Node1 -->
<g id="Node000001" class="node">
<title>Node1</title>
<g id="a_Node000001"><a xlink:title="Checks if player can afford a payment.">
<polygon fill="#999999" stroke="#666666" points="599,-88.5 459,-88.5 459,-69.5 599,-69.5 599,-88.5"/>
<text text-anchor="middle" x="529" y="-76.5" font-family="Helvetica,sans-Serif" font-size="10.00">monopoly::Player::canAfford</text>
</a>
</g>
</g>
<!-- Node2 -->
<g id="Node000002" class="node">
<title>Node2</title>
<g id="a_Node000002"><a xlink:href="classmonopoly_1_1GameModel.html#aa29755bb0580af0466b18483e7e7175b" target="_top" xlink:title="Process property purchase.">
<polygon fill="white" stroke="#666666" points="423,-164 306,-164 306,-134 423,-134 423,-164"/>
<text text-anchor="start" x="314" y="-152" font-family="Helvetica,sans-Serif" font-size="10.00">monopoly::GameModel</text>
<text text-anchor="middle" x="364.5" y="-141" font-family="Helvetica,sans-Serif" font-size="10.00">::buyProperty</text>
</a>
</g>
</g>
<!-- Node1&#45;&gt;Node2 -->
<g id="edge1_Node000001_Node000002" class="edge">
<title>Node1&#45;&gt;Node2</title>
<g id="a_edge1_Node000001_Node000002"><a xlink:title=" ">
<path fill="none" stroke="#63b8ff" d="M497,-92.75C476.13,-101.97 447.96,-114.33 423,-125 416.14,-127.94 408.8,-131.03 401.73,-133.99"/>
<polygon fill="#63b8ff" stroke="#63b8ff" points="498.6,-95.87 506.33,-88.63 495.77,-89.47 498.6,-95.87"/>
</a>
</g>
</g>
<!-- Node3 -->
<g id="Node000003" class="node">
<title>Node3</title>
<g id="a_Node000003"><a xlink:href="classmonopoly_1_1GameModel.html#ad2cc951c35bb0f9d412e79adb790d510" target="_top" xlink:title="Check if houses can be built on street.">
<polygon fill="white" stroke="#666666" points="423,-116 306,-116 306,-86 423,-86 423,-116"/>
<text text-anchor="start" x="314" y="-104" font-family="Helvetica,sans-Serif" font-size="10.00">monopoly::GameModel</text>
<text text-anchor="middle" x="364.5" y="-93" font-family="Helvetica,sans-Serif" font-size="10.00">::canBuildOnStreet</text>
</a>
</g>
</g>
<!-- Node1&#45;&gt;Node3 -->
<g id="edge2_Node000001_Node000003" class="edge">
<title>Node1&#45;&gt;Node3</title>
<g id="a_edge2_Node000001_Node000003"><a xlink:title=" ">
<path fill="none" stroke="#63b8ff" d="M448.58,-89.75C440.01,-90.91 431.41,-92.08 423.16,-93.19"/>
<polygon fill="#63b8ff" stroke="#63b8ff" points="449.17,-93.2 458.61,-88.39 448.23,-86.27 449.17,-93.2"/>
</a>
</g>
</g>
<!-- Node4 -->
<g id="Node000004" class="node">
<title>Node4</title>
<g id="a_Node000004"><a xlink:href="classmonopoly_1_1GameModel.html#ac72ba97e17895b069ea84f783709e9e3" target="_top" xlink:title="Handle landing on property square.">
<polygon fill="white" stroke="#666666" points="270,-94 153,-94 153,-64 270,-64 270,-94"/>
<text text-anchor="start" x="161" y="-82" font-family="Helvetica,sans-Serif" font-size="10.00">monopoly::GameModel</text>
<text text-anchor="middle" x="211.5" y="-71" font-family="Helvetica,sans-Serif" font-size="10.00">::landOnProperty</text>
</a>
</g>
</g>
<!-- Node1&#45;&gt;Node4 -->
<g id="edge5_Node000001_Node000004" class="edge">
<title>Node1&#45;&gt;Node4</title>
<g id="a_edge5_Node000001_Node000004"><a xlink:title=" ">
<path fill="none" stroke="#63b8ff" d="M448.68,-77.33C440.01,-77.19 431.32,-77.08 423,-77 371,-76.5 358,-76.44 306,-77 294.47,-77.12 282.15,-77.33 270.35,-77.57"/>
<polygon fill="#63b8ff" stroke="#63b8ff" points="448.76,-80.83 458.81,-77.5 448.87,-73.83 448.76,-80.83"/>
</a>
</g>
</g>
<!-- Node6 -->
<g id="Node000006" class="node">
<title>Node6</title>
<g id="a_Node000006"><a xlink:href="classmonopoly_1_1GameModel.html#afa6e92bce1bc86814a13ee3466def16a" target="_top" xlink:title="Process rent payment.">
<polygon fill="white" stroke="#666666" points="423,-30 306,-30 306,0 423,0 423,-30"/>
<text text-anchor="start" x="314" y="-18" font-family="Helvetica,sans-Serif" font-size="10.00">monopoly::GameModel</text>
<text text-anchor="middle" x="364.5" y="-7" font-family="Helvetica,sans-Serif" font-size="10.00">::payRent</text>
</a>
</g>
</g>
<!-- Node1&#45;&gt;Node6 -->
<g id="edge6_Node000001_Node000006" class="edge">
<title>Node1&#45;&gt;Node6</title>
<g id="a_edge6_Node000001_Node000006"><a xlink:title=" ">
<path fill="none" stroke="#63b8ff" d="M494.09,-65.65C467.68,-55.24 431.02,-40.8 403.6,-30"/>
<polygon fill="#63b8ff" stroke="#63b8ff" points="493.09,-69.01 503.67,-69.42 495.65,-62.5 493.09,-69.01"/>
</a>
</g>
</g>
<!-- Node3&#45;&gt;Node4 -->
<g id="edge3_Node000003_Node000004" class="edge">
<title>Node3&#45;&gt;Node4</title>
<g id="a_edge3_Node000003_Node000004"><a xlink:title=" ">
<path fill="none" stroke="#63b8ff" d="M295.95,-91.16C287.32,-89.9 278.56,-88.62 270.11,-87.39"/>
<polygon fill="#63b8ff" stroke="#63b8ff" points="295.58,-94.64 305.98,-92.62 296.59,-87.71 295.58,-94.64"/>
</a>
</g>
</g>
<!-- Node5 -->
<g id="Node000005" class="node">
<title>Node5</title>
<g id="a_Node000005"><a xlink:href="classmonopoly_1_1GameModel.html#a5ee956b08d9a835512ea1dda80d2cca9" target="_top" xlink:title="Process landing on a square.">
<polygon fill="white" stroke="#666666" points="117,-94 0,-94 0,-64 117,-64 117,-94"/>
<text text-anchor="start" x="8" y="-82" font-family="Helvetica,sans-Serif" font-size="10.00">monopoly::GameModel</text>
<text text-anchor="middle" x="58.5" y="-71" font-family="Helvetica,sans-Serif" font-size="10.00">::landOn</text>
</a>
</g>
</g>
<!-- Node4&#45;&gt;Node5 -->
<g id="edge4_Node000004_Node000005" class="edge">
<title>Node4&#45;&gt;Node5</title>
<g id="a_edge4_Node000004_Node000005"><a xlink:title=" ">
<path fill="none" stroke="#63b8ff" d="M142.95,-79C134.32,-79 125.56,-79 117.11,-79"/>
<polygon fill="#63b8ff" stroke="#63b8ff" points="142.98,-82.5 152.98,-79 142.98,-75.5 142.98,-82.5"/>
</a>
</g>
</g>
</g>
</svg>
