<?xml version="1.0" encoding="UTF-8" standalone="no"?>
<!DOCTYPE svg PUBLIC "-//W3C//DTD SVG 1.1//EN"
 "http://www.w3.org/Graphics/SVG/1.1/DTD/svg11.dtd">
<!-- Generated by graphviz version 2.43.0 (0)
 -->
<!-- Title: monopoly::GameController::changeState Pages: 1 -->
<svg width="471pt" height="134pt"
 viewBox="0.00 0.00 471.00 134.00" xmlns="http://www.w3.org/2000/svg" xmlns:xlink="http://www.w3.org/1999/xlink">
<g id="graph0" class="graph" transform="scale(1 1) rotate(0) translate(4 130)">
<title>monopoly::GameController::changeState</title>
<!-- Node1 -->
<g id="Node000001" class="node">
<title>Node1</title>
<g id="a_Node000001"><a xlink:title="Change the current game state.">
<polygon fill="#999999" stroke="#666666" points="463,-54 330,-54 330,-24 463,-24 463,-54"/>
<text text-anchor="start" x="338" y="-42" font-family="Helvetica,sans-Serif" font-size="10.00">monopoly::GameController</text>
<text text-anchor="middle" x="396.5" y="-31" font-family="Helvetica,sans-Serif" font-size="10.00">::changeState</text>
</a>
</g>
</g>
<!-- Node2 -->
<g id="Node000002" class="node">
<title>Node2</title>
<g id="a_Node000002"><a xlink:href="classmonopoly_1_1GameState.html#aaa7ff9309d3c14dcf9c396f311189355" target="_top" xlink:title=" ">
<polygon fill="white" stroke="#666666" points="284.5,-78 170.5,-78 170.5,-48 284.5,-48 284.5,-78"/>
<text text-anchor="start" x="178.5" y="-66" font-family="Helvetica,sans-Serif" font-size="10.00">monopoly::GameState</text>
<text text-anchor="middle" x="227.5" y="-55" font-family="Helvetica,sans-Serif" font-size="10.00">::changeState</text>
</a>
</g>
</g>
<!-- Node1&#45;&gt;Node2 -->
<g id="edge1_Node000001_Node000002" class="edge">
<title>Node1&#45;&gt;Node2</title>
<g id="a_edge1_Node000001_Node000002"><a xlink:title=" ">
<path fill="none" stroke="#63b8ff" d="M320.05,-49.84C308.14,-51.55 296.01,-53.3 284.64,-54.93"/>
<polygon fill="#63b8ff" stroke="#63b8ff" points="320.58,-53.3 329.98,-48.42 319.58,-46.37 320.58,-53.3"/>
</a>
</g>
</g>
<!-- Node6 -->
<g id="Node000006" class="node">
<title>Node6</title>
<g id="a_Node000006"><a xlink:href="classmonopoly_1_1GameController.html#af789a6daae5794f97dd01f4f0f7f9a3e" target="_top" xlink:title="Constructor for GameController.">
<polygon fill="white" stroke="#666666" points="294,-30 161,-30 161,0 294,0 294,-30"/>
<text text-anchor="start" x="169" y="-18" font-family="Helvetica,sans-Serif" font-size="10.00">monopoly::GameController</text>
<text text-anchor="middle" x="227.5" y="-7" font-family="Helvetica,sans-Serif" font-size="10.00">::GameController</text>
</a>
</g>
</g>
<!-- Node1&#45;&gt;Node6 -->
<g id="edge5_Node000001_Node000006" class="edge">
<title>Node1&#45;&gt;Node6</title>
<g id="a_edge5_Node000001_Node000006"><a xlink:title=" ">
<path fill="none" stroke="#63b8ff" d="M319.93,-28.14C311.32,-26.9 302.58,-25.65 294.11,-24.43"/>
<polygon fill="#63b8ff" stroke="#63b8ff" points="319.58,-31.63 329.98,-29.58 320.58,-24.7 319.58,-31.63"/>
</a>
</g>
</g>
<!-- Node3 -->
<g id="Node000003" class="node">
<title>Node3</title>
<g id="a_Node000003"><a xlink:href="classmonopoly_1_1RollDiceState.html#a262a6a32b9cacaa7561f81a55ec1c1f3" target="_top" xlink:title=" ">
<polygon fill="white" stroke="#666666" points="125,-126 0,-126 0,-96 125,-96 125,-126"/>
<text text-anchor="start" x="8" y="-114" font-family="Helvetica,sans-Serif" font-size="10.00">monopoly::RollDiceState</text>
<text text-anchor="middle" x="62.5" y="-103" font-family="Helvetica,sans-Serif" font-size="10.00">::handleKeyRelease</text>
</a>
</g>
</g>
<!-- Node2&#45;&gt;Node3 -->
<g id="edge2_Node000002_Node000003" class="edge">
<title>Node2&#45;&gt;Node3</title>
<g id="a_edge2_Node000002_Node000003"><a xlink:title=" ">
<path fill="none" stroke="#63b8ff" d="M165.62,-80.93C148.77,-85.89 130.67,-91.22 114.45,-96"/>
<polygon fill="#63b8ff" stroke="#63b8ff" points="166.77,-84.24 175.37,-78.06 164.79,-77.52 166.77,-84.24"/>
</a>
</g>
</g>
<!-- Node4 -->
<g id="Node000004" class="node">
<title>Node4</title>
<g id="a_Node000004"><a xlink:href="classmonopoly_1_1StartState.html#a29dd8b5f385dd7a7dc08ab50c262f4b5" target="_top" xlink:title=" ">
<polygon fill="white" stroke="#666666" points="117,-78 8,-78 8,-48 117,-48 117,-78"/>
<text text-anchor="start" x="16" y="-66" font-family="Helvetica,sans-Serif" font-size="10.00">monopoly::StartState</text>
<text text-anchor="middle" x="62.5" y="-55" font-family="Helvetica,sans-Serif" font-size="10.00">::handleKeyRelease</text>
</a>
</g>
</g>
<!-- Node2&#45;&gt;Node4 -->
<g id="edge3_Node000002_Node000004" class="edge">
<title>Node2&#45;&gt;Node4</title>
<g id="a_edge3_Node000002_Node000004"><a xlink:title=" ">
<path fill="none" stroke="#63b8ff" d="M160.15,-63C145.87,-63 130.95,-63 117.22,-63"/>
<polygon fill="#63b8ff" stroke="#63b8ff" points="160.4,-66.5 170.4,-63 160.4,-59.5 160.4,-66.5"/>
</a>
</g>
</g>
<!-- Node5 -->
<g id="Node000005" class="node">
<title>Node5</title>
<g id="a_Node000005"><a xlink:href="classmonopoly_1_1TurnState.html#a402f9df8d45636a59abb1e3e75cd0650" target="_top" xlink:title=" ">
<polygon fill="white" stroke="#666666" points="116,-30 9,-30 9,0 116,0 116,-30"/>
<text text-anchor="start" x="17" y="-18" font-family="Helvetica,sans-Serif" font-size="10.00">monopoly::TurnState</text>
<text text-anchor="middle" x="62.5" y="-7" font-family="Helvetica,sans-Serif" font-size="10.00">::handleKeyRelease</text>
</a>
</g>
</g>
<!-- Node2&#45;&gt;Node5 -->
<g id="edge4_Node000002_Node000005" class="edge">
<title>Node2&#45;&gt;Node5</title>
<g id="a_edge4_Node000002_Node000005"><a xlink:title=" ">
<path fill="none" stroke="#63b8ff" d="M165.62,-45.07C148.77,-40.11 130.67,-34.78 114.45,-30"/>
<polygon fill="#63b8ff" stroke="#63b8ff" points="164.79,-48.48 175.37,-47.94 166.77,-41.76 164.79,-48.48"/>
</a>
</g>
</g>
</g>
</svg>
