<?xml version="1.0" encoding="UTF-8" standalone="no"?>
<!DOCTYPE svg PUBLIC "-//W3C//DTD SVG 1.1//EN"
 "http://www.w3.org/Graphics/SVG/1.1/DTD/svg11.dtd">
<!-- Generated by graphviz version 2.43.0 (0)
 -->
<!-- Title: monopoly::Player::decreaseBalance Pages: 1 -->
<svg width="299pt" height="134pt"
 viewBox="0.00 0.00 299.00 134.00" xmlns="http://www.w3.org/2000/svg" xmlns:xlink="http://www.w3.org/1999/xlink">
<g id="graph0" class="graph" transform="scale(1 1) rotate(0) translate(4 130)">
<title>monopoly::Player::decreaseBalance</title>
<!-- Node1 -->
<g id="Node000001" class="node">
<title>Node1</title>
<g id="a_Node000001"><a xlink:title="Attempts to decrease player&#39;s balance.">
<polygon fill="#999999" stroke="#666666" points="291,-78 153,-78 153,-48 291,-48 291,-78"/>
<text text-anchor="start" x="161" y="-66" font-family="Helvetica,sans-Serif" font-size="10.00">monopoly::Player::decrease</text>
<text text-anchor="middle" x="222" y="-55" font-family="Helvetica,sans-Serif" font-size="10.00">Balance</text>
</a>
</g>
</g>
<!-- Node2 -->
<g id="Node000002" class="node">
<title>Node2</title>
<g id="a_Node000002"><a xlink:href="classmonopoly_1_1GameModel.html#aa29755bb0580af0466b18483e7e7175b" target="_top" xlink:title="Process property purchase.">
<polygon fill="white" stroke="#666666" points="117,-126 0,-126 0,-96 117,-96 117,-126"/>
<text text-anchor="start" x="8" y="-114" font-family="Helvetica,sans-Serif" font-size="10.00">monopoly::GameModel</text>
<text text-anchor="middle" x="58.5" y="-103" font-family="Helvetica,sans-Serif" font-size="10.00">::buyProperty</text>
</a>
</g>
</g>
<!-- Node1&#45;&gt;Node2 -->
<g id="edge1_Node000001_Node000002" class="edge">
<title>Node1&#45;&gt;Node2</title>
<g id="a_edge1_Node000001_Node000002"><a xlink:title=" ">
<path fill="none" stroke="#63b8ff" d="M160.68,-80.93C143.99,-85.89 126.05,-91.22 109.98,-96"/>
<polygon fill="#63b8ff" stroke="#63b8ff" points="161.76,-84.26 170.34,-78.06 159.76,-77.55 161.76,-84.26"/>
</a>
</g>
</g>
<!-- Node3 -->
<g id="Node000003" class="node">
<title>Node3</title>
<g id="a_Node000003"><a xlink:href="classmonopoly_1_1GameModel.html#ac7a033e7a528dba369173c3d53addbbe" target="_top" xlink:title="Process fine payment.">
<polygon fill="white" stroke="#666666" points="117,-78 0,-78 0,-48 117,-48 117,-78"/>
<text text-anchor="start" x="8" y="-66" font-family="Helvetica,sans-Serif" font-size="10.00">monopoly::GameModel</text>
<text text-anchor="middle" x="58.5" y="-55" font-family="Helvetica,sans-Serif" font-size="10.00">::payFine</text>
</a>
</g>
</g>
<!-- Node1&#45;&gt;Node3 -->
<g id="edge2_Node000001_Node000003" class="edge">
<title>Node1&#45;&gt;Node3</title>
<g id="a_edge2_Node000001_Node000003"><a xlink:title=" ">
<path fill="none" stroke="#63b8ff" d="M142.87,-63C134.23,-63 125.55,-63 117.22,-63"/>
<polygon fill="#63b8ff" stroke="#63b8ff" points="142.98,-66.5 152.98,-63 142.98,-59.5 142.98,-66.5"/>
</a>
</g>
</g>
<!-- Node4 -->
<g id="Node000004" class="node">
<title>Node4</title>
<g id="a_Node000004"><a xlink:href="classmonopoly_1_1GameModel.html#afa6e92bce1bc86814a13ee3466def16a" target="_top" xlink:title="Process rent payment.">
<polygon fill="white" stroke="#666666" points="117,-30 0,-30 0,0 117,0 117,-30"/>
<text text-anchor="start" x="8" y="-18" font-family="Helvetica,sans-Serif" font-size="10.00">monopoly::GameModel</text>
<text text-anchor="middle" x="58.5" y="-7" font-family="Helvetica,sans-Serif" font-size="10.00">::payRent</text>
</a>
</g>
</g>
<!-- Node1&#45;&gt;Node4 -->
<g id="edge3_Node000001_Node000004" class="edge">
<title>Node1&#45;&gt;Node4</title>
<g id="a_edge3_Node000001_Node000004"><a xlink:title=" ">
<path fill="none" stroke="#63b8ff" d="M160.68,-45.07C143.99,-40.11 126.05,-34.78 109.98,-30"/>
<polygon fill="#63b8ff" stroke="#63b8ff" points="159.76,-48.45 170.34,-47.94 161.76,-41.74 159.76,-48.45"/>
</a>
</g>
</g>
</g>
</svg>
