<?xml version="1.0" encoding="UTF-8" standalone="no"?>
<!DOCTYPE svg PUBLIC "-//W3C//DTD SVG 1.1//EN"
 "http://www.w3.org/Graphics/SVG/1.1/DTD/svg11.dtd">
<!-- Generated by graphviz version 2.43.0 (0)
 -->
<!-- Title: monopoly::Player::canAfford Pages: 1 -->
<!--zoomable 172 -->

<svg id="main" version="1.1" xmlns="http://www.w3.org/2000/svg" xmlns:xlink="http://www.w3.org/1999/xlink" xml:space="preserve" onload="init(evt)">
<style type="text/css"><![CDATA[
.node, .edge {opacity: 0.7;}
.node.selected, .edge.selected {opacity: 1;}
.edge:hover path { stroke: red; }
.edge:hover polygon { stroke: red; fill: red; }
]]></style>

<defs>
  <circle id="rim" cx="0" cy="0" r="7"/>
  <circle id="rim2" cx="0" cy="0" r="3.5"/>
  <g id="zoomPlus">
    <use xlink:href="#rim" fill="#404040"><set attributeName="fill" to="#808080" begin="zoomplus.mouseover" end="zoomplus.mouseout"/></use>
    <path d="M-4,0h8M0,-4v8" fill="none" stroke="white" stroke-width="1.5" pointer-events="none"/>
  </g>
  <g id="zoomMin">
    <use xlink:href="#rim" fill="#404040"><set attributeName="fill" to="#808080" begin="zoomminus.mouseover" end="zoomminus.mouseout"/></use>
    <path d="M-4,0h8" fill="none" stroke="white" stroke-width="1.5" pointer-events="none"/>
  </g>
  <g id="arrowUp" transform="translate(30 24)">
    <use xlink:href="#rim"/>
    <path pointer-events="none" fill="none" stroke="white" stroke-width="1.5" d="M0,-3.0v7 M-2.5,-0.5L0,-3.0L2.5,-0.5"/>
  </g>
  <g id="arrowRight" transform="rotate(90) translate(36 -43)">
    <use xlink:href="#rim"/>
    <path pointer-events="none" fill="none" stroke="white" stroke-width="1.5" d="M0,-3.0v7 M-2.5,-0.5L0,-3.0L2.5,-0.5"/>
  </g>
  <g id="arrowDown" transform="rotate(180) translate(-30 -48)">
    <use xlink:href="#rim"/>
    <path pointer-events="none" fill="none" stroke="white" stroke-width="1.5" d="M0,-3.0v7 M-2.5,-0.5L0,-3.0L2.5,-0.5"/>
  </g>
  <g id="arrowLeft" transform="rotate(270) translate(-36 17)">
    <use xlink:href="#rim"/>
    <path pointer-events="none" fill="none" stroke="white" stroke-width="1.5" d="M0,-3.0v7 M-2.5,-0.5L0,-3.0L2.5,-0.5"/>
  </g>
  <g id="resetDef">
    <use xlink:href="#rim2" fill="#404040"><set attributeName="fill" to="#808080" begin="reset.mouseover" end="reset.mouseout"/></use>
  </g>
</defs>
<script type="application/ecmascript">
var viewWidth = 607;
var viewHeight = 172;
var sectionId = 'dynsection-1';
</script>
<script type="application/ecmascript" xlink:href="svg.min.js"/>
<svg id="graph" class="graph">
<g id="viewport">
<title>monopoly::Player::canAfford</title>
<!-- Node1 -->
<g id="Node000001" class="node">
<title>Node1</title>
<g id="a_Node000001"><a xlink:title="Checks if player can afford a payment.">
<polygon fill="#999999" stroke="#666666" points="599,-88.5 459,-88.5 459,-69.5 599,-69.5 599,-88.5"/>
<text text-anchor="middle" x="529" y="-76.5" font-family="Helvetica,sans-Serif" font-size="10.00">monopoly::Player::canAfford</text>
</a>
</g>
</g>
<!-- Node2 -->
<g id="Node000002" class="node">
<title>Node2</title>
<g id="a_Node000002"><a xlink:href="classmonopoly_1_1GameModel.html#aa29755bb0580af0466b18483e7e7175b" target="_top" xlink:title="Process property purchase.">
<polygon fill="white" stroke="#666666" points="423,-164 306,-164 306,-134 423,-134 423,-164"/>
<text text-anchor="start" x="314" y="-152" font-family="Helvetica,sans-Serif" font-size="10.00">monopoly::GameModel</text>
<text text-anchor="middle" x="364.5" y="-141" font-family="Helvetica,sans-Serif" font-size="10.00">::buyProperty</text>
</a>
</g>
</g>
<!-- Node1&#45;&gt;Node2 -->
<g id="edge1_Node000001_Node000002" class="edge">
<title>Node1&#45;&gt;Node2</title>
<g id="a_edge1_Node000001_Node000002"><a xlink:title=" ">
<path fill="none" stroke="#63b8ff" d="M497,-92.75C476.13,-101.97 447.96,-114.33 423,-125 416.14,-127.94 408.8,-131.03 401.73,-133.99"/>
<polygon fill="#63b8ff" stroke="#63b8ff" points="498.6,-95.87 506.33,-88.63 495.77,-89.47 498.6,-95.87"/>
</a>
</g>
</g>
<!-- Node3 -->
<g id="Node000003" class="node">
<title>Node3</title>
<g id="a_Node000003"><a xlink:href="classmonopoly_1_1GameModel.html#ad2cc951c35bb0f9d412e79adb790d510" target="_top" xlink:title="Check if houses can be built on street.">
<polygon fill="white" stroke="#666666" points="423,-116 306,-116 306,-86 423,-86 423,-116"/>
<text text-anchor="start" x="314" y="-104" font-family="Helvetica,sans-Serif" font-size="10.00">monopoly::GameModel</text>
<text text-anchor="middle" x="364.5" y="-93" font-family="Helvetica,sans-Serif" font-size="10.00">::canBuildOnStreet</text>
</a>
</g>
</g>
<!-- Node1&#45;&gt;Node3 -->
<g id="edge2_Node000001_Node000003" class="edge">
<title>Node1&#45;&gt;Node3</title>
<g id="a_edge2_Node000001_Node000003"><a xlink:title=" ">
<path fill="none" stroke="#63b8ff" d="M448.58,-89.75C440.01,-90.91 431.41,-92.08 423.16,-93.19"/>
<polygon fill="#63b8ff" stroke="#63b8ff" points="449.17,-93.2 458.61,-88.39 448.23,-86.27 449.17,-93.2"/>
</a>
</g>
</g>
<!-- Node4 -->
<g id="Node000004" class="node">
<title>Node4</title>
<g id="a_Node000004"><a xlink:href="classmonopoly_1_1GameModel.html#ac72ba97e17895b069ea84f783709e9e3" target="_top" xlink:title="Handle landing on property square.">
<polygon fill="white" stroke="#666666" points="270,-94 153,-94 153,-64 270,-64 270,-94"/>
<text text-anchor="start" x="161" y="-82" font-family="Helvetica,sans-Serif" font-size="10.00">monopoly::GameModel</text>
<text text-anchor="middle" x="211.5" y="-71" font-family="Helvetica,sans-Serif" font-size="10.00">::landOnProperty</text>
</a>
</g>
</g>
<!-- Node1&#45;&gt;Node4 -->
<g id="edge5_Node000001_Node000004" class="edge">
<title>Node1&#45;&gt;Node4</title>
<g id="a_edge5_Node000001_Node000004"><a xlink:title=" ">
<path fill="none" stroke="#63b8ff" d="M448.68,-77.33C440.01,-77.19 431.32,-77.08 423,-77 371,-76.5 358,-76.44 306,-77 294.47,-77.12 282.15,-77.33 270.35,-77.57"/>
<polygon fill="#63b8ff" stroke="#63b8ff" points="448.76,-80.83 458.81,-77.5 448.87,-73.83 448.76,-80.83"/>
</a>
</g>
</g>
<!-- Node6 -->
<g id="Node000006" class="node">
<title>Node6</title>
<g id="a_Node000006"><a xlink:href="classmonopoly_1_1GameModel.html#afa6e92bce1bc86814a13ee3466def16a" target="_top" xlink:title="Process rent payment.">
<polygon fill="white" stroke="#666666" points="423,-30 306,-30 306,0 423,0 423,-30"/>
<text text-anchor="start" x="314" y="-18" font-family="Helvetica,sans-Serif" font-size="10.00">monopoly::GameModel</text>
<text text-anchor="middle" x="364.5" y="-7" font-family="Helvetica,sans-Serif" font-size="10.00">::payRent</text>
</a>
</g>
</g>
<!-- Node1&#45;&gt;Node6 -->
<g id="edge6_Node000001_Node000006" class="edge">
<title>Node1&#45;&gt;Node6</title>
<g id="a_edge6_Node000001_Node000006"><a xlink:title=" ">
<path fill="none" stroke="#63b8ff" d="M494.09,-65.65C467.68,-55.24 431.02,-40.8 403.6,-30"/>
<polygon fill="#63b8ff" stroke="#63b8ff" points="493.09,-69.01 503.67,-69.42 495.65,-62.5 493.09,-69.01"/>
</a>
</g>
</g>
<!-- Node3&#45;&gt;Node4 -->
<g id="edge3_Node000003_Node000004" class="edge">
<title>Node3&#45;&gt;Node4</title>
<g id="a_edge3_Node000003_Node000004"><a xlink:title=" ">
<path fill="none" stroke="#63b8ff" d="M295.95,-91.16C287.32,-89.9 278.56,-88.62 270.11,-87.39"/>
<polygon fill="#63b8ff" stroke="#63b8ff" points="295.58,-94.64 305.98,-92.62 296.59,-87.71 295.58,-94.64"/>
</a>
</g>
</g>
<!-- Node5 -->
<g id="Node000005" class="node">
<title>Node5</title>
<g id="a_Node000005"><a xlink:href="classmonopoly_1_1GameModel.html#a5ee956b08d9a835512ea1dda80d2cca9" target="_top" xlink:title="Process landing on a square.">
<polygon fill="white" stroke="#666666" points="117,-94 0,-94 0,-64 117,-64 117,-94"/>
<text text-anchor="start" x="8" y="-82" font-family="Helvetica,sans-Serif" font-size="10.00">monopoly::GameModel</text>
<text text-anchor="middle" x="58.5" y="-71" font-family="Helvetica,sans-Serif" font-size="10.00">::landOn</text>
</a>
</g>
</g>
<!-- Node4&#45;&gt;Node5 -->
<g id="edge4_Node000004_Node000005" class="edge">
<title>Node4&#45;&gt;Node5</title>
<g id="a_edge4_Node000004_Node000005"><a xlink:title=" ">
<path fill="none" stroke="#63b8ff" d="M142.95,-79C134.32,-79 125.56,-79 117.11,-79"/>
<polygon fill="#63b8ff" stroke="#63b8ff" points="142.98,-82.5 152.98,-79 142.98,-75.5 142.98,-82.5"/>
</a>
</g>
</g>
</g>
</svg>

<g id="navigator" transform="translate(0 0)" fill="#404254">
  <rect fill="#f2f5e9" fill-opacity="0.5" stroke="#606060" stroke-width=".5" x="0" y="0" width="60" height="60"/>
  <use id="zoomplus" xlink:href="#zoomPlus" x="17" y="9" onmousedown="handleZoom(evt,'in')"/>
  <use id="zoomminus" xlink:href="#zoomMin" x="42" y="9" onmousedown="handleZoom(evt,'out')"/>
  <use id="reset" xlink:href="#resetDef" x="30" y="36" onmousedown="handleReset()"/>
   <use id="arrowup" xlink:href="#arrowUp" x="0" y="0" onmousedown="handlePan(0,-1)"/>
  <use id="arrowright" xlink:href="#arrowRight" x="0" y="0" onmousedown="handlePan(1,0)"/>
  <use id="arrowdown" xlink:href="#arrowDown" x="0" y="0" onmousedown="handlePan(0,1)"/>
  <use id="arrowleft" xlink:href="#arrowLeft" x="0" y="0" onmousedown="handlePan(-1,0)"/>
</g>
<svg viewBox="0 0 15 15" width="100%" height="30px" preserveAspectRatio="xMaxYMin meet">
 <g id="arrow_out" transform="scale(0.3 0.3)">
  <a xlink:href="classmonopoly_1_1Player_a3ac4e53730a8d5f12ee3f9ffd1d9e528_icgraph_org.svg" target="_base">
   <rect id="button" ry="5" rx="5" y="6" x="6" height="38" width="38"
        fill="#f2f5e9" fill-opacity="0.5" stroke="#606060" stroke-width="1.0"/>
   <path id="arrow"
     d="M 11.500037,31.436501 C 11.940474,20.09759 22.043105,11.32322 32.158766,21.979434 L 37.068811,17.246167 C 37.068811,17.246167 37.088388,32 37.088388,32 L 22.160133,31.978069 C 22.160133,31.978069 26.997745,27.140456 26.997745,27.140456 C 18.528582,18.264221 13.291696,25.230495 11.500037,31.436501 z"
     style="fill:#404040;"/>
  </a>
 </g>
</svg>

<style type='text/css'>
<![CDATA[
[data-mouse-over-selected='false'] { opacity: 0.7; }
[data-mouse-over-selected='true']  { opacity: 1.0; }
]]>
</style>
<script type="application/ecmascript"><![CDATA[
document.addEventListener('DOMContentLoaded', (event) => {
  highlightEdges();
  highlightAdjacentNodes();
});
]]></script>
</svg>
