<?xml version="1.0" encoding="UTF-8" standalone="no"?>
<!DOCTYPE svg PUBLIC "-//W3C//DTD SVG 1.1//EN"
 "http://www.w3.org/Graphics/SVG/1.1/DTD/svg11.dtd">
<!-- Generated by graphviz version 2.43.0 (0)
 -->
<!-- Title: SFComponent::contains Pages: 1 -->
<svg width="312pt" height="284pt"
 viewBox="0.00 0.00 312.00 284.00" xmlns="http://www.w3.org/2000/svg" xmlns:xlink="http://www.w3.org/1999/xlink">
<g id="graph0" class="graph" transform="scale(1 1) rotate(0) translate(4 280)">
<title>SFComponent::contains</title>
<!-- Node1 -->
<g id="Node000001" class="node">
<title>Node1</title>
<g id="a_Node000001"><a xlink:title=" ">
<polygon fill="#999999" stroke="#666666" points="304,-141.5 182,-141.5 182,-122.5 304,-122.5 304,-141.5"/>
<text text-anchor="middle" x="243" y="-129.5" font-family="Helvetica,sans-Serif" font-size="10.00">SFComponent::contains</text>
</a>
</g>
</g>
<!-- Node2 -->
<g id="Node000002" class="node">
<title>Node2</title>
<g id="a_Node000002"><a xlink:href="classmonopoly_1_1BoardView.html#a6c451eaac2ded0dc1e8fba8991f2c07b" target="_top" xlink:title=" ">
<polygon fill="white" stroke="#666666" points="129,-276 17,-276 17,-246 129,-246 129,-276"/>
<text text-anchor="start" x="25" y="-264" font-family="Helvetica,sans-Serif" font-size="10.00">monopoly::BoardView</text>
<text text-anchor="middle" x="73" y="-253" font-family="Helvetica,sans-Serif" font-size="10.00">::handleEvent</text>
</a>
</g>
</g>
<!-- Node1&#45;&gt;Node2 -->
<g id="edge1_Node000001_Node000002" class="edge">
<title>Node1&#45;&gt;Node2</title>
<g id="a_edge1_Node000001_Node000002"><a xlink:title=" ">
<path fill="none" stroke="#63b8ff" d="M230.08,-149.89C213.73,-173.13 182.21,-213.49 146,-237 140.81,-240.37 135.09,-243.32 129.23,-245.87"/>
<polygon fill="#63b8ff" stroke="#63b8ff" points="232.98,-151.85 235.77,-141.63 227.22,-147.88 232.98,-151.85"/>
</a>
</g>
</g>
<!-- Node3 -->
<g id="Node000003" class="node">
<title>Node3</title>
<g id="a_Node000003"><a xlink:href="classButton.html#a41f4c56f496aaf6d9f826a9bf388568e" target="_top" xlink:title=" ">
<polygon fill="white" stroke="#666666" points="125.5,-227.5 20.5,-227.5 20.5,-208.5 125.5,-208.5 125.5,-227.5"/>
<text text-anchor="middle" x="73" y="-215.5" font-family="Helvetica,sans-Serif" font-size="10.00">Button::handleEvent</text>
</a>
</g>
</g>
<!-- Node1&#45;&gt;Node3 -->
<g id="edge2_Node000001_Node000003" class="edge">
<title>Node1&#45;&gt;Node3</title>
<g id="a_edge2_Node000001_Node000003"><a xlink:title=" ">
<path fill="none" stroke="#63b8ff" d="M223.07,-148.26C204.55,-163.4 174.98,-185.58 146,-199 137.91,-202.75 128.94,-205.86 120.17,-208.4"/>
<polygon fill="#63b8ff" stroke="#63b8ff" points="225.54,-150.75 230.99,-141.66 221.06,-145.37 225.54,-150.75"/>
</a>
</g>
</g>
<!-- Node4 -->
<g id="Node000004" class="node">
<title>Node4</title>
<g id="a_Node000004"><a xlink:href="classFreeParkingSquare.html#a9624607091698b99f8b3310b67c9536c" target="_top" xlink:title=" ">
<polygon fill="white" stroke="#666666" points="126,-190 20,-190 20,-160 126,-160 126,-190"/>
<text text-anchor="start" x="28" y="-178" font-family="Helvetica,sans-Serif" font-size="10.00">FreeParkingSquare::</text>
<text text-anchor="middle" x="73" y="-167" font-family="Helvetica,sans-Serif" font-size="10.00">handleEvent</text>
</a>
</g>
</g>
<!-- Node1&#45;&gt;Node4 -->
<g id="edge3_Node000001_Node000004" class="edge">
<title>Node1&#45;&gt;Node4</title>
<g id="a_edge3_Node000001_Node000004"><a xlink:title=" ">
<path fill="none" stroke="#63b8ff" d="M194.88,-144.06C173.49,-149.54 148.12,-156.03 126.15,-161.65"/>
<polygon fill="#63b8ff" stroke="#63b8ff" points="195.9,-147.41 204.72,-141.54 194.16,-140.63 195.9,-147.41"/>
</a>
</g>
</g>
<!-- Node5 -->
<g id="Node000005" class="node">
<title>Node5</title>
<g id="a_Node000005"><a xlink:href="classGoSquare.html#ae965d558cc67d739b936a05dbf4a133a" target="_top" xlink:title=" ">
<polygon fill="white" stroke="#666666" points="133,-141.5 13,-141.5 13,-122.5 133,-122.5 133,-141.5"/>
<text text-anchor="middle" x="73" y="-129.5" font-family="Helvetica,sans-Serif" font-size="10.00">GoSquare::handleEvent</text>
</a>
</g>
</g>
<!-- Node1&#45;&gt;Node5 -->
<g id="edge4_Node000001_Node000005" class="edge">
<title>Node1&#45;&gt;Node5</title>
<g id="a_edge4_Node000001_Node000005"><a xlink:title=" ">
<path fill="none" stroke="#63b8ff" d="M171.67,-132C158.87,-132 145.63,-132 133.19,-132"/>
<polygon fill="#63b8ff" stroke="#63b8ff" points="171.82,-135.5 181.82,-132 171.82,-128.5 171.82,-135.5"/>
</a>
</g>
</g>
<!-- Node6 -->
<g id="Node000006" class="node">
<title>Node6</title>
<g id="a_Node000006"><a xlink:href="classGoToJailSquare.html#a7afeeb2c873adc2716ab717b750667b3" target="_top" xlink:title=" ">
<polygon fill="white" stroke="#666666" points="146,-104.5 0,-104.5 0,-85.5 146,-85.5 146,-104.5"/>
<text text-anchor="middle" x="73" y="-92.5" font-family="Helvetica,sans-Serif" font-size="10.00">GoToJailSquare::handleEvent</text>
</a>
</g>
</g>
<!-- Node1&#45;&gt;Node6 -->
<g id="edge5_Node000001_Node000006" class="edge">
<title>Node1&#45;&gt;Node6</title>
<g id="a_edge5_Node000001_Node000006"><a xlink:title=" ">
<path fill="none" stroke="#63b8ff" d="M188.78,-120.28C165.78,-115.21 139.2,-109.36 117.41,-104.56"/>
<polygon fill="#63b8ff" stroke="#63b8ff" points="188.22,-123.74 198.74,-122.47 189.72,-116.9 188.22,-123.74"/>
</a>
</g>
</g>
<!-- Node7 -->
<g id="Node000007" class="node">
<title>Node7</title>
<g id="a_Node000007"><a xlink:href="classJailSquare.html#a153ee740d66eebc222163e9f0cccfcd3" target="_top" xlink:title=" ">
<polygon fill="white" stroke="#666666" points="134,-67.5 12,-67.5 12,-48.5 134,-48.5 134,-67.5"/>
<text text-anchor="middle" x="73" y="-55.5" font-family="Helvetica,sans-Serif" font-size="10.00">JailSquare::handleEvent</text>
</a>
</g>
</g>
<!-- Node1&#45;&gt;Node7 -->
<g id="edge6_Node000001_Node000007" class="edge">
<title>Node1&#45;&gt;Node7</title>
<g id="a_edge6_Node000001_Node000007"><a xlink:title=" ">
<path fill="none" stroke="#63b8ff" d="M219.46,-116.82C200.53,-104.63 172.42,-87.83 146,-77 137.03,-73.32 127.13,-70.17 117.63,-67.55"/>
<polygon fill="#63b8ff" stroke="#63b8ff" points="217.68,-119.84 227.97,-122.38 221.51,-113.98 217.68,-119.84"/>
</a>
</g>
</g>
<!-- Node8 -->
<g id="Node000008" class="node">
<title>Node8</title>
<g id="a_Node000008"><a xlink:href="classPlayerTokenComponent.html#a7ca63dfa0c88d540a2ee2a0e3544b04b" target="_top" xlink:title=" ">
<polygon fill="white" stroke="#666666" points="133.5,-30 12.5,-30 12.5,0 133.5,0 133.5,-30"/>
<text text-anchor="start" x="20.5" y="-18" font-family="Helvetica,sans-Serif" font-size="10.00">PlayerTokenComponent</text>
<text text-anchor="middle" x="73" y="-7" font-family="Helvetica,sans-Serif" font-size="10.00">::handleEvent</text>
</a>
</g>
</g>
<!-- Node1&#45;&gt;Node8 -->
<g id="edge7_Node000001_Node000008" class="edge">
<title>Node1&#45;&gt;Node8</title>
<g id="a_edge7_Node000001_Node000008"><a xlink:title=" ">
<path fill="none" stroke="#63b8ff" d="M227.76,-114.36C210.41,-93.89 179.25,-60.35 146,-40 139.79,-36.2 132.93,-32.88 125.98,-30.01"/>
<polygon fill="#63b8ff" stroke="#63b8ff" points="225.24,-116.8 234.32,-122.25 230.63,-112.32 225.24,-116.8"/>
</a>
</g>
</g>
</g>
</svg>
