<?xml version="1.0" encoding="UTF-8" standalone="no"?>
<!DOCTYPE svg PUBLIC "-//W3C//DTD SVG 1.1//EN"
 "http://www.w3.org/Graphics/SVG/1.1/DTD/svg11.dtd">
<!-- Generated by graphviz version 2.43.0 (0)
 -->
<!-- Title: StrategyRentCalculator Pages: 1 -->
<svg width="405pt" height="187pt"
 viewBox="0.00 0.00 404.50 187.00" xmlns="http://www.w3.org/2000/svg" xmlns:xlink="http://www.w3.org/1999/xlink">
<g id="graph0" class="graph" transform="scale(1 1) rotate(0) translate(4 183)">
<title>StrategyRentCalculator</title>
<!-- Node1 -->
<g id="Node000001" class="node">
<title>Node1</title>
<g id="a_Node000001"><a xlink:title=" ">
<polygon fill="#999999" stroke="transparent" points="270.5,-179 136.5,-179 136.5,-115 270.5,-115 270.5,-179"/>
<text text-anchor="start" x="152" y="-167" font-family="Helvetica,sans-Serif" font-size="10.00">StrategyRentCalculator</text>
<text text-anchor="start" x="201.5" y="-152" font-family="Helvetica,sans-Serif" font-size="10.00"> </text>
<text text-anchor="start" x="140.5" y="-137" font-family="Helvetica,sans-Serif" font-size="10.00">+</text>
<text text-anchor="start" x="151.5" y="-137" font-family="Helvetica,sans-Serif" font-size="10.00">~StrategyRentCalculator()</text>
<text text-anchor="start" x="140.5" y="-122" font-family="Helvetica,sans-Serif" font-size="10.00">+</text>
<text text-anchor="start" x="151.5" y="-122" font-family="Helvetica,sans-Serif" font-size="10.00">calculateRent()</text>
<polygon fill="#666666" stroke="#666666" points="136.5,-162 136.5,-162 270.5,-162 270.5,-162 136.5,-162"/>
<polygon fill="#666666" stroke="#666666" points="136.5,-147 136.5,-147 270.5,-147 270.5,-147 136.5,-147"/>
<polygon fill="none" stroke="#666666" points="136.5,-115 136.5,-179 270.5,-179 270.5,-115 136.5,-115"/>
</a>
</g>
</g>
<!-- Node2 -->
<g id="Node000002" class="node">
<title>Node2</title>
<g id="a_Node000002"><a xlink:href="classRailroadRentCalculator.html" target="_top" xlink:title=" ">
<polygon fill="white" stroke="transparent" points="127,-79 0,-79 0,0 127,0 127,-79"/>
<text text-anchor="start" x="13" y="-66.5" font-family="Helvetica,sans-Serif" font-size="10.00">RailroadRentCalculator</text>
<text text-anchor="start" x="6" y="-51.5" font-family="Helvetica,sans-Serif" font-size="10.00">&#45;</text>
<text text-anchor="start" x="15.5" y="-51.5" font-family="Helvetica,sans-Serif" font-size="10.00">baseRent</text>
<text text-anchor="start" x="6" y="-36.5" font-family="Helvetica,sans-Serif" font-size="10.00">&#45;</text>
<text text-anchor="start" x="15.5" y="-36.5" font-family="Helvetica,sans-Serif" font-size="10.00">ownedRailroads</text>
<text text-anchor="start" x="4.5" y="-21.5" font-family="Helvetica,sans-Serif" font-size="10.00">+</text>
<text text-anchor="start" x="15.5" y="-21.5" font-family="Helvetica,sans-Serif" font-size="10.00">RailroadRentCalculator()</text>
<text text-anchor="start" x="4.5" y="-6.5" font-family="Helvetica,sans-Serif" font-size="10.00">+</text>
<text text-anchor="start" x="15.5" y="-6.5" font-family="Helvetica,sans-Serif" font-size="10.00">calculateRent()</text>
<polygon fill="#666666" stroke="#666666" points="0.5,-61.5 0.5,-61.5 127.5,-61.5 127.5,-61.5 0.5,-61.5"/>
<polygon fill="#666666" stroke="#666666" points="0.5,-31.5 0.5,-31.5 13.5,-31.5 13.5,-31.5 0.5,-31.5"/>
<polygon fill="#666666" stroke="#666666" points="13.5,-31.5 13.5,-31.5 127.5,-31.5 127.5,-31.5 13.5,-31.5"/>
<polygon fill="none" stroke="#666666" points="0,0 0,-79 127,-79 127,0 0,0"/>
</a>
</g>
</g>
<!-- Node1&#45;&gt;Node2 -->
<g id="edge1_Node000001_Node000002" class="edge">
<title>Node1&#45;&gt;Node2</title>
<g id="a_edge1_Node000001_Node000002"><a xlink:title=" ">
<path fill="none" stroke="#63b8ff" d="M154.02,-108.72C141.25,-99.09 127.48,-88.72 114.63,-79.03"/>
<polygon fill="none" stroke="#63b8ff" points="152.16,-111.69 162.25,-114.92 156.37,-106.1 152.16,-111.69"/>
</a>
</g>
</g>
<!-- Node3 -->
<g id="Node000003" class="node">
<title>Node3</title>
<g id="a_Node000003"><a xlink:href="classStreetRentCalculator.html" target="_top" xlink:title=" ">
<polygon fill="white" stroke="transparent" points="262,-79 145,-79 145,0 262,0 262,-79"/>
<text text-anchor="start" x="158" y="-66.5" font-family="Helvetica,sans-Serif" font-size="10.00">StreetRentCalculator</text>
<text text-anchor="start" x="151" y="-51.5" font-family="Helvetica,sans-Serif" font-size="10.00">&#45;</text>
<text text-anchor="start" x="160.5" y="-51.5" font-family="Helvetica,sans-Serif" font-size="10.00">base_rent</text>
<text text-anchor="start" x="151" y="-36.5" font-family="Helvetica,sans-Serif" font-size="10.00">&#45;</text>
<text text-anchor="start" x="160.5" y="-36.5" font-family="Helvetica,sans-Serif" font-size="10.00">house_count</text>
<text text-anchor="start" x="149.5" y="-21.5" font-family="Helvetica,sans-Serif" font-size="10.00">+</text>
<text text-anchor="start" x="160.5" y="-21.5" font-family="Helvetica,sans-Serif" font-size="10.00">StreetRentCalculator()</text>
<text text-anchor="start" x="149.5" y="-6.5" font-family="Helvetica,sans-Serif" font-size="10.00">+</text>
<text text-anchor="start" x="160.5" y="-6.5" font-family="Helvetica,sans-Serif" font-size="10.00">calculateRent()</text>
<polygon fill="#666666" stroke="#666666" points="145.5,-61.5 145.5,-61.5 262.5,-61.5 262.5,-61.5 145.5,-61.5"/>
<polygon fill="#666666" stroke="#666666" points="145.5,-31.5 145.5,-31.5 158.5,-31.5 158.5,-31.5 145.5,-31.5"/>
<polygon fill="#666666" stroke="#666666" points="158.5,-31.5 158.5,-31.5 262.5,-31.5 262.5,-31.5 158.5,-31.5"/>
<polygon fill="none" stroke="#666666" points="145,0 145,-79 262,-79 262,0 145,0"/>
</a>
</g>
</g>
<!-- Node1&#45;&gt;Node3 -->
<g id="edge2_Node000001_Node000003" class="edge">
<title>Node1&#45;&gt;Node3</title>
<g id="a_edge2_Node000001_Node000003"><a xlink:title=" ">
<path fill="none" stroke="#63b8ff" d="M203.5,-104.89C203.5,-96.44 203.5,-87.58 203.5,-79.22"/>
<polygon fill="none" stroke="#63b8ff" points="200,-104.92 203.5,-114.92 207,-104.92 200,-104.92"/>
</a>
</g>
</g>
<!-- Node4 -->
<g id="Node000004" class="node">
<title>Node4</title>
<g id="a_Node000004"><a xlink:href="classUtilityRentCalculator.html" target="_top" xlink:title=" ">
<polygon fill="white" stroke="transparent" points="396.5,-79 280.5,-79 280.5,0 396.5,0 396.5,-79"/>
<text text-anchor="start" x="293" y="-66.5" font-family="Helvetica,sans-Serif" font-size="10.00">UtilityRentCalculator</text>
<text text-anchor="start" x="286" y="-51.5" font-family="Helvetica,sans-Serif" font-size="10.00">&#45;</text>
<text text-anchor="start" x="295.5" y="-51.5" font-family="Helvetica,sans-Serif" font-size="10.00">base_rent_multiplier</text>
<text text-anchor="start" x="286" y="-36.5" font-family="Helvetica,sans-Serif" font-size="10.00">&#45;</text>
<text text-anchor="start" x="295.5" y="-36.5" font-family="Helvetica,sans-Serif" font-size="10.00">dice_roll</text>
<text text-anchor="start" x="284.5" y="-21.5" font-family="Helvetica,sans-Serif" font-size="10.00">+</text>
<text text-anchor="start" x="295.5" y="-21.5" font-family="Helvetica,sans-Serif" font-size="10.00">UtilityRentCalculator()</text>
<text text-anchor="start" x="284.5" y="-6.5" font-family="Helvetica,sans-Serif" font-size="10.00">+</text>
<text text-anchor="start" x="295.5" y="-6.5" font-family="Helvetica,sans-Serif" font-size="10.00">calculateRent()</text>
<polygon fill="#666666" stroke="#666666" points="280.5,-61.5 280.5,-61.5 396.5,-61.5 396.5,-61.5 280.5,-61.5"/>
<polygon fill="#666666" stroke="#666666" points="280.5,-31.5 280.5,-31.5 293.5,-31.5 293.5,-31.5 280.5,-31.5"/>
<polygon fill="#666666" stroke="#666666" points="293.5,-31.5 293.5,-31.5 396.5,-31.5 396.5,-31.5 293.5,-31.5"/>
<polygon fill="none" stroke="#666666" points="280.5,0 280.5,-79 396.5,-79 396.5,0 280.5,0"/>
</a>
</g>
</g>
<!-- Node1&#45;&gt;Node4 -->
<g id="edge3_Node000001_Node000004" class="edge">
<title>Node1&#45;&gt;Node4</title>
<g id="a_edge3_Node000001_Node000004"><a xlink:title=" ">
<path fill="none" stroke="#63b8ff" d="M251.16,-108.75C263.41,-99.18 276.61,-88.86 288.95,-79.22"/>
<polygon fill="none" stroke="#63b8ff" points="249,-106 243.27,-114.92 253.31,-111.52 249,-106"/>
</a>
</g>
</g>
</g>
</svg>
