<?xml version="1.0" encoding="UTF-8" standalone="no"?>
<!DOCTYPE svg PUBLIC "-//W3C//DTD SVG 1.1//EN"
 "http://www.w3.org/Graphics/SVG/1.1/DTD/svg11.dtd">
<!-- Generated by graphviz version 2.43.0 (0)
 -->
<!-- Title: monopoly::GameModel::moveSteps Pages: 1 -->
<svg width="449pt" height="86pt"
 viewBox="0.00 0.00 449.00 86.00" xmlns="http://www.w3.org/2000/svg" xmlns:xlink="http://www.w3.org/1999/xlink">
<g id="graph0" class="graph" transform="scale(1 1) rotate(0) translate(4 82)">
<title>monopoly::GameModel::moveSteps</title>
<!-- Node1 -->
<g id="Node000001" class="node">
<title>Node1</title>
<g id="a_Node000001"><a xlink:title="Move player specified number of steps.">
<polygon fill="#999999" stroke="#666666" points="117,-54 0,-54 0,-24 117,-24 117,-54"/>
<text text-anchor="start" x="8" y="-42" font-family="Helvetica,sans-Serif" font-size="10.00">monopoly::GameModel</text>
<text text-anchor="middle" x="58.5" y="-31" font-family="Helvetica,sans-Serif" font-size="10.00">::moveSteps</text>
</a>
</g>
</g>
<!-- Node2 -->
<g id="Node000002" class="node">
<title>Node2</title>
<g id="a_Node000002"><a xlink:href="classmonopoly_1_1GameModel.html#adabd6c38f7b55f9d2dbc7ec2af30d410" target="_top" xlink:title="Handle player passing GO square.">
<polygon fill="white" stroke="#666666" points="270,-54 153,-54 153,-24 270,-24 270,-54"/>
<text text-anchor="start" x="161" y="-42" font-family="Helvetica,sans-Serif" font-size="10.00">monopoly::GameModel</text>
<text text-anchor="middle" x="211.5" y="-31" font-family="Helvetica,sans-Serif" font-size="10.00">::movedPastGo</text>
</a>
</g>
</g>
<!-- Node1&#45;&gt;Node2 -->
<g id="edge1_Node000001_Node000002" class="edge">
<title>Node1&#45;&gt;Node2</title>
<g id="a_edge1_Node000001_Node000002"><a xlink:title=" ">
<path fill="none" stroke="#63b8ff" d="M117.02,-39C125.46,-39 134.23,-39 142.86,-39"/>
<polygon fill="#63b8ff" stroke="#63b8ff" points="142.89,-42.5 152.89,-39 142.89,-35.5 142.89,-42.5"/>
</a>
</g>
</g>
<!-- Node3 -->
<g id="Node000003" class="node">
<title>Node3</title>
<g id="a_Node000003"><a xlink:href="classmonopoly_1_1GameModel.html#a61c4fbccfe0fd1f1870bfd4df55571f1" target="_top" xlink:title=" ">
<polygon fill="white" stroke="#666666" points="432,-78 315,-78 315,-48 432,-48 432,-78"/>
<text text-anchor="start" x="323" y="-66" font-family="Helvetica,sans-Serif" font-size="10.00">monopoly::GameModel</text>
<text text-anchor="middle" x="373.5" y="-55" font-family="Helvetica,sans-Serif" font-size="10.00">::getCurrentPlayer</text>
</a>
</g>
</g>
<!-- Node2&#45;&gt;Node3 -->
<g id="edge2_Node000002_Node000003" class="edge">
<title>Node2&#45;&gt;Node3</title>
<g id="a_edge2_Node000002_Node000003"><a xlink:title=" ">
<path fill="none" stroke="#63b8ff" d="M270.26,-47.66C281.48,-49.35 293.33,-51.12 304.83,-52.85"/>
<polygon fill="#63b8ff" stroke="#63b8ff" points="304.41,-56.33 314.82,-54.35 305.45,-49.4 304.41,-56.33"/>
</a>
</g>
</g>
<!-- Node4 -->
<g id="Node000004" class="node">
<title>Node4</title>
<g id="a_Node000004"><a xlink:href="classmonopoly_1_1Player.html#a52406d42e3118433d33a69fbf2e0381a" target="_top" xlink:title="Increases player&#39;s balance.">
<polygon fill="white" stroke="#666666" points="441,-30 306,-30 306,0 441,0 441,-30"/>
<text text-anchor="start" x="314" y="-18" font-family="Helvetica,sans-Serif" font-size="10.00">monopoly::Player::increase</text>
<text text-anchor="middle" x="373.5" y="-7" font-family="Helvetica,sans-Serif" font-size="10.00">Balance</text>
</a>
</g>
</g>
<!-- Node2&#45;&gt;Node4 -->
<g id="edge3_Node000002_Node000004" class="edge">
<title>Node2&#45;&gt;Node4</title>
<g id="a_edge3_Node000002_Node000004"><a xlink:title=" ">
<path fill="none" stroke="#63b8ff" d="M270.26,-30.34C278.56,-29.09 287.21,-27.79 295.8,-26.5"/>
<polygon fill="#63b8ff" stroke="#63b8ff" points="296.48,-29.94 305.85,-25 295.44,-23.02 296.48,-29.94"/>
</a>
</g>
</g>
</g>
</svg>
