<?xml version="1.0" encoding="UTF-8" standalone="no"?>
<!DOCTYPE svg PUBLIC "-//W3C//DTD SVG 1.1//EN"
 "http://www.w3.org/Graphics/SVG/1.1/DTD/svg11.dtd">
<!-- Generated by graphviz version 2.43.0 (0)
 -->
<!-- Title: SFComponent::isComponentEnabled Pages: 1 -->
<svg width="333pt" height="246pt"
 viewBox="0.00 0.00 333.00 246.00" xmlns="http://www.w3.org/2000/svg" xmlns:xlink="http://www.w3.org/1999/xlink">
<g id="graph0" class="graph" transform="scale(1 1) rotate(0) translate(4 242)">
<title>SFComponent::isComponentEnabled</title>
<!-- Node1 -->
<g id="Node000001" class="node">
<title>Node1</title>
<g id="a_Node000001"><a xlink:title=" ">
<polygon fill="#999999" stroke="#666666" points="325,-128 182,-128 182,-98 325,-98 325,-128"/>
<text text-anchor="start" x="190" y="-116" font-family="Helvetica,sans-Serif" font-size="10.00">SFComponent::isComponent</text>
<text text-anchor="middle" x="253.5" y="-105" font-family="Helvetica,sans-Serif" font-size="10.00">Enabled</text>
</a>
</g>
</g>
<!-- Node2 -->
<g id="Node000002" class="node">
<title>Node2</title>
<g id="a_Node000002"><a xlink:href="classmonopoly_1_1BoardView.html#a6c451eaac2ded0dc1e8fba8991f2c07b" target="_top" xlink:title=" ">
<polygon fill="white" stroke="#666666" points="129,-238 17,-238 17,-208 129,-208 129,-238"/>
<text text-anchor="start" x="25" y="-226" font-family="Helvetica,sans-Serif" font-size="10.00">monopoly::BoardView</text>
<text text-anchor="middle" x="73" y="-215" font-family="Helvetica,sans-Serif" font-size="10.00">::handleEvent</text>
</a>
</g>
</g>
<!-- Node1&#45;&gt;Node2 -->
<g id="edge1_Node000001_Node000002" class="edge">
<title>Node1&#45;&gt;Node2</title>
<g id="a_edge1_Node000001_Node000002"><a xlink:title=" ">
<path fill="none" stroke="#63b8ff" d="M230.31,-134.94C209.88,-154.1 177.98,-181.5 146,-199 139.87,-202.35 133.2,-205.34 126.46,-207.98"/>
<polygon fill="#63b8ff" stroke="#63b8ff" points="232.72,-137.47 237.55,-128.04 227.89,-132.4 232.72,-137.47"/>
</a>
</g>
</g>
<!-- Node3 -->
<g id="Node000003" class="node">
<title>Node3</title>
<g id="a_Node000003"><a xlink:href="classFreeParkingSquare.html#a9624607091698b99f8b3310b67c9536c" target="_top" xlink:title=" ">
<polygon fill="white" stroke="#666666" points="126,-190 20,-190 20,-160 126,-160 126,-190"/>
<text text-anchor="start" x="28" y="-178" font-family="Helvetica,sans-Serif" font-size="10.00">FreeParkingSquare::</text>
<text text-anchor="middle" x="73" y="-167" font-family="Helvetica,sans-Serif" font-size="10.00">handleEvent</text>
</a>
</g>
</g>
<!-- Node1&#45;&gt;Node3 -->
<g id="edge2_Node000001_Node000003" class="edge">
<title>Node1&#45;&gt;Node3</title>
<g id="a_edge2_Node000001_Node000003"><a xlink:title=" ">
<path fill="none" stroke="#63b8ff" d="M201.59,-131.41C184.01,-137.7 164.16,-144.73 146,-151 137.53,-153.92 128.48,-156.99 119.76,-159.91"/>
<polygon fill="#63b8ff" stroke="#63b8ff" points="202.87,-134.67 211.1,-128 200.5,-128.08 202.87,-134.67"/>
</a>
</g>
</g>
<!-- Node4 -->
<g id="Node000004" class="node">
<title>Node4</title>
<g id="a_Node000004"><a xlink:href="classGoSquare.html#ae965d558cc67d739b936a05dbf4a133a" target="_top" xlink:title=" ">
<polygon fill="white" stroke="#666666" points="133,-141.5 13,-141.5 13,-122.5 133,-122.5 133,-141.5"/>
<text text-anchor="middle" x="73" y="-129.5" font-family="Helvetica,sans-Serif" font-size="10.00">GoSquare::handleEvent</text>
</a>
</g>
</g>
<!-- Node1&#45;&gt;Node4 -->
<g id="edge3_Node000001_Node000004" class="edge">
<title>Node1&#45;&gt;Node4</title>
<g id="a_edge3_Node000001_Node000004"><a xlink:title=" ">
<path fill="none" stroke="#63b8ff" d="M172.01,-121.57C158.91,-122.96 145.56,-124.38 133.1,-125.71"/>
<polygon fill="#63b8ff" stroke="#63b8ff" points="172.38,-125.05 181.95,-120.51 171.64,-118.09 172.38,-125.05"/>
</a>
</g>
</g>
<!-- Node5 -->
<g id="Node000005" class="node">
<title>Node5</title>
<g id="a_Node000005"><a xlink:href="classGoToJailSquare.html#a7afeeb2c873adc2716ab717b750667b3" target="_top" xlink:title=" ">
<polygon fill="white" stroke="#666666" points="146,-104.5 0,-104.5 0,-85.5 146,-85.5 146,-104.5"/>
<text text-anchor="middle" x="73" y="-92.5" font-family="Helvetica,sans-Serif" font-size="10.00">GoToJailSquare::handleEvent</text>
</a>
</g>
</g>
<!-- Node1&#45;&gt;Node5 -->
<g id="edge4_Node000001_Node000005" class="edge">
<title>Node1&#45;&gt;Node5</title>
<g id="a_edge4_Node000001_Node000005"><a xlink:title=" ">
<path fill="none" stroke="#63b8ff" d="M171.91,-104.87C163.3,-104.01 154.59,-103.13 146.08,-102.27"/>
<polygon fill="#63b8ff" stroke="#63b8ff" points="171.65,-108.36 181.95,-105.89 172.35,-101.4 171.65,-108.36"/>
</a>
</g>
</g>
<!-- Node6 -->
<g id="Node000006" class="node">
<title>Node6</title>
<g id="a_Node000006"><a xlink:href="classJailSquare.html#a153ee740d66eebc222163e9f0cccfcd3" target="_top" xlink:title=" ">
<polygon fill="white" stroke="#666666" points="134,-67.5 12,-67.5 12,-48.5 134,-48.5 134,-67.5"/>
<text text-anchor="middle" x="73" y="-55.5" font-family="Helvetica,sans-Serif" font-size="10.00">JailSquare::handleEvent</text>
</a>
</g>
</g>
<!-- Node1&#45;&gt;Node6 -->
<g id="edge5_Node000001_Node000006" class="edge">
<title>Node1&#45;&gt;Node6</title>
<g id="a_edge5_Node000001_Node000006"><a xlink:title=" ">
<path fill="none" stroke="#63b8ff" d="M200.34,-94.58C183.12,-88.71 163.81,-82.35 146,-77 135.1,-73.73 123.19,-70.46 112.25,-67.58"/>
<polygon fill="#63b8ff" stroke="#63b8ff" points="199.62,-98.03 210.22,-97.97 201.89,-91.41 199.62,-98.03"/>
</a>
</g>
</g>
<!-- Node7 -->
<g id="Node000007" class="node">
<title>Node7</title>
<g id="a_Node000007"><a xlink:href="classPlayerTokenComponent.html#a7ca63dfa0c88d540a2ee2a0e3544b04b" target="_top" xlink:title=" ">
<polygon fill="white" stroke="#666666" points="133.5,-30 12.5,-30 12.5,0 133.5,0 133.5,-30"/>
<text text-anchor="start" x="20.5" y="-18" font-family="Helvetica,sans-Serif" font-size="10.00">PlayerTokenComponent</text>
<text text-anchor="middle" x="73" y="-7" font-family="Helvetica,sans-Serif" font-size="10.00">::handleEvent</text>
</a>
</g>
</g>
<!-- Node1&#45;&gt;Node7 -->
<g id="edge6_Node000001_Node000007" class="edge">
<title>Node1&#45;&gt;Node7</title>
<g id="a_edge6_Node000001_Node000007"><a xlink:title=" ">
<path fill="none" stroke="#63b8ff" d="M225.79,-91.71C204.97,-75.87 174.84,-54.56 146,-40 138.79,-36.36 130.94,-33.04 123.14,-30.09"/>
<polygon fill="#63b8ff" stroke="#63b8ff" points="223.78,-94.58 233.84,-97.91 228.05,-89.03 223.78,-94.58"/>
</a>
</g>
</g>
</g>
</svg>
