<?xml version="1.0" encoding="UTF-8" standalone="no"?>
<!DOCTYPE svg PUBLIC "-//W3C//DTD SVG 1.1//EN"
 "http://www.w3.org/Graphics/SVG/1.1/DTD/svg11.dtd">
<!-- Generated by graphviz version 2.43.0 (0)
 -->
<!-- Title: monopoly::Player::setPosition Pages: 1 -->
<svg width="806pt" height="76pt"
 viewBox="0.00 0.00 806.00 75.50" xmlns="http://www.w3.org/2000/svg" xmlns:xlink="http://www.w3.org/1999/xlink">
<g id="graph0" class="graph" transform="scale(1 1) rotate(0) translate(4 71.5)">
<title>monopoly::Player::setPosition</title>
<!-- Node1 -->
<g id="Node000001" class="node">
<title>Node1</title>
<g id="a_Node000001"><a xlink:title=" ">
<polygon fill="#999999" stroke="#666666" points="798,-40 651,-40 651,-21 798,-21 798,-40"/>
<text text-anchor="middle" x="724.5" y="-28" font-family="Helvetica,sans-Serif" font-size="10.00">monopoly::Player::setPosition</text>
</a>
</g>
</g>
<!-- Node2 -->
<g id="Node000002" class="node">
<title>Node2</title>
<g id="a_Node000002"><a xlink:href="classmonopoly_1_1GameModel.html#aebe46d5f977b0b926548e81a0977476e" target="_top" xlink:title="Send player to jail.">
<polygon fill="white" stroke="#666666" points="599.5,-67.5 482.5,-67.5 482.5,-37.5 599.5,-37.5 599.5,-67.5"/>
<text text-anchor="start" x="490.5" y="-55.5" font-family="Helvetica,sans-Serif" font-size="10.00">monopoly::GameModel</text>
<text text-anchor="middle" x="541" y="-44.5" font-family="Helvetica,sans-Serif" font-size="10.00">::goToJail</text>
</a>
</g>
</g>
<!-- Node1&#45;&gt;Node2 -->
<g id="edge1_Node000001_Node000002" class="edge">
<title>Node1&#45;&gt;Node2</title>
<g id="a_edge1_Node000001_Node000002"><a xlink:title=" ">
<path fill="none" stroke="#63b8ff" d="M640.89,-40.51C626.94,-42.2 612.73,-43.93 599.6,-45.52"/>
<polygon fill="#63b8ff" stroke="#63b8ff" points="641.48,-43.97 650.98,-39.29 640.64,-37.02 641.48,-43.97"/>
</a>
</g>
</g>
<!-- Node6 -->
<g id="Node000006" class="node">
<title>Node6</title>
<g id="a_Node000006"><a xlink:href="classmonopoly_1_1Player.html#a0dce1d25d7e9cfa45c9ce8346891a8ef" target="_top" xlink:title="Moves player forward on the board.">
<polygon fill="white" stroke="#666666" points="615,-19 467,-19 467,0 615,0 615,-19"/>
<text text-anchor="middle" x="541" y="-7" font-family="Helvetica,sans-Serif" font-size="10.00">monopoly::Player::moveSteps</text>
</a>
</g>
</g>
<!-- Node1&#45;&gt;Node6 -->
<g id="edge5_Node000001_Node000006" class="edge">
<title>Node1&#45;&gt;Node6</title>
<g id="a_edge5_Node000001_Node000006"><a xlink:title=" ">
<path fill="none" stroke="#63b8ff" d="M640.99,-20.95C632.42,-19.96 623.75,-18.96 615.29,-17.98"/>
<polygon fill="#63b8ff" stroke="#63b8ff" points="640.65,-24.44 650.98,-22.11 641.45,-17.48 640.65,-24.44"/>
</a>
</g>
</g>
<!-- Node3 -->
<g id="Node000003" class="node">
<title>Node3</title>
<g id="a_Node000003"><a xlink:href="classmonopoly_1_1GameModel.html#a235817e4a0e8aae94e261ecc3f561b67" target="_top" xlink:title="Process doubles roll consequences.">
<polygon fill="white" stroke="#666666" points="431,-67.5 314,-67.5 314,-37.5 431,-37.5 431,-67.5"/>
<text text-anchor="start" x="322" y="-55.5" font-family="Helvetica,sans-Serif" font-size="10.00">monopoly::GameModel</text>
<text text-anchor="middle" x="372.5" y="-44.5" font-family="Helvetica,sans-Serif" font-size="10.00">::handleDouble</text>
</a>
</g>
</g>
<!-- Node2&#45;&gt;Node3 -->
<g id="edge2_Node000002_Node000003" class="edge">
<title>Node2&#45;&gt;Node3</title>
<g id="a_edge2_Node000002_Node000003"><a xlink:title=" ">
<path fill="none" stroke="#63b8ff" d="M472,-52.5C458.45,-52.5 444.33,-52.5 431.16,-52.5"/>
<polygon fill="#63b8ff" stroke="#63b8ff" points="472.23,-56 482.23,-52.5 472.23,-49 472.23,-56"/>
</a>
</g>
</g>
<!-- Node4 -->
<g id="Node000004" class="node">
<title>Node4</title>
<g id="a_Node000004"><a xlink:href="classmonopoly_1_1GameModel.html#ad53cf6f13f83ba2408a6bbcffda3a99e" target="_top" xlink:title="Roll two dice and return their values.">
<polygon fill="white" stroke="#666666" points="278,-67.5 161,-67.5 161,-37.5 278,-37.5 278,-67.5"/>
<text text-anchor="start" x="169" y="-55.5" font-family="Helvetica,sans-Serif" font-size="10.00">monopoly::GameModel</text>
<text text-anchor="middle" x="219.5" y="-44.5" font-family="Helvetica,sans-Serif" font-size="10.00">::rollDice</text>
</a>
</g>
</g>
<!-- Node3&#45;&gt;Node4 -->
<g id="edge3_Node000003_Node000004" class="edge">
<title>Node3&#45;&gt;Node4</title>
<g id="a_edge3_Node000003_Node000004"><a xlink:title=" ">
<path fill="none" stroke="#63b8ff" d="M303.95,-52.5C295.32,-52.5 286.56,-52.5 278.11,-52.5"/>
<polygon fill="#63b8ff" stroke="#63b8ff" points="303.98,-56 313.98,-52.5 303.98,-49 303.98,-56"/>
</a>
</g>
</g>
<!-- Node5 -->
<g id="Node000005" class="node">
<title>Node5</title>
<g id="a_Node000005"><a xlink:href="classmonopoly_1_1RollDiceState.html#a262a6a32b9cacaa7561f81a55ec1c1f3" target="_top" xlink:title=" ">
<polygon fill="white" stroke="#666666" points="125,-67.5 0,-67.5 0,-37.5 125,-37.5 125,-67.5"/>
<text text-anchor="start" x="8" y="-55.5" font-family="Helvetica,sans-Serif" font-size="10.00">monopoly::RollDiceState</text>
<text text-anchor="middle" x="62.5" y="-44.5" font-family="Helvetica,sans-Serif" font-size="10.00">::handleKeyRelease</text>
</a>
</g>
</g>
<!-- Node4&#45;&gt;Node5 -->
<g id="edge4_Node000004_Node000005" class="edge">
<title>Node4&#45;&gt;Node5</title>
<g id="a_edge4_Node000004_Node000005"><a xlink:title=" ">
<path fill="none" stroke="#63b8ff" d="M150.58,-52.5C142.12,-52.5 133.51,-52.5 125.16,-52.5"/>
<polygon fill="#63b8ff" stroke="#63b8ff" points="150.78,-56 160.78,-52.5 150.78,-49 150.78,-56"/>
</a>
</g>
</g>
</g>
</svg>
