<?xml version="1.0" encoding="UTF-8" standalone="no"?>
<!DOCTYPE svg PUBLIC "-//W3C//DTD SVG 1.1//EN"
 "http://www.w3.org/Graphics/SVG/1.1/DTD/svg11.dtd">
<!-- Generated by graphviz version 2.43.0 (0)
 -->
<!-- Title: StreetSquare Pages: 1 -->
<svg width="146pt" height="1097pt"
 viewBox="0.00 0.00 146.00 1097.00" xmlns="http://www.w3.org/2000/svg" xmlns:xlink="http://www.w3.org/1999/xlink">
<g id="graph0" class="graph" transform="scale(1 1) rotate(0) translate(4 1093)">
<title>StreetSquare</title>
<!-- Node1 -->
<g id="Node000001" class="node">
<title>Node1</title>
<g id="a_Node000001"><a xlink:title=" ">
<polygon fill="#999999" stroke="transparent" points="111.5,-229 26.5,-229 26.5,0 111.5,0 111.5,-229"/>
<text text-anchor="start" x="40.5" y="-216.5" font-family="Helvetica,sans-Serif" font-size="10.00">StreetSquare</text>
<text text-anchor="start" x="32.5" y="-201.5" font-family="Helvetica,sans-Serif" font-size="10.00">&#45;</text>
<text text-anchor="start" x="42" y="-201.5" font-family="Helvetica,sans-Serif" font-size="10.00">color_band</text>
<text text-anchor="start" x="32.5" y="-186.5" font-family="Helvetica,sans-Serif" font-size="10.00">&#45;</text>
<text text-anchor="start" x="42" y="-186.5" font-family="Helvetica,sans-Serif" font-size="10.00">group_color</text>
<text text-anchor="start" x="32.5" y="-171.5" font-family="Helvetica,sans-Serif" font-size="10.00">&#45;</text>
<text text-anchor="start" x="42" y="-171.5" font-family="Helvetica,sans-Serif" font-size="10.00">owner_color</text>
<text text-anchor="start" x="32.5" y="-156.5" font-family="Helvetica,sans-Serif" font-size="10.00">&#45;</text>
<text text-anchor="start" x="42" y="-156.5" font-family="Helvetica,sans-Serif" font-size="10.00">house_shapes</text>
<text text-anchor="start" x="32.5" y="-141.5" font-family="Helvetica,sans-Serif" font-size="10.00">&#45;</text>
<text text-anchor="start" x="42" y="-141.5" font-family="Helvetica,sans-Serif" font-size="10.00">hotel_shape</text>
<text text-anchor="start" x="32.5" y="-126.5" font-family="Helvetica,sans-Serif" font-size="10.00">&#45;</text>
<text text-anchor="start" x="42" y="-126.5" font-family="Helvetica,sans-Serif" font-size="10.00">price</text>
<text text-anchor="start" x="32.5" y="-111.5" font-family="Helvetica,sans-Serif" font-size="10.00">&#45;</text>
<text text-anchor="start" x="42" y="-111.5" font-family="Helvetica,sans-Serif" font-size="10.00">num_houses</text>
<text text-anchor="start" x="31" y="-96.5" font-family="Helvetica,sans-Serif" font-size="10.00">+</text>
<text text-anchor="start" x="42" y="-96.5" font-family="Helvetica,sans-Serif" font-size="10.00">StreetSquare()</text>
<text text-anchor="start" x="31" y="-81.5" font-family="Helvetica,sans-Serif" font-size="10.00">+</text>
<text text-anchor="start" x="42" y="-81.5" font-family="Helvetica,sans-Serif" font-size="10.00">setHouses()</text>
<text text-anchor="start" x="31" y="-66.5" font-family="Helvetica,sans-Serif" font-size="10.00">+</text>
<text text-anchor="start" x="42" y="-66.5" font-family="Helvetica,sans-Serif" font-size="10.00">draw()</text>
<text text-anchor="start" x="31" y="-51.5" font-family="Helvetica,sans-Serif" font-size="10.00">+</text>
<text text-anchor="start" x="42" y="-51.5" font-family="Helvetica,sans-Serif" font-size="10.00">handleEvent()</text>
<text text-anchor="start" x="31" y="-36.5" font-family="Helvetica,sans-Serif" font-size="10.00">+</text>
<text text-anchor="start" x="42" y="-36.5" font-family="Helvetica,sans-Serif" font-size="10.00">updateView()</text>
<text text-anchor="start" x="32.5" y="-21.5" font-family="Helvetica,sans-Serif" font-size="10.00">&#45;</text>
<text text-anchor="start" x="42" y="-21.5" font-family="Helvetica,sans-Serif" font-size="10.00">setColorBand()</text>
<text text-anchor="start" x="32.5" y="-6.5" font-family="Helvetica,sans-Serif" font-size="10.00">&#45;</text>
<text text-anchor="start" x="42" y="-6.5" font-family="Helvetica,sans-Serif" font-size="10.00">setTexts()</text>
<polygon fill="#666666" stroke="#666666" points="27,-211.5 27,-211.5 112,-211.5 112,-211.5 27,-211.5"/>
<polygon fill="#666666" stroke="#666666" points="27,-106.5 27,-106.5 40,-106.5 40,-106.5 27,-106.5"/>
<polygon fill="#666666" stroke="#666666" points="40,-106.5 40,-106.5 112,-106.5 112,-106.5 40,-106.5"/>
<polygon fill="none" stroke="#666666" points="26.5,0 26.5,-229 111.5,-229 111.5,0 26.5,0"/>
</a>
</g>
</g>
<!-- Node2 -->
<g id="Node000002" class="node">
<title>Node2</title>
<g id="a_Node000002"><a xlink:href="classBoardSquareComponent.html" target="_top" xlink:title=" ">
<polygon fill="white" stroke="transparent" points="138,-689 0,-689 0,-265 138,-265 138,-689"/>
<text text-anchor="start" x="15.5" y="-677" font-family="Helvetica,sans-Serif" font-size="10.00">BoardSquareComponent</text>
<text text-anchor="start" x="4" y="-662" font-family="Helvetica,sans-Serif" font-size="10.00">+</text>
<text text-anchor="start" x="15" y="-662" font-family="Helvetica,sans-Serif" font-size="10.00">TOKEN_SPACING</text>
<text text-anchor="start" x="4" y="-647" font-family="Helvetica,sans-Serif" font-size="10.00">+</text>
<text text-anchor="start" x="15" y="-647" font-family="Helvetica,sans-Serif" font-size="10.00">TOKEN_PADDING</text>
<text text-anchor="start" x="4.5" y="-632" font-family="Helvetica,sans-Serif" font-size="10.00">#</text>
<text text-anchor="start" x="15" y="-632" font-family="Helvetica,sans-Serif" font-size="10.00">square_id</text>
<text text-anchor="start" x="4.5" y="-617" font-family="Helvetica,sans-Serif" font-size="10.00">#</text>
<text text-anchor="start" x="15" y="-617" font-family="Helvetica,sans-Serif" font-size="10.00">background</text>
<text text-anchor="start" x="4.5" y="-602" font-family="Helvetica,sans-Serif" font-size="10.00">#</text>
<text text-anchor="start" x="15" y="-602" font-family="Helvetica,sans-Serif" font-size="10.00">name_text</text>
<text text-anchor="start" x="4.5" y="-587" font-family="Helvetica,sans-Serif" font-size="10.00">#</text>
<text text-anchor="start" x="15" y="-587" font-family="Helvetica,sans-Serif" font-size="10.00">lower_text</text>
<text text-anchor="start" x="4.5" y="-572" font-family="Helvetica,sans-Serif" font-size="10.00">#</text>
<text text-anchor="start" x="15" y="-572" font-family="Helvetica,sans-Serif" font-size="10.00">board_side</text>
<text text-anchor="start" x="4.5" y="-557" font-family="Helvetica,sans-Serif" font-size="10.00">#</text>
<text text-anchor="start" x="15" y="-557" font-family="Helvetica,sans-Serif" font-size="10.00">background_color</text>
<text text-anchor="start" x="4.5" y="-542" font-family="Helvetica,sans-Serif" font-size="10.00">#</text>
<text text-anchor="start" x="15" y="-542" font-family="Helvetica,sans-Serif" font-size="10.00">font</text>
<text text-anchor="start" x="4.5" y="-527" font-family="Helvetica,sans-Serif" font-size="10.00">#</text>
<text text-anchor="start" x="15" y="-527" font-family="Helvetica,sans-Serif" font-size="10.00">name</text>
<text text-anchor="start" x="4.5" y="-512" font-family="Helvetica,sans-Serif" font-size="10.00">#</text>
<text text-anchor="start" x="15" y="-512" font-family="Helvetica,sans-Serif" font-size="10.00">player_tokens</text>
<text text-anchor="start" x="4" y="-497" font-family="Helvetica,sans-Serif" font-size="10.00">+</text>
<text text-anchor="start" x="15" y="-497" font-family="Helvetica,sans-Serif" font-size="10.00">BoardSquareComponent()</text>
<text text-anchor="start" x="4" y="-482" font-family="Helvetica,sans-Serif" font-size="10.00">+</text>
<text text-anchor="start" x="15" y="-482" font-family="Helvetica,sans-Serif" font-size="10.00">~BoardSquareComponent()</text>
<text text-anchor="start" x="4" y="-467" font-family="Helvetica,sans-Serif" font-size="10.00">+</text>
<text text-anchor="start" x="15" y="-467" font-family="Helvetica,sans-Serif" font-size="10.00">draw()</text>
<text text-anchor="start" x="4" y="-452" font-family="Helvetica,sans-Serif" font-size="10.00">+</text>
<text text-anchor="start" x="15" y="-452" font-family="Helvetica,sans-Serif" font-size="10.00">drawPlayers()</text>
<text text-anchor="start" x="4" y="-437" font-family="Helvetica,sans-Serif" font-size="10.00">+</text>
<text text-anchor="start" x="15" y="-437" font-family="Helvetica,sans-Serif" font-size="10.00">handleEvent()</text>
<text text-anchor="start" x="4" y="-422" font-family="Helvetica,sans-Serif" font-size="10.00">+</text>
<text text-anchor="start" x="15" y="-422" font-family="Helvetica,sans-Serif" font-size="10.00">setTexts()</text>
<text text-anchor="start" x="4" y="-407" font-family="Helvetica,sans-Serif" font-size="10.00">+</text>
<text text-anchor="start" x="15" y="-407" font-family="Helvetica,sans-Serif" font-size="10.00">addPlayer()</text>
<text text-anchor="start" x="4" y="-392" font-family="Helvetica,sans-Serif" font-size="10.00">+</text>
<text text-anchor="start" x="15" y="-392" font-family="Helvetica,sans-Serif" font-size="10.00">removePlayer()</text>
<text text-anchor="start" x="4" y="-377" font-family="Helvetica,sans-Serif" font-size="10.00">+</text>
<text text-anchor="start" x="15" y="-377" font-family="Helvetica,sans-Serif" font-size="10.00">clearPlayers()</text>
<text text-anchor="start" x="4" y="-362" font-family="Helvetica,sans-Serif" font-size="10.00">+</text>
<text text-anchor="start" x="15" y="-362" font-family="Helvetica,sans-Serif" font-size="10.00">repositionTokens()</text>
<text text-anchor="start" x="15" y="-347" font-family="Helvetica,sans-Serif" font-size="10.00">and 9 more...</text>
<text text-anchor="start" x="4.5" y="-332" font-family="Helvetica,sans-Serif" font-size="10.00">#</text>
<text text-anchor="start" x="15" y="-332" font-family="Helvetica,sans-Serif" font-size="10.00">isCornerSquare()</text>
<text text-anchor="start" x="4.5" y="-317" font-family="Helvetica,sans-Serif" font-size="10.00">#</text>
<text text-anchor="start" x="15" y="-317" font-family="Helvetica,sans-Serif" font-size="10.00">setupSize()</text>
<text text-anchor="start" x="4.5" y="-302" font-family="Helvetica,sans-Serif" font-size="10.00">#</text>
<text text-anchor="start" x="15" y="-302" font-family="Helvetica,sans-Serif" font-size="10.00">setBackground()</text>
<text text-anchor="start" x="4.5" y="-287" font-family="Helvetica,sans-Serif" font-size="10.00">#</text>
<text text-anchor="start" x="15" y="-287" font-family="Helvetica,sans-Serif" font-size="10.00">initText()</text>
<text text-anchor="start" x="4.5" y="-272" font-family="Helvetica,sans-Serif" font-size="10.00">#</text>
<text text-anchor="start" x="15" y="-272" font-family="Helvetica,sans-Serif" font-size="10.00">setTextRotation()</text>
<polygon fill="#666666" stroke="#666666" points="0,-672 0,-672 138,-672 138,-672 0,-672"/>
<polygon fill="#666666" stroke="#666666" points="0,-507 0,-507 13,-507 13,-507 0,-507"/>
<polygon fill="#666666" stroke="#666666" points="13,-507 13,-507 138,-507 138,-507 13,-507"/>
<polygon fill="none" stroke="#666666" points="0,-265 0,-689 138,-689 138,-265 0,-265"/>
</a>
</g>
</g>
<!-- Node2&#45;&gt;Node1 -->
<g id="edge1_Node000001_Node000002" class="edge">
<title>Node2&#45;&gt;Node1</title>
<g id="a_edge1_Node000001_Node000002"><a xlink:title=" ">
<path fill="none" stroke="#63b8ff" d="M69,-254.79C69,-246.14 69,-237.63 69,-229.33"/>
<polygon fill="none" stroke="#63b8ff" points="65.5,-254.99 69,-264.99 72.5,-254.99 65.5,-254.99"/>
</a>
</g>
</g>
<!-- Node3 -->
<g id="Node000003" class="node">
<title>Node3</title>
<g id="a_Node000003"><a xlink:href="classSFComponent.html" target="_top" xlink:title=" ">
<polygon fill="white" stroke="transparent" points="128.5,-1089 9.5,-1089 9.5,-725 128.5,-725 128.5,-1089"/>
<text text-anchor="start" x="37.5" y="-1077" font-family="Helvetica,sans-Serif" font-size="10.00">SFComponent</text>
<text text-anchor="start" x="14.5" y="-1062" font-family="Helvetica,sans-Serif" font-size="10.00">#</text>
<text text-anchor="start" x="25" y="-1062" font-family="Helvetica,sans-Serif" font-size="10.00">position</text>
<text text-anchor="start" x="14.5" y="-1047" font-family="Helvetica,sans-Serif" font-size="10.00">#</text>
<text text-anchor="start" x="25" y="-1047" font-family="Helvetica,sans-Serif" font-size="10.00">size</text>
<text text-anchor="start" x="14.5" y="-1032" font-family="Helvetica,sans-Serif" font-size="10.00">#</text>
<text text-anchor="start" x="25" y="-1032" font-family="Helvetica,sans-Serif" font-size="10.00">isVisible</text>
<text text-anchor="start" x="14.5" y="-1017" font-family="Helvetica,sans-Serif" font-size="10.00">#</text>
<text text-anchor="start" x="25" y="-1017" font-family="Helvetica,sans-Serif" font-size="10.00">isEnabled</text>
<text text-anchor="start" x="14.5" y="-1002" font-family="Helvetica,sans-Serif" font-size="10.00">#</text>
<text text-anchor="start" x="25" y="-1002" font-family="Helvetica,sans-Serif" font-size="10.00">REGULAR_WIDTH</text>
<text text-anchor="start" x="14.5" y="-987" font-family="Helvetica,sans-Serif" font-size="10.00">#</text>
<text text-anchor="start" x="25" y="-987" font-family="Helvetica,sans-Serif" font-size="10.00">REGULAR_HEIGHT</text>
<text text-anchor="start" x="14.5" y="-972" font-family="Helvetica,sans-Serif" font-size="10.00">#</text>
<text text-anchor="start" x="25" y="-972" font-family="Helvetica,sans-Serif" font-size="10.00">CORNER_SIZE</text>
<text text-anchor="start" x="14.5" y="-957" font-family="Helvetica,sans-Serif" font-size="10.00">#</text>
<text text-anchor="start" x="25" y="-957" font-family="Helvetica,sans-Serif" font-size="10.00">TEXT_PADDING</text>
<text text-anchor="start" x="14" y="-942" font-family="Helvetica,sans-Serif" font-size="10.00">+</text>
<text text-anchor="start" x="25" y="-942" font-family="Helvetica,sans-Serif" font-size="10.00">SFComponent()</text>
<text text-anchor="start" x="14" y="-927" font-family="Helvetica,sans-Serif" font-size="10.00">+</text>
<text text-anchor="start" x="25" y="-927" font-family="Helvetica,sans-Serif" font-size="10.00">SFComponent()</text>
<text text-anchor="start" x="14" y="-912" font-family="Helvetica,sans-Serif" font-size="10.00">+</text>
<text text-anchor="start" x="25" y="-912" font-family="Helvetica,sans-Serif" font-size="10.00">~SFComponent()</text>
<text text-anchor="start" x="14" y="-897" font-family="Helvetica,sans-Serif" font-size="10.00">+</text>
<text text-anchor="start" x="25" y="-897" font-family="Helvetica,sans-Serif" font-size="10.00">draw()</text>
<text text-anchor="start" x="14" y="-882" font-family="Helvetica,sans-Serif" font-size="10.00">+</text>
<text text-anchor="start" x="25" y="-882" font-family="Helvetica,sans-Serif" font-size="10.00">handleEvent()</text>
<text text-anchor="start" x="14" y="-867" font-family="Helvetica,sans-Serif" font-size="10.00">+</text>
<text text-anchor="start" x="25" y="-867" font-family="Helvetica,sans-Serif" font-size="10.00">updateView()</text>
<text text-anchor="start" x="14" y="-852" font-family="Helvetica,sans-Serif" font-size="10.00">+</text>
<text text-anchor="start" x="25" y="-852" font-family="Helvetica,sans-Serif" font-size="10.00">setPosition()</text>
<text text-anchor="start" x="14" y="-837" font-family="Helvetica,sans-Serif" font-size="10.00">+</text>
<text text-anchor="start" x="25" y="-837" font-family="Helvetica,sans-Serif" font-size="10.00">setSize()</text>
<text text-anchor="start" x="14" y="-822" font-family="Helvetica,sans-Serif" font-size="10.00">+</text>
<text text-anchor="start" x="25" y="-822" font-family="Helvetica,sans-Serif" font-size="10.00">getPosition()</text>
<text text-anchor="start" x="14" y="-807" font-family="Helvetica,sans-Serif" font-size="10.00">+</text>
<text text-anchor="start" x="25" y="-807" font-family="Helvetica,sans-Serif" font-size="10.00">getSize()</text>
<text text-anchor="start" x="14" y="-792" font-family="Helvetica,sans-Serif" font-size="10.00">+</text>
<text text-anchor="start" x="25" y="-792" font-family="Helvetica,sans-Serif" font-size="10.00">contains()</text>
<text text-anchor="start" x="14" y="-777" font-family="Helvetica,sans-Serif" font-size="10.00">+</text>
<text text-anchor="start" x="25" y="-777" font-family="Helvetica,sans-Serif" font-size="10.00">setVisible()</text>
<text text-anchor="start" x="14" y="-762" font-family="Helvetica,sans-Serif" font-size="10.00">+</text>
<text text-anchor="start" x="25" y="-762" font-family="Helvetica,sans-Serif" font-size="10.00">setEnabled()</text>
<text text-anchor="start" x="14" y="-747" font-family="Helvetica,sans-Serif" font-size="10.00">+</text>
<text text-anchor="start" x="25" y="-747" font-family="Helvetica,sans-Serif" font-size="10.00">isComponentVisible()</text>
<text text-anchor="start" x="14" y="-732" font-family="Helvetica,sans-Serif" font-size="10.00">+</text>
<text text-anchor="start" x="25" y="-732" font-family="Helvetica,sans-Serif" font-size="10.00">isComponentEnabled()</text>
<polygon fill="#666666" stroke="#666666" points="10,-1072 10,-1072 129,-1072 129,-1072 10,-1072"/>
<polygon fill="#666666" stroke="#666666" points="10,-952 10,-952 23,-952 23,-952 10,-952"/>
<polygon fill="#666666" stroke="#666666" points="23,-952 23,-952 129,-952 129,-952 23,-952"/>
<polygon fill="none" stroke="#666666" points="9.5,-725 9.5,-1089 128.5,-1089 128.5,-725 9.5,-725"/>
</a>
</g>
</g>
<!-- Node3&#45;&gt;Node2 -->
<g id="edge2_Node000002_Node000003" class="edge">
<title>Node3&#45;&gt;Node2</title>
<g id="a_edge2_Node000002_Node000003"><a xlink:title=" ">
<path fill="none" stroke="#63b8ff" d="M69,-714.59C69,-706.19 69,-697.75 69,-689.32"/>
<polygon fill="none" stroke="#63b8ff" points="65.5,-714.8 69,-724.8 72.5,-714.8 65.5,-714.8"/>
</a>
</g>
</g>
</g>
</svg>
