<?xml version="1.0" encoding="UTF-8" standalone="no"?>
<!DOCTYPE svg PUBLIC "-//W3C//DTD SVG 1.1//EN"
 "http://www.w3.org/Graphics/SVG/1.1/DTD/svg11.dtd">
<!-- Generated by graphviz version 2.43.0 (0)
 -->
<!-- Title: BoardSquareComposite Pages: 1 -->
<svg width="127pt" height="602pt"
 viewBox="0.00 0.00 127.00 602.00" xmlns="http://www.w3.org/2000/svg" xmlns:xlink="http://www.w3.org/1999/xlink">
<g id="graph0" class="graph" transform="scale(1 1) rotate(0) translate(4 598)">
<title>BoardSquareComposite</title>
<!-- Node1 -->
<g id="Node000001" class="node">
<title>Node1</title>
<g id="a_Node000001"><a xlink:title=" ">
<polygon fill="#999999" stroke="transparent" points="116.5,-49 2.5,-49 2.5,0 116.5,0 116.5,-49"/>
<text text-anchor="start" x="7.5" y="-36.5" font-family="Helvetica,sans-Serif" font-size="10.00">BoardSquareComposite</text>
<text text-anchor="start" x="57.5" y="-21.5" font-family="Helvetica,sans-Serif" font-size="10.00"> </text>
<text text-anchor="start" x="57.5" y="-6.5" font-family="Helvetica,sans-Serif" font-size="10.00"> </text>
<polygon fill="#666666" stroke="#666666" points="2.5,-31.5 2.5,-31.5 116.5,-31.5 116.5,-31.5 2.5,-31.5"/>
<polygon fill="#666666" stroke="#666666" points="2.5,-16.5 2.5,-16.5 116.5,-16.5 116.5,-16.5 2.5,-16.5"/>
<polygon fill="none" stroke="#666666" points="2.5,0 2.5,-49 116.5,-49 116.5,0 2.5,0"/>
</a>
</g>
</g>
<!-- Node2 -->
<g id="Node000002" class="node">
<title>Node2</title>
<g id="a_Node000002"><a xlink:href="classSFComposite.html" target="_top" xlink:title=" ">
<polygon fill="white" stroke="transparent" points="102.5,-194 16.5,-194 16.5,-85 102.5,-85 102.5,-194"/>
<text text-anchor="start" x="29" y="-181.5" font-family="Helvetica,sans-Serif" font-size="10.00">SFComposite</text>
<text text-anchor="start" x="21" y="-166.5" font-family="Helvetica,sans-Serif" font-size="10.00">#</text>
<text text-anchor="start" x="31.5" y="-166.5" font-family="Helvetica,sans-Serif" font-size="10.00">children</text>
<text text-anchor="start" x="20.5" y="-151.5" font-family="Helvetica,sans-Serif" font-size="10.00">+</text>
<text text-anchor="start" x="31.5" y="-151.5" font-family="Helvetica,sans-Serif" font-size="10.00">SFComposite()</text>
<text text-anchor="start" x="20.5" y="-136.5" font-family="Helvetica,sans-Serif" font-size="10.00">+</text>
<text text-anchor="start" x="31.5" y="-136.5" font-family="Helvetica,sans-Serif" font-size="10.00">SFComposite()</text>
<text text-anchor="start" x="20.5" y="-121.5" font-family="Helvetica,sans-Serif" font-size="10.00">+</text>
<text text-anchor="start" x="31.5" y="-121.5" font-family="Helvetica,sans-Serif" font-size="10.00">draw()</text>
<text text-anchor="start" x="20.5" y="-106.5" font-family="Helvetica,sans-Serif" font-size="10.00">+</text>
<text text-anchor="start" x="31.5" y="-106.5" font-family="Helvetica,sans-Serif" font-size="10.00">add()</text>
<text text-anchor="start" x="20.5" y="-91.5" font-family="Helvetica,sans-Serif" font-size="10.00">+</text>
<text text-anchor="start" x="31.5" y="-91.5" font-family="Helvetica,sans-Serif" font-size="10.00">remove()</text>
<polygon fill="#666666" stroke="#666666" points="16.5,-176.5 16.5,-176.5 102.5,-176.5 102.5,-176.5 16.5,-176.5"/>
<polygon fill="#666666" stroke="#666666" points="16.5,-161.5 16.5,-161.5 29.5,-161.5 29.5,-161.5 16.5,-161.5"/>
<polygon fill="#666666" stroke="#666666" points="29.5,-161.5 29.5,-161.5 102.5,-161.5 102.5,-161.5 29.5,-161.5"/>
<polygon fill="none" stroke="#666666" points="16.5,-85 16.5,-194 102.5,-194 102.5,-85 16.5,-85"/>
</a>
</g>
</g>
<!-- Node2&#45;&gt;Node1 -->
<g id="edge1_Node000001_Node000002" class="edge">
<title>Node2&#45;&gt;Node1</title>
<g id="a_edge1_Node000001_Node000002"><a xlink:title=" ">
<path fill="none" stroke="#63b8ff" d="M59.5,-74.69C59.5,-65.63 59.5,-56.82 59.5,-49.23"/>
<polygon fill="none" stroke="#63b8ff" points="56,-74.98 59.5,-84.98 63,-74.98 56,-74.98"/>
</a>
</g>
</g>
<!-- Node3 -->
<g id="Node000003" class="node">
<title>Node3</title>
<g id="a_Node000003"><a xlink:href="classSFComponent.html" target="_top" xlink:title=" ">
<polygon fill="white" stroke="transparent" points="119,-594 0,-594 0,-230 119,-230 119,-594"/>
<text text-anchor="start" x="28" y="-582" font-family="Helvetica,sans-Serif" font-size="10.00">SFComponent</text>
<text text-anchor="start" x="5" y="-567" font-family="Helvetica,sans-Serif" font-size="10.00">#</text>
<text text-anchor="start" x="15.5" y="-567" font-family="Helvetica,sans-Serif" font-size="10.00">position</text>
<text text-anchor="start" x="5" y="-552" font-family="Helvetica,sans-Serif" font-size="10.00">#</text>
<text text-anchor="start" x="15.5" y="-552" font-family="Helvetica,sans-Serif" font-size="10.00">size</text>
<text text-anchor="start" x="5" y="-537" font-family="Helvetica,sans-Serif" font-size="10.00">#</text>
<text text-anchor="start" x="15.5" y="-537" font-family="Helvetica,sans-Serif" font-size="10.00">isVisible</text>
<text text-anchor="start" x="5" y="-522" font-family="Helvetica,sans-Serif" font-size="10.00">#</text>
<text text-anchor="start" x="15.5" y="-522" font-family="Helvetica,sans-Serif" font-size="10.00">isEnabled</text>
<text text-anchor="start" x="5" y="-507" font-family="Helvetica,sans-Serif" font-size="10.00">#</text>
<text text-anchor="start" x="15.5" y="-507" font-family="Helvetica,sans-Serif" font-size="10.00">REGULAR_WIDTH</text>
<text text-anchor="start" x="5" y="-492" font-family="Helvetica,sans-Serif" font-size="10.00">#</text>
<text text-anchor="start" x="15.5" y="-492" font-family="Helvetica,sans-Serif" font-size="10.00">REGULAR_HEIGHT</text>
<text text-anchor="start" x="5" y="-477" font-family="Helvetica,sans-Serif" font-size="10.00">#</text>
<text text-anchor="start" x="15.5" y="-477" font-family="Helvetica,sans-Serif" font-size="10.00">CORNER_SIZE</text>
<text text-anchor="start" x="5" y="-462" font-family="Helvetica,sans-Serif" font-size="10.00">#</text>
<text text-anchor="start" x="15.5" y="-462" font-family="Helvetica,sans-Serif" font-size="10.00">TEXT_PADDING</text>
<text text-anchor="start" x="4.5" y="-447" font-family="Helvetica,sans-Serif" font-size="10.00">+</text>
<text text-anchor="start" x="15.5" y="-447" font-family="Helvetica,sans-Serif" font-size="10.00">SFComponent()</text>
<text text-anchor="start" x="4.5" y="-432" font-family="Helvetica,sans-Serif" font-size="10.00">+</text>
<text text-anchor="start" x="15.5" y="-432" font-family="Helvetica,sans-Serif" font-size="10.00">SFComponent()</text>
<text text-anchor="start" x="4.5" y="-417" font-family="Helvetica,sans-Serif" font-size="10.00">+</text>
<text text-anchor="start" x="15.5" y="-417" font-family="Helvetica,sans-Serif" font-size="10.00">~SFComponent()</text>
<text text-anchor="start" x="4.5" y="-402" font-family="Helvetica,sans-Serif" font-size="10.00">+</text>
<text text-anchor="start" x="15.5" y="-402" font-family="Helvetica,sans-Serif" font-size="10.00">draw()</text>
<text text-anchor="start" x="4.5" y="-387" font-family="Helvetica,sans-Serif" font-size="10.00">+</text>
<text text-anchor="start" x="15.5" y="-387" font-family="Helvetica,sans-Serif" font-size="10.00">handleEvent()</text>
<text text-anchor="start" x="4.5" y="-372" font-family="Helvetica,sans-Serif" font-size="10.00">+</text>
<text text-anchor="start" x="15.5" y="-372" font-family="Helvetica,sans-Serif" font-size="10.00">updateView()</text>
<text text-anchor="start" x="4.5" y="-357" font-family="Helvetica,sans-Serif" font-size="10.00">+</text>
<text text-anchor="start" x="15.5" y="-357" font-family="Helvetica,sans-Serif" font-size="10.00">setPosition()</text>
<text text-anchor="start" x="4.5" y="-342" font-family="Helvetica,sans-Serif" font-size="10.00">+</text>
<text text-anchor="start" x="15.5" y="-342" font-family="Helvetica,sans-Serif" font-size="10.00">setSize()</text>
<text text-anchor="start" x="4.5" y="-327" font-family="Helvetica,sans-Serif" font-size="10.00">+</text>
<text text-anchor="start" x="15.5" y="-327" font-family="Helvetica,sans-Serif" font-size="10.00">getPosition()</text>
<text text-anchor="start" x="4.5" y="-312" font-family="Helvetica,sans-Serif" font-size="10.00">+</text>
<text text-anchor="start" x="15.5" y="-312" font-family="Helvetica,sans-Serif" font-size="10.00">getSize()</text>
<text text-anchor="start" x="4.5" y="-297" font-family="Helvetica,sans-Serif" font-size="10.00">+</text>
<text text-anchor="start" x="15.5" y="-297" font-family="Helvetica,sans-Serif" font-size="10.00">contains()</text>
<text text-anchor="start" x="4.5" y="-282" font-family="Helvetica,sans-Serif" font-size="10.00">+</text>
<text text-anchor="start" x="15.5" y="-282" font-family="Helvetica,sans-Serif" font-size="10.00">setVisible()</text>
<text text-anchor="start" x="4.5" y="-267" font-family="Helvetica,sans-Serif" font-size="10.00">+</text>
<text text-anchor="start" x="15.5" y="-267" font-family="Helvetica,sans-Serif" font-size="10.00">setEnabled()</text>
<text text-anchor="start" x="4.5" y="-252" font-family="Helvetica,sans-Serif" font-size="10.00">+</text>
<text text-anchor="start" x="15.5" y="-252" font-family="Helvetica,sans-Serif" font-size="10.00">isComponentVisible()</text>
<text text-anchor="start" x="4.5" y="-237" font-family="Helvetica,sans-Serif" font-size="10.00">+</text>
<text text-anchor="start" x="15.5" y="-237" font-family="Helvetica,sans-Serif" font-size="10.00">isComponentEnabled()</text>
<polygon fill="#666666" stroke="#666666" points="0.5,-577 0.5,-577 119.5,-577 119.5,-577 0.5,-577"/>
<polygon fill="#666666" stroke="#666666" points="0.5,-457 0.5,-457 13.5,-457 13.5,-457 0.5,-457"/>
<polygon fill="#666666" stroke="#666666" points="13.5,-457 13.5,-457 119.5,-457 119.5,-457 13.5,-457"/>
<polygon fill="none" stroke="#666666" points="0,-230 0,-594 119,-594 119,-230 0,-230"/>
</a>
</g>
</g>
<!-- Node3&#45;&gt;Node2 -->
<g id="edge2_Node000002_Node000003" class="edge">
<title>Node3&#45;&gt;Node2</title>
<g id="a_edge2_Node000002_Node000003"><a xlink:title=" ">
<path fill="none" stroke="#63b8ff" d="M59.5,-219.55C59.5,-210.59 59.5,-202.03 59.5,-194.08"/>
<polygon fill="none" stroke="#63b8ff" points="56,-219.82 59.5,-229.82 63,-219.82 56,-219.82"/>
</a>
</g>
</g>
</g>
</svg>
