<?xml version="1.0" encoding="UTF-8" standalone="no"?>
<!DOCTYPE svg PUBLIC "-//W3C//DTD SVG 1.1//EN"
 "http://www.w3.org/Graphics/SVG/1.1/DTD/svg11.dtd">
<!-- Generated by graphviz version 2.43.0 (0)
 -->
<!-- Title: monopoly::Player::hasMaxConsecutiveDoubles Pages: 1 -->
<svg width="608pt" height="38pt"
 viewBox="0.00 0.00 608.00 38.00" xmlns="http://www.w3.org/2000/svg" xmlns:xlink="http://www.w3.org/1999/xlink">
<g id="graph0" class="graph" transform="scale(1 1) rotate(0) translate(4 34)">
<title>monopoly::Player::hasMaxConsecutiveDoubles</title>
<!-- Node1 -->
<g id="Node000001" class="node">
<title>Node1</title>
<g id="a_Node000001"><a xlink:title=" ">
<polygon fill="#999999" stroke="#666666" points="600,-30 467,-30 467,0 600,0 600,-30"/>
<text text-anchor="start" x="475" y="-18" font-family="Helvetica,sans-Serif" font-size="10.00">monopoly::Player::hasMax</text>
<text text-anchor="middle" x="533.5" y="-7" font-family="Helvetica,sans-Serif" font-size="10.00">ConsecutiveDoubles</text>
</a>
</g>
</g>
<!-- Node2 -->
<g id="Node000002" class="node">
<title>Node2</title>
<g id="a_Node000002"><a xlink:href="classmonopoly_1_1GameModel.html#a235817e4a0e8aae94e261ecc3f561b67" target="_top" xlink:title="Process doubles roll consequences.">
<polygon fill="white" stroke="#666666" points="431,-30 314,-30 314,0 431,0 431,-30"/>
<text text-anchor="start" x="322" y="-18" font-family="Helvetica,sans-Serif" font-size="10.00">monopoly::GameModel</text>
<text text-anchor="middle" x="372.5" y="-7" font-family="Helvetica,sans-Serif" font-size="10.00">::handleDouble</text>
</a>
</g>
</g>
<!-- Node1&#45;&gt;Node2 -->
<g id="edge1_Node000001_Node000002" class="edge">
<title>Node1&#45;&gt;Node2</title>
<g id="a_edge1_Node000001_Node000002"><a xlink:title=" ">
<path fill="none" stroke="#63b8ff" d="M456.8,-15C448.14,-15 439.43,-15 431.06,-15"/>
<polygon fill="#63b8ff" stroke="#63b8ff" points="456.91,-18.5 466.91,-15 456.91,-11.5 456.91,-18.5"/>
</a>
</g>
</g>
<!-- Node3 -->
<g id="Node000003" class="node">
<title>Node3</title>
<g id="a_Node000003"><a xlink:href="classmonopoly_1_1GameModel.html#ad53cf6f13f83ba2408a6bbcffda3a99e" target="_top" xlink:title="Roll two dice and return their values.">
<polygon fill="white" stroke="#666666" points="278,-30 161,-30 161,0 278,0 278,-30"/>
<text text-anchor="start" x="169" y="-18" font-family="Helvetica,sans-Serif" font-size="10.00">monopoly::GameModel</text>
<text text-anchor="middle" x="219.5" y="-7" font-family="Helvetica,sans-Serif" font-size="10.00">::rollDice</text>
</a>
</g>
</g>
<!-- Node2&#45;&gt;Node3 -->
<g id="edge2_Node000002_Node000003" class="edge">
<title>Node2&#45;&gt;Node3</title>
<g id="a_edge2_Node000002_Node000003"><a xlink:title=" ">
<path fill="none" stroke="#63b8ff" d="M303.95,-15C295.32,-15 286.56,-15 278.11,-15"/>
<polygon fill="#63b8ff" stroke="#63b8ff" points="303.98,-18.5 313.98,-15 303.98,-11.5 303.98,-18.5"/>
</a>
</g>
</g>
<!-- Node4 -->
<g id="Node000004" class="node">
<title>Node4</title>
<g id="a_Node000004"><a xlink:href="classmonopoly_1_1RollDiceState.html#a262a6a32b9cacaa7561f81a55ec1c1f3" target="_top" xlink:title=" ">
<polygon fill="white" stroke="#666666" points="125,-30 0,-30 0,0 125,0 125,-30"/>
<text text-anchor="start" x="8" y="-18" font-family="Helvetica,sans-Serif" font-size="10.00">monopoly::RollDiceState</text>
<text text-anchor="middle" x="62.5" y="-7" font-family="Helvetica,sans-Serif" font-size="10.00">::handleKeyRelease</text>
</a>
</g>
</g>
<!-- Node3&#45;&gt;Node4 -->
<g id="edge3_Node000003_Node000004" class="edge">
<title>Node3&#45;&gt;Node4</title>
<g id="a_edge3_Node000003_Node000004"><a xlink:title=" ">
<path fill="none" stroke="#63b8ff" d="M150.58,-15C142.12,-15 133.51,-15 125.16,-15"/>
<polygon fill="#63b8ff" stroke="#63b8ff" points="150.78,-18.5 160.78,-15 150.78,-11.5 150.78,-18.5"/>
</a>
</g>
</g>
</g>
</svg>
