<?xml version="1.0" encoding="UTF-8" standalone="no"?>
<!DOCTYPE svg PUBLIC "-//W3C//DTD SVG 1.1//EN"
 "http://www.w3.org/Graphics/SVG/1.1/DTD/svg11.dtd">
<!-- Generated by graphviz version 2.43.0 (0)
 -->
<!-- Title: Button::Button Pages: 1 -->
<svg width="258pt" height="64pt"
 viewBox="0.00 0.00 258.00 64.00" xmlns="http://www.w3.org/2000/svg" xmlns:xlink="http://www.w3.org/1999/xlink">
<g id="graph0" class="graph" transform="scale(1 1) rotate(0) translate(4 60)">
<title>Button::Button</title>
<!-- Node1 -->
<g id="Node000001" class="node">
<title>Node1</title>
<g id="a_Node000001"><a xlink:title=" ">
<polygon fill="#999999" stroke="#666666" points="80,-37 0,-37 0,-18 80,-18 80,-37"/>
<text text-anchor="middle" x="40" y="-25" font-family="Helvetica,sans-Serif" font-size="10.00">Button::Button</text>
</a>
</g>
</g>
<!-- Node2 -->
<g id="Node000002" class="node">
<title>Node2</title>
<g id="a_Node000002"><a xlink:href="classButton.html#a7a2b10d82714939215ed1c10bdb1dc50" target="_top" xlink:title=" ">
<polygon fill="white" stroke="#666666" points="231.5,-56 134.5,-56 134.5,-37 231.5,-37 231.5,-56"/>
<text text-anchor="middle" x="183" y="-44" font-family="Helvetica,sans-Serif" font-size="10.00">Button::centerText</text>
</a>
</g>
</g>
<!-- Node1&#45;&gt;Node2 -->
<g id="edge1_Node000001_Node000002" class="edge">
<title>Node1&#45;&gt;Node2</title>
<g id="a_edge1_Node000001_Node000002"><a xlink:title=" ">
<path fill="none" stroke="#63b8ff" d="M80.28,-32.79C93.92,-34.63 109.51,-36.73 124.32,-38.73"/>
<polygon fill="#63b8ff" stroke="#63b8ff" points="124.04,-42.22 134.41,-40.09 124.97,-35.28 124.04,-42.22"/>
</a>
</g>
</g>
<!-- Node3 -->
<g id="Node000003" class="node">
<title>Node3</title>
<g id="a_Node000003"><a xlink:href="classSFComponent.html#a67ffc5d4523dcb637519d2b6a8b55981" target="_top" xlink:title=" ">
<polygon fill="white" stroke="#666666" points="250,-19 116,-19 116,0 250,0 250,-19"/>
<text text-anchor="middle" x="183" y="-7" font-family="Helvetica,sans-Serif" font-size="10.00">SFComponent::setPosition</text>
</a>
</g>
</g>
<!-- Node1&#45;&gt;Node3 -->
<g id="edge2_Node000001_Node000003" class="edge">
<title>Node1&#45;&gt;Node3</title>
<g id="a_edge2_Node000001_Node000003"><a xlink:title=" ">
<path fill="none" stroke="#63b8ff" d="M80.28,-22.49C88.33,-21.46 97.06,-20.34 105.91,-19.21"/>
<polygon fill="#63b8ff" stroke="#63b8ff" points="106.45,-22.67 115.93,-17.94 105.56,-15.73 106.45,-22.67"/>
</a>
</g>
</g>
</g>
</svg>
