<?xml version="1.0" encoding="UTF-8" standalone="no"?>
<!DOCTYPE svg PUBLIC "-//W3C//DTD SVG 1.1//EN"
 "http://www.w3.org/Graphics/SVG/1.1/DTD/svg11.dtd">
<!-- Generated by graphviz version 2.43.0 (0)
 -->
<!-- Title: monopoly::GameModel::landOnProperty Pages: 1 -->
<svg width="474pt" height="309pt"
 viewBox="0.00 0.00 474.00 308.50" xmlns="http://www.w3.org/2000/svg" xmlns:xlink="http://www.w3.org/1999/xlink">

<svg id="main" version="1.1" xmlns="http://www.w3.org/2000/svg" xmlns:xlink="http://www.w3.org/1999/xlink" xml:space="preserve" onload="init(evt)">
<style type="text/css"><![CDATA[
.node, .edge {opacity: 0.7;}
.node.selected, .edge.selected {opacity: 1;}
.edge:hover path { stroke: red; }
.edge:hover polygon { stroke: red; fill: red; }
]]></style>
<script type="application/ecmascript" xlink:href="svg.min.js"/>
<svg id="graph" class="graph">
<g id="graph0" class="graph" transform="scale(1 1) rotate(0) translate(4 304.5)">
<title>monopoly::GameModel::landOnProperty</title>
<!-- Node1 -->
<g id="Node000001" class="node">
<title>Node1</title>
<g id="a_Node000001"><a xlink:title="Handle landing on property square.">
<polygon fill="#999999" stroke="#666666" points="117,-147 0,-147 0,-117 117,-117 117,-147"/>
<text text-anchor="start" x="8" y="-135" font-family="Helvetica,sans-Serif" font-size="10.00">monopoly::GameModel</text>
<text text-anchor="middle" x="58.5" y="-124" font-family="Helvetica,sans-Serif" font-size="10.00">::landOnProperty</text>
</a>
</g>
</g>
<!-- Node2 -->
<g id="Node000002" class="node">
<title>Node2</title>
<g id="a_Node000002"><a xlink:href="classmonopoly_1_1Player.html#a3ac4e53730a8d5f12ee3f9ffd1d9e528" target="_top" xlink:title="Checks if player can afford a payment.">
<polygon fill="white" stroke="#666666" points="456,-300.5 316,-300.5 316,-281.5 456,-281.5 456,-300.5"/>
<text text-anchor="middle" x="386" y="-288.5" font-family="Helvetica,sans-Serif" font-size="10.00">monopoly::Player::canAfford</text>
</a>
</g>
</g>
<!-- Node1&#45;&gt;Node2 -->
<g id="edge1_Node000001_Node000002" class="edge">
<title>Node1&#45;&gt;Node2</title>
<g id="a_edge1_Node000001_Node000002"><a xlink:title=" ">
<path fill="none" stroke="#63b8ff" d="M71.86,-147.33C88.43,-166.95 119.64,-200.81 153,-221 202.9,-251.2 266.8,-269.22 314.89,-279.39"/>
<polygon fill="#63b8ff" stroke="#63b8ff" points="314.41,-282.87 324.9,-281.45 315.81,-276.01 314.41,-282.87"/>
</a>
</g>
</g>
<!-- Node3 -->
<g id="Node000003" class="node">
<title>Node3</title>
<g id="a_Node000003"><a xlink:href="classmonopoly_1_1GameModel.html#ad2cc951c35bb0f9d412e79adb790d510" target="_top" xlink:title="Check if houses can be built on street.">
<polygon fill="white" stroke="#666666" points="270,-212 153,-212 153,-182 270,-182 270,-212"/>
<text text-anchor="start" x="161" y="-200" font-family="Helvetica,sans-Serif" font-size="10.00">monopoly::GameModel</text>
<text text-anchor="middle" x="211.5" y="-189" font-family="Helvetica,sans-Serif" font-size="10.00">::canBuildOnStreet</text>
</a>
</g>
</g>
<!-- Node1&#45;&gt;Node3 -->
<g id="edge2_Node000001_Node000003" class="edge">
<title>Node1&#45;&gt;Node3</title>
<g id="a_edge2_Node000001_Node000003"><a xlink:title=" ">
<path fill="none" stroke="#63b8ff" d="M94.52,-147.08C115.79,-156.23 143.14,-168.01 165.94,-177.82"/>
<polygon fill="#63b8ff" stroke="#63b8ff" points="164.84,-181.15 175.41,-181.89 167.61,-174.72 164.84,-181.15"/>
</a>
</g>
</g>
<!-- Node6 -->
<g id="Node000006" class="node">
<title>Node6</title>
<g id="a_Node000006"><a xlink:href="classmonopoly_1_1Player.html#a25b1794379aa66e656ba1ba9632ff76e" target="_top" xlink:title=" ">
<polygon fill="white" stroke="#666666" points="446,-103.5 326,-103.5 326,-84.5 446,-84.5 446,-103.5"/>
<text text-anchor="middle" x="386" y="-91.5" font-family="Helvetica,sans-Serif" font-size="10.00">monopoly::Player::getId</text>
</a>
</g>
</g>
<!-- Node1&#45;&gt;Node6 -->
<g id="edge9_Node000001_Node000006" class="edge">
<title>Node1&#45;&gt;Node6</title>
<g id="a_edge9_Node000001_Node000006"><a xlink:title=" ">
<path fill="none" stroke="#63b8ff" d="M117.35,-134.15C129.14,-134.5 141.47,-134.82 153,-135 204.99,-135.83 219.94,-149.08 270,-135 288.05,-129.92 288.67,-120.17 306,-113 312.13,-110.46 318.67,-108.22 325.27,-106.24"/>
<polygon fill="#63b8ff" stroke="#63b8ff" points="326.25,-109.6 334.94,-103.54 324.37,-102.86 326.25,-109.6"/>
</a>
</g>
</g>
<!-- Node9 -->
<g id="Node000009" class="node">
<title>Node9</title>
<g id="a_Node000009"><a xlink:href="classmonopoly_1_1Property.html#ac6c0069d0c07e7da36ed18d62e1d23b5" target="_top" xlink:title="Gets the current owner&#39;s ID.">
<polygon fill="white" stroke="#666666" points="262,-126 161,-126 161,-96 262,-96 262,-126"/>
<text text-anchor="start" x="169" y="-114" font-family="Helvetica,sans-Serif" font-size="10.00">monopoly::Property</text>
<text text-anchor="middle" x="211.5" y="-103" font-family="Helvetica,sans-Serif" font-size="10.00">::getOwnerId</text>
</a>
</g>
</g>
<!-- Node1&#45;&gt;Node9 -->
<g id="edge10_Node000001_Node000009" class="edge">
<title>Node1&#45;&gt;Node9</title>
<g id="a_edge10_Node000001_Node000009"><a xlink:title=" ">
<path fill="none" stroke="#63b8ff" d="M117.02,-124C127.99,-122.47 139.51,-120.87 150.56,-119.34"/>
<polygon fill="#63b8ff" stroke="#63b8ff" points="151.12,-122.79 160.54,-117.95 150.16,-115.86 151.12,-122.79"/>
</a>
</g>
</g>
<!-- Node10 -->
<g id="Node000010" class="node">
<title>Node10</title>
<g id="a_Node000010"><a xlink:href="classmonopoly_1_1Property.html#a199e7751d65d99c7ce443d9a782f4e2e" target="_top" xlink:title="Gets the property&#39;s purchase price.">
<polygon fill="white" stroke="#666666" points="262,-78 161,-78 161,-48 262,-48 262,-78"/>
<text text-anchor="start" x="169" y="-66" font-family="Helvetica,sans-Serif" font-size="10.00">monopoly::Property</text>
<text text-anchor="middle" x="211.5" y="-55" font-family="Helvetica,sans-Serif" font-size="10.00">::getPrice</text>
</a>
</g>
</g>
<!-- Node1&#45;&gt;Node10 -->
<g id="edge11_Node000001_Node000010" class="edge">
<title>Node1&#45;&gt;Node10</title>
<g id="a_edge11_Node000001_Node000010"><a xlink:title=" ">
<path fill="none" stroke="#63b8ff" d="M89.63,-117C107.86,-108.05 131.64,-96.59 153,-87 156.62,-85.38 160.37,-83.73 164.16,-82.09"/>
<polygon fill="#63b8ff" stroke="#63b8ff" points="165.74,-85.22 173.57,-78.07 162.99,-78.78 165.74,-85.22"/>
</a>
</g>
</g>
<!-- Node11 -->
<g id="Node000011" class="node">
<title>Node11</title>
<g id="a_Node000011"><a xlink:href="classmonopoly_1_1Property.html#a431be9f07f9cc274ffa2c686bb1eb55e" target="_top" xlink:title="Checks if property is owned by a player (not the bank)">
<polygon fill="white" stroke="#666666" points="262,-30 161,-30 161,0 262,0 262,-30"/>
<text text-anchor="start" x="169" y="-18" font-family="Helvetica,sans-Serif" font-size="10.00">monopoly::Property</text>
<text text-anchor="middle" x="211.5" y="-7" font-family="Helvetica,sans-Serif" font-size="10.00">::isOwned</text>
</a>
</g>
</g>
<!-- Node1&#45;&gt;Node11 -->
<g id="edge12_Node000001_Node000011" class="edge">
<title>Node1&#45;&gt;Node11</title>
<g id="a_edge12_Node000001_Node000011"><a xlink:title=" ">
<path fill="none" stroke="#63b8ff" d="M71.37,-116.99C87.87,-96.95 119.5,-61.39 153,-39 155.16,-37.55 157.43,-36.17 159.76,-34.84"/>
<polygon fill="#63b8ff" stroke="#63b8ff" points="161.72,-37.77 168.97,-30.04 158.49,-31.56 161.72,-37.77"/>
</a>
</g>
</g>
<!-- Node3&#45;&gt;Node2 -->
<g id="edge3_Node000003_Node000002" class="edge">
<title>Node3&#45;&gt;Node2</title>
<g id="a_edge3_Node000003_Node000002"><a xlink:title=" ">
<path fill="none" stroke="#63b8ff" d="M226.54,-212C243.65,-229.36 274.22,-257.52 306,-273 310.02,-274.96 314.26,-276.71 318.61,-278.27"/>
<polygon fill="#63b8ff" stroke="#63b8ff" points="317.64,-281.64 328.24,-281.4 319.81,-274.98 317.64,-281.64"/>
</a>
</g>
</g>
<!-- Node4 -->
<g id="Node000004" class="node">
<title>Node4</title>
<g id="a_Node000004"><a xlink:href="classmonopoly_1_1Street.html#a285ac818e3b1b75df0458c3928eddf7f" target="_top" xlink:title="Get the cost to build a house.">
<polygon fill="white" stroke="#666666" points="466,-263.5 306,-263.5 306,-244.5 466,-244.5 466,-263.5"/>
<text text-anchor="middle" x="386" y="-251.5" font-family="Helvetica,sans-Serif" font-size="10.00">monopoly::Street::getHouseCost</text>
</a>
</g>
</g>
<!-- Node3&#45;&gt;Node4 -->
<g id="edge4_Node000003_Node000004" class="edge">
<title>Node3&#45;&gt;Node4</title>
<g id="a_edge4_Node000003_Node000004"><a xlink:title=" ">
<path fill="none" stroke="#63b8ff" d="M244.87,-212.11C262.64,-220 285.23,-229.36 306,-236 312.82,-238.18 320.04,-240.21 327.25,-242.05"/>
<polygon fill="#63b8ff" stroke="#63b8ff" points="326.47,-245.46 337.02,-244.45 328.14,-238.67 326.47,-245.46"/>
</a>
</g>
</g>
<!-- Node5 -->
<g id="Node000005" class="node">
<title>Node5</title>
<g id="a_Node000005"><a xlink:href="classmonopoly_1_1Street.html#a5457f695453457b85a54bb83ca8a2597" target="_top" xlink:title="Get the number of houses.">
<polygon fill="white" stroke="#666666" points="458,-226.5 314,-226.5 314,-207.5 458,-207.5 458,-226.5"/>
<text text-anchor="middle" x="386" y="-214.5" font-family="Helvetica,sans-Serif" font-size="10.00">monopoly::Street::getHouses</text>
</a>
</g>
</g>
<!-- Node3&#45;&gt;Node5 -->
<g id="edge5_Node000003_Node000005" class="edge">
<title>Node3&#45;&gt;Node5</title>
<g id="a_edge5_Node000003_Node000005"><a xlink:title=" ">
<path fill="none" stroke="#63b8ff" d="M270.42,-203.72C281.06,-204.95 292.35,-206.26 303.53,-207.55"/>
<polygon fill="#63b8ff" stroke="#63b8ff" points="303.41,-211.06 313.75,-208.74 304.22,-204.11 303.41,-211.06"/>
</a>
</g>
</g>
<!-- Node3&#45;&gt;Node6 -->
<g id="edge6_Node000003_Node000006" class="edge">
<title>Node3&#45;&gt;Node6</title>
<g id="a_edge6_Node000003_Node000006"><a xlink:title=" ">
<path fill="none" stroke="#63b8ff" d="M249.61,-181.9C256.82,-178 264,-173.36 270,-168 291.79,-148.54 282.11,-129.82 306,-113 309.28,-110.69 312.81,-108.66 316.48,-106.87"/>
<polygon fill="#63b8ff" stroke="#63b8ff" points="318.02,-110.02 325.88,-102.92 315.3,-103.57 318.02,-110.02"/>
</a>
</g>
</g>
<!-- Node7 -->
<g id="Node000007" class="node">
<title>Node7</title>
<g id="a_Node000007"><a xlink:href="classmonopoly_1_1Square.html#a6245251a3e881d9066cf7558d8b0d793" target="_top" xlink:title="Gets the unique identifier of the square.">
<polygon fill="white" stroke="#666666" points="447.5,-189.5 324.5,-189.5 324.5,-170.5 447.5,-170.5 447.5,-189.5"/>
<text text-anchor="middle" x="386" y="-177.5" font-family="Helvetica,sans-Serif" font-size="10.00">monopoly::Square::getId</text>
</a>
</g>
</g>
<!-- Node3&#45;&gt;Node7 -->
<g id="edge7_Node000003_Node000007" class="edge">
<title>Node3&#45;&gt;Node7</title>
<g id="a_edge7_Node000003_Node000007"><a xlink:title=" ">
<path fill="none" stroke="#63b8ff" d="M270.42,-191.29C284.5,-189.9 299.7,-188.41 314.3,-186.97"/>
<polygon fill="#63b8ff" stroke="#63b8ff" points="314.67,-190.45 324.28,-185.98 313.99,-183.48 314.67,-190.45"/>
</a>
</g>
</g>
<!-- Node8 -->
<g id="Node000008" class="node">
<title>Node8</title>
<g id="a_Node000008"><a xlink:href="classmonopoly_1_1GameModel.html#aa5cb7ec7c6c8ba1f993594ed2d33f9dc" target="_top" xlink:title="Check if player has monopoly on property group.">
<polygon fill="white" stroke="#666666" points="444.5,-152 327.5,-152 327.5,-122 444.5,-122 444.5,-152"/>
<text text-anchor="start" x="335.5" y="-140" font-family="Helvetica,sans-Serif" font-size="10.00">monopoly::GameModel</text>
<text text-anchor="middle" x="386" y="-129" font-family="Helvetica,sans-Serif" font-size="10.00">::hasMonopoly</text>
</a>
</g>
</g>
<!-- Node3&#45;&gt;Node8 -->
<g id="edge8_Node000003_Node000008" class="edge">
<title>Node3&#45;&gt;Node8</title>
<g id="a_edge8_Node000003_Node000008"><a xlink:title=" ">
<path fill="none" stroke="#63b8ff" d="M251.46,-181.9C268.18,-175.56 287.98,-168.22 306,-162 312.49,-159.76 319.3,-157.49 326.09,-155.27"/>
<polygon fill="#63b8ff" stroke="#63b8ff" points="327.55,-158.48 335.99,-152.08 325.39,-151.82 327.55,-158.48"/>
</a>
</g>
</g>
</g>
</svg>
</svg>

<style type='text/css'>
<![CDATA[
[data-mouse-over-selected='false'] { opacity: 0.7; }
[data-mouse-over-selected='true']  { opacity: 1.0; }
]]>
</style>
<script type="application/ecmascript"><![CDATA[
document.addEventListener('DOMContentLoaded', (event) => {
  highlightEdges();
  highlightAdjacentNodes();
});
]]></script>
</svg>
