<?xml version="1.0" encoding="UTF-8" standalone="no"?>
<!DOCTYPE svg PUBLIC "-//W3C//DTD SVG 1.1//EN"
 "http://www.w3.org/Graphics/SVG/1.1/DTD/svg11.dtd">
<!-- Generated by graphviz version 2.43.0 (0)
 -->
<!-- Title: monopoly::RollDiceState Pages: 1 -->
<svg width="188pt" height="308pt"
 viewBox="0.00 0.00 188.00 308.00" xmlns="http://www.w3.org/2000/svg" xmlns:xlink="http://www.w3.org/1999/xlink">
<g id="graph0" class="graph" transform="scale(1 1) rotate(0) translate(4 304)">
<title>monopoly::RollDiceState</title>
<!-- Node1 -->
<g id="Node000001" class="node">
<title>Node1</title>
<g id="a_Node000001"><a xlink:title=" ">
<polygon fill="#999999" stroke="transparent" points="119,-94 0,-94 0,0 119,0 119,-94"/>
<text text-anchor="start" x="5.5" y="-82" font-family="Helvetica,sans-Serif" font-size="10.00">monopoly::RollDiceState</text>
<text text-anchor="start" x="58" y="-67" font-family="Helvetica,sans-Serif" font-size="10.00"> </text>
<text text-anchor="start" x="7.5" y="-52" font-family="Helvetica,sans-Serif" font-size="10.00">+</text>
<text text-anchor="start" x="21.5" y="-52" font-family="Helvetica,sans-Serif" font-size="10.00">onEnter()</text>
<text text-anchor="start" x="7.5" y="-37" font-family="Helvetica,sans-Serif" font-size="10.00">+</text>
<text text-anchor="start" x="21.5" y="-37" font-family="Helvetica,sans-Serif" font-size="10.00">handleKeyRelease()</text>
<text text-anchor="start" x="7.5" y="-22" font-family="Helvetica,sans-Serif" font-size="10.00">+</text>
<text text-anchor="start" x="21.5" y="-22" font-family="Helvetica,sans-Serif" font-size="10.00">getInstance()</text>
<text text-anchor="start" x="9" y="-7" font-family="Helvetica,sans-Serif" font-size="10.00">&#45;</text>
<text text-anchor="start" x="21.5" y="-7" font-family="Helvetica,sans-Serif" font-size="10.00">RollDiceState()</text>
<polygon fill="#666666" stroke="#666666" points="0.5,-77 0.5,-77 119.5,-77 119.5,-77 0.5,-77"/>
<polygon fill="#666666" stroke="#666666" points="0.5,-62 0.5,-62 119.5,-62 119.5,-62 0.5,-62"/>
<polygon fill="none" stroke="#666666" points="0,0 0,-94 119,-94 119,0 0,0"/>
</a>
</g>
</g>
<!-- Node1&#45;&gt;Node1 -->
<g id="edge2_Node000001_Node000001" class="edge">
<title>Node1&#45;&gt;Node1</title>
<g id="a_edge2_Node000001_Node000001"><a xlink:title=" ">
<path fill="none" stroke="#63b8ff" d="M119.29,-58.25C129.73,-56.75 137,-53 137,-47 137,-43.72 134.83,-41.11 131.15,-39.17"/>
<polygon fill="none" stroke="#63b8ff" points="130.82,-39.08 123.94,-41.26 119.29,-35.75 126.16,-33.57 130.82,-39.08"/>
</a>
</g>
<text text-anchor="middle" x="158.5" y="-44.5" font-family="Helvetica,sans-Serif" font-size="10.00" fill="grey"> &#45;instance</text>
</g>
<!-- Node2 -->
<g id="Node000002" class="node">
<title>Node2</title>
<g id="a_Node000002"><a xlink:href="classmonopoly_1_1GameState.html" target="_top" xlink:title=" ">
<polygon fill="white" stroke="transparent" points="113.5,-300 5.5,-300 5.5,-131 113.5,-131 113.5,-300"/>
<text text-anchor="start" x="10.5" y="-287.5" font-family="Helvetica,sans-Serif" font-size="10.00">monopoly::GameState</text>
<text text-anchor="start" x="57.5" y="-272.5" font-family="Helvetica,sans-Serif" font-size="10.00"> </text>
<text text-anchor="start" x="9.5" y="-257.5" font-family="Helvetica,sans-Serif" font-size="10.00">+</text>
<text text-anchor="start" x="20.5" y="-257.5" font-family="Helvetica,sans-Serif" font-size="10.00">~GameState()</text>
<text text-anchor="start" x="9.5" y="-242.5" font-family="Helvetica,sans-Serif" font-size="10.00">+</text>
<text text-anchor="start" x="20.5" y="-242.5" font-family="Helvetica,sans-Serif" font-size="10.00">onEnter()</text>
<text text-anchor="start" x="9.5" y="-227.5" font-family="Helvetica,sans-Serif" font-size="10.00">+</text>
<text text-anchor="start" x="20.5" y="-227.5" font-family="Helvetica,sans-Serif" font-size="10.00">handleKeyRelease()</text>
<text text-anchor="start" x="9.5" y="-212.5" font-family="Helvetica,sans-Serif" font-size="10.00">+</text>
<text text-anchor="start" x="20.5" y="-212.5" font-family="Helvetica,sans-Serif" font-size="10.00">update()</text>
<text text-anchor="start" x="9.5" y="-197.5" font-family="Helvetica,sans-Serif" font-size="10.00">+</text>
<text text-anchor="start" x="20.5" y="-197.5" font-family="Helvetica,sans-Serif" font-size="10.00">getInstance()</text>
<text text-anchor="start" x="10" y="-182.5" font-family="Helvetica,sans-Serif" font-size="10.00">#</text>
<text text-anchor="start" x="20.5" y="-182.5" font-family="Helvetica,sans-Serif" font-size="10.00">GameState()</text>
<text text-anchor="start" x="10" y="-167.5" font-family="Helvetica,sans-Serif" font-size="10.00">#</text>
<text text-anchor="start" x="20.5" y="-167.5" font-family="Helvetica,sans-Serif" font-size="10.00">changeState()</text>
<text text-anchor="start" x="10" y="-152.5" font-family="Helvetica,sans-Serif" font-size="10.00">#</text>
<text text-anchor="start" x="20.5" y="-152.5" font-family="Helvetica,sans-Serif" font-size="10.00">GameState()</text>
<text text-anchor="start" x="10" y="-137.5" font-family="Helvetica,sans-Serif" font-size="10.00">#</text>
<text text-anchor="start" x="20.5" y="-137.5" font-family="Helvetica,sans-Serif" font-size="10.00">operator=()</text>
<polygon fill="#666666" stroke="#666666" points="5.5,-282.5 5.5,-282.5 113.5,-282.5 113.5,-282.5 5.5,-282.5"/>
<polygon fill="#666666" stroke="#666666" points="5.5,-267.5 5.5,-267.5 113.5,-267.5 113.5,-267.5 5.5,-267.5"/>
<polygon fill="none" stroke="#666666" points="5.5,-131 5.5,-300 113.5,-300 113.5,-131 5.5,-131"/>
</a>
</g>
</g>
<!-- Node2&#45;&gt;Node1 -->
<g id="edge1_Node000001_Node000002" class="edge">
<title>Node2&#45;&gt;Node1</title>
<g id="a_edge1_Node000001_Node000002"><a xlink:title=" ">
<path fill="none" stroke="#63b8ff" d="M59.5,-120.72C59.5,-111.51 59.5,-102.47 59.5,-94.07"/>
<polygon fill="none" stroke="#63b8ff" points="56,-120.76 59.5,-130.76 63,-120.76 56,-120.76"/>
</a>
</g>
</g>
</g>
</svg>
