<?xml version="1.0" encoding="UTF-8" standalone="no"?>
<!DOCTYPE svg PUBLIC "-//W3C//DTD SVG 1.1//EN"
 "http://www.w3.org/Graphics/SVG/1.1/DTD/svg11.dtd">
<!-- Generated by graphviz version 2.43.0 (0)
 -->
<!-- Title: monopoly::BoardView::BoardView Pages: 1 -->
<svg width="407pt" height="255pt"
 viewBox="0.00 0.00 407.00 254.82" xmlns="http://www.w3.org/2000/svg" xmlns:xlink="http://www.w3.org/1999/xlink">

<svg id="main" version="1.1" xmlns="http://www.w3.org/2000/svg" xmlns:xlink="http://www.w3.org/1999/xlink" xml:space="preserve" onload="init(evt)">
<style type="text/css"><![CDATA[
.node, .edge {opacity: 0.7;}
.node.selected, .edge.selected {opacity: 1;}
.edge:hover path { stroke: red; }
.edge:hover polygon { stroke: red; fill: red; }
]]></style>
<script type="application/ecmascript" xlink:href="svg.min.js"/>
<svg id="graph" class="graph">
<g id="graph0" class="graph" transform="scale(1 1) rotate(0) translate(4 250.82)">
<title>monopoly::BoardView::BoardView</title>
<!-- Node1 -->
<g id="Node000001" class="node">
<title>Node1</title>
<g id="a_Node000001"><a xlink:title=" ">
<polygon fill="#999999" stroke="#666666" points="112,-150 0,-150 0,-120 112,-120 112,-150"/>
<text text-anchor="start" x="8" y="-138" font-family="Helvetica,sans-Serif" font-size="10.00">monopoly::BoardView</text>
<text text-anchor="middle" x="56" y="-127" font-family="Helvetica,sans-Serif" font-size="10.00">::BoardView</text>
</a>
</g>
</g>
<!-- Node2 -->
<g id="Node000002" class="node">
<title>Node2</title>
<g id="a_Node000002"><a xlink:href="classSFComposite.html#a75e70955f19bbdbecec8660c9c520fc1" target="_top" xlink:title=" ">
<polygon fill="white" stroke="#666666" points="399,-144.5 301,-144.5 301,-125.5 399,-125.5 399,-144.5"/>
<text text-anchor="middle" x="350" y="-132.5" font-family="Helvetica,sans-Serif" font-size="10.00">SFComposite::add</text>
</a>
</g>
</g>
<!-- Node1&#45;&gt;Node2 -->
<g id="edge1_Node000001_Node000002" class="edge">
<title>Node1&#45;&gt;Node2</title>
<g id="a_edge1_Node000001_Node000002"><a xlink:title=" ">
<path fill="none" stroke="#63b8ff" d="M65.79,-150.29C79.81,-172.93 109.6,-214.49 148,-231 195.77,-251.54 217.65,-252.49 265,-231 299.94,-215.15 326.06,-176.78 339.3,-153.64"/>
<polygon fill="#63b8ff" stroke="#63b8ff" points="342.42,-155.21 344.17,-144.76 336.29,-151.84 342.42,-155.21"/>
</a>
</g>
</g>
<!-- Node3 -->
<g id="Node000003" class="node">
<title>Node3</title>
<g id="a_Node000003"><a xlink:href="classmonopoly_1_1BoardView.html#acd1028c0e8619c9c356f77fe41d27c64" target="_top" xlink:title=" ">
<polygon fill="white" stroke="#666666" points="265,-222 148,-222 148,-192 265,-192 265,-222"/>
<text text-anchor="start" x="156" y="-210" font-family="Helvetica,sans-Serif" font-size="10.00">monopoly::BoardView</text>
<text text-anchor="middle" x="206.5" y="-199" font-family="Helvetica,sans-Serif" font-size="10.00">::createBottomSquares</text>
</a>
</g>
</g>
<!-- Node1&#45;&gt;Node3 -->
<g id="edge2_Node000001_Node000003" class="edge">
<title>Node1&#45;&gt;Node3</title>
<g id="a_edge2_Node000001_Node000003"><a xlink:title=" ">
<path fill="none" stroke="#63b8ff" d="M84.15,-150.14C102.07,-159.93 126.19,-172.72 148,-183 151.53,-184.66 155.21,-186.34 158.93,-187.98"/>
<polygon fill="#63b8ff" stroke="#63b8ff" points="157.6,-191.22 168.17,-191.99 160.39,-184.8 157.6,-191.22"/>
</a>
</g>
</g>
<!-- Node4 -->
<g id="Node000004" class="node">
<title>Node4</title>
<g id="a_Node000004"><a xlink:href="classmonopoly_1_1BoardView.html#ab54a3957d804fc63231d741694d16506" target="_top" xlink:title=" ">
<polygon fill="white" stroke="#666666" points="264,-174 149,-174 149,-144 264,-144 264,-174"/>
<text text-anchor="start" x="157" y="-162" font-family="Helvetica,sans-Serif" font-size="10.00">monopoly::BoardView</text>
<text text-anchor="middle" x="206.5" y="-151" font-family="Helvetica,sans-Serif" font-size="10.00">::createCornerSquares</text>
</a>
</g>
</g>
<!-- Node1&#45;&gt;Node4 -->
<g id="edge4_Node000001_Node000004" class="edge">
<title>Node1&#45;&gt;Node4</title>
<g id="a_edge4_Node000001_Node000004"><a xlink:title=" ">
<path fill="none" stroke="#63b8ff" d="M112.3,-143.94C120.92,-145.33 129.92,-146.78 138.77,-148.21"/>
<polygon fill="#63b8ff" stroke="#63b8ff" points="138.24,-151.67 148.67,-149.82 139.36,-144.76 138.24,-151.67"/>
</a>
</g>
</g>
<!-- Node5 -->
<g id="Node000005" class="node">
<title>Node5</title>
<g id="a_Node000005"><a xlink:href="classmonopoly_1_1BoardView.html#ae59176912107d91cf66d0a108ec55e9a" target="_top" xlink:title=" ">
<polygon fill="white" stroke="#666666" points="262.5,-126 150.5,-126 150.5,-96 262.5,-96 262.5,-126"/>
<text text-anchor="start" x="158.5" y="-114" font-family="Helvetica,sans-Serif" font-size="10.00">monopoly::BoardView</text>
<text text-anchor="middle" x="206.5" y="-103" font-family="Helvetica,sans-Serif" font-size="10.00">::createLeftSquares</text>
</a>
</g>
</g>
<!-- Node1&#45;&gt;Node5 -->
<g id="edge6_Node000001_Node000005" class="edge">
<title>Node1&#45;&gt;Node5</title>
<g id="a_edge6_Node000001_Node000005"><a xlink:title=" ">
<path fill="none" stroke="#63b8ff" d="M112.3,-126.06C121.38,-124.6 130.87,-123.06 140.17,-121.56"/>
<polygon fill="#63b8ff" stroke="#63b8ff" points="140.84,-124.99 150.16,-119.94 139.73,-118.08 140.84,-124.99"/>
</a>
</g>
</g>
<!-- Node6 -->
<g id="Node000006" class="node">
<title>Node6</title>
<g id="a_Node000006"><a xlink:href="classmonopoly_1_1BoardView.html#a4ee5f8efad8b261898ba695e9fd56937" target="_top" xlink:title=" ">
<polygon fill="white" stroke="#666666" points="262.5,-78 150.5,-78 150.5,-48 262.5,-48 262.5,-78"/>
<text text-anchor="start" x="158.5" y="-66" font-family="Helvetica,sans-Serif" font-size="10.00">monopoly::BoardView</text>
<text text-anchor="middle" x="206.5" y="-55" font-family="Helvetica,sans-Serif" font-size="10.00">::createRightSquares</text>
</a>
</g>
</g>
<!-- Node1&#45;&gt;Node6 -->
<g id="edge8_Node000001_Node000006" class="edge">
<title>Node1&#45;&gt;Node6</title>
<g id="a_edge8_Node000001_Node000006"><a xlink:title=" ">
<path fill="none" stroke="#63b8ff" d="M84.15,-119.86C102.07,-110.07 126.19,-97.28 148,-87 151.53,-85.34 155.21,-83.66 158.93,-82.02"/>
<polygon fill="#63b8ff" stroke="#63b8ff" points="160.39,-85.2 168.17,-78.01 157.6,-78.78 160.39,-85.2"/>
</a>
</g>
</g>
<!-- Node7 -->
<g id="Node000007" class="node">
<title>Node7</title>
<g id="a_Node000007"><a xlink:href="classmonopoly_1_1BoardView.html#a2cf446703b924e79d21b56d07454cf4a" target="_top" xlink:title=" ">
<polygon fill="white" stroke="#666666" points="262.5,-30 150.5,-30 150.5,0 262.5,0 262.5,-30"/>
<text text-anchor="start" x="158.5" y="-18" font-family="Helvetica,sans-Serif" font-size="10.00">monopoly::BoardView</text>
<text text-anchor="middle" x="206.5" y="-7" font-family="Helvetica,sans-Serif" font-size="10.00">::createTopSquares</text>
</a>
</g>
</g>
<!-- Node1&#45;&gt;Node7 -->
<g id="edge10_Node000001_Node000007" class="edge">
<title>Node1&#45;&gt;Node7</title>
<g id="a_edge10_Node000001_Node000007"><a xlink:title=" ">
<path fill="none" stroke="#63b8ff" d="M68.09,-119.81C83.85,-99.14 114.54,-62.08 148,-39 150.1,-37.55 152.31,-36.16 154.58,-34.84"/>
<polygon fill="#63b8ff" stroke="#63b8ff" points="156.39,-37.84 163.58,-30.05 153.11,-31.66 156.39,-37.84"/>
</a>
</g>
</g>
<!-- Node3&#45;&gt;Node2 -->
<g id="edge3_Node000003_Node000002" class="edge">
<title>Node3&#45;&gt;Node2</title>
<g id="a_edge3_Node000003_Node000002"><a xlink:title=" ">
<path fill="none" stroke="#63b8ff" d="M245.53,-191.91C252.09,-189.08 258.79,-186.06 265,-183 285.53,-172.9 308.01,-159.95 324.54,-150.05"/>
<polygon fill="#63b8ff" stroke="#63b8ff" points="326.78,-152.78 333.52,-144.62 323.15,-146.79 326.78,-152.78"/>
</a>
</g>
</g>
<!-- Node4&#45;&gt;Node2 -->
<g id="edge5_Node000004_Node000002" class="edge">
<title>Node4&#45;&gt;Node2</title>
<g id="a_edge5_Node000004_Node000002"><a xlink:title=" ">
<path fill="none" stroke="#63b8ff" d="M264.24,-149.38C272.97,-147.9 282,-146.36 290.76,-144.88"/>
<polygon fill="#63b8ff" stroke="#63b8ff" points="291.62,-148.28 300.89,-143.16 290.45,-141.38 291.62,-148.28"/>
</a>
</g>
</g>
<!-- Node5&#45;&gt;Node2 -->
<g id="edge7_Node000005_Node000002" class="edge">
<title>Node5&#45;&gt;Node2</title>
<g id="a_edge7_Node000005_Node000002"><a xlink:title=" ">
<path fill="none" stroke="#63b8ff" d="M262.61,-120.35C271.84,-121.91 281.45,-123.54 290.76,-125.12"/>
<polygon fill="#63b8ff" stroke="#63b8ff" points="290.26,-128.59 300.71,-126.81 291.43,-121.69 290.26,-128.59"/>
</a>
</g>
</g>
<!-- Node6&#45;&gt;Node2 -->
<g id="edge9_Node000006_Node000002" class="edge">
<title>Node6&#45;&gt;Node2</title>
<g id="a_edge9_Node000006_Node000002"><a xlink:title=" ">
<path fill="none" stroke="#63b8ff" d="M245.53,-78.09C252.09,-80.92 258.79,-83.94 265,-87 285.53,-97.1 308.01,-110.05 324.54,-119.95"/>
<polygon fill="#63b8ff" stroke="#63b8ff" points="323.15,-123.21 333.52,-125.38 326.78,-117.22 323.15,-123.21"/>
</a>
</g>
</g>
<!-- Node7&#45;&gt;Node2 -->
<g id="edge11_Node000007_Node000002" class="edge">
<title>Node7&#45;&gt;Node2</title>
<g id="a_edge11_Node000007_Node000002"><a xlink:title=" ">
<path fill="none" stroke="#63b8ff" d="M249.85,-30.02C255.15,-32.66 260.35,-35.65 265,-39 295.38,-60.86 322.25,-95.69 337.01,-116.84"/>
<polygon fill="#63b8ff" stroke="#63b8ff" points="334.22,-118.96 342.74,-125.25 340,-115.02 334.22,-118.96"/>
</a>
</g>
</g>
</g>
</svg>
</svg>

<style type='text/css'>
<![CDATA[
[data-mouse-over-selected='false'] { opacity: 0.7; }
[data-mouse-over-selected='true']  { opacity: 1.0; }
]]>
</style>
<script type="application/ecmascript"><![CDATA[
document.addEventListener('DOMContentLoaded', (event) => {
  highlightEdges();
  highlightAdjacentNodes();
});
]]></script>
</svg>
