<?xml version="1.0" encoding="UTF-8" standalone="no"?>
<!DOCTYPE svg PUBLIC "-//W3C//DTD SVG 1.1//EN"
 "http://www.w3.org/Graphics/SVG/1.1/DTD/svg11.dtd">
<!-- Generated by graphviz version 2.43.0 (0)
 -->
<!-- Title: monopoly::GameModel::handleDouble Pages: 1 -->
<svg width="650pt" height="268pt"
 viewBox="0.00 0.00 650.00 268.00" xmlns="http://www.w3.org/2000/svg" xmlns:xlink="http://www.w3.org/1999/xlink">
<g id="graph0" class="graph" transform="scale(1 1) rotate(0) translate(4 264)">
<title>monopoly::GameModel::handleDouble</title>
<!-- Node1 -->
<g id="Node000001" class="node">
<title>Node1</title>
<g id="a_Node000001"><a xlink:title="Process doubles roll consequences.">
<polygon fill="#999999" stroke="#666666" points="117,-140 0,-140 0,-110 117,-110 117,-140"/>
<text text-anchor="start" x="8" y="-128" font-family="Helvetica,sans-Serif" font-size="10.00">monopoly::GameModel</text>
<text text-anchor="middle" x="58.5" y="-117" font-family="Helvetica,sans-Serif" font-size="10.00">::handleDouble</text>
</a>
</g>
</g>
<!-- Node2 -->
<g id="Node000002" class="node">
<title>Node2</title>
<g id="a_Node000002"><a xlink:href="classmonopoly_1_1GameModel.html#a61c4fbccfe0fd1f1870bfd4df55571f1" target="_top" xlink:title=" ">
<polygon fill="white" stroke="#666666" points="279,-260 162,-260 162,-230 279,-230 279,-260"/>
<text text-anchor="start" x="170" y="-248" font-family="Helvetica,sans-Serif" font-size="10.00">monopoly::GameModel</text>
<text text-anchor="middle" x="220.5" y="-237" font-family="Helvetica,sans-Serif" font-size="10.00">::getCurrentPlayer</text>
</a>
</g>
</g>
<!-- Node1&#45;&gt;Node2 -->
<g id="edge1_Node000001_Node000002" class="edge">
<title>Node1&#45;&gt;Node2</title>
<g id="a_edge1_Node000001_Node000002"><a xlink:title=" ">
<path fill="none" stroke="#63b8ff" d="M70.56,-140.06C86.58,-160.92 118.19,-198.57 153,-221 155.42,-222.56 157.95,-224.03 160.56,-225.42"/>
<polygon fill="#63b8ff" stroke="#63b8ff" points="159.12,-228.62 169.64,-229.85 162.18,-222.32 159.12,-228.62"/>
</a>
</g>
</g>
<!-- Node3 -->
<g id="Node000003" class="node">
<title>Node3</title>
<g id="a_Node000003"><a xlink:href="classmonopoly_1_1GameModel.html#aebe46d5f977b0b926548e81a0977476e" target="_top" xlink:title="Send player to jail.">
<polygon fill="white" stroke="#666666" points="279,-212 162,-212 162,-182 279,-182 279,-212"/>
<text text-anchor="start" x="170" y="-200" font-family="Helvetica,sans-Serif" font-size="10.00">monopoly::GameModel</text>
<text text-anchor="middle" x="220.5" y="-189" font-family="Helvetica,sans-Serif" font-size="10.00">::goToJail</text>
</a>
</g>
</g>
<!-- Node1&#45;&gt;Node3 -->
<g id="edge2_Node000001_Node000003" class="edge">
<title>Node1&#45;&gt;Node3</title>
<g id="a_edge2_Node000001_Node000003"><a xlink:title=" ">
<path fill="none" stroke="#63b8ff" d="M86.47,-140.01C104.91,-149.98 130.08,-163.03 153,-173 157.1,-174.78 161.38,-176.54 165.7,-178.25"/>
<polygon fill="#63b8ff" stroke="#63b8ff" points="164.6,-181.58 175.19,-181.9 167.11,-175.05 164.6,-181.58"/>
</a>
</g>
</g>
<!-- Node7 -->
<g id="Node000007" class="node">
<title>Node7</title>
<g id="a_Node000007"><a xlink:href="classmonopoly_1_1Player.html#acc8d1f7bc1137f75c14fdad5990657bc" target="_top" xlink:title=" ">
<polygon fill="white" stroke="#666666" points="287,-164 154,-164 154,-134 287,-134 287,-164"/>
<text text-anchor="start" x="162" y="-152" font-family="Helvetica,sans-Serif" font-size="10.00">monopoly::Player::hasMax</text>
<text text-anchor="middle" x="220.5" y="-141" font-family="Helvetica,sans-Serif" font-size="10.00">ConsecutiveDoubles</text>
</a>
</g>
</g>
<!-- Node1&#45;&gt;Node7 -->
<g id="edge6_Node000001_Node000007" class="edge">
<title>Node1&#45;&gt;Node7</title>
<g id="a_edge6_Node000001_Node000007"><a xlink:title=" ">
<path fill="none" stroke="#63b8ff" d="M117.26,-133.66C125.91,-134.96 134.94,-136.32 143.89,-137.66"/>
<polygon fill="#63b8ff" stroke="#63b8ff" points="143.54,-141.14 153.95,-139.17 144.58,-134.22 143.54,-141.14"/>
</a>
</g>
</g>
<!-- Node8 -->
<g id="Node000008" class="node">
<title>Node8</title>
<g id="a_Node000008"><a xlink:href="classmonopoly_1_1Player.html#aa3ba1169f3a92d4587f935cfda5165e0" target="_top" xlink:title="Increments number of consecutive doubles rolled.">
<polygon fill="white" stroke="#666666" points="288,-116 153,-116 153,-86 288,-86 288,-116"/>
<text text-anchor="start" x="161" y="-104" font-family="Helvetica,sans-Serif" font-size="10.00">monopoly::Player::increase</text>
<text text-anchor="middle" x="220.5" y="-93" font-family="Helvetica,sans-Serif" font-size="10.00">Doubles</text>
</a>
</g>
</g>
<!-- Node1&#45;&gt;Node8 -->
<g id="edge7_Node000001_Node000008" class="edge">
<title>Node1&#45;&gt;Node8</title>
<g id="a_edge7_Node000001_Node000008"><a xlink:title=" ">
<path fill="none" stroke="#63b8ff" d="M117.26,-116.34C125.56,-115.09 134.21,-113.79 142.8,-112.5"/>
<polygon fill="#63b8ff" stroke="#63b8ff" points="143.48,-115.94 152.85,-111 142.44,-109.02 143.48,-115.94"/>
</a>
</g>
</g>
<!-- Node9 -->
<g id="Node000009" class="node">
<title>Node9</title>
<g id="a_Node000009"><a xlink:href="classmonopoly_1_1Player.html#a53a8859bb9ad558e3d1d27635c513884" target="_top" xlink:title=" ">
<polygon fill="white" stroke="#666666" points="285,-67.5 156,-67.5 156,-48.5 285,-48.5 285,-67.5"/>
<text text-anchor="middle" x="220.5" y="-55.5" font-family="Helvetica,sans-Serif" font-size="10.00">monopoly::Player::isInJail</text>
</a>
</g>
</g>
<!-- Node1&#45;&gt;Node9 -->
<g id="edge8_Node000001_Node000009" class="edge">
<title>Node1&#45;&gt;Node9</title>
<g id="a_edge8_Node000001_Node000009"><a xlink:title=" ">
<path fill="none" stroke="#63b8ff" d="M85.46,-109.93C103.87,-99.67 129.41,-86.32 153,-77 158.86,-74.68 165.12,-72.52 171.36,-70.54"/>
<polygon fill="#63b8ff" stroke="#63b8ff" points="172.54,-73.84 181.09,-67.59 170.51,-67.14 172.54,-73.84"/>
</a>
</g>
</g>
<!-- Node10 -->
<g id="Node000010" class="node">
<title>Node10</title>
<g id="a_Node000010"><a xlink:href="classmonopoly_1_1GameModel.html#a6f2af19f816ef3c47b501967bf52cbfe" target="_top" xlink:title="Release player from jail.">
<polygon fill="white" stroke="#666666" points="279,-30 162,-30 162,0 279,0 279,-30"/>
<text text-anchor="start" x="170" y="-18" font-family="Helvetica,sans-Serif" font-size="10.00">monopoly::GameModel</text>
<text text-anchor="middle" x="220.5" y="-7" font-family="Helvetica,sans-Serif" font-size="10.00">::outOfJail</text>
</a>
</g>
</g>
<!-- Node1&#45;&gt;Node10 -->
<g id="edge9_Node000001_Node000010" class="edge">
<title>Node1&#45;&gt;Node10</title>
<g id="a_edge9_Node000001_Node000010"><a xlink:title=" ">
<path fill="none" stroke="#63b8ff" d="M72.32,-109.98C89.14,-91.1 120.37,-58.78 153,-39 155.64,-37.4 158.41,-35.88 161.25,-34.44"/>
<polygon fill="#63b8ff" stroke="#63b8ff" points="162.93,-37.52 170.51,-30.13 159.97,-31.18 162.93,-37.52"/>
</a>
</g>
</g>
<!-- Node4 -->
<g id="Node000004" class="node">
<title>Node4</title>
<g id="a_Node000004"><a xlink:href="classmonopoly_1_1Player.html#a17f8a21fc65696c4832bb8d50508424b" target="_top" xlink:title=" ">
<polygon fill="white" stroke="#666666" points="471,-206.5 324,-206.5 324,-187.5 471,-187.5 471,-206.5"/>
<text text-anchor="middle" x="397.5" y="-194.5" font-family="Helvetica,sans-Serif" font-size="10.00">monopoly::Player::setPosition</text>
</a>
</g>
</g>
<!-- Node3&#45;&gt;Node4 -->
<g id="edge3_Node000003_Node000004" class="edge">
<title>Node3&#45;&gt;Node4</title>
<g id="a_edge3_Node000003_Node000004"><a xlink:title=" ">
<path fill="none" stroke="#63b8ff" d="M279.29,-197C290.3,-197 302.02,-197 313.64,-197"/>
<polygon fill="#63b8ff" stroke="#63b8ff" points="313.79,-200.5 323.79,-197 313.79,-193.5 313.79,-200.5"/>
</a>
</g>
</g>
<!-- Node5 -->
<g id="Node000005" class="node">
<title>Node5</title>
<g id="a_Node000005"><a xlink:href="classmonopoly_1_1Player.html#a7000d4fac178a4d138f51d23626a8184" target="_top" xlink:title="Toggles player&#39;s jail status and resets jail turns if freed.">
<polygon fill="white" stroke="#666666" points="460,-100 335,-100 335,-70 460,-70 460,-100"/>
<text text-anchor="start" x="343" y="-88" font-family="Helvetica,sans-Serif" font-size="10.00">monopoly::Player::toggle</text>
<text text-anchor="middle" x="397.5" y="-77" font-family="Helvetica,sans-Serif" font-size="10.00">JailState</text>
</a>
</g>
</g>
<!-- Node3&#45;&gt;Node5 -->
<g id="edge4_Node000003_Node000005" class="edge">
<title>Node3&#45;&gt;Node5</title>
<g id="a_edge4_Node000003_Node000005"><a xlink:title=" ">
<path fill="none" stroke="#63b8ff" d="M269.24,-181.98C275.7,-179.32 282.12,-176.32 288,-173 320.4,-154.71 352.93,-126.74 373.8,-107.26"/>
<polygon fill="#63b8ff" stroke="#63b8ff" points="376.35,-109.67 381.2,-100.25 371.54,-104.58 376.35,-109.67"/>
</a>
</g>
</g>
<!-- Node6 -->
<g id="Node000006" class="node">
<title>Node6</title>
<g id="a_Node000006"><a xlink:href="classmonopoly_1_1Player.html#a953651fa4828e09ef52d39277c6de5f2" target="_top" xlink:title="Resets jail turn counter to 0.">
<polygon fill="white" stroke="#666666" points="642,-100 507,-100 507,-70 642,-70 642,-100"/>
<text text-anchor="start" x="515" y="-88" font-family="Helvetica,sans-Serif" font-size="10.00">monopoly::Player::resetJail</text>
<text text-anchor="middle" x="574.5" y="-77" font-family="Helvetica,sans-Serif" font-size="10.00">Turns</text>
</a>
</g>
</g>
<!-- Node5&#45;&gt;Node6 -->
<g id="edge5_Node000005_Node000006" class="edge">
<title>Node5&#45;&gt;Node6</title>
<g id="a_edge5_Node000005_Node000006"><a xlink:title=" ">
<path fill="none" stroke="#63b8ff" d="M460.2,-85C471.96,-85 484.41,-85 496.58,-85"/>
<polygon fill="#63b8ff" stroke="#63b8ff" points="496.71,-88.5 506.71,-85 496.71,-81.5 496.71,-88.5"/>
</a>
</g>
</g>
<!-- Node10&#45;&gt;Node5 -->
<g id="edge10_Node000010_Node000005" class="edge">
<title>Node10&#45;&gt;Node5</title>
<g id="a_edge10_Node000010_Node000005"><a xlink:title=" ">
<path fill="none" stroke="#63b8ff" d="M264.2,-30.02C272.14,-32.92 280.34,-36 288,-39 309.44,-47.41 333.01,-57.32 352.68,-65.78"/>
<polygon fill="#63b8ff" stroke="#63b8ff" points="351.44,-69.05 362,-69.81 354.21,-62.63 351.44,-69.05"/>
</a>
</g>
</g>
</g>
</svg>
