<?xml version="1.0" encoding="UTF-8" standalone="no"?>
<!DOCTYPE svg PUBLIC "-//W3C//DTD SVG 1.1//EN"
 "http://www.w3.org/Graphics/SVG/1.1/DTD/svg11.dtd">
<!-- Generated by graphviz version 2.43.0 (0)
 -->
<!-- Title: monopoly::Property::setRentCalculator Pages: 1 -->
<svg width="286pt" height="258pt"
 viewBox="0.00 0.00 286.00 257.50" xmlns="http://www.w3.org/2000/svg" xmlns:xlink="http://www.w3.org/1999/xlink">

<svg id="main" version="1.1" xmlns="http://www.w3.org/2000/svg" xmlns:xlink="http://www.w3.org/1999/xlink" xml:space="preserve" onload="init(evt)">
<style type="text/css"><![CDATA[
.node, .edge {opacity: 0.7;}
.node.selected, .edge.selected {opacity: 1;}
.edge:hover path { stroke: red; }
.edge:hover polygon { stroke: red; fill: red; }
]]></style>
<script type="application/ecmascript" xlink:href="svg.min.js"/>
<svg id="graph" class="graph">
<g id="graph0" class="graph" transform="scale(1 1) rotate(0) translate(4 253.5)">
<title>monopoly::Property::setRentCalculator</title>
<!-- Node1 -->
<g id="Node000001" class="node">
<title>Node1</title>
<g id="a_Node000001"><a xlink:title=" ">
<polygon fill="#999999" stroke="#666666" points="278,-147 177,-147 177,-117 278,-117 278,-147"/>
<text text-anchor="start" x="185" y="-135" font-family="Helvetica,sans-Serif" font-size="10.00">monopoly::Property</text>
<text text-anchor="middle" x="227.5" y="-124" font-family="Helvetica,sans-Serif" font-size="10.00">::setRentCalculator</text>
</a>
</g>
</g>
<!-- Node2 -->
<g id="Node000002" class="node">
<title>Node2</title>
<g id="a_Node000002"><a xlink:href="classmonopoly_1_1Street.html#a636cc07dc5fa05cfb9d3e476ea1aa843" target="_top" xlink:title="Add a house to this street.">
<polygon fill="white" stroke="#666666" points="141,-249.5 0,-249.5 0,-230.5 141,-230.5 141,-249.5"/>
<text text-anchor="middle" x="70.5" y="-237.5" font-family="Helvetica,sans-Serif" font-size="10.00">monopoly::Street::addHouse</text>
</a>
</g>
</g>
<!-- Node1&#45;&gt;Node2 -->
<g id="edge1_Node000001_Node000002" class="edge">
<title>Node1&#45;&gt;Node2</title>
<g id="a_edge1_Node000001_Node000002"><a xlink:title=" ">
<path fill="none" stroke="#63b8ff" d="M209.84,-155.45C194.26,-175.69 169.21,-204.24 141,-221 134.55,-224.83 127.3,-227.91 119.99,-230.38"/>
<polygon fill="#63b8ff" stroke="#63b8ff" points="212.72,-157.44 215.92,-147.34 207.12,-153.24 212.72,-157.44"/>
</a>
</g>
</g>
<!-- Node3 -->
<g id="Node000003" class="node">
<title>Node3</title>
<g id="a_Node000003"><a xlink:href="classmonopoly_1_1Railroad.html#a789f7ce812154d8efbfe0714077de5a5" target="_top" xlink:title="Constructs a new Railroad property.">
<polygon fill="white" stroke="#666666" points="121,-212 20,-212 20,-182 121,-182 121,-212"/>
<text text-anchor="start" x="28" y="-200" font-family="Helvetica,sans-Serif" font-size="10.00">monopoly::Railroad</text>
<text text-anchor="middle" x="70.5" y="-189" font-family="Helvetica,sans-Serif" font-size="10.00">::Railroad</text>
</a>
</g>
</g>
<!-- Node1&#45;&gt;Node3 -->
<g id="edge2_Node000001_Node000003" class="edge">
<title>Node1&#45;&gt;Node3</title>
<g id="a_edge2_Node000001_Node000003"><a xlink:title=" ">
<path fill="none" stroke="#63b8ff" d="M188,-151.62C173.44,-158.73 156.61,-166.59 141,-173 133.44,-176.1 125.32,-179.16 117.39,-181.99"/>
<polygon fill="#63b8ff" stroke="#63b8ff" points="189.78,-154.64 197.2,-147.08 186.68,-148.36 189.78,-154.64"/>
</a>
</g>
</g>
<!-- Node4 -->
<g id="Node000004" class="node">
<title>Node4</title>
<g id="a_Node000004"><a xlink:href="classmonopoly_1_1Street.html#a432fa683a35c422a19478d7f81f36712" target="_top" xlink:title="Constructs a new Street.">
<polygon fill="white" stroke="#666666" points="132,-163.5 9,-163.5 9,-144.5 132,-144.5 132,-163.5"/>
<text text-anchor="middle" x="70.5" y="-151.5" font-family="Helvetica,sans-Serif" font-size="10.00">monopoly::Street::Street</text>
</a>
</g>
</g>
<!-- Node1&#45;&gt;Node4 -->
<g id="edge3_Node000001_Node000004" class="edge">
<title>Node1&#45;&gt;Node4</title>
<g id="a_edge3_Node000001_Node000004"><a xlink:title=" ">
<path fill="none" stroke="#63b8ff" d="M166.44,-140.52C155.19,-142.12 143.42,-143.79 132.15,-145.39"/>
<polygon fill="#63b8ff" stroke="#63b8ff" points="167.19,-143.95 176.6,-139.08 166.21,-137.02 167.19,-143.95"/>
</a>
</g>
</g>
<!-- Node5 -->
<g id="Node000005" class="node">
<title>Node5</title>
<g id="a_Node000005"><a xlink:href="classmonopoly_1_1Railroad.html#a95e2cc982606941120cd999187d26bba" target="_top" xlink:title=" ">
<polygon fill="white" stroke="#666666" points="125,-126 16,-126 16,-96 125,-96 125,-126"/>
<text text-anchor="start" x="24" y="-114" font-family="Helvetica,sans-Serif" font-size="10.00">monopoly::Railroad</text>
<text text-anchor="middle" x="70.5" y="-103" font-family="Helvetica,sans-Serif" font-size="10.00">::updateOwnedCount</text>
</a>
</g>
</g>
<!-- Node1&#45;&gt;Node5 -->
<g id="edge4_Node000001_Node000005" class="edge">
<title>Node1&#45;&gt;Node5</title>
<g id="a_edge4_Node000001_Node000005"><a xlink:title=" ">
<path fill="none" stroke="#63b8ff" d="M166.37,-123.85C152.75,-122.01 138.37,-120.06 125.05,-118.26"/>
<polygon fill="#63b8ff" stroke="#63b8ff" points="166.22,-127.37 176.6,-125.24 167.16,-120.43 166.22,-127.37"/>
</a>
</g>
</g>
<!-- Node6 -->
<g id="Node000006" class="node">
<title>Node6</title>
<g id="a_Node000006"><a xlink:href="classmonopoly_1_1Utility.html#a9d36d9661d2e25005975164ed4b3f649" target="_top" xlink:title=" ">
<polygon fill="white" stroke="#666666" points="118.5,-78 22.5,-78 22.5,-48 118.5,-48 118.5,-78"/>
<text text-anchor="start" x="30.5" y="-66" font-family="Helvetica,sans-Serif" font-size="10.00">monopoly::Utility::</text>
<text text-anchor="middle" x="70.5" y="-55" font-family="Helvetica,sans-Serif" font-size="10.00">updateRent</text>
</a>
</g>
</g>
<!-- Node1&#45;&gt;Node6 -->
<g id="edge5_Node000001_Node000006" class="edge">
<title>Node1&#45;&gt;Node6</title>
<g id="a_edge5_Node000001_Node000006"><a xlink:title=" ">
<path fill="none" stroke="#63b8ff" d="M191.37,-111.97C176.15,-103.69 157.96,-94.34 141,-87 133.74,-83.86 125.92,-80.83 118.23,-78.04"/>
<polygon fill="#63b8ff" stroke="#63b8ff" points="189.98,-115.2 200.43,-116.96 193.36,-109.07 189.98,-115.2"/>
</a>
</g>
</g>
<!-- Node7 -->
<g id="Node000007" class="node">
<title>Node7</title>
<g id="a_Node000007"><a xlink:href="classmonopoly_1_1Utility.html#a8797328aaee5e0a8e7e71978ca36bb6b" target="_top" xlink:title="Constructs a Utility property.">
<polygon fill="white" stroke="#666666" points="118.5,-30 22.5,-30 22.5,0 118.5,0 118.5,-30"/>
<text text-anchor="start" x="30.5" y="-18" font-family="Helvetica,sans-Serif" font-size="10.00">monopoly::Utility::</text>
<text text-anchor="middle" x="70.5" y="-7" font-family="Helvetica,sans-Serif" font-size="10.00">Utility</text>
</a>
</g>
</g>
<!-- Node1&#45;&gt;Node7 -->
<g id="edge6_Node000001_Node000007" class="edge">
<title>Node1&#45;&gt;Node7</title>
<g id="a_edge6_Node000001_Node000007"><a xlink:title=" ">
<path fill="none" stroke="#63b8ff" d="M210.32,-108.64C194.74,-87.74 169.41,-57.61 141,-39 134.17,-34.52 126.41,-30.78 118.61,-27.7"/>
<polygon fill="#63b8ff" stroke="#63b8ff" points="207.66,-110.95 216.38,-116.97 213.32,-106.83 207.66,-110.95"/>
</a>
</g>
</g>
</g>
</svg>
</svg>

<style type='text/css'>
<![CDATA[
[data-mouse-over-selected='false'] { opacity: 0.7; }
[data-mouse-over-selected='true']  { opacity: 1.0; }
]]>
</style>
<script type="application/ecmascript"><![CDATA[
document.addEventListener('DOMContentLoaded', (event) => {
  highlightEdges();
  highlightAdjacentNodes();
});
]]></script>
</svg>
