<?xml version="1.0" encoding="UTF-8" standalone="no"?>
<!DOCTYPE svg PUBLIC "-//W3C//DTD SVG 1.1//EN"
 "http://www.w3.org/Graphics/SVG/1.1/DTD/svg11.dtd">
<!-- Generated by graphviz version 2.43.0 (0)
 -->
<!-- Title: monopoly::GameController::getView Pages: 1 -->
<svg width="302pt" height="230pt"
 viewBox="0.00 0.00 302.00 230.00" xmlns="http://www.w3.org/2000/svg" xmlns:xlink="http://www.w3.org/1999/xlink">

<svg id="main" version="1.1" xmlns="http://www.w3.org/2000/svg" xmlns:xlink="http://www.w3.org/1999/xlink" xml:space="preserve" onload="init(evt)">
<style type="text/css"><![CDATA[
.node, .edge {opacity: 0.7;}
.node.selected, .edge.selected {opacity: 1;}
.edge:hover path { stroke: red; }
.edge:hover polygon { stroke: red; fill: red; }
]]></style>
<script type="application/ecmascript" xlink:href="svg.min.js"/>
<svg id="graph" class="graph">
<g id="graph0" class="graph" transform="scale(1 1) rotate(0) translate(4 226)">
<title>monopoly::GameController::getView</title>
<!-- Node1 -->
<g id="Node000001" class="node">
<title>Node1</title>
<g id="a_Node000001"><a xlink:title="Get the current game view.">
<polygon fill="#999999" stroke="#666666" points="294,-126 161,-126 161,-96 294,-96 294,-126"/>
<text text-anchor="start" x="169" y="-114" font-family="Helvetica,sans-Serif" font-size="10.00">monopoly::GameController</text>
<text text-anchor="middle" x="227.5" y="-103" font-family="Helvetica,sans-Serif" font-size="10.00">::getView</text>
</a>
</g>
</g>
<!-- Node2 -->
<g id="Node000002" class="node">
<title>Node2</title>
<g id="a_Node000002"><a xlink:href="classmonopoly_1_1RollDiceState.html#a262a6a32b9cacaa7561f81a55ec1c1f3" target="_top" xlink:title=" ">
<polygon fill="white" stroke="#666666" points="125,-222 0,-222 0,-192 125,-192 125,-222"/>
<text text-anchor="start" x="8" y="-210" font-family="Helvetica,sans-Serif" font-size="10.00">monopoly::RollDiceState</text>
<text text-anchor="middle" x="62.5" y="-199" font-family="Helvetica,sans-Serif" font-size="10.00">::handleKeyRelease</text>
</a>
</g>
</g>
<!-- Node1&#45;&gt;Node2 -->
<g id="edge1_Node000001_Node000002" class="edge">
<title>Node1&#45;&gt;Node2</title>
<g id="a_edge1_Node000001_Node000002"><a xlink:title=" ">
<path fill="none" stroke="#63b8ff" d="M200,-132.54C180.18,-147.95 151.96,-168.47 125,-183 119.05,-186.21 112.57,-189.21 106.13,-191.94"/>
<polygon fill="#63b8ff" stroke="#63b8ff" points="202.26,-135.21 207.96,-126.27 197.93,-129.71 202.26,-135.21"/>
</a>
</g>
</g>
<!-- Node3 -->
<g id="Node000003" class="node">
<title>Node3</title>
<g id="a_Node000003"><a xlink:href="classmonopoly_1_1StartState.html#a29dd8b5f385dd7a7dc08ab50c262f4b5" target="_top" xlink:title=" ">
<polygon fill="white" stroke="#666666" points="117,-174 8,-174 8,-144 117,-144 117,-174"/>
<text text-anchor="start" x="16" y="-162" font-family="Helvetica,sans-Serif" font-size="10.00">monopoly::StartState</text>
<text text-anchor="middle" x="62.5" y="-151" font-family="Helvetica,sans-Serif" font-size="10.00">::handleKeyRelease</text>
</a>
</g>
</g>
<!-- Node1&#45;&gt;Node3 -->
<g id="edge2_Node000001_Node000003" class="edge">
<title>Node1&#45;&gt;Node3</title>
<g id="a_edge2_Node000001_Node000003"><a xlink:title=" ">
<path fill="none" stroke="#63b8ff" d="M165.62,-128.93C148.77,-133.89 130.67,-139.22 114.45,-144"/>
<polygon fill="#63b8ff" stroke="#63b8ff" points="166.77,-132.24 175.37,-126.06 164.79,-125.52 166.77,-132.24"/>
</a>
</g>
</g>
<!-- Node4 -->
<g id="Node000004" class="node">
<title>Node4</title>
<g id="a_Node000004"><a xlink:href="classmonopoly_1_1RollDiceState.html#aa019c88fa3b0386fd17cbbc1390f6d1c" target="_top" xlink:title=" ">
<polygon fill="white" stroke="#666666" points="125,-126 0,-126 0,-96 125,-96 125,-126"/>
<text text-anchor="start" x="8" y="-114" font-family="Helvetica,sans-Serif" font-size="10.00">monopoly::RollDiceState</text>
<text text-anchor="middle" x="62.5" y="-103" font-family="Helvetica,sans-Serif" font-size="10.00">::onEnter</text>
</a>
</g>
</g>
<!-- Node1&#45;&gt;Node4 -->
<g id="edge3_Node000001_Node000004" class="edge">
<title>Node1&#45;&gt;Node4</title>
<g id="a_edge3_Node000001_Node000004"><a xlink:title=" ">
<path fill="none" stroke="#63b8ff" d="M150.39,-111C141.91,-111 133.36,-111 125.09,-111"/>
<polygon fill="#63b8ff" stroke="#63b8ff" points="150.67,-114.5 160.67,-111 150.67,-107.5 150.67,-114.5"/>
</a>
</g>
</g>
<!-- Node5 -->
<g id="Node000005" class="node">
<title>Node5</title>
<g id="a_Node000005"><a xlink:href="classmonopoly_1_1StartState.html#af99a09db63676be6c4f4996c9e757b89" target="_top" xlink:title=" ">
<polygon fill="white" stroke="#666666" points="117,-78 8,-78 8,-48 117,-48 117,-78"/>
<text text-anchor="start" x="16" y="-66" font-family="Helvetica,sans-Serif" font-size="10.00">monopoly::StartState</text>
<text text-anchor="middle" x="62.5" y="-55" font-family="Helvetica,sans-Serif" font-size="10.00">::onEnter</text>
</a>
</g>
</g>
<!-- Node1&#45;&gt;Node5 -->
<g id="edge4_Node000001_Node000005" class="edge">
<title>Node1&#45;&gt;Node5</title>
<g id="a_edge4_Node000001_Node000005"><a xlink:title=" ">
<path fill="none" stroke="#63b8ff" d="M165.62,-93.07C148.77,-88.11 130.67,-82.78 114.45,-78"/>
<polygon fill="#63b8ff" stroke="#63b8ff" points="164.79,-96.48 175.37,-95.94 166.77,-89.76 164.79,-96.48"/>
</a>
</g>
</g>
<!-- Node6 -->
<g id="Node000006" class="node">
<title>Node6</title>
<g id="a_Node000006"><a xlink:href="classmonopoly_1_1TurnState.html#aac8caaca7b62cb944a7082b6b68c6ac9" target="_top" xlink:title=" ">
<polygon fill="white" stroke="#666666" points="116,-30 9,-30 9,0 116,0 116,-30"/>
<text text-anchor="start" x="17" y="-18" font-family="Helvetica,sans-Serif" font-size="10.00">monopoly::TurnState</text>
<text text-anchor="middle" x="62.5" y="-7" font-family="Helvetica,sans-Serif" font-size="10.00">::onEnter</text>
</a>
</g>
</g>
<!-- Node1&#45;&gt;Node6 -->
<g id="edge5_Node000001_Node000006" class="edge">
<title>Node1&#45;&gt;Node6</title>
<g id="a_edge5_Node000001_Node000006"><a xlink:title=" ">
<path fill="none" stroke="#63b8ff" d="M200,-89.46C180.18,-74.05 151.96,-53.53 125,-39 119.05,-35.79 112.57,-32.79 106.13,-30.06"/>
<polygon fill="#63b8ff" stroke="#63b8ff" points="197.93,-92.29 207.96,-95.73 202.26,-86.79 197.93,-92.29"/>
</a>
</g>
</g>
</g>
</svg>
</svg>

<style type='text/css'>
<![CDATA[
[data-mouse-over-selected='false'] { opacity: 0.7; }
[data-mouse-over-selected='true']  { opacity: 1.0; }
]]>
</style>
<script type="application/ecmascript"><![CDATA[
document.addEventListener('DOMContentLoaded', (event) => {
  highlightEdges();
  highlightAdjacentNodes();
});
]]></script>
</svg>
