<?xml version="1.0" encoding="UTF-8" standalone="no"?>
<!DOCTYPE svg PUBLIC "-//W3C//DTD SVG 1.1//EN"
 "http://www.w3.org/Graphics/SVG/1.1/DTD/svg11.dtd">
<!-- Generated by graphviz version 2.43.0 (0)
 -->
<!-- Title: monopoly::RollDiceState::handleKeyRelease Pages: 1 -->
<!--zoomable 649 -->

<svg id="main" version="1.1" xmlns="http://www.w3.org/2000/svg" xmlns:xlink="http://www.w3.org/1999/xlink" xml:space="preserve" onload="init(evt)">
<style type="text/css"><![CDATA[
.node, .edge {opacity: 0.7;}
.node.selected, .edge.selected {opacity: 1;}
.edge:hover path { stroke: red; }
.edge:hover polygon { stroke: red; fill: red; }
]]></style>

<defs>
  <circle id="rim" cx="0" cy="0" r="7"/>
  <circle id="rim2" cx="0" cy="0" r="3.5"/>
  <g id="zoomPlus">
    <use xlink:href="#rim" fill="#404040"><set attributeName="fill" to="#808080" begin="zoomplus.mouseover" end="zoomplus.mouseout"/></use>
    <path d="M-4,0h8M0,-4v8" fill="none" stroke="white" stroke-width="1.5" pointer-events="none"/>
  </g>
  <g id="zoomMin">
    <use xlink:href="#rim" fill="#404040"><set attributeName="fill" to="#808080" begin="zoomminus.mouseover" end="zoomminus.mouseout"/></use>
    <path d="M-4,0h8" fill="none" stroke="white" stroke-width="1.5" pointer-events="none"/>
  </g>
  <g id="arrowUp" transform="translate(30 24)">
    <use xlink:href="#rim"/>
    <path pointer-events="none" fill="none" stroke="white" stroke-width="1.5" d="M0,-3.0v7 M-2.5,-0.5L0,-3.0L2.5,-0.5"/>
  </g>
  <g id="arrowRight" transform="rotate(90) translate(36 -43)">
    <use xlink:href="#rim"/>
    <path pointer-events="none" fill="none" stroke="white" stroke-width="1.5" d="M0,-3.0v7 M-2.5,-0.5L0,-3.0L2.5,-0.5"/>
  </g>
  <g id="arrowDown" transform="rotate(180) translate(-30 -48)">
    <use xlink:href="#rim"/>
    <path pointer-events="none" fill="none" stroke="white" stroke-width="1.5" d="M0,-3.0v7 M-2.5,-0.5L0,-3.0L2.5,-0.5"/>
  </g>
  <g id="arrowLeft" transform="rotate(270) translate(-36 17)">
    <use xlink:href="#rim"/>
    <path pointer-events="none" fill="none" stroke="white" stroke-width="1.5" d="M0,-3.0v7 M-2.5,-0.5L0,-3.0L2.5,-0.5"/>
  </g>
  <g id="resetDef">
    <use xlink:href="#rim2" fill="#404040"><set attributeName="fill" to="#808080" begin="reset.mouseover" end="reset.mouseout"/></use>
  </g>
</defs>
<script type="application/ecmascript">
var viewWidth = 1010;
var viewHeight = 649;
var sectionId = 'dynsection-5';
</script>
<script type="application/ecmascript" xlink:href="svg.min.js"/>
<svg id="graph" class="graph">
<g id="viewport">
<title>monopoly::RollDiceState::handleKeyRelease</title>
<!-- Node1 -->
<g id="Node000001" class="node">
<title>Node1</title>
<g id="a_Node000001"><a xlink:title=" ">
<polygon fill="#999999" stroke="#666666" points="125,-335 0,-335 0,-305 125,-305 125,-335"/>
<text text-anchor="start" x="8" y="-323" font-family="Helvetica,sans-Serif" font-size="10.00">monopoly::RollDiceState</text>
<text text-anchor="middle" x="62.5" y="-312" font-family="Helvetica,sans-Serif" font-size="10.00">::handleKeyRelease</text>
</a>
</g>
</g>
<!-- Node2 -->
<g id="Node000002" class="node">
<title>Node2</title>
<g id="a_Node000002"><a xlink:href="classmonopoly_1_1GameState.html#aaa7ff9309d3c14dcf9c396f311189355" target="_top" xlink:title=" ">
<polygon fill="white" stroke="#666666" points="291.5,-641 177.5,-641 177.5,-611 291.5,-611 291.5,-641"/>
<text text-anchor="start" x="185.5" y="-629" font-family="Helvetica,sans-Serif" font-size="10.00">monopoly::GameState</text>
<text text-anchor="middle" x="234.5" y="-618" font-family="Helvetica,sans-Serif" font-size="10.00">::changeState</text>
</a>
</g>
</g>
<!-- Node1&#45;&gt;Node2 -->
<g id="edge1_Node000001_Node000002" class="edge">
<title>Node1&#45;&gt;Node2</title>
<g id="a_edge1_Node000001_Node000002"><a xlink:title=" ">
<path fill="none" stroke="#63b8ff" d="M64.22,-335.29C67.27,-382.09 82.83,-524.86 161,-602 163.36,-604.33 165.95,-606.43 168.7,-608.33"/>
<polygon fill="#63b8ff" stroke="#63b8ff" points="166.99,-611.38 177.38,-613.43 170.54,-605.35 166.99,-611.38"/>
</a>
</g>
</g>
<!-- Node4 -->
<g id="Node000004" class="node">
<title>Node4</title>
<g id="a_Node000004"><a xlink:href="classmonopoly_1_1GameModel.html#a61c4fbccfe0fd1f1870bfd4df55571f1" target="_top" xlink:title=" ">
<polygon fill="white" stroke="#666666" points="639,-555 522,-555 522,-525 639,-525 639,-555"/>
<text text-anchor="start" x="530" y="-543" font-family="Helvetica,sans-Serif" font-size="10.00">monopoly::GameModel</text>
<text text-anchor="middle" x="580.5" y="-532" font-family="Helvetica,sans-Serif" font-size="10.00">::getCurrentPlayer</text>
</a>
</g>
</g>
<!-- Node1&#45;&gt;Node4 -->
<g id="edge3_Node000001_Node000004" class="edge">
<title>Node1&#45;&gt;Node4</title>
<g id="a_edge3_Node000001_Node000004"><a xlink:title=" ">
<path fill="none" stroke="#63b8ff" d="M66.44,-335.19C74.35,-371.53 99.8,-463.5 161,-504 216.91,-541 408.41,-543.42 511.88,-541.85"/>
<polygon fill="#63b8ff" stroke="#63b8ff" points="511.97,-545.35 521.91,-541.68 511.86,-538.35 511.97,-545.35"/>
</a>
</g>
</g>
<!-- Node5 -->
<g id="Node000005" class="node">
<title>Node5</title>
<g id="a_Node000005"><a xlink:href="classmonopoly_1_1Player.html#a25b1794379aa66e656ba1ba9632ff76e" target="_top" xlink:title=" ">
<polygon fill="white" stroke="#666666" points="294.5,-420.5 174.5,-420.5 174.5,-401.5 294.5,-401.5 294.5,-420.5"/>
<text text-anchor="middle" x="234.5" y="-408.5" font-family="Helvetica,sans-Serif" font-size="10.00">monopoly::Player::getId</text>
</a>
</g>
</g>
<!-- Node1&#45;&gt;Node5 -->
<g id="edge4_Node000001_Node000005" class="edge">
<title>Node1&#45;&gt;Node5</title>
<g id="a_edge4_Node000001_Node000005"><a xlink:title=" ">
<path fill="none" stroke="#63b8ff" d="M79.83,-335.15C98.23,-351.44 129.68,-377.02 161,-392 165.99,-394.39 171.32,-396.5 176.74,-398.38"/>
<polygon fill="#63b8ff" stroke="#63b8ff" points="175.95,-401.8 186.54,-401.49 178.07,-395.13 175.95,-401.8"/>
</a>
</g>
</g>
<!-- Node6 -->
<g id="Node000006" class="node">
<title>Node6</title>
<g id="a_Node000006"><a xlink:href="classmonopoly_1_1TurnState.html#aa41bd3873c0b0862c43cbc550144c028" target="_top" xlink:title=" ">
<polygon fill="white" stroke="#666666" points="288,-383 181,-383 181,-353 288,-353 288,-383"/>
<text text-anchor="start" x="189" y="-371" font-family="Helvetica,sans-Serif" font-size="10.00">monopoly::TurnState</text>
<text text-anchor="middle" x="234.5" y="-360" font-family="Helvetica,sans-Serif" font-size="10.00">::getInstance</text>
</a>
</g>
</g>
<!-- Node1&#45;&gt;Node6 -->
<g id="edge5_Node000001_Node000006" class="edge">
<title>Node1&#45;&gt;Node6</title>
<g id="a_edge5_Node000001_Node000006"><a xlink:title=" ">
<path fill="none" stroke="#63b8ff" d="M116.82,-335.06C134.08,-339.93 153.36,-345.37 171.21,-350.41"/>
<polygon fill="#63b8ff" stroke="#63b8ff" points="170.37,-353.81 180.95,-353.16 172.28,-347.08 170.37,-353.81"/>
</a>
</g>
</g>
<!-- Node8 -->
<g id="Node000008" class="node">
<title>Node8</title>
<g id="a_Node000008"><a xlink:href="classmonopoly_1_1GameController.html#ae6b73b1fe95e80ea943e403b578a72bc" target="_top" xlink:title="Get the current game model.">
<polygon fill="white" stroke="#666666" points="301,-335 168,-335 168,-305 301,-305 301,-335"/>
<text text-anchor="start" x="176" y="-323" font-family="Helvetica,sans-Serif" font-size="10.00">monopoly::GameController</text>
<text text-anchor="middle" x="234.5" y="-312" font-family="Helvetica,sans-Serif" font-size="10.00">::getModel</text>
</a>
</g>
</g>
<!-- Node1&#45;&gt;Node8 -->
<g id="edge7_Node000001_Node000008" class="edge">
<title>Node1&#45;&gt;Node8</title>
<g id="a_edge7_Node000001_Node000008"><a xlink:title=" ">
<path fill="none" stroke="#63b8ff" d="M125.35,-320C135.86,-320 146.87,-320 157.69,-320"/>
<polygon fill="#63b8ff" stroke="#63b8ff" points="157.97,-323.5 167.97,-320 157.97,-316.5 157.97,-323.5"/>
</a>
</g>
</g>
<!-- Node9 -->
<g id="Node000009" class="node">
<title>Node9</title>
<g id="a_Node000009"><a xlink:href="classmonopoly_1_1Player.html#aa70410d6ab59457f3cdbee1f2b052036" target="_top" xlink:title=" ">
<polygon fill="white" stroke="#666666" points="308,-286.5 161,-286.5 161,-267.5 308,-267.5 308,-286.5"/>
<text text-anchor="middle" x="234.5" y="-274.5" font-family="Helvetica,sans-Serif" font-size="10.00">monopoly::Player::getPosition</text>
</a>
</g>
</g>
<!-- Node1&#45;&gt;Node9 -->
<g id="edge8_Node000001_Node000009" class="edge">
<title>Node1&#45;&gt;Node9</title>
<g id="a_edge8_Node000001_Node000009"><a xlink:title=" ">
<path fill="none" stroke="#63b8ff" d="M122.96,-304.96C143.59,-299.74 166.43,-293.97 185.97,-289.02"/>
<polygon fill="#63b8ff" stroke="#63b8ff" points="187.02,-292.37 195.85,-286.52 185.3,-285.58 187.02,-292.37"/>
</a>
</g>
</g>
<!-- Node10 -->
<g id="Node000010" class="node">
<title>Node10</title>
<g id="a_Node000010"><a xlink:href="structmonopoly_1_1Dice.html#a36a5e0b7d53485b0cffdebf8700a0f1a" target="_top" xlink:title=" ">
<polygon fill="white" stroke="#666666" points="297,-249.5 172,-249.5 172,-230.5 297,-230.5 297,-249.5"/>
<text text-anchor="middle" x="234.5" y="-237.5" font-family="Helvetica,sans-Serif" font-size="10.00">monopoly::Dice::getTotal</text>
</a>
</g>
</g>
<!-- Node1&#45;&gt;Node10 -->
<g id="edge9_Node000001_Node000010" class="edge">
<title>Node1&#45;&gt;Node10</title>
<g id="a_edge9_Node000001_Node000010"><a xlink:title=" ">
<path fill="none" stroke="#63b8ff" d="M83.79,-304.74C102.84,-291.04 132.59,-271.27 161,-259 166.51,-256.62 172.39,-254.48 178.32,-252.57"/>
<polygon fill="#63b8ff" stroke="#63b8ff" points="179.73,-255.8 188.31,-249.58 177.72,-249.1 179.73,-255.8"/>
</a>
</g>
</g>
<!-- Node11 -->
<g id="Node000011" class="node">
<title>Node11</title>
<g id="a_Node000011"><a xlink:href="classmonopoly_1_1GameController.html#a6aea9478f70668e36b6e93d21beb4e3f" target="_top" xlink:title="Get the current game view.">
<polygon fill="white" stroke="#666666" points="301,-212 168,-212 168,-182 301,-182 301,-212"/>
<text text-anchor="start" x="176" y="-200" font-family="Helvetica,sans-Serif" font-size="10.00">monopoly::GameController</text>
<text text-anchor="middle" x="234.5" y="-189" font-family="Helvetica,sans-Serif" font-size="10.00">::getView</text>
</a>
</g>
</g>
<!-- Node1&#45;&gt;Node11 -->
<g id="edge10_Node000001_Node000011" class="edge">
<title>Node1&#45;&gt;Node11</title>
<g id="a_edge10_Node000001_Node000011"><a xlink:title=" ">
<path fill="none" stroke="#63b8ff" d="M74.78,-304.93C91.44,-283.64 124.6,-244.82 161,-222 164.18,-220.01 167.53,-218.15 170.99,-216.43"/>
<polygon fill="#63b8ff" stroke="#63b8ff" points="172.68,-219.5 180.31,-212.16 169.76,-213.14 172.68,-219.5"/>
</a>
</g>
</g>
<!-- Node12 -->
<g id="Node000012" class="node">
<title>Node12</title>
<g id="a_Node000012"><a xlink:href="structmonopoly_1_1Dice.html#a154d6d32e5e31fe7171671f0a2d55ab6" target="_top" xlink:title=" ">
<polygon fill="white" stroke="#666666" points="301.5,-163.5 167.5,-163.5 167.5,-144.5 301.5,-144.5 301.5,-163.5"/>
<text text-anchor="middle" x="234.5" y="-151.5" font-family="Helvetica,sans-Serif" font-size="10.00">monopoly::Dice::isDoubles</text>
</a>
</g>
</g>
<!-- Node1&#45;&gt;Node12 -->
<g id="edge11_Node000001_Node000012" class="edge">
<title>Node1&#45;&gt;Node12</title>
<g id="a_edge11_Node000001_Node000012"><a xlink:title=" ">
<path fill="none" stroke="#63b8ff" d="M69.2,-304.85C81.28,-274.84 112.42,-207.73 161,-173 163.7,-171.07 166.58,-169.34 169.58,-167.78"/>
<polygon fill="#63b8ff" stroke="#63b8ff" points="171.18,-170.9 178.87,-163.61 168.31,-164.51 171.18,-170.9"/>
</a>
</g>
</g>
<!-- Node13 -->
<g id="Node000013" class="node">
<title>Node13</title>
<g id="a_Node000013"><a xlink:href="classmonopoly_1_1Player.html#a53a8859bb9ad558e3d1d27635c513884" target="_top" xlink:title=" ">
<polygon fill="white" stroke="#666666" points="645,-506.5 516,-506.5 516,-487.5 645,-487.5 645,-506.5"/>
<text text-anchor="middle" x="580.5" y="-494.5" font-family="Helvetica,sans-Serif" font-size="10.00">monopoly::Player::isInJail</text>
</a>
</g>
</g>
<!-- Node1&#45;&gt;Node13 -->
<g id="edge12_Node000001_Node000013" class="edge">
<title>Node1&#45;&gt;Node13</title>
<g id="a_edge12_Node000001_Node000013"><a xlink:title=" ">
<path fill="none" stroke="#63b8ff" d="M67.63,-335.17C77.46,-368.05 105.71,-445.48 161,-478 217.43,-511.18 401.41,-507.1 505.68,-501.74"/>
<polygon fill="#63b8ff" stroke="#63b8ff" points="506.02,-505.23 515.82,-501.21 505.65,-498.24 506.02,-505.23"/>
</a>
</g>
</g>
<!-- Node14 -->
<g id="Node000014" class="node">
<title>Node14</title>
<g id="a_Node000014"><a xlink:href="classmonopoly_1_1GameModel.html#ac99a34cf6476bb5d92da4c5d44800017" target="_top" xlink:title="Move player specified number of steps.">
<polygon fill="white" stroke="#666666" points="293,-593 176,-593 176,-563 293,-563 293,-593"/>
<text text-anchor="start" x="184" y="-581" font-family="Helvetica,sans-Serif" font-size="10.00">monopoly::GameModel</text>
<text text-anchor="middle" x="234.5" y="-570" font-family="Helvetica,sans-Serif" font-size="10.00">::moveSteps</text>
</a>
</g>
</g>
<!-- Node1&#45;&gt;Node14 -->
<g id="edge13_Node000001_Node000014" class="edge">
<title>Node1&#45;&gt;Node14</title>
<g id="a_edge13_Node000001_Node000014"><a xlink:title=" ">
<path fill="none" stroke="#63b8ff" d="M65.82,-335.08C72.78,-375.33 97.06,-486.45 161,-549 164.31,-552.23 168.02,-555.12 171.97,-557.69"/>
<polygon fill="#63b8ff" stroke="#63b8ff" points="170.52,-560.9 180.94,-562.85 174.01,-554.83 170.52,-560.9"/>
</a>
</g>
</g>
<!-- Node17 -->
<g id="Node000017" class="node">
<title>Node17</title>
<g id="a_Node000017"><a xlink:href="classmonopoly_1_1GameModel.html#ac183b64523c4925453b1eeaa9ba3e6b4" target="_top" xlink:title="Advance to next player&#39;s turn.">
<polygon fill="white" stroke="#666666" points="293,-126 176,-126 176,-96 293,-96 293,-126"/>
<text text-anchor="start" x="184" y="-114" font-family="Helvetica,sans-Serif" font-size="10.00">monopoly::GameModel</text>
<text text-anchor="middle" x="234.5" y="-103" font-family="Helvetica,sans-Serif" font-size="10.00">::nextTurn</text>
</a>
</g>
</g>
<!-- Node1&#45;&gt;Node17 -->
<g id="edge17_Node000001_Node000017" class="edge">
<title>Node1&#45;&gt;Node17</title>
<g id="a_edge17_Node000001_Node000017"><a xlink:title=" ">
<path fill="none" stroke="#63b8ff" d="M67.35,-304.97C77.03,-270.16 105.65,-183.36 161,-136 162.99,-134.3 165.11,-132.71 167.31,-131.22"/>
<polygon fill="#63b8ff" stroke="#63b8ff" points="169.35,-134.09 176.21,-126.02 165.81,-128.05 169.35,-134.09"/>
</a>
</g>
</g>
<!-- Node19 -->
<g id="Node000019" class="node">
<title>Node19</title>
<g id="a_Node000019"><a xlink:href="classmonopoly_1_1GameModel.html#ad53cf6f13f83ba2408a6bbcffda3a99e" target="_top" xlink:title="Roll two dice and return their values.">
<polygon fill="white" stroke="#666666" points="293,-469 176,-469 176,-439 293,-439 293,-469"/>
<text text-anchor="start" x="184" y="-457" font-family="Helvetica,sans-Serif" font-size="10.00">monopoly::GameModel</text>
<text text-anchor="middle" x="234.5" y="-446" font-family="Helvetica,sans-Serif" font-size="10.00">::rollDice</text>
</a>
</g>
</g>
<!-- Node1&#45;&gt;Node19 -->
<g id="edge19_Node000001_Node000019" class="edge">
<title>Node1&#45;&gt;Node19</title>
<g id="a_edge19_Node000001_Node000019"><a xlink:title=" ">
<path fill="none" stroke="#63b8ff" d="M72.99,-335.08C88.58,-358.64 121.79,-404.16 161,-430 163.44,-431.61 166,-433.12 168.63,-434.53"/>
<polygon fill="#63b8ff" stroke="#63b8ff" points="167.31,-437.78 177.84,-438.99 170.36,-431.48 167.31,-437.78"/>
</a>
</g>
</g>
<!-- Node28 -->
<g id="Node000028" class="node">
<title>Node28</title>
<g id="a_Node000028"><a xlink:href="classmonopoly_1_1GameView.html#a48e4f69f10f058076bf3d2d26605a10f" target="_top" xlink:title="Update message in panel.">
<polygon fill="white" stroke="#666666" points="292.5,-78 176.5,-78 176.5,-48 292.5,-48 292.5,-78"/>
<text text-anchor="start" x="184.5" y="-66" font-family="Helvetica,sans-Serif" font-size="10.00">monopoly::GameView</text>
<text text-anchor="middle" x="234.5" y="-55" font-family="Helvetica,sans-Serif" font-size="10.00">::updatePanelMessage</text>
</a>
</g>
</g>
<!-- Node1&#45;&gt;Node28 -->
<g id="edge31_Node000001_Node000028" class="edge">
<title>Node1&#45;&gt;Node28</title>
<g id="a_edge31_Node000001_Node000028"><a xlink:title=" ">
<path fill="none" stroke="#63b8ff" d="M65.48,-304.74C71.65,-263.5 94.24,-148.83 161,-87 162.96,-85.19 165.06,-83.51 167.26,-81.96"/>
<polygon fill="#63b8ff" stroke="#63b8ff" points="169.44,-84.73 176.21,-76.59 165.84,-78.73 169.44,-84.73"/>
</a>
</g>
</g>
<!-- Node30 -->
<g id="Node000030" class="node">
<title>Node30</title>
<g id="a_Node000030"><a xlink:href="classmonopoly_1_1GameView.html#a6c393c83839219855841d5426496d281" target="_top" xlink:title="Update player token position on board.">
<polygon fill="white" stroke="#666666" points="307.5,-30 161.5,-30 161.5,0 307.5,0 307.5,-30"/>
<text text-anchor="start" x="169.5" y="-18" font-family="Helvetica,sans-Serif" font-size="10.00">monopoly::GameView</text>
<text text-anchor="middle" x="234.5" y="-7" font-family="Helvetica,sans-Serif" font-size="10.00">::updatePlayerAtBoardSquare</text>
</a>
</g>
</g>
<!-- Node1&#45;&gt;Node30 -->
<g id="edge33_Node000001_Node000030" class="edge">
<title>Node1&#45;&gt;Node30</title>
<g id="a_edge33_Node000001_Node000030"><a xlink:title=" ">
<path fill="none" stroke="#63b8ff" d="M64.24,-304.76C67.34,-258.13 83.04,-115.85 161,-39 162.09,-37.92 163.23,-36.9 164.42,-35.91"/>
<polygon fill="#63b8ff" stroke="#63b8ff" points="166.58,-38.67 172.78,-30.08 162.57,-32.93 166.58,-38.67"/>
</a>
</g>
</g>
<!-- Node3 -->
<g id="Node000003" class="node">
<title>Node3</title>
<g id="a_Node000003"><a xlink:href="classmonopoly_1_1GameController.html#af9a704d24cc6257db2ecd626b869a7f4" target="_top" xlink:title="Change the current game state.">
<polygon fill="white" stroke="#666666" points="477,-641 344,-641 344,-611 477,-611 477,-641"/>
<text text-anchor="start" x="352" y="-629" font-family="Helvetica,sans-Serif" font-size="10.00">monopoly::GameController</text>
<text text-anchor="middle" x="410.5" y="-618" font-family="Helvetica,sans-Serif" font-size="10.00">::changeState</text>
</a>
</g>
</g>
<!-- Node2&#45;&gt;Node3 -->
<g id="edge2_Node000002_Node000003" class="edge">
<title>Node2&#45;&gt;Node3</title>
<g id="a_edge2_Node000002_Node000003"><a xlink:title=" ">
<path fill="none" stroke="#63b8ff" d="M291.51,-626C304.94,-626 319.51,-626 333.67,-626"/>
<polygon fill="#63b8ff" stroke="#63b8ff" points="333.89,-629.5 343.89,-626 333.89,-622.5 333.89,-629.5"/>
</a>
</g>
</g>
<!-- Node7 -->
<g id="Node000007" class="node">
<title>Node7</title>
<g id="a_Node000007"><a xlink:href="classmonopoly_1_1TurnState.html#ab88b73e2aa51cf4c57c9aaafec568c6e" target="_top" xlink:title=" ">
<polygon fill="white" stroke="#666666" points="464,-383 357,-383 357,-353 464,-353 464,-383"/>
<text text-anchor="start" x="365" y="-371" font-family="Helvetica,sans-Serif" font-size="10.00">monopoly::TurnState</text>
<text text-anchor="middle" x="410.5" y="-360" font-family="Helvetica,sans-Serif" font-size="10.00">::TurnState</text>
</a>
</g>
</g>
<!-- Node6&#45;&gt;Node7 -->
<g id="edge6_Node000006_Node000007" class="edge">
<title>Node6&#45;&gt;Node7</title>
<g id="a_edge6_Node000006_Node000007"><a xlink:title=" ">
<path fill="none" stroke="#63b8ff" d="M288.18,-368C306.58,-368 327.41,-368 346.56,-368"/>
<polygon fill="#63b8ff" stroke="#63b8ff" points="346.7,-371.5 356.7,-368 346.7,-364.5 346.7,-371.5"/>
</a>
</g>
</g>
<!-- Node15 -->
<g id="Node000015" class="node">
<title>Node15</title>
<g id="a_Node000015"><a xlink:href="classmonopoly_1_1GameModel.html#adabd6c38f7b55f9d2dbc7ec2af30d410" target="_top" xlink:title="Handle player passing GO square.">
<polygon fill="white" stroke="#666666" points="469,-593 352,-593 352,-563 469,-563 469,-593"/>
<text text-anchor="start" x="360" y="-581" font-family="Helvetica,sans-Serif" font-size="10.00">monopoly::GameModel</text>
<text text-anchor="middle" x="410.5" y="-570" font-family="Helvetica,sans-Serif" font-size="10.00">::movedPastGo</text>
</a>
</g>
</g>
<!-- Node14&#45;&gt;Node15 -->
<g id="edge14_Node000014_Node000015" class="edge">
<title>Node14&#45;&gt;Node15</title>
<g id="a_edge14_Node000014_Node000015"><a xlink:title=" ">
<path fill="none" stroke="#63b8ff" d="M293.44,-578C308.85,-578 325.63,-578 341.52,-578"/>
<polygon fill="#63b8ff" stroke="#63b8ff" points="341.81,-581.5 351.81,-578 341.81,-574.5 341.81,-581.5"/>
</a>
</g>
</g>
<!-- Node15&#45;&gt;Node4 -->
<g id="edge15_Node000015_Node000004" class="edge">
<title>Node15&#45;&gt;Node4</title>
<g id="a_edge15_Node000015_Node000004"><a xlink:title=" ">
<path fill="none" stroke="#63b8ff" d="M469.32,-564.92C482.99,-561.83 497.69,-558.51 511.75,-555.32"/>
<polygon fill="#63b8ff" stroke="#63b8ff" points="512.88,-558.66 521.86,-553.04 511.34,-551.83 512.88,-558.66"/>
</a>
</g>
</g>
<!-- Node16 -->
<g id="Node000016" class="node">
<title>Node16</title>
<g id="a_Node000016"><a xlink:href="classmonopoly_1_1Player.html#a52406d42e3118433d33a69fbf2e0381a" target="_top" xlink:title="Increases player&#39;s balance.">
<polygon fill="white" stroke="#666666" points="648,-603 513,-603 513,-573 648,-573 648,-603"/>
<text text-anchor="start" x="521" y="-591" font-family="Helvetica,sans-Serif" font-size="10.00">monopoly::Player::increase</text>
<text text-anchor="middle" x="580.5" y="-580" font-family="Helvetica,sans-Serif" font-size="10.00">Balance</text>
</a>
</g>
</g>
<!-- Node15&#45;&gt;Node16 -->
<g id="edge16_Node000015_Node000016" class="edge">
<title>Node15&#45;&gt;Node16</title>
<g id="a_edge16_Node000015_Node000016"><a xlink:title=" ">
<path fill="none" stroke="#63b8ff" d="M469.32,-581.44C480.07,-582.08 491.46,-582.76 502.68,-583.43"/>
<polygon fill="#63b8ff" stroke="#63b8ff" points="502.72,-586.94 512.91,-584.04 503.14,-579.95 502.72,-586.94"/>
</a>
</g>
</g>
<!-- Node18 -->
<g id="Node000018" class="node">
<title>Node18</title>
<g id="a_Node000018"><a xlink:href="classmonopoly_1_1GameModel.html#a348d6c7713c2274b2a0ef5a531c49616" target="_top" xlink:title=" ">
<polygon fill="white" stroke="#666666" points="469,-126 352,-126 352,-96 469,-96 469,-126"/>
<text text-anchor="start" x="360" y="-114" font-family="Helvetica,sans-Serif" font-size="10.00">monopoly::GameModel</text>
<text text-anchor="middle" x="410.5" y="-103" font-family="Helvetica,sans-Serif" font-size="10.00">::getPlayersCount</text>
</a>
</g>
</g>
<!-- Node17&#45;&gt;Node18 -->
<g id="edge18_Node000017_Node000018" class="edge">
<title>Node17&#45;&gt;Node18</title>
<g id="a_edge18_Node000017_Node000018"><a xlink:title=" ">
<path fill="none" stroke="#63b8ff" d="M293.44,-111C308.85,-111 325.63,-111 341.52,-111"/>
<polygon fill="#63b8ff" stroke="#63b8ff" points="341.81,-114.5 351.81,-111 341.81,-107.5 341.81,-114.5"/>
</a>
</g>
</g>
<!-- Node20 -->
<g id="Node000020" class="node">
<title>Node20</title>
<g id="a_Node000020"><a xlink:href="classmonopoly_1_1GameModel.html#a235817e4a0e8aae94e261ecc3f561b67" target="_top" xlink:title="Process doubles roll consequences.">
<polygon fill="white" stroke="#666666" points="469,-469 352,-469 352,-439 469,-439 469,-469"/>
<text text-anchor="start" x="360" y="-457" font-family="Helvetica,sans-Serif" font-size="10.00">monopoly::GameModel</text>
<text text-anchor="middle" x="410.5" y="-446" font-family="Helvetica,sans-Serif" font-size="10.00">::handleDouble</text>
</a>
</g>
</g>
<!-- Node19&#45;&gt;Node20 -->
<g id="edge20_Node000019_Node000020" class="edge">
<title>Node19&#45;&gt;Node20</title>
<g id="a_edge20_Node000019_Node000020"><a xlink:title=" ">
<path fill="none" stroke="#63b8ff" d="M293.44,-454C308.85,-454 325.63,-454 341.52,-454"/>
<polygon fill="#63b8ff" stroke="#63b8ff" points="341.81,-457.5 351.81,-454 341.81,-450.5 341.81,-457.5"/>
</a>
</g>
</g>
<!-- Node20&#45;&gt;Node4 -->
<g id="edge21_Node000020_Node000004" class="edge">
<title>Node20&#45;&gt;Node4</title>
<g id="a_edge21_Node000020_Node000004"><a xlink:title=" ">
<path fill="none" stroke="#63b8ff" d="M433.35,-469.13C453.42,-482.6 484.33,-502.24 513,-516 516.73,-517.79 520.64,-519.53 524.61,-521.19"/>
<polygon fill="#63b8ff" stroke="#63b8ff" points="523.34,-524.46 533.92,-524.94 525.95,-517.96 523.34,-524.46"/>
</a>
</g>
</g>
<!-- Node20&#45;&gt;Node13 -->
<g id="edge28_Node000020_Node000013" class="edge">
<title>Node20&#45;&gt;Node13</title>
<g id="a_edge28_Node000020_Node000013"><a xlink:title=" ">
<path fill="none" stroke="#63b8ff" d="M469.32,-468.8C489.93,-474.07 512.87,-479.95 532.47,-484.96"/>
<polygon fill="#63b8ff" stroke="#63b8ff" points="531.82,-488.41 542.38,-487.5 533.56,-481.63 531.82,-488.41"/>
</a>
</g>
</g>
<!-- Node21 -->
<g id="Node000021" class="node">
<title>Node21</title>
<g id="a_Node000021"><a xlink:href="classmonopoly_1_1GameModel.html#aebe46d5f977b0b926548e81a0977476e" target="_top" xlink:title="Send player to jail.">
<polygon fill="white" stroke="#666666" points="639,-469 522,-469 522,-439 639,-439 639,-469"/>
<text text-anchor="start" x="530" y="-457" font-family="Helvetica,sans-Serif" font-size="10.00">monopoly::GameModel</text>
<text text-anchor="middle" x="580.5" y="-446" font-family="Helvetica,sans-Serif" font-size="10.00">::goToJail</text>
</a>
</g>
</g>
<!-- Node20&#45;&gt;Node21 -->
<g id="edge22_Node000020_Node000021" class="edge">
<title>Node20&#45;&gt;Node21</title>
<g id="a_edge22_Node000020_Node000021"><a xlink:title=" ">
<path fill="none" stroke="#63b8ff" d="M469.32,-454C482.99,-454 497.69,-454 511.75,-454"/>
<polygon fill="#63b8ff" stroke="#63b8ff" points="511.86,-457.5 521.86,-454 511.86,-450.5 511.86,-457.5"/>
</a>
</g>
</g>
<!-- Node25 -->
<g id="Node000025" class="node">
<title>Node25</title>
<g id="a_Node000025"><a xlink:href="classmonopoly_1_1Player.html#acc8d1f7bc1137f75c14fdad5990657bc" target="_top" xlink:title=" ">
<polygon fill="white" stroke="#666666" points="647,-373 514,-373 514,-343 647,-343 647,-373"/>
<text text-anchor="start" x="522" y="-361" font-family="Helvetica,sans-Serif" font-size="10.00">monopoly::Player::hasMax</text>
<text text-anchor="middle" x="580.5" y="-350" font-family="Helvetica,sans-Serif" font-size="10.00">ConsecutiveDoubles</text>
</a>
</g>
</g>
<!-- Node20&#45;&gt;Node25 -->
<g id="edge26_Node000020_Node000025" class="edge">
<title>Node20&#45;&gt;Node25</title>
<g id="a_edge26_Node000020_Node000025"><a xlink:title=" ">
<path fill="none" stroke="#63b8ff" d="M429.6,-438.86C449.18,-423.04 481.79,-398.31 513,-382 516.29,-380.28 519.74,-378.63 523.25,-377.06"/>
<polygon fill="#63b8ff" stroke="#63b8ff" points="524.81,-380.2 532.66,-373.09 522.09,-373.75 524.81,-380.2"/>
</a>
</g>
</g>
<!-- Node26 -->
<g id="Node000026" class="node">
<title>Node26</title>
<g id="a_Node000026"><a xlink:href="classmonopoly_1_1Player.html#aa3ba1169f3a92d4587f935cfda5165e0" target="_top" xlink:title="Increments number of consecutive doubles rolled.">
<polygon fill="white" stroke="#666666" points="648,-325 513,-325 513,-295 648,-295 648,-325"/>
<text text-anchor="start" x="521" y="-313" font-family="Helvetica,sans-Serif" font-size="10.00">monopoly::Player::increase</text>
<text text-anchor="middle" x="580.5" y="-302" font-family="Helvetica,sans-Serif" font-size="10.00">Doubles</text>
</a>
</g>
</g>
<!-- Node20&#45;&gt;Node26 -->
<g id="edge27_Node000020_Node000026" class="edge">
<title>Node20&#45;&gt;Node26</title>
<g id="a_edge27_Node000020_Node000026"><a xlink:title=" ">
<path fill="none" stroke="#63b8ff" d="M429.96,-438.82C443.81,-426.91 462.75,-409.47 477,-392 496.18,-368.49 489.42,-353.1 513,-334 514.57,-332.73 516.22,-331.52 517.93,-330.37"/>
<polygon fill="#63b8ff" stroke="#63b8ff" points="520,-333.21 526.85,-325.12 516.46,-327.17 520,-333.21"/>
</a>
</g>
</g>
<!-- Node27 -->
<g id="Node000027" class="node">
<title>Node27</title>
<g id="a_Node000027"><a xlink:href="classmonopoly_1_1GameModel.html#a6f2af19f816ef3c47b501967bf52cbfe" target="_top" xlink:title="Release player from jail.">
<polygon fill="white" stroke="#666666" points="639,-421 522,-421 522,-391 639,-391 639,-421"/>
<text text-anchor="start" x="530" y="-409" font-family="Helvetica,sans-Serif" font-size="10.00">monopoly::GameModel</text>
<text text-anchor="middle" x="580.5" y="-398" font-family="Helvetica,sans-Serif" font-size="10.00">::outOfJail</text>
</a>
</g>
</g>
<!-- Node20&#45;&gt;Node27 -->
<g id="edge29_Node000020_Node000027" class="edge">
<title>Node20&#45;&gt;Node27</title>
<g id="a_edge29_Node000020_Node000027"><a xlink:title=" ">
<path fill="none" stroke="#63b8ff" d="M464.2,-438.94C480.93,-434.16 499.59,-428.83 516.95,-423.87"/>
<polygon fill="#63b8ff" stroke="#63b8ff" points="518.34,-427.11 526.99,-421 516.41,-420.38 518.34,-427.11"/>
</a>
</g>
</g>
<!-- Node22 -->
<g id="Node000022" class="node">
<title>Node22</title>
<g id="a_Node000022"><a xlink:href="classmonopoly_1_1Player.html#a17f8a21fc65696c4832bb8d50508424b" target="_top" xlink:title=" ">
<polygon fill="white" stroke="#666666" points="831,-463.5 684,-463.5 684,-444.5 831,-444.5 831,-463.5"/>
<text text-anchor="middle" x="757.5" y="-451.5" font-family="Helvetica,sans-Serif" font-size="10.00">monopoly::Player::setPosition</text>
</a>
</g>
</g>
<!-- Node21&#45;&gt;Node22 -->
<g id="edge23_Node000021_Node000022" class="edge">
<title>Node21&#45;&gt;Node22</title>
<g id="a_edge23_Node000021_Node000022"><a xlink:title=" ">
<path fill="none" stroke="#63b8ff" d="M639.29,-454C650.3,-454 662.02,-454 673.64,-454"/>
<polygon fill="#63b8ff" stroke="#63b8ff" points="673.79,-457.5 683.79,-454 673.79,-450.5 673.79,-457.5"/>
</a>
</g>
</g>
<!-- Node23 -->
<g id="Node000023" class="node">
<title>Node23</title>
<g id="a_Node000023"><a xlink:href="classmonopoly_1_1Player.html#a7000d4fac178a4d138f51d23626a8184" target="_top" xlink:title="Toggles player&#39;s jail status and resets jail turns if freed.">
<polygon fill="white" stroke="#666666" points="820,-424 695,-424 695,-394 820,-394 820,-424"/>
<text text-anchor="start" x="703" y="-412" font-family="Helvetica,sans-Serif" font-size="10.00">monopoly::Player::toggle</text>
<text text-anchor="middle" x="757.5" y="-401" font-family="Helvetica,sans-Serif" font-size="10.00">JailState</text>
</a>
</g>
</g>
<!-- Node21&#45;&gt;Node23 -->
<g id="edge24_Node000021_Node000023" class="edge">
<title>Node21&#45;&gt;Node23</title>
<g id="a_edge24_Node000021_Node000023"><a xlink:title=" ">
<path fill="none" stroke="#63b8ff" d="M639.29,-439.14C654.87,-435.13 671.88,-430.76 687.99,-426.62"/>
<polygon fill="#63b8ff" stroke="#63b8ff" points="689.06,-429.95 697.88,-424.07 687.32,-423.18 689.06,-429.95"/>
</a>
</g>
</g>
<!-- Node24 -->
<g id="Node000024" class="node">
<title>Node24</title>
<g id="a_Node000024"><a xlink:href="classmonopoly_1_1Player.html#a953651fa4828e09ef52d39277c6de5f2" target="_top" xlink:title="Resets jail turn counter to 0.">
<polygon fill="white" stroke="#666666" points="1002,-424 867,-424 867,-394 1002,-394 1002,-424"/>
<text text-anchor="start" x="875" y="-412" font-family="Helvetica,sans-Serif" font-size="10.00">monopoly::Player::resetJail</text>
<text text-anchor="middle" x="934.5" y="-401" font-family="Helvetica,sans-Serif" font-size="10.00">Turns</text>
</a>
</g>
</g>
<!-- Node23&#45;&gt;Node24 -->
<g id="edge25_Node000023_Node000024" class="edge">
<title>Node23&#45;&gt;Node24</title>
<g id="a_edge25_Node000023_Node000024"><a xlink:title=" ">
<path fill="none" stroke="#63b8ff" d="M820.2,-409C831.96,-409 844.41,-409 856.58,-409"/>
<polygon fill="#63b8ff" stroke="#63b8ff" points="856.71,-412.5 866.71,-409 856.71,-405.5 856.71,-412.5"/>
</a>
</g>
</g>
<!-- Node27&#45;&gt;Node23 -->
<g id="edge30_Node000027_Node000023" class="edge">
<title>Node27&#45;&gt;Node23</title>
<g id="a_edge30_Node000027_Node000023"><a xlink:title=" ">
<path fill="none" stroke="#63b8ff" d="M639.29,-406.99C653.77,-407.24 669.48,-407.51 684.55,-407.77"/>
<polygon fill="#63b8ff" stroke="#63b8ff" points="684.81,-411.27 694.86,-407.94 684.93,-404.27 684.81,-411.27"/>
</a>
</g>
</g>
<!-- Node29 -->
<g id="Node000029" class="node">
<title>Node29</title>
<g id="a_Node000029"><a xlink:href="classmonopoly_1_1UserView.html#a7300107e0cdf354ac3b45413c8e818e2" target="_top" xlink:title=" ">
<polygon fill="white" stroke="#666666" points="464,-78 357,-78 357,-48 464,-48 464,-78"/>
<text text-anchor="start" x="365" y="-66" font-family="Helvetica,sans-Serif" font-size="10.00">monopoly::UserView</text>
<text text-anchor="middle" x="410.5" y="-55" font-family="Helvetica,sans-Serif" font-size="10.00">::updatePromptText</text>
</a>
</g>
</g>
<!-- Node28&#45;&gt;Node29 -->
<g id="edge32_Node000028_Node000029" class="edge">
<title>Node28&#45;&gt;Node29</title>
<g id="a_edge32_Node000028_Node000029"><a xlink:title=" ">
<path fill="none" stroke="#63b8ff" d="M292.96,-63C310.17,-63 329.13,-63 346.67,-63"/>
<polygon fill="#63b8ff" stroke="#63b8ff" points="346.81,-66.5 356.81,-63 346.81,-59.5 346.81,-66.5"/>
</a>
</g>
</g>
<!-- Node31 -->
<g id="Node000031" class="node">
<title>Node31</title>
<g id="a_Node000031"><a xlink:href="classmonopoly_1_1BoardView.html#a5cee04a1b7079bfba08a1bfb51764072" target="_top" xlink:title=" ">
<polygon fill="white" stroke="#666666" points="470.5,-30 350.5,-30 350.5,0 470.5,0 470.5,-30"/>
<text text-anchor="start" x="358.5" y="-18" font-family="Helvetica,sans-Serif" font-size="10.00">monopoly::BoardView</text>
<text text-anchor="middle" x="410.5" y="-7" font-family="Helvetica,sans-Serif" font-size="10.00">::updatePlayerAtSquare</text>
</a>
</g>
</g>
<!-- Node30&#45;&gt;Node31 -->
<g id="edge34_Node000030_Node000031" class="edge">
<title>Node30&#45;&gt;Node31</title>
<g id="a_edge34_Node000030_Node000031"><a xlink:title=" ">
<path fill="none" stroke="#63b8ff" d="M307.53,-15C318.3,-15 329.38,-15 340.1,-15"/>
<polygon fill="#63b8ff" stroke="#63b8ff" points="340.23,-18.5 350.23,-15 340.23,-11.5 340.23,-18.5"/>
</a>
</g>
</g>
<!-- Node32 -->
<g id="Node000032" class="node">
<title>Node32</title>
<g id="a_Node000032"><a xlink:href="classmonopoly_1_1BoardView.html#ac72680e18182f00258d6c1bce4b89e74" target="_top" xlink:title=" ">
<polygon fill="white" stroke="#666666" points="636.5,-30 524.5,-30 524.5,0 636.5,0 636.5,-30"/>
<text text-anchor="start" x="532.5" y="-18" font-family="Helvetica,sans-Serif" font-size="10.00">monopoly::BoardView</text>
<text text-anchor="middle" x="580.5" y="-7" font-family="Helvetica,sans-Serif" font-size="10.00">::findSquareById</text>
</a>
</g>
</g>
<!-- Node31&#45;&gt;Node32 -->
<g id="edge35_Node000031_Node000032" class="edge">
<title>Node31&#45;&gt;Node32</title>
<g id="a_edge35_Node000031_Node000032"><a xlink:title=" ">
<path fill="none" stroke="#63b8ff" d="M470.73,-15C484.79,-15 499.87,-15 514.19,-15"/>
<polygon fill="#63b8ff" stroke="#63b8ff" points="514.46,-18.5 524.46,-15 514.46,-11.5 514.46,-18.5"/>
</a>
</g>
</g>
</g>
</svg>

<g id="navigator" transform="translate(0 0)" fill="#404254">
  <rect fill="#f2f5e9" fill-opacity="0.5" stroke="#606060" stroke-width=".5" x="0" y="0" width="60" height="60"/>
  <use id="zoomplus" xlink:href="#zoomPlus" x="17" y="9" onmousedown="handleZoom(evt,'in')"/>
  <use id="zoomminus" xlink:href="#zoomMin" x="42" y="9" onmousedown="handleZoom(evt,'out')"/>
  <use id="reset" xlink:href="#resetDef" x="30" y="36" onmousedown="handleReset()"/>
   <use id="arrowup" xlink:href="#arrowUp" x="0" y="0" onmousedown="handlePan(0,-1)"/>
  <use id="arrowright" xlink:href="#arrowRight" x="0" y="0" onmousedown="handlePan(1,0)"/>
  <use id="arrowdown" xlink:href="#arrowDown" x="0" y="0" onmousedown="handlePan(0,1)"/>
  <use id="arrowleft" xlink:href="#arrowLeft" x="0" y="0" onmousedown="handlePan(-1,0)"/>
</g>
<svg viewBox="0 0 15 15" width="100%" height="30px" preserveAspectRatio="xMaxYMin meet">
 <g id="arrow_out" transform="scale(0.3 0.3)">
  <a xlink:href="classmonopoly_1_1RollDiceState_a262a6a32b9cacaa7561f81a55ec1c1f3_cgraph_org.svg" target="_base">
   <rect id="button" ry="5" rx="5" y="6" x="6" height="38" width="38"
        fill="#f2f5e9" fill-opacity="0.5" stroke="#606060" stroke-width="1.0"/>
   <path id="arrow"
     d="M 11.500037,31.436501 C 11.940474,20.09759 22.043105,11.32322 32.158766,21.979434 L 37.068811,17.246167 C 37.068811,17.246167 37.088388,32 37.088388,32 L 22.160133,31.978069 C 22.160133,31.978069 26.997745,27.140456 26.997745,27.140456 C 18.528582,18.264221 13.291696,25.230495 11.500037,31.436501 z"
     style="fill:#404040;"/>
  </a>
 </g>
</svg>

<style type='text/css'>
<![CDATA[
[data-mouse-over-selected='false'] { opacity: 0.7; }
[data-mouse-over-selected='true']  { opacity: 1.0; }
]]>
</style>
<script type="application/ecmascript"><![CDATA[
document.addEventListener('DOMContentLoaded', (event) => {
  highlightEdges();
  highlightAdjacentNodes();
});
]]></script>
</svg>
