<?xml version="1.0" encoding="UTF-8" standalone="no"?>
<!DOCTYPE svg PUBLIC "-//W3C//DTD SVG 1.1//EN"
 "http://www.w3.org/Graphics/SVG/1.1/DTD/svg11.dtd">
<!-- Generated by graphviz version 2.43.0 (0)
 -->
<!-- Title: monopoly::GameModel::getCurrentPlayer Pages: 1 -->
<svg width="592pt" height="268pt"
 viewBox="0.00 0.00 592.00 268.00" xmlns="http://www.w3.org/2000/svg" xmlns:xlink="http://www.w3.org/1999/xlink">
<g id="graph0" class="graph" transform="scale(1 1) rotate(0) translate(4 264)">
<title>monopoly::GameModel::getCurrentPlayer</title>
<!-- Node1 -->
<g id="Node000001" class="node">
<title>Node1</title>
<g id="a_Node000001"><a xlink:title=" ">
<polygon fill="#999999" stroke="#666666" points="584,-150 467,-150 467,-120 584,-120 584,-150"/>
<text text-anchor="start" x="475" y="-138" font-family="Helvetica,sans-Serif" font-size="10.00">monopoly::GameModel</text>
<text text-anchor="middle" x="525.5" y="-127" font-family="Helvetica,sans-Serif" font-size="10.00">::getCurrentPlayer</text>
</a>
</g>
</g>
<!-- Node2 -->
<g id="Node000002" class="node">
<title>Node2</title>
<g id="a_Node000002"><a xlink:href="classmonopoly_1_1GameModel.html#a235817e4a0e8aae94e261ecc3f561b67" target="_top" xlink:title="Process doubles roll consequences.">
<polygon fill="white" stroke="#666666" points="431,-260 314,-260 314,-230 431,-230 431,-260"/>
<text text-anchor="start" x="322" y="-248" font-family="Helvetica,sans-Serif" font-size="10.00">monopoly::GameModel</text>
<text text-anchor="middle" x="372.5" y="-237" font-family="Helvetica,sans-Serif" font-size="10.00">::handleDouble</text>
</a>
</g>
</g>
<!-- Node1&#45;&gt;Node2 -->
<g id="edge1_Node000001_Node000002" class="edge">
<title>Node1&#45;&gt;Node2</title>
<g id="a_edge1_Node000001_Node000002"><a xlink:title=" ">
<path fill="none" stroke="#63b8ff" d="M502.35,-156.99C484.16,-174.32 457.22,-198.42 431,-216 423.48,-221.04 414.96,-225.8 406.83,-229.94"/>
<polygon fill="#63b8ff" stroke="#63b8ff" points="504.81,-159.47 509.58,-150.01 499.95,-154.44 504.81,-159.47"/>
</a>
</g>
</g>
<!-- Node4 -->
<g id="Node000004" class="node">
<title>Node4</title>
<g id="a_Node000004"><a xlink:href="classmonopoly_1_1RollDiceState.html#a262a6a32b9cacaa7561f81a55ec1c1f3" target="_top" xlink:title=" ">
<polygon fill="white" stroke="#666666" points="125,-217 0,-217 0,-187 125,-187 125,-217"/>
<text text-anchor="start" x="8" y="-205" font-family="Helvetica,sans-Serif" font-size="10.00">monopoly::RollDiceState</text>
<text text-anchor="middle" x="62.5" y="-194" font-family="Helvetica,sans-Serif" font-size="10.00">::handleKeyRelease</text>
</a>
</g>
</g>
<!-- Node1&#45;&gt;Node4 -->
<g id="edge4_Node000001_Node000004" class="edge">
<title>Node1&#45;&gt;Node4</title>
<g id="a_edge4_Node000001_Node000004"><a xlink:title=" ">
<path fill="none" stroke="#63b8ff" d="M493.12,-155.35C475.59,-165.61 452.91,-177.1 431,-183 326.43,-211.15 199.23,-210.35 125.2,-206.6"/>
<polygon fill="#63b8ff" stroke="#63b8ff" points="495.03,-158.29 501.79,-150.14 491.42,-152.29 495.03,-158.29"/>
</a>
</g>
</g>
<!-- Node5 -->
<g id="Node000005" class="node">
<title>Node5</title>
<g id="a_Node000005"><a xlink:href="classmonopoly_1_1TurnState.html#a402f9df8d45636a59abb1e3e75cd0650" target="_top" xlink:title=" ">
<polygon fill="white" stroke="#666666" points="426,-174 319,-174 319,-144 426,-144 426,-174"/>
<text text-anchor="start" x="327" y="-162" font-family="Helvetica,sans-Serif" font-size="10.00">monopoly::TurnState</text>
<text text-anchor="middle" x="372.5" y="-151" font-family="Helvetica,sans-Serif" font-size="10.00">::handleKeyRelease</text>
</a>
</g>
</g>
<!-- Node1&#45;&gt;Node5 -->
<g id="edge5_Node000001_Node000005" class="edge">
<title>Node1&#45;&gt;Node5</title>
<g id="a_edge5_Node000001_Node000005"><a xlink:title=" ">
<path fill="none" stroke="#63b8ff" d="M456.86,-145.75C446.65,-147.37 436.24,-149.03 426.39,-150.59"/>
<polygon fill="#63b8ff" stroke="#63b8ff" points="457.66,-149.17 466.98,-144.14 456.56,-142.26 457.66,-149.17"/>
</a>
</g>
</g>
<!-- Node6 -->
<g id="Node000006" class="node">
<title>Node6</title>
<g id="a_Node000006"><a xlink:href="classmonopoly_1_1GameModel.html#a1736688c5316fecd6f1c7a12b3c4cdb6" target="_top" xlink:title="Process Luxury Tax payment.">
<polygon fill="white" stroke="#666666" points="431,-126 314,-126 314,-96 431,-96 431,-126"/>
<text text-anchor="start" x="322" y="-114" font-family="Helvetica,sans-Serif" font-size="10.00">monopoly::GameModel</text>
<text text-anchor="middle" x="372.5" y="-103" font-family="Helvetica,sans-Serif" font-size="10.00">::landOnLuxuryTax</text>
</a>
</g>
</g>
<!-- Node1&#45;&gt;Node6 -->
<g id="edge6_Node000001_Node000006" class="edge">
<title>Node1&#45;&gt;Node6</title>
<g id="a_edge6_Node000001_Node000006"><a xlink:title=" ">
<path fill="none" stroke="#63b8ff" d="M456.95,-124.26C448.32,-122.89 439.56,-121.5 431.11,-120.16"/>
<polygon fill="#63b8ff" stroke="#63b8ff" points="456.56,-127.74 466.98,-125.86 457.66,-120.83 456.56,-127.74"/>
</a>
</g>
</g>
<!-- Node7 -->
<g id="Node000007" class="node">
<title>Node7</title>
<g id="a_Node000007"><a xlink:href="classmonopoly_1_1GameModel.html#adabd6c38f7b55f9d2dbc7ec2af30d410" target="_top" xlink:title="Handle player passing GO square.">
<polygon fill="white" stroke="#666666" points="431,-78 314,-78 314,-48 431,-48 431,-78"/>
<text text-anchor="start" x="322" y="-66" font-family="Helvetica,sans-Serif" font-size="10.00">monopoly::GameModel</text>
<text text-anchor="middle" x="372.5" y="-55" font-family="Helvetica,sans-Serif" font-size="10.00">::movedPastGo</text>
</a>
</g>
</g>
<!-- Node1&#45;&gt;Node7 -->
<g id="edge7_Node000001_Node000007" class="edge">
<title>Node1&#45;&gt;Node7</title>
<g id="a_edge7_Node000001_Node000007"><a xlink:title=" ">
<path fill="none" stroke="#63b8ff" d="M487.48,-115.14C470.44,-106.22 449.85,-95.76 431,-87 424.53,-83.99 417.57,-80.94 410.8,-78.07"/>
<polygon fill="#63b8ff" stroke="#63b8ff" points="486.08,-118.36 496.55,-119.92 489.34,-112.17 486.08,-118.36"/>
</a>
</g>
</g>
<!-- Node9 -->
<g id="Node000009" class="node">
<title>Node9</title>
<g id="a_Node000009"><a xlink:href="classmonopoly_1_1TurnState.html#aac8caaca7b62cb944a7082b6b68c6ac9" target="_top" xlink:title=" ">
<polygon fill="white" stroke="#666666" points="426,-30 319,-30 319,0 426,0 426,-30"/>
<text text-anchor="start" x="327" y="-18" font-family="Helvetica,sans-Serif" font-size="10.00">monopoly::TurnState</text>
<text text-anchor="middle" x="372.5" y="-7" font-family="Helvetica,sans-Serif" font-size="10.00">::onEnter</text>
</a>
</g>
</g>
<!-- Node1&#45;&gt;Node9 -->
<g id="edge10_Node000001_Node000009" class="edge">
<title>Node1&#45;&gt;Node9</title>
<g id="a_edge10_Node000001_Node000009"><a xlink:title=" ">
<path fill="none" stroke="#63b8ff" d="M506.67,-111.94C489.26,-90.69 461.07,-59.44 431,-39 426.17,-35.72 420.82,-32.75 415.38,-30.11"/>
<polygon fill="#63b8ff" stroke="#63b8ff" points="504.02,-114.23 513.01,-119.83 509.47,-109.84 504.02,-114.23"/>
</a>
</g>
</g>
<!-- Node3 -->
<g id="Node000003" class="node">
<title>Node3</title>
<g id="a_Node000003"><a xlink:href="classmonopoly_1_1GameModel.html#ad53cf6f13f83ba2408a6bbcffda3a99e" target="_top" xlink:title="Roll two dice and return their values.">
<polygon fill="white" stroke="#666666" points="278,-260 161,-260 161,-230 278,-230 278,-260"/>
<text text-anchor="start" x="169" y="-248" font-family="Helvetica,sans-Serif" font-size="10.00">monopoly::GameModel</text>
<text text-anchor="middle" x="219.5" y="-237" font-family="Helvetica,sans-Serif" font-size="10.00">::rollDice</text>
</a>
</g>
</g>
<!-- Node2&#45;&gt;Node3 -->
<g id="edge2_Node000002_Node000003" class="edge">
<title>Node2&#45;&gt;Node3</title>
<g id="a_edge2_Node000002_Node000003"><a xlink:title=" ">
<path fill="none" stroke="#63b8ff" d="M303.95,-245C295.32,-245 286.56,-245 278.11,-245"/>
<polygon fill="#63b8ff" stroke="#63b8ff" points="303.98,-248.5 313.98,-245 303.98,-241.5 303.98,-248.5"/>
</a>
</g>
</g>
<!-- Node3&#45;&gt;Node4 -->
<g id="edge3_Node000003_Node000004" class="edge">
<title>Node3&#45;&gt;Node4</title>
<g id="a_edge3_Node000003_Node000004"><a xlink:title=" ">
<path fill="none" stroke="#63b8ff" d="M154.58,-227.27C142.32,-223.87 129.6,-220.34 117.68,-217.03"/>
<polygon fill="#63b8ff" stroke="#63b8ff" points="153.72,-230.66 164.29,-229.96 155.59,-223.91 153.72,-230.66"/>
</a>
</g>
</g>
<!-- Node8 -->
<g id="Node000008" class="node">
<title>Node8</title>
<g id="a_Node000008"><a xlink:href="classmonopoly_1_1GameModel.html#ac99a34cf6476bb5d92da4c5d44800017" target="_top" xlink:title="Move player specified number of steps.">
<polygon fill="white" stroke="#666666" points="278,-126 161,-126 161,-96 278,-96 278,-126"/>
<text text-anchor="start" x="169" y="-114" font-family="Helvetica,sans-Serif" font-size="10.00">monopoly::GameModel</text>
<text text-anchor="middle" x="219.5" y="-103" font-family="Helvetica,sans-Serif" font-size="10.00">::moveSteps</text>
</a>
</g>
</g>
<!-- Node7&#45;&gt;Node8 -->
<g id="edge8_Node000007_Node000008" class="edge">
<title>Node7&#45;&gt;Node8</title>
<g id="a_edge8_Node000007_Node000008"><a xlink:title=" ">
<path fill="none" stroke="#63b8ff" d="M314.23,-81.21C298.87,-86.09 282.44,-91.31 267.69,-96"/>
<polygon fill="#63b8ff" stroke="#63b8ff" points="315.67,-84.42 324.14,-78.06 313.55,-77.75 315.67,-84.42"/>
</a>
</g>
</g>
<!-- Node8&#45;&gt;Node4 -->
<g id="edge9_Node000008_Node000004" class="edge">
<title>Node8&#45;&gt;Node4</title>
<g id="a_edge9_Node000008_Node000004"><a xlink:title=" ">
<path fill="none" stroke="#63b8ff" d="M184.02,-131.24C155.31,-148.1 115.06,-171.73 89.13,-186.95"/>
<polygon fill="#63b8ff" stroke="#63b8ff" points="186.05,-134.11 192.9,-126.03 182.51,-128.07 186.05,-134.11"/>
</a>
</g>
</g>
</g>
</svg>
