<?xml version="1.0" encoding="UTF-8" standalone="no"?>
<!DOCTYPE svg PUBLIC "-//W3C//DTD SVG 1.1//EN"
 "http://www.w3.org/Graphics/SVG/1.1/DTD/svg11.dtd">
<!-- Generated by graphviz version 2.43.0 (0)
 -->
<!-- Title: monopoly::GameModel::landOnLuxuryTax Pages: 1 -->
<svg width="465pt" height="102pt"
 viewBox="0.00 0.00 465.00 101.50" xmlns="http://www.w3.org/2000/svg" xmlns:xlink="http://www.w3.org/1999/xlink">
<g id="graph0" class="graph" transform="scale(1 1) rotate(0) translate(4 97.5)">
<title>monopoly::GameModel::landOnLuxuryTax</title>
<!-- Node1 -->
<g id="Node000001" class="node">
<title>Node1</title>
<g id="a_Node000001"><a xlink:title="Process Luxury Tax payment.">
<polygon fill="#999999" stroke="#666666" points="117,-69.5 0,-69.5 0,-39.5 117,-39.5 117,-69.5"/>
<text text-anchor="start" x="8" y="-57.5" font-family="Helvetica,sans-Serif" font-size="10.00">monopoly::GameModel</text>
<text text-anchor="middle" x="58.5" y="-46.5" font-family="Helvetica,sans-Serif" font-size="10.00">::landOnLuxuryTax</text>
</a>
</g>
</g>
<!-- Node2 -->
<g id="Node000002" class="node">
<title>Node2</title>
<g id="a_Node000002"><a xlink:href="classmonopoly_1_1GameModel.html#a61c4fbccfe0fd1f1870bfd4df55571f1" target="_top" xlink:title=" ">
<polygon fill="white" stroke="#666666" points="270,-93.5 153,-93.5 153,-63.5 270,-63.5 270,-93.5"/>
<text text-anchor="start" x="161" y="-81.5" font-family="Helvetica,sans-Serif" font-size="10.00">monopoly::GameModel</text>
<text text-anchor="middle" x="211.5" y="-70.5" font-family="Helvetica,sans-Serif" font-size="10.00">::getCurrentPlayer</text>
</a>
</g>
</g>
<!-- Node1&#45;&gt;Node2 -->
<g id="edge1_Node000001_Node000002" class="edge">
<title>Node1&#45;&gt;Node2</title>
<g id="a_edge1_Node000001_Node000002"><a xlink:title=" ">
<path fill="none" stroke="#63b8ff" d="M117.02,-63.64C125.46,-64.98 134.23,-66.38 142.86,-67.75"/>
<polygon fill="#63b8ff" stroke="#63b8ff" points="142.47,-71.23 152.89,-69.34 143.57,-64.32 142.47,-71.23"/>
</a>
</g>
</g>
<!-- Node3 -->
<g id="Node000003" class="node">
<title>Node3</title>
<g id="a_Node000003"><a xlink:href="classmonopoly_1_1GameModel.html#a2c5accb7c47990bf66995aa466813674" target="_top" xlink:title="Handle player bankruptcy process.">
<polygon fill="white" stroke="#666666" points="270,-45.5 153,-45.5 153,-15.5 270,-15.5 270,-45.5"/>
<text text-anchor="start" x="161" y="-33.5" font-family="Helvetica,sans-Serif" font-size="10.00">monopoly::GameModel</text>
<text text-anchor="middle" x="211.5" y="-22.5" font-family="Helvetica,sans-Serif" font-size="10.00">::handleBankruptcy</text>
</a>
</g>
</g>
<!-- Node1&#45;&gt;Node3 -->
<g id="edge2_Node000001_Node000003" class="edge">
<title>Node1&#45;&gt;Node3</title>
<g id="a_edge2_Node000001_Node000003"><a xlink:title=" ">
<path fill="none" stroke="#63b8ff" d="M117.02,-45.36C125.46,-44.02 134.23,-42.62 142.86,-41.25"/>
<polygon fill="#63b8ff" stroke="#63b8ff" points="143.57,-44.68 152.89,-39.66 142.47,-37.77 143.57,-44.68"/>
</a>
</g>
</g>
<!-- Node4 -->
<g id="Node000004" class="node">
<title>Node4</title>
<g id="a_Node000004"><a xlink:href="classmonopoly_1_1GameModel.html#a66f0223a16582dab7e8a7224df23a380" target="_top" xlink:title="Check if game has been won.">
<polygon fill="white" stroke="#666666" points="440,-67.5 323,-67.5 323,-37.5 440,-37.5 440,-67.5"/>
<text text-anchor="start" x="331" y="-55.5" font-family="Helvetica,sans-Serif" font-size="10.00">monopoly::GameModel</text>
<text text-anchor="middle" x="381.5" y="-44.5" font-family="Helvetica,sans-Serif" font-size="10.00">::isGameWon</text>
</a>
</g>
</g>
<!-- Node3&#45;&gt;Node4 -->
<g id="edge3_Node000003_Node000004" class="edge">
<title>Node3&#45;&gt;Node4</title>
<g id="a_edge3_Node000003_Node000004"><a xlink:title=" ">
<path fill="none" stroke="#63b8ff" d="M270.32,-38.07C283.99,-39.86 298.69,-41.79 312.75,-43.63"/>
<polygon fill="#63b8ff" stroke="#63b8ff" points="312.49,-47.12 322.86,-44.95 313.4,-40.18 312.49,-47.12"/>
</a>
</g>
</g>
<!-- Node5 -->
<g id="Node000005" class="node">
<title>Node5</title>
<g id="a_Node000005"><a xlink:href="classmonopoly_1_1Player.html#a7b6118b0ebe2e5ac2effeda0847e298a" target="_top" xlink:title=" ">
<polygon fill="white" stroke="#666666" points="457,-19 306,-19 306,0 457,0 457,-19"/>
<text text-anchor="middle" x="381.5" y="-7" font-family="Helvetica,sans-Serif" font-size="10.00">monopoly::Player::setBankrupt</text>
</a>
</g>
</g>
<!-- Node3&#45;&gt;Node5 -->
<g id="edge4_Node000003_Node000005" class="edge">
<title>Node3&#45;&gt;Node5</title>
<g id="a_edge4_Node000003_Node000005"><a xlink:title=" ">
<path fill="none" stroke="#63b8ff" d="M270.32,-23.27C278.57,-22.24 287.2,-21.16 295.84,-20.08"/>
<polygon fill="#63b8ff" stroke="#63b8ff" points="296.47,-23.53 305.96,-18.82 295.61,-16.58 296.47,-23.53"/>
</a>
</g>
</g>
</g>
</svg>
