<?xml version="1.0" encoding="UTF-8" standalone="no"?>
<!DOCTYPE svg PUBLIC "-//W3C//DTD SVG 1.1//EN"
 "http://www.w3.org/Graphics/SVG/1.1/DTD/svg11.dtd">
<!-- Generated by graphviz version 2.43.0 (0)
 -->
<!-- Title: JailSquare::handleEvent Pages: 1 -->
<svg width="309pt" height="76pt"
 viewBox="0.00 0.00 309.00 75.50" xmlns="http://www.w3.org/2000/svg" xmlns:xlink="http://www.w3.org/1999/xlink">
<g id="graph0" class="graph" transform="scale(1 1) rotate(0) translate(4 71.5)">
<title>JailSquare::handleEvent</title>
<!-- Node1 -->
<g id="Node000001" class="node">
<title>Node1</title>
<g id="a_Node000001"><a xlink:title=" ">
<polygon fill="#999999" stroke="#666666" points="122,-45.5 0,-45.5 0,-26.5 122,-26.5 122,-45.5"/>
<text text-anchor="middle" x="61" y="-33.5" font-family="Helvetica,sans-Serif" font-size="10.00">JailSquare::handleEvent</text>
</a>
</g>
</g>
<!-- Node2 -->
<g id="Node000002" class="node">
<title>Node2</title>
<g id="a_Node000002"><a xlink:href="classSFComponent.html#acb704b9ca82bbfe34d6e10bed782c148" target="_top" xlink:title=" ">
<polygon fill="white" stroke="#666666" points="290.5,-67.5 168.5,-67.5 168.5,-48.5 290.5,-48.5 290.5,-67.5"/>
<text text-anchor="middle" x="229.5" y="-55.5" font-family="Helvetica,sans-Serif" font-size="10.00">SFComponent::contains</text>
</a>
</g>
</g>
<!-- Node1&#45;&gt;Node2 -->
<g id="edge1_Node000001_Node000002" class="edge">
<title>Node1&#45;&gt;Node2</title>
<g id="a_edge1_Node000001_Node000002"><a xlink:title=" ">
<path fill="none" stroke="#63b8ff" d="M122.11,-43.94C133.9,-45.5 146.36,-47.15 158.44,-48.74"/>
<polygon fill="#63b8ff" stroke="#63b8ff" points="158.11,-52.23 168.48,-50.07 159.02,-45.29 158.11,-52.23"/>
</a>
</g>
</g>
<!-- Node3 -->
<g id="Node000003" class="node">
<title>Node3</title>
<g id="a_Node000003"><a xlink:href="classSFComponent.html#ab4247b7184bb170f478243ffc53b07a6" target="_top" xlink:title=" ">
<polygon fill="white" stroke="#666666" points="301,-30 158,-30 158,0 301,0 301,-30"/>
<text text-anchor="start" x="166" y="-18" font-family="Helvetica,sans-Serif" font-size="10.00">SFComponent::isComponent</text>
<text text-anchor="middle" x="229.5" y="-7" font-family="Helvetica,sans-Serif" font-size="10.00">Enabled</text>
</a>
</g>
</g>
<!-- Node1&#45;&gt;Node3 -->
<g id="edge2_Node000001_Node000003" class="edge">
<title>Node1&#45;&gt;Node3</title>
<g id="a_edge2_Node000001_Node000003"><a xlink:title=" ">
<path fill="none" stroke="#63b8ff" d="M122.11,-28.42C130.48,-27.36 139.19,-26.26 147.86,-25.17"/>
<polygon fill="#63b8ff" stroke="#63b8ff" points="148.51,-28.62 157.99,-23.89 147.64,-21.67 148.51,-28.62"/>
</a>
</g>
</g>
</g>
</svg>
