<?xml version="1.0" encoding="UTF-8" standalone="no"?>
<!DOCTYPE svg PUBLIC "-//W3C//DTD SVG 1.1//EN"
 "http://www.w3.org/Graphics/SVG/1.1/DTD/svg11.dtd">
<!-- Generated by graphviz version 2.43.0 (0)
 -->
<!-- Title: SFComponent::isComponentVisible Pages: 1 -->
<svg width="314pt" height="187pt"
 viewBox="0.00 0.00 314.00 186.50" xmlns="http://www.w3.org/2000/svg" xmlns:xlink="http://www.w3.org/1999/xlink">
<g id="graph0" class="graph" transform="scale(1 1) rotate(0) translate(4 182.5)">
<title>SFComponent::isComponentVisible</title>
<!-- Node1 -->
<g id="Node000001" class="node">
<title>Node1</title>
<g id="a_Node000001"><a xlink:title=" ">
<polygon fill="#999999" stroke="#666666" points="306,-110 163,-110 163,-80 306,-80 306,-110"/>
<text text-anchor="start" x="171" y="-98" font-family="Helvetica,sans-Serif" font-size="10.00">SFComponent::isComponent</text>
<text text-anchor="middle" x="234.5" y="-87" font-family="Helvetica,sans-Serif" font-size="10.00">Visible</text>
</a>
</g>
</g>
<!-- Node2 -->
<g id="Node000002" class="node">
<title>Node2</title>
<g id="a_Node000002"><a xlink:href="classFreeParkingSquare.html#a1419bf5a1c5f75dd4d027c90410c5dee" target="_top" xlink:title=" ">
<polygon fill="white" stroke="#666666" points="127,-178.5 0,-178.5 0,-159.5 127,-159.5 127,-178.5"/>
<text text-anchor="middle" x="63.5" y="-166.5" font-family="Helvetica,sans-Serif" font-size="10.00">FreeParkingSquare::draw</text>
</a>
</g>
</g>
<!-- Node1&#45;&gt;Node2 -->
<g id="edge1_Node000001_Node000002" class="edge">
<title>Node1&#45;&gt;Node2</title>
<g id="a_edge1_Node000001_Node000002"><a xlink:title=" ">
<path fill="none" stroke="#63b8ff" d="M199.43,-115.19C178.94,-126.76 152.04,-140.93 127,-151 119.14,-154.16 110.52,-157.01 102.27,-159.47"/>
<polygon fill="#63b8ff" stroke="#63b8ff" points="201.43,-118.09 208.37,-110.09 197.95,-112.01 201.43,-118.09"/>
</a>
</g>
</g>
<!-- Node3 -->
<g id="Node000003" class="node">
<title>Node3</title>
<g id="a_Node000003"><a xlink:href="classGoSquare.html#a69ca418c54c2edc40dd707f3e636274a" target="_top" xlink:title=" ">
<polygon fill="white" stroke="#666666" points="107,-141.5 20,-141.5 20,-122.5 107,-122.5 107,-141.5"/>
<text text-anchor="middle" x="63.5" y="-129.5" font-family="Helvetica,sans-Serif" font-size="10.00">GoSquare::draw</text>
</a>
</g>
</g>
<!-- Node1&#45;&gt;Node3 -->
<g id="edge2_Node000001_Node000003" class="edge">
<title>Node1&#45;&gt;Node3</title>
<g id="a_edge2_Node000001_Node000003"><a xlink:title=" ">
<path fill="none" stroke="#63b8ff" d="M154.69,-112.25C138.43,-115.81 121.88,-119.44 107.47,-122.59"/>
<polygon fill="#63b8ff" stroke="#63b8ff" points="155.74,-115.61 164.76,-110.05 154.24,-108.77 155.74,-115.61"/>
</a>
</g>
</g>
<!-- Node4 -->
<g id="Node000004" class="node">
<title>Node4</title>
<g id="a_Node000004"><a xlink:href="classGoToJailSquare.html#aaa0dbeebe8a453d6d253b097cd5bb128" target="_top" xlink:title=" ">
<polygon fill="white" stroke="#666666" points="120,-104.5 7,-104.5 7,-85.5 120,-85.5 120,-104.5"/>
<text text-anchor="middle" x="63.5" y="-92.5" font-family="Helvetica,sans-Serif" font-size="10.00">GoToJailSquare::draw</text>
</a>
</g>
</g>
<!-- Node1&#45;&gt;Node4 -->
<g id="edge3_Node000001_Node000004" class="edge">
<title>Node1&#45;&gt;Node4</title>
<g id="a_edge3_Node000001_Node000004"><a xlink:title=" ">
<path fill="none" stroke="#63b8ff" d="M152.69,-95C141.63,-95 130.48,-95 120.01,-95"/>
<polygon fill="#63b8ff" stroke="#63b8ff" points="152.81,-98.5 162.81,-95 152.81,-91.5 152.81,-98.5"/>
</a>
</g>
</g>
<!-- Node5 -->
<g id="Node000005" class="node">
<title>Node5</title>
<g id="a_Node000005"><a xlink:href="classJailSquare.html#a535fb26faf8a018ac2600aa2fc6b73f3" target="_top" xlink:title=" ">
<polygon fill="white" stroke="#666666" points="108,-67.5 19,-67.5 19,-48.5 108,-48.5 108,-67.5"/>
<text text-anchor="middle" x="63.5" y="-55.5" font-family="Helvetica,sans-Serif" font-size="10.00">JailSquare::draw</text>
</a>
</g>
</g>
<!-- Node1&#45;&gt;Node5 -->
<g id="edge4_Node000001_Node000005" class="edge">
<title>Node1&#45;&gt;Node5</title>
<g id="a_edge4_Node000001_Node000005"><a xlink:title=" ">
<path fill="none" stroke="#63b8ff" d="M154.79,-77.77C138.68,-74.24 122.28,-70.65 107.97,-67.52"/>
<polygon fill="#63b8ff" stroke="#63b8ff" points="154.24,-81.23 164.76,-79.95 155.74,-74.39 154.24,-81.23"/>
</a>
</g>
</g>
<!-- Node6 -->
<g id="Node000006" class="node">
<title>Node6</title>
<g id="a_Node000006"><a xlink:href="classPlayerTokenComponent.html#a785be00633a3dcdc2b89ab1eccd56d0a" target="_top" xlink:title=" ">
<polygon fill="white" stroke="#666666" points="124,-30 3,-30 3,0 124,0 124,-30"/>
<text text-anchor="start" x="11" y="-18" font-family="Helvetica,sans-Serif" font-size="10.00">PlayerTokenComponent</text>
<text text-anchor="middle" x="63.5" y="-7" font-family="Helvetica,sans-Serif" font-size="10.00">::draw</text>
</a>
</g>
</g>
<!-- Node1&#45;&gt;Node6 -->
<g id="edge5_Node000001_Node000006" class="edge">
<title>Node1&#45;&gt;Node6</title>
<g id="a_edge5_Node000001_Node000006"><a xlink:title=" ">
<path fill="none" stroke="#63b8ff" d="M196.9,-74.99C176.55,-64.15 150.64,-50.8 127,-40 119.56,-36.6 111.51,-33.19 103.75,-30.03"/>
<polygon fill="#63b8ff" stroke="#63b8ff" points="195.37,-78.14 205.83,-79.78 198.67,-71.97 195.37,-78.14"/>
</a>
</g>
</g>
</g>
</svg>
