<?xml version="1.0" encoding="UTF-8" standalone="no"?>
<!DOCTYPE svg PUBLIC "-//W3C//DTD SVG 1.1//EN"
 "http://www.w3.org/Graphics/SVG/1.1/DTD/svg11.dtd">
<!-- Generated by graphviz version 2.43.0 (0)
 -->
<!-- Title: monopoly::TurnState Pages: 1 -->
<svg width="177pt" height="308pt"
 viewBox="0.00 0.00 176.50 308.00" xmlns="http://www.w3.org/2000/svg" xmlns:xlink="http://www.w3.org/1999/xlink">
<g id="graph0" class="graph" transform="scale(1 1) rotate(0) translate(4 304)">
<title>monopoly::TurnState</title>
<!-- Node1 -->
<g id="Node000001" class="node">
<title>Node1</title>
<g id="a_Node000001"><a xlink:title=" ">
<polygon fill="#999999" stroke="transparent" points="107.5,-94 0.5,-94 0.5,0 107.5,0 107.5,-94"/>
<text text-anchor="start" x="9" y="-82" font-family="Helvetica,sans-Serif" font-size="10.00">monopoly::TurnState</text>
<text text-anchor="start" x="52.5" y="-67" font-family="Helvetica,sans-Serif" font-size="10.00"> </text>
<text text-anchor="start" x="5" y="-52" font-family="Helvetica,sans-Serif" font-size="10.00">+</text>
<text text-anchor="start" x="16" y="-52" font-family="Helvetica,sans-Serif" font-size="10.00">onEnter()</text>
<text text-anchor="start" x="5" y="-37" font-family="Helvetica,sans-Serif" font-size="10.00">+</text>
<text text-anchor="start" x="16" y="-37" font-family="Helvetica,sans-Serif" font-size="10.00">handleKeyRelease()</text>
<text text-anchor="start" x="5" y="-22" font-family="Helvetica,sans-Serif" font-size="10.00">+</text>
<text text-anchor="start" x="16" y="-22" font-family="Helvetica,sans-Serif" font-size="10.00">getInstance()</text>
<text text-anchor="start" x="6.5" y="-7" font-family="Helvetica,sans-Serif" font-size="10.00">&#45;</text>
<text text-anchor="start" x="16" y="-7" font-family="Helvetica,sans-Serif" font-size="10.00">TurnState()</text>
<polygon fill="#666666" stroke="#666666" points="1,-77 1,-77 108,-77 108,-77 1,-77"/>
<polygon fill="#666666" stroke="#666666" points="1,-62 1,-62 108,-62 108,-62 1,-62"/>
<polygon fill="none" stroke="#666666" points="0.5,0 0.5,-94 107.5,-94 107.5,0 0.5,0"/>
</a>
</g>
</g>
<!-- Node1&#45;&gt;Node1 -->
<g id="edge2_Node000001_Node000001" class="edge">
<title>Node1&#45;&gt;Node1</title>
<g id="a_edge2_Node000001_Node000001"><a xlink:title=" ">
<path fill="none" stroke="#63b8ff" d="M107.63,-58.47C118.08,-57.13 125.5,-53.31 125.5,-47 125.5,-43.45 123.15,-40.69 119.24,-38.71"/>
<polygon fill="none" stroke="#63b8ff" points="119.21,-38.7 112.36,-40.98 107.63,-35.53 114.48,-33.26 119.21,-38.7"/>
</a>
</g>
<text text-anchor="middle" x="147" y="-44.5" font-family="Helvetica,sans-Serif" font-size="10.00" fill="grey"> &#45;instance</text>
</g>
<!-- Node2 -->
<g id="Node000002" class="node">
<title>Node2</title>
<g id="a_Node000002"><a xlink:href="classmonopoly_1_1GameState.html" target="_top" xlink:title=" ">
<polygon fill="white" stroke="transparent" points="108,-300 0,-300 0,-131 108,-131 108,-300"/>
<text text-anchor="start" x="5" y="-287.5" font-family="Helvetica,sans-Serif" font-size="10.00">monopoly::GameState</text>
<text text-anchor="start" x="52" y="-272.5" font-family="Helvetica,sans-Serif" font-size="10.00"> </text>
<text text-anchor="start" x="4" y="-257.5" font-family="Helvetica,sans-Serif" font-size="10.00">+</text>
<text text-anchor="start" x="15" y="-257.5" font-family="Helvetica,sans-Serif" font-size="10.00">~GameState()</text>
<text text-anchor="start" x="4" y="-242.5" font-family="Helvetica,sans-Serif" font-size="10.00">+</text>
<text text-anchor="start" x="15" y="-242.5" font-family="Helvetica,sans-Serif" font-size="10.00">onEnter()</text>
<text text-anchor="start" x="4" y="-227.5" font-family="Helvetica,sans-Serif" font-size="10.00">+</text>
<text text-anchor="start" x="15" y="-227.5" font-family="Helvetica,sans-Serif" font-size="10.00">handleKeyRelease()</text>
<text text-anchor="start" x="4" y="-212.5" font-family="Helvetica,sans-Serif" font-size="10.00">+</text>
<text text-anchor="start" x="15" y="-212.5" font-family="Helvetica,sans-Serif" font-size="10.00">update()</text>
<text text-anchor="start" x="4" y="-197.5" font-family="Helvetica,sans-Serif" font-size="10.00">+</text>
<text text-anchor="start" x="15" y="-197.5" font-family="Helvetica,sans-Serif" font-size="10.00">getInstance()</text>
<text text-anchor="start" x="4.5" y="-182.5" font-family="Helvetica,sans-Serif" font-size="10.00">#</text>
<text text-anchor="start" x="15" y="-182.5" font-family="Helvetica,sans-Serif" font-size="10.00">GameState()</text>
<text text-anchor="start" x="4.5" y="-167.5" font-family="Helvetica,sans-Serif" font-size="10.00">#</text>
<text text-anchor="start" x="15" y="-167.5" font-family="Helvetica,sans-Serif" font-size="10.00">changeState()</text>
<text text-anchor="start" x="4.5" y="-152.5" font-family="Helvetica,sans-Serif" font-size="10.00">#</text>
<text text-anchor="start" x="15" y="-152.5" font-family="Helvetica,sans-Serif" font-size="10.00">GameState()</text>
<text text-anchor="start" x="4.5" y="-137.5" font-family="Helvetica,sans-Serif" font-size="10.00">#</text>
<text text-anchor="start" x="15" y="-137.5" font-family="Helvetica,sans-Serif" font-size="10.00">operator=()</text>
<polygon fill="#666666" stroke="#666666" points="0,-282.5 0,-282.5 108,-282.5 108,-282.5 0,-282.5"/>
<polygon fill="#666666" stroke="#666666" points="0,-267.5 0,-267.5 108,-267.5 108,-267.5 0,-267.5"/>
<polygon fill="none" stroke="#666666" points="0,-131 0,-300 108,-300 108,-131 0,-131"/>
</a>
</g>
</g>
<!-- Node2&#45;&gt;Node1 -->
<g id="edge1_Node000001_Node000002" class="edge">
<title>Node2&#45;&gt;Node1</title>
<g id="a_edge1_Node000001_Node000002"><a xlink:title=" ">
<path fill="none" stroke="#63b8ff" d="M54,-120.72C54,-111.51 54,-102.47 54,-94.07"/>
<polygon fill="none" stroke="#63b8ff" points="50.5,-120.76 54,-130.76 57.5,-120.76 50.5,-120.76"/>
</a>
</g>
</g>
</g>
</svg>
