<?xml version="1.0" encoding="UTF-8" standalone="no"?>
<!DOCTYPE svg PUBLIC "-//W3C//DTD SVG 1.1//EN"
 "http://www.w3.org/Graphics/SVG/1.1/DTD/svg11.dtd">
<!-- Generated by graphviz version 2.43.0 (0)
 -->
<!-- Title: monopoly::SpecialSquare Pages: 1 -->
<svg width="130pt" height="397pt"
 viewBox="0.00 0.00 130.00 397.00" xmlns="http://www.w3.org/2000/svg" xmlns:xlink="http://www.w3.org/1999/xlink">
<g id="graph0" class="graph" transform="scale(1 1) rotate(0) translate(4 393)">
<title>monopoly::SpecialSquare</title>
<!-- Node1 -->
<g id="Node000001" class="node">
<title>Node1</title>
<g id="a_Node000001"><a xlink:title="Represents special squares on the Monopoly board that trigger specific actions.">
<polygon fill="#999999" stroke="transparent" points="122,-154 0,-154 0,0 122,0 122,-154"/>
<text text-anchor="start" x="5" y="-142" font-family="Helvetica,sans-Serif" font-size="10.00">monopoly::SpecialSquare</text>
<text text-anchor="start" x="13.5" y="-127" font-family="Helvetica,sans-Serif" font-size="10.00">&#45;</text>
<text text-anchor="start" x="31" y="-127" font-family="Helvetica,sans-Serif" font-size="10.00">type</text>
<text text-anchor="start" x="12" y="-112" font-family="Helvetica,sans-Serif" font-size="10.00">+</text>
<text text-anchor="start" x="31" y="-112" font-family="Helvetica,sans-Serif" font-size="10.00">SpecialSquare()</text>
<text text-anchor="start" x="12" y="-97" font-family="Helvetica,sans-Serif" font-size="10.00">+</text>
<text text-anchor="start" x="31" y="-97" font-family="Helvetica,sans-Serif" font-size="10.00">getType()</text>
<text text-anchor="start" x="12" y="-82" font-family="Helvetica,sans-Serif" font-size="10.00">+</text>
<text text-anchor="start" x="31" y="-82" font-family="Helvetica,sans-Serif" font-size="10.00">isCardSquare()</text>
<text text-anchor="start" x="12" y="-67" font-family="Helvetica,sans-Serif" font-size="10.00">+</text>
<text text-anchor="start" x="31" y="-67" font-family="Helvetica,sans-Serif" font-size="10.00">isTaxSquare()</text>
<text text-anchor="start" x="12" y="-52" font-family="Helvetica,sans-Serif" font-size="10.00">+</text>
<text text-anchor="start" x="31" y="-52" font-family="Helvetica,sans-Serif" font-size="10.00">SpecialSquare()</text>
<text text-anchor="start" x="12" y="-37" font-family="Helvetica,sans-Serif" font-size="10.00">+</text>
<text text-anchor="start" x="31" y="-37" font-family="Helvetica,sans-Serif" font-size="10.00">operator=()</text>
<text text-anchor="start" x="12" y="-22" font-family="Helvetica,sans-Serif" font-size="10.00">+</text>
<text text-anchor="start" x="31" y="-22" font-family="Helvetica,sans-Serif" font-size="10.00">SpecialSquare()</text>
<text text-anchor="start" x="12" y="-7" font-family="Helvetica,sans-Serif" font-size="10.00">+</text>
<text text-anchor="start" x="31" y="-7" font-family="Helvetica,sans-Serif" font-size="10.00">operator=()</text>
<polygon fill="#666666" stroke="#666666" points="0,-137 0,-137 122,-137 122,-137 0,-137"/>
<polygon fill="#666666" stroke="#666666" points="0,-122 0,-122 29,-122 29,-122 0,-122"/>
<polygon fill="#666666" stroke="#666666" points="29,-122 29,-122 122,-122 122,-122 29,-122"/>
<polygon fill="none" stroke="#666666" points="0,0 0,-154 122,-154 122,0 0,0"/>
</a>
</g>
</g>
<!-- Node2 -->
<g id="Node000002" class="node">
<title>Node2</title>
<g id="a_Node000002"><a xlink:href="classmonopoly_1_1Square.html" target="_top" xlink:title="Base class for all squares on the Monopoly board.">
<polygon fill="white" stroke="transparent" points="105.5,-389 16.5,-389 16.5,-190 105.5,-190 105.5,-389"/>
<text text-anchor="start" x="22" y="-376.5" font-family="Helvetica,sans-Serif" font-size="10.00">monopoly::Square</text>
<text text-anchor="start" x="26" y="-361.5" font-family="Helvetica,sans-Serif" font-size="10.00">&#45;</text>
<text text-anchor="start" x="39" y="-361.5" font-family="Helvetica,sans-Serif" font-size="10.00">name</text>
<text text-anchor="start" x="26" y="-346.5" font-family="Helvetica,sans-Serif" font-size="10.00">&#45;</text>
<text text-anchor="start" x="39" y="-346.5" font-family="Helvetica,sans-Serif" font-size="10.00">position</text>
<text text-anchor="start" x="26" y="-331.5" font-family="Helvetica,sans-Serif" font-size="10.00">&#45;</text>
<text text-anchor="start" x="39" y="-331.5" font-family="Helvetica,sans-Serif" font-size="10.00">id</text>
<text text-anchor="start" x="24.5" y="-316.5" font-family="Helvetica,sans-Serif" font-size="10.00">+</text>
<text text-anchor="start" x="39" y="-316.5" font-family="Helvetica,sans-Serif" font-size="10.00">Square()</text>
<text text-anchor="start" x="24.5" y="-301.5" font-family="Helvetica,sans-Serif" font-size="10.00">+</text>
<text text-anchor="start" x="39" y="-301.5" font-family="Helvetica,sans-Serif" font-size="10.00">~Square()</text>
<text text-anchor="start" x="24.5" y="-286.5" font-family="Helvetica,sans-Serif" font-size="10.00">+</text>
<text text-anchor="start" x="39" y="-286.5" font-family="Helvetica,sans-Serif" font-size="10.00">getName()</text>
<text text-anchor="start" x="24.5" y="-271.5" font-family="Helvetica,sans-Serif" font-size="10.00">+</text>
<text text-anchor="start" x="39" y="-271.5" font-family="Helvetica,sans-Serif" font-size="10.00">getPosition()</text>
<text text-anchor="start" x="24.5" y="-256.5" font-family="Helvetica,sans-Serif" font-size="10.00">+</text>
<text text-anchor="start" x="39" y="-256.5" font-family="Helvetica,sans-Serif" font-size="10.00">getId()</text>
<text text-anchor="start" x="24.5" y="-241.5" font-family="Helvetica,sans-Serif" font-size="10.00">+</text>
<text text-anchor="start" x="39" y="-241.5" font-family="Helvetica,sans-Serif" font-size="10.00">Square()</text>
<text text-anchor="start" x="24.5" y="-226.5" font-family="Helvetica,sans-Serif" font-size="10.00">+</text>
<text text-anchor="start" x="39" y="-226.5" font-family="Helvetica,sans-Serif" font-size="10.00">operator=()</text>
<text text-anchor="start" x="24.5" y="-211.5" font-family="Helvetica,sans-Serif" font-size="10.00">+</text>
<text text-anchor="start" x="39" y="-211.5" font-family="Helvetica,sans-Serif" font-size="10.00">Square()</text>
<text text-anchor="start" x="24.5" y="-196.5" font-family="Helvetica,sans-Serif" font-size="10.00">+</text>
<text text-anchor="start" x="39" y="-196.5" font-family="Helvetica,sans-Serif" font-size="10.00">operator=()</text>
<polygon fill="#666666" stroke="#666666" points="17,-371.5 17,-371.5 106,-371.5 106,-371.5 17,-371.5"/>
<polygon fill="#666666" stroke="#666666" points="17,-326.5 17,-326.5 37,-326.5 37,-326.5 17,-326.5"/>
<polygon fill="#666666" stroke="#666666" points="37,-326.5 37,-326.5 106,-326.5 106,-326.5 37,-326.5"/>
<polygon fill="none" stroke="#666666" points="16.5,-190 16.5,-389 105.5,-389 105.5,-190 16.5,-190"/>
</a>
</g>
</g>
<!-- Node2&#45;&gt;Node1 -->
<g id="edge1_Node000001_Node000002" class="edge">
<title>Node2&#45;&gt;Node1</title>
<g id="a_edge1_Node000001_Node000002"><a xlink:title=" ">
<path fill="none" stroke="#63b8ff" d="M61,-179.61C61,-171.01 61,-162.43 61,-154.12"/>
<polygon fill="none" stroke="#63b8ff" points="57.5,-179.72 61,-189.72 64.5,-179.72 57.5,-179.72"/>
</a>
</g>
</g>
</g>
</svg>
