<?xml version="1.0" encoding="UTF-8" standalone="no"?>
<!DOCTYPE svg PUBLIC "-//W3C//DTD SVG 1.1//EN"
 "http://www.w3.org/Graphics/SVG/1.1/DTD/svg11.dtd">
<!-- Generated by graphviz version 2.43.0 (0)
 -->
<!-- Title: BoardSquareComponent::drawPlayers Pages: 1 -->
<svg width="453pt" height="335pt"
 viewBox="0.00 0.00 453.00 335.00" xmlns="http://www.w3.org/2000/svg" xmlns:xlink="http://www.w3.org/1999/xlink">

<svg id="main" version="1.1" xmlns="http://www.w3.org/2000/svg" xmlns:xlink="http://www.w3.org/1999/xlink" xml:space="preserve" onload="init(evt)">
<style type="text/css"><![CDATA[
.node, .edge {opacity: 0.7;}
.node.selected, .edge.selected {opacity: 1;}
.edge:hover path { stroke: red; }
.edge:hover polygon { stroke: red; fill: red; }
]]></style>
<script type="application/ecmascript" xlink:href="svg.min.js"/>
<svg id="graph" class="graph">
<g id="graph0" class="graph" transform="scale(1 1) rotate(0) translate(4 331)">
<title>BoardSquareComponent::drawPlayers</title>
<!-- Node1 -->
<g id="Node000001" class="node">
<title>Node1</title>
<g id="a_Node000001"><a xlink:title=" ">
<polygon fill="#999999" stroke="#666666" points="445,-172.5 322,-172.5 322,-142.5 445,-142.5 445,-172.5"/>
<text text-anchor="start" x="330" y="-160.5" font-family="Helvetica,sans-Serif" font-size="10.00">BoardSquareComponent</text>
<text text-anchor="middle" x="383.5" y="-149.5" font-family="Helvetica,sans-Serif" font-size="10.00">::drawPlayers</text>
</a>
</g>
</g>
<!-- Node2 -->
<g id="Node000002" class="node">
<title>Node2</title>
<g id="a_Node000002"><a xlink:href="classBoardSquareComponent.html#a881195405144e0c5ed22e5c3a9deaf1b" target="_top" xlink:title=" ">
<polygon fill="white" stroke="#666666" points="286,-172.5 163,-172.5 163,-142.5 286,-142.5 286,-172.5"/>
<text text-anchor="start" x="171" y="-160.5" font-family="Helvetica,sans-Serif" font-size="10.00">BoardSquareComponent</text>
<text text-anchor="middle" x="224.5" y="-149.5" font-family="Helvetica,sans-Serif" font-size="10.00">::draw</text>
</a>
</g>
</g>
<!-- Node1&#45;&gt;Node2 -->
<g id="edge1_Node000001_Node000002" class="edge">
<title>Node1&#45;&gt;Node2</title>
<g id="a_edge1_Node000001_Node000002"><a xlink:title=" ">
<path fill="none" stroke="#63b8ff" d="M311.79,-157.5C303.19,-157.5 294.47,-157.5 286.04,-157.5"/>
<polygon fill="#63b8ff" stroke="#63b8ff" points="311.8,-161 321.8,-157.5 311.8,-154 311.8,-161"/>
</a>
</g>
</g>
<!-- Node3 -->
<g id="Node000003" class="node">
<title>Node3</title>
<g id="a_Node000003"><a xlink:href="classChanceSquare.html#a992d8af8b5a7122ea0726aa2aac82c25" target="_top" xlink:title=" ">
<polygon fill="white" stroke="#666666" points="117.5,-327 9.5,-327 9.5,-308 117.5,-308 117.5,-327"/>
<text text-anchor="middle" x="63.5" y="-315" font-family="Helvetica,sans-Serif" font-size="10.00">ChanceSquare::draw</text>
</a>
</g>
</g>
<!-- Node2&#45;&gt;Node3 -->
<g id="edge2_Node000002_Node000003" class="edge">
<title>Node2&#45;&gt;Node3</title>
<g id="a_edge2_Node000002_Node000003"><a xlink:title=" ">
<path fill="none" stroke="#63b8ff" d="M212.99,-182.15C198.29,-213.71 168.65,-267.95 127,-298.5 121.7,-302.39 115.59,-305.49 109.31,-307.97"/>
<polygon fill="#63b8ff" stroke="#63b8ff" points="216.3,-183.32 217.23,-172.76 209.92,-180.43 216.3,-183.32"/>
</a>
</g>
</g>
<!-- Node4 -->
<g id="Node000004" class="node">
<title>Node4</title>
<g id="a_Node000004"><a xlink:href="classCommunityChestSquare.html#a397baed96bd37be8c9b5da6fd0db2670" target="_top" xlink:title=" ">
<polygon fill="white" stroke="#666666" points="125.5,-289.5 1.5,-289.5 1.5,-259.5 125.5,-259.5 125.5,-289.5"/>
<text text-anchor="start" x="9.5" y="-277.5" font-family="Helvetica,sans-Serif" font-size="10.00">CommunityChestSquare</text>
<text text-anchor="middle" x="63.5" y="-266.5" font-family="Helvetica,sans-Serif" font-size="10.00">::draw</text>
</a>
</g>
</g>
<!-- Node2&#45;&gt;Node4 -->
<g id="edge3_Node000002_Node000004" class="edge">
<title>Node2&#45;&gt;Node4</title>
<g id="a_edge3_Node000002_Node000004"><a xlink:title=" ">
<path fill="none" stroke="#63b8ff" d="M204.63,-180.31C186.52,-200.98 157.5,-231.09 127,-250.5 121.8,-253.81 116.08,-256.77 110.27,-259.4"/>
<polygon fill="#63b8ff" stroke="#63b8ff" points="207.37,-182.49 211.24,-172.63 202.06,-177.93 207.37,-182.49"/>
</a>
</g>
</g>
<!-- Node5 -->
<g id="Node000005" class="node">
<title>Node5</title>
<g id="a_Node000005"><a xlink:href="classFreeParkingSquare.html#a1419bf5a1c5f75dd4d027c90410c5dee" target="_top" xlink:title=" ">
<polygon fill="white" stroke="#666666" points="127,-241 0,-241 0,-222 127,-222 127,-241"/>
<text text-anchor="middle" x="63.5" y="-229" font-family="Helvetica,sans-Serif" font-size="10.00">FreeParkingSquare::draw</text>
</a>
</g>
</g>
<!-- Node2&#45;&gt;Node5 -->
<g id="edge4_Node000002_Node000005" class="edge">
<title>Node2&#45;&gt;Node5</title>
<g id="a_edge4_Node000002_Node000005"><a xlink:title=" ">
<path fill="none" stroke="#63b8ff" d="M192.37,-178.19C173.95,-189.76 149.81,-203.77 127,-213.5 119.52,-216.69 111.31,-219.51 103.36,-221.91"/>
<polygon fill="#63b8ff" stroke="#63b8ff" points="194.38,-181.06 200.93,-172.74 190.62,-175.16 194.38,-181.06"/>
</a>
</g>
</g>
<!-- Node6 -->
<g id="Node000006" class="node">
<title>Node6</title>
<g id="a_Node000006"><a xlink:href="classGoSquare.html#a69ca418c54c2edc40dd707f3e636274a" target="_top" xlink:title=" ">
<polygon fill="white" stroke="#666666" points="107,-204 20,-204 20,-185 107,-185 107,-204"/>
<text text-anchor="middle" x="63.5" y="-192" font-family="Helvetica,sans-Serif" font-size="10.00">GoSquare::draw</text>
</a>
</g>
</g>
<!-- Node2&#45;&gt;Node6 -->
<g id="edge5_Node000002_Node000006" class="edge">
<title>Node2&#45;&gt;Node6</title>
<g id="a_edge5_Node000002_Node000006"><a xlink:title=" ">
<path fill="none" stroke="#63b8ff" d="M152.96,-173.92C136.79,-177.68 120.12,-181.56 105.67,-184.92"/>
<polygon fill="#63b8ff" stroke="#63b8ff" points="153.99,-177.27 162.94,-171.59 152.4,-170.45 153.99,-177.27"/>
</a>
</g>
</g>
<!-- Node7 -->
<g id="Node000007" class="node">
<title>Node7</title>
<g id="a_Node000007"><a xlink:href="classIncomeTaxSquare.html#ad23cbc2454f4fcb6cd3e1f2f490bd45c" target="_top" xlink:title=" ">
<polygon fill="white" stroke="#666666" points="124.5,-167 2.5,-167 2.5,-148 124.5,-148 124.5,-167"/>
<text text-anchor="middle" x="63.5" y="-155" font-family="Helvetica,sans-Serif" font-size="10.00">IncomeTaxSquare::draw</text>
</a>
</g>
</g>
<!-- Node2&#45;&gt;Node7 -->
<g id="edge6_Node000002_Node000007" class="edge">
<title>Node2&#45;&gt;Node7</title>
<g id="a_edge6_Node000002_Node000007"><a xlink:title=" ">
<path fill="none" stroke="#63b8ff" d="M152.82,-157.5C143.41,-157.5 133.84,-157.5 124.63,-157.5"/>
<polygon fill="#63b8ff" stroke="#63b8ff" points="152.94,-161 162.94,-157.5 152.94,-154 152.94,-161"/>
</a>
</g>
</g>
<!-- Node8 -->
<g id="Node000008" class="node">
<title>Node8</title>
<g id="a_Node000008"><a xlink:href="classJailSquare.html#a535fb26faf8a018ac2600aa2fc6b73f3" target="_top" xlink:title=" ">
<polygon fill="white" stroke="#666666" points="108,-130 19,-130 19,-111 108,-111 108,-130"/>
<text text-anchor="middle" x="63.5" y="-118" font-family="Helvetica,sans-Serif" font-size="10.00">JailSquare::draw</text>
</a>
</g>
</g>
<!-- Node2&#45;&gt;Node8 -->
<g id="edge7_Node000002_Node000008" class="edge">
<title>Node2&#45;&gt;Node8</title>
<g id="a_edge7_Node000002_Node000008"><a xlink:title=" ">
<path fill="none" stroke="#63b8ff" d="M152.96,-141.08C136.79,-137.32 120.12,-133.44 105.67,-130.08"/>
<polygon fill="#63b8ff" stroke="#63b8ff" points="152.4,-144.55 162.94,-143.41 153.99,-137.73 152.4,-144.55"/>
</a>
</g>
</g>
<!-- Node9 -->
<g id="Node000009" class="node">
<title>Node9</title>
<g id="a_Node000009"><a xlink:href="classRailroadSquare.html#a249599e29f605d859c5d769dfc4327bd" target="_top" xlink:title=" ">
<polygon fill="white" stroke="#666666" points="118.5,-93 8.5,-93 8.5,-74 118.5,-74 118.5,-93"/>
<text text-anchor="middle" x="63.5" y="-81" font-family="Helvetica,sans-Serif" font-size="10.00">RailroadSquare::draw</text>
</a>
</g>
</g>
<!-- Node2&#45;&gt;Node9 -->
<g id="edge8_Node000002_Node000009" class="edge">
<title>Node2&#45;&gt;Node9</title>
<g id="a_edge8_Node000002_Node000009"><a xlink:title=" ">
<path fill="none" stroke="#63b8ff" d="M191.9,-137.11C173.49,-125.84 149.53,-112.2 127,-102.5 118.67,-98.91 109.44,-95.71 100.69,-93.01"/>
<polygon fill="#63b8ff" stroke="#63b8ff" points="190.12,-140.12 200.46,-142.42 193.81,-134.17 190.12,-140.12"/>
</a>
</g>
</g>
<!-- Node10 -->
<g id="Node000010" class="node">
<title>Node10</title>
<g id="a_Node000010"><a xlink:href="classStreetSquare.html#ab3f103e17c7721d84a3ff182a3f16e64" target="_top" xlink:title=" ">
<polygon fill="white" stroke="#666666" points="114,-56 13,-56 13,-37 114,-37 114,-56"/>
<text text-anchor="middle" x="63.5" y="-44" font-family="Helvetica,sans-Serif" font-size="10.00">StreetSquare::draw</text>
</a>
</g>
</g>
<!-- Node2&#45;&gt;Node10 -->
<g id="edge9_Node000002_Node000010" class="edge">
<title>Node2&#45;&gt;Node10</title>
<g id="a_edge9_Node000002_Node000010"><a xlink:title=" ">
<path fill="none" stroke="#63b8ff" d="M204.89,-134.43C186.97,-113.64 158.06,-83.63 127,-65.5 120.44,-61.67 113.03,-58.54 105.67,-56.01"/>
<polygon fill="#63b8ff" stroke="#63b8ff" points="202.3,-136.79 211.43,-142.18 207.65,-132.28 202.3,-136.79"/>
</a>
</g>
</g>
<!-- Node11 -->
<g id="Node000011" class="node">
<title>Node11</title>
<g id="a_Node000011"><a xlink:href="classUtilitySquare.html#acc5b063ac3a6b4b14d0f71c606235e0c" target="_top" xlink:title=" ">
<polygon fill="white" stroke="#666666" points="113.5,-19 13.5,-19 13.5,0 113.5,0 113.5,-19"/>
<text text-anchor="middle" x="63.5" y="-7" font-family="Helvetica,sans-Serif" font-size="10.00">UtilitySquare::draw</text>
</a>
</g>
</g>
<!-- Node2&#45;&gt;Node11 -->
<g id="edge10_Node000002_Node000011" class="edge">
<title>Node2&#45;&gt;Node11</title>
<g id="a_edge10_Node000002_Node000011"><a xlink:title=" ">
<path fill="none" stroke="#63b8ff" d="M211.52,-133.21C195.95,-104.13 166.08,-55.92 127,-28.5 121.52,-24.66 115.25,-21.58 108.84,-19.11"/>
<polygon fill="#63b8ff" stroke="#63b8ff" points="208.52,-135.03 216.24,-142.28 214.73,-131.8 208.52,-135.03"/>
</a>
</g>
</g>
</g>
</svg>
</svg>

<style type='text/css'>
<![CDATA[
[data-mouse-over-selected='false'] { opacity: 0.7; }
[data-mouse-over-selected='true']  { opacity: 1.0; }
]]>
</style>
<script type="application/ecmascript"><![CDATA[
document.addEventListener('DOMContentLoaded', (event) => {
  highlightEdges();
  highlightAdjacentNodes();
});
]]></script>
</svg>
