<?xml version="1.0" encoding="UTF-8" standalone="no"?>
<!DOCTYPE svg PUBLIC "-//W3C//DTD SVG 1.1//EN"
 "http://www.w3.org/Graphics/SVG/1.1/DTD/svg11.dtd">
<!-- Generated by graphviz version 2.43.0 (0)
 -->
<!-- Title: IncomeTaxSquare::draw Pages: 1 -->
<svg width="448pt" height="38pt"
 viewBox="0.00 0.00 448.00 38.00" xmlns="http://www.w3.org/2000/svg" xmlns:xlink="http://www.w3.org/1999/xlink">
<g id="graph0" class="graph" transform="scale(1 1) rotate(0) translate(4 34)">
<title>IncomeTaxSquare::draw</title>
<!-- Node1 -->
<g id="Node000001" class="node">
<title>Node1</title>
<g id="a_Node000001"><a xlink:title=" ">
<polygon fill="#999999" stroke="#666666" points="122,-24.5 0,-24.5 0,-5.5 122,-5.5 122,-24.5"/>
<text text-anchor="middle" x="61" y="-12.5" font-family="Helvetica,sans-Serif" font-size="10.00">IncomeTaxSquare::draw</text>
</a>
</g>
</g>
<!-- Node2 -->
<g id="Node000002" class="node">
<title>Node2</title>
<g id="a_Node000002"><a xlink:href="classBoardSquareComponent.html#a881195405144e0c5ed22e5c3a9deaf1b" target="_top" xlink:title=" ">
<polygon fill="white" stroke="#666666" points="281,-30 158,-30 158,0 281,0 281,-30"/>
<text text-anchor="start" x="166" y="-18" font-family="Helvetica,sans-Serif" font-size="10.00">BoardSquareComponent</text>
<text text-anchor="middle" x="219.5" y="-7" font-family="Helvetica,sans-Serif" font-size="10.00">::draw</text>
</a>
</g>
</g>
<!-- Node1&#45;&gt;Node2 -->
<g id="edge1_Node000001_Node000002" class="edge">
<title>Node1&#45;&gt;Node2</title>
<g id="a_edge1_Node000001_Node000002"><a xlink:title=" ">
<path fill="none" stroke="#63b8ff" d="M122.06,-15C130.49,-15 139.21,-15 147.81,-15"/>
<polygon fill="#63b8ff" stroke="#63b8ff" points="147.83,-18.5 157.83,-15 147.82,-11.5 147.83,-18.5"/>
</a>
</g>
</g>
<!-- Node3 -->
<g id="Node000003" class="node">
<title>Node3</title>
<g id="a_Node000003"><a xlink:href="classBoardSquareComponent.html#a9fff7f24accf46ae4c0db14173d3079c" target="_top" xlink:title=" ">
<polygon fill="white" stroke="#666666" points="440,-30 317,-30 317,0 440,0 440,-30"/>
<text text-anchor="start" x="325" y="-18" font-family="Helvetica,sans-Serif" font-size="10.00">BoardSquareComponent</text>
<text text-anchor="middle" x="378.5" y="-7" font-family="Helvetica,sans-Serif" font-size="10.00">::drawPlayers</text>
</a>
</g>
</g>
<!-- Node2&#45;&gt;Node3 -->
<g id="edge2_Node000002_Node000003" class="edge">
<title>Node2&#45;&gt;Node3</title>
<g id="a_edge2_Node000002_Node000003"><a xlink:title=" ">
<path fill="none" stroke="#63b8ff" d="M281.2,-15C289.64,-15 298.36,-15 306.95,-15"/>
<polygon fill="#63b8ff" stroke="#63b8ff" points="306.96,-18.5 316.96,-15 306.96,-11.5 306.96,-18.5"/>
</a>
</g>
</g>
</g>
</svg>
