<?xml version="1.0" encoding="UTF-8" standalone="no"?>
<!DOCTYPE svg PUBLIC "-//W3C//DTD SVG 1.1//EN"
 "http://www.w3.org/Graphics/SVG/1.1/DTD/svg11.dtd">
<!-- Generated by graphviz version 2.43.0 (0)
 -->
<!-- Title: StreetSquare::StreetSquare Pages: 1 -->
<svg width="320pt" height="101pt"
 viewBox="0.00 0.00 320.00 101.00" xmlns="http://www.w3.org/2000/svg" xmlns:xlink="http://www.w3.org/1999/xlink">
<g id="graph0" class="graph" transform="scale(1 1) rotate(0) translate(4 97)">
<title>StreetSquare::StreetSquare</title>
<!-- Node1 -->
<g id="Node000001" class="node">
<title>Node1</title>
<g id="a_Node000001"><a xlink:title=" ">
<polygon fill="#999999" stroke="#666666" points="137,-56 0,-56 0,-37 137,-37 137,-56"/>
<text text-anchor="middle" x="68.5" y="-44" font-family="Helvetica,sans-Serif" font-size="10.00">StreetSquare::StreetSquare</text>
</a>
</g>
</g>
<!-- Node2 -->
<g id="Node000002" class="node">
<title>Node2</title>
<g id="a_Node000002"><a xlink:href="classStreetSquare.html#a8edae5d9cf681aabac55bf6ff4ec2d09" target="_top" xlink:title=" ">
<polygon fill="white" stroke="#666666" points="312,-93 173,-93 173,-74 312,-74 312,-93"/>
<text text-anchor="middle" x="242.5" y="-81" font-family="Helvetica,sans-Serif" font-size="10.00">StreetSquare::setColorBand</text>
</a>
</g>
</g>
<!-- Node1&#45;&gt;Node2 -->
<g id="edge1_Node000001_Node000002" class="edge">
<title>Node1&#45;&gt;Node2</title>
<g id="a_edge1_Node000001_Node000002"><a xlink:title=" ">
<path fill="none" stroke="#63b8ff" d="M113.79,-56.03C136.18,-60.84 163.53,-66.73 187.18,-71.81"/>
<polygon fill="#63b8ff" stroke="#63b8ff" points="186.54,-75.26 197.06,-73.94 188.02,-68.41 186.54,-75.26"/>
</a>
</g>
</g>
<!-- Node3 -->
<g id="Node000003" class="node">
<title>Node3</title>
<g id="a_Node000003"><a xlink:href="classStreetSquare.html#a672dd0bb650b742d4f46c8226f286f63" target="_top" xlink:title=" ">
<polygon fill="white" stroke="#666666" points="301,-56 184,-56 184,-37 301,-37 301,-56"/>
<text text-anchor="middle" x="242.5" y="-44" font-family="Helvetica,sans-Serif" font-size="10.00">StreetSquare::setTexts</text>
</a>
</g>
</g>
<!-- Node1&#45;&gt;Node3 -->
<g id="edge2_Node000001_Node000003" class="edge">
<title>Node1&#45;&gt;Node3</title>
<g id="a_edge2_Node000001_Node000003"><a xlink:title=" ">
<path fill="none" stroke="#63b8ff" d="M137.48,-46.5C149.32,-46.5 161.63,-46.5 173.47,-46.5"/>
<polygon fill="#63b8ff" stroke="#63b8ff" points="173.73,-50 183.73,-46.5 173.73,-43 173.73,-50"/>
</a>
</g>
</g>
<!-- Node4 -->
<g id="Node000004" class="node">
<title>Node4</title>
<g id="a_Node000004"><a xlink:href="classStreetSquare.html#a5f54f96384449907d327890b42eacdc2" target="_top" xlink:title=" ">
<polygon fill="white" stroke="#666666" points="308,-19 177,-19 177,0 308,0 308,-19"/>
<text text-anchor="middle" x="242.5" y="-7" font-family="Helvetica,sans-Serif" font-size="10.00">StreetSquare::updateView</text>
</a>
</g>
</g>
<!-- Node1&#45;&gt;Node4 -->
<g id="edge3_Node000001_Node000004" class="edge">
<title>Node1&#45;&gt;Node4</title>
<g id="a_edge3_Node000001_Node000004"><a xlink:title=" ">
<path fill="none" stroke="#63b8ff" d="M113.79,-36.97C136.18,-32.16 163.53,-26.27 187.18,-21.19"/>
<polygon fill="#63b8ff" stroke="#63b8ff" points="188.02,-24.59 197.06,-19.06 186.54,-17.74 188.02,-24.59"/>
</a>
</g>
</g>
</g>
</svg>
