<?xml version="1.0" encoding="UTF-8" standalone="no"?>
<!DOCTYPE svg PUBLIC "-//W3C//DTD SVG 1.1//EN"
 "http://www.w3.org/Graphics/SVG/1.1/DTD/svg11.dtd">
<!-- Generated by graphviz version 2.43.0 (0)
 -->
<!-- Title: monopoly::GameModel::canBuildOnStreet Pages: 1 -->
<svg width="321pt" height="224pt"
 viewBox="0.00 0.00 321.00 223.50" xmlns="http://www.w3.org/2000/svg" xmlns:xlink="http://www.w3.org/1999/xlink">
<g id="graph0" class="graph" transform="scale(1 1) rotate(0) translate(4 219.5)">
<title>monopoly::GameModel::canBuildOnStreet</title>
<!-- Node1 -->
<g id="Node000001" class="node">
<title>Node1</title>
<g id="a_Node000001"><a xlink:title="Check if houses can be built on street.">
<polygon fill="#999999" stroke="#666666" points="117,-128 0,-128 0,-98 117,-98 117,-128"/>
<text text-anchor="start" x="8" y="-116" font-family="Helvetica,sans-Serif" font-size="10.00">monopoly::GameModel</text>
<text text-anchor="middle" x="58.5" y="-105" font-family="Helvetica,sans-Serif" font-size="10.00">::canBuildOnStreet</text>
</a>
</g>
</g>
<!-- Node2 -->
<g id="Node000002" class="node">
<title>Node2</title>
<g id="a_Node000002"><a xlink:href="classmonopoly_1_1Player.html#a3ac4e53730a8d5f12ee3f9ffd1d9e528" target="_top" xlink:title="Checks if player can afford a payment.">
<polygon fill="white" stroke="#666666" points="303,-215.5 163,-215.5 163,-196.5 303,-196.5 303,-215.5"/>
<text text-anchor="middle" x="233" y="-203.5" font-family="Helvetica,sans-Serif" font-size="10.00">monopoly::Player::canAfford</text>
</a>
</g>
</g>
<!-- Node1&#45;&gt;Node2 -->
<g id="edge1_Node000001_Node000002" class="edge">
<title>Node1&#45;&gt;Node2</title>
<g id="a_edge1_Node000001_Node000002"><a xlink:title=" ">
<path fill="none" stroke="#63b8ff" d="M73.89,-128.1C91.09,-145.25 121.52,-172.79 153,-188 157.1,-189.98 161.43,-191.75 165.86,-193.33"/>
<polygon fill="#63b8ff" stroke="#63b8ff" points="165.08,-196.75 175.67,-196.48 167.23,-190.09 165.08,-196.75"/>
</a>
</g>
</g>
<!-- Node3 -->
<g id="Node000003" class="node">
<title>Node3</title>
<g id="a_Node000003"><a xlink:href="classmonopoly_1_1Street.html#a285ac818e3b1b75df0458c3928eddf7f" target="_top" xlink:title="Get the cost to build a house.">
<polygon fill="white" stroke="#666666" points="313,-178.5 153,-178.5 153,-159.5 313,-159.5 313,-178.5"/>
<text text-anchor="middle" x="233" y="-166.5" font-family="Helvetica,sans-Serif" font-size="10.00">monopoly::Street::getHouseCost</text>
</a>
</g>
</g>
<!-- Node1&#45;&gt;Node3 -->
<g id="edge2_Node000001_Node000003" class="edge">
<title>Node1&#45;&gt;Node3</title>
<g id="a_edge2_Node000001_Node000003"><a xlink:title=" ">
<path fill="none" stroke="#63b8ff" d="M92.77,-128.06C110.42,-135.65 132.61,-144.58 153,-151 159.92,-153.18 167.25,-155.21 174.56,-157.06"/>
<polygon fill="#63b8ff" stroke="#63b8ff" points="173.92,-160.51 184.46,-159.48 175.58,-153.71 173.92,-160.51"/>
</a>
</g>
</g>
<!-- Node4 -->
<g id="Node000004" class="node">
<title>Node4</title>
<g id="a_Node000004"><a xlink:href="classmonopoly_1_1Street.html#a5457f695453457b85a54bb83ca8a2597" target="_top" xlink:title="Get the number of houses.">
<polygon fill="white" stroke="#666666" points="305,-141.5 161,-141.5 161,-122.5 305,-122.5 305,-141.5"/>
<text text-anchor="middle" x="233" y="-129.5" font-family="Helvetica,sans-Serif" font-size="10.00">monopoly::Street::getHouses</text>
</a>
</g>
</g>
<!-- Node1&#45;&gt;Node4 -->
<g id="edge3_Node000001_Node000004" class="edge">
<title>Node1&#45;&gt;Node4</title>
<g id="a_edge3_Node000001_Node000004"><a xlink:title=" ">
<path fill="none" stroke="#63b8ff" d="M117.42,-119.38C128.06,-120.55 139.35,-121.79 150.53,-123.03"/>
<polygon fill="#63b8ff" stroke="#63b8ff" points="150.42,-126.54 160.75,-124.15 151.19,-119.58 150.42,-126.54"/>
</a>
</g>
</g>
<!-- Node5 -->
<g id="Node000005" class="node">
<title>Node5</title>
<g id="a_Node000005"><a xlink:href="classmonopoly_1_1Player.html#a25b1794379aa66e656ba1ba9632ff76e" target="_top" xlink:title=" ">
<polygon fill="white" stroke="#666666" points="293,-104.5 173,-104.5 173,-85.5 293,-85.5 293,-104.5"/>
<text text-anchor="middle" x="233" y="-92.5" font-family="Helvetica,sans-Serif" font-size="10.00">monopoly::Player::getId</text>
</a>
</g>
</g>
<!-- Node1&#45;&gt;Node5 -->
<g id="edge4_Node000001_Node000005" class="edge">
<title>Node1&#45;&gt;Node5</title>
<g id="a_edge4_Node000001_Node000005"><a xlink:title=" ">
<path fill="none" stroke="#63b8ff" d="M117.42,-106.96C131.89,-105.45 147.56,-103.81 162.53,-102.25"/>
<polygon fill="#63b8ff" stroke="#63b8ff" points="163.18,-105.7 172.76,-101.18 162.45,-98.74 163.18,-105.7"/>
</a>
</g>
</g>
<!-- Node6 -->
<g id="Node000006" class="node">
<title>Node6</title>
<g id="a_Node000006"><a xlink:href="classmonopoly_1_1Square.html#a6245251a3e881d9066cf7558d8b0d793" target="_top" xlink:title="Gets the unique identifier of the square.">
<polygon fill="white" stroke="#666666" points="294.5,-67.5 171.5,-67.5 171.5,-48.5 294.5,-48.5 294.5,-67.5"/>
<text text-anchor="middle" x="233" y="-55.5" font-family="Helvetica,sans-Serif" font-size="10.00">monopoly::Square::getId</text>
</a>
</g>
</g>
<!-- Node1&#45;&gt;Node6 -->
<g id="edge5_Node000001_Node000006" class="edge">
<title>Node1&#45;&gt;Node6</title>
<g id="a_edge5_Node000001_Node000006"><a xlink:title=" ">
<path fill="none" stroke="#63b8ff" d="M95.52,-97.86C112.73,-90.95 133.73,-83 153,-77 161.04,-74.5 169.62,-72.13 178.05,-69.97"/>
<polygon fill="#63b8ff" stroke="#63b8ff" points="178.98,-73.35 187.84,-67.54 177.29,-66.55 178.98,-73.35"/>
</a>
</g>
</g>
<!-- Node7 -->
<g id="Node000007" class="node">
<title>Node7</title>
<g id="a_Node000007"><a xlink:href="classmonopoly_1_1GameModel.html#aa5cb7ec7c6c8ba1f993594ed2d33f9dc" target="_top" xlink:title="Check if player has monopoly on property group.">
<polygon fill="white" stroke="#666666" points="291.5,-30 174.5,-30 174.5,0 291.5,0 291.5,-30"/>
<text text-anchor="start" x="182.5" y="-18" font-family="Helvetica,sans-Serif" font-size="10.00">monopoly::GameModel</text>
<text text-anchor="middle" x="233" y="-7" font-family="Helvetica,sans-Serif" font-size="10.00">::hasMonopoly</text>
</a>
</g>
</g>
<!-- Node1&#45;&gt;Node7 -->
<g id="edge6_Node000001_Node000007" class="edge">
<title>Node1&#45;&gt;Node7</title>
<g id="a_edge6_Node000001_Node000007"><a xlink:title=" ">
<path fill="none" stroke="#63b8ff" d="M75.15,-97.89C92.78,-81.58 122.93,-55.83 153,-40 157.23,-37.77 161.7,-35.7 166.26,-33.78"/>
<polygon fill="#63b8ff" stroke="#63b8ff" points="167.71,-36.97 175.74,-30.06 165.15,-30.46 167.71,-36.97"/>
</a>
</g>
</g>
</g>
</svg>
