<?xml version="1.0" encoding="UTF-8" standalone="no"?>
<!DOCTYPE svg PUBLIC "-//W3C//DTD SVG 1.1//EN"
 "http://www.w3.org/Graphics/SVG/1.1/DTD/svg11.dtd">
<!-- Generated by graphviz version 2.43.0 (0)
 -->
<!-- Title: BoardSquareComponent Pages: 1 -->
<svg width="1236pt" height="1097pt"
 viewBox="0.00 0.00 1236.00 1097.00" xmlns="http://www.w3.org/2000/svg" xmlns:xlink="http://www.w3.org/1999/xlink">
<g id="graph0" class="graph" transform="scale(1 1) rotate(0) translate(4 1093)">
<title>BoardSquareComponent</title>
<!-- Node1 -->
<g id="Node000001" class="node">
<title>Node1</title>
<g id="a_Node000001"><a xlink:title=" ">
<polygon fill="#999999" stroke="transparent" points="709,-689 571,-689 571,-265 709,-265 709,-689"/>
<text text-anchor="start" x="586.5" y="-677" font-family="Helvetica,sans-Serif" font-size="10.00">BoardSquareComponent</text>
<text text-anchor="start" x="575" y="-662" font-family="Helvetica,sans-Serif" font-size="10.00">+</text>
<text text-anchor="start" x="586" y="-662" font-family="Helvetica,sans-Serif" font-size="10.00">TOKEN_SPACING</text>
<text text-anchor="start" x="575" y="-647" font-family="Helvetica,sans-Serif" font-size="10.00">+</text>
<text text-anchor="start" x="586" y="-647" font-family="Helvetica,sans-Serif" font-size="10.00">TOKEN_PADDING</text>
<text text-anchor="start" x="575.5" y="-632" font-family="Helvetica,sans-Serif" font-size="10.00">#</text>
<text text-anchor="start" x="586" y="-632" font-family="Helvetica,sans-Serif" font-size="10.00">square_id</text>
<text text-anchor="start" x="575.5" y="-617" font-family="Helvetica,sans-Serif" font-size="10.00">#</text>
<text text-anchor="start" x="586" y="-617" font-family="Helvetica,sans-Serif" font-size="10.00">background</text>
<text text-anchor="start" x="575.5" y="-602" font-family="Helvetica,sans-Serif" font-size="10.00">#</text>
<text text-anchor="start" x="586" y="-602" font-family="Helvetica,sans-Serif" font-size="10.00">name_text</text>
<text text-anchor="start" x="575.5" y="-587" font-family="Helvetica,sans-Serif" font-size="10.00">#</text>
<text text-anchor="start" x="586" y="-587" font-family="Helvetica,sans-Serif" font-size="10.00">lower_text</text>
<text text-anchor="start" x="575.5" y="-572" font-family="Helvetica,sans-Serif" font-size="10.00">#</text>
<text text-anchor="start" x="586" y="-572" font-family="Helvetica,sans-Serif" font-size="10.00">board_side</text>
<text text-anchor="start" x="575.5" y="-557" font-family="Helvetica,sans-Serif" font-size="10.00">#</text>
<text text-anchor="start" x="586" y="-557" font-family="Helvetica,sans-Serif" font-size="10.00">background_color</text>
<text text-anchor="start" x="575.5" y="-542" font-family="Helvetica,sans-Serif" font-size="10.00">#</text>
<text text-anchor="start" x="586" y="-542" font-family="Helvetica,sans-Serif" font-size="10.00">font</text>
<text text-anchor="start" x="575.5" y="-527" font-family="Helvetica,sans-Serif" font-size="10.00">#</text>
<text text-anchor="start" x="586" y="-527" font-family="Helvetica,sans-Serif" font-size="10.00">name</text>
<text text-anchor="start" x="575.5" y="-512" font-family="Helvetica,sans-Serif" font-size="10.00">#</text>
<text text-anchor="start" x="586" y="-512" font-family="Helvetica,sans-Serif" font-size="10.00">player_tokens</text>
<text text-anchor="start" x="575" y="-497" font-family="Helvetica,sans-Serif" font-size="10.00">+</text>
<text text-anchor="start" x="586" y="-497" font-family="Helvetica,sans-Serif" font-size="10.00">BoardSquareComponent()</text>
<text text-anchor="start" x="575" y="-482" font-family="Helvetica,sans-Serif" font-size="10.00">+</text>
<text text-anchor="start" x="586" y="-482" font-family="Helvetica,sans-Serif" font-size="10.00">~BoardSquareComponent()</text>
<text text-anchor="start" x="575" y="-467" font-family="Helvetica,sans-Serif" font-size="10.00">+</text>
<text text-anchor="start" x="586" y="-467" font-family="Helvetica,sans-Serif" font-size="10.00">draw()</text>
<text text-anchor="start" x="575" y="-452" font-family="Helvetica,sans-Serif" font-size="10.00">+</text>
<text text-anchor="start" x="586" y="-452" font-family="Helvetica,sans-Serif" font-size="10.00">drawPlayers()</text>
<text text-anchor="start" x="575" y="-437" font-family="Helvetica,sans-Serif" font-size="10.00">+</text>
<text text-anchor="start" x="586" y="-437" font-family="Helvetica,sans-Serif" font-size="10.00">handleEvent()</text>
<text text-anchor="start" x="575" y="-422" font-family="Helvetica,sans-Serif" font-size="10.00">+</text>
<text text-anchor="start" x="586" y="-422" font-family="Helvetica,sans-Serif" font-size="10.00">setTexts()</text>
<text text-anchor="start" x="575" y="-407" font-family="Helvetica,sans-Serif" font-size="10.00">+</text>
<text text-anchor="start" x="586" y="-407" font-family="Helvetica,sans-Serif" font-size="10.00">addPlayer()</text>
<text text-anchor="start" x="575" y="-392" font-family="Helvetica,sans-Serif" font-size="10.00">+</text>
<text text-anchor="start" x="586" y="-392" font-family="Helvetica,sans-Serif" font-size="10.00">removePlayer()</text>
<text text-anchor="start" x="575" y="-377" font-family="Helvetica,sans-Serif" font-size="10.00">+</text>
<text text-anchor="start" x="586" y="-377" font-family="Helvetica,sans-Serif" font-size="10.00">clearPlayers()</text>
<text text-anchor="start" x="575" y="-362" font-family="Helvetica,sans-Serif" font-size="10.00">+</text>
<text text-anchor="start" x="586" y="-362" font-family="Helvetica,sans-Serif" font-size="10.00">repositionTokens()</text>
<text text-anchor="start" x="586" y="-347" font-family="Helvetica,sans-Serif" font-size="10.00">and 9 more...</text>
<text text-anchor="start" x="575.5" y="-332" font-family="Helvetica,sans-Serif" font-size="10.00">#</text>
<text text-anchor="start" x="586" y="-332" font-family="Helvetica,sans-Serif" font-size="10.00">isCornerSquare()</text>
<text text-anchor="start" x="575.5" y="-317" font-family="Helvetica,sans-Serif" font-size="10.00">#</text>
<text text-anchor="start" x="586" y="-317" font-family="Helvetica,sans-Serif" font-size="10.00">setupSize()</text>
<text text-anchor="start" x="575.5" y="-302" font-family="Helvetica,sans-Serif" font-size="10.00">#</text>
<text text-anchor="start" x="586" y="-302" font-family="Helvetica,sans-Serif" font-size="10.00">setBackground()</text>
<text text-anchor="start" x="575.5" y="-287" font-family="Helvetica,sans-Serif" font-size="10.00">#</text>
<text text-anchor="start" x="586" y="-287" font-family="Helvetica,sans-Serif" font-size="10.00">initText()</text>
<text text-anchor="start" x="575.5" y="-272" font-family="Helvetica,sans-Serif" font-size="10.00">#</text>
<text text-anchor="start" x="586" y="-272" font-family="Helvetica,sans-Serif" font-size="10.00">setTextRotation()</text>
<polygon fill="#666666" stroke="#666666" points="571,-672 571,-672 709,-672 709,-672 571,-672"/>
<polygon fill="#666666" stroke="#666666" points="571,-507 571,-507 584,-507 584,-507 571,-507"/>
<polygon fill="#666666" stroke="#666666" points="584,-507 584,-507 709,-507 709,-507 584,-507"/>
<polygon fill="none" stroke="#666666" points="571,-265 571,-689 709,-689 709,-265 571,-265"/>
</a>
</g>
</g>
<!-- Node3 -->
<g id="Node000003" class="node">
<title>Node3</title>
<g id="a_Node000003"><a xlink:href="classChanceSquare.html" target="_top" xlink:title=" ">
<polygon fill="white" stroke="transparent" points="90,-169 0,-169 0,-60 90,-60 90,-169"/>
<text text-anchor="start" x="12.5" y="-156.5" font-family="Helvetica,sans-Serif" font-size="10.00">ChanceSquare</text>
<text text-anchor="start" x="5.5" y="-141.5" font-family="Helvetica,sans-Serif" font-size="10.00">&#45;</text>
<text text-anchor="start" x="15" y="-141.5" font-family="Helvetica,sans-Serif" font-size="10.00">qmark_color</text>
<text text-anchor="start" x="4" y="-126.5" font-family="Helvetica,sans-Serif" font-size="10.00">+</text>
<text text-anchor="start" x="15" y="-126.5" font-family="Helvetica,sans-Serif" font-size="10.00">ChanceSquare()</text>
<text text-anchor="start" x="4" y="-111.5" font-family="Helvetica,sans-Serif" font-size="10.00">+</text>
<text text-anchor="start" x="15" y="-111.5" font-family="Helvetica,sans-Serif" font-size="10.00">draw()</text>
<text text-anchor="start" x="4" y="-96.5" font-family="Helvetica,sans-Serif" font-size="10.00">+</text>
<text text-anchor="start" x="15" y="-96.5" font-family="Helvetica,sans-Serif" font-size="10.00">handleEvent()</text>
<text text-anchor="start" x="4" y="-81.5" font-family="Helvetica,sans-Serif" font-size="10.00">+</text>
<text text-anchor="start" x="15" y="-81.5" font-family="Helvetica,sans-Serif" font-size="10.00">updateView()</text>
<text text-anchor="start" x="5.5" y="-66.5" font-family="Helvetica,sans-Serif" font-size="10.00">&#45;</text>
<text text-anchor="start" x="15" y="-66.5" font-family="Helvetica,sans-Serif" font-size="10.00">setTexts()</text>
<polygon fill="#666666" stroke="#666666" points="0,-151.5 0,-151.5 90,-151.5 90,-151.5 0,-151.5"/>
<polygon fill="#666666" stroke="#666666" points="0,-136.5 0,-136.5 13,-136.5 13,-136.5 0,-136.5"/>
<polygon fill="#666666" stroke="#666666" points="13,-136.5 13,-136.5 90,-136.5 90,-136.5 13,-136.5"/>
<polygon fill="none" stroke="#666666" points="0,-60 0,-169 90,-169 90,-60 0,-60"/>
</a>
</g>
</g>
<!-- Node1&#45;&gt;Node3 -->
<g id="edge2_Node000001_Node000003" class="edge">
<title>Node1&#45;&gt;Node3</title>
<g id="a_edge2_Node000001_Node000003"><a xlink:title=" ">
<path fill="none" stroke="#63b8ff" d="M560.76,-458.21C445.69,-428.71 231.63,-359.55 99,-229 82.28,-212.54 70.08,-189.89 61.55,-169.15"/>
<polygon fill="none" stroke="#63b8ff" points="560.01,-461.63 570.57,-460.69 561.73,-454.84 560.01,-461.63"/>
</a>
</g>
</g>
<!-- Node4 -->
<g id="Node000004" class="node">
<title>Node4</title>
<g id="a_Node000004"><a xlink:href="classCommunityChestSquare.html" target="_top" xlink:title=" ">
<polygon fill="white" stroke="transparent" points="241.5,-169 108.5,-169 108.5,-60 241.5,-60 241.5,-169"/>
<text text-anchor="start" x="121.5" y="-156.5" font-family="Helvetica,sans-Serif" font-size="10.00">CommunityChestSquare</text>
<text text-anchor="start" x="173.5" y="-141.5" font-family="Helvetica,sans-Serif" font-size="10.00"> </text>
<text text-anchor="start" x="113" y="-126.5" font-family="Helvetica,sans-Serif" font-size="10.00">+</text>
<text text-anchor="start" x="124" y="-126.5" font-family="Helvetica,sans-Serif" font-size="10.00">CommunityChestSquare()</text>
<text text-anchor="start" x="113" y="-111.5" font-family="Helvetica,sans-Serif" font-size="10.00">+</text>
<text text-anchor="start" x="124" y="-111.5" font-family="Helvetica,sans-Serif" font-size="10.00">draw()</text>
<text text-anchor="start" x="113" y="-96.5" font-family="Helvetica,sans-Serif" font-size="10.00">+</text>
<text text-anchor="start" x="124" y="-96.5" font-family="Helvetica,sans-Serif" font-size="10.00">handleEvent()</text>
<text text-anchor="start" x="113" y="-81.5" font-family="Helvetica,sans-Serif" font-size="10.00">+</text>
<text text-anchor="start" x="124" y="-81.5" font-family="Helvetica,sans-Serif" font-size="10.00">updateView()</text>
<text text-anchor="start" x="114.5" y="-66.5" font-family="Helvetica,sans-Serif" font-size="10.00">&#45;</text>
<text text-anchor="start" x="124" y="-66.5" font-family="Helvetica,sans-Serif" font-size="10.00">setTexts()</text>
<polygon fill="#666666" stroke="#666666" points="109,-151.5 109,-151.5 242,-151.5 242,-151.5 109,-151.5"/>
<polygon fill="#666666" stroke="#666666" points="109,-136.5 109,-136.5 242,-136.5 242,-136.5 109,-136.5"/>
<polygon fill="none" stroke="#666666" points="108.5,-60 108.5,-169 241.5,-169 241.5,-60 108.5,-60"/>
</a>
</g>
</g>
<!-- Node1&#45;&gt;Node4 -->
<g id="edge3_Node000001_Node000004" class="edge">
<title>Node1&#45;&gt;Node4</title>
<g id="a_edge3_Node000001_Node000004"><a xlink:title=" ">
<path fill="none" stroke="#63b8ff" d="M561.86,-439.09C477.93,-396.76 343.99,-321.19 250,-229 232.3,-211.63 216.5,-189.42 204.02,-169.26"/>
<polygon fill="none" stroke="#63b8ff" points="560.32,-442.24 570.83,-443.59 563.46,-435.98 560.32,-442.24"/>
</a>
</g>
</g>
<!-- Node5 -->
<g id="Node000005" class="node">
<title>Node5</title>
<g id="a_Node000005"><a xlink:href="classCornerSquare.html" target="_top" xlink:title=" ">
<polygon fill="white" stroke="transparent" points="330.5,-139 259.5,-139 259.5,-90 330.5,-90 330.5,-139"/>
<text text-anchor="start" x="265" y="-126.5" font-family="Helvetica,sans-Serif" font-size="10.00">CornerSquare</text>
<text text-anchor="start" x="293.5" y="-111.5" font-family="Helvetica,sans-Serif" font-size="10.00"> </text>
<text text-anchor="start" x="293.5" y="-96.5" font-family="Helvetica,sans-Serif" font-size="10.00"> </text>
<polygon fill="#666666" stroke="#666666" points="260,-121.5 260,-121.5 331,-121.5 331,-121.5 260,-121.5"/>
<polygon fill="#666666" stroke="#666666" points="260,-106.5 260,-106.5 331,-106.5 331,-106.5 260,-106.5"/>
<polygon fill="none" stroke="#666666" points="259.5,-90 259.5,-139 330.5,-139 330.5,-90 259.5,-90"/>
</a>
</g>
</g>
<!-- Node1&#45;&gt;Node5 -->
<g id="edge4_Node000001_Node000005" class="edge">
<title>Node1&#45;&gt;Node5</title>
<g id="a_edge4_Node000001_Node000005"><a xlink:title=" ">
<path fill="none" stroke="#63b8ff" d="M562.43,-428.87C495.27,-384.6 399.64,-312.75 339,-229 319.04,-201.44 306.79,-163.65 300.44,-139.4"/>
<polygon fill="none" stroke="#63b8ff" points="560.61,-431.85 570.89,-434.4 564.44,-425.99 560.61,-431.85"/>
</a>
</g>
</g>
<!-- Node6 -->
<g id="Node000006" class="node">
<title>Node6</title>
<g id="a_Node000006"><a xlink:href="classFreeParkingSquare.html" target="_top" xlink:title=" ">
<polygon fill="white" stroke="transparent" points="457.5,-176.5 348.5,-176.5 348.5,-52.5 457.5,-52.5 457.5,-176.5"/>
<text text-anchor="start" x="361.5" y="-164.5" font-family="Helvetica,sans-Serif" font-size="10.00">FreeParkingSquare</text>
<text text-anchor="start" x="354.5" y="-149.5" font-family="Helvetica,sans-Serif" font-size="10.00">&#45;</text>
<text text-anchor="start" x="364" y="-149.5" font-family="Helvetica,sans-Serif" font-size="10.00">FREE_text</text>
<text text-anchor="start" x="354.5" y="-134.5" font-family="Helvetica,sans-Serif" font-size="10.00">&#45;</text>
<text text-anchor="start" x="364" y="-134.5" font-family="Helvetica,sans-Serif" font-size="10.00">PARKING_text</text>
<text text-anchor="start" x="353" y="-119.5" font-family="Helvetica,sans-Serif" font-size="10.00">+</text>
<text text-anchor="start" x="364" y="-119.5" font-family="Helvetica,sans-Serif" font-size="10.00">FreeParkingSquare()</text>
<text text-anchor="start" x="353" y="-104.5" font-family="Helvetica,sans-Serif" font-size="10.00">+</text>
<text text-anchor="start" x="364" y="-104.5" font-family="Helvetica,sans-Serif" font-size="10.00">draw()</text>
<text text-anchor="start" x="353" y="-89.5" font-family="Helvetica,sans-Serif" font-size="10.00">+</text>
<text text-anchor="start" x="364" y="-89.5" font-family="Helvetica,sans-Serif" font-size="10.00">handleEvent()</text>
<text text-anchor="start" x="353" y="-74.5" font-family="Helvetica,sans-Serif" font-size="10.00">+</text>
<text text-anchor="start" x="364" y="-74.5" font-family="Helvetica,sans-Serif" font-size="10.00">updateView()</text>
<text text-anchor="start" x="354.5" y="-59.5" font-family="Helvetica,sans-Serif" font-size="10.00">&#45;</text>
<text text-anchor="start" x="364" y="-59.5" font-family="Helvetica,sans-Serif" font-size="10.00">setTexts()</text>
<polygon fill="#666666" stroke="#666666" points="349,-159.5 349,-159.5 458,-159.5 458,-159.5 349,-159.5"/>
<polygon fill="#666666" stroke="#666666" points="349,-129.5 349,-129.5 362,-129.5 362,-129.5 349,-129.5"/>
<polygon fill="#666666" stroke="#666666" points="362,-129.5 362,-129.5 458,-129.5 458,-129.5 362,-129.5"/>
<polygon fill="none" stroke="#666666" points="348.5,-52.5 348.5,-176.5 457.5,-176.5 457.5,-52.5 348.5,-52.5"/>
</a>
</g>
</g>
<!-- Node1&#45;&gt;Node6 -->
<g id="edge5_Node000001_Node000006" class="edge">
<title>Node1&#45;&gt;Node6</title>
<g id="a_edge5_Node000001_Node000006"><a xlink:title=" ">
<path fill="none" stroke="#63b8ff" d="M565.01,-374.77C533.35,-330.72 496.77,-278.05 466,-229 455.52,-212.29 444.85,-193.75 435.33,-176.57"/>
<polygon fill="none" stroke="#63b8ff" points="562.18,-376.83 570.87,-382.89 567.86,-372.73 562.18,-376.83"/>
</a>
</g>
</g>
<!-- Node7 -->
<g id="Node000007" class="node">
<title>Node7</title>
<g id="a_Node000007"><a xlink:href="classGoSquare.html" target="_top" xlink:title=" ">
<polygon fill="white" stroke="transparent" points="574.5,-191.5 475.5,-191.5 475.5,-37.5 574.5,-37.5 574.5,-191.5"/>
<text text-anchor="start" x="503.5" y="-179.5" font-family="Helvetica,sans-Serif" font-size="10.00">GoSquare</text>
<text text-anchor="start" x="481.5" y="-164.5" font-family="Helvetica,sans-Serif" font-size="10.00">&#45;</text>
<text text-anchor="start" x="491" y="-164.5" font-family="Helvetica,sans-Serif" font-size="10.00">GO_text</text>
<text text-anchor="start" x="481.5" y="-149.5" font-family="Helvetica,sans-Serif" font-size="10.00">&#45;</text>
<text text-anchor="start" x="491" y="-149.5" font-family="Helvetica,sans-Serif" font-size="10.00">collect_text</text>
<text text-anchor="start" x="481.5" y="-134.5" font-family="Helvetica,sans-Serif" font-size="10.00">&#45;</text>
<text text-anchor="start" x="491" y="-134.5" font-family="Helvetica,sans-Serif" font-size="10.00">salary_text</text>
<text text-anchor="start" x="481.5" y="-119.5" font-family="Helvetica,sans-Serif" font-size="10.00">&#45;</text>
<text text-anchor="start" x="491" y="-119.5" font-family="Helvetica,sans-Serif" font-size="10.00">as_you_pass_text</text>
<text text-anchor="start" x="480" y="-104.5" font-family="Helvetica,sans-Serif" font-size="10.00">+</text>
<text text-anchor="start" x="491" y="-104.5" font-family="Helvetica,sans-Serif" font-size="10.00">GoSquare()</text>
<text text-anchor="start" x="480" y="-89.5" font-family="Helvetica,sans-Serif" font-size="10.00">+</text>
<text text-anchor="start" x="491" y="-89.5" font-family="Helvetica,sans-Serif" font-size="10.00">draw()</text>
<text text-anchor="start" x="480" y="-74.5" font-family="Helvetica,sans-Serif" font-size="10.00">+</text>
<text text-anchor="start" x="491" y="-74.5" font-family="Helvetica,sans-Serif" font-size="10.00">handleEvent()</text>
<text text-anchor="start" x="480" y="-59.5" font-family="Helvetica,sans-Serif" font-size="10.00">+</text>
<text text-anchor="start" x="491" y="-59.5" font-family="Helvetica,sans-Serif" font-size="10.00">updateView()</text>
<text text-anchor="start" x="481.5" y="-44.5" font-family="Helvetica,sans-Serif" font-size="10.00">&#45;</text>
<text text-anchor="start" x="491" y="-44.5" font-family="Helvetica,sans-Serif" font-size="10.00">setTexts()</text>
<polygon fill="#666666" stroke="#666666" points="476,-174.5 476,-174.5 575,-174.5 575,-174.5 476,-174.5"/>
<polygon fill="#666666" stroke="#666666" points="476,-114.5 476,-114.5 489,-114.5 489,-114.5 476,-114.5"/>
<polygon fill="#666666" stroke="#666666" points="489,-114.5 489,-114.5 575,-114.5 575,-114.5 489,-114.5"/>
<polygon fill="none" stroke="#666666" points="475.5,-37.5 475.5,-191.5 574.5,-191.5 574.5,-37.5 475.5,-37.5"/>
</a>
</g>
</g>
<!-- Node1&#45;&gt;Node7 -->
<g id="edge6_Node000001_Node000007" class="edge">
<title>Node1&#45;&gt;Node7</title>
<g id="a_edge6_Node000001_Node000007"><a xlink:title=" ">
<path fill="none" stroke="#63b8ff" d="M569.59,-255.29C562.4,-232.75 555.5,-211.11 549.36,-191.87"/>
<polygon fill="none" stroke="#63b8ff" points="566.31,-256.53 572.69,-264.99 572.98,-254.4 566.31,-256.53"/>
</a>
</g>
</g>
<!-- Node8 -->
<g id="Node000008" class="node">
<title>Node8</title>
<g id="a_Node000008"><a xlink:href="classGoToJailSquare.html" target="_top" xlink:title=" ">
<polygon fill="white" stroke="transparent" points="687.5,-176.5 592.5,-176.5 592.5,-52.5 687.5,-52.5 687.5,-176.5"/>
<text text-anchor="start" x="605.5" y="-164.5" font-family="Helvetica,sans-Serif" font-size="10.00">GoToJailSquare</text>
<text text-anchor="start" x="598.5" y="-149.5" font-family="Helvetica,sans-Serif" font-size="10.00">&#45;</text>
<text text-anchor="start" x="608" y="-149.5" font-family="Helvetica,sans-Serif" font-size="10.00">GO_TO_text</text>
<text text-anchor="start" x="598.5" y="-134.5" font-family="Helvetica,sans-Serif" font-size="10.00">&#45;</text>
<text text-anchor="start" x="608" y="-134.5" font-family="Helvetica,sans-Serif" font-size="10.00">JAIL_text</text>
<text text-anchor="start" x="597" y="-119.5" font-family="Helvetica,sans-Serif" font-size="10.00">+</text>
<text text-anchor="start" x="608" y="-119.5" font-family="Helvetica,sans-Serif" font-size="10.00">GoToJailSquare()</text>
<text text-anchor="start" x="597" y="-104.5" font-family="Helvetica,sans-Serif" font-size="10.00">+</text>
<text text-anchor="start" x="608" y="-104.5" font-family="Helvetica,sans-Serif" font-size="10.00">draw()</text>
<text text-anchor="start" x="597" y="-89.5" font-family="Helvetica,sans-Serif" font-size="10.00">+</text>
<text text-anchor="start" x="608" y="-89.5" font-family="Helvetica,sans-Serif" font-size="10.00">handleEvent()</text>
<text text-anchor="start" x="597" y="-74.5" font-family="Helvetica,sans-Serif" font-size="10.00">+</text>
<text text-anchor="start" x="608" y="-74.5" font-family="Helvetica,sans-Serif" font-size="10.00">updateView()</text>
<text text-anchor="start" x="598.5" y="-59.5" font-family="Helvetica,sans-Serif" font-size="10.00">&#45;</text>
<text text-anchor="start" x="608" y="-59.5" font-family="Helvetica,sans-Serif" font-size="10.00">setTexts()</text>
<polygon fill="#666666" stroke="#666666" points="593,-159.5 593,-159.5 688,-159.5 688,-159.5 593,-159.5"/>
<polygon fill="#666666" stroke="#666666" points="593,-129.5 593,-129.5 606,-129.5 606,-129.5 593,-129.5"/>
<polygon fill="#666666" stroke="#666666" points="606,-129.5 606,-129.5 688,-129.5 688,-129.5 606,-129.5"/>
<polygon fill="none" stroke="#666666" points="592.5,-52.5 592.5,-176.5 687.5,-176.5 687.5,-52.5 592.5,-52.5"/>
</a>
</g>
</g>
<!-- Node1&#45;&gt;Node8 -->
<g id="edge7_Node000001_Node000008" class="edge">
<title>Node1&#45;&gt;Node8</title>
<g id="a_edge7_Node000001_Node000008"><a xlink:title=" ">
<path fill="none" stroke="#63b8ff" d="M640,-254.87C640,-226.39 640,-199.36 640,-176.81"/>
<polygon fill="none" stroke="#63b8ff" points="636.5,-254.99 640,-264.99 643.5,-254.99 636.5,-254.99"/>
</a>
</g>
</g>
<!-- Node9 -->
<g id="Node000009" class="node">
<title>Node9</title>
<g id="a_Node000009"><a xlink:href="classIncomeTaxSquare.html" target="_top" xlink:title=" ">
<polygon fill="white" stroke="transparent" points="810,-169 706,-169 706,-60 810,-60 810,-169"/>
<text text-anchor="start" x="718.5" y="-156.5" font-family="Helvetica,sans-Serif" font-size="10.00">IncomeTaxSquare</text>
<text text-anchor="start" x="756" y="-141.5" font-family="Helvetica,sans-Serif" font-size="10.00"> </text>
<text text-anchor="start" x="710" y="-126.5" font-family="Helvetica,sans-Serif" font-size="10.00">+</text>
<text text-anchor="start" x="721" y="-126.5" font-family="Helvetica,sans-Serif" font-size="10.00">IncomeTaxSquare()</text>
<text text-anchor="start" x="710" y="-111.5" font-family="Helvetica,sans-Serif" font-size="10.00">+</text>
<text text-anchor="start" x="721" y="-111.5" font-family="Helvetica,sans-Serif" font-size="10.00">draw()</text>
<text text-anchor="start" x="710" y="-96.5" font-family="Helvetica,sans-Serif" font-size="10.00">+</text>
<text text-anchor="start" x="721" y="-96.5" font-family="Helvetica,sans-Serif" font-size="10.00">handleEvent()</text>
<text text-anchor="start" x="710" y="-81.5" font-family="Helvetica,sans-Serif" font-size="10.00">+</text>
<text text-anchor="start" x="721" y="-81.5" font-family="Helvetica,sans-Serif" font-size="10.00">updateView()</text>
<text text-anchor="start" x="711.5" y="-66.5" font-family="Helvetica,sans-Serif" font-size="10.00">&#45;</text>
<text text-anchor="start" x="721" y="-66.5" font-family="Helvetica,sans-Serif" font-size="10.00">setTexts()</text>
<polygon fill="#666666" stroke="#666666" points="706,-151.5 706,-151.5 810,-151.5 810,-151.5 706,-151.5"/>
<polygon fill="#666666" stroke="#666666" points="706,-136.5 706,-136.5 810,-136.5 810,-136.5 706,-136.5"/>
<polygon fill="none" stroke="#666666" points="706,-60 706,-169 810,-169 810,-60 706,-60"/>
</a>
</g>
</g>
<!-- Node1&#45;&gt;Node9 -->
<g id="edge8_Node000001_Node000009" class="edge">
<title>Node1&#45;&gt;Node9</title>
<g id="a_edge8_Node000001_Node000009"><a xlink:title=" ">
<path fill="none" stroke="#63b8ff" d="M712.19,-255.46C722.68,-223.41 732.58,-193.16 740.48,-169.04"/>
<polygon fill="none" stroke="#63b8ff" points="708.85,-254.4 709.07,-264.99 715.51,-256.58 708.85,-254.4"/>
</a>
</g>
</g>
<!-- Node10 -->
<g id="Node000010" class="node">
<title>Node10</title>
<g id="a_Node000010"><a xlink:href="classJailSquare.html" target="_top" xlink:title=" ">
<polygon fill="white" stroke="transparent" points="913.5,-176.5 828.5,-176.5 828.5,-52.5 913.5,-52.5 913.5,-176.5"/>
<text text-anchor="start" x="848.5" y="-164.5" font-family="Helvetica,sans-Serif" font-size="10.00">JailSquare</text>
<text text-anchor="start" x="834.5" y="-149.5" font-family="Helvetica,sans-Serif" font-size="10.00">&#45;</text>
<text text-anchor="start" x="844" y="-149.5" font-family="Helvetica,sans-Serif" font-size="10.00">JUST_text</text>
<text text-anchor="start" x="834.5" y="-134.5" font-family="Helvetica,sans-Serif" font-size="10.00">&#45;</text>
<text text-anchor="start" x="844" y="-134.5" font-family="Helvetica,sans-Serif" font-size="10.00">VISITING_text</text>
<text text-anchor="start" x="833" y="-119.5" font-family="Helvetica,sans-Serif" font-size="10.00">+</text>
<text text-anchor="start" x="844" y="-119.5" font-family="Helvetica,sans-Serif" font-size="10.00">JailSquare()</text>
<text text-anchor="start" x="833" y="-104.5" font-family="Helvetica,sans-Serif" font-size="10.00">+</text>
<text text-anchor="start" x="844" y="-104.5" font-family="Helvetica,sans-Serif" font-size="10.00">draw()</text>
<text text-anchor="start" x="833" y="-89.5" font-family="Helvetica,sans-Serif" font-size="10.00">+</text>
<text text-anchor="start" x="844" y="-89.5" font-family="Helvetica,sans-Serif" font-size="10.00">handleEvent()</text>
<text text-anchor="start" x="833" y="-74.5" font-family="Helvetica,sans-Serif" font-size="10.00">+</text>
<text text-anchor="start" x="844" y="-74.5" font-family="Helvetica,sans-Serif" font-size="10.00">updateView()</text>
<text text-anchor="start" x="834.5" y="-59.5" font-family="Helvetica,sans-Serif" font-size="10.00">&#45;</text>
<text text-anchor="start" x="844" y="-59.5" font-family="Helvetica,sans-Serif" font-size="10.00">setTexts()</text>
<polygon fill="#666666" stroke="#666666" points="829,-159.5 829,-159.5 914,-159.5 914,-159.5 829,-159.5"/>
<polygon fill="#666666" stroke="#666666" points="829,-129.5 829,-129.5 842,-129.5 842,-129.5 829,-129.5"/>
<polygon fill="#666666" stroke="#666666" points="842,-129.5 842,-129.5 914,-129.5 914,-129.5 842,-129.5"/>
<polygon fill="none" stroke="#666666" points="828.5,-52.5 828.5,-176.5 913.5,-176.5 913.5,-52.5 828.5,-52.5"/>
</a>
</g>
</g>
<!-- Node1&#45;&gt;Node10 -->
<g id="edge9_Node000001_Node000010" class="edge">
<title>Node1&#45;&gt;Node10</title>
<g id="a_edge9_Node000001_Node000010"><a xlink:title=" ">
<path fill="none" stroke="#63b8ff" d="M715.07,-381.72C749,-336.87 788.27,-281.64 819,-229 828.62,-212.53 837.76,-193.97 845.63,-176.7"/>
<polygon fill="none" stroke="#63b8ff" points="712.28,-379.61 709.02,-389.69 717.85,-383.84 712.28,-379.61"/>
</a>
</g>
</g>
<!-- Node11 -->
<g id="Node000011" class="node">
<title>Node11</title>
<g id="a_Node000011"><a xlink:href="classRailroadSquare.html" target="_top" xlink:title=" ">
<polygon fill="white" stroke="transparent" points="1024,-169 932,-169 932,-60 1024,-60 1024,-169"/>
<text text-anchor="start" x="944.5" y="-156.5" font-family="Helvetica,sans-Serif" font-size="10.00">RailroadSquare</text>
<text text-anchor="start" x="976" y="-141.5" font-family="Helvetica,sans-Serif" font-size="10.00"> </text>
<text text-anchor="start" x="936" y="-126.5" font-family="Helvetica,sans-Serif" font-size="10.00">+</text>
<text text-anchor="start" x="947" y="-126.5" font-family="Helvetica,sans-Serif" font-size="10.00">RailroadSquare()</text>
<text text-anchor="start" x="936" y="-111.5" font-family="Helvetica,sans-Serif" font-size="10.00">+</text>
<text text-anchor="start" x="947" y="-111.5" font-family="Helvetica,sans-Serif" font-size="10.00">draw()</text>
<text text-anchor="start" x="936" y="-96.5" font-family="Helvetica,sans-Serif" font-size="10.00">+</text>
<text text-anchor="start" x="947" y="-96.5" font-family="Helvetica,sans-Serif" font-size="10.00">handleEvent()</text>
<text text-anchor="start" x="936" y="-81.5" font-family="Helvetica,sans-Serif" font-size="10.00">+</text>
<text text-anchor="start" x="947" y="-81.5" font-family="Helvetica,sans-Serif" font-size="10.00">updateView()</text>
<text text-anchor="start" x="937.5" y="-66.5" font-family="Helvetica,sans-Serif" font-size="10.00">&#45;</text>
<text text-anchor="start" x="947" y="-66.5" font-family="Helvetica,sans-Serif" font-size="10.00">setTexts()</text>
<polygon fill="#666666" stroke="#666666" points="932,-151.5 932,-151.5 1024,-151.5 1024,-151.5 932,-151.5"/>
<polygon fill="#666666" stroke="#666666" points="932,-136.5 932,-136.5 1024,-136.5 1024,-136.5 932,-136.5"/>
<polygon fill="none" stroke="#666666" points="932,-60 932,-169 1024,-169 1024,-60 932,-60"/>
</a>
</g>
</g>
<!-- Node1&#45;&gt;Node11 -->
<g id="edge10_Node000001_Node000011" class="edge">
<title>Node1&#45;&gt;Node11</title>
<g id="a_edge10_Node000001_Node000011"><a xlink:title=" ">
<path fill="none" stroke="#63b8ff" d="M717.2,-422.26C778.87,-376.37 864.38,-305.76 923,-229 936.76,-210.99 948.38,-188.99 957.34,-169.17"/>
<polygon fill="none" stroke="#63b8ff" points="715.01,-419.53 709.04,-428.29 719.17,-425.16 715.01,-419.53"/>
</a>
</g>
</g>
<!-- Node12 -->
<g id="Node000012" class="node">
<title>Node12</title>
<g id="a_Node000012"><a xlink:href="classStreetSquare.html" target="_top" xlink:title=" ">
<polygon fill="white" stroke="transparent" points="1127.5,-229 1042.5,-229 1042.5,0 1127.5,0 1127.5,-229"/>
<text text-anchor="start" x="1056.5" y="-216.5" font-family="Helvetica,sans-Serif" font-size="10.00">StreetSquare</text>
<text text-anchor="start" x="1048.5" y="-201.5" font-family="Helvetica,sans-Serif" font-size="10.00">&#45;</text>
<text text-anchor="start" x="1058" y="-201.5" font-family="Helvetica,sans-Serif" font-size="10.00">color_band</text>
<text text-anchor="start" x="1048.5" y="-186.5" font-family="Helvetica,sans-Serif" font-size="10.00">&#45;</text>
<text text-anchor="start" x="1058" y="-186.5" font-family="Helvetica,sans-Serif" font-size="10.00">group_color</text>
<text text-anchor="start" x="1048.5" y="-171.5" font-family="Helvetica,sans-Serif" font-size="10.00">&#45;</text>
<text text-anchor="start" x="1058" y="-171.5" font-family="Helvetica,sans-Serif" font-size="10.00">owner_color</text>
<text text-anchor="start" x="1048.5" y="-156.5" font-family="Helvetica,sans-Serif" font-size="10.00">&#45;</text>
<text text-anchor="start" x="1058" y="-156.5" font-family="Helvetica,sans-Serif" font-size="10.00">house_shapes</text>
<text text-anchor="start" x="1048.5" y="-141.5" font-family="Helvetica,sans-Serif" font-size="10.00">&#45;</text>
<text text-anchor="start" x="1058" y="-141.5" font-family="Helvetica,sans-Serif" font-size="10.00">hotel_shape</text>
<text text-anchor="start" x="1048.5" y="-126.5" font-family="Helvetica,sans-Serif" font-size="10.00">&#45;</text>
<text text-anchor="start" x="1058" y="-126.5" font-family="Helvetica,sans-Serif" font-size="10.00">price</text>
<text text-anchor="start" x="1048.5" y="-111.5" font-family="Helvetica,sans-Serif" font-size="10.00">&#45;</text>
<text text-anchor="start" x="1058" y="-111.5" font-family="Helvetica,sans-Serif" font-size="10.00">num_houses</text>
<text text-anchor="start" x="1047" y="-96.5" font-family="Helvetica,sans-Serif" font-size="10.00">+</text>
<text text-anchor="start" x="1058" y="-96.5" font-family="Helvetica,sans-Serif" font-size="10.00">StreetSquare()</text>
<text text-anchor="start" x="1047" y="-81.5" font-family="Helvetica,sans-Serif" font-size="10.00">+</text>
<text text-anchor="start" x="1058" y="-81.5" font-family="Helvetica,sans-Serif" font-size="10.00">setHouses()</text>
<text text-anchor="start" x="1047" y="-66.5" font-family="Helvetica,sans-Serif" font-size="10.00">+</text>
<text text-anchor="start" x="1058" y="-66.5" font-family="Helvetica,sans-Serif" font-size="10.00">draw()</text>
<text text-anchor="start" x="1047" y="-51.5" font-family="Helvetica,sans-Serif" font-size="10.00">+</text>
<text text-anchor="start" x="1058" y="-51.5" font-family="Helvetica,sans-Serif" font-size="10.00">handleEvent()</text>
<text text-anchor="start" x="1047" y="-36.5" font-family="Helvetica,sans-Serif" font-size="10.00">+</text>
<text text-anchor="start" x="1058" y="-36.5" font-family="Helvetica,sans-Serif" font-size="10.00">updateView()</text>
<text text-anchor="start" x="1048.5" y="-21.5" font-family="Helvetica,sans-Serif" font-size="10.00">&#45;</text>
<text text-anchor="start" x="1058" y="-21.5" font-family="Helvetica,sans-Serif" font-size="10.00">setColorBand()</text>
<text text-anchor="start" x="1048.5" y="-6.5" font-family="Helvetica,sans-Serif" font-size="10.00">&#45;</text>
<text text-anchor="start" x="1058" y="-6.5" font-family="Helvetica,sans-Serif" font-size="10.00">setTexts()</text>
<polygon fill="#666666" stroke="#666666" points="1043,-211.5 1043,-211.5 1128,-211.5 1128,-211.5 1043,-211.5"/>
<polygon fill="#666666" stroke="#666666" points="1043,-106.5 1043,-106.5 1056,-106.5 1056,-106.5 1043,-106.5"/>
<polygon fill="#666666" stroke="#666666" points="1056,-106.5 1056,-106.5 1128,-106.5 1128,-106.5 1056,-106.5"/>
<polygon fill="none" stroke="#666666" points="1042.5,0 1042.5,-229 1127.5,-229 1127.5,0 1042.5,0"/>
</a>
</g>
</g>
<!-- Node1&#45;&gt;Node12 -->
<g id="edge11_Node000001_Node000012" class="edge">
<title>Node1&#45;&gt;Node12</title>
<g id="a_edge11_Node000001_Node000012"><a xlink:title=" ">
<path fill="none" stroke="#63b8ff" d="M718.57,-443.32C805.43,-403.77 944.72,-329.72 1033,-229 1036.29,-225.25 1039.4,-221.26 1042.35,-217.1"/>
<polygon fill="none" stroke="#63b8ff" points="716.96,-440.21 709.29,-447.51 719.84,-446.59 716.96,-440.21"/>
</a>
</g>
</g>
<!-- Node13 -->
<g id="Node000013" class="node">
<title>Node13</title>
<g id="a_Node000013"><a xlink:href="classUtilitySquare.html" target="_top" xlink:title=" ">
<polygon fill="white" stroke="transparent" points="1228,-169 1146,-169 1146,-60 1228,-60 1228,-169"/>
<text text-anchor="start" x="1158.5" y="-156.5" font-family="Helvetica,sans-Serif" font-size="10.00">UtilitySquare</text>
<text text-anchor="start" x="1185" y="-141.5" font-family="Helvetica,sans-Serif" font-size="10.00"> </text>
<text text-anchor="start" x="1150" y="-126.5" font-family="Helvetica,sans-Serif" font-size="10.00">+</text>
<text text-anchor="start" x="1161" y="-126.5" font-family="Helvetica,sans-Serif" font-size="10.00">UtilitySquare()</text>
<text text-anchor="start" x="1150" y="-111.5" font-family="Helvetica,sans-Serif" font-size="10.00">+</text>
<text text-anchor="start" x="1161" y="-111.5" font-family="Helvetica,sans-Serif" font-size="10.00">draw()</text>
<text text-anchor="start" x="1150" y="-96.5" font-family="Helvetica,sans-Serif" font-size="10.00">+</text>
<text text-anchor="start" x="1161" y="-96.5" font-family="Helvetica,sans-Serif" font-size="10.00">handleEvent()</text>
<text text-anchor="start" x="1150" y="-81.5" font-family="Helvetica,sans-Serif" font-size="10.00">+</text>
<text text-anchor="start" x="1161" y="-81.5" font-family="Helvetica,sans-Serif" font-size="10.00">updateView()</text>
<text text-anchor="start" x="1151.5" y="-66.5" font-family="Helvetica,sans-Serif" font-size="10.00">&#45;</text>
<text text-anchor="start" x="1161" y="-66.5" font-family="Helvetica,sans-Serif" font-size="10.00">setTexts()</text>
<polygon fill="#666666" stroke="#666666" points="1146,-151.5 1146,-151.5 1228,-151.5 1228,-151.5 1146,-151.5"/>
<polygon fill="#666666" stroke="#666666" points="1146,-136.5 1146,-136.5 1228,-136.5 1228,-136.5 1146,-136.5"/>
<polygon fill="none" stroke="#666666" points="1146,-60 1146,-169 1228,-169 1228,-60 1146,-60"/>
</a>
</g>
</g>
<!-- Node1&#45;&gt;Node13 -->
<g id="edge12_Node000001_Node000013" class="edge">
<title>Node1&#45;&gt;Node13</title>
<g id="a_edge12_Node000001_Node000013"><a xlink:title=" ">
<path fill="none" stroke="#63b8ff" d="M719.18,-455.18C826.78,-423.19 1019.25,-352.33 1137,-229 1152.91,-212.34 1164.26,-189.77 1172.07,-169.16"/>
<polygon fill="none" stroke="#63b8ff" points="717.96,-451.89 709.35,-458.06 719.93,-458.6 717.96,-451.89"/>
</a>
</g>
</g>
<!-- Node2 -->
<g id="Node000002" class="node">
<title>Node2</title>
<g id="a_Node000002"><a xlink:href="classSFComponent.html" target="_top" xlink:title=" ">
<polygon fill="white" stroke="transparent" points="699.5,-1089 580.5,-1089 580.5,-725 699.5,-725 699.5,-1089"/>
<text text-anchor="start" x="608.5" y="-1077" font-family="Helvetica,sans-Serif" font-size="10.00">SFComponent</text>
<text text-anchor="start" x="585.5" y="-1062" font-family="Helvetica,sans-Serif" font-size="10.00">#</text>
<text text-anchor="start" x="596" y="-1062" font-family="Helvetica,sans-Serif" font-size="10.00">position</text>
<text text-anchor="start" x="585.5" y="-1047" font-family="Helvetica,sans-Serif" font-size="10.00">#</text>
<text text-anchor="start" x="596" y="-1047" font-family="Helvetica,sans-Serif" font-size="10.00">size</text>
<text text-anchor="start" x="585.5" y="-1032" font-family="Helvetica,sans-Serif" font-size="10.00">#</text>
<text text-anchor="start" x="596" y="-1032" font-family="Helvetica,sans-Serif" font-size="10.00">isVisible</text>
<text text-anchor="start" x="585.5" y="-1017" font-family="Helvetica,sans-Serif" font-size="10.00">#</text>
<text text-anchor="start" x="596" y="-1017" font-family="Helvetica,sans-Serif" font-size="10.00">isEnabled</text>
<text text-anchor="start" x="585.5" y="-1002" font-family="Helvetica,sans-Serif" font-size="10.00">#</text>
<text text-anchor="start" x="596" y="-1002" font-family="Helvetica,sans-Serif" font-size="10.00">REGULAR_WIDTH</text>
<text text-anchor="start" x="585.5" y="-987" font-family="Helvetica,sans-Serif" font-size="10.00">#</text>
<text text-anchor="start" x="596" y="-987" font-family="Helvetica,sans-Serif" font-size="10.00">REGULAR_HEIGHT</text>
<text text-anchor="start" x="585.5" y="-972" font-family="Helvetica,sans-Serif" font-size="10.00">#</text>
<text text-anchor="start" x="596" y="-972" font-family="Helvetica,sans-Serif" font-size="10.00">CORNER_SIZE</text>
<text text-anchor="start" x="585.5" y="-957" font-family="Helvetica,sans-Serif" font-size="10.00">#</text>
<text text-anchor="start" x="596" y="-957" font-family="Helvetica,sans-Serif" font-size="10.00">TEXT_PADDING</text>
<text text-anchor="start" x="585" y="-942" font-family="Helvetica,sans-Serif" font-size="10.00">+</text>
<text text-anchor="start" x="596" y="-942" font-family="Helvetica,sans-Serif" font-size="10.00">SFComponent()</text>
<text text-anchor="start" x="585" y="-927" font-family="Helvetica,sans-Serif" font-size="10.00">+</text>
<text text-anchor="start" x="596" y="-927" font-family="Helvetica,sans-Serif" font-size="10.00">SFComponent()</text>
<text text-anchor="start" x="585" y="-912" font-family="Helvetica,sans-Serif" font-size="10.00">+</text>
<text text-anchor="start" x="596" y="-912" font-family="Helvetica,sans-Serif" font-size="10.00">~SFComponent()</text>
<text text-anchor="start" x="585" y="-897" font-family="Helvetica,sans-Serif" font-size="10.00">+</text>
<text text-anchor="start" x="596" y="-897" font-family="Helvetica,sans-Serif" font-size="10.00">draw()</text>
<text text-anchor="start" x="585" y="-882" font-family="Helvetica,sans-Serif" font-size="10.00">+</text>
<text text-anchor="start" x="596" y="-882" font-family="Helvetica,sans-Serif" font-size="10.00">handleEvent()</text>
<text text-anchor="start" x="585" y="-867" font-family="Helvetica,sans-Serif" font-size="10.00">+</text>
<text text-anchor="start" x="596" y="-867" font-family="Helvetica,sans-Serif" font-size="10.00">updateView()</text>
<text text-anchor="start" x="585" y="-852" font-family="Helvetica,sans-Serif" font-size="10.00">+</text>
<text text-anchor="start" x="596" y="-852" font-family="Helvetica,sans-Serif" font-size="10.00">setPosition()</text>
<text text-anchor="start" x="585" y="-837" font-family="Helvetica,sans-Serif" font-size="10.00">+</text>
<text text-anchor="start" x="596" y="-837" font-family="Helvetica,sans-Serif" font-size="10.00">setSize()</text>
<text text-anchor="start" x="585" y="-822" font-family="Helvetica,sans-Serif" font-size="10.00">+</text>
<text text-anchor="start" x="596" y="-822" font-family="Helvetica,sans-Serif" font-size="10.00">getPosition()</text>
<text text-anchor="start" x="585" y="-807" font-family="Helvetica,sans-Serif" font-size="10.00">+</text>
<text text-anchor="start" x="596" y="-807" font-family="Helvetica,sans-Serif" font-size="10.00">getSize()</text>
<text text-anchor="start" x="585" y="-792" font-family="Helvetica,sans-Serif" font-size="10.00">+</text>
<text text-anchor="start" x="596" y="-792" font-family="Helvetica,sans-Serif" font-size="10.00">contains()</text>
<text text-anchor="start" x="585" y="-777" font-family="Helvetica,sans-Serif" font-size="10.00">+</text>
<text text-anchor="start" x="596" y="-777" font-family="Helvetica,sans-Serif" font-size="10.00">setVisible()</text>
<text text-anchor="start" x="585" y="-762" font-family="Helvetica,sans-Serif" font-size="10.00">+</text>
<text text-anchor="start" x="596" y="-762" font-family="Helvetica,sans-Serif" font-size="10.00">setEnabled()</text>
<text text-anchor="start" x="585" y="-747" font-family="Helvetica,sans-Serif" font-size="10.00">+</text>
<text text-anchor="start" x="596" y="-747" font-family="Helvetica,sans-Serif" font-size="10.00">isComponentVisible()</text>
<text text-anchor="start" x="585" y="-732" font-family="Helvetica,sans-Serif" font-size="10.00">+</text>
<text text-anchor="start" x="596" y="-732" font-family="Helvetica,sans-Serif" font-size="10.00">isComponentEnabled()</text>
<polygon fill="#666666" stroke="#666666" points="581,-1072 581,-1072 700,-1072 700,-1072 581,-1072"/>
<polygon fill="#666666" stroke="#666666" points="581,-952 581,-952 594,-952 594,-952 581,-952"/>
<polygon fill="#666666" stroke="#666666" points="594,-952 594,-952 700,-952 700,-952 594,-952"/>
<polygon fill="none" stroke="#666666" points="580.5,-725 580.5,-1089 699.5,-1089 699.5,-725 580.5,-725"/>
</a>
</g>
</g>
<!-- Node2&#45;&gt;Node1 -->
<g id="edge1_Node000001_Node000002" class="edge">
<title>Node2&#45;&gt;Node1</title>
<g id="a_edge1_Node000001_Node000002"><a xlink:title=" ">
<path fill="none" stroke="#63b8ff" d="M640,-714.59C640,-706.19 640,-697.75 640,-689.32"/>
<polygon fill="none" stroke="#63b8ff" points="636.5,-714.8 640,-724.8 643.5,-714.8 636.5,-714.8"/>
</a>
</g>
</g>
</g>
</svg>
