<?xml version="1.0" encoding="UTF-8" standalone="no"?>
<!DOCTYPE svg PUBLIC "-//W3C//DTD SVG 1.1//EN"
 "http://www.w3.org/Graphics/SVG/1.1/DTD/svg11.dtd">
<!-- Generated by graphviz version 2.43.0 (0)
 -->
<!-- Title: monopoly::GameModel::getCurrentPlayer Pages: 1 -->
<!--zoomable 268 -->

<svg id="main" version="1.1" xmlns="http://www.w3.org/2000/svg" xmlns:xlink="http://www.w3.org/1999/xlink" xml:space="preserve" onload="init(evt)">
<style type="text/css"><![CDATA[
.node, .edge {opacity: 0.7;}
.node.selected, .edge.selected {opacity: 1;}
.edge:hover path { stroke: red; }
.edge:hover polygon { stroke: red; fill: red; }
]]></style>

<defs>
  <circle id="rim" cx="0" cy="0" r="7"/>
  <circle id="rim2" cx="0" cy="0" r="3.5"/>
  <g id="zoomPlus">
    <use xlink:href="#rim" fill="#404040"><set attributeName="fill" to="#808080" begin="zoomplus.mouseover" end="zoomplus.mouseout"/></use>
    <path d="M-4,0h8M0,-4v8" fill="none" stroke="white" stroke-width="1.5" pointer-events="none"/>
  </g>
  <g id="zoomMin">
    <use xlink:href="#rim" fill="#404040"><set attributeName="fill" to="#808080" begin="zoomminus.mouseover" end="zoomminus.mouseout"/></use>
    <path d="M-4,0h8" fill="none" stroke="white" stroke-width="1.5" pointer-events="none"/>
  </g>
  <g id="arrowUp" transform="translate(30 24)">
    <use xlink:href="#rim"/>
    <path pointer-events="none" fill="none" stroke="white" stroke-width="1.5" d="M0,-3.0v7 M-2.5,-0.5L0,-3.0L2.5,-0.5"/>
  </g>
  <g id="arrowRight" transform="rotate(90) translate(36 -43)">
    <use xlink:href="#rim"/>
    <path pointer-events="none" fill="none" stroke="white" stroke-width="1.5" d="M0,-3.0v7 M-2.5,-0.5L0,-3.0L2.5,-0.5"/>
  </g>
  <g id="arrowDown" transform="rotate(180) translate(-30 -48)">
    <use xlink:href="#rim"/>
    <path pointer-events="none" fill="none" stroke="white" stroke-width="1.5" d="M0,-3.0v7 M-2.5,-0.5L0,-3.0L2.5,-0.5"/>
  </g>
  <g id="arrowLeft" transform="rotate(270) translate(-36 17)">
    <use xlink:href="#rim"/>
    <path pointer-events="none" fill="none" stroke="white" stroke-width="1.5" d="M0,-3.0v7 M-2.5,-0.5L0,-3.0L2.5,-0.5"/>
  </g>
  <g id="resetDef">
    <use xlink:href="#rim2" fill="#404040"><set attributeName="fill" to="#808080" begin="reset.mouseover" end="reset.mouseout"/></use>
  </g>
</defs>
<script type="application/ecmascript">
var viewWidth = 592;
var viewHeight = 268;
var sectionId = 'dynsection-13';
</script>
<script type="application/ecmascript" xlink:href="svg.min.js"/>
<svg id="graph" class="graph">
<g id="viewport">
<title>monopoly::GameModel::getCurrentPlayer</title>
<!-- Node1 -->
<g id="Node000001" class="node">
<title>Node1</title>
<g id="a_Node000001"><a xlink:title=" ">
<polygon fill="#999999" stroke="#666666" points="584,-150 467,-150 467,-120 584,-120 584,-150"/>
<text text-anchor="start" x="475" y="-138" font-family="Helvetica,sans-Serif" font-size="10.00">monopoly::GameModel</text>
<text text-anchor="middle" x="525.5" y="-127" font-family="Helvetica,sans-Serif" font-size="10.00">::getCurrentPlayer</text>
</a>
</g>
</g>
<!-- Node2 -->
<g id="Node000002" class="node">
<title>Node2</title>
<g id="a_Node000002"><a xlink:href="classmonopoly_1_1GameModel.html#a235817e4a0e8aae94e261ecc3f561b67" target="_top" xlink:title="Process doubles roll consequences.">
<polygon fill="white" stroke="#666666" points="431,-260 314,-260 314,-230 431,-230 431,-260"/>
<text text-anchor="start" x="322" y="-248" font-family="Helvetica,sans-Serif" font-size="10.00">monopoly::GameModel</text>
<text text-anchor="middle" x="372.5" y="-237" font-family="Helvetica,sans-Serif" font-size="10.00">::handleDouble</text>
</a>
</g>
</g>
<!-- Node1&#45;&gt;Node2 -->
<g id="edge1_Node000001_Node000002" class="edge">
<title>Node1&#45;&gt;Node2</title>
<g id="a_edge1_Node000001_Node000002"><a xlink:title=" ">
<path fill="none" stroke="#63b8ff" d="M502.35,-156.99C484.16,-174.32 457.22,-198.42 431,-216 423.48,-221.04 414.96,-225.8 406.83,-229.94"/>
<polygon fill="#63b8ff" stroke="#63b8ff" points="504.81,-159.47 509.58,-150.01 499.95,-154.44 504.81,-159.47"/>
</a>
</g>
</g>
<!-- Node4 -->
<g id="Node000004" class="node">
<title>Node4</title>
<g id="a_Node000004"><a xlink:href="classmonopoly_1_1RollDiceState.html#a262a6a32b9cacaa7561f81a55ec1c1f3" target="_top" xlink:title=" ">
<polygon fill="white" stroke="#666666" points="125,-217 0,-217 0,-187 125,-187 125,-217"/>
<text text-anchor="start" x="8" y="-205" font-family="Helvetica,sans-Serif" font-size="10.00">monopoly::RollDiceState</text>
<text text-anchor="middle" x="62.5" y="-194" font-family="Helvetica,sans-Serif" font-size="10.00">::handleKeyRelease</text>
</a>
</g>
</g>
<!-- Node1&#45;&gt;Node4 -->
<g id="edge4_Node000001_Node000004" class="edge">
<title>Node1&#45;&gt;Node4</title>
<g id="a_edge4_Node000001_Node000004"><a xlink:title=" ">
<path fill="none" stroke="#63b8ff" d="M493.12,-155.35C475.59,-165.61 452.91,-177.1 431,-183 326.43,-211.15 199.23,-210.35 125.2,-206.6"/>
<polygon fill="#63b8ff" stroke="#63b8ff" points="495.03,-158.29 501.79,-150.14 491.42,-152.29 495.03,-158.29"/>
</a>
</g>
</g>
<!-- Node5 -->
<g id="Node000005" class="node">
<title>Node5</title>
<g id="a_Node000005"><a xlink:href="classmonopoly_1_1TurnState.html#a402f9df8d45636a59abb1e3e75cd0650" target="_top" xlink:title=" ">
<polygon fill="white" stroke="#666666" points="426,-174 319,-174 319,-144 426,-144 426,-174"/>
<text text-anchor="start" x="327" y="-162" font-family="Helvetica,sans-Serif" font-size="10.00">monopoly::TurnState</text>
<text text-anchor="middle" x="372.5" y="-151" font-family="Helvetica,sans-Serif" font-size="10.00">::handleKeyRelease</text>
</a>
</g>
</g>
<!-- Node1&#45;&gt;Node5 -->
<g id="edge5_Node000001_Node000005" class="edge">
<title>Node1&#45;&gt;Node5</title>
<g id="a_edge5_Node000001_Node000005"><a xlink:title=" ">
<path fill="none" stroke="#63b8ff" d="M456.86,-145.75C446.65,-147.37 436.24,-149.03 426.39,-150.59"/>
<polygon fill="#63b8ff" stroke="#63b8ff" points="457.66,-149.17 466.98,-144.14 456.56,-142.26 457.66,-149.17"/>
</a>
</g>
</g>
<!-- Node6 -->
<g id="Node000006" class="node">
<title>Node6</title>
<g id="a_Node000006"><a xlink:href="classmonopoly_1_1GameModel.html#a1736688c5316fecd6f1c7a12b3c4cdb6" target="_top" xlink:title="Process Luxury Tax payment.">
<polygon fill="white" stroke="#666666" points="431,-126 314,-126 314,-96 431,-96 431,-126"/>
<text text-anchor="start" x="322" y="-114" font-family="Helvetica,sans-Serif" font-size="10.00">monopoly::GameModel</text>
<text text-anchor="middle" x="372.5" y="-103" font-family="Helvetica,sans-Serif" font-size="10.00">::landOnLuxuryTax</text>
</a>
</g>
</g>
<!-- Node1&#45;&gt;Node6 -->
<g id="edge6_Node000001_Node000006" class="edge">
<title>Node1&#45;&gt;Node6</title>
<g id="a_edge6_Node000001_Node000006"><a xlink:title=" ">
<path fill="none" stroke="#63b8ff" d="M456.95,-124.26C448.32,-122.89 439.56,-121.5 431.11,-120.16"/>
<polygon fill="#63b8ff" stroke="#63b8ff" points="456.56,-127.74 466.98,-125.86 457.66,-120.83 456.56,-127.74"/>
</a>
</g>
</g>
<!-- Node7 -->
<g id="Node000007" class="node">
<title>Node7</title>
<g id="a_Node000007"><a xlink:href="classmonopoly_1_1GameModel.html#adabd6c38f7b55f9d2dbc7ec2af30d410" target="_top" xlink:title="Handle player passing GO square.">
<polygon fill="white" stroke="#666666" points="431,-78 314,-78 314,-48 431,-48 431,-78"/>
<text text-anchor="start" x="322" y="-66" font-family="Helvetica,sans-Serif" font-size="10.00">monopoly::GameModel</text>
<text text-anchor="middle" x="372.5" y="-55" font-family="Helvetica,sans-Serif" font-size="10.00">::movedPastGo</text>
</a>
</g>
</g>
<!-- Node1&#45;&gt;Node7 -->
<g id="edge7_Node000001_Node000007" class="edge">
<title>Node1&#45;&gt;Node7</title>
<g id="a_edge7_Node000001_Node000007"><a xlink:title=" ">
<path fill="none" stroke="#63b8ff" d="M487.48,-115.14C470.44,-106.22 449.85,-95.76 431,-87 424.53,-83.99 417.57,-80.94 410.8,-78.07"/>
<polygon fill="#63b8ff" stroke="#63b8ff" points="486.08,-118.36 496.55,-119.92 489.34,-112.17 486.08,-118.36"/>
</a>
</g>
</g>
<!-- Node9 -->
<g id="Node000009" class="node">
<title>Node9</title>
<g id="a_Node000009"><a xlink:href="classmonopoly_1_1TurnState.html#aac8caaca7b62cb944a7082b6b68c6ac9" target="_top" xlink:title=" ">
<polygon fill="white" stroke="#666666" points="426,-30 319,-30 319,0 426,0 426,-30"/>
<text text-anchor="start" x="327" y="-18" font-family="Helvetica,sans-Serif" font-size="10.00">monopoly::TurnState</text>
<text text-anchor="middle" x="372.5" y="-7" font-family="Helvetica,sans-Serif" font-size="10.00">::onEnter</text>
</a>
</g>
</g>
<!-- Node1&#45;&gt;Node9 -->
<g id="edge10_Node000001_Node000009" class="edge">
<title>Node1&#45;&gt;Node9</title>
<g id="a_edge10_Node000001_Node000009"><a xlink:title=" ">
<path fill="none" stroke="#63b8ff" d="M506.67,-111.94C489.26,-90.69 461.07,-59.44 431,-39 426.17,-35.72 420.82,-32.75 415.38,-30.11"/>
<polygon fill="#63b8ff" stroke="#63b8ff" points="504.02,-114.23 513.01,-119.83 509.47,-109.84 504.02,-114.23"/>
</a>
</g>
</g>
<!-- Node3 -->
<g id="Node000003" class="node">
<title>Node3</title>
<g id="a_Node000003"><a xlink:href="classmonopoly_1_1GameModel.html#ad53cf6f13f83ba2408a6bbcffda3a99e" target="_top" xlink:title="Roll two dice and return their values.">
<polygon fill="white" stroke="#666666" points="278,-260 161,-260 161,-230 278,-230 278,-260"/>
<text text-anchor="start" x="169" y="-248" font-family="Helvetica,sans-Serif" font-size="10.00">monopoly::GameModel</text>
<text text-anchor="middle" x="219.5" y="-237" font-family="Helvetica,sans-Serif" font-size="10.00">::rollDice</text>
</a>
</g>
</g>
<!-- Node2&#45;&gt;Node3 -->
<g id="edge2_Node000002_Node000003" class="edge">
<title>Node2&#45;&gt;Node3</title>
<g id="a_edge2_Node000002_Node000003"><a xlink:title=" ">
<path fill="none" stroke="#63b8ff" d="M303.95,-245C295.32,-245 286.56,-245 278.11,-245"/>
<polygon fill="#63b8ff" stroke="#63b8ff" points="303.98,-248.5 313.98,-245 303.98,-241.5 303.98,-248.5"/>
</a>
</g>
</g>
<!-- Node3&#45;&gt;Node4 -->
<g id="edge3_Node000003_Node000004" class="edge">
<title>Node3&#45;&gt;Node4</title>
<g id="a_edge3_Node000003_Node000004"><a xlink:title=" ">
<path fill="none" stroke="#63b8ff" d="M154.58,-227.27C142.32,-223.87 129.6,-220.34 117.68,-217.03"/>
<polygon fill="#63b8ff" stroke="#63b8ff" points="153.72,-230.66 164.29,-229.96 155.59,-223.91 153.72,-230.66"/>
</a>
</g>
</g>
<!-- Node8 -->
<g id="Node000008" class="node">
<title>Node8</title>
<g id="a_Node000008"><a xlink:href="classmonopoly_1_1GameModel.html#ac99a34cf6476bb5d92da4c5d44800017" target="_top" xlink:title="Move player specified number of steps.">
<polygon fill="white" stroke="#666666" points="278,-126 161,-126 161,-96 278,-96 278,-126"/>
<text text-anchor="start" x="169" y="-114" font-family="Helvetica,sans-Serif" font-size="10.00">monopoly::GameModel</text>
<text text-anchor="middle" x="219.5" y="-103" font-family="Helvetica,sans-Serif" font-size="10.00">::moveSteps</text>
</a>
</g>
</g>
<!-- Node7&#45;&gt;Node8 -->
<g id="edge8_Node000007_Node000008" class="edge">
<title>Node7&#45;&gt;Node8</title>
<g id="a_edge8_Node000007_Node000008"><a xlink:title=" ">
<path fill="none" stroke="#63b8ff" d="M314.23,-81.21C298.87,-86.09 282.44,-91.31 267.69,-96"/>
<polygon fill="#63b8ff" stroke="#63b8ff" points="315.67,-84.42 324.14,-78.06 313.55,-77.75 315.67,-84.42"/>
</a>
</g>
</g>
<!-- Node8&#45;&gt;Node4 -->
<g id="edge9_Node000008_Node000004" class="edge">
<title>Node8&#45;&gt;Node4</title>
<g id="a_edge9_Node000008_Node000004"><a xlink:title=" ">
<path fill="none" stroke="#63b8ff" d="M184.02,-131.24C155.31,-148.1 115.06,-171.73 89.13,-186.95"/>
<polygon fill="#63b8ff" stroke="#63b8ff" points="186.05,-134.11 192.9,-126.03 182.51,-128.07 186.05,-134.11"/>
</a>
</g>
</g>
</g>
</svg>

<g id="navigator" transform="translate(0 0)" fill="#404254">
  <rect fill="#f2f5e9" fill-opacity="0.5" stroke="#606060" stroke-width=".5" x="0" y="0" width="60" height="60"/>
  <use id="zoomplus" xlink:href="#zoomPlus" x="17" y="9" onmousedown="handleZoom(evt,'in')"/>
  <use id="zoomminus" xlink:href="#zoomMin" x="42" y="9" onmousedown="handleZoom(evt,'out')"/>
  <use id="reset" xlink:href="#resetDef" x="30" y="36" onmousedown="handleReset()"/>
   <use id="arrowup" xlink:href="#arrowUp" x="0" y="0" onmousedown="handlePan(0,-1)"/>
  <use id="arrowright" xlink:href="#arrowRight" x="0" y="0" onmousedown="handlePan(1,0)"/>
  <use id="arrowdown" xlink:href="#arrowDown" x="0" y="0" onmousedown="handlePan(0,1)"/>
  <use id="arrowleft" xlink:href="#arrowLeft" x="0" y="0" onmousedown="handlePan(-1,0)"/>
</g>
<svg viewBox="0 0 15 15" width="100%" height="30px" preserveAspectRatio="xMaxYMin meet">
 <g id="arrow_out" transform="scale(0.3 0.3)">
  <a xlink:href="classmonopoly_1_1GameModel_a61c4fbccfe0fd1f1870bfd4df55571f1_icgraph_org.svg" target="_base">
   <rect id="button" ry="5" rx="5" y="6" x="6" height="38" width="38"
        fill="#f2f5e9" fill-opacity="0.5" stroke="#606060" stroke-width="1.0"/>
   <path id="arrow"
     d="M 11.500037,31.436501 C 11.940474,20.09759 22.043105,11.32322 32.158766,21.979434 L 37.068811,17.246167 C 37.068811,17.246167 37.088388,32 37.088388,32 L 22.160133,31.978069 C 22.160133,31.978069 26.997745,27.140456 26.997745,27.140456 C 18.528582,18.264221 13.291696,25.230495 11.500037,31.436501 z"
     style="fill:#404040;"/>
  </a>
 </g>
</svg>

<style type='text/css'>
<![CDATA[
[data-mouse-over-selected='false'] { opacity: 0.7; }
[data-mouse-over-selected='true']  { opacity: 1.0; }
]]>
</style>
<script type="application/ecmascript"><![CDATA[
document.addEventListener('DOMContentLoaded', (event) => {
  highlightEdges();
  highlightAdjacentNodes();
});
]]></script>
</svg>
