<?xml version="1.0" encoding="UTF-8" standalone="no"?>
<!DOCTYPE svg PUBLIC "-//W3C//DTD SVG 1.1//EN"
 "http://www.w3.org/Graphics/SVG/1.1/DTD/svg11.dtd">
<!-- Generated by graphviz version 2.43.0 (0)
 -->
<!-- Title: BoardSquareComponent::BoardSquareComponent Pages: 1 -->
<svg width="455pt" height="169pt"
 viewBox="0.00 0.00 455.00 168.50" xmlns="http://www.w3.org/2000/svg" xmlns:xlink="http://www.w3.org/1999/xlink">

<svg id="main" version="1.1" xmlns="http://www.w3.org/2000/svg" xmlns:xlink="http://www.w3.org/1999/xlink" xml:space="preserve" onload="init(evt)">
<style type="text/css"><![CDATA[
.node, .edge {opacity: 0.7;}
.node.selected, .edge.selected {opacity: 1;}
.edge:hover path { stroke: red; }
.edge:hover polygon { stroke: red; fill: red; }
]]></style>
<script type="application/ecmascript" xlink:href="svg.min.js"/>
<svg id="graph" class="graph">
<g id="graph0" class="graph" transform="scale(1 1) rotate(0) translate(4 164.5)">
<title>BoardSquareComponent::BoardSquareComponent</title>
<!-- Node1 -->
<g id="Node000001" class="node">
<title>Node1</title>
<g id="a_Node000001"><a xlink:title=" ">
<polygon fill="#999999" stroke="#666666" points="129,-112.5 0,-112.5 0,-82.5 129,-82.5 129,-112.5"/>
<text text-anchor="start" x="8" y="-100.5" font-family="Helvetica,sans-Serif" font-size="10.00">BoardSquareComponent</text>
<text text-anchor="middle" x="64.5" y="-89.5" font-family="Helvetica,sans-Serif" font-size="10.00">::BoardSquareComponent</text>
</a>
</g>
</g>
<!-- Node2 -->
<g id="Node000002" class="node">
<title>Node2</title>
<g id="a_Node000002"><a xlink:href="classBoardSquareComponent.html#af1a807d6ff29b854a848e63eedfe217a" target="_top" xlink:title=" ">
<polygon fill="white" stroke="#666666" points="288,-160.5 165,-160.5 165,-130.5 288,-130.5 288,-160.5"/>
<text text-anchor="start" x="173" y="-148.5" font-family="Helvetica,sans-Serif" font-size="10.00">BoardSquareComponent</text>
<text text-anchor="middle" x="226.5" y="-137.5" font-family="Helvetica,sans-Serif" font-size="10.00">::initText</text>
</a>
</g>
</g>
<!-- Node1&#45;&gt;Node2 -->
<g id="edge1_Node000001_Node000002" class="edge">
<title>Node1&#45;&gt;Node2</title>
<g id="a_edge1_Node000001_Node000002"><a xlink:title=" ">
<path fill="none" stroke="#63b8ff" d="M115.69,-112.56C131.47,-117.29 149.07,-122.57 165.46,-127.49"/>
<polygon fill="#63b8ff" stroke="#63b8ff" points="164.91,-130.98 175.49,-130.5 166.92,-124.27 164.91,-130.98"/>
</a>
</g>
</g>
<!-- Node4 -->
<g id="Node000004" class="node">
<title>Node4</title>
<g id="a_Node000004"><a xlink:href="classBoardSquareComponent.html#aa75ecb2aa6b636624eadaedd800fd97d" target="_top" xlink:title=" ">
<polygon fill="white" stroke="#666666" points="288,-112.5 165,-112.5 165,-82.5 288,-82.5 288,-112.5"/>
<text text-anchor="start" x="173" y="-100.5" font-family="Helvetica,sans-Serif" font-size="10.00">BoardSquareComponent</text>
<text text-anchor="middle" x="226.5" y="-89.5" font-family="Helvetica,sans-Serif" font-size="10.00">::setBackground</text>
</a>
</g>
</g>
<!-- Node1&#45;&gt;Node4 -->
<g id="edge3_Node000001_Node000004" class="edge">
<title>Node1&#45;&gt;Node4</title>
<g id="a_edge3_Node000001_Node000004"><a xlink:title=" ">
<path fill="none" stroke="#63b8ff" d="M129.2,-97.5C137.56,-97.5 146.17,-97.5 154.65,-97.5"/>
<polygon fill="#63b8ff" stroke="#63b8ff" points="154.89,-101 164.89,-97.5 154.89,-94 154.89,-101"/>
</a>
</g>
</g>
<!-- Node6 -->
<g id="Node000006" class="node">
<title>Node6</title>
<g id="a_Node000006"><a xlink:href="classBoardSquareComponent.html#a149c154bb38b3ac75e5ad1ed1ada21dc" target="_top" xlink:title=" ">
<polygon fill="white" stroke="#666666" points="288,-64.5 165,-64.5 165,-34.5 288,-34.5 288,-64.5"/>
<text text-anchor="start" x="173" y="-52.5" font-family="Helvetica,sans-Serif" font-size="10.00">BoardSquareComponent</text>
<text text-anchor="middle" x="226.5" y="-41.5" font-family="Helvetica,sans-Serif" font-size="10.00">::setupSize</text>
</a>
</g>
</g>
<!-- Node1&#45;&gt;Node6 -->
<g id="edge5_Node000001_Node000006" class="edge">
<title>Node1&#45;&gt;Node6</title>
<g id="a_edge5_Node000001_Node000006"><a xlink:title=" ">
<path fill="none" stroke="#63b8ff" d="M115.69,-82.44C131.47,-77.71 149.07,-72.43 165.46,-67.51"/>
<polygon fill="#63b8ff" stroke="#63b8ff" points="166.92,-70.73 175.49,-64.5 164.91,-64.02 166.92,-70.73"/>
</a>
</g>
</g>
<!-- Node3 -->
<g id="Node000003" class="node">
<title>Node3</title>
<g id="a_Node000003"><a xlink:href="classBoardSquareComponent.html#a469e93f48caf7c57cae3ab72ec459aea" target="_top" xlink:title=" ">
<polygon fill="white" stroke="#666666" points="447,-160.5 324,-160.5 324,-130.5 447,-130.5 447,-160.5"/>
<text text-anchor="start" x="332" y="-148.5" font-family="Helvetica,sans-Serif" font-size="10.00">BoardSquareComponent</text>
<text text-anchor="middle" x="385.5" y="-137.5" font-family="Helvetica,sans-Serif" font-size="10.00">::setTextRotation</text>
</a>
</g>
</g>
<!-- Node2&#45;&gt;Node3 -->
<g id="edge2_Node000002_Node000003" class="edge">
<title>Node2&#45;&gt;Node3</title>
<g id="a_edge2_Node000002_Node000003"><a xlink:title=" ">
<path fill="none" stroke="#63b8ff" d="M288.2,-145.5C296.64,-145.5 305.36,-145.5 313.95,-145.5"/>
<polygon fill="#63b8ff" stroke="#63b8ff" points="313.96,-149 323.96,-145.5 313.96,-142 313.96,-149"/>
</a>
</g>
</g>
<!-- Node5 -->
<g id="Node000005" class="node">
<title>Node5</title>
<g id="a_Node000005"><a xlink:href="classSFComponent.html#a922478ab30206f8a668d90f9398b0c82" target="_top" xlink:title=" ">
<polygon fill="white" stroke="#666666" points="445,-107 326,-107 326,-88 445,-88 445,-107"/>
<text text-anchor="middle" x="385.5" y="-95" font-family="Helvetica,sans-Serif" font-size="10.00">SFComponent::getSize</text>
</a>
</g>
</g>
<!-- Node4&#45;&gt;Node5 -->
<g id="edge4_Node000004_Node000005" class="edge">
<title>Node4&#45;&gt;Node5</title>
<g id="a_edge4_Node000004_Node000005"><a xlink:title=" ">
<path fill="none" stroke="#63b8ff" d="M288.2,-97.5C297.17,-97.5 306.46,-97.5 315.58,-97.5"/>
<polygon fill="#63b8ff" stroke="#63b8ff" points="315.77,-101 325.77,-97.5 315.77,-94 315.77,-101"/>
</a>
</g>
</g>
<!-- Node7 -->
<g id="Node000007" class="node">
<title>Node7</title>
<g id="a_Node000007"><a xlink:href="classBoardSquareComponent.html#abe7822e12514e6eb6621f2301627745f" target="_top" xlink:title=" ">
<polygon fill="white" stroke="#666666" points="447,-67.5 324,-67.5 324,-37.5 447,-37.5 447,-67.5"/>
<text text-anchor="start" x="332" y="-55.5" font-family="Helvetica,sans-Serif" font-size="10.00">BoardSquareComponent</text>
<text text-anchor="middle" x="385.5" y="-44.5" font-family="Helvetica,sans-Serif" font-size="10.00">::isCornerSquare</text>
</a>
</g>
</g>
<!-- Node6&#45;&gt;Node7 -->
<g id="edge6_Node000006_Node000007" class="edge">
<title>Node6&#45;&gt;Node7</title>
<g id="a_edge6_Node000006_Node000007"><a xlink:title=" ">
<path fill="none" stroke="#63b8ff" d="M288.2,-50.66C296.64,-50.82 305.36,-50.99 313.95,-51.15"/>
<polygon fill="#63b8ff" stroke="#63b8ff" points="313.9,-54.65 323.96,-51.34 314.03,-47.65 313.9,-54.65"/>
</a>
</g>
</g>
<!-- Node8 -->
<g id="Node000008" class="node">
<title>Node8</title>
<g id="a_Node000008"><a xlink:href="classSFComponent.html#aece377bb9879eec90e8d919f810b8b75" target="_top" xlink:title=" ">
<polygon fill="white" stroke="#666666" points="445,-19 326,-19 326,0 445,0 445,-19"/>
<text text-anchor="middle" x="385.5" y="-7" font-family="Helvetica,sans-Serif" font-size="10.00">SFComponent::setSize</text>
</a>
</g>
</g>
<!-- Node6&#45;&gt;Node8 -->
<g id="edge7_Node000006_Node000008" class="edge">
<title>Node6&#45;&gt;Node8</title>
<g id="a_edge7_Node000006_Node000008"><a xlink:title=" ">
<path fill="none" stroke="#63b8ff" d="M286.41,-34.49C303.11,-30.24 321.08,-25.66 337.01,-21.6"/>
<polygon fill="#63b8ff" stroke="#63b8ff" points="338.33,-24.88 347.15,-19.01 336.6,-18.09 338.33,-24.88"/>
</a>
</g>
</g>
</g>
</svg>
</svg>

<style type='text/css'>
<![CDATA[
[data-mouse-over-selected='false'] { opacity: 0.7; }
[data-mouse-over-selected='true']  { opacity: 1.0; }
]]>
</style>
<script type="application/ecmascript"><![CDATA[
document.addEventListener('DOMContentLoaded', (event) => {
  highlightEdges();
  highlightAdjacentNodes();
});
]]></script>
</svg>
