<?xml version="1.0" encoding="UTF-8" standalone="no"?>
<!DOCTYPE svg PUBLIC "-//W3C//DTD SVG 1.1//EN"
 "http://www.w3.org/Graphics/SVG/1.1/DTD/svg11.dtd">
<!-- Generated by graphviz version 2.43.0 (0)
 -->
<!-- Title: RailroadRentCalculator Pages: 1 -->
<svg width="142pt" height="187pt"
 viewBox="0.00 0.00 142.00 187.00" xmlns="http://www.w3.org/2000/svg" xmlns:xlink="http://www.w3.org/1999/xlink">

<svg id="main" version="1.1" xmlns="http://www.w3.org/2000/svg" xmlns:xlink="http://www.w3.org/1999/xlink" xml:space="preserve" onload="init(evt)">
<style type="text/css"><![CDATA[
.node, .edge {opacity: 0.7;}
.node.selected, .edge.selected {opacity: 1;}
.edge:hover path { stroke: red; }
.edge:hover polygon { stroke: red; fill: red; }
]]></style>
<script type="application/ecmascript" xlink:href="svg.min.js"/>
<svg id="graph" class="graph">
<g id="graph0" class="graph" transform="scale(1 1) rotate(0) translate(4 183)">
<title>RailroadRentCalculator</title>
<!-- Node1 -->
<g id="Node000001" class="node">
<title>Node1</title>
<g id="a_Node000001"><a xlink:title=" ">
<polygon fill="#999999" stroke="transparent" points="130.5,-79 3.5,-79 3.5,0 130.5,0 130.5,-79"/>
<text text-anchor="start" x="16.5" y="-66.5" font-family="Helvetica,sans-Serif" font-size="10.00">RailroadRentCalculator</text>
<text text-anchor="start" x="9.5" y="-51.5" font-family="Helvetica,sans-Serif" font-size="10.00">&#45;</text>
<text text-anchor="start" x="19" y="-51.5" font-family="Helvetica,sans-Serif" font-size="10.00">baseRent</text>
<text text-anchor="start" x="9.5" y="-36.5" font-family="Helvetica,sans-Serif" font-size="10.00">&#45;</text>
<text text-anchor="start" x="19" y="-36.5" font-family="Helvetica,sans-Serif" font-size="10.00">ownedRailroads</text>
<text text-anchor="start" x="8" y="-21.5" font-family="Helvetica,sans-Serif" font-size="10.00">+</text>
<text text-anchor="start" x="19" y="-21.5" font-family="Helvetica,sans-Serif" font-size="10.00">RailroadRentCalculator()</text>
<text text-anchor="start" x="8" y="-6.5" font-family="Helvetica,sans-Serif" font-size="10.00">+</text>
<text text-anchor="start" x="19" y="-6.5" font-family="Helvetica,sans-Serif" font-size="10.00">calculateRent()</text>
<polygon fill="#666666" stroke="#666666" points="4,-61.5 4,-61.5 131,-61.5 131,-61.5 4,-61.5"/>
<polygon fill="#666666" stroke="#666666" points="4,-31.5 4,-31.5 17,-31.5 17,-31.5 4,-31.5"/>
<polygon fill="#666666" stroke="#666666" points="17,-31.5 17,-31.5 131,-31.5 131,-31.5 17,-31.5"/>
<polygon fill="none" stroke="#666666" points="3.5,0 3.5,-79 130.5,-79 130.5,0 3.5,0"/>
</a>
</g>
</g>
<!-- Node2 -->
<g id="Node000002" class="node">
<title>Node2</title>
<g id="a_Node000002"><a xlink:href="classStrategyRentCalculator.html" target="_top" xlink:title=" ">
<polygon fill="white" stroke="transparent" points="134,-179 0,-179 0,-115 134,-115 134,-179"/>
<text text-anchor="start" x="15.5" y="-167" font-family="Helvetica,sans-Serif" font-size="10.00">StrategyRentCalculator</text>
<text text-anchor="start" x="65" y="-152" font-family="Helvetica,sans-Serif" font-size="10.00"> </text>
<text text-anchor="start" x="4" y="-137" font-family="Helvetica,sans-Serif" font-size="10.00">+</text>
<text text-anchor="start" x="15" y="-137" font-family="Helvetica,sans-Serif" font-size="10.00">~StrategyRentCalculator()</text>
<text text-anchor="start" x="4" y="-122" font-family="Helvetica,sans-Serif" font-size="10.00">+</text>
<text text-anchor="start" x="15" y="-122" font-family="Helvetica,sans-Serif" font-size="10.00">calculateRent()</text>
<polygon fill="#666666" stroke="#666666" points="0,-162 0,-162 134,-162 134,-162 0,-162"/>
<polygon fill="#666666" stroke="#666666" points="0,-147 0,-147 134,-147 134,-147 0,-147"/>
<polygon fill="none" stroke="#666666" points="0,-115 0,-179 134,-179 134,-115 0,-115"/>
</a>
</g>
</g>
<!-- Node2&#45;&gt;Node1 -->
<g id="edge1_Node000001_Node000002" class="edge">
<title>Node2&#45;&gt;Node1</title>
<g id="a_edge1_Node000001_Node000002"><a xlink:title=" ">
<path fill="none" stroke="#63b8ff" d="M67,-104.89C67,-96.44 67,-87.58 67,-79.22"/>
<polygon fill="none" stroke="#63b8ff" points="63.5,-104.92 67,-114.92 70.5,-104.92 63.5,-104.92"/>
</a>
</g>
</g>
</g>
</svg>
</svg>

<style type='text/css'>
<![CDATA[
[data-mouse-over-selected='false'] { opacity: 0.7; }
[data-mouse-over-selected='true']  { opacity: 1.0; }
]]>
</style>
<script type="application/ecmascript"><![CDATA[
document.addEventListener('DOMContentLoaded', (event) => {
  highlightEdges();
  highlightAdjacentNodes();
});
]]></script>
</svg>
