<?xml version="1.0" encoding="UTF-8" standalone="no"?>
<!DOCTYPE svg PUBLIC "-//W3C//DTD SVG 1.1//EN"
 "http://www.w3.org/Graphics/SVG/1.1/DTD/svg11.dtd">
<!-- Generated by graphviz version 2.43.0 (0)
 -->
<!-- Title: RailroadSquare::draw Pages: 1 -->
<svg width="436pt" height="38pt"
 viewBox="0.00 0.00 436.00 38.00" xmlns="http://www.w3.org/2000/svg" xmlns:xlink="http://www.w3.org/1999/xlink">
<g id="graph0" class="graph" transform="scale(1 1) rotate(0) translate(4 34)">
<title>RailroadSquare::draw</title>
<!-- Node1 -->
<g id="Node000001" class="node">
<title>Node1</title>
<g id="a_Node000001"><a xlink:title=" ">
<polygon fill="#999999" stroke="#666666" points="110,-24.5 0,-24.5 0,-5.5 110,-5.5 110,-24.5"/>
<text text-anchor="middle" x="55" y="-12.5" font-family="Helvetica,sans-Serif" font-size="10.00">RailroadSquare::draw</text>
</a>
</g>
</g>
<!-- Node2 -->
<g id="Node000002" class="node">
<title>Node2</title>
<g id="a_Node000002"><a xlink:href="classBoardSquareComponent.html#a881195405144e0c5ed22e5c3a9deaf1b" target="_top" xlink:title=" ">
<polygon fill="white" stroke="#666666" points="269,-30 146,-30 146,0 269,0 269,-30"/>
<text text-anchor="start" x="154" y="-18" font-family="Helvetica,sans-Serif" font-size="10.00">BoardSquareComponent</text>
<text text-anchor="middle" x="207.5" y="-7" font-family="Helvetica,sans-Serif" font-size="10.00">::draw</text>
</a>
</g>
</g>
<!-- Node1&#45;&gt;Node2 -->
<g id="edge1_Node000001_Node000002" class="edge">
<title>Node1&#45;&gt;Node2</title>
<g id="a_edge1_Node000001_Node000002"><a xlink:title=" ">
<path fill="none" stroke="#63b8ff" d="M110.33,-15C118.62,-15 127.28,-15 135.86,-15"/>
<polygon fill="#63b8ff" stroke="#63b8ff" points="135.87,-18.5 145.87,-15 135.87,-11.5 135.87,-18.5"/>
</a>
</g>
</g>
<!-- Node3 -->
<g id="Node000003" class="node">
<title>Node3</title>
<g id="a_Node000003"><a xlink:href="classBoardSquareComponent.html#a9fff7f24accf46ae4c0db14173d3079c" target="_top" xlink:title=" ">
<polygon fill="white" stroke="#666666" points="428,-30 305,-30 305,0 428,0 428,-30"/>
<text text-anchor="start" x="313" y="-18" font-family="Helvetica,sans-Serif" font-size="10.00">BoardSquareComponent</text>
<text text-anchor="middle" x="366.5" y="-7" font-family="Helvetica,sans-Serif" font-size="10.00">::drawPlayers</text>
</a>
</g>
</g>
<!-- Node2&#45;&gt;Node3 -->
<g id="edge2_Node000002_Node000003" class="edge">
<title>Node2&#45;&gt;Node3</title>
<g id="a_edge2_Node000002_Node000003"><a xlink:title=" ">
<path fill="none" stroke="#63b8ff" d="M269.2,-15C277.64,-15 286.36,-15 294.95,-15"/>
<polygon fill="#63b8ff" stroke="#63b8ff" points="294.96,-18.5 304.96,-15 294.96,-11.5 294.96,-18.5"/>
</a>
</g>
</g>
</g>
</svg>
