<?xml version="1.0" encoding="UTF-8" standalone="no"?>
<!DOCTYPE svg PUBLIC "-//W3C//DTD SVG 1.1//EN"
 "http://www.w3.org/Graphics/SVG/1.1/DTD/svg11.dtd">
<!-- Generated by graphviz version 2.43.0 (0)
 -->
<!-- Title: monopoly::Square::getId Pages: 1 -->
<svg width="590pt" height="134pt"
 viewBox="0.00 0.00 590.00 134.00" xmlns="http://www.w3.org/2000/svg" xmlns:xlink="http://www.w3.org/1999/xlink">
<g id="graph0" class="graph" transform="scale(1 1) rotate(0) translate(4 130)">
<title>monopoly::Square::getId</title>
<!-- Node1 -->
<g id="Node000001" class="node">
<title>Node1</title>
<g id="a_Node000001"><a xlink:title="Gets the unique identifier of the square.">
<polygon fill="#999999" stroke="#666666" points="582,-72.5 459,-72.5 459,-53.5 582,-53.5 582,-72.5"/>
<text text-anchor="middle" x="520.5" y="-60.5" font-family="Helvetica,sans-Serif" font-size="10.00">monopoly::Square::getId</text>
</a>
</g>
</g>
<!-- Node2 -->
<g id="Node000002" class="node">
<title>Node2</title>
<g id="a_Node000002"><a xlink:href="classmonopoly_1_1GameModel.html#aa29755bb0580af0466b18483e7e7175b" target="_top" xlink:title="Process property purchase.">
<polygon fill="white" stroke="#666666" points="423,-126 306,-126 306,-96 423,-96 423,-126"/>
<text text-anchor="start" x="314" y="-114" font-family="Helvetica,sans-Serif" font-size="10.00">monopoly::GameModel</text>
<text text-anchor="middle" x="364.5" y="-103" font-family="Helvetica,sans-Serif" font-size="10.00">::buyProperty</text>
</a>
</g>
</g>
<!-- Node1&#45;&gt;Node2 -->
<g id="edge1_Node000001_Node000002" class="edge">
<title>Node1&#45;&gt;Node2</title>
<g id="a_edge1_Node000001_Node000002"><a xlink:title=" ">
<path fill="none" stroke="#63b8ff" d="M478.98,-75.63C459,-81.86 434.77,-89.41 413.83,-95.94"/>
<polygon fill="#63b8ff" stroke="#63b8ff" points="480.2,-78.92 488.71,-72.6 478.12,-72.23 480.2,-78.92"/>
</a>
</g>
</g>
<!-- Node3 -->
<g id="Node000003" class="node">
<title>Node3</title>
<g id="a_Node000003"><a xlink:href="classmonopoly_1_1GameModel.html#ad2cc951c35bb0f9d412e79adb790d510" target="_top" xlink:title="Check if houses can be built on street.">
<polygon fill="white" stroke="#666666" points="423,-78 306,-78 306,-48 423,-48 423,-78"/>
<text text-anchor="start" x="314" y="-66" font-family="Helvetica,sans-Serif" font-size="10.00">monopoly::GameModel</text>
<text text-anchor="middle" x="364.5" y="-55" font-family="Helvetica,sans-Serif" font-size="10.00">::canBuildOnStreet</text>
</a>
</g>
</g>
<!-- Node1&#45;&gt;Node3 -->
<g id="edge2_Node000001_Node000003" class="edge">
<title>Node1&#45;&gt;Node3</title>
<g id="a_edge2_Node000001_Node000003"><a xlink:title=" ">
<path fill="none" stroke="#63b8ff" d="M448.47,-63C440.08,-63 431.59,-63 423.41,-63"/>
<polygon fill="#63b8ff" stroke="#63b8ff" points="448.64,-66.5 458.64,-63 448.64,-59.5 448.64,-66.5"/>
</a>
</g>
</g>
<!-- Node6 -->
<g id="Node000006" class="node">
<title>Node6</title>
<g id="a_Node000006"><a xlink:href="classmonopoly_1_1GameModel.html#afa6e92bce1bc86814a13ee3466def16a" target="_top" xlink:title="Process rent payment.">
<polygon fill="white" stroke="#666666" points="423,-30 306,-30 306,0 423,0 423,-30"/>
<text text-anchor="start" x="314" y="-18" font-family="Helvetica,sans-Serif" font-size="10.00">monopoly::GameModel</text>
<text text-anchor="middle" x="364.5" y="-7" font-family="Helvetica,sans-Serif" font-size="10.00">::payRent</text>
</a>
</g>
</g>
<!-- Node1&#45;&gt;Node6 -->
<g id="edge5_Node000001_Node000006" class="edge">
<title>Node1&#45;&gt;Node6</title>
<g id="a_edge5_Node000001_Node000006"><a xlink:title=" ">
<path fill="none" stroke="#63b8ff" d="M478.98,-50.37C459,-44.14 434.77,-36.59 413.83,-30.06"/>
<polygon fill="#63b8ff" stroke="#63b8ff" points="478.12,-53.77 488.71,-53.4 480.2,-47.08 478.12,-53.77"/>
</a>
</g>
</g>
<!-- Node4 -->
<g id="Node000004" class="node">
<title>Node4</title>
<g id="a_Node000004"><a xlink:href="classmonopoly_1_1GameModel.html#ac72ba97e17895b069ea84f783709e9e3" target="_top" xlink:title="Handle landing on property square.">
<polygon fill="white" stroke="#666666" points="270,-78 153,-78 153,-48 270,-48 270,-78"/>
<text text-anchor="start" x="161" y="-66" font-family="Helvetica,sans-Serif" font-size="10.00">monopoly::GameModel</text>
<text text-anchor="middle" x="211.5" y="-55" font-family="Helvetica,sans-Serif" font-size="10.00">::landOnProperty</text>
</a>
</g>
</g>
<!-- Node3&#45;&gt;Node4 -->
<g id="edge3_Node000003_Node000004" class="edge">
<title>Node3&#45;&gt;Node4</title>
<g id="a_edge3_Node000003_Node000004"><a xlink:title=" ">
<path fill="none" stroke="#63b8ff" d="M295.95,-63C287.32,-63 278.56,-63 270.11,-63"/>
<polygon fill="#63b8ff" stroke="#63b8ff" points="295.98,-66.5 305.98,-63 295.98,-59.5 295.98,-66.5"/>
</a>
</g>
</g>
<!-- Node5 -->
<g id="Node000005" class="node">
<title>Node5</title>
<g id="a_Node000005"><a xlink:href="classmonopoly_1_1GameModel.html#a5ee956b08d9a835512ea1dda80d2cca9" target="_top" xlink:title="Process landing on a square.">
<polygon fill="white" stroke="#666666" points="117,-78 0,-78 0,-48 117,-48 117,-78"/>
<text text-anchor="start" x="8" y="-66" font-family="Helvetica,sans-Serif" font-size="10.00">monopoly::GameModel</text>
<text text-anchor="middle" x="58.5" y="-55" font-family="Helvetica,sans-Serif" font-size="10.00">::landOn</text>
</a>
</g>
</g>
<!-- Node4&#45;&gt;Node5 -->
<g id="edge4_Node000004_Node000005" class="edge">
<title>Node4&#45;&gt;Node5</title>
<g id="a_edge4_Node000004_Node000005"><a xlink:title=" ">
<path fill="none" stroke="#63b8ff" d="M142.95,-63C134.32,-63 125.56,-63 117.11,-63"/>
<polygon fill="#63b8ff" stroke="#63b8ff" points="142.98,-66.5 152.98,-63 142.98,-59.5 142.98,-66.5"/>
</a>
</g>
</g>
</g>
</svg>
