<?xml version="1.0" encoding="UTF-8" standalone="no"?>
<!DOCTYPE svg PUBLIC "-//W3C//DTD SVG 1.1//EN"
 "http://www.w3.org/Graphics/SVG/1.1/DTD/svg11.dtd">
<!-- Generated by graphviz version 2.43.0 (0)
 -->
<!-- Title: monopoly::BoardView Pages: 1 -->
<svg width="131pt" height="752pt"
 viewBox="0.00 0.00 131.00 752.00" xmlns="http://www.w3.org/2000/svg" xmlns:xlink="http://www.w3.org/1999/xlink">
<g id="graph0" class="graph" transform="scale(1 1) rotate(0) translate(4 748)">
<title>monopoly::BoardView</title>
<!-- Node1 -->
<g id="Node000001" class="node">
<title>Node1</title>
<g id="a_Node000001"><a xlink:title=" ">
<polygon fill="#999999" stroke="transparent" points="123,-199 0,-199 0,0 123,0 123,-199"/>
<text text-anchor="start" x="14" y="-186.5" font-family="Helvetica,sans-Serif" font-size="10.00">monopoly::BoardView</text>
<text text-anchor="start" x="60" y="-171.5" font-family="Helvetica,sans-Serif" font-size="10.00"> </text>
<text text-anchor="start" x="4.5" y="-156.5" font-family="Helvetica,sans-Serif" font-size="10.00">+</text>
<text text-anchor="start" x="15.5" y="-156.5" font-family="Helvetica,sans-Serif" font-size="10.00">BoardView()</text>
<text text-anchor="start" x="4.5" y="-141.5" font-family="Helvetica,sans-Serif" font-size="10.00">+</text>
<text text-anchor="start" x="15.5" y="-141.5" font-family="Helvetica,sans-Serif" font-size="10.00">createBottomSquares()</text>
<text text-anchor="start" x="4.5" y="-126.5" font-family="Helvetica,sans-Serif" font-size="10.00">+</text>
<text text-anchor="start" x="15.5" y="-126.5" font-family="Helvetica,sans-Serif" font-size="10.00">createLeftSquares()</text>
<text text-anchor="start" x="4.5" y="-111.5" font-family="Helvetica,sans-Serif" font-size="10.00">+</text>
<text text-anchor="start" x="15.5" y="-111.5" font-family="Helvetica,sans-Serif" font-size="10.00">createTopSquares()</text>
<text text-anchor="start" x="4.5" y="-96.5" font-family="Helvetica,sans-Serif" font-size="10.00">+</text>
<text text-anchor="start" x="15.5" y="-96.5" font-family="Helvetica,sans-Serif" font-size="10.00">createRightSquares()</text>
<text text-anchor="start" x="4.5" y="-81.5" font-family="Helvetica,sans-Serif" font-size="10.00">+</text>
<text text-anchor="start" x="15.5" y="-81.5" font-family="Helvetica,sans-Serif" font-size="10.00">createCornerSquares()</text>
<text text-anchor="start" x="4.5" y="-66.5" font-family="Helvetica,sans-Serif" font-size="10.00">+</text>
<text text-anchor="start" x="15.5" y="-66.5" font-family="Helvetica,sans-Serif" font-size="10.00">handleEvent()</text>
<text text-anchor="start" x="4.5" y="-51.5" font-family="Helvetica,sans-Serif" font-size="10.00">+</text>
<text text-anchor="start" x="15.5" y="-51.5" font-family="Helvetica,sans-Serif" font-size="10.00">updatePlayerAtSquare()</text>
<text text-anchor="start" x="4.5" y="-36.5" font-family="Helvetica,sans-Serif" font-size="10.00">+</text>
<text text-anchor="start" x="15.5" y="-36.5" font-family="Helvetica,sans-Serif" font-size="10.00">updateHouseOnStreet()</text>
<text text-anchor="start" x="4.5" y="-21.5" font-family="Helvetica,sans-Serif" font-size="10.00">+</text>
<text text-anchor="start" x="15.5" y="-21.5" font-family="Helvetica,sans-Serif" font-size="10.00">findSquareById()</text>
<text text-anchor="start" x="4.5" y="-6.5" font-family="Helvetica,sans-Serif" font-size="10.00">+</text>
<text text-anchor="start" x="15.5" y="-6.5" font-family="Helvetica,sans-Serif" font-size="10.00">updateView()</text>
<polygon fill="#666666" stroke="#666666" points="0.5,-181.5 0.5,-181.5 123.5,-181.5 123.5,-181.5 0.5,-181.5"/>
<polygon fill="#666666" stroke="#666666" points="0.5,-166.5 0.5,-166.5 123.5,-166.5 123.5,-166.5 0.5,-166.5"/>
<polygon fill="none" stroke="#666666" points="0,0 0,-199 123,-199 123,0 0,0"/>
</a>
</g>
</g>
<!-- Node2 -->
<g id="Node000002" class="node">
<title>Node2</title>
<g id="a_Node000002"><a xlink:href="classSFComposite.html" target="_top" xlink:title=" ">
<polygon fill="white" stroke="transparent" points="104.5,-344 18.5,-344 18.5,-235 104.5,-235 104.5,-344"/>
<text text-anchor="start" x="31" y="-331.5" font-family="Helvetica,sans-Serif" font-size="10.00">SFComposite</text>
<text text-anchor="start" x="23" y="-316.5" font-family="Helvetica,sans-Serif" font-size="10.00">#</text>
<text text-anchor="start" x="33.5" y="-316.5" font-family="Helvetica,sans-Serif" font-size="10.00">children</text>
<text text-anchor="start" x="22.5" y="-301.5" font-family="Helvetica,sans-Serif" font-size="10.00">+</text>
<text text-anchor="start" x="33.5" y="-301.5" font-family="Helvetica,sans-Serif" font-size="10.00">SFComposite()</text>
<text text-anchor="start" x="22.5" y="-286.5" font-family="Helvetica,sans-Serif" font-size="10.00">+</text>
<text text-anchor="start" x="33.5" y="-286.5" font-family="Helvetica,sans-Serif" font-size="10.00">SFComposite()</text>
<text text-anchor="start" x="22.5" y="-271.5" font-family="Helvetica,sans-Serif" font-size="10.00">+</text>
<text text-anchor="start" x="33.5" y="-271.5" font-family="Helvetica,sans-Serif" font-size="10.00">draw()</text>
<text text-anchor="start" x="22.5" y="-256.5" font-family="Helvetica,sans-Serif" font-size="10.00">+</text>
<text text-anchor="start" x="33.5" y="-256.5" font-family="Helvetica,sans-Serif" font-size="10.00">add()</text>
<text text-anchor="start" x="22.5" y="-241.5" font-family="Helvetica,sans-Serif" font-size="10.00">+</text>
<text text-anchor="start" x="33.5" y="-241.5" font-family="Helvetica,sans-Serif" font-size="10.00">remove()</text>
<polygon fill="#666666" stroke="#666666" points="18.5,-326.5 18.5,-326.5 104.5,-326.5 104.5,-326.5 18.5,-326.5"/>
<polygon fill="#666666" stroke="#666666" points="18.5,-311.5 18.5,-311.5 31.5,-311.5 31.5,-311.5 18.5,-311.5"/>
<polygon fill="#666666" stroke="#666666" points="31.5,-311.5 31.5,-311.5 104.5,-311.5 104.5,-311.5 31.5,-311.5"/>
<polygon fill="none" stroke="#666666" points="18.5,-235 18.5,-344 104.5,-344 104.5,-235 18.5,-235"/>
</a>
</g>
</g>
<!-- Node2&#45;&gt;Node1 -->
<g id="edge1_Node000001_Node000002" class="edge">
<title>Node2&#45;&gt;Node1</title>
<g id="a_edge1_Node000001_Node000002"><a xlink:title=" ">
<path fill="none" stroke="#63b8ff" d="M61.5,-224.7C61.5,-216.49 61.5,-207.95 61.5,-199.35"/>
<polygon fill="none" stroke="#63b8ff" points="58,-224.88 61.5,-234.88 65,-224.88 58,-224.88"/>
</a>
</g>
</g>
<!-- Node3 -->
<g id="Node000003" class="node">
<title>Node3</title>
<g id="a_Node000003"><a xlink:href="classSFComponent.html" target="_top" xlink:title=" ">
<polygon fill="white" stroke="transparent" points="121,-744 2,-744 2,-380 121,-380 121,-744"/>
<text text-anchor="start" x="30" y="-732" font-family="Helvetica,sans-Serif" font-size="10.00">SFComponent</text>
<text text-anchor="start" x="7" y="-717" font-family="Helvetica,sans-Serif" font-size="10.00">#</text>
<text text-anchor="start" x="17.5" y="-717" font-family="Helvetica,sans-Serif" font-size="10.00">position</text>
<text text-anchor="start" x="7" y="-702" font-family="Helvetica,sans-Serif" font-size="10.00">#</text>
<text text-anchor="start" x="17.5" y="-702" font-family="Helvetica,sans-Serif" font-size="10.00">size</text>
<text text-anchor="start" x="7" y="-687" font-family="Helvetica,sans-Serif" font-size="10.00">#</text>
<text text-anchor="start" x="17.5" y="-687" font-family="Helvetica,sans-Serif" font-size="10.00">isVisible</text>
<text text-anchor="start" x="7" y="-672" font-family="Helvetica,sans-Serif" font-size="10.00">#</text>
<text text-anchor="start" x="17.5" y="-672" font-family="Helvetica,sans-Serif" font-size="10.00">isEnabled</text>
<text text-anchor="start" x="7" y="-657" font-family="Helvetica,sans-Serif" font-size="10.00">#</text>
<text text-anchor="start" x="17.5" y="-657" font-family="Helvetica,sans-Serif" font-size="10.00">REGULAR_WIDTH</text>
<text text-anchor="start" x="7" y="-642" font-family="Helvetica,sans-Serif" font-size="10.00">#</text>
<text text-anchor="start" x="17.5" y="-642" font-family="Helvetica,sans-Serif" font-size="10.00">REGULAR_HEIGHT</text>
<text text-anchor="start" x="7" y="-627" font-family="Helvetica,sans-Serif" font-size="10.00">#</text>
<text text-anchor="start" x="17.5" y="-627" font-family="Helvetica,sans-Serif" font-size="10.00">CORNER_SIZE</text>
<text text-anchor="start" x="7" y="-612" font-family="Helvetica,sans-Serif" font-size="10.00">#</text>
<text text-anchor="start" x="17.5" y="-612" font-family="Helvetica,sans-Serif" font-size="10.00">TEXT_PADDING</text>
<text text-anchor="start" x="6.5" y="-597" font-family="Helvetica,sans-Serif" font-size="10.00">+</text>
<text text-anchor="start" x="17.5" y="-597" font-family="Helvetica,sans-Serif" font-size="10.00">SFComponent()</text>
<text text-anchor="start" x="6.5" y="-582" font-family="Helvetica,sans-Serif" font-size="10.00">+</text>
<text text-anchor="start" x="17.5" y="-582" font-family="Helvetica,sans-Serif" font-size="10.00">SFComponent()</text>
<text text-anchor="start" x="6.5" y="-567" font-family="Helvetica,sans-Serif" font-size="10.00">+</text>
<text text-anchor="start" x="17.5" y="-567" font-family="Helvetica,sans-Serif" font-size="10.00">~SFComponent()</text>
<text text-anchor="start" x="6.5" y="-552" font-family="Helvetica,sans-Serif" font-size="10.00">+</text>
<text text-anchor="start" x="17.5" y="-552" font-family="Helvetica,sans-Serif" font-size="10.00">draw()</text>
<text text-anchor="start" x="6.5" y="-537" font-family="Helvetica,sans-Serif" font-size="10.00">+</text>
<text text-anchor="start" x="17.5" y="-537" font-family="Helvetica,sans-Serif" font-size="10.00">handleEvent()</text>
<text text-anchor="start" x="6.5" y="-522" font-family="Helvetica,sans-Serif" font-size="10.00">+</text>
<text text-anchor="start" x="17.5" y="-522" font-family="Helvetica,sans-Serif" font-size="10.00">updateView()</text>
<text text-anchor="start" x="6.5" y="-507" font-family="Helvetica,sans-Serif" font-size="10.00">+</text>
<text text-anchor="start" x="17.5" y="-507" font-family="Helvetica,sans-Serif" font-size="10.00">setPosition()</text>
<text text-anchor="start" x="6.5" y="-492" font-family="Helvetica,sans-Serif" font-size="10.00">+</text>
<text text-anchor="start" x="17.5" y="-492" font-family="Helvetica,sans-Serif" font-size="10.00">setSize()</text>
<text text-anchor="start" x="6.5" y="-477" font-family="Helvetica,sans-Serif" font-size="10.00">+</text>
<text text-anchor="start" x="17.5" y="-477" font-family="Helvetica,sans-Serif" font-size="10.00">getPosition()</text>
<text text-anchor="start" x="6.5" y="-462" font-family="Helvetica,sans-Serif" font-size="10.00">+</text>
<text text-anchor="start" x="17.5" y="-462" font-family="Helvetica,sans-Serif" font-size="10.00">getSize()</text>
<text text-anchor="start" x="6.5" y="-447" font-family="Helvetica,sans-Serif" font-size="10.00">+</text>
<text text-anchor="start" x="17.5" y="-447" font-family="Helvetica,sans-Serif" font-size="10.00">contains()</text>
<text text-anchor="start" x="6.5" y="-432" font-family="Helvetica,sans-Serif" font-size="10.00">+</text>
<text text-anchor="start" x="17.5" y="-432" font-family="Helvetica,sans-Serif" font-size="10.00">setVisible()</text>
<text text-anchor="start" x="6.5" y="-417" font-family="Helvetica,sans-Serif" font-size="10.00">+</text>
<text text-anchor="start" x="17.5" y="-417" font-family="Helvetica,sans-Serif" font-size="10.00">setEnabled()</text>
<text text-anchor="start" x="6.5" y="-402" font-family="Helvetica,sans-Serif" font-size="10.00">+</text>
<text text-anchor="start" x="17.5" y="-402" font-family="Helvetica,sans-Serif" font-size="10.00">isComponentVisible()</text>
<text text-anchor="start" x="6.5" y="-387" font-family="Helvetica,sans-Serif" font-size="10.00">+</text>
<text text-anchor="start" x="17.5" y="-387" font-family="Helvetica,sans-Serif" font-size="10.00">isComponentEnabled()</text>
<polygon fill="#666666" stroke="#666666" points="2.5,-727 2.5,-727 121.5,-727 121.5,-727 2.5,-727"/>
<polygon fill="#666666" stroke="#666666" points="2.5,-607 2.5,-607 15.5,-607 15.5,-607 2.5,-607"/>
<polygon fill="#666666" stroke="#666666" points="15.5,-607 15.5,-607 121.5,-607 121.5,-607 15.5,-607"/>
<polygon fill="none" stroke="#666666" points="2,-380 2,-744 121,-744 121,-380 2,-380"/>
</a>
</g>
</g>
<!-- Node3&#45;&gt;Node2 -->
<g id="edge2_Node000002_Node000003" class="edge">
<title>Node3&#45;&gt;Node2</title>
<g id="a_edge2_Node000002_Node000003"><a xlink:title=" ">
<path fill="none" stroke="#63b8ff" d="M61.5,-369.55C61.5,-360.59 61.5,-352.03 61.5,-344.08"/>
<polygon fill="none" stroke="#63b8ff" points="58,-369.82 61.5,-379.82 65,-369.82 58,-369.82"/>
</a>
</g>
</g>
</g>
</svg>
