<?xml version="1.0" encoding="UTF-8" standalone="no"?>
<!DOCTYPE svg PUBLIC "-//W3C//DTD SVG 1.1//EN"
 "http://www.w3.org/Graphics/SVG/1.1/DTD/svg11.dtd">
<!-- Generated by graphviz version 2.43.0 (0)
 -->
<!-- Title: SFComposite::add Pages: 1 -->
<svg width="407pt" height="255pt"
 viewBox="0.00 0.00 407.00 254.82" xmlns="http://www.w3.org/2000/svg" xmlns:xlink="http://www.w3.org/1999/xlink">
<g id="graph0" class="graph" transform="scale(1 1) rotate(0) translate(4 250.82)">
<title>SFComposite::add</title>
<!-- Node1 -->
<g id="Node000001" class="node">
<title>Node1</title>
<g id="a_Node000001"><a xlink:title=" ">
<polygon fill="#999999" stroke="#666666" points="399,-144.5 301,-144.5 301,-125.5 399,-125.5 399,-144.5"/>
<text text-anchor="middle" x="350" y="-132.5" font-family="Helvetica,sans-Serif" font-size="10.00">SFComposite::add</text>
</a>
</g>
</g>
<!-- Node2 -->
<g id="Node000002" class="node">
<title>Node2</title>
<g id="a_Node000002"><a xlink:href="classmonopoly_1_1BoardView.html#a5401ce445dc9d980a7d24df814321f4a" target="_top" xlink:title=" ">
<polygon fill="white" stroke="#666666" points="112,-150 0,-150 0,-120 112,-120 112,-150"/>
<text text-anchor="start" x="8" y="-138" font-family="Helvetica,sans-Serif" font-size="10.00">monopoly::BoardView</text>
<text text-anchor="middle" x="56" y="-127" font-family="Helvetica,sans-Serif" font-size="10.00">::BoardView</text>
</a>
</g>
</g>
<!-- Node1&#45;&gt;Node2 -->
<g id="edge1_Node000001_Node000002" class="edge">
<title>Node1&#45;&gt;Node2</title>
<g id="a_edge1_Node000001_Node000002"><a xlink:title=" ">
<path fill="none" stroke="#63b8ff" d="M339.3,-153.64C326.06,-176.78 299.94,-215.15 265,-231 217.65,-252.49 195.77,-251.54 148,-231 109.6,-214.49 79.81,-172.93 65.79,-150.29"/>
<polygon fill="#63b8ff" stroke="#63b8ff" points="342.42,-155.21 344.17,-144.76 336.29,-151.84 342.42,-155.21"/>
</a>
</g>
</g>
<!-- Node3 -->
<g id="Node000003" class="node">
<title>Node3</title>
<g id="a_Node000003"><a xlink:href="classmonopoly_1_1BoardView.html#acd1028c0e8619c9c356f77fe41d27c64" target="_top" xlink:title=" ">
<polygon fill="white" stroke="#666666" points="265,-222 148,-222 148,-192 265,-192 265,-222"/>
<text text-anchor="start" x="156" y="-210" font-family="Helvetica,sans-Serif" font-size="10.00">monopoly::BoardView</text>
<text text-anchor="middle" x="206.5" y="-199" font-family="Helvetica,sans-Serif" font-size="10.00">::createBottomSquares</text>
</a>
</g>
</g>
<!-- Node1&#45;&gt;Node3 -->
<g id="edge2_Node000001_Node000003" class="edge">
<title>Node1&#45;&gt;Node3</title>
<g id="a_edge2_Node000001_Node000003"><a xlink:title=" ">
<path fill="none" stroke="#63b8ff" d="M324.54,-150.05C308.01,-159.95 285.53,-172.9 265,-183 258.79,-186.06 252.09,-189.08 245.53,-191.91"/>
<polygon fill="#63b8ff" stroke="#63b8ff" points="326.78,-152.78 333.52,-144.62 323.15,-146.79 326.78,-152.78"/>
</a>
</g>
</g>
<!-- Node4 -->
<g id="Node000004" class="node">
<title>Node4</title>
<g id="a_Node000004"><a xlink:href="classmonopoly_1_1BoardView.html#ab54a3957d804fc63231d741694d16506" target="_top" xlink:title=" ">
<polygon fill="white" stroke="#666666" points="264,-174 149,-174 149,-144 264,-144 264,-174"/>
<text text-anchor="start" x="157" y="-162" font-family="Helvetica,sans-Serif" font-size="10.00">monopoly::BoardView</text>
<text text-anchor="middle" x="206.5" y="-151" font-family="Helvetica,sans-Serif" font-size="10.00">::createCornerSquares</text>
</a>
</g>
</g>
<!-- Node1&#45;&gt;Node4 -->
<g id="edge4_Node000001_Node000004" class="edge">
<title>Node1&#45;&gt;Node4</title>
<g id="a_edge4_Node000001_Node000004"><a xlink:title=" ">
<path fill="none" stroke="#63b8ff" d="M290.65,-144.9C281.97,-146.37 273.02,-147.89 264.37,-149.35"/>
<polygon fill="#63b8ff" stroke="#63b8ff" points="291.43,-148.32 300.7,-143.19 290.25,-141.41 291.43,-148.32"/>
</a>
</g>
</g>
<!-- Node5 -->
<g id="Node000005" class="node">
<title>Node5</title>
<g id="a_Node000005"><a xlink:href="classmonopoly_1_1BoardView.html#ae59176912107d91cf66d0a108ec55e9a" target="_top" xlink:title=" ">
<polygon fill="white" stroke="#666666" points="262.5,-126 150.5,-126 150.5,-96 262.5,-96 262.5,-126"/>
<text text-anchor="start" x="158.5" y="-114" font-family="Helvetica,sans-Serif" font-size="10.00">monopoly::BoardView</text>
<text text-anchor="middle" x="206.5" y="-103" font-family="Helvetica,sans-Serif" font-size="10.00">::createLeftSquares</text>
</a>
</g>
</g>
<!-- Node1&#45;&gt;Node5 -->
<g id="edge6_Node000001_Node000005" class="edge">
<title>Node1&#45;&gt;Node5</title>
<g id="a_edge6_Node000001_Node000005"><a xlink:title=" ">
<path fill="none" stroke="#63b8ff" d="M290.82,-125.13C281.59,-123.57 272.06,-121.95 262.89,-120.39"/>
<polygon fill="#63b8ff" stroke="#63b8ff" points="290.25,-128.59 300.7,-126.81 291.43,-121.68 290.25,-128.59"/>
</a>
</g>
</g>
<!-- Node6 -->
<g id="Node000006" class="node">
<title>Node6</title>
<g id="a_Node000006"><a xlink:href="classmonopoly_1_1BoardView.html#a4ee5f8efad8b261898ba695e9fd56937" target="_top" xlink:title=" ">
<polygon fill="white" stroke="#666666" points="262.5,-78 150.5,-78 150.5,-48 262.5,-48 262.5,-78"/>
<text text-anchor="start" x="158.5" y="-66" font-family="Helvetica,sans-Serif" font-size="10.00">monopoly::BoardView</text>
<text text-anchor="middle" x="206.5" y="-55" font-family="Helvetica,sans-Serif" font-size="10.00">::createRightSquares</text>
</a>
</g>
</g>
<!-- Node1&#45;&gt;Node6 -->
<g id="edge8_Node000001_Node000006" class="edge">
<title>Node1&#45;&gt;Node6</title>
<g id="a_edge8_Node000001_Node000006"><a xlink:title=" ">
<path fill="none" stroke="#63b8ff" d="M324.54,-119.95C308.01,-110.05 285.53,-97.1 265,-87 258.79,-83.94 252.09,-80.92 245.53,-78.09"/>
<polygon fill="#63b8ff" stroke="#63b8ff" points="323.15,-123.21 333.52,-125.38 326.78,-117.22 323.15,-123.21"/>
</a>
</g>
</g>
<!-- Node7 -->
<g id="Node000007" class="node">
<title>Node7</title>
<g id="a_Node000007"><a xlink:href="classmonopoly_1_1BoardView.html#a2cf446703b924e79d21b56d07454cf4a" target="_top" xlink:title=" ">
<polygon fill="white" stroke="#666666" points="262.5,-30 150.5,-30 150.5,0 262.5,0 262.5,-30"/>
<text text-anchor="start" x="158.5" y="-18" font-family="Helvetica,sans-Serif" font-size="10.00">monopoly::BoardView</text>
<text text-anchor="middle" x="206.5" y="-7" font-family="Helvetica,sans-Serif" font-size="10.00">::createTopSquares</text>
</a>
</g>
</g>
<!-- Node1&#45;&gt;Node7 -->
<g id="edge10_Node000001_Node000007" class="edge">
<title>Node1&#45;&gt;Node7</title>
<g id="a_edge10_Node000001_Node000007"><a xlink:title=" ">
<path fill="none" stroke="#63b8ff" d="M337.01,-116.84C322.25,-95.69 295.38,-60.86 265,-39 260.35,-35.65 255.15,-32.66 249.85,-30.02"/>
<polygon fill="#63b8ff" stroke="#63b8ff" points="334.22,-118.96 342.74,-125.25 340,-115.02 334.22,-118.96"/>
</a>
</g>
</g>
<!-- Node3&#45;&gt;Node2 -->
<g id="edge3_Node000003_Node000002" class="edge">
<title>Node3&#45;&gt;Node2</title>
<g id="a_edge3_Node000003_Node000002"><a xlink:title=" ">
<path fill="none" stroke="#63b8ff" d="M158.93,-187.98C155.21,-186.34 151.53,-184.66 148,-183 126.19,-172.72 102.07,-159.93 84.15,-150.14"/>
<polygon fill="#63b8ff" stroke="#63b8ff" points="157.6,-191.22 168.17,-191.99 160.39,-184.8 157.6,-191.22"/>
</a>
</g>
</g>
<!-- Node4&#45;&gt;Node2 -->
<g id="edge5_Node000004_Node000002" class="edge">
<title>Node4&#45;&gt;Node2</title>
<g id="a_edge5_Node000004_Node000002"><a xlink:title=" ">
<path fill="none" stroke="#63b8ff" d="M139,-148.25C130.12,-146.82 121.09,-145.36 112.43,-143.96"/>
<polygon fill="#63b8ff" stroke="#63b8ff" points="138.5,-151.72 148.93,-149.86 139.62,-144.81 138.5,-151.72"/>
</a>
</g>
</g>
<!-- Node5&#45;&gt;Node2 -->
<g id="edge7_Node000005_Node000002" class="edge">
<title>Node5&#45;&gt;Node2</title>
<g id="a_edge7_Node000005_Node000002"><a xlink:title=" ">
<path fill="none" stroke="#63b8ff" d="M140.22,-121.55C130.92,-123.05 121.43,-124.59 112.34,-126.06"/>
<polygon fill="#63b8ff" stroke="#63b8ff" points="140.89,-124.99 150.2,-119.94 139.77,-118.08 140.89,-124.99"/>
</a>
</g>
</g>
<!-- Node6&#45;&gt;Node2 -->
<g id="edge9_Node000006_Node000002" class="edge">
<title>Node6&#45;&gt;Node2</title>
<g id="a_edge9_Node000006_Node000002"><a xlink:title=" ">
<path fill="none" stroke="#63b8ff" d="M158.93,-82.02C155.21,-83.66 151.53,-85.34 148,-87 126.19,-97.28 102.07,-110.07 84.15,-119.86"/>
<polygon fill="#63b8ff" stroke="#63b8ff" points="160.39,-85.2 168.17,-78.01 157.6,-78.78 160.39,-85.2"/>
</a>
</g>
</g>
<!-- Node7&#45;&gt;Node2 -->
<g id="edge11_Node000007_Node000002" class="edge">
<title>Node7&#45;&gt;Node2</title>
<g id="a_edge11_Node000007_Node000002"><a xlink:title=" ">
<path fill="none" stroke="#63b8ff" d="M154.58,-34.84C152.31,-36.16 150.1,-37.55 148,-39 114.54,-62.08 83.85,-99.14 68.09,-119.81"/>
<polygon fill="#63b8ff" stroke="#63b8ff" points="156.39,-37.84 163.58,-30.05 153.11,-31.66 156.39,-37.84"/>
</a>
</g>
</g>
</g>
</svg>
