<?xml version="1.0" encoding="UTF-8" standalone="no"?>
<!DOCTYPE svg PUBLIC "-//W3C//DTD SVG 1.1//EN"
 "http://www.w3.org/Graphics/SVG/1.1/DTD/svg11.dtd">
<!-- Generated by graphviz version 2.43.0 (0)
 -->
<!-- Title: SFComposite Pages: 1 -->
<svg width="343pt" height="752pt"
 viewBox="0.00 0.00 342.50 752.00" xmlns="http://www.w3.org/2000/svg" xmlns:xlink="http://www.w3.org/1999/xlink">
<g id="graph0" class="graph" transform="scale(1 1) rotate(0) translate(4 748)">
<title>SFComposite</title>
<!-- Node1 -->
<g id="Node000001" class="node">
<title>Node1</title>
<g id="a_Node000001"><a xlink:title=" ">
<polygon fill="#999999" stroke="transparent" points="206,-344 120,-344 120,-235 206,-235 206,-344"/>
<text text-anchor="start" x="132.5" y="-331.5" font-family="Helvetica,sans-Serif" font-size="10.00">SFComposite</text>
<text text-anchor="start" x="124.5" y="-316.5" font-family="Helvetica,sans-Serif" font-size="10.00">#</text>
<text text-anchor="start" x="135" y="-316.5" font-family="Helvetica,sans-Serif" font-size="10.00">children</text>
<text text-anchor="start" x="124" y="-301.5" font-family="Helvetica,sans-Serif" font-size="10.00">+</text>
<text text-anchor="start" x="135" y="-301.5" font-family="Helvetica,sans-Serif" font-size="10.00">SFComposite()</text>
<text text-anchor="start" x="124" y="-286.5" font-family="Helvetica,sans-Serif" font-size="10.00">+</text>
<text text-anchor="start" x="135" y="-286.5" font-family="Helvetica,sans-Serif" font-size="10.00">SFComposite()</text>
<text text-anchor="start" x="124" y="-271.5" font-family="Helvetica,sans-Serif" font-size="10.00">+</text>
<text text-anchor="start" x="135" y="-271.5" font-family="Helvetica,sans-Serif" font-size="10.00">draw()</text>
<text text-anchor="start" x="124" y="-256.5" font-family="Helvetica,sans-Serif" font-size="10.00">+</text>
<text text-anchor="start" x="135" y="-256.5" font-family="Helvetica,sans-Serif" font-size="10.00">add()</text>
<text text-anchor="start" x="124" y="-241.5" font-family="Helvetica,sans-Serif" font-size="10.00">+</text>
<text text-anchor="start" x="135" y="-241.5" font-family="Helvetica,sans-Serif" font-size="10.00">remove()</text>
<polygon fill="#666666" stroke="#666666" points="120,-326.5 120,-326.5 206,-326.5 206,-326.5 120,-326.5"/>
<polygon fill="#666666" stroke="#666666" points="120,-311.5 120,-311.5 133,-311.5 133,-311.5 120,-311.5"/>
<polygon fill="#666666" stroke="#666666" points="133,-311.5 133,-311.5 206,-311.5 206,-311.5 133,-311.5"/>
<polygon fill="none" stroke="#666666" points="120,-235 120,-344 206,-344 206,-235 120,-235"/>
</a>
</g>
</g>
<!-- Node3 -->
<g id="Node000003" class="node">
<title>Node3</title>
<g id="a_Node000003"><a xlink:href="classBoardSquareComposite.html" target="_top" xlink:title=" ">
<polygon fill="white" stroke="transparent" points="114,-124 0,-124 0,-75 114,-75 114,-124"/>
<text text-anchor="start" x="5" y="-111.5" font-family="Helvetica,sans-Serif" font-size="10.00">BoardSquareComposite</text>
<text text-anchor="start" x="55" y="-96.5" font-family="Helvetica,sans-Serif" font-size="10.00"> </text>
<text text-anchor="start" x="55" y="-81.5" font-family="Helvetica,sans-Serif" font-size="10.00"> </text>
<polygon fill="#666666" stroke="#666666" points="0,-106.5 0,-106.5 114,-106.5 114,-106.5 0,-106.5"/>
<polygon fill="#666666" stroke="#666666" points="0,-91.5 0,-91.5 114,-91.5 114,-91.5 0,-91.5"/>
<polygon fill="none" stroke="#666666" points="0,-75 0,-124 114,-124 114,-75 0,-75"/>
</a>
</g>
</g>
<!-- Node1&#45;&gt;Node3 -->
<g id="edge2_Node000001_Node000003" class="edge">
<title>Node1&#45;&gt;Node3</title>
<g id="a_edge2_Node000001_Node000003"><a xlink:title=" ">
<path fill="none" stroke="#63b8ff" d="M127.85,-226.16C108.18,-191.27 84.78,-149.78 70.41,-124.29"/>
<polygon fill="none" stroke="#63b8ff" points="124.81,-227.89 132.77,-234.88 130.9,-224.45 124.81,-227.89"/>
</a>
</g>
</g>
<!-- Node4 -->
<g id="Node000004" class="node">
<title>Node4</title>
<g id="a_Node000004"><a xlink:href="classWindow.html" target="_top" xlink:title=" ">
<polygon fill="white" stroke="transparent" points="193.5,-124 132.5,-124 132.5,-75 193.5,-75 193.5,-124"/>
<text text-anchor="start" x="145.5" y="-111.5" font-family="Helvetica,sans-Serif" font-size="10.00">Window</text>
<text text-anchor="start" x="161.5" y="-96.5" font-family="Helvetica,sans-Serif" font-size="10.00"> </text>
<text text-anchor="start" x="137" y="-81.5" font-family="Helvetica,sans-Serif" font-size="10.00">+</text>
<text text-anchor="start" x="148" y="-81.5" font-family="Helvetica,sans-Serif" font-size="10.00">Window()</text>
<polygon fill="#666666" stroke="#666666" points="133,-106.5 133,-106.5 194,-106.5 194,-106.5 133,-106.5"/>
<polygon fill="#666666" stroke="#666666" points="133,-91.5 133,-91.5 194,-91.5 194,-91.5 133,-91.5"/>
<polygon fill="none" stroke="#666666" points="132.5,-75 132.5,-124 193.5,-124 193.5,-75 132.5,-75"/>
</a>
</g>
</g>
<!-- Node1&#45;&gt;Node4 -->
<g id="edge3_Node000001_Node000004" class="edge">
<title>Node1&#45;&gt;Node4</title>
<g id="a_edge3_Node000001_Node000004"><a xlink:title=" ">
<path fill="none" stroke="#63b8ff" d="M163,-224.83C163,-190.21 163,-149.45 163,-124.29"/>
<polygon fill="none" stroke="#63b8ff" points="159.5,-224.88 163,-234.88 166.5,-224.88 159.5,-224.88"/>
</a>
</g>
</g>
<!-- Node5 -->
<g id="Node000005" class="node">
<title>Node5</title>
<g id="a_Node000005"><a xlink:href="classmonopoly_1_1BoardView.html" target="_top" xlink:title=" ">
<polygon fill="white" stroke="transparent" points="334.5,-199 211.5,-199 211.5,0 334.5,0 334.5,-199"/>
<text text-anchor="start" x="225.5" y="-186.5" font-family="Helvetica,sans-Serif" font-size="10.00">monopoly::BoardView</text>
<text text-anchor="start" x="271.5" y="-171.5" font-family="Helvetica,sans-Serif" font-size="10.00"> </text>
<text text-anchor="start" x="216" y="-156.5" font-family="Helvetica,sans-Serif" font-size="10.00">+</text>
<text text-anchor="start" x="227" y="-156.5" font-family="Helvetica,sans-Serif" font-size="10.00">BoardView()</text>
<text text-anchor="start" x="216" y="-141.5" font-family="Helvetica,sans-Serif" font-size="10.00">+</text>
<text text-anchor="start" x="227" y="-141.5" font-family="Helvetica,sans-Serif" font-size="10.00">createBottomSquares()</text>
<text text-anchor="start" x="216" y="-126.5" font-family="Helvetica,sans-Serif" font-size="10.00">+</text>
<text text-anchor="start" x="227" y="-126.5" font-family="Helvetica,sans-Serif" font-size="10.00">createLeftSquares()</text>
<text text-anchor="start" x="216" y="-111.5" font-family="Helvetica,sans-Serif" font-size="10.00">+</text>
<text text-anchor="start" x="227" y="-111.5" font-family="Helvetica,sans-Serif" font-size="10.00">createTopSquares()</text>
<text text-anchor="start" x="216" y="-96.5" font-family="Helvetica,sans-Serif" font-size="10.00">+</text>
<text text-anchor="start" x="227" y="-96.5" font-family="Helvetica,sans-Serif" font-size="10.00">createRightSquares()</text>
<text text-anchor="start" x="216" y="-81.5" font-family="Helvetica,sans-Serif" font-size="10.00">+</text>
<text text-anchor="start" x="227" y="-81.5" font-family="Helvetica,sans-Serif" font-size="10.00">createCornerSquares()</text>
<text text-anchor="start" x="216" y="-66.5" font-family="Helvetica,sans-Serif" font-size="10.00">+</text>
<text text-anchor="start" x="227" y="-66.5" font-family="Helvetica,sans-Serif" font-size="10.00">handleEvent()</text>
<text text-anchor="start" x="216" y="-51.5" font-family="Helvetica,sans-Serif" font-size="10.00">+</text>
<text text-anchor="start" x="227" y="-51.5" font-family="Helvetica,sans-Serif" font-size="10.00">updatePlayerAtSquare()</text>
<text text-anchor="start" x="216" y="-36.5" font-family="Helvetica,sans-Serif" font-size="10.00">+</text>
<text text-anchor="start" x="227" y="-36.5" font-family="Helvetica,sans-Serif" font-size="10.00">updateHouseOnStreet()</text>
<text text-anchor="start" x="216" y="-21.5" font-family="Helvetica,sans-Serif" font-size="10.00">+</text>
<text text-anchor="start" x="227" y="-21.5" font-family="Helvetica,sans-Serif" font-size="10.00">findSquareById()</text>
<text text-anchor="start" x="216" y="-6.5" font-family="Helvetica,sans-Serif" font-size="10.00">+</text>
<text text-anchor="start" x="227" y="-6.5" font-family="Helvetica,sans-Serif" font-size="10.00">updateView()</text>
<polygon fill="#666666" stroke="#666666" points="212,-181.5 212,-181.5 335,-181.5 335,-181.5 212,-181.5"/>
<polygon fill="#666666" stroke="#666666" points="212,-166.5 212,-166.5 335,-166.5 335,-166.5 212,-166.5"/>
<polygon fill="none" stroke="#666666" points="211.5,0 211.5,-199 334.5,-199 334.5,0 211.5,0"/>
</a>
</g>
</g>
<!-- Node1&#45;&gt;Node5 -->
<g id="edge4_Node000001_Node000005" class="edge">
<title>Node1&#45;&gt;Node5</title>
<g id="a_edge4_Node000001_Node000005"><a xlink:title=" ">
<path fill="none" stroke="#63b8ff" d="M199.53,-226.06C204.58,-217.44 209.85,-208.43 215.16,-199.35"/>
<polygon fill="none" stroke="#63b8ff" points="196.4,-224.48 194.37,-234.88 202.45,-228.01 196.4,-224.48"/>
</a>
</g>
</g>
<!-- Node2 -->
<g id="Node000002" class="node">
<title>Node2</title>
<g id="a_Node000002"><a xlink:href="classSFComponent.html" target="_top" xlink:title=" ">
<polygon fill="white" stroke="transparent" points="222.5,-744 103.5,-744 103.5,-380 222.5,-380 222.5,-744"/>
<text text-anchor="start" x="131.5" y="-732" font-family="Helvetica,sans-Serif" font-size="10.00">SFComponent</text>
<text text-anchor="start" x="108.5" y="-717" font-family="Helvetica,sans-Serif" font-size="10.00">#</text>
<text text-anchor="start" x="119" y="-717" font-family="Helvetica,sans-Serif" font-size="10.00">position</text>
<text text-anchor="start" x="108.5" y="-702" font-family="Helvetica,sans-Serif" font-size="10.00">#</text>
<text text-anchor="start" x="119" y="-702" font-family="Helvetica,sans-Serif" font-size="10.00">size</text>
<text text-anchor="start" x="108.5" y="-687" font-family="Helvetica,sans-Serif" font-size="10.00">#</text>
<text text-anchor="start" x="119" y="-687" font-family="Helvetica,sans-Serif" font-size="10.00">isVisible</text>
<text text-anchor="start" x="108.5" y="-672" font-family="Helvetica,sans-Serif" font-size="10.00">#</text>
<text text-anchor="start" x="119" y="-672" font-family="Helvetica,sans-Serif" font-size="10.00">isEnabled</text>
<text text-anchor="start" x="108.5" y="-657" font-family="Helvetica,sans-Serif" font-size="10.00">#</text>
<text text-anchor="start" x="119" y="-657" font-family="Helvetica,sans-Serif" font-size="10.00">REGULAR_WIDTH</text>
<text text-anchor="start" x="108.5" y="-642" font-family="Helvetica,sans-Serif" font-size="10.00">#</text>
<text text-anchor="start" x="119" y="-642" font-family="Helvetica,sans-Serif" font-size="10.00">REGULAR_HEIGHT</text>
<text text-anchor="start" x="108.5" y="-627" font-family="Helvetica,sans-Serif" font-size="10.00">#</text>
<text text-anchor="start" x="119" y="-627" font-family="Helvetica,sans-Serif" font-size="10.00">CORNER_SIZE</text>
<text text-anchor="start" x="108.5" y="-612" font-family="Helvetica,sans-Serif" font-size="10.00">#</text>
<text text-anchor="start" x="119" y="-612" font-family="Helvetica,sans-Serif" font-size="10.00">TEXT_PADDING</text>
<text text-anchor="start" x="108" y="-597" font-family="Helvetica,sans-Serif" font-size="10.00">+</text>
<text text-anchor="start" x="119" y="-597" font-family="Helvetica,sans-Serif" font-size="10.00">SFComponent()</text>
<text text-anchor="start" x="108" y="-582" font-family="Helvetica,sans-Serif" font-size="10.00">+</text>
<text text-anchor="start" x="119" y="-582" font-family="Helvetica,sans-Serif" font-size="10.00">SFComponent()</text>
<text text-anchor="start" x="108" y="-567" font-family="Helvetica,sans-Serif" font-size="10.00">+</text>
<text text-anchor="start" x="119" y="-567" font-family="Helvetica,sans-Serif" font-size="10.00">~SFComponent()</text>
<text text-anchor="start" x="108" y="-552" font-family="Helvetica,sans-Serif" font-size="10.00">+</text>
<text text-anchor="start" x="119" y="-552" font-family="Helvetica,sans-Serif" font-size="10.00">draw()</text>
<text text-anchor="start" x="108" y="-537" font-family="Helvetica,sans-Serif" font-size="10.00">+</text>
<text text-anchor="start" x="119" y="-537" font-family="Helvetica,sans-Serif" font-size="10.00">handleEvent()</text>
<text text-anchor="start" x="108" y="-522" font-family="Helvetica,sans-Serif" font-size="10.00">+</text>
<text text-anchor="start" x="119" y="-522" font-family="Helvetica,sans-Serif" font-size="10.00">updateView()</text>
<text text-anchor="start" x="108" y="-507" font-family="Helvetica,sans-Serif" font-size="10.00">+</text>
<text text-anchor="start" x="119" y="-507" font-family="Helvetica,sans-Serif" font-size="10.00">setPosition()</text>
<text text-anchor="start" x="108" y="-492" font-family="Helvetica,sans-Serif" font-size="10.00">+</text>
<text text-anchor="start" x="119" y="-492" font-family="Helvetica,sans-Serif" font-size="10.00">setSize()</text>
<text text-anchor="start" x="108" y="-477" font-family="Helvetica,sans-Serif" font-size="10.00">+</text>
<text text-anchor="start" x="119" y="-477" font-family="Helvetica,sans-Serif" font-size="10.00">getPosition()</text>
<text text-anchor="start" x="108" y="-462" font-family="Helvetica,sans-Serif" font-size="10.00">+</text>
<text text-anchor="start" x="119" y="-462" font-family="Helvetica,sans-Serif" font-size="10.00">getSize()</text>
<text text-anchor="start" x="108" y="-447" font-family="Helvetica,sans-Serif" font-size="10.00">+</text>
<text text-anchor="start" x="119" y="-447" font-family="Helvetica,sans-Serif" font-size="10.00">contains()</text>
<text text-anchor="start" x="108" y="-432" font-family="Helvetica,sans-Serif" font-size="10.00">+</text>
<text text-anchor="start" x="119" y="-432" font-family="Helvetica,sans-Serif" font-size="10.00">setVisible()</text>
<text text-anchor="start" x="108" y="-417" font-family="Helvetica,sans-Serif" font-size="10.00">+</text>
<text text-anchor="start" x="119" y="-417" font-family="Helvetica,sans-Serif" font-size="10.00">setEnabled()</text>
<text text-anchor="start" x="108" y="-402" font-family="Helvetica,sans-Serif" font-size="10.00">+</text>
<text text-anchor="start" x="119" y="-402" font-family="Helvetica,sans-Serif" font-size="10.00">isComponentVisible()</text>
<text text-anchor="start" x="108" y="-387" font-family="Helvetica,sans-Serif" font-size="10.00">+</text>
<text text-anchor="start" x="119" y="-387" font-family="Helvetica,sans-Serif" font-size="10.00">isComponentEnabled()</text>
<polygon fill="#666666" stroke="#666666" points="104,-727 104,-727 223,-727 223,-727 104,-727"/>
<polygon fill="#666666" stroke="#666666" points="104,-607 104,-607 117,-607 117,-607 104,-607"/>
<polygon fill="#666666" stroke="#666666" points="117,-607 117,-607 223,-607 223,-607 117,-607"/>
<polygon fill="none" stroke="#666666" points="103.5,-380 103.5,-744 222.5,-744 222.5,-380 103.5,-380"/>
</a>
</g>
</g>
<!-- Node2&#45;&gt;Node1 -->
<g id="edge1_Node000001_Node000002" class="edge">
<title>Node2&#45;&gt;Node1</title>
<g id="a_edge1_Node000001_Node000002"><a xlink:title=" ">
<path fill="none" stroke="#63b8ff" d="M163,-369.55C163,-360.59 163,-352.03 163,-344.08"/>
<polygon fill="none" stroke="#63b8ff" points="159.5,-369.82 163,-379.82 166.5,-369.82 159.5,-369.82"/>
</a>
</g>
</g>
</g>
</svg>
