<?xml version="1.0" encoding="UTF-8" standalone="no"?>
<!DOCTYPE svg PUBLIC "-//W3C//DTD SVG 1.1//EN"
 "http://www.w3.org/Graphics/SVG/1.1/DTD/svg11.dtd">
<!-- Generated by graphviz version 2.43.0 (0)
 -->
<!-- Title: GoSquare::handleEvent Pages: 1 -->
<svg width="307pt" height="76pt"
 viewBox="0.00 0.00 307.00 75.50" xmlns="http://www.w3.org/2000/svg" xmlns:xlink="http://www.w3.org/1999/xlink">
<g id="graph0" class="graph" transform="scale(1 1) rotate(0) translate(4 71.5)">
<title>GoSquare::handleEvent</title>
<!-- Node1 -->
<g id="Node000001" class="node">
<title>Node1</title>
<g id="a_Node000001"><a xlink:title=" ">
<polygon fill="#999999" stroke="#666666" points="120,-45.5 0,-45.5 0,-26.5 120,-26.5 120,-45.5"/>
<text text-anchor="middle" x="60" y="-33.5" font-family="Helvetica,sans-Serif" font-size="10.00">GoSquare::handleEvent</text>
</a>
</g>
</g>
<!-- Node2 -->
<g id="Node000002" class="node">
<title>Node2</title>
<g id="a_Node000002"><a xlink:href="classSFComponent.html#acb704b9ca82bbfe34d6e10bed782c148" target="_top" xlink:title=" ">
<polygon fill="white" stroke="#666666" points="288.5,-67.5 166.5,-67.5 166.5,-48.5 288.5,-48.5 288.5,-67.5"/>
<text text-anchor="middle" x="227.5" y="-55.5" font-family="Helvetica,sans-Serif" font-size="10.00">SFComponent::contains</text>
</a>
</g>
</g>
<!-- Node1&#45;&gt;Node2 -->
<g id="edge1_Node000001_Node000002" class="edge">
<title>Node1&#45;&gt;Node2</title>
<g id="a_edge1_Node000001_Node000002"><a xlink:title=" ">
<path fill="none" stroke="#63b8ff" d="M120.28,-43.88C131.95,-45.43 144.29,-47.07 156.28,-48.67"/>
<polygon fill="#63b8ff" stroke="#63b8ff" points="155.87,-52.14 166.24,-49.99 156.79,-45.2 155.87,-52.14"/>
</a>
</g>
</g>
<!-- Node3 -->
<g id="Node000003" class="node">
<title>Node3</title>
<g id="a_Node000003"><a xlink:href="classSFComponent.html#ab4247b7184bb170f478243ffc53b07a6" target="_top" xlink:title=" ">
<polygon fill="white" stroke="#666666" points="299,-30 156,-30 156,0 299,0 299,-30"/>
<text text-anchor="start" x="164" y="-18" font-family="Helvetica,sans-Serif" font-size="10.00">SFComponent::isComponent</text>
<text text-anchor="middle" x="227.5" y="-7" font-family="Helvetica,sans-Serif" font-size="10.00">Enabled</text>
</a>
</g>
</g>
<!-- Node1&#45;&gt;Node3 -->
<g id="edge2_Node000001_Node000003" class="edge">
<title>Node1&#45;&gt;Node3</title>
<g id="a_edge2_Node000001_Node000003"><a xlink:title=" ">
<path fill="none" stroke="#63b8ff" d="M120.28,-28.48C128.55,-27.43 137.16,-26.34 145.73,-25.25"/>
<polygon fill="#63b8ff" stroke="#63b8ff" points="146.29,-28.71 155.77,-23.97 145.41,-21.76 146.29,-28.71"/>
</a>
</g>
</g>
</g>
</svg>
