<?xml version="1.0" encoding="UTF-8" standalone="no"?>
<!DOCTYPE svg PUBLIC "-//W3C//DTD SVG 1.1//EN"
 "http://www.w3.org/Graphics/SVG/1.1/DTD/svg11.dtd">
<!-- Generated by graphviz version 2.43.0 (0)
 -->
<!-- Title: monopoly::GameModel::payRent Pages: 1 -->
<svg width="488pt" height="310pt"
 viewBox="0.00 0.00 488.00 310.00" xmlns="http://www.w3.org/2000/svg" xmlns:xlink="http://www.w3.org/1999/xlink">

<svg id="main" version="1.1" xmlns="http://www.w3.org/2000/svg" xmlns:xlink="http://www.w3.org/1999/xlink" xml:space="preserve" onload="init(evt)">
<style type="text/css"><![CDATA[
.node, .edge {opacity: 0.7;}
.node.selected, .edge.selected {opacity: 1;}
.edge:hover path { stroke: red; }
.edge:hover polygon { stroke: red; fill: red; }
]]></style>
<script type="application/ecmascript" xlink:href="svg.min.js"/>
<svg id="graph" class="graph">
<g id="graph0" class="graph" transform="scale(1 1) rotate(0) translate(4 306)">
<title>monopoly::GameModel::payRent</title>
<!-- Node1 -->
<g id="Node000001" class="node">
<title>Node1</title>
<g id="a_Node000001"><a xlink:title="Process rent payment.">
<polygon fill="#999999" stroke="#666666" points="117,-173.5 0,-173.5 0,-143.5 117,-143.5 117,-173.5"/>
<text text-anchor="start" x="8" y="-161.5" font-family="Helvetica,sans-Serif" font-size="10.00">monopoly::GameModel</text>
<text text-anchor="middle" x="58.5" y="-150.5" font-family="Helvetica,sans-Serif" font-size="10.00">::payRent</text>
</a>
</g>
</g>
<!-- Node2 -->
<g id="Node000002" class="node">
<title>Node2</title>
<g id="a_Node000002"><a xlink:href="classmonopoly_1_1Player.html#a3ac4e53730a8d5f12ee3f9ffd1d9e528" target="_top" xlink:title="Checks if player can afford a payment.">
<polygon fill="white" stroke="#666666" points="293,-302 153,-302 153,-283 293,-283 293,-302"/>
<text text-anchor="middle" x="223" y="-290" font-family="Helvetica,sans-Serif" font-size="10.00">monopoly::Player::canAfford</text>
</a>
</g>
</g>
<!-- Node1&#45;&gt;Node2 -->
<g id="edge1_Node000001_Node000002" class="edge">
<title>Node1&#45;&gt;Node2</title>
<g id="a_edge1_Node000001_Node000002"><a xlink:title=" ">
<path fill="none" stroke="#63b8ff" d="M67.66,-173.72C81.73,-198.48 112.93,-247.33 153,-273.5 156.15,-275.56 159.52,-277.39 163.02,-279.03"/>
<polygon fill="#63b8ff" stroke="#63b8ff" points="161.91,-282.36 172.49,-282.93 164.57,-275.89 161.91,-282.36"/>
</a>
</g>
</g>
<!-- Node3 -->
<g id="Node000003" class="node">
<title>Node3</title>
<g id="a_Node000003"><a xlink:href="classmonopoly_1_1Player.html#a05d74a839e1ef637d52e77bc39f5bb4f" target="_top" xlink:title="Attempts to decrease player&#39;s balance.">
<polygon fill="white" stroke="#666666" points="292,-264.5 154,-264.5 154,-234.5 292,-234.5 292,-264.5"/>
<text text-anchor="start" x="162" y="-252.5" font-family="Helvetica,sans-Serif" font-size="10.00">monopoly::Player::decrease</text>
<text text-anchor="middle" x="223" y="-241.5" font-family="Helvetica,sans-Serif" font-size="10.00">Balance</text>
</a>
</g>
</g>
<!-- Node1&#45;&gt;Node3 -->
<g id="edge2_Node000001_Node000003" class="edge">
<title>Node1&#45;&gt;Node3</title>
<g id="a_edge2_Node000001_Node000003"><a xlink:title=" ">
<path fill="none" stroke="#63b8ff" d="M77.46,-173.77C95.57,-188.58 124.81,-210.89 153,-225.5 156.45,-227.29 160.06,-228.99 163.74,-230.6"/>
<polygon fill="#63b8ff" stroke="#63b8ff" points="162.43,-233.85 173.01,-234.43 165.1,-227.38 162.43,-233.85"/>
</a>
</g>
</g>
<!-- Node4 -->
<g id="Node000004" class="node">
<title>Node4</title>
<g id="a_Node000004"><a xlink:href="classmonopoly_1_1Property.html#abca64bbb5584d4fd1667cb27a31b42a7" target="_top" xlink:title="Gets the property&#39;s base rent amount.">
<polygon fill="white" stroke="#666666" points="273.5,-216.5 172.5,-216.5 172.5,-186.5 273.5,-186.5 273.5,-216.5"/>
<text text-anchor="start" x="180.5" y="-204.5" font-family="Helvetica,sans-Serif" font-size="10.00">monopoly::Property</text>
<text text-anchor="middle" x="223" y="-193.5" font-family="Helvetica,sans-Serif" font-size="10.00">::getBaseRent</text>
</a>
</g>
</g>
<!-- Node1&#45;&gt;Node4 -->
<g id="edge3_Node000001_Node000004" class="edge">
<title>Node1&#45;&gt;Node4</title>
<g id="a_edge3_Node000001_Node000004"><a xlink:title=" ">
<path fill="none" stroke="#63b8ff" d="M116.33,-173.54C131.35,-177.51 147.59,-181.81 162.73,-185.82"/>
<polygon fill="#63b8ff" stroke="#63b8ff" points="161.94,-189.23 172.5,-188.4 163.73,-182.46 161.94,-189.23"/>
</a>
</g>
</g>
<!-- Node5 -->
<g id="Node000005" class="node">
<title>Node5</title>
<g id="a_Node000005"><a xlink:href="classmonopoly_1_1Player.html#a25b1794379aa66e656ba1ba9632ff76e" target="_top" xlink:title=" ">
<polygon fill="white" stroke="#666666" points="283,-168 163,-168 163,-149 283,-149 283,-168"/>
<text text-anchor="middle" x="223" y="-156" font-family="Helvetica,sans-Serif" font-size="10.00">monopoly::Player::getId</text>
</a>
</g>
</g>
<!-- Node1&#45;&gt;Node5 -->
<g id="edge4_Node000001_Node000005" class="edge">
<title>Node1&#45;&gt;Node5</title>
<g id="a_edge4_Node000001_Node000005"><a xlink:title=" ">
<path fill="none" stroke="#63b8ff" d="M117.25,-158.5C128.68,-158.5 140.79,-158.5 152.56,-158.5"/>
<polygon fill="#63b8ff" stroke="#63b8ff" points="152.79,-162 162.79,-158.5 152.79,-155 152.79,-162"/>
</a>
</g>
</g>
<!-- Node6 -->
<g id="Node000006" class="node">
<title>Node6</title>
<g id="a_Node000006"><a xlink:href="classmonopoly_1_1Square.html#a6245251a3e881d9066cf7558d8b0d793" target="_top" xlink:title="Gets the unique identifier of the square.">
<polygon fill="white" stroke="#666666" points="284.5,-131 161.5,-131 161.5,-112 284.5,-112 284.5,-131"/>
<text text-anchor="middle" x="223" y="-119" font-family="Helvetica,sans-Serif" font-size="10.00">monopoly::Square::getId</text>
</a>
</g>
</g>
<!-- Node1&#45;&gt;Node6 -->
<g id="edge5_Node000001_Node000006" class="edge">
<title>Node1&#45;&gt;Node6</title>
<g id="a_edge5_Node000001_Node000006"><a xlink:title=" ">
<path fill="none" stroke="#63b8ff" d="M117.25,-145.35C134.47,-141.43 153.24,-137.16 170.07,-133.32"/>
<polygon fill="#63b8ff" stroke="#63b8ff" points="171.29,-136.64 180.26,-131 169.74,-129.81 171.29,-136.64"/>
</a>
</g>
</g>
<!-- Node7 -->
<g id="Node000007" class="node">
<title>Node7</title>
<g id="a_Node000007"><a xlink:href="classmonopoly_1_1GameModel.html#a9517bcebc3159212d90ea38b6d23aeb9" target="_top" xlink:title="Count railroads owned by player.">
<polygon fill="white" stroke="#666666" points="281.5,-93.5 164.5,-93.5 164.5,-63.5 281.5,-63.5 281.5,-93.5"/>
<text text-anchor="start" x="172.5" y="-81.5" font-family="Helvetica,sans-Serif" font-size="10.00">monopoly::GameModel</text>
<text text-anchor="middle" x="223" y="-70.5" font-family="Helvetica,sans-Serif" font-size="10.00">::getRailroadCount</text>
</a>
</g>
</g>
<!-- Node1&#45;&gt;Node7 -->
<g id="edge6_Node000001_Node000007" class="edge">
<title>Node1&#45;&gt;Node7</title>
<g id="a_edge6_Node000001_Node000007"><a xlink:title=" ">
<path fill="none" stroke="#63b8ff" d="M82.29,-143.49C100.84,-131.67 127.95,-115.28 153,-103.5 157.57,-101.35 162.37,-99.27 167.23,-97.29"/>
<polygon fill="#63b8ff" stroke="#63b8ff" points="168.58,-100.52 176.6,-93.6 166.01,-94 168.58,-100.52"/>
</a>
</g>
</g>
<!-- Node8 -->
<g id="Node000008" class="node">
<title>Node8</title>
<g id="a_Node000008"><a xlink:href="classmonopoly_1_1GameModel.html#a2c5accb7c47990bf66995aa466813674" target="_top" xlink:title="Handle player bankruptcy process.">
<polygon fill="white" stroke="#666666" points="281.5,-45.5 164.5,-45.5 164.5,-15.5 281.5,-15.5 281.5,-45.5"/>
<text text-anchor="start" x="172.5" y="-33.5" font-family="Helvetica,sans-Serif" font-size="10.00">monopoly::GameModel</text>
<text text-anchor="middle" x="223" y="-22.5" font-family="Helvetica,sans-Serif" font-size="10.00">::handleBankruptcy</text>
</a>
</g>
</g>
<!-- Node1&#45;&gt;Node8 -->
<g id="edge7_Node000001_Node000008" class="edge">
<title>Node1&#45;&gt;Node8</title>
<g id="a_edge7_Node000001_Node000008"><a xlink:title=" ">
<path fill="none" stroke="#63b8ff" d="M69.45,-143.22C84.82,-120.74 116.4,-78.83 153,-54.5 155.38,-52.92 157.87,-51.43 160.44,-50.03"/>
<polygon fill="#63b8ff" stroke="#63b8ff" points="161.99,-53.17 169.41,-45.61 158.89,-46.89 161.99,-53.17"/>
</a>
</g>
</g>
<!-- Node9 -->
<g id="Node000009" class="node">
<title>Node9</title>
<g id="a_Node000009"><a xlink:href="classmonopoly_1_1GameModel.html#a66f0223a16582dab7e8a7224df23a380" target="_top" xlink:title="Check if game has been won.">
<polygon fill="white" stroke="#666666" points="463,-67.5 346,-67.5 346,-37.5 463,-37.5 463,-67.5"/>
<text text-anchor="start" x="354" y="-55.5" font-family="Helvetica,sans-Serif" font-size="10.00">monopoly::GameModel</text>
<text text-anchor="middle" x="404.5" y="-44.5" font-family="Helvetica,sans-Serif" font-size="10.00">::isGameWon</text>
</a>
</g>
</g>
<!-- Node8&#45;&gt;Node9 -->
<g id="edge8_Node000008_Node000009" class="edge">
<title>Node8&#45;&gt;Node9</title>
<g id="a_edge8_Node000008_Node000009"><a xlink:title=" ">
<path fill="none" stroke="#63b8ff" d="M281.78,-37.58C298.92,-39.68 317.84,-42 335.56,-44.17"/>
<polygon fill="#63b8ff" stroke="#63b8ff" points="335.47,-47.69 345.83,-45.43 336.33,-40.74 335.47,-47.69"/>
</a>
</g>
</g>
<!-- Node10 -->
<g id="Node000010" class="node">
<title>Node10</title>
<g id="a_Node000010"><a xlink:href="classmonopoly_1_1Player.html#a7b6118b0ebe2e5ac2effeda0847e298a" target="_top" xlink:title=" ">
<polygon fill="white" stroke="#666666" points="480,-19 329,-19 329,0 480,0 480,-19"/>
<text text-anchor="middle" x="404.5" y="-7" font-family="Helvetica,sans-Serif" font-size="10.00">monopoly::Player::setBankrupt</text>
</a>
</g>
</g>
<!-- Node8&#45;&gt;Node10 -->
<g id="edge9_Node000008_Node000010" class="edge">
<title>Node8&#45;&gt;Node10</title>
<g id="a_edge9_Node000008_Node000010"><a xlink:title=" ">
<path fill="none" stroke="#63b8ff" d="M281.78,-23.74C293.59,-22.36 306.25,-20.88 318.77,-19.41"/>
<polygon fill="#63b8ff" stroke="#63b8ff" points="319.24,-22.88 328.77,-18.24 318.43,-15.93 319.24,-22.88"/>
</a>
</g>
</g>
</g>
</svg>
</svg>

<style type='text/css'>
<![CDATA[
[data-mouse-over-selected='false'] { opacity: 0.7; }
[data-mouse-over-selected='true']  { opacity: 1.0; }
]]>
</style>
<script type="application/ecmascript"><![CDATA[
document.addEventListener('DOMContentLoaded', (event) => {
  highlightEdges();
  highlightAdjacentNodes();
});
]]></script>
</svg>
