<?xml version="1.0" encoding="UTF-8" standalone="no"?>
<!DOCTYPE svg PUBLIC "-//W3C//DTD SVG 1.1//EN"
 "http://www.w3.org/Graphics/SVG/1.1/DTD/svg11.dtd">
<!-- Generated by graphviz version 2.43.0 (0)
 -->
<!-- Title: monopoly::StartState::handleKeyRelease Pages: 1 -->
<svg width="616pt" height="230pt"
 viewBox="0.00 0.00 616.00 230.00" xmlns="http://www.w3.org/2000/svg" xmlns:xlink="http://www.w3.org/1999/xlink">
<g id="graph0" class="graph" transform="scale(1 1) rotate(0) translate(4 226)">
<title>monopoly::StartState::handleKeyRelease</title>
<!-- Node1 -->
<g id="Node000001" class="node">
<title>Node1</title>
<g id="a_Node000001"><a xlink:title=" ">
<polygon fill="#999999" stroke="#666666" points="109,-126 0,-126 0,-96 109,-96 109,-126"/>
<text text-anchor="start" x="8" y="-114" font-family="Helvetica,sans-Serif" font-size="10.00">monopoly::StartState</text>
<text text-anchor="middle" x="54.5" y="-103" font-family="Helvetica,sans-Serif" font-size="10.00">::handleKeyRelease</text>
</a>
</g>
</g>
<!-- Node2 -->
<g id="Node000002" class="node">
<title>Node2</title>
<g id="a_Node000002"><a xlink:href="classmonopoly_1_1GameState.html#aaa7ff9309d3c14dcf9c396f311189355" target="_top" xlink:title=" ">
<polygon fill="white" stroke="#666666" points="275,-222 161,-222 161,-192 275,-192 275,-222"/>
<text text-anchor="start" x="169" y="-210" font-family="Helvetica,sans-Serif" font-size="10.00">monopoly::GameState</text>
<text text-anchor="middle" x="218" y="-199" font-family="Helvetica,sans-Serif" font-size="10.00">::changeState</text>
</a>
</g>
</g>
<!-- Node1&#45;&gt;Node2 -->
<g id="edge1_Node000001_Node000002" class="edge">
<title>Node1&#45;&gt;Node2</title>
<g id="a_edge1_Node000001_Node000002"><a xlink:title=" ">
<path fill="none" stroke="#63b8ff" d="M70.75,-126.14C87.64,-142.19 116.29,-167.33 145,-183 148.26,-184.78 151.67,-186.45 155.16,-188.03"/>
<polygon fill="#63b8ff" stroke="#63b8ff" points="153.97,-191.33 164.54,-191.97 156.68,-184.87 153.97,-191.33"/>
</a>
</g>
</g>
<!-- Node4 -->
<g id="Node000004" class="node">
<title>Node4</title>
<g id="a_Node000004"><a xlink:href="classmonopoly_1_1RollDiceState.html#a770af9ae84cdcd7089e6e89d4eb5d13f" target="_top" xlink:title=" ">
<polygon fill="white" stroke="#666666" points="280.5,-174 155.5,-174 155.5,-144 280.5,-144 280.5,-174"/>
<text text-anchor="start" x="163.5" y="-162" font-family="Helvetica,sans-Serif" font-size="10.00">monopoly::RollDiceState</text>
<text text-anchor="middle" x="218" y="-151" font-family="Helvetica,sans-Serif" font-size="10.00">::getInstance</text>
</a>
</g>
</g>
<!-- Node1&#45;&gt;Node4 -->
<g id="edge3_Node000001_Node000004" class="edge">
<title>Node1&#45;&gt;Node4</title>
<g id="a_edge3_Node000001_Node000004"><a xlink:title=" ">
<path fill="none" stroke="#63b8ff" d="M106.16,-126.06C122.24,-130.84 140.18,-136.17 156.87,-141.13"/>
<polygon fill="#63b8ff" stroke="#63b8ff" points="155.94,-144.5 166.52,-144 157.93,-137.79 155.94,-144.5"/>
</a>
</g>
</g>
<!-- Node6 -->
<g id="Node000006" class="node">
<title>Node6</title>
<g id="a_Node000006"><a xlink:href="classmonopoly_1_1GameController.html#a6aea9478f70668e36b6e93d21beb4e3f" target="_top" xlink:title="Get the current game view.">
<polygon fill="white" stroke="#666666" points="284.5,-126 151.5,-126 151.5,-96 284.5,-96 284.5,-126"/>
<text text-anchor="start" x="159.5" y="-114" font-family="Helvetica,sans-Serif" font-size="10.00">monopoly::GameController</text>
<text text-anchor="middle" x="218" y="-103" font-family="Helvetica,sans-Serif" font-size="10.00">::getView</text>
</a>
</g>
</g>
<!-- Node1&#45;&gt;Node6 -->
<g id="edge5_Node000001_Node000006" class="edge">
<title>Node1&#45;&gt;Node6</title>
<g id="a_edge5_Node000001_Node000006"><a xlink:title=" ">
<path fill="none" stroke="#63b8ff" d="M109.28,-111C119.5,-111 130.37,-111 141.13,-111"/>
<polygon fill="#63b8ff" stroke="#63b8ff" points="141.38,-114.5 151.38,-111 141.38,-107.5 141.38,-114.5"/>
</a>
</g>
</g>
<!-- Node7 -->
<g id="Node000007" class="node">
<title>Node7</title>
<g id="a_Node000007"><a xlink:href="classmonopoly_1_1GameController.html#a834cde26f46ef29b88b7c9c94159ab1d" target="_top" xlink:title="Initialize the game model with specified number of players.">
<polygon fill="white" stroke="#666666" points="284.5,-78 151.5,-78 151.5,-48 284.5,-48 284.5,-78"/>
<text text-anchor="start" x="159.5" y="-66" font-family="Helvetica,sans-Serif" font-size="10.00">monopoly::GameController</text>
<text text-anchor="middle" x="218" y="-55" font-family="Helvetica,sans-Serif" font-size="10.00">::initModel</text>
</a>
</g>
</g>
<!-- Node1&#45;&gt;Node7 -->
<g id="edge6_Node000001_Node000007" class="edge">
<title>Node1&#45;&gt;Node7</title>
<g id="a_edge6_Node000001_Node000007"><a xlink:title=" ">
<path fill="none" stroke="#63b8ff" d="M106.16,-95.94C122.24,-91.16 140.18,-85.83 156.87,-80.87"/>
<polygon fill="#63b8ff" stroke="#63b8ff" points="157.93,-84.21 166.52,-78 155.94,-77.5 157.93,-84.21"/>
</a>
</g>
</g>
<!-- Node8 -->
<g id="Node000008" class="node">
<title>Node8</title>
<g id="a_Node000008"><a xlink:href="classmonopoly_1_1GameView.html#a6c393c83839219855841d5426496d281" target="_top" xlink:title="Update player token position on board.">
<polygon fill="white" stroke="#666666" points="291,-30 145,-30 145,0 291,0 291,-30"/>
<text text-anchor="start" x="153" y="-18" font-family="Helvetica,sans-Serif" font-size="10.00">monopoly::GameView</text>
<text text-anchor="middle" x="218" y="-7" font-family="Helvetica,sans-Serif" font-size="10.00">::updatePlayerAtBoardSquare</text>
</a>
</g>
</g>
<!-- Node1&#45;&gt;Node8 -->
<g id="edge7_Node000001_Node000008" class="edge">
<title>Node1&#45;&gt;Node8</title>
<g id="a_edge7_Node000001_Node000008"><a xlink:title=" ">
<path fill="none" stroke="#63b8ff" d="M70.75,-95.86C87.64,-79.81 116.29,-54.67 145,-39 148.26,-37.22 151.67,-35.55 155.16,-33.97"/>
<polygon fill="#63b8ff" stroke="#63b8ff" points="156.68,-37.13 164.54,-30.03 153.97,-30.67 156.68,-37.13"/>
</a>
</g>
</g>
<!-- Node3 -->
<g id="Node000003" class="node">
<title>Node3</title>
<g id="a_Node000003"><a xlink:href="classmonopoly_1_1GameController.html#af9a704d24cc6257db2ecd626b869a7f4" target="_top" xlink:title="Change the current game state.">
<polygon fill="white" stroke="#666666" points="460,-222 327,-222 327,-192 460,-192 460,-222"/>
<text text-anchor="start" x="335" y="-210" font-family="Helvetica,sans-Serif" font-size="10.00">monopoly::GameController</text>
<text text-anchor="middle" x="393.5" y="-199" font-family="Helvetica,sans-Serif" font-size="10.00">::changeState</text>
</a>
</g>
</g>
<!-- Node2&#45;&gt;Node3 -->
<g id="edge2_Node000002_Node000003" class="edge">
<title>Node2&#45;&gt;Node3</title>
<g id="a_edge2_Node000002_Node000003"><a xlink:title=" ">
<path fill="none" stroke="#63b8ff" d="M275.33,-207C288.55,-207 302.84,-207 316.76,-207"/>
<polygon fill="#63b8ff" stroke="#63b8ff" points="316.8,-210.5 326.8,-207 316.8,-203.5 316.8,-210.5"/>
</a>
</g>
</g>
<!-- Node5 -->
<g id="Node000005" class="node">
<title>Node5</title>
<g id="a_Node000005"><a xlink:href="classmonopoly_1_1RollDiceState.html#a90c5ebd8e157aaba80daed38981af146" target="_top" xlink:title=" ">
<polygon fill="white" stroke="#666666" points="456,-174 331,-174 331,-144 456,-144 456,-174"/>
<text text-anchor="start" x="339" y="-162" font-family="Helvetica,sans-Serif" font-size="10.00">monopoly::RollDiceState</text>
<text text-anchor="middle" x="393.5" y="-151" font-family="Helvetica,sans-Serif" font-size="10.00">::RollDiceState</text>
</a>
</g>
</g>
<!-- Node4&#45;&gt;Node5 -->
<g id="edge4_Node000004_Node000005" class="edge">
<title>Node4&#45;&gt;Node5</title>
<g id="a_edge4_Node000004_Node000005"><a xlink:title=" ">
<path fill="none" stroke="#63b8ff" d="M280.66,-159C293.62,-159 307.4,-159 320.7,-159"/>
<polygon fill="#63b8ff" stroke="#63b8ff" points="320.75,-162.5 330.75,-159 320.75,-155.5 320.75,-162.5"/>
</a>
</g>
</g>
<!-- Node9 -->
<g id="Node000009" class="node">
<title>Node9</title>
<g id="a_Node000009"><a xlink:href="classmonopoly_1_1BoardView.html#a5cee04a1b7079bfba08a1bfb51764072" target="_top" xlink:title=" ">
<polygon fill="white" stroke="#666666" points="453.5,-30 333.5,-30 333.5,0 453.5,0 453.5,-30"/>
<text text-anchor="start" x="341.5" y="-18" font-family="Helvetica,sans-Serif" font-size="10.00">monopoly::BoardView</text>
<text text-anchor="middle" x="393.5" y="-7" font-family="Helvetica,sans-Serif" font-size="10.00">::updatePlayerAtSquare</text>
</a>
</g>
</g>
<!-- Node8&#45;&gt;Node9 -->
<g id="edge8_Node000008_Node000009" class="edge">
<title>Node8&#45;&gt;Node9</title>
<g id="a_edge8_Node000008_Node000009"><a xlink:title=" ">
<path fill="none" stroke="#63b8ff" d="M291.07,-15C301.73,-15 312.68,-15 323.28,-15"/>
<polygon fill="#63b8ff" stroke="#63b8ff" points="323.3,-18.5 333.3,-15 323.3,-11.5 323.3,-18.5"/>
</a>
</g>
</g>
<!-- Node10 -->
<g id="Node000010" class="node">
<title>Node10</title>
<g id="a_Node000010"><a xlink:href="classmonopoly_1_1BoardView.html#ac72680e18182f00258d6c1bce4b89e74" target="_top" xlink:title=" ">
<polygon fill="white" stroke="#666666" points="608,-30 496,-30 496,0 608,0 608,-30"/>
<text text-anchor="start" x="504" y="-18" font-family="Helvetica,sans-Serif" font-size="10.00">monopoly::BoardView</text>
<text text-anchor="middle" x="552" y="-7" font-family="Helvetica,sans-Serif" font-size="10.00">::findSquareById</text>
</a>
</g>
</g>
<!-- Node9&#45;&gt;Node10 -->
<g id="edge9_Node000009_Node000010" class="edge">
<title>Node9&#45;&gt;Node10</title>
<g id="a_edge9_Node000009_Node000010"><a xlink:title=" ">
<path fill="none" stroke="#63b8ff" d="M453.67,-15C464.16,-15 475.14,-15 485.8,-15"/>
<polygon fill="#63b8ff" stroke="#63b8ff" points="485.88,-18.5 495.88,-15 485.88,-11.5 485.88,-18.5"/>
</a>
</g>
</g>
</g>
</svg>
