<?xml version="1.0" encoding="UTF-8" standalone="no"?>
<!DOCTYPE svg PUBLIC "-//W3C//DTD SVG 1.1//EN"
 "http://www.w3.org/Graphics/SVG/1.1/DTD/svg11.dtd">
<!-- Generated by graphviz version 2.43.0 (0)
 -->
<!-- Title: monopoly::Player::getId Pages: 1 -->
<svg width="595pt" height="220pt"
 viewBox="0.00 0.00 595.00 220.00" xmlns="http://www.w3.org/2000/svg" xmlns:xlink="http://www.w3.org/1999/xlink">
<g id="graph0" class="graph" transform="scale(1 1) rotate(0) translate(4 216)">
<title>monopoly::Player::getId</title>
<!-- Node1 -->
<g id="Node000001" class="node">
<title>Node1</title>
<g id="a_Node000001"><a xlink:title=" ">
<polygon fill="#999999" stroke="#666666" points="587,-115.5 467,-115.5 467,-96.5 587,-96.5 587,-115.5"/>
<text text-anchor="middle" x="527" y="-103.5" font-family="Helvetica,sans-Serif" font-size="10.00">monopoly::Player::getId</text>
</a>
</g>
</g>
<!-- Node2 -->
<g id="Node000002" class="node">
<title>Node2</title>
<g id="a_Node000002"><a xlink:href="classmonopoly_1_1GameModel.html#aa29755bb0580af0466b18483e7e7175b" target="_top" xlink:title="Process property purchase.">
<polygon fill="white" stroke="#666666" points="427,-212 310,-212 310,-182 427,-182 427,-212"/>
<text text-anchor="start" x="318" y="-200" font-family="Helvetica,sans-Serif" font-size="10.00">monopoly::GameModel</text>
<text text-anchor="middle" x="368.5" y="-189" font-family="Helvetica,sans-Serif" font-size="10.00">::buyProperty</text>
</a>
</g>
</g>
<!-- Node1&#45;&gt;Node2 -->
<g id="edge1_Node000001_Node000002" class="edge">
<title>Node1&#45;&gt;Node2</title>
<g id="a_edge1_Node000001_Node000002"><a xlink:title=" ">
<path fill="none" stroke="#63b8ff" d="M506.31,-122.03C487.72,-136.64 458.62,-158.15 431,-173 425.04,-176.2 418.57,-179.2 412.12,-181.92"/>
<polygon fill="#63b8ff" stroke="#63b8ff" points="508.67,-124.63 514.31,-115.66 504.31,-119.15 508.67,-124.63"/>
</a>
</g>
</g>
<!-- Node3 -->
<g id="Node000003" class="node">
<title>Node3</title>
<g id="a_Node000003"><a xlink:href="classmonopoly_1_1GameModel.html#ad2cc951c35bb0f9d412e79adb790d510" target="_top" xlink:title="Check if houses can be built on street.">
<polygon fill="white" stroke="#666666" points="427,-164 310,-164 310,-134 427,-134 427,-164"/>
<text text-anchor="start" x="318" y="-152" font-family="Helvetica,sans-Serif" font-size="10.00">monopoly::GameModel</text>
<text text-anchor="middle" x="368.5" y="-141" font-family="Helvetica,sans-Serif" font-size="10.00">::canBuildOnStreet</text>
</a>
</g>
</g>
<!-- Node1&#45;&gt;Node3 -->
<g id="edge2_Node000001_Node000003" class="edge">
<title>Node1&#45;&gt;Node3</title>
<g id="a_edge2_Node000001_Node000003"><a xlink:title=" ">
<path fill="none" stroke="#63b8ff" d="M481.16,-118.32C463.38,-123.21 442.76,-128.87 424.12,-133.99"/>
<polygon fill="#63b8ff" stroke="#63b8ff" points="482.55,-121.57 491.27,-115.54 480.7,-114.82 482.55,-121.57"/>
</a>
</g>
</g>
<!-- Node4 -->
<g id="Node000004" class="node">
<title>Node4</title>
<g id="a_Node000004"><a xlink:href="classmonopoly_1_1GameModel.html#ac72ba97e17895b069ea84f783709e9e3" target="_top" xlink:title="Handle landing on property square.">
<polygon fill="white" stroke="#666666" points="270,-142 153,-142 153,-112 270,-112 270,-142"/>
<text text-anchor="start" x="161" y="-130" font-family="Helvetica,sans-Serif" font-size="10.00">monopoly::GameModel</text>
<text text-anchor="middle" x="211.5" y="-119" font-family="Helvetica,sans-Serif" font-size="10.00">::landOnProperty</text>
</a>
</g>
</g>
<!-- Node1&#45;&gt;Node4 -->
<g id="edge6_Node000001_Node000004" class="edge">
<title>Node1&#45;&gt;Node4</title>
<g id="a_edge6_Node000001_Node000004"><a xlink:title=" ">
<path fill="none" stroke="#63b8ff" d="M456.47,-110.66C400.43,-114.41 322.57,-119.63 270.01,-123.15"/>
<polygon fill="#63b8ff" stroke="#63b8ff" points="456.92,-114.14 466.66,-109.97 456.45,-107.15 456.92,-114.14"/>
</a>
</g>
</g>
<!-- Node6 -->
<g id="Node000006" class="node">
<title>Node6</title>
<g id="a_Node000006"><a xlink:href="classmonopoly_1_1RollDiceState.html#a262a6a32b9cacaa7561f81a55ec1c1f3" target="_top" xlink:title=" ">
<polygon fill="white" stroke="#666666" points="431,-78 306,-78 306,-48 431,-48 431,-78"/>
<text text-anchor="start" x="314" y="-66" font-family="Helvetica,sans-Serif" font-size="10.00">monopoly::RollDiceState</text>
<text text-anchor="middle" x="368.5" y="-55" font-family="Helvetica,sans-Serif" font-size="10.00">::handleKeyRelease</text>
</a>
</g>
</g>
<!-- Node1&#45;&gt;Node6 -->
<g id="edge5_Node000001_Node000006" class="edge">
<title>Node1&#45;&gt;Node6</title>
<g id="a_edge5_Node000001_Node000006"><a xlink:title=" ">
<path fill="none" stroke="#63b8ff" d="M481.16,-93.68C463.38,-88.79 442.76,-83.13 424.12,-78.01"/>
<polygon fill="#63b8ff" stroke="#63b8ff" points="480.7,-97.18 491.27,-96.46 482.55,-90.43 480.7,-97.18"/>
</a>
</g>
</g>
<!-- Node7 -->
<g id="Node000007" class="node">
<title>Node7</title>
<g id="a_Node000007"><a xlink:href="classmonopoly_1_1GameModel.html#afa6e92bce1bc86814a13ee3466def16a" target="_top" xlink:title="Process rent payment.">
<polygon fill="white" stroke="#666666" points="427,-30 310,-30 310,0 427,0 427,-30"/>
<text text-anchor="start" x="318" y="-18" font-family="Helvetica,sans-Serif" font-size="10.00">monopoly::GameModel</text>
<text text-anchor="middle" x="368.5" y="-7" font-family="Helvetica,sans-Serif" font-size="10.00">::payRent</text>
</a>
</g>
</g>
<!-- Node1&#45;&gt;Node7 -->
<g id="edge7_Node000001_Node000007" class="edge">
<title>Node1&#45;&gt;Node7</title>
<g id="a_edge7_Node000001_Node000007"><a xlink:title=" ">
<path fill="none" stroke="#63b8ff" d="M506.31,-89.97C487.72,-75.36 458.62,-53.85 431,-39 425.04,-35.8 418.57,-32.8 412.12,-30.08"/>
<polygon fill="#63b8ff" stroke="#63b8ff" points="504.31,-92.85 514.31,-96.34 508.67,-87.37 504.31,-92.85"/>
</a>
</g>
</g>
<!-- Node3&#45;&gt;Node4 -->
<g id="edge3_Node000003_Node000004" class="edge">
<title>Node3&#45;&gt;Node4</title>
<g id="a_edge3_Node000003_Node000004"><a xlink:title=" ">
<path fill="none" stroke="#63b8ff" d="M299.6,-139.36C289.73,-137.96 279.65,-136.53 270.01,-135.16"/>
<polygon fill="#63b8ff" stroke="#63b8ff" points="299.39,-142.87 309.78,-140.81 300.37,-135.94 299.39,-142.87"/>
</a>
</g>
</g>
<!-- Node5 -->
<g id="Node000005" class="node">
<title>Node5</title>
<g id="a_Node000005"><a xlink:href="classmonopoly_1_1GameModel.html#a5ee956b08d9a835512ea1dda80d2cca9" target="_top" xlink:title="Process landing on a square.">
<polygon fill="white" stroke="#666666" points="117,-142 0,-142 0,-112 117,-112 117,-142"/>
<text text-anchor="start" x="8" y="-130" font-family="Helvetica,sans-Serif" font-size="10.00">monopoly::GameModel</text>
<text text-anchor="middle" x="58.5" y="-119" font-family="Helvetica,sans-Serif" font-size="10.00">::landOn</text>
</a>
</g>
</g>
<!-- Node4&#45;&gt;Node5 -->
<g id="edge4_Node000004_Node000005" class="edge">
<title>Node4&#45;&gt;Node5</title>
<g id="a_edge4_Node000004_Node000005"><a xlink:title=" ">
<path fill="none" stroke="#63b8ff" d="M142.95,-127C134.32,-127 125.56,-127 117.11,-127"/>
<polygon fill="#63b8ff" stroke="#63b8ff" points="142.98,-130.5 152.98,-127 142.98,-123.5 142.98,-130.5"/>
</a>
</g>
</g>
</g>
</svg>
