<?xml version="1.0" encoding="UTF-8" standalone="no"?>
<!DOCTYPE svg PUBLIC "-//W3C//DTD SVG 1.1//EN"
 "http://www.w3.org/Graphics/SVG/1.1/DTD/svg11.dtd">
<!-- Generated by graphviz version 2.43.0 (0)
 -->
<!-- Title: monopoly::TurnState::onEnter Pages: 1 -->
<svg width="443pt" height="391pt"
 viewBox="0.00 0.00 443.00 390.50" xmlns="http://www.w3.org/2000/svg" xmlns:xlink="http://www.w3.org/1999/xlink">

<svg id="main" version="1.1" xmlns="http://www.w3.org/2000/svg" xmlns:xlink="http://www.w3.org/1999/xlink" xml:space="preserve" onload="init(evt)">
<style type="text/css"><![CDATA[
.node, .edge {opacity: 0.7;}
.node.selected, .edge.selected {opacity: 1;}
.edge:hover path { stroke: red; }
.edge:hover polygon { stroke: red; fill: red; }
]]></style>
<script type="application/ecmascript" xlink:href="svg.min.js"/>
<svg id="graph" class="graph">
<g id="graph0" class="graph" transform="scale(1 1) rotate(0) translate(4 386.5)">
<title>monopoly::TurnState::onEnter</title>
<!-- Node1 -->
<g id="Node000001" class="node">
<title>Node1</title>
<g id="a_Node000001"><a xlink:title=" ">
<polygon fill="#999999" stroke="#666666" points="107,-217 0,-217 0,-187 107,-187 107,-217"/>
<text text-anchor="start" x="8" y="-205" font-family="Helvetica,sans-Serif" font-size="10.00">monopoly::TurnState</text>
<text text-anchor="middle" x="53.5" y="-194" font-family="Helvetica,sans-Serif" font-size="10.00">::onEnter</text>
</a>
</g>
</g>
<!-- Node2 -->
<g id="Node000002" class="node">
<title>Node2</title>
<g id="a_Node000002"><a xlink:href="classmonopoly_1_1Player.html#a3e658ec00d3c18f509d2bb0eb0ba9a87" target="_top" xlink:title=" ">
<polygon fill="white" stroke="#666666" points="291,-382.5 144,-382.5 144,-363.5 291,-363.5 291,-382.5"/>
<text text-anchor="middle" x="217.5" y="-370.5" font-family="Helvetica,sans-Serif" font-size="10.00">monopoly::Player::getBalance</text>
</a>
</g>
</g>
<!-- Node1&#45;&gt;Node2 -->
<g id="edge1_Node000001_Node000002" class="edge">
<title>Node1&#45;&gt;Node2</title>
<g id="a_edge1_Node000001_Node000002"><a xlink:title=" ">
<path fill="none" stroke="#63b8ff" d="M58.94,-217.18C68.76,-247.96 95.29,-317.86 143,-354 145.49,-355.89 148.16,-357.59 150.94,-359.12"/>
<polygon fill="#63b8ff" stroke="#63b8ff" points="149.61,-362.37 160.15,-363.47 152.6,-356.04 149.61,-362.37"/>
</a>
</g>
</g>
<!-- Node3 -->
<g id="Node000003" class="node">
<title>Node3</title>
<g id="a_Node000003"><a xlink:href="classmonopoly_1_1GameModel.html#a61c4fbccfe0fd1f1870bfd4df55571f1" target="_top" xlink:title=" ">
<polygon fill="white" stroke="#666666" points="276,-345 159,-345 159,-315 276,-315 276,-345"/>
<text text-anchor="start" x="167" y="-333" font-family="Helvetica,sans-Serif" font-size="10.00">monopoly::GameModel</text>
<text text-anchor="middle" x="217.5" y="-322" font-family="Helvetica,sans-Serif" font-size="10.00">::getCurrentPlayer</text>
</a>
</g>
</g>
<!-- Node1&#45;&gt;Node3 -->
<g id="edge2_Node000001_Node000003" class="edge">
<title>Node1&#45;&gt;Node3</title>
<g id="a_edge2_Node000001_Node000003"><a xlink:title=" ">
<path fill="none" stroke="#63b8ff" d="M63.43,-217.02C77.55,-239.54 107.16,-281.97 143,-306 145.4,-307.61 147.92,-309.12 150.52,-310.54"/>
<polygon fill="#63b8ff" stroke="#63b8ff" points="149.1,-313.74 159.62,-314.99 152.18,-307.45 149.1,-313.74"/>
</a>
</g>
</g>
<!-- Node4 -->
<g id="Node000004" class="node">
<title>Node4</title>
<g id="a_Node000004"><a xlink:href="classmonopoly_1_1GameController.html#ae6b73b1fe95e80ea943e403b578a72bc" target="_top" xlink:title="Get the current game model.">
<polygon fill="white" stroke="#666666" points="284,-297 151,-297 151,-267 284,-267 284,-297"/>
<text text-anchor="start" x="159" y="-285" font-family="Helvetica,sans-Serif" font-size="10.00">monopoly::GameController</text>
<text text-anchor="middle" x="217.5" y="-274" font-family="Helvetica,sans-Serif" font-size="10.00">::getModel</text>
</a>
</g>
</g>
<!-- Node1&#45;&gt;Node4 -->
<g id="edge3_Node000001_Node000004" class="edge">
<title>Node1&#45;&gt;Node4</title>
<g id="a_edge3_Node000001_Node000004"><a xlink:title=" ">
<path fill="none" stroke="#63b8ff" d="M75.11,-217.12C92.53,-229.39 118.49,-246.46 143,-258 147,-259.88 151.19,-261.68 155.45,-263.38"/>
<polygon fill="#63b8ff" stroke="#63b8ff" points="154.27,-266.67 164.86,-266.95 156.75,-260.13 154.27,-266.67"/>
</a>
</g>
</g>
<!-- Node5 -->
<g id="Node000005" class="node">
<title>Node5</title>
<g id="a_Node000005"><a xlink:href="classmonopoly_1_1Player.html#a171ff8a761c112087dba41222ea8ec03" target="_top" xlink:title=" ">
<polygon fill="white" stroke="#666666" points="286.5,-248.5 148.5,-248.5 148.5,-229.5 286.5,-229.5 286.5,-248.5"/>
<text text-anchor="middle" x="217.5" y="-236.5" font-family="Helvetica,sans-Serif" font-size="10.00">monopoly::Player::getName</text>
</a>
</g>
</g>
<!-- Node1&#45;&gt;Node5 -->
<g id="edge4_Node000001_Node000005" class="edge">
<title>Node1&#45;&gt;Node5</title>
<g id="a_edge4_Node000001_Node000005"><a xlink:title=" ">
<path fill="none" stroke="#63b8ff" d="M107.1,-214.01C125.57,-218.23 146.3,-222.97 164.71,-227.17"/>
<polygon fill="#63b8ff" stroke="#63b8ff" points="164.14,-230.63 174.67,-229.45 165.7,-223.81 164.14,-230.63"/>
</a>
</g>
</g>
<!-- Node6 -->
<g id="Node000006" class="node">
<title>Node6</title>
<g id="a_Node000006"><a xlink:href="classmonopoly_1_1Player.html#a1ec975f6957b670a7c13060a8ac95aaa" target="_top" xlink:title=" ">
<polygon fill="white" stroke="#666666" points="292,-211.5 143,-211.5 143,-192.5 292,-192.5 292,-211.5"/>
<text text-anchor="middle" x="217.5" y="-199.5" font-family="Helvetica,sans-Serif" font-size="10.00">monopoly::Player::getNamenc</text>
</a>
</g>
</g>
<!-- Node1&#45;&gt;Node6 -->
<g id="edge5_Node000001_Node000006" class="edge">
<title>Node1&#45;&gt;Node6</title>
<g id="a_edge5_Node000001_Node000006"><a xlink:title=" ">
<path fill="none" stroke="#63b8ff" d="M107.1,-202C115.33,-202 124.01,-202 132.74,-202"/>
<polygon fill="#63b8ff" stroke="#63b8ff" points="132.98,-205.5 142.98,-202 132.98,-198.5 132.98,-205.5"/>
</a>
</g>
</g>
<!-- Node7 -->
<g id="Node000007" class="node">
<title>Node7</title>
<g id="a_Node000007"><a xlink:href="classmonopoly_1_1GameController.html#a6aea9478f70668e36b6e93d21beb4e3f" target="_top" xlink:title="Get the current game view.">
<polygon fill="white" stroke="#666666" points="284,-174 151,-174 151,-144 284,-144 284,-174"/>
<text text-anchor="start" x="159" y="-162" font-family="Helvetica,sans-Serif" font-size="10.00">monopoly::GameController</text>
<text text-anchor="middle" x="217.5" y="-151" font-family="Helvetica,sans-Serif" font-size="10.00">::getView</text>
</a>
</g>
</g>
<!-- Node1&#45;&gt;Node7 -->
<g id="edge6_Node000001_Node000007" class="edge">
<title>Node1&#45;&gt;Node7</title>
<g id="a_edge6_Node000001_Node000007"><a xlink:title=" ">
<path fill="none" stroke="#63b8ff" d="M107.1,-188.04C120.83,-184.39 135.82,-180.42 150.17,-176.61"/>
<polygon fill="#63b8ff" stroke="#63b8ff" points="151.21,-179.95 159.98,-174 149.41,-173.19 151.21,-179.95"/>
</a>
</g>
</g>
<!-- Node8 -->
<g id="Node000008" class="node">
<title>Node8</title>
<g id="a_Node000008"><a xlink:href="classmonopoly_1_1GameView.html#a12425d355bc9bce2ad724e03b7f7d144" target="_top" xlink:title="Update player&#39;s balance display.">
<polygon fill="white" stroke="#666666" points="274,-126 161,-126 161,-96 274,-96 274,-126"/>
<text text-anchor="start" x="169" y="-114" font-family="Helvetica,sans-Serif" font-size="10.00">monopoly::GameView</text>
<text text-anchor="middle" x="217.5" y="-103" font-family="Helvetica,sans-Serif" font-size="10.00">::updateBalanceBox</text>
</a>
</g>
</g>
<!-- Node1&#45;&gt;Node8 -->
<g id="edge7_Node000001_Node000008" class="edge">
<title>Node1&#45;&gt;Node8</title>
<g id="a_edge7_Node000001_Node000008"><a xlink:title=" ">
<path fill="none" stroke="#63b8ff" d="M70.97,-186.83C87.94,-171.89 115.68,-149.29 143,-135 146.45,-133.2 150.06,-131.49 153.75,-129.89"/>
<polygon fill="#63b8ff" stroke="#63b8ff" points="155.09,-133.13 163.04,-126.12 152.46,-126.64 155.09,-133.13"/>
</a>
</g>
</g>
<!-- Node10 -->
<g id="Node000010" class="node">
<title>Node10</title>
<g id="a_Node000010"><a xlink:href="classmonopoly_1_1GameView.html#aa69d50f90ef60a56665c668ed9942195" target="_top" xlink:title="Update player name display.">
<polygon fill="white" stroke="#666666" points="274,-78 161,-78 161,-48 274,-48 274,-78"/>
<text text-anchor="start" x="169" y="-66" font-family="Helvetica,sans-Serif" font-size="10.00">monopoly::GameView</text>
<text text-anchor="middle" x="217.5" y="-55" font-family="Helvetica,sans-Serif" font-size="10.00">::updateNameBox</text>
</a>
</g>
</g>
<!-- Node1&#45;&gt;Node10 -->
<g id="edge9_Node000001_Node000010" class="edge">
<title>Node1&#45;&gt;Node10</title>
<g id="a_edge9_Node000001_Node000010"><a xlink:title=" ">
<path fill="none" stroke="#63b8ff" d="M62.15,-186.97C75.35,-162.5 104.73,-114.05 143,-87 145.83,-85 148.83,-83.16 151.94,-81.47"/>
<polygon fill="#63b8ff" stroke="#63b8ff" points="153.5,-84.61 160.96,-77.09 150.44,-78.31 153.5,-84.61"/>
</a>
</g>
</g>
<!-- Node12 -->
<g id="Node000012" class="node">
<title>Node12</title>
<g id="a_Node000012"><a xlink:href="classmonopoly_1_1GameView.html#a48e4f69f10f058076bf3d2d26605a10f" target="_top" xlink:title="Update message in panel.">
<polygon fill="white" stroke="#666666" points="275.5,-30 159.5,-30 159.5,0 275.5,0 275.5,-30"/>
<text text-anchor="start" x="167.5" y="-18" font-family="Helvetica,sans-Serif" font-size="10.00">monopoly::GameView</text>
<text text-anchor="middle" x="217.5" y="-7" font-family="Helvetica,sans-Serif" font-size="10.00">::updatePanelMessage</text>
</a>
</g>
</g>
<!-- Node1&#45;&gt;Node12 -->
<g id="edge11_Node000001_Node000012" class="edge">
<title>Node1&#45;&gt;Node12</title>
<g id="a_edge11_Node000001_Node000012"><a xlink:title=" ">
<path fill="none" stroke="#63b8ff" d="M58.53,-186.97C67.86,-155 94.01,-79.8 143,-39 145.27,-37.11 147.7,-35.36 150.23,-33.75"/>
<polygon fill="#63b8ff" stroke="#63b8ff" points="152.15,-36.69 159.22,-28.8 148.77,-30.56 152.15,-36.69"/>
</a>
</g>
</g>
<!-- Node9 -->
<g id="Node000009" class="node">
<title>Node9</title>
<g id="a_Node000009"><a xlink:href="classmonopoly_1_1UserView.html#a01629cc5b326761ec81c6ab2a12ec70e" target="_top" xlink:title=" ">
<polygon fill="white" stroke="#666666" points="435,-126 328,-126 328,-96 435,-96 435,-126"/>
<text text-anchor="start" x="336" y="-114" font-family="Helvetica,sans-Serif" font-size="10.00">monopoly::UserView</text>
<text text-anchor="middle" x="381.5" y="-103" font-family="Helvetica,sans-Serif" font-size="10.00">::updateBalance</text>
</a>
</g>
</g>
<!-- Node8&#45;&gt;Node9 -->
<g id="edge8_Node000008_Node000009" class="edge">
<title>Node8&#45;&gt;Node9</title>
<g id="a_edge8_Node000008_Node000009"><a xlink:title=" ">
<path fill="none" stroke="#63b8ff" d="M274.25,-111C288.24,-111 303.35,-111 317.67,-111"/>
<polygon fill="#63b8ff" stroke="#63b8ff" points="317.92,-114.5 327.92,-111 317.92,-107.5 317.92,-114.5"/>
</a>
</g>
</g>
<!-- Node11 -->
<g id="Node000011" class="node">
<title>Node11</title>
<g id="a_Node000011"><a xlink:href="classmonopoly_1_1UserView.html#a8f202525be103466e4a8d565c5f52c9d" target="_top" xlink:title=" ">
<polygon fill="white" stroke="#666666" points="435,-78 328,-78 328,-48 435,-48 435,-78"/>
<text text-anchor="start" x="336" y="-66" font-family="Helvetica,sans-Serif" font-size="10.00">monopoly::UserView</text>
<text text-anchor="middle" x="381.5" y="-55" font-family="Helvetica,sans-Serif" font-size="10.00">::updateNameBox</text>
</a>
</g>
</g>
<!-- Node10&#45;&gt;Node11 -->
<g id="edge10_Node000010_Node000011" class="edge">
<title>Node10&#45;&gt;Node11</title>
<g id="a_edge10_Node000010_Node000011"><a xlink:title=" ">
<path fill="none" stroke="#63b8ff" d="M274.25,-63C288.24,-63 303.35,-63 317.67,-63"/>
<polygon fill="#63b8ff" stroke="#63b8ff" points="317.92,-66.5 327.92,-63 317.92,-59.5 317.92,-66.5"/>
</a>
</g>
</g>
<!-- Node13 -->
<g id="Node000013" class="node">
<title>Node13</title>
<g id="a_Node000013"><a xlink:href="classmonopoly_1_1UserView.html#a7300107e0cdf354ac3b45413c8e818e2" target="_top" xlink:title=" ">
<polygon fill="white" stroke="#666666" points="435,-30 328,-30 328,0 435,0 435,-30"/>
<text text-anchor="start" x="336" y="-18" font-family="Helvetica,sans-Serif" font-size="10.00">monopoly::UserView</text>
<text text-anchor="middle" x="381.5" y="-7" font-family="Helvetica,sans-Serif" font-size="10.00">::updatePromptText</text>
</a>
</g>
</g>
<!-- Node12&#45;&gt;Node13 -->
<g id="edge12_Node000012_Node000013" class="edge">
<title>Node12&#45;&gt;Node13</title>
<g id="a_edge12_Node000012_Node000013"><a xlink:title=" ">
<path fill="none" stroke="#63b8ff" d="M275.62,-15C289.19,-15 303.75,-15 317.57,-15"/>
<polygon fill="#63b8ff" stroke="#63b8ff" points="317.96,-18.5 327.96,-15 317.96,-11.5 317.96,-18.5"/>
</a>
</g>
</g>
</g>
</svg>
</svg>

<style type='text/css'>
<![CDATA[
[data-mouse-over-selected='false'] { opacity: 0.7; }
[data-mouse-over-selected='true']  { opacity: 1.0; }
]]>
</style>
<script type="application/ecmascript"><![CDATA[
document.addEventListener('DOMContentLoaded', (event) => {
  highlightEdges();
  highlightAdjacentNodes();
});
]]></script>
</svg>
