<?xml version="1.0" encoding="UTF-8" standalone="no"?>
<!DOCTYPE svg PUBLIC "-//W3C//DTD SVG 1.1//EN"
 "http://www.w3.org/Graphics/SVG/1.1/DTD/svg11.dtd">
<!-- Generated by graphviz version 2.43.0 (0)
 -->
<!-- Title: monopoly::Square Pages: 1 -->
<svg width="467pt" height="707pt"
 viewBox="0.00 0.00 466.50 707.00" xmlns="http://www.w3.org/2000/svg" xmlns:xlink="http://www.w3.org/1999/xlink">
<g id="graph0" class="graph" transform="scale(1 1) rotate(0) translate(4 703)">
<title>monopoly::Square</title>
<!-- Node1 -->
<g id="Node000001" class="node">
<title>Node1</title>
<g id="a_Node000001"><a xlink:title="Base class for all squares on the Monopoly board.">
<polygon fill="#999999" stroke="transparent" points="358.5,-699 269.5,-699 269.5,-500 358.5,-500 358.5,-699"/>
<text text-anchor="start" x="275" y="-686.5" font-family="Helvetica,sans-Serif" font-size="10.00">monopoly::Square</text>
<text text-anchor="start" x="279" y="-671.5" font-family="Helvetica,sans-Serif" font-size="10.00">&#45;</text>
<text text-anchor="start" x="292" y="-671.5" font-family="Helvetica,sans-Serif" font-size="10.00">name</text>
<text text-anchor="start" x="279" y="-656.5" font-family="Helvetica,sans-Serif" font-size="10.00">&#45;</text>
<text text-anchor="start" x="292" y="-656.5" font-family="Helvetica,sans-Serif" font-size="10.00">position</text>
<text text-anchor="start" x="279" y="-641.5" font-family="Helvetica,sans-Serif" font-size="10.00">&#45;</text>
<text text-anchor="start" x="292" y="-641.5" font-family="Helvetica,sans-Serif" font-size="10.00">id</text>
<text text-anchor="start" x="277.5" y="-626.5" font-family="Helvetica,sans-Serif" font-size="10.00">+</text>
<text text-anchor="start" x="292" y="-626.5" font-family="Helvetica,sans-Serif" font-size="10.00">Square()</text>
<text text-anchor="start" x="277.5" y="-611.5" font-family="Helvetica,sans-Serif" font-size="10.00">+</text>
<text text-anchor="start" x="292" y="-611.5" font-family="Helvetica,sans-Serif" font-size="10.00">~Square()</text>
<text text-anchor="start" x="277.5" y="-596.5" font-family="Helvetica,sans-Serif" font-size="10.00">+</text>
<text text-anchor="start" x="292" y="-596.5" font-family="Helvetica,sans-Serif" font-size="10.00">getName()</text>
<text text-anchor="start" x="277.5" y="-581.5" font-family="Helvetica,sans-Serif" font-size="10.00">+</text>
<text text-anchor="start" x="292" y="-581.5" font-family="Helvetica,sans-Serif" font-size="10.00">getPosition()</text>
<text text-anchor="start" x="277.5" y="-566.5" font-family="Helvetica,sans-Serif" font-size="10.00">+</text>
<text text-anchor="start" x="292" y="-566.5" font-family="Helvetica,sans-Serif" font-size="10.00">getId()</text>
<text text-anchor="start" x="277.5" y="-551.5" font-family="Helvetica,sans-Serif" font-size="10.00">+</text>
<text text-anchor="start" x="292" y="-551.5" font-family="Helvetica,sans-Serif" font-size="10.00">Square()</text>
<text text-anchor="start" x="277.5" y="-536.5" font-family="Helvetica,sans-Serif" font-size="10.00">+</text>
<text text-anchor="start" x="292" y="-536.5" font-family="Helvetica,sans-Serif" font-size="10.00">operator=()</text>
<text text-anchor="start" x="277.5" y="-521.5" font-family="Helvetica,sans-Serif" font-size="10.00">+</text>
<text text-anchor="start" x="292" y="-521.5" font-family="Helvetica,sans-Serif" font-size="10.00">Square()</text>
<text text-anchor="start" x="277.5" y="-506.5" font-family="Helvetica,sans-Serif" font-size="10.00">+</text>
<text text-anchor="start" x="292" y="-506.5" font-family="Helvetica,sans-Serif" font-size="10.00">operator=()</text>
<polygon fill="#666666" stroke="#666666" points="270,-681.5 270,-681.5 359,-681.5 359,-681.5 270,-681.5"/>
<polygon fill="#666666" stroke="#666666" points="270,-636.5 270,-636.5 290,-636.5 290,-636.5 270,-636.5"/>
<polygon fill="#666666" stroke="#666666" points="290,-636.5 290,-636.5 359,-636.5 359,-636.5 290,-636.5"/>
<polygon fill="none" stroke="#666666" points="269.5,-500 269.5,-699 358.5,-699 358.5,-500 269.5,-500"/>
</a>
</g>
</g>
<!-- Node2 -->
<g id="Node000002" class="node">
<title>Node2</title>
<g id="a_Node000002"><a xlink:href="classmonopoly_1_1Property.html" target="_top" xlink:title="Base class for all purchasable properties in Monopoly.">
<polygon fill="white" stroke="transparent" points="298.5,-464 203.5,-464 203.5,-190 298.5,-190 298.5,-464"/>
<text text-anchor="start" x="209" y="-452" font-family="Helvetica,sans-Serif" font-size="10.00">monopoly::Property</text>
<text text-anchor="start" x="211.5" y="-437" font-family="Helvetica,sans-Serif" font-size="10.00">#</text>
<text text-anchor="start" x="225" y="-437" font-family="Helvetica,sans-Serif" font-size="10.00">owner_id</text>
<text text-anchor="start" x="211.5" y="-422" font-family="Helvetica,sans-Serif" font-size="10.00">#</text>
<text text-anchor="start" x="225" y="-422" font-family="Helvetica,sans-Serif" font-size="10.00">price</text>
<text text-anchor="start" x="211.5" y="-407" font-family="Helvetica,sans-Serif" font-size="10.00">#</text>
<text text-anchor="start" x="225" y="-407" font-family="Helvetica,sans-Serif" font-size="10.00">base_rent</text>
<text text-anchor="start" x="211.5" y="-392" font-family="Helvetica,sans-Serif" font-size="10.00">#</text>
<text text-anchor="start" x="225" y="-392" font-family="Helvetica,sans-Serif" font-size="10.00">group</text>
<text text-anchor="start" x="211.5" y="-377" font-family="Helvetica,sans-Serif" font-size="10.00">#</text>
<text text-anchor="start" x="225" y="-377" font-family="Helvetica,sans-Serif" font-size="10.00">rentCalculator</text>
<text text-anchor="start" x="211.5" y="-362" font-family="Helvetica,sans-Serif" font-size="10.00">#</text>
<text text-anchor="start" x="225" y="-362" font-family="Helvetica,sans-Serif" font-size="10.00">BANK_ID</text>
<text text-anchor="start" x="211" y="-347" font-family="Helvetica,sans-Serif" font-size="10.00">+</text>
<text text-anchor="start" x="225" y="-347" font-family="Helvetica,sans-Serif" font-size="10.00">Property()</text>
<text text-anchor="start" x="211" y="-332" font-family="Helvetica,sans-Serif" font-size="10.00">+</text>
<text text-anchor="start" x="225" y="-332" font-family="Helvetica,sans-Serif" font-size="10.00">~Property()</text>
<text text-anchor="start" x="211" y="-317" font-family="Helvetica,sans-Serif" font-size="10.00">+</text>
<text text-anchor="start" x="225" y="-317" font-family="Helvetica,sans-Serif" font-size="10.00">getOwnerId()</text>
<text text-anchor="start" x="211" y="-302" font-family="Helvetica,sans-Serif" font-size="10.00">+</text>
<text text-anchor="start" x="225" y="-302" font-family="Helvetica,sans-Serif" font-size="10.00">setOwnerId()</text>
<text text-anchor="start" x="211" y="-287" font-family="Helvetica,sans-Serif" font-size="10.00">+</text>
<text text-anchor="start" x="225" y="-287" font-family="Helvetica,sans-Serif" font-size="10.00">isOwned()</text>
<text text-anchor="start" x="211" y="-272" font-family="Helvetica,sans-Serif" font-size="10.00">+</text>
<text text-anchor="start" x="225" y="-272" font-family="Helvetica,sans-Serif" font-size="10.00">getPrice()</text>
<text text-anchor="start" x="211" y="-257" font-family="Helvetica,sans-Serif" font-size="10.00">+</text>
<text text-anchor="start" x="225" y="-257" font-family="Helvetica,sans-Serif" font-size="10.00">setPrice()</text>
<text text-anchor="start" x="211" y="-242" font-family="Helvetica,sans-Serif" font-size="10.00">+</text>
<text text-anchor="start" x="225" y="-242" font-family="Helvetica,sans-Serif" font-size="10.00">getBaseRent()</text>
<text text-anchor="start" x="211" y="-227" font-family="Helvetica,sans-Serif" font-size="10.00">+</text>
<text text-anchor="start" x="225" y="-227" font-family="Helvetica,sans-Serif" font-size="10.00">setBaseRent()</text>
<text text-anchor="start" x="211" y="-212" font-family="Helvetica,sans-Serif" font-size="10.00">+</text>
<text text-anchor="start" x="225" y="-212" font-family="Helvetica,sans-Serif" font-size="10.00">getGroup()</text>
<text text-anchor="start" x="225" y="-197" font-family="Helvetica,sans-Serif" font-size="10.00">and 6 more...</text>
<polygon fill="#666666" stroke="#666666" points="204,-447 204,-447 299,-447 299,-447 204,-447"/>
<polygon fill="#666666" stroke="#666666" points="204,-357 204,-357 223,-357 223,-357 204,-357"/>
<polygon fill="#666666" stroke="#666666" points="223,-357 223,-357 299,-357 299,-357 223,-357"/>
<polygon fill="none" stroke="#666666" points="203.5,-190 203.5,-464 298.5,-464 298.5,-190 203.5,-190"/>
</a>
</g>
</g>
<!-- Node1&#45;&gt;Node2 -->
<g id="edge1_Node000001_Node000002" class="edge">
<title>Node1&#45;&gt;Node2</title>
<g id="a_edge1_Node000001_Node000002"><a xlink:title=" ">
<path fill="none" stroke="#63b8ff" d="M288.69,-489.81C286.71,-481.32 284.7,-472.69 282.69,-464.05"/>
<polygon fill="none" stroke="#63b8ff" points="285.31,-490.75 290.99,-499.7 292.13,-489.16 285.31,-490.75"/>
</a>
</g>
</g>
<!-- Node6 -->
<g id="Node000006" class="node">
<title>Node6</title>
<g id="a_Node000006"><a xlink:href="classmonopoly_1_1SpecialSquare.html" target="_top" xlink:title="Represents special squares on the Monopoly board that trigger specific actions.">
<polygon fill="white" stroke="transparent" points="439,-404 317,-404 317,-250 439,-250 439,-404"/>
<text text-anchor="start" x="322" y="-392" font-family="Helvetica,sans-Serif" font-size="10.00">monopoly::SpecialSquare</text>
<text text-anchor="start" x="330.5" y="-377" font-family="Helvetica,sans-Serif" font-size="10.00">&#45;</text>
<text text-anchor="start" x="348" y="-377" font-family="Helvetica,sans-Serif" font-size="10.00">type</text>
<text text-anchor="start" x="329" y="-362" font-family="Helvetica,sans-Serif" font-size="10.00">+</text>
<text text-anchor="start" x="348" y="-362" font-family="Helvetica,sans-Serif" font-size="10.00">SpecialSquare()</text>
<text text-anchor="start" x="329" y="-347" font-family="Helvetica,sans-Serif" font-size="10.00">+</text>
<text text-anchor="start" x="348" y="-347" font-family="Helvetica,sans-Serif" font-size="10.00">getType()</text>
<text text-anchor="start" x="329" y="-332" font-family="Helvetica,sans-Serif" font-size="10.00">+</text>
<text text-anchor="start" x="348" y="-332" font-family="Helvetica,sans-Serif" font-size="10.00">isCardSquare()</text>
<text text-anchor="start" x="329" y="-317" font-family="Helvetica,sans-Serif" font-size="10.00">+</text>
<text text-anchor="start" x="348" y="-317" font-family="Helvetica,sans-Serif" font-size="10.00">isTaxSquare()</text>
<text text-anchor="start" x="329" y="-302" font-family="Helvetica,sans-Serif" font-size="10.00">+</text>
<text text-anchor="start" x="348" y="-302" font-family="Helvetica,sans-Serif" font-size="10.00">SpecialSquare()</text>
<text text-anchor="start" x="329" y="-287" font-family="Helvetica,sans-Serif" font-size="10.00">+</text>
<text text-anchor="start" x="348" y="-287" font-family="Helvetica,sans-Serif" font-size="10.00">operator=()</text>
<text text-anchor="start" x="329" y="-272" font-family="Helvetica,sans-Serif" font-size="10.00">+</text>
<text text-anchor="start" x="348" y="-272" font-family="Helvetica,sans-Serif" font-size="10.00">SpecialSquare()</text>
<text text-anchor="start" x="329" y="-257" font-family="Helvetica,sans-Serif" font-size="10.00">+</text>
<text text-anchor="start" x="348" y="-257" font-family="Helvetica,sans-Serif" font-size="10.00">operator=()</text>
<polygon fill="#666666" stroke="#666666" points="317,-387 317,-387 439,-387 439,-387 317,-387"/>
<polygon fill="#666666" stroke="#666666" points="317,-372 317,-372 346,-372 346,-372 317,-372"/>
<polygon fill="#666666" stroke="#666666" points="346,-372 346,-372 439,-372 439,-372 346,-372"/>
<polygon fill="none" stroke="#666666" points="317,-250 317,-404 439,-404 439,-250 317,-250"/>
</a>
</g>
</g>
<!-- Node1&#45;&gt;Node6 -->
<g id="edge5_Node000001_Node000006" class="edge">
<title>Node1&#45;&gt;Node6</title>
<g id="a_edge5_Node000001_Node000006"><a xlink:title=" ">
<path fill="none" stroke="#63b8ff" d="M339.76,-489.63C346.54,-460.95 353.72,-430.62 360,-404.08"/>
<polygon fill="none" stroke="#63b8ff" points="336.27,-489.16 337.38,-499.7 343.09,-490.77 336.27,-489.16"/>
</a>
</g>
</g>
<!-- Node3 -->
<g id="Node000003" class="node">
<title>Node3</title>
<g id="a_Node000003"><a xlink:href="classmonopoly_1_1Railroad.html" target="_top" xlink:title="Represents a railroad property in Monopoly.">
<polygon fill="white" stroke="transparent" points="188,-116.5 0,-116.5 0,-37.5 188,-37.5 188,-116.5"/>
<text text-anchor="start" x="51.5" y="-104" font-family="Helvetica,sans-Serif" font-size="10.00">monopoly::Railroad</text>
<text text-anchor="start" x="4" y="-89" font-family="Helvetica,sans-Serif" font-size="10.00">+</text>
<text text-anchor="start" x="15" y="-89" font-family="Helvetica,sans-Serif" font-size="10.00">DEFAULT_RAILROAD_PRICE</text>
<text text-anchor="start" x="4" y="-74" font-family="Helvetica,sans-Serif" font-size="10.00">+</text>
<text text-anchor="start" x="15" y="-74" font-family="Helvetica,sans-Serif" font-size="10.00">DEFAULT_RAILROAD_BASE_RENT</text>
<text text-anchor="start" x="4" y="-59" font-family="Helvetica,sans-Serif" font-size="10.00">+</text>
<text text-anchor="start" x="15" y="-59" font-family="Helvetica,sans-Serif" font-size="10.00">Railroad()</text>
<text text-anchor="start" x="4" y="-44" font-family="Helvetica,sans-Serif" font-size="10.00">+</text>
<text text-anchor="start" x="15" y="-44" font-family="Helvetica,sans-Serif" font-size="10.00">updateOwnedCount()</text>
<polygon fill="#666666" stroke="#666666" points="0,-99 0,-99 188,-99 188,-99 0,-99"/>
<polygon fill="#666666" stroke="#666666" points="0,-69 0,-69 13,-69 13,-69 0,-69"/>
<polygon fill="#666666" stroke="#666666" points="13,-69 13,-69 188,-69 188,-69 13,-69"/>
<polygon fill="none" stroke="#666666" points="0,-37.5 0,-116.5 188,-116.5 188,-37.5 0,-37.5"/>
</a>
</g>
</g>
<!-- Node2&#45;&gt;Node3 -->
<g id="edge2_Node000002_Node000003" class="edge">
<title>Node2&#45;&gt;Node3</title>
<g id="a_edge2_Node000002_Node000003"><a xlink:title=" ">
<path fill="none" stroke="#63b8ff" d="M197.97,-242.23C171.02,-199.66 139.58,-150 118.39,-116.53"/>
<polygon fill="none" stroke="#63b8ff" points="195.16,-244.34 203.47,-250.92 201.08,-240.6 195.16,-244.34"/>
</a>
</g>
</g>
<!-- Node4 -->
<g id="Node000004" class="node">
<title>Node4</title>
<g id="a_Node000004"><a xlink:href="classmonopoly_1_1Street.html" target="_top" xlink:title="Represents a street property in Monopoly.">
<polygon fill="white" stroke="transparent" points="295.5,-154 206.5,-154 206.5,0 295.5,0 295.5,-154"/>
<text text-anchor="start" x="214" y="-142" font-family="Helvetica,sans-Serif" font-size="10.00">monopoly::Street</text>
<text text-anchor="start" x="212.5" y="-127" font-family="Helvetica,sans-Serif" font-size="10.00">&#45;</text>
<text text-anchor="start" x="222" y="-127" font-family="Helvetica,sans-Serif" font-size="10.00">house_cost</text>
<text text-anchor="start" x="212.5" y="-112" font-family="Helvetica,sans-Serif" font-size="10.00">&#45;</text>
<text text-anchor="start" x="222" y="-112" font-family="Helvetica,sans-Serif" font-size="10.00">houses</text>
<text text-anchor="start" x="212.5" y="-97" font-family="Helvetica,sans-Serif" font-size="10.00">&#45;</text>
<text text-anchor="start" x="222" y="-97" font-family="Helvetica,sans-Serif" font-size="10.00">HOTEL</text>
<text text-anchor="start" x="211" y="-82" font-family="Helvetica,sans-Serif" font-size="10.00">+</text>
<text text-anchor="start" x="222" y="-82" font-family="Helvetica,sans-Serif" font-size="10.00">Street()</text>
<text text-anchor="start" x="211" y="-67" font-family="Helvetica,sans-Serif" font-size="10.00">+</text>
<text text-anchor="start" x="222" y="-67" font-family="Helvetica,sans-Serif" font-size="10.00">~Street()</text>
<text text-anchor="start" x="211" y="-52" font-family="Helvetica,sans-Serif" font-size="10.00">+</text>
<text text-anchor="start" x="222" y="-52" font-family="Helvetica,sans-Serif" font-size="10.00">getHouseCost()</text>
<text text-anchor="start" x="211" y="-37" font-family="Helvetica,sans-Serif" font-size="10.00">+</text>
<text text-anchor="start" x="222" y="-37" font-family="Helvetica,sans-Serif" font-size="10.00">getHouses()</text>
<text text-anchor="start" x="211" y="-22" font-family="Helvetica,sans-Serif" font-size="10.00">+</text>
<text text-anchor="start" x="222" y="-22" font-family="Helvetica,sans-Serif" font-size="10.00">addHouse()</text>
<text text-anchor="start" x="211" y="-7" font-family="Helvetica,sans-Serif" font-size="10.00">+</text>
<text text-anchor="start" x="222" y="-7" font-family="Helvetica,sans-Serif" font-size="10.00">hasHotel()</text>
<polygon fill="#666666" stroke="#666666" points="207,-137 207,-137 296,-137 296,-137 207,-137"/>
<polygon fill="#666666" stroke="#666666" points="207,-92 207,-92 220,-92 220,-92 207,-92"/>
<polygon fill="#666666" stroke="#666666" points="220,-92 220,-92 296,-92 296,-92 220,-92"/>
<polygon fill="none" stroke="#666666" points="206.5,0 206.5,-154 295.5,-154 295.5,0 206.5,0"/>
</a>
</g>
</g>
<!-- Node2&#45;&gt;Node4 -->
<g id="edge3_Node000002_Node000004" class="edge">
<title>Node2&#45;&gt;Node4</title>
<g id="a_edge3_Node000002_Node000004"><a xlink:title=" ">
<path fill="none" stroke="#63b8ff" d="M251,-179.46C251,-170.81 251,-162.32 251,-154.15"/>
<polygon fill="none" stroke="#63b8ff" points="247.5,-179.67 251,-189.67 254.5,-179.67 247.5,-179.67"/>
</a>
</g>
</g>
<!-- Node5 -->
<g id="Node000005" class="node">
<title>Node5</title>
<g id="a_Node000005"><a xlink:href="classmonopoly_1_1Utility.html" target="_top" xlink:title="Represents a utility property (Electric Company or Water Works) in Monopoly.">
<polygon fill="white" stroke="transparent" points="458.5,-116.5 313.5,-116.5 313.5,-37.5 458.5,-37.5 458.5,-116.5"/>
<text text-anchor="start" x="349.5" y="-104" font-family="Helvetica,sans-Serif" font-size="10.00">monopoly::Utility</text>
<text text-anchor="start" x="319.5" y="-89" font-family="Helvetica,sans-Serif" font-size="10.00">&#45;</text>
<text text-anchor="start" x="329" y="-89" font-family="Helvetica,sans-Serif" font-size="10.00">DEFAULT_UTILITY_PRICE</text>
<text text-anchor="start" x="319.5" y="-74" font-family="Helvetica,sans-Serif" font-size="10.00">&#45;</text>
<text text-anchor="start" x="329" y="-74" font-family="Helvetica,sans-Serif" font-size="10.00">DEFAULT_MULTIPLIER</text>
<text text-anchor="start" x="318" y="-59" font-family="Helvetica,sans-Serif" font-size="10.00">+</text>
<text text-anchor="start" x="329" y="-59" font-family="Helvetica,sans-Serif" font-size="10.00">Utility()</text>
<text text-anchor="start" x="318" y="-44" font-family="Helvetica,sans-Serif" font-size="10.00">+</text>
<text text-anchor="start" x="329" y="-44" font-family="Helvetica,sans-Serif" font-size="10.00">updateRent()</text>
<polygon fill="#666666" stroke="#666666" points="314,-99 314,-99 459,-99 459,-99 314,-99"/>
<polygon fill="#666666" stroke="#666666" points="314,-69 314,-69 327,-69 327,-69 314,-69"/>
<polygon fill="#666666" stroke="#666666" points="327,-69 327,-69 459,-69 459,-69 327,-69"/>
<polygon fill="none" stroke="#666666" points="313.5,-37.5 313.5,-116.5 458.5,-116.5 458.5,-37.5 313.5,-37.5"/>
</a>
</g>
</g>
<!-- Node2&#45;&gt;Node5 -->
<g id="edge4_Node000002_Node000005" class="edge">
<title>Node2&#45;&gt;Node5</title>
<g id="a_edge4_Node000002_Node000005"><a xlink:title=" ">
<path fill="none" stroke="#63b8ff" d="M303.24,-198.9C304.81,-195.89 306.4,-192.92 308,-190 322.04,-164.46 340.59,-137.61 356.08,-116.6"/>
<polygon fill="none" stroke="#63b8ff" points="300,-197.55 298.59,-208.05 306.24,-200.72 300,-197.55"/>
</a>
</g>
</g>
</g>
</svg>
