<?xml version="1.0" encoding="UTF-8" standalone="no"?>
<!DOCTYPE svg PUBLIC "-//W3C//DTD SVG 1.1//EN"
 "http://www.w3.org/Graphics/SVG/1.1/DTD/svg11.dtd">
<!-- Generated by graphviz version 2.43.0 (0)
 -->
<!-- Title: monopoly::Street Pages: 1 -->
<svg width="103pt" height="707pt"
 viewBox="0.00 0.00 103.00 707.00" xmlns="http://www.w3.org/2000/svg" xmlns:xlink="http://www.w3.org/1999/xlink">
<g id="graph0" class="graph" transform="scale(1 1) rotate(0) translate(4 703)">
<title>monopoly::Street</title>
<!-- Node1 -->
<g id="Node000001" class="node">
<title>Node1</title>
<g id="a_Node000001"><a xlink:title="Represents a street property in Monopoly.">
<polygon fill="#999999" stroke="transparent" points="92,-154 3,-154 3,0 92,0 92,-154"/>
<text text-anchor="start" x="10.5" y="-142" font-family="Helvetica,sans-Serif" font-size="10.00">monopoly::Street</text>
<text text-anchor="start" x="9" y="-127" font-family="Helvetica,sans-Serif" font-size="10.00">&#45;</text>
<text text-anchor="start" x="18.5" y="-127" font-family="Helvetica,sans-Serif" font-size="10.00">house_cost</text>
<text text-anchor="start" x="9" y="-112" font-family="Helvetica,sans-Serif" font-size="10.00">&#45;</text>
<text text-anchor="start" x="18.5" y="-112" font-family="Helvetica,sans-Serif" font-size="10.00">houses</text>
<text text-anchor="start" x="9" y="-97" font-family="Helvetica,sans-Serif" font-size="10.00">&#45;</text>
<text text-anchor="start" x="18.5" y="-97" font-family="Helvetica,sans-Serif" font-size="10.00">HOTEL</text>
<text text-anchor="start" x="7.5" y="-82" font-family="Helvetica,sans-Serif" font-size="10.00">+</text>
<text text-anchor="start" x="18.5" y="-82" font-family="Helvetica,sans-Serif" font-size="10.00">Street()</text>
<text text-anchor="start" x="7.5" y="-67" font-family="Helvetica,sans-Serif" font-size="10.00">+</text>
<text text-anchor="start" x="18.5" y="-67" font-family="Helvetica,sans-Serif" font-size="10.00">~Street()</text>
<text text-anchor="start" x="7.5" y="-52" font-family="Helvetica,sans-Serif" font-size="10.00">+</text>
<text text-anchor="start" x="18.5" y="-52" font-family="Helvetica,sans-Serif" font-size="10.00">getHouseCost()</text>
<text text-anchor="start" x="7.5" y="-37" font-family="Helvetica,sans-Serif" font-size="10.00">+</text>
<text text-anchor="start" x="18.5" y="-37" font-family="Helvetica,sans-Serif" font-size="10.00">getHouses()</text>
<text text-anchor="start" x="7.5" y="-22" font-family="Helvetica,sans-Serif" font-size="10.00">+</text>
<text text-anchor="start" x="18.5" y="-22" font-family="Helvetica,sans-Serif" font-size="10.00">addHouse()</text>
<text text-anchor="start" x="7.5" y="-7" font-family="Helvetica,sans-Serif" font-size="10.00">+</text>
<text text-anchor="start" x="18.5" y="-7" font-family="Helvetica,sans-Serif" font-size="10.00">hasHotel()</text>
<polygon fill="#666666" stroke="#666666" points="3.5,-137 3.5,-137 92.5,-137 92.5,-137 3.5,-137"/>
<polygon fill="#666666" stroke="#666666" points="3.5,-92 3.5,-92 16.5,-92 16.5,-92 3.5,-92"/>
<polygon fill="#666666" stroke="#666666" points="16.5,-92 16.5,-92 92.5,-92 92.5,-92 16.5,-92"/>
<polygon fill="none" stroke="#666666" points="3,0 3,-154 92,-154 92,0 3,0"/>
</a>
</g>
</g>
<!-- Node2 -->
<g id="Node000002" class="node">
<title>Node2</title>
<g id="a_Node000002"><a xlink:href="classmonopoly_1_1Property.html" target="_top" xlink:title="Base class for all purchasable properties in Monopoly.">
<polygon fill="white" stroke="transparent" points="95,-464 0,-464 0,-190 95,-190 95,-464"/>
<text text-anchor="start" x="5.5" y="-452" font-family="Helvetica,sans-Serif" font-size="10.00">monopoly::Property</text>
<text text-anchor="start" x="8" y="-437" font-family="Helvetica,sans-Serif" font-size="10.00">#</text>
<text text-anchor="start" x="21.5" y="-437" font-family="Helvetica,sans-Serif" font-size="10.00">owner_id</text>
<text text-anchor="start" x="8" y="-422" font-family="Helvetica,sans-Serif" font-size="10.00">#</text>
<text text-anchor="start" x="21.5" y="-422" font-family="Helvetica,sans-Serif" font-size="10.00">price</text>
<text text-anchor="start" x="8" y="-407" font-family="Helvetica,sans-Serif" font-size="10.00">#</text>
<text text-anchor="start" x="21.5" y="-407" font-family="Helvetica,sans-Serif" font-size="10.00">base_rent</text>
<text text-anchor="start" x="8" y="-392" font-family="Helvetica,sans-Serif" font-size="10.00">#</text>
<text text-anchor="start" x="21.5" y="-392" font-family="Helvetica,sans-Serif" font-size="10.00">group</text>
<text text-anchor="start" x="8" y="-377" font-family="Helvetica,sans-Serif" font-size="10.00">#</text>
<text text-anchor="start" x="21.5" y="-377" font-family="Helvetica,sans-Serif" font-size="10.00">rentCalculator</text>
<text text-anchor="start" x="8" y="-362" font-family="Helvetica,sans-Serif" font-size="10.00">#</text>
<text text-anchor="start" x="21.5" y="-362" font-family="Helvetica,sans-Serif" font-size="10.00">BANK_ID</text>
<text text-anchor="start" x="7.5" y="-347" font-family="Helvetica,sans-Serif" font-size="10.00">+</text>
<text text-anchor="start" x="21.5" y="-347" font-family="Helvetica,sans-Serif" font-size="10.00">Property()</text>
<text text-anchor="start" x="7.5" y="-332" font-family="Helvetica,sans-Serif" font-size="10.00">+</text>
<text text-anchor="start" x="21.5" y="-332" font-family="Helvetica,sans-Serif" font-size="10.00">~Property()</text>
<text text-anchor="start" x="7.5" y="-317" font-family="Helvetica,sans-Serif" font-size="10.00">+</text>
<text text-anchor="start" x="21.5" y="-317" font-family="Helvetica,sans-Serif" font-size="10.00">getOwnerId()</text>
<text text-anchor="start" x="7.5" y="-302" font-family="Helvetica,sans-Serif" font-size="10.00">+</text>
<text text-anchor="start" x="21.5" y="-302" font-family="Helvetica,sans-Serif" font-size="10.00">setOwnerId()</text>
<text text-anchor="start" x="7.5" y="-287" font-family="Helvetica,sans-Serif" font-size="10.00">+</text>
<text text-anchor="start" x="21.5" y="-287" font-family="Helvetica,sans-Serif" font-size="10.00">isOwned()</text>
<text text-anchor="start" x="7.5" y="-272" font-family="Helvetica,sans-Serif" font-size="10.00">+</text>
<text text-anchor="start" x="21.5" y="-272" font-family="Helvetica,sans-Serif" font-size="10.00">getPrice()</text>
<text text-anchor="start" x="7.5" y="-257" font-family="Helvetica,sans-Serif" font-size="10.00">+</text>
<text text-anchor="start" x="21.5" y="-257" font-family="Helvetica,sans-Serif" font-size="10.00">setPrice()</text>
<text text-anchor="start" x="7.5" y="-242" font-family="Helvetica,sans-Serif" font-size="10.00">+</text>
<text text-anchor="start" x="21.5" y="-242" font-family="Helvetica,sans-Serif" font-size="10.00">getBaseRent()</text>
<text text-anchor="start" x="7.5" y="-227" font-family="Helvetica,sans-Serif" font-size="10.00">+</text>
<text text-anchor="start" x="21.5" y="-227" font-family="Helvetica,sans-Serif" font-size="10.00">setBaseRent()</text>
<text text-anchor="start" x="7.5" y="-212" font-family="Helvetica,sans-Serif" font-size="10.00">+</text>
<text text-anchor="start" x="21.5" y="-212" font-family="Helvetica,sans-Serif" font-size="10.00">getGroup()</text>
<text text-anchor="start" x="21.5" y="-197" font-family="Helvetica,sans-Serif" font-size="10.00">and 6 more...</text>
<polygon fill="#666666" stroke="#666666" points="0.5,-447 0.5,-447 95.5,-447 95.5,-447 0.5,-447"/>
<polygon fill="#666666" stroke="#666666" points="0.5,-357 0.5,-357 19.5,-357 19.5,-357 0.5,-357"/>
<polygon fill="#666666" stroke="#666666" points="19.5,-357 19.5,-357 95.5,-357 95.5,-357 19.5,-357"/>
<polygon fill="none" stroke="#666666" points="0,-190 0,-464 95,-464 95,-190 0,-190"/>
</a>
</g>
</g>
<!-- Node2&#45;&gt;Node1 -->
<g id="edge1_Node000001_Node000002" class="edge">
<title>Node2&#45;&gt;Node1</title>
<g id="a_edge1_Node000001_Node000002"><a xlink:title=" ">
<path fill="none" stroke="#63b8ff" d="M47.5,-179.46C47.5,-170.81 47.5,-162.32 47.5,-154.15"/>
<polygon fill="none" stroke="#63b8ff" points="44,-179.67 47.5,-189.67 51,-179.67 44,-179.67"/>
</a>
</g>
</g>
<!-- Node3 -->
<g id="Node000003" class="node">
<title>Node3</title>
<g id="a_Node000003"><a xlink:href="classmonopoly_1_1Square.html" target="_top" xlink:title="Base class for all squares on the Monopoly board.">
<polygon fill="white" stroke="transparent" points="92,-699 3,-699 3,-500 92,-500 92,-699"/>
<text text-anchor="start" x="8.5" y="-686.5" font-family="Helvetica,sans-Serif" font-size="10.00">monopoly::Square</text>
<text text-anchor="start" x="12.5" y="-671.5" font-family="Helvetica,sans-Serif" font-size="10.00">&#45;</text>
<text text-anchor="start" x="25.5" y="-671.5" font-family="Helvetica,sans-Serif" font-size="10.00">name</text>
<text text-anchor="start" x="12.5" y="-656.5" font-family="Helvetica,sans-Serif" font-size="10.00">&#45;</text>
<text text-anchor="start" x="25.5" y="-656.5" font-family="Helvetica,sans-Serif" font-size="10.00">position</text>
<text text-anchor="start" x="12.5" y="-641.5" font-family="Helvetica,sans-Serif" font-size="10.00">&#45;</text>
<text text-anchor="start" x="25.5" y="-641.5" font-family="Helvetica,sans-Serif" font-size="10.00">id</text>
<text text-anchor="start" x="11" y="-626.5" font-family="Helvetica,sans-Serif" font-size="10.00">+</text>
<text text-anchor="start" x="25.5" y="-626.5" font-family="Helvetica,sans-Serif" font-size="10.00">Square()</text>
<text text-anchor="start" x="11" y="-611.5" font-family="Helvetica,sans-Serif" font-size="10.00">+</text>
<text text-anchor="start" x="25.5" y="-611.5" font-family="Helvetica,sans-Serif" font-size="10.00">~Square()</text>
<text text-anchor="start" x="11" y="-596.5" font-family="Helvetica,sans-Serif" font-size="10.00">+</text>
<text text-anchor="start" x="25.5" y="-596.5" font-family="Helvetica,sans-Serif" font-size="10.00">getName()</text>
<text text-anchor="start" x="11" y="-581.5" font-family="Helvetica,sans-Serif" font-size="10.00">+</text>
<text text-anchor="start" x="25.5" y="-581.5" font-family="Helvetica,sans-Serif" font-size="10.00">getPosition()</text>
<text text-anchor="start" x="11" y="-566.5" font-family="Helvetica,sans-Serif" font-size="10.00">+</text>
<text text-anchor="start" x="25.5" y="-566.5" font-family="Helvetica,sans-Serif" font-size="10.00">getId()</text>
<text text-anchor="start" x="11" y="-551.5" font-family="Helvetica,sans-Serif" font-size="10.00">+</text>
<text text-anchor="start" x="25.5" y="-551.5" font-family="Helvetica,sans-Serif" font-size="10.00">Square()</text>
<text text-anchor="start" x="11" y="-536.5" font-family="Helvetica,sans-Serif" font-size="10.00">+</text>
<text text-anchor="start" x="25.5" y="-536.5" font-family="Helvetica,sans-Serif" font-size="10.00">operator=()</text>
<text text-anchor="start" x="11" y="-521.5" font-family="Helvetica,sans-Serif" font-size="10.00">+</text>
<text text-anchor="start" x="25.5" y="-521.5" font-family="Helvetica,sans-Serif" font-size="10.00">Square()</text>
<text text-anchor="start" x="11" y="-506.5" font-family="Helvetica,sans-Serif" font-size="10.00">+</text>
<text text-anchor="start" x="25.5" y="-506.5" font-family="Helvetica,sans-Serif" font-size="10.00">operator=()</text>
<polygon fill="#666666" stroke="#666666" points="3.5,-681.5 3.5,-681.5 92.5,-681.5 92.5,-681.5 3.5,-681.5"/>
<polygon fill="#666666" stroke="#666666" points="3.5,-636.5 3.5,-636.5 23.5,-636.5 23.5,-636.5 3.5,-636.5"/>
<polygon fill="#666666" stroke="#666666" points="23.5,-636.5 23.5,-636.5 92.5,-636.5 92.5,-636.5 23.5,-636.5"/>
<polygon fill="none" stroke="#666666" points="3,-500 3,-699 92,-699 92,-500 3,-500"/>
</a>
</g>
</g>
<!-- Node3&#45;&gt;Node2 -->
<g id="edge2_Node000002_Node000003" class="edge">
<title>Node3&#45;&gt;Node2</title>
<g id="a_edge2_Node000002_Node000003"><a xlink:title=" ">
<path fill="none" stroke="#63b8ff" d="M47.5,-489.53C47.5,-481.13 47.5,-472.59 47.5,-464.05"/>
<polygon fill="none" stroke="#63b8ff" points="44,-489.7 47.5,-499.7 51,-489.7 44,-489.7"/>
</a>
</g>
</g>
</g>
</svg>
