<?xml version="1.0" encoding="UTF-8" standalone="no"?>
<!DOCTYPE svg PUBLIC "-//W3C//DTD SVG 1.1//EN"
 "http://www.w3.org/Graphics/SVG/1.1/DTD/svg11.dtd">
<!-- Generated by graphviz version 2.43.0 (0)
 -->
<!-- Title: src/view/GameView.cpp Pages: 1 -->
<svg width="471pt" height="368pt"
 viewBox="0.00 0.00 470.50 368.00" xmlns="http://www.w3.org/2000/svg" xmlns:xlink="http://www.w3.org/1999/xlink">
<g id="graph0" class="graph" transform="scale(1 1) rotate(0) translate(4 364)">
<title>src/view/GameView.cpp</title>
<!-- Node1 -->
<g id="Node000001" class="node">
<title>Node1</title>
<g id="a_Node000001"><a xlink:title=" ">
<polygon fill="#999999" stroke="#666666" points="209,-360 87,-360 87,-341 209,-341 209,-360"/>
<text text-anchor="middle" x="148" y="-348" font-family="Helvetica,sans-Serif" font-size="10.00">src/view/GameView.cpp</text>
</a>
</g>
</g>
<!-- Node2 -->
<g id="Node000002" class="node">
<title>Node2</title>
<g id="a_Node000002"><a xlink:href="GameView_8hpp.html" target="_top" xlink:title="Main view class for the Monopoly game&#39;s graphical interface.">
<polygon fill="white" stroke="#666666" points="192.5,-305 103.5,-305 103.5,-275 192.5,-275 192.5,-305"/>
<text text-anchor="start" x="111.5" y="-293" font-family="Helvetica,sans-Serif" font-size="10.00">../../include/view</text>
<text text-anchor="middle" x="148" y="-282" font-family="Helvetica,sans-Serif" font-size="10.00">/GameView.hpp</text>
</a>
</g>
</g>
<!-- Node1&#45;&gt;Node2 -->
<g id="edge1_Node000001_Node000002" class="edge">
<title>Node1&#45;&gt;Node2</title>
<g id="a_edge1_Node000001_Node000002"><a xlink:title=" ">
<path fill="none" stroke="#63b8ff" d="M148,-340.87C148,-334.11 148,-324.35 148,-315.26"/>
<polygon fill="#63b8ff" stroke="#63b8ff" points="151.5,-315.11 148,-305.11 144.5,-315.11 151.5,-315.11"/>
</a>
</g>
</g>
<!-- Node3 -->
<g id="Node000003" class="node">
<title>Node3</title>
<g id="a_Node000003"><a xlink:title=" ">
<polygon fill="#e0e0e0" stroke="#999999" points="104,-19 0,-19 0,0 104,0 104,-19"/>
<text text-anchor="middle" x="52" y="-7" font-family="Helvetica,sans-Serif" font-size="10.00">SFML/Graphics.hpp</text>
</a>
</g>
</g>
<!-- Node2&#45;&gt;Node3 -->
<g id="edge2_Node000002_Node000003" class="edge">
<title>Node2&#45;&gt;Node3</title>
<g id="a_edge2_Node000002_Node000003"><a xlink:title=" ">
<path fill="none" stroke="#63b8ff" d="M116.88,-274.88C101.42,-266.45 83.62,-254.37 72,-239 54.16,-215.39 52,-205.09 52,-175.5 52,-175.5 52,-175.5 52,-118.5 52,-87.19 52,-50.77 52,-29.23"/>
<polygon fill="#63b8ff" stroke="#63b8ff" points="55.5,-29.18 52,-19.18 48.5,-29.18 55.5,-29.18"/>
</a>
</g>
</g>
<!-- Node4 -->
<g id="Node000004" class="node">
<title>Node4</title>
<g id="a_Node000004"><a xlink:href="BoardView_8hpp.html" target="_top" xlink:title=" ">
<polygon fill="white" stroke="#666666" points="369.5,-239 232.5,-239 232.5,-220 369.5,-220 369.5,-239"/>
<text text-anchor="middle" x="301" y="-227" font-family="Helvetica,sans-Serif" font-size="10.00">components/BoardView.hpp</text>
</a>
</g>
</g>
<!-- Node2&#45;&gt;Node4 -->
<g id="edge3_Node000002_Node000004" class="edge">
<title>Node2&#45;&gt;Node4</title>
<g id="a_edge3_Node000002_Node000004"><a xlink:title=" ">
<path fill="none" stroke="#63b8ff" d="M184.65,-274.99C210.29,-265.18 244.22,-252.21 268.82,-242.81"/>
<polygon fill="#63b8ff" stroke="#63b8ff" points="270.31,-245.98 278.41,-239.14 267.81,-239.44 270.31,-245.98"/>
</a>
</g>
</g>
<!-- Node15 -->
<g id="Node000015" class="node">
<title>Node15</title>
<g id="a_Node000015"><a xlink:href="UserView_8hpp.html" target="_top" xlink:title=" ">
<polygon fill="white" stroke="#666666" points="214.5,-239 81.5,-239 81.5,-220 214.5,-220 214.5,-239"/>
<text text-anchor="middle" x="148" y="-227" font-family="Helvetica,sans-Serif" font-size="10.00">components/UserView.hpp</text>
</a>
</g>
</g>
<!-- Node2&#45;&gt;Node15 -->
<g id="edge22_Node000002_Node000015" class="edge">
<title>Node2&#45;&gt;Node15</title>
<g id="a_edge22_Node000002_Node000015"><a xlink:title=" ">
<path fill="none" stroke="#63b8ff" d="M148,-274.84C148,-267.21 148,-257.7 148,-249.45"/>
<polygon fill="#63b8ff" stroke="#63b8ff" points="151.5,-249.27 148,-239.27 144.5,-249.27 151.5,-249.27"/>
</a>
</g>
</g>
<!-- Node5 -->
<g id="Node000005" class="node">
<title>Node5</title>
<g id="a_Node000005"><a xlink:href="BoardSquareComponent_8hpp.html" target="_top" xlink:title=" ">
<polygon fill="white" stroke="#666666" points="373,-184 231,-184 231,-165 373,-165 373,-184"/>
<text text-anchor="middle" x="302" y="-172" font-family="Helvetica,sans-Serif" font-size="10.00">BoardSquareComponent.hpp</text>
</a>
</g>
</g>
<!-- Node4&#45;&gt;Node5 -->
<g id="edge4_Node000004_Node000005" class="edge">
<title>Node4&#45;&gt;Node5</title>
<g id="a_edge4_Node000004_Node000005"><a xlink:title=" ">
<path fill="none" stroke="#63b8ff" d="M301.17,-219.75C301.3,-212.8 301.48,-202.85 301.65,-194.13"/>
<polygon fill="#63b8ff" stroke="#63b8ff" points="305.15,-194.15 301.84,-184.09 298.15,-194.02 305.15,-194.15"/>
</a>
</g>
</g>
<!-- Node14 -->
<g id="Node000014" class="node">
<title>Node14</title>
<g id="a_Node000014"><a xlink:href="SFComposite_8hpp.html" target="_top" xlink:title=" ">
<polygon fill="white" stroke="#666666" points="213.5,-129 118.5,-129 118.5,-110 213.5,-110 213.5,-129"/>
<text text-anchor="middle" x="166" y="-117" font-family="Helvetica,sans-Serif" font-size="10.00">SFComposite.hpp</text>
</a>
</g>
</g>
<!-- Node4&#45;&gt;Node14 -->
<g id="edge17_Node000004_Node000014" class="edge">
<title>Node4&#45;&gt;Node14</title>
<g id="a_edge17_Node000004_Node000014"><a xlink:title=" ">
<path fill="none" stroke="#63b8ff" d="M281.69,-219.89C264.96,-211.92 240.6,-199.06 222,-184 204.94,-170.19 188.74,-150.89 178.19,-137.2"/>
<polygon fill="#63b8ff" stroke="#63b8ff" points="180.93,-135.02 172.12,-129.13 175.33,-139.23 180.93,-135.02"/>
</a>
</g>
</g>
<!-- Node6 -->
<g id="Node000006" class="node">
<title>Node6</title>
<g id="a_Node000006"><a xlink:title=" ">
<polygon fill="#e0e0e0" stroke="#999999" points="141.5,-74 82.5,-74 82.5,-55 141.5,-55 141.5,-74"/>
<text text-anchor="middle" x="112" y="-62" font-family="Helvetica,sans-Serif" font-size="10.00">functional</text>
</a>
</g>
</g>
<!-- Node5&#45;&gt;Node6 -->
<g id="edge5_Node000005_Node000006" class="edge">
<title>Node5&#45;&gt;Node6</title>
<g id="a_edge5_Node000005_Node000006"><a xlink:title=" ">
<path fill="none" stroke="#63b8ff" d="M230.82,-166.32C182.33,-159.79 124.25,-148.17 109,-129 99.13,-116.6 101.28,-98.13 105.07,-84.3"/>
<polygon fill="#63b8ff" stroke="#63b8ff" points="108.52,-85 108.26,-74.41 101.86,-82.85 108.52,-85"/>
</a>
</g>
</g>
<!-- Node7 -->
<g id="Node000007" class="node">
<title>Node7</title>
<g id="a_Node000007"><a xlink:title=" ">
<polygon fill="#e0e0e0" stroke="#999999" points="328,-74 276,-74 276,-55 328,-55 328,-74"/>
<text text-anchor="middle" x="302" y="-62" font-family="Helvetica,sans-Serif" font-size="10.00">memory</text>
</a>
</g>
</g>
<!-- Node5&#45;&gt;Node7 -->
<g id="edge6_Node000005_Node000007" class="edge">
<title>Node5&#45;&gt;Node7</title>
<g id="a_edge6_Node000005_Node000007"><a xlink:title=" ">
<path fill="none" stroke="#63b8ff" d="M329.64,-164.92C357.92,-154.55 395.78,-135.3 381,-110 371.57,-93.87 353.9,-83.13 337.66,-76.25"/>
<polygon fill="#63b8ff" stroke="#63b8ff" points="338.92,-72.99 328.34,-72.63 336.39,-79.51 338.92,-72.99"/>
</a>
</g>
</g>
<!-- Node8 -->
<g id="Node000008" class="node">
<title>Node8</title>
<g id="a_Node000008"><a xlink:title=" ">
<polygon fill="#e0e0e0" stroke="#999999" points="387.5,-74 346.5,-74 346.5,-55 387.5,-55 387.5,-74"/>
<text text-anchor="middle" x="367" y="-62" font-family="Helvetica,sans-Serif" font-size="10.00">string</text>
</a>
</g>
</g>
<!-- Node5&#45;&gt;Node8 -->
<g id="edge7_Node000005_Node000008" class="edge">
<title>Node5&#45;&gt;Node8</title>
<g id="a_edge7_Node000005_Node000008"><a xlink:title=" ">
<path fill="none" stroke="#63b8ff" d="M342.62,-164.99C362.32,-158.59 384.22,-147.61 396,-129 405.66,-113.74 394.24,-94.72 383.01,-81.49"/>
<polygon fill="#63b8ff" stroke="#63b8ff" points="385.57,-79.1 376.24,-74.09 380.41,-83.83 385.57,-79.1"/>
</a>
</g>
</g>
<!-- Node9 -->
<g id="Node000009" class="node">
<title>Node9</title>
<g id="a_Node000009"><a xlink:href="PlayerTokenComponent_8hpp.html" target="_top" xlink:title=" ">
<polygon fill="white" stroke="#666666" points="372,-129 232,-129 232,-110 372,-110 372,-129"/>
<text text-anchor="middle" x="302" y="-117" font-family="Helvetica,sans-Serif" font-size="10.00">PlayerTokenComponent.hpp</text>
</a>
</g>
</g>
<!-- Node5&#45;&gt;Node9 -->
<g id="edge8_Node000005_Node000009" class="edge">
<title>Node5&#45;&gt;Node9</title>
<g id="a_edge8_Node000005_Node000009"><a xlink:title=" ">
<path fill="none" stroke="#63b8ff" d="M302,-164.75C302,-157.8 302,-147.85 302,-139.13"/>
<polygon fill="#63b8ff" stroke="#63b8ff" points="305.5,-139.09 302,-129.09 298.5,-139.09 305.5,-139.09"/>
</a>
</g>
</g>
<!-- Node9&#45;&gt;Node6 -->
<g id="edge9_Node000009_Node000006" class="edge">
<title>Node9&#45;&gt;Node6</title>
<g id="a_edge9_Node000009_Node000006"><a xlink:title=" ">
<path fill="none" stroke="#63b8ff" d="M271.47,-109.98C238.92,-100.9 187.23,-86.49 151.57,-76.54"/>
<polygon fill="#63b8ff" stroke="#63b8ff" points="152.09,-73.05 141.51,-73.73 150.21,-79.79 152.09,-73.05"/>
</a>
</g>
</g>
<!-- Node9&#45;&gt;Node7 -->
<g id="edge10_Node000009_Node000007" class="edge">
<title>Node9&#45;&gt;Node7</title>
<g id="a_edge10_Node000009_Node000007"><a xlink:title=" ">
<path fill="none" stroke="#63b8ff" d="M302,-109.75C302,-102.8 302,-92.85 302,-84.13"/>
<polygon fill="#63b8ff" stroke="#63b8ff" points="305.5,-84.09 302,-74.09 298.5,-84.09 305.5,-84.09"/>
</a>
</g>
</g>
<!-- Node9&#45;&gt;Node8 -->
<g id="edge11_Node000009_Node000008" class="edge">
<title>Node9&#45;&gt;Node8</title>
<g id="a_edge11_Node000009_Node000008"><a xlink:title=" ">
<path fill="none" stroke="#63b8ff" d="M312.44,-109.98C322.15,-102.07 336.82,-90.11 348.5,-80.58"/>
<polygon fill="#63b8ff" stroke="#63b8ff" points="350.83,-83.2 356.37,-74.17 346.4,-77.78 350.83,-83.2"/>
</a>
</g>
</g>
<!-- Node10 -->
<g id="Node000010" class="node">
<title>Node10</title>
<g id="a_Node000010"><a xlink:href="SFComponent_8hpp.html" target="_top" xlink:title=" ">
<polygon fill="white" stroke="#666666" points="258,-74 160,-74 160,-55 258,-55 258,-74"/>
<text text-anchor="middle" x="209" y="-62" font-family="Helvetica,sans-Serif" font-size="10.00">SFComponent.hpp</text>
</a>
</g>
</g>
<!-- Node9&#45;&gt;Node10 -->
<g id="edge12_Node000009_Node000010" class="edge">
<title>Node9&#45;&gt;Node10</title>
<g id="a_edge12_Node000009_Node000010"><a xlink:title=" ">
<path fill="none" stroke="#63b8ff" d="M287.06,-109.98C272.5,-101.69 250.13,-88.94 233.07,-79.22"/>
<polygon fill="#63b8ff" stroke="#63b8ff" points="234.64,-76.08 224.21,-74.17 231.17,-82.16 234.64,-76.08"/>
</a>
</g>
</g>
<!-- Node10&#45;&gt;Node3 -->
<g id="edge14_Node000010_Node000003" class="edge">
<title>Node10&#45;&gt;Node3</title>
<g id="a_edge14_Node000010_Node000003"><a xlink:title=" ">
<path fill="none" stroke="#63b8ff" d="M183.78,-54.98C157.64,-46.16 116.6,-32.31 87.27,-22.41"/>
<polygon fill="#63b8ff" stroke="#63b8ff" points="88.02,-18.96 77.42,-19.08 85.78,-25.6 88.02,-18.96"/>
</a>
</g>
</g>
<!-- Node11 -->
<g id="Node000011" class="node">
<title>Node11</title>
<g id="a_Node000011"><a xlink:title=" ">
<polygon fill="#e0e0e0" stroke="#999999" points="176,-19 122,-19 122,0 176,0 176,-19"/>
<text text-anchor="middle" x="149" y="-7" font-family="Helvetica,sans-Serif" font-size="10.00">iostream</text>
</a>
</g>
</g>
<!-- Node10&#45;&gt;Node11 -->
<g id="edge13_Node000010_Node000011" class="edge">
<title>Node10&#45;&gt;Node11</title>
<g id="a_edge13_Node000010_Node000011"><a xlink:title=" ">
<path fill="none" stroke="#63b8ff" d="M199.36,-54.98C190.49,-47.15 177.13,-35.34 166.39,-25.86"/>
<polygon fill="#63b8ff" stroke="#63b8ff" points="168.63,-23.17 158.82,-19.17 163.99,-28.41 168.63,-23.17"/>
</a>
</g>
</g>
<!-- Node12 -->
<g id="Node000012" class="node">
<title>Node12</title>
<g id="a_Node000012"><a xlink:title=" ">
<polygon fill="#e0e0e0" stroke="#999999" points="321.5,-19 194.5,-19 194.5,0 321.5,0 321.5,-19"/>
<text text-anchor="middle" x="258" y="-7" font-family="Helvetica,sans-Serif" font-size="10.00">SFML/System/Clock.hpp</text>
</a>
</g>
</g>
<!-- Node10&#45;&gt;Node12 -->
<g id="edge15_Node000010_Node000012" class="edge">
<title>Node10&#45;&gt;Node12</title>
<g id="a_edge15_Node000010_Node000012"><a xlink:title=" ">
<path fill="none" stroke="#63b8ff" d="M217.09,-54.75C224.16,-47.11 234.59,-35.82 243.15,-26.56"/>
<polygon fill="#63b8ff" stroke="#63b8ff" points="245.84,-28.81 250.06,-19.09 240.7,-24.06 245.84,-28.81"/>
</a>
</g>
</g>
<!-- Node13 -->
<g id="Node000013" class="node">
<title>Node13</title>
<g id="a_Node000013"><a xlink:title=" ">
<polygon fill="#e0e0e0" stroke="#999999" points="462.5,-19 339.5,-19 339.5,0 462.5,0 462.5,-19"/>
<text text-anchor="middle" x="401" y="-7" font-family="Helvetica,sans-Serif" font-size="10.00">SFML/System/Time.hpp</text>
</a>
</g>
</g>
<!-- Node10&#45;&gt;Node13 -->
<g id="edge16_Node000010_Node000013" class="edge">
<title>Node10&#45;&gt;Node13</title>
<g id="a_edge16_Node000010_Node000013"><a xlink:title=" ">
<path fill="none" stroke="#63b8ff" d="M239.85,-54.98C272.5,-45.97 324.2,-31.7 360.2,-21.76"/>
<polygon fill="#63b8ff" stroke="#63b8ff" points="361.2,-25.12 369.91,-19.08 359.34,-18.37 361.2,-25.12"/>
</a>
</g>
</g>
<!-- Node14&#45;&gt;Node6 -->
<g id="edge18_Node000014_Node000006" class="edge">
<title>Node14&#45;&gt;Node6</title>
<g id="a_edge18_Node000014_Node000006"><a xlink:title=" ">
<path fill="none" stroke="#63b8ff" d="M157.08,-109.75C149.22,-102.03 137.57,-90.6 128.08,-81.28"/>
<polygon fill="#63b8ff" stroke="#63b8ff" points="130.34,-78.6 120.75,-74.09 125.44,-83.59 130.34,-78.6"/>
</a>
</g>
</g>
<!-- Node14&#45;&gt;Node7 -->
<g id="edge19_Node000014_Node000007" class="edge">
<title>Node14&#45;&gt;Node7</title>
<g id="a_edge19_Node000014_Node000007"><a xlink:title=" ">
<path fill="none" stroke="#63b8ff" d="M187.85,-109.98C210.12,-101.3 244.9,-87.75 270.22,-77.88"/>
<polygon fill="#63b8ff" stroke="#63b8ff" points="271.71,-81.06 279.75,-74.17 269.16,-74.54 271.71,-81.06"/>
</a>
</g>
</g>
<!-- Node14&#45;&gt;Node8 -->
<g id="edge20_Node000014_Node000008" class="edge">
<title>Node14&#45;&gt;Node8</title>
<g id="a_edge20_Node000014_Node000008"><a xlink:title=" ">
<path fill="none" stroke="#63b8ff" d="M199.8,-109.93C232.31,-101.64 283.1,-88.56 336.38,-74.12"/>
<polygon fill="#63b8ff" stroke="#63b8ff" points="337.63,-77.41 346.36,-71.41 335.79,-70.66 337.63,-77.41"/>
</a>
</g>
</g>
<!-- Node14&#45;&gt;Node10 -->
<g id="edge21_Node000014_Node000010" class="edge">
<title>Node14&#45;&gt;Node10</title>
<g id="a_edge21_Node000014_Node000010"><a xlink:title=" ">
<path fill="none" stroke="#63b8ff" d="M173.1,-109.75C179.17,-102.26 188.09,-91.28 195.51,-82.13"/>
<polygon fill="#63b8ff" stroke="#63b8ff" points="198.45,-84.06 202.03,-74.09 193.01,-79.65 198.45,-84.06"/>
</a>
</g>
</g>
<!-- Node15&#45;&gt;Node14 -->
<g id="edge23_Node000015_Node000014" class="edge">
<title>Node15&#45;&gt;Node14</title>
<g id="a_edge23_Node000015_Node000014"><a xlink:title=" ">
<path fill="none" stroke="#63b8ff" d="M149.47,-219.66C152.39,-202.17 158.95,-162.8 162.87,-139.27"/>
<polygon fill="#63b8ff" stroke="#63b8ff" points="166.37,-139.6 164.56,-129.16 159.46,-138.45 166.37,-139.6"/>
</a>
</g>
</g>
</g>
</svg>
