<?xml version="1.0" encoding="UTF-8" standalone="no"?>
<!DOCTYPE svg PUBLIC "-//W3C//DTD SVG 1.1//EN"
 "http://www.w3.org/Graphics/SVG/1.1/DTD/svg11.dtd">
<!-- Generated by graphviz version 2.43.0 (0)
 -->
<!-- Title: src/model/GameModel.cpp Pages: 1 -->
<!--zoomable 445 -->

<svg id="main" version="1.1" xmlns="http://www.w3.org/2000/svg" xmlns:xlink="http://www.w3.org/1999/xlink" xml:space="preserve" onload="init(evt)">
<style type="text/css"><![CDATA[
.node, .edge {opacity: 0.7;}
.node.selected, .edge.selected {opacity: 1;}
.edge:hover path { stroke: red; }
.edge:hover polygon { stroke: red; fill: red; }
]]></style>

<defs>
  <circle id="rim" cx="0" cy="0" r="7"/>
  <circle id="rim2" cx="0" cy="0" r="3.5"/>
  <g id="zoomPlus">
    <use xlink:href="#rim" fill="#404040"><set attributeName="fill" to="#808080" begin="zoomplus.mouseover" end="zoomplus.mouseout"/></use>
    <path d="M-4,0h8M0,-4v8" fill="none" stroke="white" stroke-width="1.5" pointer-events="none"/>
  </g>
  <g id="zoomMin">
    <use xlink:href="#rim" fill="#404040"><set attributeName="fill" to="#808080" begin="zoomminus.mouseover" end="zoomminus.mouseout"/></use>
    <path d="M-4,0h8" fill="none" stroke="white" stroke-width="1.5" pointer-events="none"/>
  </g>
  <g id="arrowUp" transform="translate(30 24)">
    <use xlink:href="#rim"/>
    <path pointer-events="none" fill="none" stroke="white" stroke-width="1.5" d="M0,-3.0v7 M-2.5,-0.5L0,-3.0L2.5,-0.5"/>
  </g>
  <g id="arrowRight" transform="rotate(90) translate(36 -43)">
    <use xlink:href="#rim"/>
    <path pointer-events="none" fill="none" stroke="white" stroke-width="1.5" d="M0,-3.0v7 M-2.5,-0.5L0,-3.0L2.5,-0.5"/>
  </g>
  <g id="arrowDown" transform="rotate(180) translate(-30 -48)">
    <use xlink:href="#rim"/>
    <path pointer-events="none" fill="none" stroke="white" stroke-width="1.5" d="M0,-3.0v7 M-2.5,-0.5L0,-3.0L2.5,-0.5"/>
  </g>
  <g id="arrowLeft" transform="rotate(270) translate(-36 17)">
    <use xlink:href="#rim"/>
    <path pointer-events="none" fill="none" stroke="white" stroke-width="1.5" d="M0,-3.0v7 M-2.5,-0.5L0,-3.0L2.5,-0.5"/>
  </g>
  <g id="resetDef">
    <use xlink:href="#rim2" fill="#404040"><set attributeName="fill" to="#808080" begin="reset.mouseover" end="reset.mouseout"/></use>
  </g>
</defs>
<script type="application/ecmascript">
var viewWidth = 1146;
var viewHeight = 445;
var sectionId = 'dynsection-0';
</script>
<script type="application/ecmascript" xlink:href="svg.min.js"/>
<svg id="graph" class="graph">
<g id="viewport">
<title>src/model/GameModel.cpp</title>
<!-- Node1 -->
<g id="Node000001" class="node">
<title>Node1</title>
<g id="a_Node000001"><a xlink:title=" ">
<polygon fill="#999999" stroke="#666666" points="460,-437 326,-437 326,-418 460,-418 460,-437"/>
<text text-anchor="middle" x="393" y="-425" font-family="Helvetica,sans-Serif" font-size="10.00">src/model/GameModel.cpp</text>
</a>
</g>
</g>
<!-- Node2 -->
<g id="Node000002" class="node">
<title>Node2</title>
<g id="a_Node000002"><a xlink:href="GameModel_8hpp.html" target="_top" xlink:title="Core game logic implementation for Monopoly board game.">
<polygon fill="white" stroke="#666666" points="899.5,-382 804.5,-382 804.5,-352 899.5,-352 899.5,-382"/>
<text text-anchor="start" x="812.5" y="-370" font-family="Helvetica,sans-Serif" font-size="10.00">../../include/model</text>
<text text-anchor="middle" x="852" y="-359" font-family="Helvetica,sans-Serif" font-size="10.00">/GameModel.hpp</text>
</a>
</g>
</g>
<!-- Node1&#45;&gt;Node2 -->
<g id="edge1_Node000001_Node000002" class="edge">
<title>Node1&#45;&gt;Node2</title>
<g id="a_edge1_Node000001_Node000002"><a xlink:title=" ">
<path fill="none" stroke="#63b8ff" d="M459.74,-417.99C549.94,-406.5 709.23,-386.2 794.43,-375.34"/>
<polygon fill="#63b8ff" stroke="#63b8ff" points="794.97,-378.8 804.45,-374.06 794.08,-371.85 794.97,-378.8"/>
</a>
</g>
</g>
<!-- Node14 -->
<g id="Node000014" class="node">
<title>Node14</title>
<g id="a_Node000014"><a xlink:title=" ">
<polygon fill="#e0e0e0" stroke="#999999" points="623.5,-19 564.5,-19 564.5,0 623.5,0 623.5,-19"/>
<text text-anchor="middle" x="594" y="-7" font-family="Helvetica,sans-Serif" font-size="10.00">stdexcept</text>
</a>
</g>
</g>
<!-- Node1&#45;&gt;Node14 -->
<g id="edge50_Node000001_Node000014" class="edge">
<title>Node1&#45;&gt;Node14</title>
<g id="a_edge50_Node000001_Node000014"><a xlink:title=" ">
<path fill="none" stroke="#63b8ff" d="M325.89,-420.11C213.64,-407.54 0,-374.78 0,-307.5 0,-307.5 0,-307.5 0,-135 0,-21.51 420.59,-10.86 553.95,-10.34"/>
<polygon fill="#63b8ff" stroke="#63b8ff" points="554.14,-13.84 564.14,-10.32 554.13,-6.84 554.14,-13.84"/>
</a>
</g>
</g>
<!-- Node3 -->
<g id="Node000003" class="node">
<title>Node3</title>
<g id="a_Node000003"><a xlink:title=" ">
<polygon fill="#e0e0e0" stroke="#999999" points="1072,-206 1016,-206 1016,-187 1072,-187 1072,-206"/>
<text text-anchor="middle" x="1044" y="-194" font-family="Helvetica,sans-Serif" font-size="10.00">algorithm</text>
</a>
</g>
</g>
<!-- Node2&#45;&gt;Node3 -->
<g id="edge2_Node000002_Node000003" class="edge">
<title>Node2&#45;&gt;Node3</title>
<g id="a_edge2_Node000002_Node000003"><a xlink:title=" ">
<path fill="none" stroke="#63b8ff" d="M895.18,-351.98C916.22,-343.73 941.02,-331.79 960,-316 994.76,-287.09 1022.03,-240.55 1035.26,-215.25"/>
<polygon fill="#63b8ff" stroke="#63b8ff" points="1038.49,-216.61 1039.91,-206.11 1032.25,-213.44 1038.49,-216.61"/>
</a>
</g>
</g>
<!-- Node4 -->
<g id="Node000004" class="node">
<title>Node4</title>
<g id="a_Node000004"><a xlink:title=" ">
<polygon fill="#e0e0e0" stroke="#999999" points="899,-19 847,-19 847,0 899,0 899,-19"/>
<text text-anchor="middle" x="873" y="-7" font-family="Helvetica,sans-Serif" font-size="10.00">memory</text>
</a>
</g>
</g>
<!-- Node2&#45;&gt;Node4 -->
<g id="edge3_Node000002_Node000004" class="edge">
<title>Node2&#45;&gt;Node4</title>
<g id="a_edge3_Node000002_Node000004"><a xlink:title=" ">
<path fill="none" stroke="#63b8ff" d="M899.52,-364.81C971.53,-360.2 1100,-339.74 1100,-252.5 1100,-252.5 1100,-252.5 1100,-135 1100,-48.99 973.18,-22 909.12,-13.85"/>
<polygon fill="#63b8ff" stroke="#63b8ff" points="909.38,-10.36 899.04,-12.66 908.56,-17.31 909.38,-10.36"/>
</a>
</g>
</g>
<!-- Node5 -->
<g id="Node000005" class="node">
<title>Node5</title>
<g id="a_Node000005"><a xlink:title=" ">
<polygon fill="#e0e0e0" stroke="#999999" points="834.5,-316 785.5,-316 785.5,-297 834.5,-297 834.5,-316"/>
<text text-anchor="middle" x="810" y="-304" font-family="Helvetica,sans-Serif" font-size="10.00">random</text>
</a>
</g>
</g>
<!-- Node2&#45;&gt;Node5 -->
<g id="edge4_Node000002_Node000005" class="edge">
<title>Node2&#45;&gt;Node5</title>
<g id="a_edge4_Node000002_Node000005"><a xlink:title=" ">
<path fill="none" stroke="#63b8ff" d="M841.83,-351.84C835.92,-343.61 828.44,-333.18 822.21,-324.51"/>
<polygon fill="#63b8ff" stroke="#63b8ff" points="824.97,-322.35 816.29,-316.27 819.28,-326.43 824.97,-322.35"/>
</a>
</g>
</g>
<!-- Node6 -->
<g id="Node000006" class="node">
<title>Node6</title>
<g id="a_Node000006"><a xlink:title=" ">
<polygon fill="#e0e0e0" stroke="#999999" points="1008.5,-19 967.5,-19 967.5,0 1008.5,0 1008.5,-19"/>
<text text-anchor="middle" x="988" y="-7" font-family="Helvetica,sans-Serif" font-size="10.00">string</text>
</a>
</g>
</g>
<!-- Node2&#45;&gt;Node6 -->
<g id="edge5_Node000002_Node000006" class="edge">
<title>Node2&#45;&gt;Node6</title>
<g id="a_edge5_Node000002_Node000006"><a xlink:title=" ">
<path fill="none" stroke="#63b8ff" d="M899.93,-365.62C950.79,-363.12 1031.71,-352.98 1090,-316 1119.87,-297.05 1138,-287.88 1138,-252.5 1138,-252.5 1138,-252.5 1138,-135 1138,-73.3 1061.94,-36.34 1018.14,-20.17"/>
<polygon fill="#63b8ff" stroke="#63b8ff" points="1019.14,-16.82 1008.54,-16.77 1016.8,-23.41 1019.14,-16.82"/>
</a>
</g>
</g>
<!-- Node7 -->
<g id="Node000007" class="node">
<title>Node7</title>
<g id="a_Node000007"><a xlink:title=" ">
<polygon fill="#e0e0e0" stroke="#999999" points="935.5,-316 852.5,-316 852.5,-297 935.5,-297 935.5,-316"/>
<text text-anchor="middle" x="894" y="-304" font-family="Helvetica,sans-Serif" font-size="10.00">unordered_map</text>
</a>
</g>
</g>
<!-- Node2&#45;&gt;Node7 -->
<g id="edge6_Node000002_Node000007" class="edge">
<title>Node2&#45;&gt;Node7</title>
<g id="a_edge6_Node000002_Node000007"><a xlink:title=" ">
<path fill="none" stroke="#63b8ff" d="M862.17,-351.84C868.08,-343.61 875.56,-333.18 881.79,-324.51"/>
<polygon fill="#63b8ff" stroke="#63b8ff" points="884.72,-326.43 887.71,-316.27 879.03,-322.35 884.72,-326.43"/>
</a>
</g>
</g>
<!-- Node8 -->
<g id="Node000008" class="node">
<title>Node8</title>
<g id="a_Node000008"><a xlink:title=" ">
<polygon fill="#e0e0e0" stroke="#999999" points="742,-206 698,-206 698,-187 742,-187 742,-206"/>
<text text-anchor="middle" x="720" y="-194" font-family="Helvetica,sans-Serif" font-size="10.00">vector</text>
</a>
</g>
</g>
<!-- Node2&#45;&gt;Node8 -->
<g id="edge7_Node000002_Node000008" class="edge">
<title>Node2&#45;&gt;Node8</title>
<g id="a_edge7_Node000002_Node000008"><a xlink:title=" ">
<path fill="none" stroke="#63b8ff" d="M823.63,-351.93C808.31,-343.23 789.94,-330.88 777,-316 750.52,-285.53 733.42,-240.62 725.38,-215.75"/>
<polygon fill="#63b8ff" stroke="#63b8ff" points="728.71,-214.65 722.41,-206.14 722.02,-216.72 728.71,-214.65"/>
</a>
</g>
</g>
<!-- Node9 -->
<g id="Node000009" class="node">
<title>Node9</title>
<g id="a_Node000009"><a xlink:href="MonopolyRules_8hpp.html" target="_top" xlink:title=" ">
<polygon fill="white" stroke="#666666" points="728.5,-316 625.5,-316 625.5,-297 728.5,-297 728.5,-316"/>
<text text-anchor="middle" x="677" y="-304" font-family="Helvetica,sans-Serif" font-size="10.00">MonopolyRules.hpp</text>
</a>
</g>
</g>
<!-- Node2&#45;&gt;Node9 -->
<g id="edge8_Node000002_Node000009" class="edge">
<title>Node2&#45;&gt;Node9</title>
<g id="a_edge8_Node000002_Node000009"><a xlink:title=" ">
<path fill="none" stroke="#63b8ff" d="M810.08,-351.99C780.27,-342.02 740.67,-328.78 712.44,-319.35"/>
<polygon fill="#63b8ff" stroke="#63b8ff" points="713.18,-315.9 702.59,-316.05 710.96,-322.54 713.18,-315.9"/>
</a>
</g>
</g>
<!-- Node11 -->
<g id="Node000011" class="node">
<title>Node11</title>
<g id="a_Node000011"><a xlink:href="Player_8hpp.html" target="_top" xlink:title=" ">
<polygon fill="white" stroke="#666666" points="926,-261 864,-261 864,-242 926,-242 926,-261"/>
<text text-anchor="middle" x="895" y="-249" font-family="Helvetica,sans-Serif" font-size="10.00">Player.hpp</text>
</a>
</g>
</g>
<!-- Node2&#45;&gt;Node11 -->
<g id="edge49_Node000002_Node000011" class="edge">
<title>Node2&#45;&gt;Node11</title>
<g id="a_edge49_Node000002_Node000011"><a xlink:title=" ">
<path fill="none" stroke="#63b8ff" d="M899.61,-352.01C917.04,-344.33 934.94,-332.84 945,-316 955.89,-297.78 936.46,-278.93 918.73,-266.54"/>
<polygon fill="#63b8ff" stroke="#63b8ff" points="920.59,-263.58 910.31,-261.02 916.75,-269.43 920.59,-263.58"/>
</a>
</g>
</g>
<!-- Node15 -->
<g id="Node000015" class="node">
<title>Node15</title>
<g id="a_Node000015"><a xlink:href="Board_8hpp.html" target="_top" xlink:title=" ">
<polygon fill="white" stroke="#666666" points="625.5,-261 564.5,-261 564.5,-242 625.5,-242 625.5,-261"/>
<text text-anchor="middle" x="595" y="-249" font-family="Helvetica,sans-Serif" font-size="10.00">Board.hpp</text>
</a>
</g>
</g>
<!-- Node2&#45;&gt;Node15 -->
<g id="edge48_Node000002_Node000015" class="edge">
<title>Node2&#45;&gt;Node15</title>
<g id="a_edge48_Node000002_Node000015"><a xlink:title=" ">
<path fill="none" stroke="#63b8ff" d="M804.27,-361.49C743.56,-354.83 643.31,-340.44 616,-316 603.44,-304.76 598.37,-285.84 596.34,-271.57"/>
<polygon fill="#63b8ff" stroke="#63b8ff" points="599.79,-270.94 595.27,-261.36 592.83,-271.67 599.79,-270.94"/>
</a>
</g>
</g>
<!-- Node9&#45;&gt;Node8 -->
<g id="edge9_Node000009_Node000008" class="edge">
<title>Node9&#45;&gt;Node8</title>
<g id="a_edge9_Node000009_Node000008"><a xlink:title=" ">
<path fill="none" stroke="#63b8ff" d="M682.04,-296.85C687.04,-288.03 694.7,-273.86 700,-261 706.07,-246.29 711.39,-229.04 715.02,-216.23"/>
<polygon fill="#63b8ff" stroke="#63b8ff" points="718.47,-216.87 717.75,-206.3 711.72,-215.01 718.47,-216.87"/>
</a>
</g>
</g>
<!-- Node10 -->
<g id="Node000010" class="node">
<title>Node10</title>
<g id="a_Node000010"><a xlink:title=" ">
<polygon fill="#e0e0e0" stroke="#999999" points="691,-261 645,-261 645,-242 691,-242 691,-261"/>
<text text-anchor="middle" x="668" y="-249" font-family="Helvetica,sans-Serif" font-size="10.00">cstdint</text>
</a>
</g>
</g>
<!-- Node9&#45;&gt;Node10 -->
<g id="edge10_Node000009_Node000010" class="edge">
<title>Node9&#45;&gt;Node10</title>
<g id="a_edge10_Node000009_Node000010"><a xlink:title=" ">
<path fill="none" stroke="#63b8ff" d="M675.51,-296.75C674.33,-289.8 672.64,-279.85 671.16,-271.13"/>
<polygon fill="#63b8ff" stroke="#63b8ff" points="674.58,-270.36 669.46,-261.09 667.68,-271.53 674.58,-270.36"/>
</a>
</g>
</g>
<!-- Node9&#45;&gt;Node11 -->
<g id="edge11_Node000009_Node000011" class="edge">
<title>Node9&#45;&gt;Node11</title>
<g id="a_edge11_Node000009_Node000011"><a xlink:title=" ">
<path fill="none" stroke="#63b8ff" d="M712.03,-296.98C750.75,-287.57 813.06,-272.42 854.02,-262.46"/>
<polygon fill="#63b8ff" stroke="#63b8ff" points="855.05,-265.81 863.95,-260.05 853.4,-259.01 855.05,-265.81"/>
</a>
</g>
</g>
<!-- Node9&#45;&gt;Node15 -->
<g id="edge19_Node000009_Node000015" class="edge">
<title>Node9&#45;&gt;Node15</title>
<g id="a_edge19_Node000009_Node000015"><a xlink:title=" ">
<path fill="none" stroke="#63b8ff" d="M663.83,-296.98C651.23,-288.84 632,-276.41 617.06,-266.76"/>
<polygon fill="#63b8ff" stroke="#63b8ff" points="618.71,-263.66 608.41,-261.17 614.91,-269.54 618.71,-263.66"/>
</a>
</g>
</g>
<!-- Node11&#45;&gt;Node3 -->
<g id="edge12_Node000011_Node000003" class="edge">
<title>Node11&#45;&gt;Node3</title>
<g id="a_edge12_Node000011_Node000003"><a xlink:title=" ">
<path fill="none" stroke="#63b8ff" d="M918.94,-241.98C943.56,-233.23 982.12,-219.51 1009.92,-209.62"/>
<polygon fill="#63b8ff" stroke="#63b8ff" points="1011.38,-212.82 1019.62,-206.17 1009.03,-206.22 1011.38,-212.82"/>
</a>
</g>
</g>
<!-- Node11&#45;&gt;Node4 -->
<g id="edge14_Node000011_Node000004" class="edge">
<title>Node11&#45;&gt;Node4</title>
<g id="a_edge14_Node000011_Node000004"><a xlink:title=" ">
<path fill="none" stroke="#63b8ff" d="M905.16,-241.81C913.9,-233.6 925.9,-220.43 931,-206 933.82,-198.04 932.33,-195.34 931,-187 921.38,-126.91 894.44,-59.52 880.93,-28.23"/>
<polygon fill="#63b8ff" stroke="#63b8ff" points="884.13,-26.82 876.91,-19.07 877.72,-29.63 884.13,-26.82"/>
</a>
</g>
</g>
<!-- Node11&#45;&gt;Node6 -->
<g id="edge16_Node000011_Node000006" class="edge">
<title>Node11&#45;&gt;Node6</title>
<g id="a_edge16_Node000011_Node000006"><a xlink:title=" ">
<path fill="none" stroke="#63b8ff" d="M908.63,-241.98C920.12,-234.07 936.07,-221.24 945,-206 978.93,-148.1 986.14,-66.31 987.63,-29.62"/>
<polygon fill="#63b8ff" stroke="#63b8ff" points="991.14,-29.48 987.94,-19.38 984.14,-29.27 991.14,-29.48"/>
</a>
</g>
</g>
<!-- Node11&#45;&gt;Node8 -->
<g id="edge17_Node000011_Node000008" class="edge">
<title>Node11&#45;&gt;Node8</title>
<g id="a_edge17_Node000011_Node000008"><a xlink:title=" ">
<path fill="none" stroke="#63b8ff" d="M866.88,-241.98C835.45,-232.46 784.66,-217.08 751.8,-207.13"/>
<polygon fill="#63b8ff" stroke="#63b8ff" points="752.8,-203.78 742.22,-204.23 750.77,-210.48 752.8,-203.78"/>
</a>
</g>
</g>
<!-- Node12 -->
<g id="Node000012" class="node">
<title>Node12</title>
<g id="a_Node000012"><a xlink:title=" ">
<polygon fill="#e0e0e0" stroke="#999999" points="922,-206 868,-206 868,-187 922,-187 922,-206"/>
<text text-anchor="middle" x="895" y="-194" font-family="Helvetica,sans-Serif" font-size="10.00">iostream</text>
</a>
</g>
</g>
<!-- Node11&#45;&gt;Node12 -->
<g id="edge13_Node000011_Node000012" class="edge">
<title>Node11&#45;&gt;Node12</title>
<g id="a_edge13_Node000011_Node000012"><a xlink:title=" ">
<path fill="none" stroke="#63b8ff" d="M895,-241.75C895,-234.8 895,-224.85 895,-216.13"/>
<polygon fill="#63b8ff" stroke="#63b8ff" points="898.5,-216.09 895,-206.09 891.5,-216.09 898.5,-216.09"/>
</a>
</g>
</g>
<!-- Node13 -->
<g id="Node000013" class="node">
<title>Node13</title>
<g id="a_Node000013"><a xlink:title=" ">
<polygon fill="#e0e0e0" stroke="#999999" points="850,-206 798,-206 798,-187 850,-187 850,-206"/>
<text text-anchor="middle" x="824" y="-194" font-family="Helvetica,sans-Serif" font-size="10.00">ostream</text>
</a>
</g>
</g>
<!-- Node11&#45;&gt;Node13 -->
<g id="edge15_Node000011_Node000013" class="edge">
<title>Node11&#45;&gt;Node13</title>
<g id="a_edge15_Node000011_Node000013"><a xlink:title=" ">
<path fill="none" stroke="#63b8ff" d="M883.59,-241.98C872.89,-234 856.66,-221.88 843.84,-212.31"/>
<polygon fill="#63b8ff" stroke="#63b8ff" points="845.72,-209.35 835.61,-206.17 841.53,-214.96 845.72,-209.35"/>
</a>
</g>
</g>
<!-- Node11&#45;&gt;Node14 -->
<g id="edge18_Node000011_Node000014" class="edge">
<title>Node11&#45;&gt;Node14</title>
<g id="a_edge18_Node000011_Node000014"><a xlink:title=" ">
<path fill="none" stroke="#63b8ff" d="M873.3,-241.88C851.74,-233.2 817.84,-219.25 789,-206 771.84,-198.12 768.02,-195.18 751,-187 716.59,-170.46 701.05,-176.9 673,-151 635.08,-115.99 610.79,-58.5 600.18,-29.09"/>
<polygon fill="#63b8ff" stroke="#63b8ff" points="603.37,-27.6 596.78,-19.3 596.75,-29.9 603.37,-27.6"/>
</a>
</g>
</g>
<!-- Node15&#45;&gt;Node4 -->
<g id="edge21_Node000015_Node000004" class="edge">
<title>Node15&#45;&gt;Node4</title>
<g id="a_edge21_Node000015_Node000004"><a xlink:title=" ">
<path fill="none" stroke="#63b8ff" d="M606.79,-241.8C627.97,-226.28 671.86,-194.75 689,-187 746.76,-160.88 780.83,-194.43 827,-151 861.65,-118.41 870.24,-59.37 872.34,-29.26"/>
<polygon fill="#63b8ff" stroke="#63b8ff" points="875.84,-29.42 872.87,-19.25 868.85,-29.05 875.84,-29.42"/>
</a>
</g>
</g>
<!-- Node15&#45;&gt;Node8 -->
<g id="edge20_Node000015_Node000008" class="edge">
<title>Node15&#45;&gt;Node8</title>
<g id="a_edge20_Node000015_Node000008"><a xlink:title=" ">
<path fill="none" stroke="#63b8ff" d="M615.08,-241.98C635.37,-233.38 666.96,-219.99 690.17,-210.15"/>
<polygon fill="#63b8ff" stroke="#63b8ff" points="691.71,-213.3 699.55,-206.17 688.98,-206.85 691.71,-213.3"/>
</a>
</g>
</g>
<!-- Node16 -->
<g id="Node000016" class="node">
<title>Node16</title>
<g id="a_Node000016"><a xlink:href="Property_8hpp.html" target="_top" xlink:title=" ">
<polygon fill="white" stroke="#666666" points="588,-145.5 480,-145.5 480,-126.5 588,-126.5 588,-145.5"/>
<text text-anchor="middle" x="534" y="-133.5" font-family="Helvetica,sans-Serif" font-size="10.00">squares/Property.hpp</text>
</a>
</g>
</g>
<!-- Node15&#45;&gt;Node16 -->
<g id="edge22_Node000015_Node000016" class="edge">
<title>Node15&#45;&gt;Node16</title>
<g id="a_edge22_Node000015_Node000016"><a xlink:title=" ">
<path fill="none" stroke="#63b8ff" d="M590.42,-241.97C580.48,-223.48 556.79,-179.4 543.48,-154.64"/>
<polygon fill="#63b8ff" stroke="#63b8ff" points="546.46,-152.78 538.64,-145.63 540.29,-156.1 546.46,-152.78"/>
</a>
</g>
</g>
<!-- Node17 -->
<g id="Node000017" class="node">
<title>Node17</title>
<g id="a_Node000017"><a xlink:href="Square_8hpp.html" target="_top" xlink:title=" ">
<polygon fill="white" stroke="#666666" points="766,-79.5 700,-79.5 700,-60.5 766,-60.5 766,-79.5"/>
<text text-anchor="middle" x="733" y="-67.5" font-family="Helvetica,sans-Serif" font-size="10.00">Square.hpp</text>
</a>
</g>
</g>
<!-- Node15&#45;&gt;Node17 -->
<g id="edge30_Node000015_Node000017" class="edge">
<title>Node15&#45;&gt;Node17</title>
<g id="a_edge30_Node000015_Node000017"><a xlink:title=" ">
<path fill="none" stroke="#63b8ff" d="M598.85,-241.96C608.91,-220.22 637.69,-161.59 673,-121 684.6,-107.66 699.95,-94.94 712.21,-85.67"/>
<polygon fill="#63b8ff" stroke="#63b8ff" points="714.52,-88.32 720.5,-79.57 710.38,-82.68 714.52,-88.32"/>
</a>
</g>
</g>
<!-- Node20 -->
<g id="Node000020" class="node">
<title>Node20</title>
<g id="a_Node000020"><a xlink:href="Railroad_8hpp.html" target="_top" xlink:title=" ">
<polygon fill="white" stroke="#666666" points="295.5,-206 186.5,-206 186.5,-187 295.5,-187 295.5,-206"/>
<text text-anchor="middle" x="241" y="-194" font-family="Helvetica,sans-Serif" font-size="10.00">squares/Railroad.hpp</text>
</a>
</g>
</g>
<!-- Node15&#45;&gt;Node20 -->
<g id="edge31_Node000015_Node000020" class="edge">
<title>Node15&#45;&gt;Node20</title>
<g id="a_edge31_Node000015_Node000020"><a xlink:title=" ">
<path fill="none" stroke="#63b8ff" d="M564.2,-245.89C506.81,-237.3 382.39,-218.67 305.76,-207.2"/>
<polygon fill="#63b8ff" stroke="#63b8ff" points="306.14,-203.71 295.73,-205.69 305.11,-210.64 306.14,-203.71"/>
</a>
</g>
</g>
<!-- Node23 -->
<g id="Node000023" class="node">
<title>Node23</title>
<g id="a_Node000023"><a xlink:href="Utility_8hpp.html" target="_top" xlink:title=" ">
<polygon fill="white" stroke="#666666" points="410.5,-206 313.5,-206 313.5,-187 410.5,-187 410.5,-206"/>
<text text-anchor="middle" x="362" y="-194" font-family="Helvetica,sans-Serif" font-size="10.00">squares/Utility.hpp</text>
</a>
</g>
</g>
<!-- Node15&#45;&gt;Node23 -->
<g id="edge36_Node000015_Node000023" class="edge">
<title>Node15&#45;&gt;Node23</title>
<g id="a_edge36_Node000015_Node000023"><a xlink:title=" ">
<path fill="none" stroke="#63b8ff" d="M564.06,-243.46C524.5,-234.46 455.61,-218.79 409.42,-208.29"/>
<polygon fill="#63b8ff" stroke="#63b8ff" points="410.16,-204.87 399.63,-206.06 408.61,-211.69 410.16,-204.87"/>
</a>
</g>
</g>
<!-- Node25 -->
<g id="Node000025" class="node">
<title>Node25</title>
<g id="a_Node000025"><a xlink:href="Street_8hpp.html" target="_top" xlink:title=" ">
<polygon fill="white" stroke="#666666" points="527.5,-206 428.5,-206 428.5,-187 527.5,-187 527.5,-206"/>
<text text-anchor="middle" x="478" y="-194" font-family="Helvetica,sans-Serif" font-size="10.00">squares/Street.hpp</text>
</a>
</g>
</g>
<!-- Node15&#45;&gt;Node25 -->
<g id="edge41_Node000015_Node000025" class="edge">
<title>Node15&#45;&gt;Node25</title>
<g id="a_edge41_Node000015_Node000025"><a xlink:title=" ">
<path fill="none" stroke="#63b8ff" d="M576.2,-241.98C557.38,-233.46 528.18,-220.23 506.5,-210.41"/>
<polygon fill="#63b8ff" stroke="#63b8ff" points="507.69,-207.11 497.14,-206.17 504.8,-213.48 507.69,-207.11"/>
</a>
</g>
</g>
<!-- Node27 -->
<g id="Node000027" class="node">
<title>Node27</title>
<g id="a_Node000027"><a xlink:href="SpecialSquare_8hpp.html" target="_top" xlink:title=" ">
<polygon fill="white" stroke="#666666" points="818,-145.5 682,-145.5 682,-126.5 818,-126.5 818,-145.5"/>
<text text-anchor="middle" x="750" y="-133.5" font-family="Helvetica,sans-Serif" font-size="10.00">squares/SpecialSquare.hpp</text>
</a>
</g>
</g>
<!-- Node15&#45;&gt;Node27 -->
<g id="edge46_Node000015_Node000027" class="edge">
<title>Node15&#45;&gt;Node27</title>
<g id="a_edge46_Node000015_Node000027"><a xlink:title=" ">
<path fill="none" stroke="#63b8ff" d="M601.78,-241.85C612.34,-228.79 633.8,-203.77 656,-187 675.93,-171.94 701.02,-158.84 720.26,-149.83"/>
<polygon fill="#63b8ff" stroke="#63b8ff" points="721.82,-152.97 729.46,-145.63 718.91,-146.6 721.82,-152.97"/>
</a>
</g>
</g>
<!-- Node16&#45;&gt;Node14 -->
<g id="edge28_Node000016_Node000014" class="edge">
<title>Node16&#45;&gt;Node14</title>
<g id="a_edge28_Node000016_Node000014"><a xlink:title=" ">
<path fill="none" stroke="#63b8ff" d="M538.12,-126.44C547.84,-106.27 572.35,-55.42 585.44,-28.26"/>
<polygon fill="#63b8ff" stroke="#63b8ff" points="588.66,-29.65 589.85,-19.12 582.35,-26.61 588.66,-29.65"/>
</a>
</g>
</g>
<!-- Node16&#45;&gt;Node17 -->
<g id="edge23_Node000016_Node000017" class="edge">
<title>Node16&#45;&gt;Node17</title>
<g id="a_edge23_Node000016_Node000017"><a xlink:title=" ">
<path fill="none" stroke="#63b8ff" d="M560.84,-126.37C595.87,-115.1 657.34,-95.33 696.56,-82.72"/>
<polygon fill="#63b8ff" stroke="#63b8ff" points="697.82,-85.99 706.27,-79.6 695.68,-79.33 697.82,-85.99"/>
</a>
</g>
</g>
<!-- Node19 -->
<g id="Node000019" class="node">
<title>Node19</title>
<g id="a_Node000019"><a xlink:href="StrategyRentCalculator_8hpp.html" target="_top" xlink:title=" ">
<polygon fill="white" stroke="#666666" points="449,-85 309,-85 309,-55 449,-55 449,-85"/>
<text text-anchor="start" x="317" y="-73" font-family="Helvetica,sans-Serif" font-size="10.00">../../utils/strategy</text>
<text text-anchor="middle" x="379" y="-62" font-family="Helvetica,sans-Serif" font-size="10.00">/StrategyRentCalculator.hpp</text>
</a>
</g>
</g>
<!-- Node16&#45;&gt;Node19 -->
<g id="edge29_Node000016_Node000019" class="edge">
<title>Node16&#45;&gt;Node19</title>
<g id="a_edge29_Node000016_Node000019"><a xlink:title=" ">
<path fill="none" stroke="#63b8ff" d="M513.1,-126.37C489.98,-116.82 452.1,-101.18 422.48,-88.95"/>
<polygon fill="#63b8ff" stroke="#63b8ff" points="423.77,-85.7 413.19,-85.12 421.09,-92.17 423.77,-85.7"/>
</a>
</g>
</g>
<!-- Node17&#45;&gt;Node4 -->
<g id="edge24_Node000017_Node000004" class="edge">
<title>Node17&#45;&gt;Node4</title>
<g id="a_edge24_Node000017_Node000004"><a xlink:title=" ">
<path fill="none" stroke="#63b8ff" d="M753.36,-60.49C777,-50.62 816.2,-34.23 843.25,-22.93"/>
<polygon fill="#63b8ff" stroke="#63b8ff" points="844.74,-26.1 852.62,-19.02 842.04,-19.64 844.74,-26.1"/>
</a>
</g>
</g>
<!-- Node17&#45;&gt;Node6 -->
<g id="edge26_Node000017_Node000006" class="edge">
<title>Node17&#45;&gt;Node6</title>
<g id="a_edge26_Node000017_Node000006"><a xlink:title=" ">
<path fill="none" stroke="#63b8ff" d="M766.08,-61.41C815.79,-50.01 909.09,-28.6 957.34,-17.53"/>
<polygon fill="#63b8ff" stroke="#63b8ff" points="958.24,-20.92 967.2,-15.27 956.68,-14.1 958.24,-20.92"/>
</a>
</g>
</g>
<!-- Node17&#45;&gt;Node14 -->
<g id="edge25_Node000017_Node000014" class="edge">
<title>Node17&#45;&gt;Node14</title>
<g id="a_edge25_Node000017_Node000014"><a xlink:title=" ">
<path fill="none" stroke="#63b8ff" d="M712.79,-60.49C689.32,-50.62 650.39,-34.23 623.54,-22.93"/>
<polygon fill="#63b8ff" stroke="#63b8ff" points="624.81,-19.67 614.24,-19.02 622.1,-26.12 624.81,-19.67"/>
</a>
</g>
</g>
<!-- Node18 -->
<g id="Node000018" class="node">
<title>Node18</title>
<g id="a_Node000018"><a xlink:title=" ">
<polygon fill="#e0e0e0" stroke="#999999" points="753,-19 713,-19 713,0 753,0 753,-19"/>
<text text-anchor="middle" x="733" y="-7" font-family="Helvetica,sans-Serif" font-size="10.00">utility</text>
</a>
</g>
</g>
<!-- Node17&#45;&gt;Node18 -->
<g id="edge27_Node000017_Node000018" class="edge">
<title>Node17&#45;&gt;Node18</title>
<g id="a_edge27_Node000017_Node000018"><a xlink:title=" ">
<path fill="none" stroke="#63b8ff" d="M733,-60.37C733,-52.25 733,-39.81 733,-29.39"/>
<polygon fill="#63b8ff" stroke="#63b8ff" points="736.5,-29.17 733,-19.17 729.5,-29.17 736.5,-29.17"/>
</a>
</g>
</g>
<!-- Node20&#45;&gt;Node16 -->
<g id="edge32_Node000020_Node000016" class="edge">
<title>Node20&#45;&gt;Node16</title>
<g id="a_edge32_Node000020_Node000016"><a xlink:title=" ">
<path fill="none" stroke="#63b8ff" d="M286.68,-186.95C332.95,-178.21 406.54,-164.11 470,-151 475.09,-149.95 480.4,-148.83 485.7,-147.69"/>
<polygon fill="#63b8ff" stroke="#63b8ff" points="486.75,-151.04 495.79,-145.51 485.28,-144.2 486.75,-151.04"/>
</a>
</g>
</g>
<!-- Node21 -->
<g id="Node000021" class="node">
<title>Node21</title>
<g id="a_Node000021"><a xlink:href="RailroadRentCalculator_8hpp.html" target="_top" xlink:title=" ">
<polygon fill="white" stroke="#666666" points="167.5,-151 28.5,-151 28.5,-121 167.5,-121 167.5,-151"/>
<text text-anchor="start" x="36.5" y="-139" font-family="Helvetica,sans-Serif" font-size="10.00">../../utils/strategy</text>
<text text-anchor="middle" x="98" y="-128" font-family="Helvetica,sans-Serif" font-size="10.00">/RailroadRentCalculator.hpp</text>
</a>
</g>
</g>
<!-- Node20&#45;&gt;Node21 -->
<g id="edge33_Node000020_Node000021" class="edge">
<title>Node20&#45;&gt;Node21</title>
<g id="a_edge33_Node000020_Node000021"><a xlink:title=" ">
<path fill="none" stroke="#63b8ff" d="M220.21,-186.99C199.72,-178.61 167.78,-165.55 141.69,-154.87"/>
<polygon fill="#63b8ff" stroke="#63b8ff" points="142.96,-151.61 132.38,-151.06 140.31,-158.09 142.96,-151.61"/>
</a>
</g>
</g>
<!-- Node21&#45;&gt;Node19 -->
<g id="edge34_Node000021_Node000019" class="edge">
<title>Node21&#45;&gt;Node19</title>
<g id="a_edge34_Node000021_Node000019"><a xlink:title=" ">
<path fill="none" stroke="#63b8ff" d="M159.67,-120.95C203.32,-111.01 261.97,-97.65 307.64,-87.25"/>
<polygon fill="#63b8ff" stroke="#63b8ff" points="308.5,-90.65 317.48,-85.01 306.95,-83.82 308.5,-90.65"/>
</a>
</g>
</g>
<!-- Node22 -->
<g id="Node000022" class="node">
<title>Node22</title>
<g id="a_Node000022"><a xlink:title=" ">
<polygon fill="#e0e0e0" stroke="#999999" points="272,-79.5 228,-79.5 228,-60.5 272,-60.5 272,-79.5"/>
<text text-anchor="middle" x="250" y="-67.5" font-family="Helvetica,sans-Serif" font-size="10.00">cmath</text>
</a>
</g>
</g>
<!-- Node21&#45;&gt;Node22 -->
<g id="edge35_Node000021_Node000022" class="edge">
<title>Node21&#45;&gt;Node22</title>
<g id="a_edge35_Node000021_Node000022"><a xlink:title=" ">
<path fill="none" stroke="#63b8ff" d="M131.36,-120.95C157.9,-109.78 194.69,-94.29 220.24,-83.53"/>
<polygon fill="#63b8ff" stroke="#63b8ff" points="221.91,-86.62 229.77,-79.52 219.2,-80.17 221.91,-86.62"/>
</a>
</g>
</g>
<!-- Node23&#45;&gt;Node16 -->
<g id="edge37_Node000023_Node000016" class="edge">
<title>Node23&#45;&gt;Node16</title>
<g id="a_edge37_Node000023_Node000016"><a xlink:title=" ">
<path fill="none" stroke="#63b8ff" d="M387.01,-186.99C416.56,-176.94 465.91,-160.16 499.19,-148.84"/>
<polygon fill="#63b8ff" stroke="#63b8ff" points="500.62,-152.05 508.96,-145.52 498.37,-145.42 500.62,-152.05"/>
</a>
</g>
</g>
<!-- Node24 -->
<g id="Node000024" class="node">
<title>Node24</title>
<g id="a_Node000024"><a xlink:href="UtilityRentCalculator_8hpp.html" target="_top" xlink:title=" ">
<polygon fill="white" stroke="#666666" points="314,-151 186,-151 186,-121 314,-121 314,-151"/>
<text text-anchor="start" x="194" y="-139" font-family="Helvetica,sans-Serif" font-size="10.00">../../utils/strategy</text>
<text text-anchor="middle" x="250" y="-128" font-family="Helvetica,sans-Serif" font-size="10.00">/UtilityRentCalculator.hpp</text>
</a>
</g>
</g>
<!-- Node23&#45;&gt;Node24 -->
<g id="edge38_Node000023_Node000024" class="edge">
<title>Node23&#45;&gt;Node24</title>
<g id="a_edge38_Node000023_Node000024"><a xlink:title=" ">
<path fill="none" stroke="#63b8ff" d="M345.47,-186.87C329.85,-178.71 305.9,-166.2 285.89,-155.75"/>
<polygon fill="#63b8ff" stroke="#63b8ff" points="287.51,-152.64 277.02,-151.11 284.27,-158.85 287.51,-152.64"/>
</a>
</g>
</g>
<!-- Node24&#45;&gt;Node19 -->
<g id="edge39_Node000024_Node000019" class="edge">
<title>Node24&#45;&gt;Node19</title>
<g id="a_edge39_Node000024_Node000019"><a xlink:title=" ">
<path fill="none" stroke="#63b8ff" d="M278.31,-120.95C296.88,-111.74 321.36,-99.6 341.54,-89.59"/>
<polygon fill="#63b8ff" stroke="#63b8ff" points="343.35,-92.59 350.76,-85.01 340.24,-86.32 343.35,-92.59"/>
</a>
</g>
</g>
<!-- Node24&#45;&gt;Node22 -->
<g id="edge40_Node000024_Node000022" class="edge">
<title>Node24&#45;&gt;Node22</title>
<g id="a_edge40_Node000024_Node000022"><a xlink:title=" ">
<path fill="none" stroke="#63b8ff" d="M250,-120.8C250,-111.7 250,-99.79 250,-89.9"/>
<polygon fill="#63b8ff" stroke="#63b8ff" points="253.5,-89.84 250,-79.84 246.5,-89.84 253.5,-89.84"/>
</a>
</g>
</g>
<!-- Node25&#45;&gt;Node16 -->
<g id="edge42_Node000025_Node000016" class="edge">
<title>Node25&#45;&gt;Node16</title>
<g id="a_edge42_Node000025_Node000016"><a xlink:title=" ">
<path fill="none" stroke="#63b8ff" d="M486.26,-186.87C494.78,-177.97 508.26,-163.89 518.73,-152.95"/>
<polygon fill="#63b8ff" stroke="#63b8ff" points="521.32,-155.31 525.7,-145.67 516.26,-150.47 521.32,-155.31"/>
</a>
</g>
</g>
<!-- Node26 -->
<g id="Node000026" class="node">
<title>Node26</title>
<g id="a_Node000026"><a xlink:href="StreetRentCalculator_8hpp.html" target="_top" xlink:title=" ">
<polygon fill="white" stroke="#666666" points="461.5,-151 332.5,-151 332.5,-121 461.5,-121 461.5,-151"/>
<text text-anchor="start" x="340.5" y="-139" font-family="Helvetica,sans-Serif" font-size="10.00">../../utils/strategy</text>
<text text-anchor="middle" x="397" y="-128" font-family="Helvetica,sans-Serif" font-size="10.00">/StreetRentCalculator.hpp</text>
</a>
</g>
</g>
<!-- Node25&#45;&gt;Node26 -->
<g id="edge43_Node000025_Node000026" class="edge">
<title>Node25&#45;&gt;Node26</title>
<g id="a_edge43_Node000025_Node000026"><a xlink:title=" ">
<path fill="none" stroke="#63b8ff" d="M466.05,-186.87C455.26,-179.08 438.98,-167.32 424.93,-157.17"/>
<polygon fill="#63b8ff" stroke="#63b8ff" points="426.7,-154.13 416.54,-151.11 422.6,-159.81 426.7,-154.13"/>
</a>
</g>
</g>
<!-- Node26&#45;&gt;Node19 -->
<g id="edge44_Node000026_Node000019" class="edge">
<title>Node26&#45;&gt;Node19</title>
<g id="a_edge44_Node000026_Node000019"><a xlink:title=" ">
<path fill="none" stroke="#63b8ff" d="M393.01,-120.8C390.86,-113.17 388.16,-103.57 385.71,-94.84"/>
<polygon fill="#63b8ff" stroke="#63b8ff" points="389.06,-93.84 382.98,-85.16 382.32,-95.74 389.06,-93.84"/>
</a>
</g>
</g>
<!-- Node26&#45;&gt;Node22 -->
<g id="edge45_Node000026_Node000022" class="edge">
<title>Node26&#45;&gt;Node22</title>
<g id="a_edge45_Node000026_Node000022"><a xlink:title=" ">
<path fill="none" stroke="#63b8ff" d="M364.74,-120.95C339.07,-109.78 303.49,-94.29 278.78,-83.53"/>
<polygon fill="#63b8ff" stroke="#63b8ff" points="280.13,-80.3 269.56,-79.52 277.33,-86.72 280.13,-80.3"/>
</a>
</g>
</g>
<!-- Node27&#45;&gt;Node17 -->
<g id="edge47_Node000027_Node000017" class="edge">
<title>Node27&#45;&gt;Node17</title>
<g id="a_edge47_Node000027_Node000017"><a xlink:title=" ">
<path fill="none" stroke="#63b8ff" d="M747.71,-126.37C745.24,-117.07 741.23,-101.98 738.02,-89.9"/>
<polygon fill="#63b8ff" stroke="#63b8ff" points="741.32,-88.67 735.37,-79.91 734.55,-90.47 741.32,-88.67"/>
</a>
</g>
</g>
</g>
</svg>

<g id="navigator" transform="translate(0 0)" fill="#404254">
  <rect fill="#f2f5e9" fill-opacity="0.5" stroke="#606060" stroke-width=".5" x="0" y="0" width="60" height="60"/>
  <use id="zoomplus" xlink:href="#zoomPlus" x="17" y="9" onmousedown="handleZoom(evt,'in')"/>
  <use id="zoomminus" xlink:href="#zoomMin" x="42" y="9" onmousedown="handleZoom(evt,'out')"/>
  <use id="reset" xlink:href="#resetDef" x="30" y="36" onmousedown="handleReset()"/>
   <use id="arrowup" xlink:href="#arrowUp" x="0" y="0" onmousedown="handlePan(0,-1)"/>
  <use id="arrowright" xlink:href="#arrowRight" x="0" y="0" onmousedown="handlePan(1,0)"/>
  <use id="arrowdown" xlink:href="#arrowDown" x="0" y="0" onmousedown="handlePan(0,1)"/>
  <use id="arrowleft" xlink:href="#arrowLeft" x="0" y="0" onmousedown="handlePan(-1,0)"/>
</g>
<svg viewBox="0 0 15 15" width="100%" height="30px" preserveAspectRatio="xMaxYMin meet">
 <g id="arrow_out" transform="scale(0.3 0.3)">
  <a xlink:href="GameModel_8cpp__incl_org.svg" target="_base">
   <rect id="button" ry="5" rx="5" y="6" x="6" height="38" width="38"
        fill="#f2f5e9" fill-opacity="0.5" stroke="#606060" stroke-width="1.0"/>
   <path id="arrow"
     d="M 11.500037,31.436501 C 11.940474,20.09759 22.043105,11.32322 32.158766,21.979434 L 37.068811,17.246167 C 37.068811,17.246167 37.088388,32 37.088388,32 L 22.160133,31.978069 C 22.160133,31.978069 26.997745,27.140456 26.997745,27.140456 C 18.528582,18.264221 13.291696,25.230495 11.500037,31.436501 z"
     style="fill:#404040;"/>
  </a>
 </g>
</svg>

<style type='text/css'>
<![CDATA[
[data-mouse-over-selected='false'] { opacity: 0.7; }
[data-mouse-over-selected='true']  { opacity: 1.0; }
]]>
</style>
<script type="application/ecmascript"><![CDATA[
document.addEventListener('DOMContentLoaded', (event) => {
  highlightEdges();
  highlightAdjacentNodes();
});
]]></script>
</svg>
