<?xml version="1.0" encoding="UTF-8" standalone="no"?>
<!DOCTYPE svg PUBLIC "-//W3C//DTD SVG 1.1//EN"
 "http://www.w3.org/Graphics/SVG/1.1/DTD/svg11.dtd">
<!-- Generated by graphviz version 2.43.0 (0)
 -->
<!-- Title: include/model/GameModel.hpp Pages: 1 -->
<svg width="1130pt" height="379pt"
 viewBox="0.00 0.00 1130.00 379.00" xmlns="http://www.w3.org/2000/svg" xmlns:xlink="http://www.w3.org/1999/xlink">
<g id="graph0" class="graph" transform="scale(1 1) rotate(0) translate(4 375)">
<title>include/model/GameModel.hpp</title>
<!-- Node1 -->
<g id="Node000001" class="node">
<title>Node1</title>
<g id="a_Node000001"><a xlink:title="Core game logic implementation for Monopoly board game.">
<polygon fill="#999999" stroke="#666666" points="350.5,-371 199.5,-371 199.5,-352 350.5,-352 350.5,-371"/>
<text text-anchor="middle" x="275" y="-359" font-family="Helvetica,sans-Serif" font-size="10.00">include/model/GameModel.hpp</text>
</a>
</g>
</g>
<!-- Node2 -->
<g id="Node000002" class="node">
<title>Node2</title>
<g id="a_Node000002"><a xlink:title=" ">
<polygon fill="#e0e0e0" stroke="#999999" points="84,-206 28,-206 28,-187 84,-187 84,-206"/>
<text text-anchor="middle" x="56" y="-194" font-family="Helvetica,sans-Serif" font-size="10.00">algorithm</text>
</a>
</g>
</g>
<!-- Node1&#45;&gt;Node2 -->
<g id="edge1_Node000001_Node000002" class="edge">
<title>Node1&#45;&gt;Node2</title>
<g id="a_edge1_Node000001_Node000002"><a xlink:title=" ">
<path fill="none" stroke="#63b8ff" d="M200.06,-351.99C171.94,-345.72 141.19,-334.85 118,-316 85.68,-289.73 68.21,-242.1 60.65,-215.93"/>
<polygon fill="#63b8ff" stroke="#63b8ff" points="64,-214.9 58,-206.16 57.24,-216.73 64,-214.9"/>
</a>
</g>
</g>
<!-- Node3 -->
<g id="Node000003" class="node">
<title>Node3</title>
<g id="a_Node000003"><a xlink:title=" ">
<polygon fill="#e0e0e0" stroke="#999999" points="818,-19 766,-19 766,0 818,0 818,-19"/>
<text text-anchor="middle" x="792" y="-7" font-family="Helvetica,sans-Serif" font-size="10.00">memory</text>
</a>
</g>
</g>
<!-- Node1&#45;&gt;Node3 -->
<g id="edge2_Node000001_Node000003" class="edge">
<title>Node1&#45;&gt;Node3</title>
<g id="a_edge2_Node000001_Node000003"><a xlink:title=" ">
<path fill="none" stroke="#63b8ff" d="M350.54,-358.74C558.13,-352.9 1122,-329.91 1122,-252.5 1122,-252.5 1122,-252.5 1122,-135 1122,-86.26 1089.88,-78.16 1047,-55 976.34,-16.84 880.09,-10.27 828.39,-9.78"/>
<polygon fill="#63b8ff" stroke="#63b8ff" points="828.37,-6.28 818.36,-9.76 828.36,-13.28 828.37,-6.28"/>
</a>
</g>
</g>
<!-- Node4 -->
<g id="Node000004" class="node">
<title>Node4</title>
<g id="a_Node000004"><a xlink:title=" ">
<polygon fill="#e0e0e0" stroke="#999999" points="176.5,-316 127.5,-316 127.5,-297 176.5,-297 176.5,-316"/>
<text text-anchor="middle" x="152" y="-304" font-family="Helvetica,sans-Serif" font-size="10.00">random</text>
</a>
</g>
</g>
<!-- Node1&#45;&gt;Node4 -->
<g id="edge3_Node000001_Node000004" class="edge">
<title>Node1&#45;&gt;Node4</title>
<g id="a_edge3_Node000001_Node000004"><a xlink:title=" ">
<path fill="none" stroke="#63b8ff" d="M255.24,-351.98C235.27,-343.38 204.2,-329.99 181.35,-320.15"/>
<polygon fill="#63b8ff" stroke="#63b8ff" points="182.69,-316.91 172.12,-316.17 179.92,-323.34 182.69,-316.91"/>
</a>
</g>
</g>
<!-- Node5 -->
<g id="Node000005" class="node">
<title>Node5</title>
<g id="a_Node000005"><a xlink:title=" ">
<polygon fill="#e0e0e0" stroke="#999999" points="202.5,-19 161.5,-19 161.5,0 202.5,0 202.5,-19"/>
<text text-anchor="middle" x="182" y="-7" font-family="Helvetica,sans-Serif" font-size="10.00">string</text>
</a>
</g>
</g>
<!-- Node1&#45;&gt;Node5 -->
<g id="edge4_Node000001_Node000005" class="edge">
<title>Node1&#45;&gt;Node5</title>
<g id="a_edge4_Node000001_Node000005"><a xlink:title=" ">
<path fill="none" stroke="#63b8ff" d="M227.41,-351.96C148.7,-336.45 0,-300.78 0,-252.5 0,-252.5 0,-252.5 0,-135 0,-62.47 99.67,-29.11 151.49,-16.66"/>
<polygon fill="#63b8ff" stroke="#63b8ff" points="152.51,-20.02 161.48,-14.38 150.95,-13.2 152.51,-20.02"/>
</a>
</g>
</g>
<!-- Node6 -->
<g id="Node000006" class="node">
<title>Node6</title>
<g id="a_Node000006"><a xlink:title=" ">
<polygon fill="#e0e0e0" stroke="#999999" points="316.5,-316 233.5,-316 233.5,-297 316.5,-297 316.5,-316"/>
<text text-anchor="middle" x="275" y="-304" font-family="Helvetica,sans-Serif" font-size="10.00">unordered_map</text>
</a>
</g>
</g>
<!-- Node1&#45;&gt;Node6 -->
<g id="edge5_Node000001_Node000006" class="edge">
<title>Node1&#45;&gt;Node6</title>
<g id="a_edge5_Node000001_Node000006"><a xlink:title=" ">
<path fill="none" stroke="#63b8ff" d="M275,-351.75C275,-344.8 275,-334.85 275,-326.13"/>
<polygon fill="#63b8ff" stroke="#63b8ff" points="278.5,-326.09 275,-316.09 271.5,-326.09 278.5,-326.09"/>
</a>
</g>
</g>
<!-- Node7 -->
<g id="Node000007" class="node">
<title>Node7</title>
<g id="a_Node000007"><a xlink:title=" ">
<polygon fill="#e0e0e0" stroke="#999999" points="402,-206 358,-206 358,-187 402,-187 402,-206"/>
<text text-anchor="middle" x="380" y="-194" font-family="Helvetica,sans-Serif" font-size="10.00">vector</text>
</a>
</g>
</g>
<!-- Node1&#45;&gt;Node7 -->
<g id="edge6_Node000001_Node000007" class="edge">
<title>Node1&#45;&gt;Node7</title>
<g id="a_edge6_Node000001_Node000007"><a xlink:title=" ">
<path fill="none" stroke="#63b8ff" d="M287.4,-351.78C298.4,-343.55 314.33,-330.36 325,-316 348.7,-284.11 365.72,-240.38 374.1,-215.94"/>
<polygon fill="#63b8ff" stroke="#63b8ff" points="377.51,-216.78 377.34,-206.18 370.87,-214.57 377.51,-216.78"/>
</a>
</g>
</g>
<!-- Node8 -->
<g id="Node000008" class="node">
<title>Node8</title>
<g id="a_Node000008"><a xlink:href="MonopolyRules_8hpp.html" target="_top" xlink:title=" ">
<polygon fill="white" stroke="#666666" points="476.5,-316 373.5,-316 373.5,-297 476.5,-297 476.5,-316"/>
<text text-anchor="middle" x="425" y="-304" font-family="Helvetica,sans-Serif" font-size="10.00">MonopolyRules.hpp</text>
</a>
</g>
</g>
<!-- Node1&#45;&gt;Node8 -->
<g id="edge7_Node000001_Node000008" class="edge">
<title>Node1&#45;&gt;Node8</title>
<g id="a_edge7_Node000001_Node000008"><a xlink:title=" ">
<path fill="none" stroke="#63b8ff" d="M299.1,-351.98C323.88,-343.23 362.7,-329.51 390.69,-319.62"/>
<polygon fill="#63b8ff" stroke="#63b8ff" points="392.2,-322.8 400.46,-316.17 389.87,-316.2 392.2,-322.8"/>
</a>
</g>
</g>
<!-- Node10 -->
<g id="Node000010" class="node">
<title>Node10</title>
<g id="a_Node000010"><a xlink:href="Player_8hpp.html" target="_top" xlink:title=" ">
<polygon fill="white" stroke="#666666" points="268,-261 206,-261 206,-242 268,-242 268,-261"/>
<text text-anchor="middle" x="237" y="-249" font-family="Helvetica,sans-Serif" font-size="10.00">Player.hpp</text>
</a>
</g>
</g>
<!-- Node1&#45;&gt;Node10 -->
<g id="edge48_Node000001_Node000010" class="edge">
<title>Node1&#45;&gt;Node10</title>
<g id="a_edge48_Node000001_Node000010"><a xlink:title=" ">
<path fill="none" stroke="#63b8ff" d="M259.27,-351.88C247.12,-344.23 231.2,-331.83 224,-316 217.39,-301.45 222.11,-283.5 227.63,-270.4"/>
<polygon fill="#63b8ff" stroke="#63b8ff" points="230.92,-271.63 232.03,-261.09 224.59,-268.64 230.92,-271.63"/>
</a>
</g>
</g>
<!-- Node14 -->
<g id="Node000014" class="node">
<title>Node14</title>
<g id="a_Node000014"><a xlink:href="Board_8hpp.html" target="_top" xlink:title=" ">
<polygon fill="white" stroke="#666666" points="536.5,-261 475.5,-261 475.5,-242 536.5,-242 536.5,-261"/>
<text text-anchor="middle" x="506" y="-249" font-family="Helvetica,sans-Serif" font-size="10.00">Board.hpp</text>
</a>
</g>
</g>
<!-- Node1&#45;&gt;Node14 -->
<g id="edge47_Node000001_Node000014" class="edge">
<title>Node1&#45;&gt;Node14</title>
<g id="a_edge47_Node000001_Node000014"><a xlink:title=" ">
<path fill="none" stroke="#63b8ff" d="M350.73,-352.62C402.88,-345.72 466.21,-333.95 486,-316 498.43,-304.72 503.19,-285.81 504.99,-271.56"/>
<polygon fill="#63b8ff" stroke="#63b8ff" points="508.5,-271.62 505.88,-261.35 501.52,-271.01 508.5,-271.62"/>
</a>
</g>
</g>
<!-- Node8&#45;&gt;Node7 -->
<g id="edge8_Node000008_Node000007" class="edge">
<title>Node8&#45;&gt;Node7</title>
<g id="a_edge8_Node000008_Node000007"><a xlink:title=" ">
<path fill="none" stroke="#63b8ff" d="M420.04,-296.81C415.1,-287.97 407.49,-273.79 402,-261 395.67,-246.24 389.78,-228.99 385.7,-216.2"/>
<polygon fill="#63b8ff" stroke="#63b8ff" points="388.92,-214.78 382.6,-206.28 382.24,-216.87 388.92,-214.78"/>
</a>
</g>
</g>
<!-- Node9 -->
<g id="Node000009" class="node">
<title>Node9</title>
<g id="a_Node000009"><a xlink:title=" ">
<polygon fill="#e0e0e0" stroke="#999999" points="457,-261 411,-261 411,-242 457,-242 457,-261"/>
<text text-anchor="middle" x="434" y="-249" font-family="Helvetica,sans-Serif" font-size="10.00">cstdint</text>
</a>
</g>
</g>
<!-- Node8&#45;&gt;Node9 -->
<g id="edge9_Node000008_Node000009" class="edge">
<title>Node8&#45;&gt;Node9</title>
<g id="a_edge9_Node000008_Node000009"><a xlink:title=" ">
<path fill="none" stroke="#63b8ff" d="M426.49,-296.75C427.67,-289.8 429.36,-279.85 430.84,-271.13"/>
<polygon fill="#63b8ff" stroke="#63b8ff" points="434.32,-271.53 432.54,-261.09 427.42,-270.36 434.32,-271.53"/>
</a>
</g>
</g>
<!-- Node8&#45;&gt;Node10 -->
<g id="edge10_Node000008_Node000010" class="edge">
<title>Node8&#45;&gt;Node10</title>
<g id="a_edge10_Node000008_Node000010"><a xlink:title=" ">
<path fill="none" stroke="#63b8ff" d="M394.79,-296.98C362.96,-288.01 312.64,-273.82 277.4,-263.89"/>
<polygon fill="#63b8ff" stroke="#63b8ff" points="278.02,-260.43 267.44,-261.08 276.12,-267.16 278.02,-260.43"/>
</a>
</g>
</g>
<!-- Node8&#45;&gt;Node14 -->
<g id="edge18_Node000008_Node000014" class="edge">
<title>Node8&#45;&gt;Node14</title>
<g id="a_edge18_Node000008_Node000014"><a xlink:title=" ">
<path fill="none" stroke="#63b8ff" d="M438.01,-296.98C450.46,-288.84 469.46,-276.41 484.21,-266.76"/>
<polygon fill="#63b8ff" stroke="#63b8ff" points="486.3,-269.57 492.75,-261.17 482.46,-263.72 486.3,-269.57"/>
</a>
</g>
</g>
<!-- Node10&#45;&gt;Node2 -->
<g id="edge11_Node000010_Node000002" class="edge">
<title>Node10&#45;&gt;Node2</title>
<g id="a_edge11_Node000010_Node000002"><a xlink:title=" ">
<path fill="none" stroke="#63b8ff" d="M207.92,-241.98C177.04,-232.94 128.09,-218.61 94.13,-208.67"/>
<polygon fill="#63b8ff" stroke="#63b8ff" points="94.7,-205.18 84.12,-205.73 92.73,-211.9 94.7,-205.18"/>
</a>
</g>
</g>
<!-- Node10&#45;&gt;Node3 -->
<g id="edge13_Node000010_Node000003" class="edge">
<title>Node10&#45;&gt;Node3</title>
<g id="a_edge13_Node000010_Node000003"><a xlink:title=" ">
<path fill="none" stroke="#63b8ff" d="M251.32,-241.95C272.45,-229.44 313.33,-205.61 349,-187 472.76,-122.42 502.79,-102.64 634,-55 675.09,-40.08 723.67,-27.06 756.01,-19.03"/>
<polygon fill="#63b8ff" stroke="#63b8ff" points="757.03,-22.38 765.9,-16.59 755.36,-15.58 757.03,-22.38"/>
</a>
</g>
</g>
<!-- Node10&#45;&gt;Node5 -->
<g id="edge15_Node000010_Node000005" class="edge">
<title>Node10&#45;&gt;Node5</title>
<g id="a_edge15_Node000010_Node000005"><a xlink:title=" ">
<path fill="none" stroke="#63b8ff" d="M227.17,-241.68C218.65,-233.39 206.8,-220.16 201,-206 176.16,-145.32 177.92,-65.51 180.33,-29.54"/>
<polygon fill="#63b8ff" stroke="#63b8ff" points="183.85,-29.35 181.13,-19.11 176.87,-28.81 183.85,-29.35"/>
</a>
</g>
</g>
<!-- Node10&#45;&gt;Node7 -->
<g id="edge16_Node000010_Node000007" class="edge">
<title>Node10&#45;&gt;Node7</title>
<g id="a_edge16_Node000010_Node000007"><a xlink:title=" ">
<path fill="none" stroke="#63b8ff" d="M259.98,-241.98C283.78,-233.16 321.16,-219.31 347.89,-209.4"/>
<polygon fill="#63b8ff" stroke="#63b8ff" points="349.39,-212.58 357.55,-205.82 346.96,-206.01 349.39,-212.58"/>
</a>
</g>
</g>
<!-- Node11 -->
<g id="Node000011" class="node">
<title>Node11</title>
<g id="a_Node000011"><a xlink:title=" ">
<polygon fill="#e0e0e0" stroke="#999999" points="264,-206 210,-206 210,-187 264,-187 264,-206"/>
<text text-anchor="middle" x="237" y="-194" font-family="Helvetica,sans-Serif" font-size="10.00">iostream</text>
</a>
</g>
</g>
<!-- Node10&#45;&gt;Node11 -->
<g id="edge12_Node000010_Node000011" class="edge">
<title>Node10&#45;&gt;Node11</title>
<g id="a_edge12_Node000010_Node000011"><a xlink:title=" ">
<path fill="none" stroke="#63b8ff" d="M237,-241.75C237,-234.8 237,-224.85 237,-216.13"/>
<polygon fill="#63b8ff" stroke="#63b8ff" points="240.5,-216.09 237,-206.09 233.5,-216.09 240.5,-216.09"/>
</a>
</g>
</g>
<!-- Node12 -->
<g id="Node000012" class="node">
<title>Node12</title>
<g id="a_Node000012"><a xlink:title=" ">
<polygon fill="#e0e0e0" stroke="#999999" points="154,-206 102,-206 102,-187 154,-187 154,-206"/>
<text text-anchor="middle" x="128" y="-194" font-family="Helvetica,sans-Serif" font-size="10.00">ostream</text>
</a>
</g>
</g>
<!-- Node10&#45;&gt;Node12 -->
<g id="edge14_Node000010_Node000012" class="edge">
<title>Node10&#45;&gt;Node12</title>
<g id="a_edge14_Node000010_Node000012"><a xlink:title=" ">
<path fill="none" stroke="#63b8ff" d="M219.49,-241.98C202.03,-233.5 174.99,-220.35 154.83,-210.54"/>
<polygon fill="#63b8ff" stroke="#63b8ff" points="156.36,-207.4 145.83,-206.17 153.29,-213.69 156.36,-207.4"/>
</a>
</g>
</g>
<!-- Node13 -->
<g id="Node000013" class="node">
<title>Node13</title>
<g id="a_Node000013"><a xlink:title=" ">
<polygon fill="#e0e0e0" stroke="#999999" points="364.5,-19 305.5,-19 305.5,0 364.5,0 364.5,-19"/>
<text text-anchor="middle" x="335" y="-7" font-family="Helvetica,sans-Serif" font-size="10.00">stdexcept</text>
</a>
</g>
</g>
<!-- Node10&#45;&gt;Node13 -->
<g id="edge17_Node000010_Node000013" class="edge">
<title>Node10&#45;&gt;Node13</title>
<g id="a_edge17_Node000010_Node000013"><a xlink:title=" ">
<path fill="none" stroke="#63b8ff" d="M247.16,-241.81C255.9,-233.6 267.9,-220.43 273,-206 281.49,-182 262.28,-175.9 257,-151 254.23,-137.96 252.97,-133.71 257,-121 269.11,-82.84 299.69,-46.49 318.77,-26.47"/>
<polygon fill="#63b8ff" stroke="#63b8ff" points="321.42,-28.76 325.92,-19.16 316.42,-23.86 321.42,-28.76"/>
</a>
</g>
</g>
<!-- Node14&#45;&gt;Node3 -->
<g id="edge20_Node000014_Node000003" class="edge">
<title>Node14&#45;&gt;Node3</title>
<g id="a_edge20_Node000014_Node000003"><a xlink:title=" ">
<path fill="none" stroke="#63b8ff" d="M536.54,-250.26C643.96,-248.69 1001.38,-236.97 1065,-151 1129.9,-63.3 916.51,-26.02 828.34,-14.6"/>
<polygon fill="#63b8ff" stroke="#63b8ff" points="828.59,-11.11 818.24,-13.34 827.72,-18.05 828.59,-11.11"/>
</a>
</g>
</g>
<!-- Node14&#45;&gt;Node7 -->
<g id="edge19_Node000014_Node000007" class="edge">
<title>Node14&#45;&gt;Node7</title>
<g id="a_edge19_Node000014_Node000007"><a xlink:title=" ">
<path fill="none" stroke="#63b8ff" d="M485.76,-241.98C465.3,-233.38 433.47,-219.99 410.07,-210.15"/>
<polygon fill="#63b8ff" stroke="#63b8ff" points="411.19,-206.82 400.61,-206.17 408.47,-213.27 411.19,-206.82"/>
</a>
</g>
</g>
<!-- Node15 -->
<g id="Node000015" class="node">
<title>Node15</title>
<g id="a_Node000015"><a xlink:href="Property_8hpp.html" target="_top" xlink:title=" ">
<polygon fill="white" stroke="#666666" points="604,-145.5 496,-145.5 496,-126.5 604,-126.5 604,-145.5"/>
<text text-anchor="middle" x="550" y="-133.5" font-family="Helvetica,sans-Serif" font-size="10.00">squares/Property.hpp</text>
</a>
</g>
</g>
<!-- Node14&#45;&gt;Node15 -->
<g id="edge21_Node000014_Node000015" class="edge">
<title>Node14&#45;&gt;Node15</title>
<g id="a_edge21_Node000014_Node000015"><a xlink:title=" ">
<path fill="none" stroke="#63b8ff" d="M508.33,-241.74C511.72,-229.36 518.44,-206.13 526,-187 530.31,-176.08 535.96,-164.23 540.69,-154.8"/>
<polygon fill="#63b8ff" stroke="#63b8ff" points="543.92,-156.18 545.36,-145.68 537.69,-152.99 543.92,-156.18"/>
</a>
</g>
</g>
<!-- Node16 -->
<g id="Node000016" class="node">
<title>Node16</title>
<g id="a_Node000016"><a xlink:href="Square_8hpp.html" target="_top" xlink:title=" ">
<polygon fill="white" stroke="#666666" points="402,-79.5 336,-79.5 336,-60.5 402,-60.5 402,-79.5"/>
<text text-anchor="middle" x="369" y="-67.5" font-family="Helvetica,sans-Serif" font-size="10.00">Square.hpp</text>
</a>
</g>
</g>
<!-- Node14&#45;&gt;Node16 -->
<g id="edge29_Node000014_Node000016" class="edge">
<title>Node14&#45;&gt;Node16</title>
<g id="a_edge29_Node000014_Node000016"><a xlink:title=" ">
<path fill="none" stroke="#63b8ff" d="M499.97,-241.87C485.21,-220.86 445.96,-165.51 411,-121 402.01,-109.55 391.47,-97.01 383.2,-87.35"/>
<polygon fill="#63b8ff" stroke="#63b8ff" points="385.79,-85 376.61,-79.71 380.49,-89.57 385.79,-85"/>
</a>
</g>
</g>
<!-- Node19 -->
<g id="Node000019" class="node">
<title>Node19</title>
<g id="a_Node000019"><a xlink:href="Railroad_8hpp.html" target="_top" xlink:title=" ">
<polygon fill="white" stroke="#666666" points="643.5,-206 534.5,-206 534.5,-187 643.5,-187 643.5,-206"/>
<text text-anchor="middle" x="589" y="-194" font-family="Helvetica,sans-Serif" font-size="10.00">squares/Railroad.hpp</text>
</a>
</g>
</g>
<!-- Node14&#45;&gt;Node19 -->
<g id="edge30_Node000014_Node000019" class="edge">
<title>Node14&#45;&gt;Node19</title>
<g id="a_edge30_Node000014_Node000019"><a xlink:title=" ">
<path fill="none" stroke="#63b8ff" d="M519.34,-241.98C532.09,-233.84 551.55,-221.41 566.67,-211.76"/>
<polygon fill="#63b8ff" stroke="#63b8ff" points="568.88,-214.5 575.42,-206.17 565.11,-208.6 568.88,-214.5"/>
</a>
</g>
</g>
<!-- Node22 -->
<g id="Node000022" class="node">
<title>Node22</title>
<g id="a_Node000022"><a xlink:href="Utility_8hpp.html" target="_top" xlink:title=" ">
<polygon fill="white" stroke="#666666" points="758.5,-206 661.5,-206 661.5,-187 758.5,-187 758.5,-206"/>
<text text-anchor="middle" x="710" y="-194" font-family="Helvetica,sans-Serif" font-size="10.00">squares/Utility.hpp</text>
</a>
</g>
</g>
<!-- Node14&#45;&gt;Node22 -->
<g id="edge35_Node000014_Node000022" class="edge">
<title>Node14&#45;&gt;Node22</title>
<g id="a_edge35_Node000014_Node000022"><a xlink:title=" ">
<path fill="none" stroke="#63b8ff" d="M536.54,-242.57C571.31,-233.53 628.33,-218.72 667.44,-208.56"/>
<polygon fill="#63b8ff" stroke="#63b8ff" points="668.42,-211.92 677.22,-206.02 666.66,-205.14 668.42,-211.92"/>
</a>
</g>
</g>
<!-- Node24 -->
<g id="Node000024" class="node">
<title>Node24</title>
<g id="a_Node000024"><a xlink:href="Street_8hpp.html" target="_top" xlink:title=" ">
<polygon fill="white" stroke="#666666" points="875.5,-206 776.5,-206 776.5,-187 875.5,-187 875.5,-206"/>
<text text-anchor="middle" x="826" y="-194" font-family="Helvetica,sans-Serif" font-size="10.00">squares/Street.hpp</text>
</a>
</g>
</g>
<!-- Node14&#45;&gt;Node24 -->
<g id="edge40_Node000014_Node000024" class="edge">
<title>Node14&#45;&gt;Node24</title>
<g id="a_edge40_Node000014_Node000024"><a xlink:title=" ">
<path fill="none" stroke="#63b8ff" d="M536.68,-245.42C589.43,-236.68 698.18,-218.67 766.3,-207.39"/>
<polygon fill="#63b8ff" stroke="#63b8ff" points="767.16,-210.79 776.45,-205.71 766.02,-203.89 767.16,-210.79"/>
</a>
</g>
</g>
<!-- Node26 -->
<g id="Node000026" class="node">
<title>Node26</title>
<g id="a_Node000026"><a xlink:href="SpecialSquare_8hpp.html" target="_top" xlink:title=" ">
<polygon fill="white" stroke="#666666" points="402,-145.5 266,-145.5 266,-126.5 402,-126.5 402,-145.5"/>
<text text-anchor="middle" x="334" y="-133.5" font-family="Helvetica,sans-Serif" font-size="10.00">squares/SpecialSquare.hpp</text>
</a>
</g>
</g>
<!-- Node14&#45;&gt;Node26 -->
<g id="edge45_Node000014_Node000026" class="edge">
<title>Node14&#45;&gt;Node26</title>
<g id="a_edge45_Node000014_Node000026"><a xlink:title=" ">
<path fill="none" stroke="#63b8ff" d="M493.13,-241.82C474.9,-229.54 440.49,-206.43 411,-187 392.59,-174.87 371.6,-161.26 356.19,-151.3"/>
<polygon fill="#63b8ff" stroke="#63b8ff" points="357.69,-148.1 347.39,-145.62 353.89,-153.98 357.69,-148.1"/>
</a>
</g>
</g>
<!-- Node15&#45;&gt;Node13 -->
<g id="edge27_Node000015_Node000013" class="edge">
<title>Node15&#45;&gt;Node13</title>
<g id="a_edge27_Node000015_Node000013"><a xlink:title=" ">
<path fill="none" stroke="#63b8ff" d="M535.22,-126.44C498.55,-105.21 403.15,-49.96 358.58,-24.15"/>
<polygon fill="#63b8ff" stroke="#63b8ff" points="360.29,-21.1 349.88,-19.12 356.78,-27.16 360.29,-21.1"/>
</a>
</g>
</g>
<!-- Node15&#45;&gt;Node16 -->
<g id="edge22_Node000015_Node000016" class="edge">
<title>Node15&#45;&gt;Node16</title>
<g id="a_edge22_Node000015_Node000016"><a xlink:title=" ">
<path fill="none" stroke="#63b8ff" d="M525.59,-126.37C493.92,-115.17 438.53,-95.58 402.82,-82.96"/>
<polygon fill="#63b8ff" stroke="#63b8ff" points="403.91,-79.63 393.31,-79.6 401.57,-86.23 403.91,-79.63"/>
</a>
</g>
</g>
<!-- Node18 -->
<g id="Node000018" class="node">
<title>Node18</title>
<g id="a_Node000018"><a xlink:href="StrategyRentCalculator_8hpp.html" target="_top" xlink:title=" ">
<polygon fill="white" stroke="#666666" points="783,-85 643,-85 643,-55 783,-55 783,-85"/>
<text text-anchor="start" x="651" y="-73" font-family="Helvetica,sans-Serif" font-size="10.00">../../utils/strategy</text>
<text text-anchor="middle" x="713" y="-62" font-family="Helvetica,sans-Serif" font-size="10.00">/StrategyRentCalculator.hpp</text>
</a>
</g>
</g>
<!-- Node15&#45;&gt;Node18 -->
<g id="edge28_Node000015_Node000018" class="edge">
<title>Node15&#45;&gt;Node18</title>
<g id="a_edge28_Node000015_Node000018"><a xlink:title=" ">
<path fill="none" stroke="#63b8ff" d="M571.98,-126.37C596.4,-116.78 636.48,-101.05 667.68,-88.8"/>
<polygon fill="#63b8ff" stroke="#63b8ff" points="669.02,-92.03 677.05,-85.12 666.46,-85.51 669.02,-92.03"/>
</a>
</g>
</g>
<!-- Node16&#45;&gt;Node3 -->
<g id="edge23_Node000016_Node000003" class="edge">
<title>Node16&#45;&gt;Node3</title>
<g id="a_edge23_Node000016_Node000003"><a xlink:title=" ">
<path fill="none" stroke="#63b8ff" d="M394.65,-60.49C401.53,-58.45 409,-56.45 416,-55 539.13,-29.57 688.16,-17.3 755.65,-12.72"/>
<polygon fill="#63b8ff" stroke="#63b8ff" points="756.02,-16.2 765.77,-12.05 755.56,-9.22 756.02,-16.2"/>
</a>
</g>
</g>
<!-- Node16&#45;&gt;Node5 -->
<g id="edge25_Node000016_Node000005" class="edge">
<title>Node16&#45;&gt;Node5</title>
<g id="a_edge25_Node000016_Node000005"><a xlink:title=" ">
<path fill="none" stroke="#63b8ff" d="M341.81,-60.49C307.42,-49.74 248.37,-31.26 212.49,-20.04"/>
<polygon fill="#63b8ff" stroke="#63b8ff" points="213.17,-16.59 202.59,-16.94 211.08,-23.27 213.17,-16.59"/>
</a>
</g>
</g>
<!-- Node16&#45;&gt;Node13 -->
<g id="edge24_Node000016_Node000013" class="edge">
<title>Node16&#45;&gt;Node13</title>
<g id="a_edge24_Node000016_Node000013"><a xlink:title=" ">
<path fill="none" stroke="#63b8ff" d="M363.98,-60.37C359.06,-51.9 351.41,-38.74 345.21,-28.07"/>
<polygon fill="#63b8ff" stroke="#63b8ff" points="348.09,-26.05 340.04,-19.17 342.04,-29.57 348.09,-26.05"/>
</a>
</g>
</g>
<!-- Node17 -->
<g id="Node000017" class="node">
<title>Node17</title>
<g id="a_Node000017"><a xlink:title=" ">
<polygon fill="#e0e0e0" stroke="#999999" points="423,-19 383,-19 383,0 423,0 423,-19"/>
<text text-anchor="middle" x="403" y="-7" font-family="Helvetica,sans-Serif" font-size="10.00">utility</text>
</a>
</g>
</g>
<!-- Node16&#45;&gt;Node17 -->
<g id="edge26_Node000016_Node000017" class="edge">
<title>Node16&#45;&gt;Node17</title>
<g id="a_edge26_Node000016_Node000017"><a xlink:title=" ">
<path fill="none" stroke="#63b8ff" d="M374.02,-60.37C378.94,-51.9 386.59,-38.74 392.79,-28.07"/>
<polygon fill="#63b8ff" stroke="#63b8ff" points="395.96,-29.57 397.96,-19.17 389.91,-26.05 395.96,-29.57"/>
</a>
</g>
</g>
<!-- Node19&#45;&gt;Node15 -->
<g id="edge31_Node000019_Node000015" class="edge">
<title>Node19&#45;&gt;Node15</title>
<g id="a_edge31_Node000019_Node000015"><a xlink:title=" ">
<path fill="none" stroke="#63b8ff" d="M583.25,-186.87C577.54,-178.31 568.65,-164.97 561.49,-154.24"/>
<polygon fill="#63b8ff" stroke="#63b8ff" points="564.24,-152.05 555.78,-145.67 558.41,-155.93 564.24,-152.05"/>
</a>
</g>
</g>
<!-- Node20 -->
<g id="Node000020" class="node">
<title>Node20</title>
<g id="a_Node000020"><a xlink:href="RailroadRentCalculator_8hpp.html" target="_top" xlink:title=" ">
<polygon fill="white" stroke="#666666" points="761.5,-151 622.5,-151 622.5,-121 761.5,-121 761.5,-151"/>
<text text-anchor="start" x="630.5" y="-139" font-family="Helvetica,sans-Serif" font-size="10.00">../../utils/strategy</text>
<text text-anchor="middle" x="692" y="-128" font-family="Helvetica,sans-Serif" font-size="10.00">/RailroadRentCalculator.hpp</text>
</a>
</g>
</g>
<!-- Node19&#45;&gt;Node20 -->
<g id="edge32_Node000019_Node000020" class="edge">
<title>Node19&#45;&gt;Node20</title>
<g id="a_edge32_Node000019_Node000020"><a xlink:title=" ">
<path fill="none" stroke="#63b8ff" d="M604.2,-186.87C618.3,-178.86 639.8,-166.65 657.99,-156.31"/>
<polygon fill="#63b8ff" stroke="#63b8ff" points="660.18,-159.1 667.15,-151.11 656.72,-153.01 660.18,-159.1"/>
</a>
</g>
</g>
<!-- Node20&#45;&gt;Node18 -->
<g id="edge33_Node000020_Node000018" class="edge">
<title>Node20&#45;&gt;Node18</title>
<g id="a_edge33_Node000020_Node000018"><a xlink:title=" ">
<path fill="none" stroke="#63b8ff" d="M696.66,-120.8C699.16,-113.17 702.31,-103.57 705.18,-94.84"/>
<polygon fill="#63b8ff" stroke="#63b8ff" points="708.56,-95.76 708.35,-85.16 701.91,-93.57 708.56,-95.76"/>
</a>
</g>
</g>
<!-- Node21 -->
<g id="Node000021" class="node">
<title>Node21</title>
<g id="a_Node000021"><a xlink:title=" ">
<polygon fill="#e0e0e0" stroke="#999999" points="866,-79.5 822,-79.5 822,-60.5 866,-60.5 866,-79.5"/>
<text text-anchor="middle" x="844" y="-67.5" font-family="Helvetica,sans-Serif" font-size="10.00">cmath</text>
</a>
</g>
</g>
<!-- Node20&#45;&gt;Node21 -->
<g id="edge34_Node000020_Node000021" class="edge">
<title>Node20&#45;&gt;Node21</title>
<g id="a_edge34_Node000020_Node000021"><a xlink:title=" ">
<path fill="none" stroke="#63b8ff" d="M725.36,-120.95C751.9,-109.78 788.69,-94.29 814.24,-83.53"/>
<polygon fill="#63b8ff" stroke="#63b8ff" points="815.91,-86.62 823.77,-79.52 813.2,-80.17 815.91,-86.62"/>
</a>
</g>
</g>
<!-- Node22&#45;&gt;Node15 -->
<g id="edge36_Node000022_Node000015" class="edge">
<title>Node22&#45;&gt;Node15</title>
<g id="a_edge36_Node000022_Node000015"><a xlink:title=" ">
<path fill="none" stroke="#63b8ff" d="M686.73,-186.99C659.36,-176.99 613.73,-160.3 582.78,-148.99"/>
<polygon fill="#63b8ff" stroke="#63b8ff" points="583.89,-145.66 573.29,-145.52 581.48,-152.24 583.89,-145.66"/>
</a>
</g>
</g>
<!-- Node23 -->
<g id="Node000023" class="node">
<title>Node23</title>
<g id="a_Node000023"><a xlink:href="UtilityRentCalculator_8hpp.html" target="_top" xlink:title=" ">
<polygon fill="white" stroke="#666666" points="908,-151 780,-151 780,-121 908,-121 908,-151"/>
<text text-anchor="start" x="788" y="-139" font-family="Helvetica,sans-Serif" font-size="10.00">../../utils/strategy</text>
<text text-anchor="middle" x="844" y="-128" font-family="Helvetica,sans-Serif" font-size="10.00">/UtilityRentCalculator.hpp</text>
</a>
</g>
</g>
<!-- Node22&#45;&gt;Node23 -->
<g id="edge37_Node000022_Node000023" class="edge">
<title>Node22&#45;&gt;Node23</title>
<g id="a_edge37_Node000022_Node000023"><a xlink:title=" ">
<path fill="none" stroke="#63b8ff" d="M729.48,-186.99C748.52,-178.68 778.09,-165.78 802.41,-155.16"/>
<polygon fill="#63b8ff" stroke="#63b8ff" points="804.02,-158.27 811.78,-151.06 801.22,-151.86 804.02,-158.27"/>
</a>
</g>
</g>
<!-- Node23&#45;&gt;Node18 -->
<g id="edge38_Node000023_Node000018" class="edge">
<title>Node23&#45;&gt;Node18</title>
<g id="a_edge38_Node000023_Node000018"><a xlink:title=" ">
<path fill="none" stroke="#63b8ff" d="M815.25,-120.95C796.31,-111.7 771.31,-99.49 750.77,-89.45"/>
<polygon fill="#63b8ff" stroke="#63b8ff" points="752.2,-86.26 741.68,-85.01 749.13,-92.55 752.2,-86.26"/>
</a>
</g>
</g>
<!-- Node23&#45;&gt;Node21 -->
<g id="edge39_Node000023_Node000021" class="edge">
<title>Node23&#45;&gt;Node21</title>
<g id="a_edge39_Node000023_Node000021"><a xlink:title=" ">
<path fill="none" stroke="#63b8ff" d="M844,-120.8C844,-111.7 844,-99.79 844,-89.9"/>
<polygon fill="#63b8ff" stroke="#63b8ff" points="847.5,-89.84 844,-79.84 840.5,-89.84 847.5,-89.84"/>
</a>
</g>
</g>
<!-- Node24&#45;&gt;Node15 -->
<g id="edge41_Node000024_Node000015" class="edge">
<title>Node24&#45;&gt;Node15</title>
<g id="a_edge41_Node000024_Node000015"><a xlink:title=" ">
<path fill="none" stroke="#63b8ff" d="M784.94,-186.99C742.22,-178.11 673.39,-163.73 614,-151 609.05,-149.94 603.89,-148.83 598.74,-147.71"/>
<polygon fill="#63b8ff" stroke="#63b8ff" points="599.43,-144.27 588.91,-145.57 597.94,-151.11 599.43,-144.27"/>
</a>
</g>
</g>
<!-- Node25 -->
<g id="Node000025" class="node">
<title>Node25</title>
<g id="a_Node000025"><a xlink:href="StreetRentCalculator_8hpp.html" target="_top" xlink:title=" ">
<polygon fill="white" stroke="#666666" points="1055.5,-151 926.5,-151 926.5,-121 1055.5,-121 1055.5,-151"/>
<text text-anchor="start" x="934.5" y="-139" font-family="Helvetica,sans-Serif" font-size="10.00">../../utils/strategy</text>
<text text-anchor="middle" x="991" y="-128" font-family="Helvetica,sans-Serif" font-size="10.00">/StreetRentCalculator.hpp</text>
</a>
</g>
</g>
<!-- Node24&#45;&gt;Node25 -->
<g id="edge42_Node000024_Node000025" class="edge">
<title>Node24&#45;&gt;Node25</title>
<g id="a_edge42_Node000024_Node000025"><a xlink:title=" ">
<path fill="none" stroke="#63b8ff" d="M849.99,-186.99C873.95,-178.5 911.46,-165.2 941.77,-154.45"/>
<polygon fill="#63b8ff" stroke="#63b8ff" points="943.08,-157.7 951.33,-151.06 940.74,-151.11 943.08,-157.7"/>
</a>
</g>
</g>
<!-- Node25&#45;&gt;Node18 -->
<g id="edge43_Node000025_Node000018" class="edge">
<title>Node25&#45;&gt;Node18</title>
<g id="a_edge43_Node000025_Node000018"><a xlink:title=" ">
<path fill="none" stroke="#63b8ff" d="M929.99,-120.95C886.9,-111.03 829.02,-97.71 783.88,-87.32"/>
<polygon fill="#63b8ff" stroke="#63b8ff" points="784.4,-83.85 773.87,-85.01 782.83,-90.67 784.4,-83.85"/>
</a>
</g>
</g>
<!-- Node25&#45;&gt;Node21 -->
<g id="edge44_Node000025_Node000021" class="edge">
<title>Node25&#45;&gt;Node21</title>
<g id="a_edge44_Node000025_Node000021"><a xlink:title=" ">
<path fill="none" stroke="#63b8ff" d="M958.74,-120.95C933.07,-109.78 897.49,-94.29 872.78,-83.53"/>
<polygon fill="#63b8ff" stroke="#63b8ff" points="874.13,-80.3 863.56,-79.52 871.33,-86.72 874.13,-80.3"/>
</a>
</g>
</g>
<!-- Node26&#45;&gt;Node16 -->
<g id="edge46_Node000026_Node000016" class="edge">
<title>Node26&#45;&gt;Node16</title>
<g id="a_edge46_Node000026_Node000016"><a xlink:title=" ">
<path fill="none" stroke="#63b8ff" d="M338.72,-126.37C343.96,-116.78 352.57,-101.05 359.27,-88.8"/>
<polygon fill="#63b8ff" stroke="#63b8ff" points="362.4,-90.36 364.13,-79.91 356.26,-87 362.4,-90.36"/>
</a>
</g>
</g>
</g>
</svg>
