<?xml version="1.0" encoding="UTF-8" standalone="no"?>
<!DOCTYPE svg PUBLIC "-//W3C//DTD SVG 1.1//EN"
 "http://www.w3.org/Graphics/SVG/1.1/DTD/svg11.dtd">
<!-- Generated by graphviz version 2.43.0 (0)
 -->
<!-- Title: include/utils/state/GameState.hpp Pages: 1 -->
<svg width="655pt" height="368pt"
 viewBox="0.00 0.00 655.00 368.00" xmlns="http://www.w3.org/2000/svg" xmlns:xlink="http://www.w3.org/1999/xlink">
<g id="graph0" class="graph" transform="scale(1 1) rotate(0) translate(4 364)">
<title>include/utils/state/GameState.hpp</title>
<!-- Node1 -->
<g id="Node000001" class="node">
<title>Node1</title>
<g id="a_Node000001"><a xlink:title=" ">
<polygon fill="#999999" stroke="#666666" points="426,-360 333,-360 333,-330 426,-330 426,-360"/>
<text text-anchor="start" x="341" y="-348" font-family="Helvetica,sans-Serif" font-size="10.00">include/utils/state</text>
<text text-anchor="middle" x="379.5" y="-337" font-family="Helvetica,sans-Serif" font-size="10.00">/GameState.hpp</text>
</a>
</g>
</g>
<!-- Node2 -->
<g id="Node000002" class="node">
<title>Node2</title>
<g id="a_Node000002"><a xlink:href="GameController_8hpp.html" target="_top" xlink:title="Main controller class for the Monopoly game implementation.">
<polygon fill="white" stroke="#666666" points="336.5,-96 230.5,-96 230.5,-66 336.5,-66 336.5,-96"/>
<text text-anchor="start" x="238.5" y="-84" font-family="Helvetica,sans-Serif" font-size="10.00">include/controller</text>
<text text-anchor="middle" x="283.5" y="-73" font-family="Helvetica,sans-Serif" font-size="10.00">/GameController.hpp</text>
</a>
</g>
</g>
<!-- Node1&#45;&gt;Node2 -->
<g id="edge1_Node000001_Node000002" class="edge">
<title>Node1&#45;&gt;Node2</title>
<g id="a_edge1_Node000001_Node000002"><a xlink:title=" ">
<path fill="none" stroke="#63b8ff" d="M322.79,-338.28C293.99,-332.18 261.4,-319.65 243.5,-294 199.45,-230.88 251.9,-132.49 274.3,-96.13"/>
<polygon fill="#63b8ff" stroke="#63b8ff" points="322.3,-341.75 332.78,-340.18 323.61,-334.88 322.3,-341.75"/>
</a>
</g>
</g>
<!-- Node4 -->
<g id="Node000004" class="node">
<title>Node4</title>
<g id="a_Node000004"><a xlink:href="GameState_8cpp.html" target="_top" xlink:title=" ">
<polygon fill="white" stroke="#666666" points="103,-30 0,-30 0,0 103,0 103,-30"/>
<text text-anchor="start" x="8" y="-18" font-family="Helvetica,sans-Serif" font-size="10.00">src/controller/states</text>
<text text-anchor="middle" x="51.5" y="-7" font-family="Helvetica,sans-Serif" font-size="10.00">/GameState.cpp</text>
</a>
</g>
</g>
<!-- Node1&#45;&gt;Node4 -->
<g id="edge18_Node000001_Node000004" class="edge">
<title>Node1&#45;&gt;Node4</title>
<g id="a_edge18_Node000001_Node000004"><a xlink:title=" ">
<path fill="none" stroke="#63b8ff" d="M322.67,-338.45C250.85,-327.94 136.5,-298.02 136.5,-214 136.5,-214 136.5,-214 136.5,-146 136.5,-96.92 93.54,-51.92 68.7,-30.01"/>
<polygon fill="#63b8ff" stroke="#63b8ff" points="322.55,-341.97 332.93,-339.86 323.51,-335.03 322.55,-341.97"/>
</a>
</g>
</g>
<!-- Node8 -->
<g id="Node000008" class="node">
<title>Node8</title>
<g id="a_Node000008"><a xlink:href="LandOnSquareState_8hpp.html" target="_top" xlink:title=" ">
<polygon fill="white" stroke="#666666" points="378.5,-294 252.5,-294 252.5,-264 378.5,-264 378.5,-294"/>
<text text-anchor="start" x="260.5" y="-282" font-family="Helvetica,sans-Serif" font-size="10.00">include/utils/state</text>
<text text-anchor="middle" x="315.5" y="-271" font-family="Helvetica,sans-Serif" font-size="10.00">/LandOnSquareState.hpp</text>
</a>
</g>
</g>
<!-- Node1&#45;&gt;Node8 -->
<g id="edge7_Node000001_Node000008" class="edge">
<title>Node1&#45;&gt;Node8</title>
<g id="a_edge7_Node000001_Node000008"><a xlink:title=" ">
<path fill="none" stroke="#63b8ff" d="M358.15,-322.65C348.77,-313.27 338.03,-302.53 329.66,-294.16"/>
<polygon fill="#63b8ff" stroke="#63b8ff" points="355.75,-325.2 365.3,-329.8 360.7,-320.25 355.75,-325.2"/>
</a>
</g>
</g>
<!-- Node9 -->
<g id="Node000009" class="node">
<title>Node9</title>
<g id="a_Node000009"><a xlink:href="LandState_8hpp.html" target="_top" xlink:title=" ">
<polygon fill="white" stroke="#666666" points="490,-294 397,-294 397,-264 490,-264 490,-294"/>
<text text-anchor="start" x="405" y="-282" font-family="Helvetica,sans-Serif" font-size="10.00">include/utils/state</text>
<text text-anchor="middle" x="443.5" y="-271" font-family="Helvetica,sans-Serif" font-size="10.00">/LandState.hpp</text>
</a>
</g>
</g>
<!-- Node1&#45;&gt;Node9 -->
<g id="edge8_Node000001_Node000009" class="edge">
<title>Node1&#45;&gt;Node9</title>
<g id="a_edge8_Node000001_Node000009"><a xlink:title=" ">
<path fill="none" stroke="#63b8ff" d="M400.85,-322.65C410.23,-313.27 420.97,-302.53 429.34,-294.16"/>
<polygon fill="#63b8ff" stroke="#63b8ff" points="398.3,-320.25 393.7,-329.8 403.25,-325.2 398.3,-320.25"/>
</a>
</g>
</g>
<!-- Node10 -->
<g id="Node000010" class="node">
<title>Node10</title>
<g id="a_Node000010"><a xlink:href="RollDiceState_8hpp.html" target="_top" xlink:title=" ">
<polygon fill="white" stroke="#666666" points="502,-228 403,-228 403,-198 502,-198 502,-228"/>
<text text-anchor="start" x="411" y="-216" font-family="Helvetica,sans-Serif" font-size="10.00">include/utils/state</text>
<text text-anchor="middle" x="452.5" y="-205" font-family="Helvetica,sans-Serif" font-size="10.00">/RollDiceState.hpp</text>
</a>
</g>
</g>
<!-- Node1&#45;&gt;Node10 -->
<g id="edge14_Node000001_Node000010" class="edge">
<title>Node1&#45;&gt;Node10</title>
<g id="a_edge14_Node000001_Node000010"><a xlink:title=" ">
<path fill="none" stroke="#63b8ff" d="M436.1,-334.43C459.52,-327.37 484.45,-315.15 498.5,-294 513.31,-271.72 489.22,-244.46 470.68,-228.2"/>
<polygon fill="#63b8ff" stroke="#63b8ff" points="434.91,-331.12 426.19,-337.14 436.76,-337.87 434.91,-331.12"/>
</a>
</g>
</g>
<!-- Node12 -->
<g id="Node000012" class="node">
<title>Node12</title>
<g id="a_Node000012"><a xlink:href="TurnState_8hpp.html" target="_top" xlink:title=" ">
<polygon fill="white" stroke="#666666" points="603,-96 510,-96 510,-66 603,-66 603,-96"/>
<text text-anchor="start" x="518" y="-84" font-family="Helvetica,sans-Serif" font-size="10.00">include/utils/state</text>
<text text-anchor="middle" x="556.5" y="-73" font-family="Helvetica,sans-Serif" font-size="10.00">/TurnState.hpp</text>
</a>
</g>
</g>
<!-- Node1&#45;&gt;Node12 -->
<g id="edge15_Node000001_Node000012" class="edge">
<title>Node1&#45;&gt;Node12</title>
<g id="a_edge15_Node000001_Node000012"><a xlink:title=" ">
<path fill="none" stroke="#63b8ff" d="M436.23,-336.39C464.02,-329.74 495.69,-317.3 515.5,-294 565.65,-235.03 561.57,-133.25 558.12,-96.1"/>
<polygon fill="#63b8ff" stroke="#63b8ff" points="435.21,-333.03 426.19,-338.59 436.71,-339.87 435.21,-333.03"/>
</a>
</g>
</g>
<!-- Node3 -->
<g id="Node000003" class="node">
<title>Node3</title>
<g id="a_Node000003"><a xlink:href="GameController_8cpp.html" target="_top" xlink:title=" ">
<polygon fill="white" stroke="#666666" points="283.5,-24.5 121.5,-24.5 121.5,-5.5 283.5,-5.5 283.5,-24.5"/>
<text text-anchor="middle" x="202.5" y="-12.5" font-family="Helvetica,sans-Serif" font-size="10.00">src/controller/GameController.cpp</text>
</a>
</g>
</g>
<!-- Node2&#45;&gt;Node3 -->
<g id="edge2_Node000002_Node000003" class="edge">
<title>Node2&#45;&gt;Node3</title>
<g id="a_edge2_Node000002_Node000003"><a xlink:title=" ">
<path fill="none" stroke="#63b8ff" d="M257.66,-59.58C242.84,-47.87 224.99,-33.77 213.69,-24.84"/>
<polygon fill="#63b8ff" stroke="#63b8ff" points="255.51,-62.34 265.52,-65.8 259.85,-56.85 255.51,-62.34"/>
</a>
</g>
</g>
<!-- Node2&#45;&gt;Node4 -->
<g id="edge3_Node000002_Node000004" class="edge">
<title>Node2&#45;&gt;Node4</title>
<g id="a_edge3_Node000002_Node000004"><a xlink:title=" ">
<path fill="none" stroke="#63b8ff" d="M222.79,-63.25C185.31,-52.91 137.78,-39.8 102.29,-30.01"/>
<polygon fill="#63b8ff" stroke="#63b8ff" points="222.02,-66.67 232.59,-65.95 223.88,-59.92 222.02,-66.67"/>
</a>
</g>
</g>
<!-- Node5 -->
<g id="Node000005" class="node">
<title>Node5</title>
<g id="a_Node000005"><a xlink:href="RollDiceState_8cpp.html" target="_top" xlink:title=" ">
<polygon fill="white" stroke="#666666" points="526,-30 423,-30 423,0 526,0 526,-30"/>
<text text-anchor="start" x="431" y="-18" font-family="Helvetica,sans-Serif" font-size="10.00">src/controller/states</text>
<text text-anchor="middle" x="474.5" y="-7" font-family="Helvetica,sans-Serif" font-size="10.00">/RollDiceState.cpp</text>
</a>
</g>
</g>
<!-- Node2&#45;&gt;Node5 -->
<g id="edge4_Node000002_Node000005" class="edge">
<title>Node2&#45;&gt;Node5</title>
<g id="a_edge4_Node000002_Node000005"><a xlink:title=" ">
<path fill="none" stroke="#63b8ff" d="M335.06,-62.72C365.66,-52.47 403.97,-39.63 432.68,-30.01"/>
<polygon fill="#63b8ff" stroke="#63b8ff" points="333.79,-59.46 325.42,-65.95 336.01,-66.1 333.79,-59.46"/>
</a>
</g>
</g>
<!-- Node6 -->
<g id="Node000006" class="node">
<title>Node6</title>
<g id="a_Node000006"><a xlink:href="StartState_8cpp.html" target="_top" xlink:title=" ">
<polygon fill="white" stroke="#666666" points="405,-30 302,-30 302,0 405,0 405,-30"/>
<text text-anchor="start" x="310" y="-18" font-family="Helvetica,sans-Serif" font-size="10.00">src/controller/states</text>
<text text-anchor="middle" x="353.5" y="-7" font-family="Helvetica,sans-Serif" font-size="10.00">/StartState.cpp</text>
</a>
</g>
</g>
<!-- Node2&#45;&gt;Node6 -->
<g id="edge5_Node000002_Node000006" class="edge">
<title>Node2&#45;&gt;Node6</title>
<g id="a_edge5_Node000002_Node000006"><a xlink:title=" ">
<path fill="none" stroke="#63b8ff" d="M306.55,-58.92C316.87,-49.49 328.77,-38.61 338.01,-30.16"/>
<polygon fill="#63b8ff" stroke="#63b8ff" points="304.05,-56.47 299.04,-65.8 308.78,-61.63 304.05,-56.47"/>
</a>
</g>
</g>
<!-- Node7 -->
<g id="Node000007" class="node">
<title>Node7</title>
<g id="a_Node000007"><a xlink:href="TurnState_8cpp.html" target="_top" xlink:title=" ">
<polygon fill="white" stroke="#666666" points="647,-30 544,-30 544,0 647,0 647,-30"/>
<text text-anchor="start" x="552" y="-18" font-family="Helvetica,sans-Serif" font-size="10.00">src/controller/states</text>
<text text-anchor="middle" x="595.5" y="-7" font-family="Helvetica,sans-Serif" font-size="10.00">/TurnState.cpp</text>
</a>
</g>
</g>
<!-- Node2&#45;&gt;Node7 -->
<g id="edge6_Node000002_Node000007" class="edge">
<title>Node2&#45;&gt;Node7</title>
<g id="a_edge6_Node000002_Node000007"><a xlink:title=" ">
<path fill="none" stroke="#63b8ff" d="M346.82,-67.91C397.63,-58.09 470.76,-43.66 534.5,-30 537.58,-29.34 540.75,-28.65 543.94,-27.94"/>
<polygon fill="#63b8ff" stroke="#63b8ff" points="346.12,-64.48 336.96,-69.82 347.45,-71.36 346.12,-64.48"/>
</a>
</g>
</g>
<!-- Node9&#45;&gt;Node10 -->
<g id="edge9_Node000009_Node000010" class="edge">
<title>Node9&#45;&gt;Node10</title>
<g id="a_edge9_Node000009_Node000010"><a xlink:title=" ">
<path fill="none" stroke="#63b8ff" d="M446.9,-253.83C448.12,-245.17 449.45,-235.7 450.51,-228.16"/>
<polygon fill="#63b8ff" stroke="#63b8ff" points="443.42,-253.41 445.5,-263.8 450.36,-254.38 443.42,-253.41"/>
</a>
</g>
</g>
<!-- Node10&#45;&gt;Node5 -->
<g id="edge13_Node000010_Node000005" class="edge">
<title>Node10&#45;&gt;Node5</title>
<g id="a_edge13_Node000010_Node000005"><a xlink:title=" ">
<path fill="none" stroke="#63b8ff" d="M455.21,-187.89C459.84,-146.58 469.17,-63.48 472.9,-30.23"/>
<polygon fill="#63b8ff" stroke="#63b8ff" points="451.72,-187.58 454.08,-197.9 458.68,-188.36 451.72,-187.58"/>
</a>
</g>
</g>
<!-- Node11 -->
<g id="Node000011" class="node">
<title>Node11</title>
<g id="a_Node000011"><a xlink:href="StartState_8hpp.html" target="_top" xlink:title=" ">
<polygon fill="white" stroke="#666666" points="411,-162 318,-162 318,-132 411,-132 411,-162"/>
<text text-anchor="start" x="326" y="-150" font-family="Helvetica,sans-Serif" font-size="10.00">include/utils/state</text>
<text text-anchor="middle" x="364.5" y="-139" font-family="Helvetica,sans-Serif" font-size="10.00">/StartState.hpp</text>
</a>
</g>
</g>
<!-- Node10&#45;&gt;Node11 -->
<g id="edge10_Node000010_Node000011" class="edge">
<title>Node10&#45;&gt;Node11</title>
<g id="a_edge10_Node000010_Node000011"><a xlink:title=" ">
<path fill="none" stroke="#63b8ff" d="M424.66,-191.75C411.43,-182.13 395.93,-170.86 383.98,-162.16"/>
<polygon fill="#63b8ff" stroke="#63b8ff" points="422.82,-194.75 432.97,-197.8 426.94,-189.08 422.82,-194.75"/>
</a>
</g>
</g>
<!-- Node11&#45;&gt;Node2 -->
<g id="edge11_Node000011_Node000002" class="edge">
<title>Node11&#45;&gt;Node2</title>
<g id="a_edge11_Node000011_Node000002"><a xlink:title=" ">
<path fill="none" stroke="#63b8ff" d="M338.53,-125.48C326.42,-115.91 312.32,-104.77 301.43,-96.16"/>
<polygon fill="#63b8ff" stroke="#63b8ff" points="336.51,-128.34 346.52,-131.8 340.85,-122.85 336.51,-128.34"/>
</a>
</g>
</g>
<!-- Node11&#45;&gt;Node6 -->
<g id="edge12_Node000011_Node000006" class="edge">
<title>Node11&#45;&gt;Node6</title>
<g id="a_edge12_Node000011_Node000006"><a xlink:title=" ">
<path fill="none" stroke="#63b8ff" d="M362.44,-121.68C360.16,-94.7 356.56,-52.11 354.7,-30.14"/>
<polygon fill="#63b8ff" stroke="#63b8ff" points="358.97,-122.17 363.3,-131.84 365.95,-121.58 358.97,-122.17"/>
</a>
</g>
</g>
<!-- Node12&#45;&gt;Node5 -->
<g id="edge16_Node000012_Node000005" class="edge">
<title>Node12&#45;&gt;Node5</title>
<g id="a_edge16_Node000012_Node000005"><a xlink:title=" ">
<path fill="none" stroke="#63b8ff" d="M530.21,-59.48C517.95,-49.91 503.68,-38.77 492.65,-30.16"/>
<polygon fill="#63b8ff" stroke="#63b8ff" points="528.26,-62.4 538.3,-65.8 532.57,-56.88 528.26,-62.4"/>
</a>
</g>
</g>
<!-- Node12&#45;&gt;Node7 -->
<g id="edge17_Node000012_Node000007" class="edge">
<title>Node12&#45;&gt;Node7</title>
<g id="a_edge17_Node000012_Node000007"><a xlink:title=" ">
<path fill="none" stroke="#63b8ff" d="M570.37,-57.24C575.87,-48.21 582.03,-38.11 586.87,-30.16"/>
<polygon fill="#63b8ff" stroke="#63b8ff" points="567.37,-55.44 565.16,-65.8 573.35,-59.08 567.37,-55.44"/>
</a>
</g>
</g>
</g>
</svg>
