<?xml version="1.0" encoding="UTF-8" standalone="no"?>
<!DOCTYPE svg PUBLIC "-//W3C//DTD SVG 1.1//EN"
 "http://www.w3.org/Graphics/SVG/1.1/DTD/svg11.dtd">
<!-- Generated by graphviz version 2.43.0 (0)
 -->
<!-- Title: Graphical Class Hierarchy Pages: 1 -->
<svg width="404pt" height="101pt"
 viewBox="0.00 0.00 404.00 101.00" xmlns="http://www.w3.org/2000/svg" xmlns:xlink="http://www.w3.org/1999/xlink">
<g id="graph0" class="graph" transform="scale(1 1) rotate(0) translate(4 97)">
<title>Graphical Class Hierarchy</title>
<!-- Node0 -->
<g id="Node000000" class="node">
<title>Node0</title>
<g id="a_Node000000"><a xlink:href="classmonopoly_1_1Square.html" target="_top" xlink:title="Base class for all squares on the Monopoly board.">
<polygon fill="white" stroke="#666666" points="95,-37 0,-37 0,-18 95,-18 95,-37"/>
<text text-anchor="middle" x="47.5" y="-25" font-family="Helvetica,sans-Serif" font-size="10.00">monopoly::Square</text>
</a>
</g>
</g>
<!-- Node1 -->
<g id="Node000001" class="node">
<title>Node1</title>
<g id="a_Node000001"><a xlink:href="classmonopoly_1_1Property.html" target="_top" xlink:title="Base class for all purchasable properties in Monopoly.">
<polygon fill="white" stroke="#666666" points="245.5,-56 144.5,-56 144.5,-37 245.5,-37 245.5,-56"/>
<text text-anchor="middle" x="195" y="-44" font-family="Helvetica,sans-Serif" font-size="10.00">monopoly::Property</text>
</a>
</g>
</g>
<!-- Node0&#45;&gt;Node1 -->
<g id="edge4_Node000000_Node000001" class="edge">
<title>Node0&#45;&gt;Node1</title>
<g id="a_edge4_Node000000_Node000001"><a xlink:title=" ">
<path fill="none" stroke="#63b8ff" d="M105.49,-34.94C118.37,-36.62 131.95,-38.4 144.49,-40.03"/>
<polygon fill="#63b8ff" stroke="#63b8ff" points="105.71,-31.44 95.34,-33.62 104.8,-38.38 105.71,-31.44"/>
</a>
</g>
</g>
<!-- Node5 -->
<g id="Node000005" class="node">
<title>Node5</title>
<g id="a_Node000005"><a xlink:href="classmonopoly_1_1SpecialSquare.html" target="_top" xlink:title="Represents special squares on the Monopoly board that trigger specific actions.">
<polygon fill="white" stroke="#666666" points="259,-19 131,-19 131,0 259,0 259,-19"/>
<text text-anchor="middle" x="195" y="-7" font-family="Helvetica,sans-Serif" font-size="10.00">monopoly::SpecialSquare</text>
</a>
</g>
</g>
<!-- Node0&#45;&gt;Node5 -->
<g id="edge8_Node000000_Node000005" class="edge">
<title>Node0&#45;&gt;Node5</title>
<g id="a_edge8_Node000000_Node000005"><a xlink:title=" ">
<path fill="none" stroke="#63b8ff" d="M105.34,-20.47C113.69,-19.43 122.34,-18.37 130.8,-17.32"/>
<polygon fill="#63b8ff" stroke="#63b8ff" points="104.83,-17 95.34,-21.71 105.69,-23.95 104.83,-17"/>
</a>
</g>
</g>
<!-- Node2 -->
<g id="Node000002" class="node">
<title>Node2</title>
<g id="a_Node000002"><a xlink:href="classmonopoly_1_1Railroad.html" target="_top" xlink:title="Represents a railroad property in Monopoly.">
<polygon fill="white" stroke="#666666" points="396,-93 295,-93 295,-74 396,-74 396,-93"/>
<text text-anchor="middle" x="345.5" y="-81" font-family="Helvetica,sans-Serif" font-size="10.00">monopoly::Railroad</text>
</a>
</g>
</g>
<!-- Node1&#45;&gt;Node2 -->
<g id="edge5_Node000001_Node000002" class="edge">
<title>Node1&#45;&gt;Node2</title>
<g id="a_edge5_Node000001_Node000002"><a xlink:title=" ">
<path fill="none" stroke="#63b8ff" d="M244.14,-58.49C264.22,-63.5 287.22,-69.23 306.13,-73.94"/>
<polygon fill="#63b8ff" stroke="#63b8ff" points="244.79,-55.05 234.24,-56.03 243.1,-61.84 244.79,-55.05"/>
</a>
</g>
</g>
<!-- Node3 -->
<g id="Node000003" class="node">
<title>Node3</title>
<g id="a_Node000003"><a xlink:href="classmonopoly_1_1Street.html" target="_top" xlink:title="Represents a street property in Monopoly.">
<polygon fill="white" stroke="#666666" points="391,-56 300,-56 300,-37 391,-37 391,-56"/>
<text text-anchor="middle" x="345.5" y="-44" font-family="Helvetica,sans-Serif" font-size="10.00">monopoly::Street</text>
</a>
</g>
</g>
<!-- Node1&#45;&gt;Node3 -->
<g id="edge6_Node000001_Node000003" class="edge">
<title>Node1&#45;&gt;Node3</title>
<g id="a_edge6_Node000001_Node000003"><a xlink:title=" ">
<path fill="none" stroke="#63b8ff" d="M256.23,-46.5C270.69,-46.5 285.89,-46.5 299.52,-46.5"/>
<polygon fill="#63b8ff" stroke="#63b8ff" points="255.86,-43 245.86,-46.5 255.86,-50 255.86,-43"/>
</a>
</g>
</g>
<!-- Node4 -->
<g id="Node000004" class="node">
<title>Node4</title>
<g id="a_Node000004"><a xlink:href="classmonopoly_1_1Utility.html" target="_top" xlink:title="Represents a utility property (Electric Company or Water Works) in Monopoly.">
<polygon fill="white" stroke="#666666" points="390.5,-19 300.5,-19 300.5,0 390.5,0 390.5,-19"/>
<text text-anchor="middle" x="345.5" y="-7" font-family="Helvetica,sans-Serif" font-size="10.00">monopoly::Utility</text>
</a>
</g>
</g>
<!-- Node1&#45;&gt;Node4 -->
<g id="edge7_Node000001_Node000004" class="edge">
<title>Node1&#45;&gt;Node4</title>
<g id="a_edge7_Node000001_Node000004"><a xlink:title=" ">
<path fill="none" stroke="#63b8ff" d="M244.14,-34.51C264.22,-29.5 287.22,-23.77 306.13,-19.06"/>
<polygon fill="#63b8ff" stroke="#63b8ff" points="243.1,-31.16 234.24,-36.97 244.79,-37.95 243.1,-31.16"/>
</a>
</g>
</g>
</g>
</svg>
