<?xml version="1.0" encoding="UTF-8" standalone="no"?>
<!DOCTYPE svg PUBLIC "-//W3C//DTD SVG 1.1//EN"
 "http://www.w3.org/Graphics/SVG/1.1/DTD/svg11.dtd">
<!-- Generated by graphviz version 2.43.0 (0)
 -->
<!-- Title: Graphical Class Hierarchy Pages: 1 -->
<svg width="407pt" height="508pt"
 viewBox="0.00 0.00 407.00 508.00" xmlns="http://www.w3.org/2000/svg" xmlns:xlink="http://www.w3.org/1999/xlink">
<g id="graph0" class="graph" transform="scale(1 1) rotate(0) translate(4 504)">
<title>Graphical Class Hierarchy</title>
<!-- Node0 -->
<g id="Node000000" class="node">
<title>Node0</title>
<g id="a_Node000000"><a xlink:href="classSFComponent.html" target="_top" xlink:title=" ">
<polygon fill="white" stroke="#666666" points="80,-130 0,-130 0,-111 80,-111 80,-130"/>
<text text-anchor="middle" x="40" y="-118" font-family="Helvetica,sans-Serif" font-size="10.00">SFComponent</text>
</a>
</g>
</g>
<!-- Node1 -->
<g id="Node000001" class="node">
<title>Node1</title>
<g id="a_Node000001"><a xlink:href="classBoardSquareComponent.html" target="_top" xlink:title=" ">
<polygon fill="white" stroke="#666666" points="239,-296 116,-296 116,-277 239,-277 239,-296"/>
<text text-anchor="middle" x="177.5" y="-284" font-family="Helvetica,sans-Serif" font-size="10.00">BoardSquareComponent</text>
</a>
</g>
</g>
<!-- Node0&#45;&gt;Node1 -->
<g id="edge9_Node000000_Node000001" class="edge">
<title>Node0&#45;&gt;Node1</title>
<g id="a_edge9_Node000000_Node000001"><a xlink:title=" ">
<path fill="none" stroke="#63b8ff" d="M55.55,-138.33C84.11,-173.32 146.63,-249.91 168.64,-276.87"/>
<polygon fill="#63b8ff" stroke="#63b8ff" points="58.11,-135.92 49.07,-130.39 52.68,-140.35 58.11,-135.92"/>
</a>
</g>
</g>
<!-- Node13 -->
<g id="Node000013" class="node">
<title>Node13</title>
<g id="a_Node000013"><a xlink:href="classButton.html" target="_top" xlink:title=" ">
<polygon fill="white" stroke="#666666" points="200,-186 155,-186 155,-167 200,-167 200,-186"/>
<text text-anchor="middle" x="177.5" y="-174" font-family="Helvetica,sans-Serif" font-size="10.00">Button</text>
</a>
</g>
</g>
<!-- Node0&#45;&gt;Node13 -->
<g id="edge21_Node000000_Node000013" class="edge">
<title>Node0&#45;&gt;Node13</title>
<g id="a_edge21_Node000000_Node000013"><a xlink:title=" ">
<path fill="none" stroke="#63b8ff" d="M67.02,-135.14C81.21,-142.75 99.25,-151.83 116,-158.5 128.62,-163.53 143.21,-167.91 154.9,-171.09"/>
<polygon fill="#63b8ff" stroke="#63b8ff" points="68.33,-131.87 57.87,-130.15 64.98,-138.01 68.33,-131.87"/>
</a>
</g>
</g>
<!-- Node14 -->
<g id="Node000014" class="node">
<title>Node14</title>
<g id="a_Node000014"><a xlink:href="classMonopolyBoard.html" target="_top" xlink:title=" ">
<polygon fill="white" stroke="#666666" points="219.5,-149 135.5,-149 135.5,-130 219.5,-130 219.5,-149"/>
<text text-anchor="middle" x="177.5" y="-137" font-family="Helvetica,sans-Serif" font-size="10.00">MonopolyBoard</text>
</a>
</g>
</g>
<!-- Node0&#45;&gt;Node14 -->
<g id="edge22_Node000000_Node000014" class="edge">
<title>Node0&#45;&gt;Node14</title>
<g id="a_edge22_Node000000_Node000014"><a xlink:title=" ">
<path fill="none" stroke="#63b8ff" d="M90.14,-127.39C104.87,-129.46 120.86,-131.7 135.03,-133.69"/>
<polygon fill="#63b8ff" stroke="#63b8ff" points="90.58,-123.92 80.19,-126 89.61,-130.85 90.58,-123.92"/>
</a>
</g>
</g>
<!-- Node15 -->
<g id="Node000015" class="node">
<title>Node15</title>
<g id="a_Node000015"><a xlink:href="classPlayerTokenComponent.html" target="_top" xlink:title=" ">
<polygon fill="white" stroke="#666666" points="238,-112 117,-112 117,-93 238,-93 238,-112"/>
<text text-anchor="middle" x="177.5" y="-100" font-family="Helvetica,sans-Serif" font-size="10.00">PlayerTokenComponent</text>
</a>
</g>
</g>
<!-- Node0&#45;&gt;Node15 -->
<g id="edge23_Node000000_Node000015" class="edge">
<title>Node0&#45;&gt;Node15</title>
<g id="a_edge23_Node000000_Node000015"><a xlink:title=" ">
<path fill="none" stroke="#63b8ff" d="M90.17,-113.97C98.87,-112.81 108.02,-111.6 116.97,-110.41"/>
<polygon fill="#63b8ff" stroke="#63b8ff" points="89.64,-110.51 80.19,-115.29 90.57,-117.45 89.64,-110.51"/>
</a>
</g>
</g>
<!-- Node16 -->
<g id="Node000016" class="node">
<title>Node16</title>
<g id="a_Node000016"><a xlink:href="classSFComposite.html" target="_top" xlink:title=" ">
<polygon fill="white" stroke="#666666" points="216,-75 139,-75 139,-56 216,-56 216,-75"/>
<text text-anchor="middle" x="177.5" y="-63" font-family="Helvetica,sans-Serif" font-size="10.00">SFComposite</text>
</a>
</g>
</g>
<!-- Node0&#45;&gt;Node16 -->
<g id="edge24_Node000000_Node000016" class="edge">
<title>Node0&#45;&gt;Node16</title>
<g id="a_edge24_Node000000_Node000016"><a xlink:title=" ">
<path fill="none" stroke="#63b8ff" d="M68.27,-106.25C82.32,-99.21 99.84,-90.88 116,-84.5 124.7,-81.06 134.3,-77.82 143.23,-75.01"/>
<polygon fill="#63b8ff" stroke="#63b8ff" points="66.5,-103.22 59.17,-110.87 69.67,-109.46 66.5,-103.22"/>
</a>
</g>
</g>
<!-- Node20 -->
<g id="Node000020" class="node">
<title>Node20</title>
<g id="a_Node000020"><a xlink:href="classmonopoly_1_1UserView.html" target="_top" xlink:title=" ">
<polygon fill="white" stroke="#666666" points="231,-38 124,-38 124,-19 231,-19 231,-38"/>
<text text-anchor="middle" x="177.5" y="-26" font-family="Helvetica,sans-Serif" font-size="10.00">monopoly::UserView</text>
</a>
</g>
</g>
<!-- Node0&#45;&gt;Node20 -->
<g id="edge28_Node000000_Node000020" class="edge">
<title>Node0&#45;&gt;Node20</title>
<g id="a_edge28_Node000000_Node000020"><a xlink:title=" ">
<path fill="none" stroke="#63b8ff" d="M54.62,-103.19C68.44,-86.69 91.29,-62.25 116,-47.5 122.33,-43.72 129.5,-40.62 136.62,-38.1"/>
<polygon fill="#63b8ff" stroke="#63b8ff" points="51.86,-101.03 48.25,-111 57.28,-105.46 51.86,-101.03"/>
</a>
</g>
</g>
<!-- Node2 -->
<g id="Node000002" class="node">
<title>Node2</title>
<g id="a_Node000002"><a xlink:href="classChanceSquare.html" target="_top" xlink:title=" ">
<polygon fill="white" stroke="#666666" points="377.5,-500 296.5,-500 296.5,-481 377.5,-481 377.5,-500"/>
<text text-anchor="middle" x="337" y="-488" font-family="Helvetica,sans-Serif" font-size="10.00">ChanceSquare</text>
</a>
</g>
</g>
<!-- Node1&#45;&gt;Node2 -->
<g id="edge10_Node000001_Node000002" class="edge">
<title>Node1&#45;&gt;Node2</title>
<g id="a_edge10_Node000001_Node000002"><a xlink:title=" ">
<path fill="none" stroke="#63b8ff" d="M183.18,-306.12C193.25,-344.05 220.59,-427.63 275,-472.5 281.13,-477.56 288.64,-481.19 296.27,-483.81"/>
<polygon fill="#63b8ff" stroke="#63b8ff" points="186.54,-305.14 180.69,-296.31 179.76,-306.86 186.54,-305.14"/>
</a>
</g>
</g>
<!-- Node3 -->
<g id="Node000003" class="node">
<title>Node3</title>
<g id="a_Node000003"><a xlink:href="classCommunityChestSquare.html" target="_top" xlink:title=" ">
<polygon fill="white" stroke="#666666" points="399,-463 275,-463 275,-444 399,-444 399,-463"/>
<text text-anchor="middle" x="337" y="-451" font-family="Helvetica,sans-Serif" font-size="10.00">CommunityChestSquare</text>
</a>
</g>
</g>
<!-- Node1&#45;&gt;Node3 -->
<g id="edge11_Node000001_Node000003" class="edge">
<title>Node1&#45;&gt;Node3</title>
<g id="a_edge11_Node000001_Node000003"><a xlink:title=" ">
<path fill="none" stroke="#63b8ff" d="M185.71,-305.69C198.66,-337.49 228.86,-401.04 275,-435.5 279.6,-438.94 284.85,-441.72 290.29,-443.97"/>
<polygon fill="#63b8ff" stroke="#63b8ff" points="188.9,-304.23 181.99,-296.2 182.39,-306.79 188.9,-304.23"/>
</a>
</g>
</g>
<!-- Node4 -->
<g id="Node000004" class="node">
<title>Node4</title>
<g id="a_Node000004"><a xlink:href="classCornerSquare.html" target="_top" xlink:title=" ">
<polygon fill="white" stroke="#666666" points="375.5,-426 298.5,-426 298.5,-407 375.5,-407 375.5,-426"/>
<text text-anchor="middle" x="337" y="-414" font-family="Helvetica,sans-Serif" font-size="10.00">CornerSquare</text>
</a>
</g>
</g>
<!-- Node1&#45;&gt;Node4 -->
<g id="edge12_Node000001_Node000004" class="edge">
<title>Node1&#45;&gt;Node4</title>
<g id="a_edge12_Node000001_Node000004"><a xlink:title=" ">
<path fill="none" stroke="#63b8ff" d="M189.61,-305.06C205.47,-329.97 236.93,-373.92 275,-398.5 282.05,-403.05 290.29,-406.49 298.39,-409.07"/>
<polygon fill="#63b8ff" stroke="#63b8ff" points="192.39,-302.89 184.14,-296.24 186.44,-306.58 192.39,-302.89"/>
</a>
</g>
</g>
<!-- Node5 -->
<g id="Node000005" class="node">
<title>Node5</title>
<g id="a_Node000005"><a xlink:href="classFreeParkingSquare.html" target="_top" xlink:title=" ">
<polygon fill="white" stroke="#666666" points="387,-389 287,-389 287,-370 387,-370 387,-389"/>
<text text-anchor="middle" x="337" y="-377" font-family="Helvetica,sans-Serif" font-size="10.00">FreeParkingSquare</text>
</a>
</g>
</g>
<!-- Node1&#45;&gt;Node5 -->
<g id="edge13_Node000001_Node000005" class="edge">
<title>Node1&#45;&gt;Node5</title>
<g id="a_edge13_Node000001_Node000005"><a xlink:title=" ">
<path fill="none" stroke="#63b8ff" d="M195.84,-303.29C214.16,-320.17 244.55,-345.88 275,-361.5 281.48,-364.83 288.68,-367.63 295.79,-369.97"/>
<polygon fill="#63b8ff" stroke="#63b8ff" points="198.01,-300.51 188.32,-296.22 193.21,-305.62 198.01,-300.51"/>
</a>
</g>
</g>
<!-- Node6 -->
<g id="Node000006" class="node">
<title>Node6</title>
<g id="a_Node000006"><a xlink:href="classGoSquare.html" target="_top" xlink:title=" ">
<polygon fill="white" stroke="#666666" points="367,-352 307,-352 307,-333 367,-333 367,-352"/>
<text text-anchor="middle" x="337" y="-340" font-family="Helvetica,sans-Serif" font-size="10.00">GoSquare</text>
</a>
</g>
</g>
<!-- Node1&#45;&gt;Node6 -->
<g id="edge14_Node000001_Node000006" class="edge">
<title>Node1&#45;&gt;Node6</title>
<g id="a_edge14_Node000001_Node000006"><a xlink:title=" ">
<path fill="none" stroke="#63b8ff" d="M210.78,-300.03C229.4,-307.64 253.35,-317.06 275,-324.5 285.34,-328.05 296.8,-331.55 306.98,-334.5"/>
<polygon fill="#63b8ff" stroke="#63b8ff" points="211.88,-296.7 201.3,-296.13 209.21,-303.18 211.88,-296.7"/>
</a>
</g>
</g>
<!-- Node7 -->
<g id="Node000007" class="node">
<title>Node7</title>
<g id="a_Node000007"><a xlink:href="classGoToJailSquare.html" target="_top" xlink:title=" ">
<polygon fill="white" stroke="#666666" points="380,-315 294,-315 294,-296 380,-296 380,-315"/>
<text text-anchor="middle" x="337" y="-303" font-family="Helvetica,sans-Serif" font-size="10.00">GoToJailSquare</text>
</a>
</g>
</g>
<!-- Node1&#45;&gt;Node7 -->
<g id="edge15_Node000001_Node000007" class="edge">
<title>Node1&#45;&gt;Node7</title>
<g id="a_edge15_Node000001_Node000007"><a xlink:title=" ">
<path fill="none" stroke="#63b8ff" d="M249.73,-295.09C264.79,-296.91 280.22,-298.77 293.79,-300.41"/>
<polygon fill="#63b8ff" stroke="#63b8ff" points="249.74,-291.57 239.39,-293.85 248.9,-298.52 249.74,-291.57"/>
</a>
</g>
</g>
<!-- Node8 -->
<g id="Node000008" class="node">
<title>Node8</title>
<g id="a_Node000008"><a xlink:href="classIncomeTaxSquare.html" target="_top" xlink:title=" ">
<polygon fill="white" stroke="#666666" points="384.5,-278 289.5,-278 289.5,-259 384.5,-259 384.5,-278"/>
<text text-anchor="middle" x="337" y="-266" font-family="Helvetica,sans-Serif" font-size="10.00">IncomeTaxSquare</text>
</a>
</g>
</g>
<!-- Node1&#45;&gt;Node8 -->
<g id="edge16_Node000001_Node000008" class="edge">
<title>Node1&#45;&gt;Node8</title>
<g id="a_edge16_Node000001_Node000008"><a xlink:title=" ">
<path fill="none" stroke="#63b8ff" d="M249.63,-278.37C263.14,-276.83 276.94,-275.25 289.44,-273.82"/>
<polygon fill="#63b8ff" stroke="#63b8ff" points="248.93,-274.93 239.39,-279.54 249.73,-281.88 248.93,-274.93"/>
</a>
</g>
</g>
<!-- Node9 -->
<g id="Node000009" class="node">
<title>Node9</title>
<g id="a_Node000009"><a xlink:href="classJailSquare.html" target="_top" xlink:title=" ">
<polygon fill="white" stroke="#666666" points="368,-241 306,-241 306,-222 368,-222 368,-241"/>
<text text-anchor="middle" x="337" y="-229" font-family="Helvetica,sans-Serif" font-size="10.00">JailSquare</text>
</a>
</g>
</g>
<!-- Node1&#45;&gt;Node9 -->
<g id="edge17_Node000001_Node000009" class="edge">
<title>Node1&#45;&gt;Node9</title>
<g id="a_edge17_Node000001_Node000009"><a xlink:title=" ">
<path fill="none" stroke="#63b8ff" d="M212.39,-273.34C230.81,-266.31 254.06,-257.66 275,-250.5 284.97,-247.09 295.94,-243.59 305.8,-240.55"/>
<polygon fill="#63b8ff" stroke="#63b8ff" points="211.04,-270.1 202.96,-276.95 213.55,-276.64 211.04,-270.1"/>
</a>
</g>
</g>
<!-- Node10 -->
<g id="Node000010" class="node">
<title>Node10</title>
<g id="a_Node000010"><a xlink:href="classRailroadSquare.html" target="_top" xlink:title=" ">
<polygon fill="white" stroke="#666666" points="378.5,-204 295.5,-204 295.5,-185 378.5,-185 378.5,-204"/>
<text text-anchor="middle" x="337" y="-192" font-family="Helvetica,sans-Serif" font-size="10.00">RailroadSquare</text>
</a>
</g>
</g>
<!-- Node1&#45;&gt;Node10 -->
<g id="edge18_Node000001_Node000010" class="edge">
<title>Node1&#45;&gt;Node10</title>
<g id="a_edge18_Node000001_Node000010"><a xlink:title=" ">
<path fill="none" stroke="#63b8ff" d="M196.27,-270.02C214.72,-253.67 245.03,-228.91 275,-213.5 282.2,-209.8 290.26,-206.66 298.09,-204.07"/>
<polygon fill="#63b8ff" stroke="#63b8ff" points="193.76,-267.57 188.67,-276.87 198.45,-272.77 193.76,-267.57"/>
</a>
</g>
</g>
<!-- Node11 -->
<g id="Node000011" class="node">
<title>Node11</title>
<g id="a_Node000011"><a xlink:href="classStreetSquare.html" target="_top" xlink:title=" ">
<polygon fill="white" stroke="#666666" points="374,-167 300,-167 300,-148 374,-148 374,-167"/>
<text text-anchor="middle" x="337" y="-155" font-family="Helvetica,sans-Serif" font-size="10.00">StreetSquare</text>
</a>
</g>
</g>
<!-- Node1&#45;&gt;Node11 -->
<g id="edge19_Node000001_Node000011" class="edge">
<title>Node1&#45;&gt;Node11</title>
<g id="a_edge19_Node000001_Node000011"><a xlink:title=" ">
<path fill="none" stroke="#63b8ff" d="M189.74,-268.36C205.76,-243.99 237.39,-200.94 275,-176.5 282.44,-171.66 291.19,-168 299.7,-165.24"/>
<polygon fill="#63b8ff" stroke="#63b8ff" points="186.66,-266.68 184.22,-276.99 192.56,-270.45 186.66,-266.68"/>
</a>
</g>
</g>
<!-- Node12 -->
<g id="Node000012" class="node">
<title>Node12</title>
<g id="a_Node000012"><a xlink:href="classUtilitySquare.html" target="_top" xlink:title=" ">
<polygon fill="white" stroke="#666666" points="373.5,-130 300.5,-130 300.5,-111 373.5,-111 373.5,-130"/>
<text text-anchor="middle" x="337" y="-118" font-family="Helvetica,sans-Serif" font-size="10.00">UtilitySquare</text>
</a>
</g>
</g>
<!-- Node1&#45;&gt;Node12 -->
<g id="edge20_Node000001_Node000012" class="edge">
<title>Node1&#45;&gt;Node12</title>
<g id="a_edge20_Node000001_Node000012"><a xlink:title=" ">
<path fill="none" stroke="#63b8ff" d="M190.61,-268.46C202.89,-250.14 222.38,-220.92 239,-195.5 255.19,-170.74 251.46,-157.42 275,-139.5 282.41,-133.86 291.53,-129.87 300.43,-127.06"/>
<polygon fill="#63b8ff" stroke="#63b8ff" points="187.57,-266.71 184.91,-276.97 193.38,-270.61 187.57,-266.71"/>
</a>
</g>
</g>
<!-- Node17 -->
<g id="Node000017" class="node">
<title>Node17</title>
<g id="a_Node000017"><a xlink:href="classBoardSquareComposite.html" target="_top" xlink:title=" ">
<polygon fill="white" stroke="#666666" points="397,-93 277,-93 277,-74 397,-74 397,-93"/>
<text text-anchor="middle" x="337" y="-81" font-family="Helvetica,sans-Serif" font-size="10.00">BoardSquareComposite</text>
</a>
</g>
</g>
<!-- Node16&#45;&gt;Node17 -->
<g id="edge25_Node000016_Node000017" class="edge">
<title>Node16&#45;&gt;Node17</title>
<g id="a_edge25_Node000016_Node000017"><a xlink:title=" ">
<path fill="none" stroke="#63b8ff" d="M226.34,-70.97C242.23,-72.78 260.11,-74.83 276.75,-76.73"/>
<polygon fill="#63b8ff" stroke="#63b8ff" points="226.56,-67.47 216.23,-69.81 225.76,-74.42 226.56,-67.47"/>
</a>
</g>
</g>
<!-- Node18 -->
<g id="Node000018" class="node">
<title>Node18</title>
<g id="a_Node000018"><a xlink:href="classWindow.html" target="_top" xlink:title=" ">
<polygon fill="white" stroke="#666666" points="363,-56 311,-56 311,-37 363,-37 363,-56"/>
<text text-anchor="middle" x="337" y="-44" font-family="Helvetica,sans-Serif" font-size="10.00">Window</text>
</a>
</g>
</g>
<!-- Node16&#45;&gt;Node18 -->
<g id="edge26_Node000016_Node000018" class="edge">
<title>Node16&#45;&gt;Node18</title>
<g id="a_edge26_Node000016_Node000018"><a xlink:title=" ">
<path fill="none" stroke="#63b8ff" d="M226.19,-59.75C254.07,-56.38 288.14,-52.27 310.87,-49.53"/>
<polygon fill="#63b8ff" stroke="#63b8ff" points="225.73,-56.28 216.23,-60.95 226.57,-63.23 225.73,-56.28"/>
</a>
</g>
</g>
<!-- Node19 -->
<g id="Node000019" class="node">
<title>Node19</title>
<g id="a_Node000019"><a xlink:href="classmonopoly_1_1BoardView.html" target="_top" xlink:title=" ">
<polygon fill="white" stroke="#666666" points="393,-19 281,-19 281,0 393,0 393,-19"/>
<text text-anchor="middle" x="337" y="-7" font-family="Helvetica,sans-Serif" font-size="10.00">monopoly::BoardView</text>
</a>
</g>
</g>
<!-- Node16&#45;&gt;Node19 -->
<g id="edge27_Node000016_Node000019" class="edge">
<title>Node16&#45;&gt;Node19</title>
<g id="a_edge27_Node000016_Node000019"><a xlink:title=" ">
<path fill="none" stroke="#63b8ff" d="M224.32,-52.91C229.32,-51.23 234.3,-49.42 239,-47.5 255.75,-40.67 258.29,-35.44 275,-28.5 283.4,-25.01 292.68,-21.81 301.41,-19.06"/>
<polygon fill="#63b8ff" stroke="#63b8ff" points="223.19,-49.6 214.73,-55.98 225.32,-56.27 223.19,-49.6"/>
</a>
</g>
</g>
</g>
</svg>
