<?xml version="1.0" encoding="UTF-8" standalone="no"?>
<!DOCTYPE svg PUBLIC "-//W3C//DTD SVG 1.1//EN"
 "http://www.w3.org/Graphics/SVG/1.1/DTD/svg11.dtd">
<!-- Generated by graphviz version 2.43.0 (0)
 -->
<!-- Title: Graphical Class Hierarchy Pages: 1 -->
<svg width="283pt" height="101pt"
 viewBox="0.00 0.00 283.00 101.00" xmlns="http://www.w3.org/2000/svg" xmlns:xlink="http://www.w3.org/1999/xlink">
<g id="graph0" class="graph" transform="scale(1 1) rotate(0) translate(4 97)">
<title>Graphical Class Hierarchy</title>
<!-- Node0 -->
<g id="Node000000" class="node">
<title>Node0</title>
<g id="a_Node000000"><a xlink:href="classmonopoly_1_1GameState.html" target="_top" xlink:title=" ">
<polygon fill="white" stroke="#666666" points="114,-56 0,-56 0,-37 114,-37 114,-56"/>
<text text-anchor="middle" x="57" y="-44" font-family="Helvetica,sans-Serif" font-size="10.00">monopoly::GameState</text>
</a>
</g>
</g>
<!-- Node1 -->
<g id="Node000001" class="node">
<title>Node1</title>
<g id="a_Node000001"><a xlink:href="classmonopoly_1_1RollDiceState.html" target="_top" xlink:title=" ">
<polygon fill="white" stroke="#666666" points="275,-93 150,-93 150,-74 275,-74 275,-93"/>
<text text-anchor="middle" x="212.5" y="-81" font-family="Helvetica,sans-Serif" font-size="10.00">monopoly::RollDiceState</text>
</a>
</g>
</g>
<!-- Node0&#45;&gt;Node1 -->
<g id="edge1_Node000000_Node000001" class="edge">
<title>Node0&#45;&gt;Node1</title>
<g id="a_edge1_Node000000_Node000001"><a xlink:title=" ">
<path fill="none" stroke="#63b8ff" d="M107.47,-58.43C128.3,-63.44 152.2,-69.21 171.84,-73.94"/>
<polygon fill="#63b8ff" stroke="#63b8ff" points="108.07,-54.97 97.53,-56.03 106.43,-61.77 108.07,-54.97"/>
</a>
</g>
</g>
<!-- Node2 -->
<g id="Node000002" class="node">
<title>Node2</title>
<g id="a_Node000002"><a xlink:href="classmonopoly_1_1StartState.html" target="_top" xlink:title=" ">
<polygon fill="white" stroke="#666666" points="267,-56 158,-56 158,-37 267,-37 267,-56"/>
<text text-anchor="middle" x="212.5" y="-44" font-family="Helvetica,sans-Serif" font-size="10.00">monopoly::StartState</text>
</a>
</g>
</g>
<!-- Node0&#45;&gt;Node2 -->
<g id="edge2_Node000000_Node000002" class="edge">
<title>Node0&#45;&gt;Node2</title>
<g id="a_edge2_Node000000_Node000002"><a xlink:title=" ">
<path fill="none" stroke="#63b8ff" d="M124.41,-46.5C135.56,-46.5 147,-46.5 157.78,-46.5"/>
<polygon fill="#63b8ff" stroke="#63b8ff" points="124.29,-43 114.29,-46.5 124.29,-50 124.29,-43"/>
</a>
</g>
</g>
<!-- Node3 -->
<g id="Node000003" class="node">
<title>Node3</title>
<g id="a_Node000003"><a xlink:href="classmonopoly_1_1TurnState.html" target="_top" xlink:title=" ">
<polygon fill="white" stroke="#666666" points="266,-19 159,-19 159,0 266,0 266,-19"/>
<text text-anchor="middle" x="212.5" y="-7" font-family="Helvetica,sans-Serif" font-size="10.00">monopoly::TurnState</text>
</a>
</g>
</g>
<!-- Node0&#45;&gt;Node3 -->
<g id="edge3_Node000000_Node000003" class="edge">
<title>Node0&#45;&gt;Node3</title>
<g id="a_edge3_Node000000_Node000003"><a xlink:title=" ">
<path fill="none" stroke="#63b8ff" d="M107.47,-34.57C128.3,-29.56 152.2,-23.79 171.84,-19.06"/>
<polygon fill="#63b8ff" stroke="#63b8ff" points="106.43,-31.23 97.53,-36.97 108.07,-38.03 106.43,-31.23"/>
</a>
</g>
</g>
</g>
</svg>
