<?xml version="1.0" encoding="UTF-8" standalone="no"?>
<!DOCTYPE svg PUBLIC "-//W3C//DTD SVG 1.1//EN"
 "http://www.w3.org/Graphics/SVG/1.1/DTD/svg11.dtd">
<!-- Generated by graphviz version 2.43.0 (0)
 -->
<!-- Title: Graphical Class Hierarchy Pages: 1 -->
<svg width="281pt" height="101pt"
 viewBox="0.00 0.00 281.00 101.00" xmlns="http://www.w3.org/2000/svg" xmlns:xlink="http://www.w3.org/1999/xlink">
<g id="graph0" class="graph" transform="scale(1 1) rotate(0) translate(4 97)">
<title>Graphical Class Hierarchy</title>
<!-- Node0 -->
<g id="Node000000" class="node">
<title>Node0</title>
<g id="a_Node000000"><a xlink:href="classStrategyRentCalculator.html" target="_top" xlink:title=" ">
<polygon fill="white" stroke="#666666" points="119,-56 0,-56 0,-37 119,-37 119,-56"/>
<text text-anchor="middle" x="59.5" y="-44" font-family="Helvetica,sans-Serif" font-size="10.00">StrategyRentCalculator</text>
</a>
</g>
</g>
<!-- Node1 -->
<g id="Node000001" class="node">
<title>Node1</title>
<g id="a_Node000001"><a xlink:href="classRailroadRentCalculator.html" target="_top" xlink:title=" ">
<polygon fill="white" stroke="#666666" points="273,-93 155,-93 155,-74 273,-74 273,-93"/>
<text text-anchor="middle" x="214" y="-81" font-family="Helvetica,sans-Serif" font-size="10.00">RailroadRentCalculator</text>
</a>
</g>
</g>
<!-- Node0&#45;&gt;Node1 -->
<g id="edge29_Node000000_Node000001" class="edge">
<title>Node0&#45;&gt;Node1</title>
<g id="a_edge29_Node000000_Node000001"><a xlink:title=" ">
<path fill="none" stroke="#63b8ff" d="M109.65,-58.43C130.34,-63.44 154.09,-69.21 173.6,-73.94"/>
<polygon fill="#63b8ff" stroke="#63b8ff" points="110.32,-54.98 99.77,-56.03 108.67,-61.79 110.32,-54.98"/>
</a>
</g>
</g>
<!-- Node2 -->
<g id="Node000002" class="node">
<title>Node2</title>
<g id="a_Node000002"><a xlink:href="classStreetRentCalculator.html" target="_top" xlink:title=" ">
<polygon fill="white" stroke="#666666" points="268,-56 160,-56 160,-37 268,-37 268,-56"/>
<text text-anchor="middle" x="214" y="-44" font-family="Helvetica,sans-Serif" font-size="10.00">StreetRentCalculator</text>
</a>
</g>
</g>
<!-- Node0&#45;&gt;Node2 -->
<g id="edge30_Node000000_Node000002" class="edge">
<title>Node0&#45;&gt;Node2</title>
<g id="a_edge30_Node000000_Node000002"><a xlink:title=" ">
<path fill="none" stroke="#63b8ff" d="M129.22,-46.5C139.51,-46.5 149.98,-46.5 159.88,-46.5"/>
<polygon fill="#63b8ff" stroke="#63b8ff" points="129.02,-43 119.02,-46.5 129.02,-50 129.02,-43"/>
</a>
</g>
</g>
<!-- Node3 -->
<g id="Node000003" class="node">
<title>Node3</title>
<g id="a_Node000003"><a xlink:href="classUtilityRentCalculator.html" target="_top" xlink:title=" ">
<polygon fill="white" stroke="#666666" points="267.5,-19 160.5,-19 160.5,0 267.5,0 267.5,-19"/>
<text text-anchor="middle" x="214" y="-7" font-family="Helvetica,sans-Serif" font-size="10.00">UtilityRentCalculator</text>
</a>
</g>
</g>
<!-- Node0&#45;&gt;Node3 -->
<g id="edge31_Node000000_Node000003" class="edge">
<title>Node0&#45;&gt;Node3</title>
<g id="a_edge31_Node000000_Node000003"><a xlink:title=" ">
<path fill="none" stroke="#63b8ff" d="M109.65,-34.57C130.34,-29.56 154.09,-23.79 173.6,-19.06"/>
<polygon fill="#63b8ff" stroke="#63b8ff" points="108.67,-31.21 99.77,-36.97 110.32,-38.02 108.67,-31.21"/>
</a>
</g>
</g>
</g>
</svg>
