<?xml version="1.0" encoding="UTF-8" standalone="no"?>
<!DOCTYPE svg PUBLIC "-//W3C//DTD SVG 1.1//EN"
 "http://www.w3.org/Graphics/SVG/1.1/DTD/svg11.dtd">
<!-- Generated by graphviz version 2.43.0 (0)
 -->
<!-- Title: include/model/MonopolyRules.hpp Pages: 1 -->
<!--zoomable 324 -->

<svg id="main" version="1.1" xmlns="http://www.w3.org/2000/svg" xmlns:xlink="http://www.w3.org/1999/xlink" xml:space="preserve" onload="init(evt)">
<style type="text/css"><![CDATA[
.node, .edge {opacity: 0.7;}
.node.selected, .edge.selected {opacity: 1;}
.edge:hover path { stroke: red; }
.edge:hover polygon { stroke: red; fill: red; }
]]></style>

<defs>
  <circle id="rim" cx="0" cy="0" r="7"/>
  <circle id="rim2" cx="0" cy="0" r="3.5"/>
  <g id="zoomPlus">
    <use xlink:href="#rim" fill="#404040"><set attributeName="fill" to="#808080" begin="zoomplus.mouseover" end="zoomplus.mouseout"/></use>
    <path d="M-4,0h8M0,-4v8" fill="none" stroke="white" stroke-width="1.5" pointer-events="none"/>
  </g>
  <g id="zoomMin">
    <use xlink:href="#rim" fill="#404040"><set attributeName="fill" to="#808080" begin="zoomminus.mouseover" end="zoomminus.mouseout"/></use>
    <path d="M-4,0h8" fill="none" stroke="white" stroke-width="1.5" pointer-events="none"/>
  </g>
  <g id="arrowUp" transform="translate(30 24)">
    <use xlink:href="#rim"/>
    <path pointer-events="none" fill="none" stroke="white" stroke-width="1.5" d="M0,-3.0v7 M-2.5,-0.5L0,-3.0L2.5,-0.5"/>
  </g>
  <g id="arrowRight" transform="rotate(90) translate(36 -43)">
    <use xlink:href="#rim"/>
    <path pointer-events="none" fill="none" stroke="white" stroke-width="1.5" d="M0,-3.0v7 M-2.5,-0.5L0,-3.0L2.5,-0.5"/>
  </g>
  <g id="arrowDown" transform="rotate(180) translate(-30 -48)">
    <use xlink:href="#rim"/>
    <path pointer-events="none" fill="none" stroke="white" stroke-width="1.5" d="M0,-3.0v7 M-2.5,-0.5L0,-3.0L2.5,-0.5"/>
  </g>
  <g id="arrowLeft" transform="rotate(270) translate(-36 17)">
    <use xlink:href="#rim"/>
    <path pointer-events="none" fill="none" stroke="white" stroke-width="1.5" d="M0,-3.0v7 M-2.5,-0.5L0,-3.0L2.5,-0.5"/>
  </g>
  <g id="resetDef">
    <use xlink:href="#rim2" fill="#404040"><set attributeName="fill" to="#808080" begin="reset.mouseover" end="reset.mouseout"/></use>
  </g>
</defs>
<script type="application/ecmascript">
var viewWidth = 1130;
var viewHeight = 324;
var sectionId = 'dynsection-0';
</script>
<script type="application/ecmascript" xlink:href="svg.min.js"/>
<svg id="graph" class="graph">
<g id="viewport">
<title>include/model/MonopolyRules.hpp</title>
<!-- Node1 -->
<g id="Node000001" class="node">
<title>Node1</title>
<g id="a_Node000001"><a xlink:title=" ">
<polygon fill="#999999" stroke="#666666" points="493,-316 327,-316 327,-297 493,-297 493,-316"/>
<text text-anchor="middle" x="410" y="-304" font-family="Helvetica,sans-Serif" font-size="10.00">include/model/MonopolyRules.hpp</text>
</a>
</g>
</g>
<!-- Node2 -->
<g id="Node000002" class="node">
<title>Node2</title>
<g id="a_Node000002"><a xlink:title=" ">
<polygon fill="#e0e0e0" stroke="#999999" points="374,-206 330,-206 330,-187 374,-187 374,-206"/>
<text text-anchor="middle" x="352" y="-194" font-family="Helvetica,sans-Serif" font-size="10.00">vector</text>
</a>
</g>
</g>
<!-- Node1&#45;&gt;Node2 -->
<g id="edge1_Node000001_Node000002" class="edge">
<title>Node1&#45;&gt;Node2</title>
<g id="a_edge1_Node000001_Node000002"><a xlink:title=" ">
<path fill="none" stroke="#63b8ff" d="M405.25,-296.66C395.69,-278.85 373.95,-238.37 361.4,-215.01"/>
<polygon fill="#63b8ff" stroke="#63b8ff" points="364.46,-213.31 356.65,-206.16 358.3,-216.62 364.46,-213.31"/>
</a>
</g>
</g>
<!-- Node3 -->
<g id="Node000003" class="node">
<title>Node3</title>
<g id="a_Node000003"><a xlink:title=" ">
<polygon fill="#e0e0e0" stroke="#999999" points="554,-261 508,-261 508,-242 554,-242 554,-261"/>
<text text-anchor="middle" x="531" y="-249" font-family="Helvetica,sans-Serif" font-size="10.00">cstdint</text>
</a>
</g>
</g>
<!-- Node1&#45;&gt;Node3 -->
<g id="edge2_Node000001_Node000003" class="edge">
<title>Node1&#45;&gt;Node3</title>
<g id="a_edge2_Node000001_Node000003"><a xlink:title=" ">
<path fill="none" stroke="#63b8ff" d="M429.44,-296.98C448.99,-288.42 479.38,-275.11 501.82,-265.28"/>
<polygon fill="#63b8ff" stroke="#63b8ff" points="503.45,-268.39 511.21,-261.17 500.64,-261.98 503.45,-268.39"/>
</a>
</g>
</g>
<!-- Node4 -->
<g id="Node000004" class="node">
<title>Node4</title>
<g id="a_Node000004"><a xlink:href="Player_8hpp.html" target="_top" xlink:title=" ">
<polygon fill="white" stroke="#666666" points="268,-261 206,-261 206,-242 268,-242 268,-261"/>
<text text-anchor="middle" x="237" y="-249" font-family="Helvetica,sans-Serif" font-size="10.00">Player.hpp</text>
</a>
</g>
</g>
<!-- Node1&#45;&gt;Node4 -->
<g id="edge3_Node000001_Node000004" class="edge">
<title>Node1&#45;&gt;Node4</title>
<g id="a_edge3_Node000001_Node000004"><a xlink:title=" ">
<path fill="none" stroke="#63b8ff" d="M382.2,-296.98C353.03,-288.05 307,-273.94 274.6,-264.02"/>
<polygon fill="#63b8ff" stroke="#63b8ff" points="275.6,-260.66 265.01,-261.08 273.55,-267.36 275.6,-260.66"/>
</a>
</g>
</g>
<!-- Node11 -->
<g id="Node000011" class="node">
<title>Node11</title>
<g id="a_Node000011"><a xlink:href="Board_8hpp.html" target="_top" xlink:title=" ">
<polygon fill="white" stroke="#666666" points="489.5,-261 428.5,-261 428.5,-242 489.5,-242 489.5,-261"/>
<text text-anchor="middle" x="459" y="-249" font-family="Helvetica,sans-Serif" font-size="10.00">Board.hpp</text>
</a>
</g>
</g>
<!-- Node1&#45;&gt;Node11 -->
<g id="edge11_Node000001_Node000011" class="edge">
<title>Node1&#45;&gt;Node11</title>
<g id="a_edge11_Node000001_Node000011"><a xlink:title=" ">
<path fill="none" stroke="#63b8ff" d="M418.09,-296.75C425.16,-289.11 435.59,-277.82 444.15,-268.56"/>
<polygon fill="#63b8ff" stroke="#63b8ff" points="446.84,-270.81 451.06,-261.09 441.7,-266.06 446.84,-270.81"/>
</a>
</g>
</g>
<!-- Node4&#45;&gt;Node2 -->
<g id="edge9_Node000004_Node000002" class="edge">
<title>Node4&#45;&gt;Node2</title>
<g id="a_edge9_Node000004_Node000002"><a xlink:title=" ">
<path fill="none" stroke="#63b8ff" d="M255.48,-241.98C273.98,-233.46 302.68,-220.23 323.98,-210.41"/>
<polygon fill="#63b8ff" stroke="#63b8ff" points="325.57,-213.53 333.19,-206.17 322.64,-207.18 325.57,-213.53"/>
</a>
</g>
</g>
<!-- Node5 -->
<g id="Node000005" class="node">
<title>Node5</title>
<g id="a_Node000005"><a xlink:title=" ">
<polygon fill="#e0e0e0" stroke="#999999" points="164,-206 108,-206 108,-187 164,-187 164,-206"/>
<text text-anchor="middle" x="136" y="-194" font-family="Helvetica,sans-Serif" font-size="10.00">algorithm</text>
</a>
</g>
</g>
<!-- Node4&#45;&gt;Node5 -->
<g id="edge4_Node000004_Node000005" class="edge">
<title>Node4&#45;&gt;Node5</title>
<g id="a_edge4_Node000004_Node000005"><a xlink:title=" ">
<path fill="none" stroke="#63b8ff" d="M220.77,-241.98C204.82,-233.61 180.22,-220.7 161.62,-210.95"/>
<polygon fill="#63b8ff" stroke="#63b8ff" points="163,-207.72 152.52,-206.17 159.75,-213.92 163,-207.72"/>
</a>
</g>
</g>
<!-- Node6 -->
<g id="Node000006" class="node">
<title>Node6</title>
<g id="a_Node000006"><a xlink:title=" ">
<polygon fill="#e0e0e0" stroke="#999999" points="236,-206 182,-206 182,-187 236,-187 236,-206"/>
<text text-anchor="middle" x="209" y="-194" font-family="Helvetica,sans-Serif" font-size="10.00">iostream</text>
</a>
</g>
</g>
<!-- Node4&#45;&gt;Node6 -->
<g id="edge5_Node000004_Node000006" class="edge">
<title>Node4&#45;&gt;Node6</title>
<g id="a_edge5_Node000004_Node000006"><a xlink:title=" ">
<path fill="none" stroke="#63b8ff" d="M232.38,-241.75C228.54,-234.49 222.98,-223.95 218.24,-214.98"/>
<polygon fill="#63b8ff" stroke="#63b8ff" points="221.3,-213.3 213.54,-206.09 215.11,-216.57 221.3,-213.3"/>
</a>
</g>
</g>
<!-- Node7 -->
<g id="Node000007" class="node">
<title>Node7</title>
<g id="a_Node000007"><a xlink:title=" ">
<polygon fill="#e0e0e0" stroke="#999999" points="290,-19 238,-19 238,0 290,0 290,-19"/>
<text text-anchor="middle" x="264" y="-7" font-family="Helvetica,sans-Serif" font-size="10.00">memory</text>
</a>
</g>
</g>
<!-- Node4&#45;&gt;Node7 -->
<g id="edge6_Node000004_Node000007" class="edge">
<title>Node4&#45;&gt;Node7</title>
<g id="a_edge6_Node000004_Node000007"><a xlink:title=" ">
<path fill="none" stroke="#63b8ff" d="M205.79,-248.94C159.84,-245.12 81.24,-232.02 99,-187 128.22,-112.95 204.8,-51.69 242.46,-24.95"/>
<polygon fill="#63b8ff" stroke="#63b8ff" points="244.52,-27.79 250.72,-19.2 240.52,-22.04 244.52,-27.79"/>
</a>
</g>
</g>
<!-- Node8 -->
<g id="Node000008" class="node">
<title>Node8</title>
<g id="a_Node000008"><a xlink:title=" ">
<polygon fill="#e0e0e0" stroke="#999999" points="52,-206 0,-206 0,-187 52,-187 52,-206"/>
<text text-anchor="middle" x="26" y="-194" font-family="Helvetica,sans-Serif" font-size="10.00">ostream</text>
</a>
</g>
</g>
<!-- Node4&#45;&gt;Node8 -->
<g id="edge7_Node000004_Node000008" class="edge">
<title>Node4&#45;&gt;Node8</title>
<g id="a_edge7_Node000004_Node000008"><a xlink:title=" ">
<path fill="none" stroke="#63b8ff" d="M205.87,-242.68C167.5,-233.04 102.45,-216.7 61.99,-206.54"/>
<polygon fill="#63b8ff" stroke="#63b8ff" points="62.81,-203.14 52.26,-204.1 61.11,-209.93 62.81,-203.14"/>
</a>
</g>
</g>
<!-- Node9 -->
<g id="Node000009" class="node">
<title>Node9</title>
<g id="a_Node000009"><a xlink:title=" ">
<polygon fill="#e0e0e0" stroke="#999999" points="351.5,-19 310.5,-19 310.5,0 351.5,0 351.5,-19"/>
<text text-anchor="middle" x="331" y="-7" font-family="Helvetica,sans-Serif" font-size="10.00">string</text>
</a>
</g>
</g>
<!-- Node4&#45;&gt;Node9 -->
<g id="edge8_Node000004_Node000009" class="edge">
<title>Node4&#45;&gt;Node9</title>
<g id="a_edge8_Node000004_Node000009"><a xlink:title=" ">
<path fill="none" stroke="#63b8ff" d="M240.35,-241.96C253.91,-207.33 304.96,-76.99 323.88,-28.67"/>
<polygon fill="#63b8ff" stroke="#63b8ff" points="327.21,-29.78 327.6,-19.19 320.69,-27.23 327.21,-29.78"/>
</a>
</g>
</g>
<!-- Node10 -->
<g id="Node000010" class="node">
<title>Node10</title>
<g id="a_Node000010"><a xlink:title=" ">
<polygon fill="#e0e0e0" stroke="#999999" points="429.5,-19 370.5,-19 370.5,0 429.5,0 429.5,-19"/>
<text text-anchor="middle" x="400" y="-7" font-family="Helvetica,sans-Serif" font-size="10.00">stdexcept</text>
</a>
</g>
</g>
<!-- Node4&#45;&gt;Node10 -->
<g id="edge10_Node000004_Node000010" class="edge">
<title>Node4&#45;&gt;Node10</title>
<g id="a_edge10_Node000004_Node000010"><a xlink:title=" ">
<path fill="none" stroke="#63b8ff" d="M244.61,-241.96C252.21,-233.23 264.04,-219.13 273,-206 316.54,-142.21 313.43,-117.36 359,-55 366.42,-44.84 375.87,-34.45 383.83,-26.27"/>
<polygon fill="#63b8ff" stroke="#63b8ff" points="386.31,-28.74 390.88,-19.18 381.35,-23.8 386.31,-28.74"/>
</a>
</g>
</g>
<!-- Node11&#45;&gt;Node2 -->
<g id="edge12_Node000011_Node000002" class="edge">
<title>Node11&#45;&gt;Node2</title>
<g id="a_edge12_Node000011_Node000002"><a xlink:title=" ">
<path fill="none" stroke="#63b8ff" d="M441.81,-241.98C424.75,-233.54 398.37,-220.47 378.6,-210.68"/>
<polygon fill="#63b8ff" stroke="#63b8ff" points="380.02,-207.47 369.5,-206.17 376.91,-213.75 380.02,-207.47"/>
</a>
</g>
</g>
<!-- Node11&#45;&gt;Node7 -->
<g id="edge13_Node000011_Node000007" class="edge">
<title>Node11&#45;&gt;Node7</title>
<g id="a_edge13_Node000011_Node000007"><a xlink:title=" ">
<path fill="none" stroke="#63b8ff" d="M450.15,-241.9C441.24,-233.12 427.26,-218.98 416,-206 360.92,-142.5 301.31,-61.95 276.22,-27.44"/>
<polygon fill="#63b8ff" stroke="#63b8ff" points="279.05,-25.38 270.35,-19.34 273.38,-29.49 279.05,-25.38"/>
</a>
</g>
</g>
<!-- Node12 -->
<g id="Node000012" class="node">
<title>Node12</title>
<g id="a_Node000012"><a xlink:href="Property_8hpp.html" target="_top" xlink:title=" ">
<polygon fill="white" stroke="#666666" points="670,-145.5 562,-145.5 562,-126.5 670,-126.5 670,-145.5"/>
<text text-anchor="middle" x="616" y="-133.5" font-family="Helvetica,sans-Serif" font-size="10.00">squares/Property.hpp</text>
</a>
</g>
</g>
<!-- Node11&#45;&gt;Node12 -->
<g id="edge14_Node000011_Node000012" class="edge">
<title>Node11&#45;&gt;Node12</title>
<g id="a_edge14_Node000011_Node000012"><a xlink:title=" ">
<path fill="none" stroke="#63b8ff" d="M468.64,-241.85C482.9,-229.22 510.69,-205.23 536,-187 554.22,-173.88 575.87,-160.47 592.05,-150.85"/>
<polygon fill="#63b8ff" stroke="#63b8ff" points="594.03,-153.74 600.88,-145.65 590.48,-147.71 594.03,-153.74"/>
</a>
</g>
</g>
<!-- Node13 -->
<g id="Node000013" class="node">
<title>Node13</title>
<g id="a_Node000013"><a xlink:href="Square_8hpp.html" target="_top" xlink:title=" ">
<polygon fill="white" stroke="#666666" points="434,-79.5 368,-79.5 368,-60.5 434,-60.5 434,-79.5"/>
<text text-anchor="middle" x="401" y="-67.5" font-family="Helvetica,sans-Serif" font-size="10.00">Square.hpp</text>
</a>
</g>
</g>
<!-- Node11&#45;&gt;Node13 -->
<g id="edge22_Node000011_Node000013" class="edge">
<title>Node11&#45;&gt;Node13</title>
<g id="a_edge22_Node000011_Node000013"><a xlink:title=" ">
<path fill="none" stroke="#63b8ff" d="M452.85,-241.71C438.66,-221.23 404.46,-170.63 399,-151 393.31,-130.55 395.12,-106.03 397.51,-89.57"/>
<polygon fill="#63b8ff" stroke="#63b8ff" points="400.98,-90.05 399.17,-79.61 394.07,-88.9 400.98,-90.05"/>
</a>
</g>
</g>
<!-- Node16 -->
<g id="Node000016" class="node">
<title>Node16</title>
<g id="a_Node000016"><a xlink:href="Railroad_8hpp.html" target="_top" xlink:title=" ">
<polygon fill="white" stroke="#666666" points="653.5,-206 544.5,-206 544.5,-187 653.5,-187 653.5,-206"/>
<text text-anchor="middle" x="599" y="-194" font-family="Helvetica,sans-Serif" font-size="10.00">squares/Railroad.hpp</text>
</a>
</g>
</g>
<!-- Node11&#45;&gt;Node16 -->
<g id="edge23_Node000011_Node000016" class="edge">
<title>Node11&#45;&gt;Node16</title>
<g id="a_edge23_Node000011_Node000016"><a xlink:title=" ">
<path fill="none" stroke="#63b8ff" d="M481.49,-241.98C504.52,-233.27 540.54,-219.63 566.63,-209.75"/>
<polygon fill="#63b8ff" stroke="#63b8ff" points="567.98,-212.98 576.1,-206.17 565.51,-206.44 567.98,-212.98"/>
</a>
</g>
</g>
<!-- Node19 -->
<g id="Node000019" class="node">
<title>Node19</title>
<g id="a_Node000019"><a xlink:href="Utility_8hpp.html" target="_top" xlink:title=" ">
<polygon fill="white" stroke="#666666" points="768.5,-206 671.5,-206 671.5,-187 768.5,-187 768.5,-206"/>
<text text-anchor="middle" x="720" y="-194" font-family="Helvetica,sans-Serif" font-size="10.00">squares/Utility.hpp</text>
</a>
</g>
</g>
<!-- Node11&#45;&gt;Node19 -->
<g id="edge28_Node000011_Node000019" class="edge">
<title>Node11&#45;&gt;Node19</title>
<g id="a_edge28_Node000011_Node000019"><a xlink:title=" ">
<path fill="none" stroke="#63b8ff" d="M489.57,-243.97C492.75,-243.3 495.94,-242.63 499,-242 556.25,-230.15 621.92,-216.98 666.71,-208.07"/>
<polygon fill="#63b8ff" stroke="#63b8ff" points="667.65,-211.45 676.78,-206.06 666.29,-204.58 667.65,-211.45"/>
</a>
</g>
</g>
<!-- Node21 -->
<g id="Node000021" class="node">
<title>Node21</title>
<g id="a_Node000021"><a xlink:href="Street_8hpp.html" target="_top" xlink:title=" ">
<polygon fill="white" stroke="#666666" points="885.5,-206 786.5,-206 786.5,-187 885.5,-187 885.5,-206"/>
<text text-anchor="middle" x="836" y="-194" font-family="Helvetica,sans-Serif" font-size="10.00">squares/Street.hpp</text>
</a>
</g>
</g>
<!-- Node11&#45;&gt;Node21 -->
<g id="edge33_Node000011_Node000021" class="edge">
<title>Node11&#45;&gt;Node21</title>
<g id="a_edge33_Node000011_Node000021"><a xlink:title=" ">
<path fill="none" stroke="#63b8ff" d="M489.53,-243.75C492.72,-243.12 495.92,-242.52 499,-242 619,-221.54 652.4,-222.97 776.08,-206.24"/>
<polygon fill="#63b8ff" stroke="#63b8ff" points="776.9,-209.66 786.33,-204.84 775.95,-202.72 776.9,-209.66"/>
</a>
</g>
</g>
<!-- Node23 -->
<g id="Node000023" class="node">
<title>Node23</title>
<g id="a_Node000023"><a xlink:href="SpecialSquare_8hpp.html" target="_top" xlink:title=" ">
<polygon fill="white" stroke="#666666" points="544,-145.5 408,-145.5 408,-126.5 544,-126.5 544,-145.5"/>
<text text-anchor="middle" x="476" y="-133.5" font-family="Helvetica,sans-Serif" font-size="10.00">squares/SpecialSquare.hpp</text>
</a>
</g>
</g>
<!-- Node11&#45;&gt;Node23 -->
<g id="edge38_Node000011_Node000023" class="edge">
<title>Node11&#45;&gt;Node23</title>
<g id="a_edge38_Node000011_Node000023"><a xlink:title=" ">
<path fill="none" stroke="#63b8ff" d="M460.28,-241.97C463.01,-223.73 469.47,-180.57 473.21,-155.64"/>
<polygon fill="#63b8ff" stroke="#63b8ff" points="476.69,-156.04 474.71,-145.63 469.76,-155 476.69,-156.04"/>
</a>
</g>
</g>
<!-- Node12&#45;&gt;Node10 -->
<g id="edge20_Node000012_Node000010" class="edge">
<title>Node12&#45;&gt;Node10</title>
<g id="a_edge20_Node000012_Node000010"><a xlink:title=" ">
<path fill="none" stroke="#63b8ff" d="M601.15,-126.44C564.31,-105.21 468.46,-49.96 423.69,-24.15"/>
<polygon fill="#63b8ff" stroke="#63b8ff" points="425.36,-21.08 414.95,-19.12 421.87,-27.14 425.36,-21.08"/>
</a>
</g>
</g>
<!-- Node12&#45;&gt;Node13 -->
<g id="edge15_Node000012_Node000013" class="edge">
<title>Node12&#45;&gt;Node13</title>
<g id="a_edge15_Node000012_Node000013"><a xlink:title=" ">
<path fill="none" stroke="#63b8ff" d="M587,-126.37C548.91,-115.03 481.89,-95.08 439.56,-82.48"/>
<polygon fill="#63b8ff" stroke="#63b8ff" points="440.46,-79.1 429.88,-79.6 438.46,-85.8 440.46,-79.1"/>
</a>
</g>
</g>
<!-- Node15 -->
<g id="Node000015" class="node">
<title>Node15</title>
<g id="a_Node000015"><a xlink:href="StrategyRentCalculator_8hpp.html" target="_top" xlink:title=" ">
<polygon fill="white" stroke="#666666" points="849,-85 709,-85 709,-55 849,-55 849,-85"/>
<text text-anchor="start" x="717" y="-73" font-family="Helvetica,sans-Serif" font-size="10.00">../../utils/strategy</text>
<text text-anchor="middle" x="779" y="-62" font-family="Helvetica,sans-Serif" font-size="10.00">/StrategyRentCalculator.hpp</text>
</a>
</g>
</g>
<!-- Node12&#45;&gt;Node15 -->
<g id="edge21_Node000012_Node000015" class="edge">
<title>Node12&#45;&gt;Node15</title>
<g id="a_edge21_Node000012_Node000015"><a xlink:title=" ">
<path fill="none" stroke="#63b8ff" d="M637.98,-126.37C662.4,-116.78 702.48,-101.05 733.68,-88.8"/>
<polygon fill="#63b8ff" stroke="#63b8ff" points="735.02,-92.03 743.05,-85.12 732.46,-85.51 735.02,-92.03"/>
</a>
</g>
</g>
<!-- Node13&#45;&gt;Node7 -->
<g id="edge16_Node000013_Node000007" class="edge">
<title>Node13&#45;&gt;Node7</title>
<g id="a_edge16_Node000013_Node000007"><a xlink:title=" ">
<path fill="none" stroke="#63b8ff" d="M381.08,-60.49C358.05,-50.66 319.92,-34.38 293.46,-23.08"/>
<polygon fill="#63b8ff" stroke="#63b8ff" points="294.52,-19.72 283.95,-19.02 291.77,-26.16 294.52,-19.72"/>
</a>
</g>
</g>
<!-- Node13&#45;&gt;Node9 -->
<g id="edge18_Node000013_Node000009" class="edge">
<title>Node13&#45;&gt;Node9</title>
<g id="a_edge18_Node000013_Node000009"><a xlink:title=" ">
<path fill="none" stroke="#63b8ff" d="M390.67,-60.37C379.81,-51.3 362.51,-36.84 349.33,-25.82"/>
<polygon fill="#63b8ff" stroke="#63b8ff" points="351.29,-22.89 341.37,-19.17 346.8,-28.27 351.29,-22.89"/>
</a>
</g>
</g>
<!-- Node13&#45;&gt;Node10 -->
<g id="edge17_Node000013_Node000010" class="edge">
<title>Node13&#45;&gt;Node10</title>
<g id="a_edge17_Node000013_Node000010"><a xlink:title=" ">
<path fill="none" stroke="#63b8ff" d="M400.85,-60.37C400.71,-52.25 400.5,-39.81 400.32,-29.39"/>
<polygon fill="#63b8ff" stroke="#63b8ff" points="403.82,-29.11 400.15,-19.17 396.82,-29.23 403.82,-29.11"/>
</a>
</g>
</g>
<!-- Node14 -->
<g id="Node000014" class="node">
<title>Node14</title>
<g id="a_Node000014"><a xlink:title=" ">
<polygon fill="#e0e0e0" stroke="#999999" points="488,-19 448,-19 448,0 488,0 488,-19"/>
<text text-anchor="middle" x="468" y="-7" font-family="Helvetica,sans-Serif" font-size="10.00">utility</text>
</a>
</g>
</g>
<!-- Node13&#45;&gt;Node14 -->
<g id="edge19_Node000013_Node000014" class="edge">
<title>Node13&#45;&gt;Node14</title>
<g id="a_edge19_Node000013_Node000014"><a xlink:title=" ">
<path fill="none" stroke="#63b8ff" d="M410.89,-60.37C421.28,-51.3 437.84,-36.84 450.45,-25.82"/>
<polygon fill="#63b8ff" stroke="#63b8ff" points="452.84,-28.38 458.07,-19.17 448.24,-23.11 452.84,-28.38"/>
</a>
</g>
</g>
<!-- Node16&#45;&gt;Node12 -->
<g id="edge24_Node000016_Node000012" class="edge">
<title>Node16&#45;&gt;Node12</title>
<g id="a_edge24_Node000016_Node000012"><a xlink:title=" ">
<path fill="none" stroke="#63b8ff" d="M601.51,-186.87C603.89,-178.66 607.56,-166.04 610.61,-155.55"/>
<polygon fill="#63b8ff" stroke="#63b8ff" points="614.05,-156.25 613.48,-145.67 607.33,-154.29 614.05,-156.25"/>
</a>
</g>
</g>
<!-- Node17 -->
<g id="Node000017" class="node">
<title>Node17</title>
<g id="a_Node000017"><a xlink:href="RailroadRentCalculator_8hpp.html" target="_top" xlink:title=" ">
<polygon fill="white" stroke="#666666" points="827.5,-151 688.5,-151 688.5,-121 827.5,-121 827.5,-151"/>
<text text-anchor="start" x="696.5" y="-139" font-family="Helvetica,sans-Serif" font-size="10.00">../../utils/strategy</text>
<text text-anchor="middle" x="758" y="-128" font-family="Helvetica,sans-Serif" font-size="10.00">/RailroadRentCalculator.hpp</text>
</a>
</g>
</g>
<!-- Node16&#45;&gt;Node17 -->
<g id="edge25_Node000016_Node000017" class="edge">
<title>Node16&#45;&gt;Node17</title>
<g id="a_edge25_Node000016_Node000017"><a xlink:title=" ">
<path fill="none" stroke="#63b8ff" d="M622.12,-186.99C645.1,-178.54 681.04,-165.32 710.18,-154.59"/>
<polygon fill="#63b8ff" stroke="#63b8ff" points="711.6,-157.8 719.77,-151.06 709.18,-151.23 711.6,-157.8"/>
</a>
</g>
</g>
<!-- Node17&#45;&gt;Node15 -->
<g id="edge26_Node000017_Node000015" class="edge">
<title>Node17&#45;&gt;Node15</title>
<g id="a_edge26_Node000017_Node000015"><a xlink:title=" ">
<path fill="none" stroke="#63b8ff" d="M762.66,-120.8C765.16,-113.17 768.31,-103.57 771.18,-94.84"/>
<polygon fill="#63b8ff" stroke="#63b8ff" points="774.56,-95.76 774.35,-85.16 767.91,-93.57 774.56,-95.76"/>
</a>
</g>
</g>
<!-- Node18 -->
<g id="Node000018" class="node">
<title>Node18</title>
<g id="a_Node000018"><a xlink:title=" ">
<polygon fill="#e0e0e0" stroke="#999999" points="932,-79.5 888,-79.5 888,-60.5 932,-60.5 932,-79.5"/>
<text text-anchor="middle" x="910" y="-67.5" font-family="Helvetica,sans-Serif" font-size="10.00">cmath</text>
</a>
</g>
</g>
<!-- Node17&#45;&gt;Node18 -->
<g id="edge27_Node000017_Node000018" class="edge">
<title>Node17&#45;&gt;Node18</title>
<g id="a_edge27_Node000017_Node000018"><a xlink:title=" ">
<path fill="none" stroke="#63b8ff" d="M791.36,-120.95C817.9,-109.78 854.69,-94.29 880.24,-83.53"/>
<polygon fill="#63b8ff" stroke="#63b8ff" points="881.91,-86.62 889.77,-79.52 879.2,-80.17 881.91,-86.62"/>
</a>
</g>
</g>
<!-- Node19&#45;&gt;Node12 -->
<g id="edge29_Node000019_Node000012" class="edge">
<title>Node19&#45;&gt;Node12</title>
<g id="a_edge29_Node000019_Node000012"><a xlink:title=" ">
<path fill="none" stroke="#63b8ff" d="M704.65,-186.87C687.68,-177.32 660.1,-161.81 640.21,-150.62"/>
<polygon fill="#63b8ff" stroke="#63b8ff" points="641.84,-147.52 631.41,-145.67 638.41,-153.62 641.84,-147.52"/>
</a>
</g>
</g>
<!-- Node20 -->
<g id="Node000020" class="node">
<title>Node20</title>
<g id="a_Node000020"><a xlink:href="UtilityRentCalculator_8hpp.html" target="_top" xlink:title=" ">
<polygon fill="white" stroke="#666666" points="974,-151 846,-151 846,-121 974,-121 974,-151"/>
<text text-anchor="start" x="854" y="-139" font-family="Helvetica,sans-Serif" font-size="10.00">../../utils/strategy</text>
<text text-anchor="middle" x="910" y="-128" font-family="Helvetica,sans-Serif" font-size="10.00">/UtilityRentCalculator.hpp</text>
</a>
</g>
</g>
<!-- Node19&#45;&gt;Node20 -->
<g id="edge30_Node000019_Node000020" class="edge">
<title>Node19&#45;&gt;Node20</title>
<g id="a_edge30_Node000019_Node000020"><a xlink:title=" ">
<path fill="none" stroke="#63b8ff" d="M747.63,-186.99C775.57,-178.39 819.53,-164.86 854.67,-154.04"/>
<polygon fill="#63b8ff" stroke="#63b8ff" points="855.79,-157.35 864.32,-151.06 853.73,-150.66 855.79,-157.35"/>
</a>
</g>
</g>
<!-- Node20&#45;&gt;Node15 -->
<g id="edge31_Node000020_Node000015" class="edge">
<title>Node20&#45;&gt;Node15</title>
<g id="a_edge31_Node000020_Node000015"><a xlink:title=" ">
<path fill="none" stroke="#63b8ff" d="M881.25,-120.95C862.31,-111.7 837.31,-99.49 816.77,-89.45"/>
<polygon fill="#63b8ff" stroke="#63b8ff" points="818.2,-86.26 807.68,-85.01 815.13,-92.55 818.2,-86.26"/>
</a>
</g>
</g>
<!-- Node20&#45;&gt;Node18 -->
<g id="edge32_Node000020_Node000018" class="edge">
<title>Node20&#45;&gt;Node18</title>
<g id="a_edge32_Node000020_Node000018"><a xlink:title=" ">
<path fill="none" stroke="#63b8ff" d="M910,-120.8C910,-111.7 910,-99.79 910,-89.9"/>
<polygon fill="#63b8ff" stroke="#63b8ff" points="913.5,-89.84 910,-79.84 906.5,-89.84 913.5,-89.84"/>
</a>
</g>
</g>
<!-- Node21&#45;&gt;Node12 -->
<g id="edge34_Node000021_Node000012" class="edge">
<title>Node21&#45;&gt;Node12</title>
<g id="a_edge34_Node000021_Node000012"><a xlink:title=" ">
<path fill="none" stroke="#63b8ff" d="M804.01,-186.99C765.4,-176.73 700.36,-159.43 657.8,-148.12"/>
<polygon fill="#63b8ff" stroke="#63b8ff" points="658.59,-144.7 648.03,-145.52 656.79,-151.47 658.59,-144.7"/>
</a>
</g>
</g>
<!-- Node22 -->
<g id="Node000022" class="node">
<title>Node22</title>
<g id="a_Node000022"><a xlink:href="StreetRentCalculator_8hpp.html" target="_top" xlink:title=" ">
<polygon fill="white" stroke="#666666" points="1121.5,-151 992.5,-151 992.5,-121 1121.5,-121 1121.5,-151"/>
<text text-anchor="start" x="1000.5" y="-139" font-family="Helvetica,sans-Serif" font-size="10.00">../../utils/strategy</text>
<text text-anchor="middle" x="1057" y="-128" font-family="Helvetica,sans-Serif" font-size="10.00">/StreetRentCalculator.hpp</text>
</a>
</g>
</g>
<!-- Node21&#45;&gt;Node22 -->
<g id="edge35_Node000021_Node000022" class="edge">
<title>Node21&#45;&gt;Node22</title>
<g id="a_edge35_Node000021_Node000022"><a xlink:title=" ">
<path fill="none" stroke="#63b8ff" d="M868.14,-186.99C900.98,-178.3 952.86,-164.57 993.94,-153.69"/>
<polygon fill="#63b8ff" stroke="#63b8ff" points="995.1,-157.01 1003.87,-151.06 993.31,-150.24 995.1,-157.01"/>
</a>
</g>
</g>
<!-- Node22&#45;&gt;Node15 -->
<g id="edge36_Node000022_Node000015" class="edge">
<title>Node22&#45;&gt;Node15</title>
<g id="a_edge36_Node000022_Node000015"><a xlink:title=" ">
<path fill="none" stroke="#63b8ff" d="M995.99,-120.95C952.9,-111.03 895.02,-97.71 849.88,-87.32"/>
<polygon fill="#63b8ff" stroke="#63b8ff" points="850.4,-83.85 839.87,-85.01 848.83,-90.67 850.4,-83.85"/>
</a>
</g>
</g>
<!-- Node22&#45;&gt;Node18 -->
<g id="edge37_Node000022_Node000018" class="edge">
<title>Node22&#45;&gt;Node18</title>
<g id="a_edge37_Node000022_Node000018"><a xlink:title=" ">
<path fill="none" stroke="#63b8ff" d="M1024.74,-120.95C999.07,-109.78 963.49,-94.29 938.78,-83.53"/>
<polygon fill="#63b8ff" stroke="#63b8ff" points="940.13,-80.3 929.56,-79.52 937.33,-86.72 940.13,-80.3"/>
</a>
</g>
</g>
<!-- Node23&#45;&gt;Node13 -->
<g id="edge39_Node000023_Node000013" class="edge">
<title>Node23&#45;&gt;Node13</title>
<g id="a_edge39_Node000023_Node000013"><a xlink:title=" ">
<path fill="none" stroke="#63b8ff" d="M465.89,-126.37C453.99,-116.21 434,-99.16 419.35,-86.65"/>
<polygon fill="#63b8ff" stroke="#63b8ff" points="421.31,-83.73 411.44,-79.91 416.77,-89.06 421.31,-83.73"/>
</a>
</g>
</g>
</g>
</svg>

<g id="navigator" transform="translate(0 0)" fill="#404254">
  <rect fill="#f2f5e9" fill-opacity="0.5" stroke="#606060" stroke-width=".5" x="0" y="0" width="60" height="60"/>
  <use id="zoomplus" xlink:href="#zoomPlus" x="17" y="9" onmousedown="handleZoom(evt,'in')"/>
  <use id="zoomminus" xlink:href="#zoomMin" x="42" y="9" onmousedown="handleZoom(evt,'out')"/>
  <use id="reset" xlink:href="#resetDef" x="30" y="36" onmousedown="handleReset()"/>
   <use id="arrowup" xlink:href="#arrowUp" x="0" y="0" onmousedown="handlePan(0,-1)"/>
  <use id="arrowright" xlink:href="#arrowRight" x="0" y="0" onmousedown="handlePan(1,0)"/>
  <use id="arrowdown" xlink:href="#arrowDown" x="0" y="0" onmousedown="handlePan(0,1)"/>
  <use id="arrowleft" xlink:href="#arrowLeft" x="0" y="0" onmousedown="handlePan(-1,0)"/>
</g>
<svg viewBox="0 0 15 15" width="100%" height="30px" preserveAspectRatio="xMaxYMin meet">
 <g id="arrow_out" transform="scale(0.3 0.3)">
  <a xlink:href="MonopolyRules_8hpp__incl_org.svg" target="_base">
   <rect id="button" ry="5" rx="5" y="6" x="6" height="38" width="38"
        fill="#f2f5e9" fill-opacity="0.5" stroke="#606060" stroke-width="1.0"/>
   <path id="arrow"
     d="M 11.500037,31.436501 C 11.940474,20.09759 22.043105,11.32322 32.158766,21.979434 L 37.068811,17.246167 C 37.068811,17.246167 37.088388,32 37.088388,32 L 22.160133,31.978069 C 22.160133,31.978069 26.997745,27.140456 26.997745,27.140456 C 18.528582,18.264221 13.291696,25.230495 11.500037,31.436501 z"
     style="fill:#404040;"/>
  </a>
 </g>
</svg>

<style type='text/css'>
<![CDATA[
[data-mouse-over-selected='false'] { opacity: 0.7; }
[data-mouse-over-selected='true']  { opacity: 1.0; }
]]>
</style>
<script type="application/ecmascript"><![CDATA[
document.addEventListener('DOMContentLoaded', (event) => {
  highlightEdges();
  highlightAdjacentNodes();
});
]]></script>
</svg>
