<?xml version="1.0" encoding="UTF-8" standalone="no"?>
<!DOCTYPE svg PUBLIC "-//W3C//DTD SVG 1.1//EN"
 "http://www.w3.org/Graphics/SVG/1.1/DTD/svg11.dtd">
<!-- Generated by graphviz version 2.43.0 (0)
 -->
<!-- Title: include/model/Player.hpp Pages: 1 -->
<svg width="695pt" height="269pt"
 viewBox="0.00 0.00 695.00 269.00" xmlns="http://www.w3.org/2000/svg" xmlns:xlink="http://www.w3.org/1999/xlink">
<g id="graph0" class="graph" transform="scale(1 1) rotate(0) translate(4 265)">
<title>include/model/Player.hpp</title>
<!-- Node1 -->
<g id="Node000001" class="node">
<title>Node1</title>
<g id="a_Node000001"><a xlink:title=" ">
<polygon fill="#999999" stroke="#666666" points="540.5,-261 415.5,-261 415.5,-242 540.5,-242 540.5,-261"/>
<text text-anchor="middle" x="478" y="-249" font-family="Helvetica,sans-Serif" font-size="10.00">include/model/Player.hpp</text>
</a>
</g>
</g>
<!-- Node2 -->
<g id="Node000002" class="node">
<title>Node2</title>
<g id="a_Node000002"><a xlink:href="GameModel_8hpp.html" target="_top" xlink:title="Core game logic implementation for Monopoly board game.">
<polygon fill="white" stroke="#666666" points="497.5,-151 346.5,-151 346.5,-132 497.5,-132 497.5,-151"/>
<text text-anchor="middle" x="422" y="-139" font-family="Helvetica,sans-Serif" font-size="10.00">include/model/GameModel.hpp</text>
</a>
</g>
</g>
<!-- Node1&#45;&gt;Node2 -->
<g id="edge1_Node000001_Node000002" class="edge">
<title>Node1&#45;&gt;Node2</title>
<g id="a_edge1_Node000001_Node000002"><a xlink:title=" ">
<path fill="none" stroke="#63b8ff" d="M429.01,-238.37C412.44,-231.67 395.69,-221.46 386,-206 374.02,-186.89 396.1,-163.66 410.67,-151.27"/>
<polygon fill="#63b8ff" stroke="#63b8ff" points="428.1,-241.76 438.69,-241.92 430.51,-235.19 428.1,-241.76"/>
</a>
</g>
</g>
<!-- Node10 -->
<g id="Node000010" class="node">
<title>Node10</title>
<g id="a_Node000010"><a xlink:href="MonopolyRules_8hpp.html" target="_top" xlink:title=" ">
<polygon fill="white" stroke="#666666" points="561,-206 395,-206 395,-187 561,-187 561,-206"/>
<text text-anchor="middle" x="478" y="-194" font-family="Helvetica,sans-Serif" font-size="10.00">include/model/MonopolyRules.hpp</text>
</a>
</g>
</g>
<!-- Node1&#45;&gt;Node10 -->
<g id="edge9_Node000001_Node000010" class="edge">
<title>Node1&#45;&gt;Node10</title>
<g id="a_edge9_Node000001_Node000010"><a xlink:title=" ">
<path fill="none" stroke="#63b8ff" d="M478,-231.66C478,-222.93 478,-212.99 478,-206.09"/>
<polygon fill="#63b8ff" stroke="#63b8ff" points="474.5,-231.75 478,-241.75 481.5,-231.75 474.5,-231.75"/>
</a>
</g>
</g>
<!-- Node11 -->
<g id="Node000011" class="node">
<title>Node11</title>
<g id="a_Node000011"><a xlink:href="Player_8cpp.html" target="_top" xlink:title=" ">
<polygon fill="white" stroke="#666666" points="687,-206 579,-206 579,-187 687,-187 687,-206"/>
<text text-anchor="middle" x="633" y="-194" font-family="Helvetica,sans-Serif" font-size="10.00">src/model/Player.cpp</text>
</a>
</g>
</g>
<!-- Node1&#45;&gt;Node11 -->
<g id="edge11_Node000001_Node000011" class="edge">
<title>Node1&#45;&gt;Node11</title>
<g id="a_edge11_Node000001_Node000011"><a xlink:title=" ">
<path fill="none" stroke="#63b8ff" d="M512.6,-238.67C541.5,-228.79 582.03,-214.93 607.9,-206.08"/>
<polygon fill="#63b8ff" stroke="#63b8ff" points="511.23,-235.44 502.9,-241.98 513.5,-242.06 511.23,-235.44"/>
</a>
</g>
</g>
<!-- Node3 -->
<g id="Node000003" class="node">
<title>Node3</title>
<g id="a_Node000003"><a xlink:href="GameController_8hpp.html" target="_top" xlink:title="Main controller class for the Monopoly game implementation.">
<polygon fill="white" stroke="#666666" points="406,-96 300,-96 300,-66 406,-66 406,-96"/>
<text text-anchor="start" x="308" y="-84" font-family="Helvetica,sans-Serif" font-size="10.00">include/controller</text>
<text text-anchor="middle" x="353" y="-73" font-family="Helvetica,sans-Serif" font-size="10.00">/GameController.hpp</text>
</a>
</g>
</g>
<!-- Node2&#45;&gt;Node3 -->
<g id="edge2_Node000002_Node000003" class="edge">
<title>Node2&#45;&gt;Node3</title>
<g id="a_edge2_Node000002_Node000003"><a xlink:title=" ">
<path fill="none" stroke="#63b8ff" d="M403.99,-125.23C393.37,-116.23 380.02,-104.91 369.65,-96.11"/>
<polygon fill="#63b8ff" stroke="#63b8ff" points="401.93,-128.07 411.82,-131.87 406.45,-122.73 401.93,-128.07"/>
</a>
</g>
</g>
<!-- Node9 -->
<g id="Node000009" class="node">
<title>Node9</title>
<g id="a_Node000009"><a xlink:href="GameModel_8cpp.html" target="_top" xlink:title=" ">
<polygon fill="white" stroke="#666666" points="558,-90.5 424,-90.5 424,-71.5 558,-71.5 558,-90.5"/>
<text text-anchor="middle" x="491" y="-78.5" font-family="Helvetica,sans-Serif" font-size="10.00">src/model/GameModel.cpp</text>
</a>
</g>
</g>
<!-- Node2&#45;&gt;Node9 -->
<g id="edge8_Node000002_Node000009" class="edge">
<title>Node2&#45;&gt;Node9</title>
<g id="a_edge8_Node000002_Node000009"><a xlink:title=" ">
<path fill="none" stroke="#63b8ff" d="M440.02,-125.22C453,-114.21 470.06,-99.75 480.78,-90.67"/>
<polygon fill="#63b8ff" stroke="#63b8ff" points="437.55,-122.73 432.18,-131.87 442.07,-128.07 437.55,-122.73"/>
</a>
</g>
</g>
<!-- Node4 -->
<g id="Node000004" class="node">
<title>Node4</title>
<g id="a_Node000004"><a xlink:href="GameController_8cpp.html" target="_top" xlink:title=" ">
<polygon fill="white" stroke="#666666" points="162,-24.5 0,-24.5 0,-5.5 162,-5.5 162,-24.5"/>
<text text-anchor="middle" x="81" y="-12.5" font-family="Helvetica,sans-Serif" font-size="10.00">src/controller/GameController.cpp</text>
</a>
</g>
</g>
<!-- Node3&#45;&gt;Node4 -->
<g id="edge3_Node000003_Node000004" class="edge">
<title>Node3&#45;&gt;Node4</title>
<g id="a_edge3_Node000003_Node000004"><a xlink:title=" ">
<path fill="none" stroke="#63b8ff" d="M289.84,-65.14C236.33,-52.55 161.47,-34.93 117.43,-24.57"/>
<polygon fill="#63b8ff" stroke="#63b8ff" points="289.37,-68.62 299.91,-67.51 290.98,-61.81 289.37,-68.62"/>
</a>
</g>
</g>
<!-- Node5 -->
<g id="Node000005" class="node">
<title>Node5</title>
<g id="a_Node000005"><a xlink:href="GameState_8cpp.html" target="_top" xlink:title=" ">
<polygon fill="white" stroke="#666666" points="283.5,-30 180.5,-30 180.5,0 283.5,0 283.5,-30"/>
<text text-anchor="start" x="188.5" y="-18" font-family="Helvetica,sans-Serif" font-size="10.00">src/controller/states</text>
<text text-anchor="middle" x="232" y="-7" font-family="Helvetica,sans-Serif" font-size="10.00">/GameState.cpp</text>
</a>
</g>
</g>
<!-- Node3&#45;&gt;Node5 -->
<g id="edge4_Node000003_Node000005" class="edge">
<title>Node3&#45;&gt;Node5</title>
<g id="a_edge4_Node000003_Node000005"><a xlink:title=" ">
<path fill="none" stroke="#63b8ff" d="M317.53,-61.24C298.65,-51.25 275.82,-39.18 258.49,-30.01"/>
<polygon fill="#63b8ff" stroke="#63b8ff" points="315.97,-64.37 326.45,-65.95 319.24,-58.19 315.97,-64.37"/>
</a>
</g>
</g>
<!-- Node6 -->
<g id="Node000006" class="node">
<title>Node6</title>
<g id="a_Node000006"><a xlink:href="RollDiceState_8cpp.html" target="_top" xlink:title=" ">
<polygon fill="white" stroke="#666666" points="404.5,-30 301.5,-30 301.5,0 404.5,0 404.5,-30"/>
<text text-anchor="start" x="309.5" y="-18" font-family="Helvetica,sans-Serif" font-size="10.00">src/controller/states</text>
<text text-anchor="middle" x="353" y="-7" font-family="Helvetica,sans-Serif" font-size="10.00">/RollDiceState.cpp</text>
</a>
</g>
</g>
<!-- Node3&#45;&gt;Node6 -->
<g id="edge5_Node000003_Node000006" class="edge">
<title>Node3&#45;&gt;Node6</title>
<g id="a_edge5_Node000003_Node000006"><a xlink:title=" ">
<path fill="none" stroke="#63b8ff" d="M353,-55.54C353,-46.96 353,-37.61 353,-30.16"/>
<polygon fill="#63b8ff" stroke="#63b8ff" points="349.5,-55.8 353,-65.8 356.5,-55.8 349.5,-55.8"/>
</a>
</g>
</g>
<!-- Node7 -->
<g id="Node000007" class="node">
<title>Node7</title>
<g id="a_Node000007"><a xlink:href="StartState_8cpp.html" target="_top" xlink:title=" ">
<polygon fill="white" stroke="#666666" points="525.5,-30 422.5,-30 422.5,0 525.5,0 525.5,-30"/>
<text text-anchor="start" x="430.5" y="-18" font-family="Helvetica,sans-Serif" font-size="10.00">src/controller/states</text>
<text text-anchor="middle" x="474" y="-7" font-family="Helvetica,sans-Serif" font-size="10.00">/StartState.cpp</text>
</a>
</g>
</g>
<!-- Node3&#45;&gt;Node7 -->
<g id="edge6_Node000003_Node000007" class="edge">
<title>Node3&#45;&gt;Node7</title>
<g id="a_edge6_Node000003_Node000007"><a xlink:title=" ">
<path fill="none" stroke="#63b8ff" d="M388.47,-61.24C407.35,-51.25 430.18,-39.18 447.51,-30.01"/>
<polygon fill="#63b8ff" stroke="#63b8ff" points="386.76,-58.19 379.55,-65.95 390.03,-64.37 386.76,-58.19"/>
</a>
</g>
</g>
<!-- Node8 -->
<g id="Node000008" class="node">
<title>Node8</title>
<g id="a_Node000008"><a xlink:href="TurnState_8cpp.html" target="_top" xlink:title=" ">
<polygon fill="white" stroke="#666666" points="646.5,-30 543.5,-30 543.5,0 646.5,0 646.5,-30"/>
<text text-anchor="start" x="551.5" y="-18" font-family="Helvetica,sans-Serif" font-size="10.00">src/controller/states</text>
<text text-anchor="middle" x="595" y="-7" font-family="Helvetica,sans-Serif" font-size="10.00">/TurnState.cpp</text>
</a>
</g>
</g>
<!-- Node3&#45;&gt;Node8 -->
<g id="edge7_Node000003_Node000008" class="edge">
<title>Node3&#45;&gt;Node8</title>
<g id="a_edge7_Node000003_Node000008"><a xlink:title=" ">
<path fill="none" stroke="#63b8ff" d="M415.93,-63.36C455.52,-52.89 506,-39.54 543.26,-29.68"/>
<polygon fill="#63b8ff" stroke="#63b8ff" points="414.88,-60.01 406.11,-65.95 416.67,-66.78 414.88,-60.01"/>
</a>
</g>
</g>
<!-- Node10&#45;&gt;Node2 -->
<g id="edge10_Node000010_Node000002" class="edge">
<title>Node10&#45;&gt;Node2</title>
<g id="a_edge10_Node000010_Node000002"><a xlink:title=" ">
<path fill="none" stroke="#63b8ff" d="M461.67,-180.04C451.74,-170.64 439.41,-158.98 431.16,-151.17"/>
<polygon fill="#63b8ff" stroke="#63b8ff" points="459.33,-182.65 469,-186.98 464.15,-177.57 459.33,-182.65"/>
</a>
</g>
</g>
</g>
</svg>
