<?xml version="1.0" encoding="UTF-8" standalone="no"?>
<!DOCTYPE svg PUBLIC "-//W3C//DTD SVG 1.1//EN"
 "http://www.w3.org/Graphics/SVG/1.1/DTD/svg11.dtd">
<!-- Generated by graphviz version 2.43.0 (0)
 -->
<!-- Title: src/view/components/PlayerTokenComponent.cpp Pages: 1 -->
<svg width="536pt" height="214pt"
 viewBox="0.00 0.00 536.00 214.00" xmlns="http://www.w3.org/2000/svg" xmlns:xlink="http://www.w3.org/1999/xlink">
<g id="graph0" class="graph" transform="scale(1 1) rotate(0) translate(4 210)">
<title>src/view/components/PlayerTokenComponent.cpp</title>
<!-- Node1 -->
<g id="Node000001" class="node">
<title>Node1</title>
<g id="a_Node000001"><a xlink:title=" ">
<polygon fill="#999999" stroke="#666666" points="207,-206 64,-206 64,-176 207,-176 207,-206"/>
<text text-anchor="start" x="72" y="-194" font-family="Helvetica,sans-Serif" font-size="10.00">src/view/components</text>
<text text-anchor="middle" x="135.5" y="-183" font-family="Helvetica,sans-Serif" font-size="10.00">/PlayerTokenComponent.cpp</text>
</a>
</g>
</g>
<!-- Node2 -->
<g id="Node000002" class="node">
<title>Node2</title>
<g id="a_Node000002"><a xlink:href="PlayerTokenComponent_8hpp.html" target="_top" xlink:title=" ">
<polygon fill="white" stroke="#666666" points="235,-140 36,-140 36,-110 235,-110 235,-140"/>
<text text-anchor="start" x="44" y="-128" font-family="Helvetica,sans-Serif" font-size="10.00">../../../include/view</text>
<text text-anchor="middle" x="135.5" y="-117" font-family="Helvetica,sans-Serif" font-size="10.00">/components/PlayerTokenComponent.hpp</text>
</a>
</g>
</g>
<!-- Node1&#45;&gt;Node2 -->
<g id="edge1_Node000001_Node000002" class="edge">
<title>Node1&#45;&gt;Node2</title>
<g id="a_edge1_Node000001_Node000002"><a xlink:title=" ">
<path fill="none" stroke="#63b8ff" d="M135.5,-175.8C135.5,-168.34 135.5,-158.99 135.5,-150.41"/>
<polygon fill="#63b8ff" stroke="#63b8ff" points="139,-150.16 135.5,-140.16 132,-150.16 139,-150.16"/>
</a>
</g>
</g>
<!-- Node3 -->
<g id="Node000003" class="node">
<title>Node3</title>
<g id="a_Node000003"><a xlink:title=" ">
<polygon fill="#e0e0e0" stroke="#999999" points="59,-74 0,-74 0,-55 59,-55 59,-74"/>
<text text-anchor="middle" x="29.5" y="-62" font-family="Helvetica,sans-Serif" font-size="10.00">functional</text>
</a>
</g>
</g>
<!-- Node2&#45;&gt;Node3 -->
<g id="edge2_Node000002_Node000003" class="edge">
<title>Node2&#45;&gt;Node3</title>
<g id="a_edge2_Node000002_Node000003"><a xlink:title=" ">
<path fill="none" stroke="#63b8ff" d="M110.11,-109.99C93.21,-100.66 71.12,-88.47 54.34,-79.21"/>
<polygon fill="#63b8ff" stroke="#63b8ff" points="55.6,-75.91 45.15,-74.14 52.22,-82.04 55.6,-75.91"/>
</a>
</g>
</g>
<!-- Node4 -->
<g id="Node000004" class="node">
<title>Node4</title>
<g id="a_Node000004"><a xlink:title=" ">
<polygon fill="#e0e0e0" stroke="#999999" points="129.5,-74 77.5,-74 77.5,-55 129.5,-55 129.5,-74"/>
<text text-anchor="middle" x="103.5" y="-62" font-family="Helvetica,sans-Serif" font-size="10.00">memory</text>
</a>
</g>
</g>
<!-- Node2&#45;&gt;Node4 -->
<g id="edge3_Node000002_Node000004" class="edge">
<title>Node2&#45;&gt;Node4</title>
<g id="a_edge3_Node000002_Node000004"><a xlink:title=" ">
<path fill="none" stroke="#63b8ff" d="M127.75,-109.84C123.35,-101.78 117.79,-91.62 113.1,-83.06"/>
<polygon fill="#63b8ff" stroke="#63b8ff" points="116.16,-81.36 108.3,-74.27 110.02,-84.72 116.16,-81.36"/>
</a>
</g>
</g>
<!-- Node5 -->
<g id="Node000005" class="node">
<title>Node5</title>
<g id="a_Node000005"><a xlink:title=" ">
<polygon fill="#e0e0e0" stroke="#999999" points="189,-74 148,-74 148,-55 189,-55 189,-74"/>
<text text-anchor="middle" x="168.5" y="-62" font-family="Helvetica,sans-Serif" font-size="10.00">string</text>
</a>
</g>
</g>
<!-- Node2&#45;&gt;Node5 -->
<g id="edge4_Node000002_Node000005" class="edge">
<title>Node2&#45;&gt;Node5</title>
<g id="a_edge4_Node000002_Node000005"><a xlink:title=" ">
<path fill="none" stroke="#63b8ff" d="M143.49,-109.84C148.03,-101.78 153.77,-91.62 158.6,-83.06"/>
<polygon fill="#63b8ff" stroke="#63b8ff" points="161.69,-84.7 163.56,-74.27 155.59,-81.26 161.69,-84.7"/>
</a>
</g>
</g>
<!-- Node6 -->
<g id="Node000006" class="node">
<title>Node6</title>
<g id="a_Node000006"><a xlink:href="SFComponent_8hpp.html" target="_top" xlink:title=" ">
<polygon fill="white" stroke="#666666" points="305.5,-74 207.5,-74 207.5,-55 305.5,-55 305.5,-74"/>
<text text-anchor="middle" x="256.5" y="-62" font-family="Helvetica,sans-Serif" font-size="10.00">SFComponent.hpp</text>
</a>
</g>
</g>
<!-- Node2&#45;&gt;Node6 -->
<g id="edge5_Node000002_Node000006" class="edge">
<title>Node2&#45;&gt;Node6</title>
<g id="a_edge5_Node000002_Node000006"><a xlink:title=" ">
<path fill="none" stroke="#63b8ff" d="M164.48,-109.99C184.22,-100.45 210.17,-87.9 229.47,-78.57"/>
<polygon fill="#63b8ff" stroke="#63b8ff" points="231.15,-81.64 238.63,-74.14 228.1,-75.34 231.15,-81.64"/>
</a>
</g>
</g>
<!-- Node7 -->
<g id="Node000007" class="node">
<title>Node7</title>
<g id="a_Node000007"><a xlink:title=" ">
<polygon fill="#e0e0e0" stroke="#999999" points="119.5,-19 65.5,-19 65.5,0 119.5,0 119.5,-19"/>
<text text-anchor="middle" x="92.5" y="-7" font-family="Helvetica,sans-Serif" font-size="10.00">iostream</text>
</a>
</g>
</g>
<!-- Node6&#45;&gt;Node7 -->
<g id="edge6_Node000006_Node000007" class="edge">
<title>Node6&#45;&gt;Node7</title>
<g id="a_edge6_Node000006_Node000007"><a xlink:title=" ">
<path fill="none" stroke="#63b8ff" d="M230.15,-54.98C202.74,-46.13 159.61,-32.19 128.94,-22.28"/>
<polygon fill="#63b8ff" stroke="#63b8ff" points="129.65,-18.83 119.06,-19.08 127.5,-25.49 129.65,-18.83"/>
</a>
</g>
</g>
<!-- Node8 -->
<g id="Node000008" class="node">
<title>Node8</title>
<g id="a_Node000008"><a xlink:title=" ">
<polygon fill="#e0e0e0" stroke="#999999" points="241.5,-19 137.5,-19 137.5,0 241.5,0 241.5,-19"/>
<text text-anchor="middle" x="189.5" y="-7" font-family="Helvetica,sans-Serif" font-size="10.00">SFML/Graphics.hpp</text>
</a>
</g>
</g>
<!-- Node6&#45;&gt;Node8 -->
<g id="edge7_Node000006_Node000008" class="edge">
<title>Node6&#45;&gt;Node8</title>
<g id="a_edge7_Node000006_Node000008"><a xlink:title=" ">
<path fill="none" stroke="#63b8ff" d="M245.74,-54.98C235.73,-47.07 220.61,-35.11 208.57,-25.58"/>
<polygon fill="#63b8ff" stroke="#63b8ff" points="210.47,-22.63 200.46,-19.17 206.13,-28.12 210.47,-22.63"/>
</a>
</g>
</g>
<!-- Node9 -->
<g id="Node000009" class="node">
<title>Node9</title>
<g id="a_Node000009"><a xlink:title=" ">
<polygon fill="#e0e0e0" stroke="#999999" points="387,-19 260,-19 260,0 387,0 387,-19"/>
<text text-anchor="middle" x="323.5" y="-7" font-family="Helvetica,sans-Serif" font-size="10.00">SFML/System/Clock.hpp</text>
</a>
</g>
</g>
<!-- Node6&#45;&gt;Node9 -->
<g id="edge8_Node000006_Node000009" class="edge">
<title>Node6&#45;&gt;Node9</title>
<g id="a_edge8_Node000006_Node000009"><a xlink:title=" ">
<path fill="none" stroke="#63b8ff" d="M267.26,-54.98C277.27,-47.07 292.39,-35.11 304.43,-25.58"/>
<polygon fill="#63b8ff" stroke="#63b8ff" points="306.87,-28.12 312.54,-19.17 302.53,-22.63 306.87,-28.12"/>
</a>
</g>
</g>
<!-- Node10 -->
<g id="Node000010" class="node">
<title>Node10</title>
<g id="a_Node000010"><a xlink:title=" ">
<polygon fill="#e0e0e0" stroke="#999999" points="528,-19 405,-19 405,0 528,0 528,-19"/>
<text text-anchor="middle" x="466.5" y="-7" font-family="Helvetica,sans-Serif" font-size="10.00">SFML/System/Time.hpp</text>
</a>
</g>
</g>
<!-- Node6&#45;&gt;Node10 -->
<g id="edge9_Node000006_Node000010" class="edge">
<title>Node6&#45;&gt;Node10</title>
<g id="a_edge9_Node000006_Node000010"><a xlink:title=" ">
<path fill="none" stroke="#63b8ff" d="M290.24,-54.98C326.18,-45.91 383.22,-31.52 422.63,-21.57"/>
<polygon fill="#63b8ff" stroke="#63b8ff" points="423.66,-24.92 432.5,-19.08 421.94,-18.14 423.66,-24.92"/>
</a>
</g>
</g>
</g>
</svg>
