<?xml version="1.0" encoding="UTF-8" standalone="no"?>
<!DOCTYPE svg PUBLIC "-//W3C//DTD SVG 1.1//EN"
 "http://www.w3.org/Graphics/SVG/1.1/DTD/svg11.dtd">
<!-- Generated by graphviz version 2.43.0 (0)
 -->
<!-- Title: include/model/squares/Property.hpp Pages: 1 -->
<!--zoomable 412 -->

<svg id="main" version="1.1" xmlns="http://www.w3.org/2000/svg" xmlns:xlink="http://www.w3.org/1999/xlink" xml:space="preserve" onload="init(evt)">
<style type="text/css"><![CDATA[
.node, .edge {opacity: 0.7;}
.node.selected, .edge.selected {opacity: 1;}
.edge:hover path { stroke: red; }
.edge:hover polygon { stroke: red; fill: red; }
]]></style>

<defs>
  <circle id="rim" cx="0" cy="0" r="7"/>
  <circle id="rim2" cx="0" cy="0" r="3.5"/>
  <g id="zoomPlus">
    <use xlink:href="#rim" fill="#404040"><set attributeName="fill" to="#808080" begin="zoomplus.mouseover" end="zoomplus.mouseout"/></use>
    <path d="M-4,0h8M0,-4v8" fill="none" stroke="white" stroke-width="1.5" pointer-events="none"/>
  </g>
  <g id="zoomMin">
    <use xlink:href="#rim" fill="#404040"><set attributeName="fill" to="#808080" begin="zoomminus.mouseover" end="zoomminus.mouseout"/></use>
    <path d="M-4,0h8" fill="none" stroke="white" stroke-width="1.5" pointer-events="none"/>
  </g>
  <g id="arrowUp" transform="translate(30 24)">
    <use xlink:href="#rim"/>
    <path pointer-events="none" fill="none" stroke="white" stroke-width="1.5" d="M0,-3.0v7 M-2.5,-0.5L0,-3.0L2.5,-0.5"/>
  </g>
  <g id="arrowRight" transform="rotate(90) translate(36 -43)">
    <use xlink:href="#rim"/>
    <path pointer-events="none" fill="none" stroke="white" stroke-width="1.5" d="M0,-3.0v7 M-2.5,-0.5L0,-3.0L2.5,-0.5"/>
  </g>
  <g id="arrowDown" transform="rotate(180) translate(-30 -48)">
    <use xlink:href="#rim"/>
    <path pointer-events="none" fill="none" stroke="white" stroke-width="1.5" d="M0,-3.0v7 M-2.5,-0.5L0,-3.0L2.5,-0.5"/>
  </g>
  <g id="arrowLeft" transform="rotate(270) translate(-36 17)">
    <use xlink:href="#rim"/>
    <path pointer-events="none" fill="none" stroke="white" stroke-width="1.5" d="M0,-3.0v7 M-2.5,-0.5L0,-3.0L2.5,-0.5"/>
  </g>
  <g id="resetDef">
    <use xlink:href="#rim2" fill="#404040"><set attributeName="fill" to="#808080" begin="reset.mouseover" end="reset.mouseout"/></use>
  </g>
</defs>
<script type="application/ecmascript">
var viewWidth = 855;
var viewHeight = 412;
var sectionId = 'dynsection-1';
</script>
<script type="application/ecmascript" xlink:href="svg.min.js"/>
<svg id="graph" class="graph">
<g id="viewport">
<title>include/model/squares/Property.hpp</title>
<!-- Node1 -->
<g id="Node000001" class="node">
<title>Node1</title>
<g id="a_Node000001"><a xlink:title=" ">
<polygon fill="#999999" stroke="#666666" points="621,-404 507,-404 507,-374 621,-374 621,-404"/>
<text text-anchor="start" x="515" y="-392" font-family="Helvetica,sans-Serif" font-size="10.00">include/model/squares</text>
<text text-anchor="middle" x="564" y="-381" font-family="Helvetica,sans-Serif" font-size="10.00">/Property.hpp</text>
</a>
</g>
</g>
<!-- Node2 -->
<g id="Node000002" class="node">
<title>Node2</title>
<g id="a_Node000002"><a xlink:href="Board_8hpp.html" target="_top" xlink:title=" ">
<polygon fill="white" stroke="#666666" points="626,-272 502,-272 502,-253 626,-253 626,-272"/>
<text text-anchor="middle" x="564" y="-260" font-family="Helvetica,sans-Serif" font-size="10.00">include/model/Board.hpp</text>
</a>
</g>
</g>
<!-- Node1&#45;&gt;Node2 -->
<g id="edge1_Node000001_Node000002" class="edge">
<title>Node1&#45;&gt;Node2</title>
<g id="a_edge1_Node000001_Node000002"><a xlink:title=" ">
<path fill="none" stroke="#63b8ff" d="M497.06,-373.36C453.85,-360.63 409.55,-339.26 432,-308 448.01,-285.71 475.77,-274.43 501.72,-268.79"/>
<polygon fill="#63b8ff" stroke="#63b8ff" points="496.24,-376.77 506.81,-376.1 498.13,-370.03 496.24,-376.77"/>
</a>
</g>
</g>
<!-- Node14 -->
<g id="Node000014" class="node">
<title>Node14</title>
<g id="a_Node000014"><a xlink:href="Railroad_8hpp.html" target="_top" xlink:title=" ">
<polygon fill="white" stroke="#666666" points="555,-338 441,-338 441,-308 555,-308 555,-338"/>
<text text-anchor="start" x="449" y="-326" font-family="Helvetica,sans-Serif" font-size="10.00">include/model/squares</text>
<text text-anchor="middle" x="498" y="-315" font-family="Helvetica,sans-Serif" font-size="10.00">/Railroad.hpp</text>
</a>
</g>
</g>
<!-- Node1&#45;&gt;Node14 -->
<g id="edge14_Node000001_Node000014" class="edge">
<title>Node1&#45;&gt;Node14</title>
<g id="a_edge14_Node000001_Node000014"><a xlink:title=" ">
<path fill="none" stroke="#63b8ff" d="M541.98,-366.65C532.31,-357.27 521.23,-346.53 512.61,-338.16"/>
<polygon fill="#63b8ff" stroke="#63b8ff" points="539.74,-369.35 549.35,-373.8 544.61,-364.32 539.74,-369.35"/>
</a>
</g>
</g>
<!-- Node15 -->
<g id="Node000015" class="node">
<title>Node15</title>
<g id="a_Node000015"><a xlink:href="Street_8hpp.html" target="_top" xlink:title=" ">
<polygon fill="white" stroke="#666666" points="687,-338 573,-338 573,-308 687,-308 687,-338"/>
<text text-anchor="start" x="581" y="-326" font-family="Helvetica,sans-Serif" font-size="10.00">include/model/squares</text>
<text text-anchor="middle" x="630" y="-315" font-family="Helvetica,sans-Serif" font-size="10.00">/Street.hpp</text>
</a>
</g>
</g>
<!-- Node1&#45;&gt;Node15 -->
<g id="edge16_Node000001_Node000015" class="edge">
<title>Node1&#45;&gt;Node15</title>
<g id="a_edge16_Node000001_Node000015"><a xlink:title=" ">
<path fill="none" stroke="#63b8ff" d="M586.02,-366.65C595.69,-357.27 606.77,-346.53 615.39,-338.16"/>
<polygon fill="#63b8ff" stroke="#63b8ff" points="583.39,-364.32 578.65,-373.8 588.26,-369.35 583.39,-364.32"/>
</a>
</g>
</g>
<!-- Node16 -->
<g id="Node000016" class="node">
<title>Node16</title>
<g id="a_Node000016"><a xlink:href="Utility_8hpp.html" target="_top" xlink:title=" ">
<polygon fill="white" stroke="#666666" points="819,-338 705,-338 705,-308 819,-308 819,-338"/>
<text text-anchor="start" x="713" y="-326" font-family="Helvetica,sans-Serif" font-size="10.00">include/model/squares</text>
<text text-anchor="middle" x="762" y="-315" font-family="Helvetica,sans-Serif" font-size="10.00">/Utility.hpp</text>
</a>
</g>
</g>
<!-- Node1&#45;&gt;Node16 -->
<g id="edge18_Node000001_Node000016" class="edge">
<title>Node1&#45;&gt;Node16</title>
<g id="a_edge18_Node000001_Node000016"><a xlink:title=" ">
<path fill="none" stroke="#63b8ff" d="M617.04,-370.86C648.83,-360.58 688.75,-347.68 718.65,-338.01"/>
<polygon fill="#63b8ff" stroke="#63b8ff" points="615.89,-367.55 607.45,-373.95 618.04,-374.21 615.89,-367.55"/>
</a>
</g>
</g>
<!-- Node3 -->
<g id="Node000003" class="node">
<title>Node3</title>
<g id="a_Node000003"><a xlink:href="GameModel_8hpp.html" target="_top" xlink:title="Core game logic implementation for Monopoly board game.">
<polygon fill="white" stroke="#666666" points="497.5,-151 346.5,-151 346.5,-132 497.5,-132 497.5,-151"/>
<text text-anchor="middle" x="422" y="-139" font-family="Helvetica,sans-Serif" font-size="10.00">include/model/GameModel.hpp</text>
</a>
</g>
</g>
<!-- Node2&#45;&gt;Node3 -->
<g id="edge2_Node000002_Node000003" class="edge">
<title>Node2&#45;&gt;Node3</title>
<g id="a_edge2_Node000002_Node000003"><a xlink:title=" ">
<path fill="none" stroke="#63b8ff" d="M491.59,-252.5C448.33,-245.47 399.28,-234 386,-217 369.47,-195.83 396.3,-165.83 411.96,-151.2"/>
<polygon fill="#63b8ff" stroke="#63b8ff" points="491.16,-255.98 501.58,-254.06 492.24,-249.06 491.16,-255.98"/>
</a>
</g>
</g>
<!-- Node11 -->
<g id="Node000011" class="node">
<title>Node11</title>
<g id="a_Node000011"><a xlink:href="MonopolyRules_8hpp.html" target="_top" xlink:title=" ">
<polygon fill="white" stroke="#666666" points="561,-211.5 395,-211.5 395,-192.5 561,-192.5 561,-211.5"/>
<text text-anchor="middle" x="478" y="-199.5" font-family="Helvetica,sans-Serif" font-size="10.00">include/model/MonopolyRules.hpp</text>
</a>
</g>
</g>
<!-- Node2&#45;&gt;Node11 -->
<g id="edge10_Node000002_Node000011" class="edge">
<title>Node2&#45;&gt;Node11</title>
<g id="a_edge10_Node000002_Node000011"><a xlink:title=" ">
<path fill="none" stroke="#63b8ff" d="M542.92,-247.16C526.58,-236.05 504.48,-221.01 490.74,-211.67"/>
<polygon fill="#63b8ff" stroke="#63b8ff" points="541.07,-250.14 551.31,-252.87 545.01,-244.35 541.07,-250.14"/>
</a>
</g>
</g>
<!-- Node12 -->
<g id="Node000012" class="node">
<title>Node12</title>
<g id="a_Node000012"><a xlink:href="BoardSquareComposite_8hpp.html" target="_top" xlink:title=" ">
<polygon fill="white" stroke="#666666" points="721,-217 579,-217 579,-187 721,-187 721,-217"/>
<text text-anchor="start" x="587" y="-205" font-family="Helvetica,sans-Serif" font-size="10.00">include/view/components</text>
<text text-anchor="middle" x="650" y="-194" font-family="Helvetica,sans-Serif" font-size="10.00">/BoardSquareComposite.hpp</text>
</a>
</g>
</g>
<!-- Node2&#45;&gt;Node12 -->
<g id="edge12_Node000002_Node000012" class="edge">
<title>Node2&#45;&gt;Node12</title>
<g id="a_edge12_Node000002_Node000012"><a xlink:title=" ">
<path fill="none" stroke="#63b8ff" d="M585.27,-247.03C598.69,-237.9 615.93,-226.17 629.25,-217.11"/>
<polygon fill="#63b8ff" stroke="#63b8ff" points="582.99,-244.35 576.69,-252.87 586.93,-250.14 582.99,-244.35"/>
</a>
</g>
</g>
<!-- Node13 -->
<g id="Node000013" class="node">
<title>Node13</title>
<g id="a_Node000013"><a xlink:href="Board_8cpp.html" target="_top" xlink:title=" ">
<polygon fill="white" stroke="#666666" points="846.5,-211.5 739.5,-211.5 739.5,-192.5 846.5,-192.5 846.5,-211.5"/>
<text text-anchor="middle" x="793" y="-199.5" font-family="Helvetica,sans-Serif" font-size="10.00">src/model/Board.cpp</text>
</a>
</g>
</g>
<!-- Node2&#45;&gt;Node13 -->
<g id="edge13_Node000002_Node000013" class="edge">
<title>Node2&#45;&gt;Node13</title>
<g id="a_edge13_Node000002_Node000013"><a xlink:title=" ">
<path fill="none" stroke="#63b8ff" d="M607.19,-250.47C651.46,-239.16 719.36,-221.81 759.66,-211.52"/>
<polygon fill="#63b8ff" stroke="#63b8ff" points="606.12,-247.13 597.3,-252.99 607.85,-253.91 606.12,-247.13"/>
</a>
</g>
</g>
<!-- Node4 -->
<g id="Node000004" class="node">
<title>Node4</title>
<g id="a_Node000004"><a xlink:href="GameController_8hpp.html" target="_top" xlink:title="Main controller class for the Monopoly game implementation.">
<polygon fill="white" stroke="#666666" points="406,-96 300,-96 300,-66 406,-66 406,-96"/>
<text text-anchor="start" x="308" y="-84" font-family="Helvetica,sans-Serif" font-size="10.00">include/controller</text>
<text text-anchor="middle" x="353" y="-73" font-family="Helvetica,sans-Serif" font-size="10.00">/GameController.hpp</text>
</a>
</g>
</g>
<!-- Node3&#45;&gt;Node4 -->
<g id="edge3_Node000003_Node000004" class="edge">
<title>Node3&#45;&gt;Node4</title>
<g id="a_edge3_Node000003_Node000004"><a xlink:title=" ">
<path fill="none" stroke="#63b8ff" d="M403.99,-125.23C393.37,-116.23 380.02,-104.91 369.65,-96.11"/>
<polygon fill="#63b8ff" stroke="#63b8ff" points="401.93,-128.07 411.82,-131.87 406.45,-122.73 401.93,-128.07"/>
</a>
</g>
</g>
<!-- Node10 -->
<g id="Node000010" class="node">
<title>Node10</title>
<g id="a_Node000010"><a xlink:href="GameModel_8cpp.html" target="_top" xlink:title=" ">
<polygon fill="white" stroke="#666666" points="558,-90.5 424,-90.5 424,-71.5 558,-71.5 558,-90.5"/>
<text text-anchor="middle" x="491" y="-78.5" font-family="Helvetica,sans-Serif" font-size="10.00">src/model/GameModel.cpp</text>
</a>
</g>
</g>
<!-- Node3&#45;&gt;Node10 -->
<g id="edge9_Node000003_Node000010" class="edge">
<title>Node3&#45;&gt;Node10</title>
<g id="a_edge9_Node000003_Node000010"><a xlink:title=" ">
<path fill="none" stroke="#63b8ff" d="M440.02,-125.22C453,-114.21 470.06,-99.75 480.78,-90.67"/>
<polygon fill="#63b8ff" stroke="#63b8ff" points="437.55,-122.73 432.18,-131.87 442.07,-128.07 437.55,-122.73"/>
</a>
</g>
</g>
<!-- Node5 -->
<g id="Node000005" class="node">
<title>Node5</title>
<g id="a_Node000005"><a xlink:href="GameController_8cpp.html" target="_top" xlink:title=" ">
<polygon fill="white" stroke="#666666" points="162,-24.5 0,-24.5 0,-5.5 162,-5.5 162,-24.5"/>
<text text-anchor="middle" x="81" y="-12.5" font-family="Helvetica,sans-Serif" font-size="10.00">src/controller/GameController.cpp</text>
</a>
</g>
</g>
<!-- Node4&#45;&gt;Node5 -->
<g id="edge4_Node000004_Node000005" class="edge">
<title>Node4&#45;&gt;Node5</title>
<g id="a_edge4_Node000004_Node000005"><a xlink:title=" ">
<path fill="none" stroke="#63b8ff" d="M289.84,-65.14C236.33,-52.55 161.47,-34.93 117.43,-24.57"/>
<polygon fill="#63b8ff" stroke="#63b8ff" points="289.37,-68.62 299.91,-67.51 290.98,-61.81 289.37,-68.62"/>
</a>
</g>
</g>
<!-- Node6 -->
<g id="Node000006" class="node">
<title>Node6</title>
<g id="a_Node000006"><a xlink:href="GameState_8cpp.html" target="_top" xlink:title=" ">
<polygon fill="white" stroke="#666666" points="283.5,-30 180.5,-30 180.5,0 283.5,0 283.5,-30"/>
<text text-anchor="start" x="188.5" y="-18" font-family="Helvetica,sans-Serif" font-size="10.00">src/controller/states</text>
<text text-anchor="middle" x="232" y="-7" font-family="Helvetica,sans-Serif" font-size="10.00">/GameState.cpp</text>
</a>
</g>
</g>
<!-- Node4&#45;&gt;Node6 -->
<g id="edge5_Node000004_Node000006" class="edge">
<title>Node4&#45;&gt;Node6</title>
<g id="a_edge5_Node000004_Node000006"><a xlink:title=" ">
<path fill="none" stroke="#63b8ff" d="M317.53,-61.24C298.65,-51.25 275.82,-39.18 258.49,-30.01"/>
<polygon fill="#63b8ff" stroke="#63b8ff" points="315.97,-64.37 326.45,-65.95 319.24,-58.19 315.97,-64.37"/>
</a>
</g>
</g>
<!-- Node7 -->
<g id="Node000007" class="node">
<title>Node7</title>
<g id="a_Node000007"><a xlink:href="RollDiceState_8cpp.html" target="_top" xlink:title=" ">
<polygon fill="white" stroke="#666666" points="404.5,-30 301.5,-30 301.5,0 404.5,0 404.5,-30"/>
<text text-anchor="start" x="309.5" y="-18" font-family="Helvetica,sans-Serif" font-size="10.00">src/controller/states</text>
<text text-anchor="middle" x="353" y="-7" font-family="Helvetica,sans-Serif" font-size="10.00">/RollDiceState.cpp</text>
</a>
</g>
</g>
<!-- Node4&#45;&gt;Node7 -->
<g id="edge6_Node000004_Node000007" class="edge">
<title>Node4&#45;&gt;Node7</title>
<g id="a_edge6_Node000004_Node000007"><a xlink:title=" ">
<path fill="none" stroke="#63b8ff" d="M353,-55.54C353,-46.96 353,-37.61 353,-30.16"/>
<polygon fill="#63b8ff" stroke="#63b8ff" points="349.5,-55.8 353,-65.8 356.5,-55.8 349.5,-55.8"/>
</a>
</g>
</g>
<!-- Node8 -->
<g id="Node000008" class="node">
<title>Node8</title>
<g id="a_Node000008"><a xlink:href="StartState_8cpp.html" target="_top" xlink:title=" ">
<polygon fill="white" stroke="#666666" points="525.5,-30 422.5,-30 422.5,0 525.5,0 525.5,-30"/>
<text text-anchor="start" x="430.5" y="-18" font-family="Helvetica,sans-Serif" font-size="10.00">src/controller/states</text>
<text text-anchor="middle" x="474" y="-7" font-family="Helvetica,sans-Serif" font-size="10.00">/StartState.cpp</text>
</a>
</g>
</g>
<!-- Node4&#45;&gt;Node8 -->
<g id="edge7_Node000004_Node000008" class="edge">
<title>Node4&#45;&gt;Node8</title>
<g id="a_edge7_Node000004_Node000008"><a xlink:title=" ">
<path fill="none" stroke="#63b8ff" d="M388.47,-61.24C407.35,-51.25 430.18,-39.18 447.51,-30.01"/>
<polygon fill="#63b8ff" stroke="#63b8ff" points="386.76,-58.19 379.55,-65.95 390.03,-64.37 386.76,-58.19"/>
</a>
</g>
</g>
<!-- Node9 -->
<g id="Node000009" class="node">
<title>Node9</title>
<g id="a_Node000009"><a xlink:href="TurnState_8cpp.html" target="_top" xlink:title=" ">
<polygon fill="white" stroke="#666666" points="646.5,-30 543.5,-30 543.5,0 646.5,0 646.5,-30"/>
<text text-anchor="start" x="551.5" y="-18" font-family="Helvetica,sans-Serif" font-size="10.00">src/controller/states</text>
<text text-anchor="middle" x="595" y="-7" font-family="Helvetica,sans-Serif" font-size="10.00">/TurnState.cpp</text>
</a>
</g>
</g>
<!-- Node4&#45;&gt;Node9 -->
<g id="edge8_Node000004_Node000009" class="edge">
<title>Node4&#45;&gt;Node9</title>
<g id="a_edge8_Node000004_Node000009"><a xlink:title=" ">
<path fill="none" stroke="#63b8ff" d="M415.93,-63.36C455.52,-52.89 506,-39.54 543.26,-29.68"/>
<polygon fill="#63b8ff" stroke="#63b8ff" points="414.88,-60.01 406.11,-65.95 416.67,-66.78 414.88,-60.01"/>
</a>
</g>
</g>
<!-- Node11&#45;&gt;Node3 -->
<g id="edge11_Node000011_Node000003" class="edge">
<title>Node11&#45;&gt;Node3</title>
<g id="a_edge11_Node000011_Node000003"><a xlink:title=" ">
<path fill="none" stroke="#63b8ff" d="M462.77,-185.09C452.31,-174.17 438.83,-160.08 430.3,-151.17"/>
<polygon fill="#63b8ff" stroke="#63b8ff" points="460.29,-187.56 469.74,-192.37 465.35,-182.72 460.29,-187.56"/>
</a>
</g>
</g>
<!-- Node14&#45;&gt;Node2 -->
<g id="edge15_Node000014_Node000002" class="edge">
<title>Node14&#45;&gt;Node2</title>
<g id="a_edge15_Node000014_Node000002"><a xlink:title=" ">
<path fill="none" stroke="#63b8ff" d="M521.74,-300.96C532.89,-291.07 545.57,-279.83 554.11,-272.27"/>
<polygon fill="#63b8ff" stroke="#63b8ff" points="519.14,-298.59 513.98,-307.84 523.78,-303.82 519.14,-298.59"/>
</a>
</g>
</g>
<!-- Node15&#45;&gt;Node2 -->
<g id="edge17_Node000015_Node000002" class="edge">
<title>Node15&#45;&gt;Node2</title>
<g id="a_edge17_Node000015_Node000002"><a xlink:title=" ">
<path fill="none" stroke="#63b8ff" d="M606.26,-300.96C595.11,-291.07 582.43,-279.83 573.89,-272.27"/>
<polygon fill="#63b8ff" stroke="#63b8ff" points="604.22,-303.82 614.02,-307.84 608.86,-298.59 604.22,-303.82"/>
</a>
</g>
</g>
<!-- Node16&#45;&gt;Node2 -->
<g id="edge19_Node000016_Node000002" class="edge">
<title>Node16&#45;&gt;Node2</title>
<g id="a_edge19_Node000016_Node000002"><a xlink:title=" ">
<path fill="none" stroke="#63b8ff" d="M704.52,-305.02C667.94,-294.21 622.13,-280.67 592.95,-272.05"/>
<polygon fill="#63b8ff" stroke="#63b8ff" points="703.99,-308.51 714.57,-307.99 705.98,-301.8 703.99,-308.51"/>
</a>
</g>
</g>
</g>
</svg>

<g id="navigator" transform="translate(0 0)" fill="#404254">
  <rect fill="#f2f5e9" fill-opacity="0.5" stroke="#606060" stroke-width=".5" x="0" y="0" width="60" height="60"/>
  <use id="zoomplus" xlink:href="#zoomPlus" x="17" y="9" onmousedown="handleZoom(evt,'in')"/>
  <use id="zoomminus" xlink:href="#zoomMin" x="42" y="9" onmousedown="handleZoom(evt,'out')"/>
  <use id="reset" xlink:href="#resetDef" x="30" y="36" onmousedown="handleReset()"/>
   <use id="arrowup" xlink:href="#arrowUp" x="0" y="0" onmousedown="handlePan(0,-1)"/>
  <use id="arrowright" xlink:href="#arrowRight" x="0" y="0" onmousedown="handlePan(1,0)"/>
  <use id="arrowdown" xlink:href="#arrowDown" x="0" y="0" onmousedown="handlePan(0,1)"/>
  <use id="arrowleft" xlink:href="#arrowLeft" x="0" y="0" onmousedown="handlePan(-1,0)"/>
</g>
<svg viewBox="0 0 15 15" width="100%" height="30px" preserveAspectRatio="xMaxYMin meet">
 <g id="arrow_out" transform="scale(0.3 0.3)">
  <a xlink:href="Property_8hpp__dep__incl_org.svg" target="_base">
   <rect id="button" ry="5" rx="5" y="6" x="6" height="38" width="38"
        fill="#f2f5e9" fill-opacity="0.5" stroke="#606060" stroke-width="1.0"/>
   <path id="arrow"
     d="M 11.500037,31.436501 C 11.940474,20.09759 22.043105,11.32322 32.158766,21.979434 L 37.068811,17.246167 C 37.068811,17.246167 37.088388,32 37.088388,32 L 22.160133,31.978069 C 22.160133,31.978069 26.997745,27.140456 26.997745,27.140456 C 18.528582,18.264221 13.291696,25.230495 11.500037,31.436501 z"
     style="fill:#404040;"/>
  </a>
 </g>
</svg>

<style type='text/css'>
<![CDATA[
[data-mouse-over-selected='false'] { opacity: 0.7; }
[data-mouse-over-selected='true']  { opacity: 1.0; }
]]>
</style>
<script type="application/ecmascript"><![CDATA[
document.addEventListener('DOMContentLoaded', (event) => {
  highlightEdges();
  highlightAdjacentNodes();
});
]]></script>
</svg>
