<?xml version="1.0" encoding="UTF-8" standalone="no"?>
<!DOCTYPE svg PUBLIC "-//W3C//DTD SVG 1.1//EN"
 "http://www.w3.org/Graphics/SVG/1.1/DTD/svg11.dtd">
<!-- Generated by graphviz version 2.43.0 (0)
 -->
<!-- Title: include/model/squares/Railroad.hpp Pages: 1 -->
<svg width="365pt" height="225pt"
 viewBox="0.00 0.00 364.50 225.00" xmlns="http://www.w3.org/2000/svg" xmlns:xlink="http://www.w3.org/1999/xlink">
<g id="graph0" class="graph" transform="scale(1 1) rotate(0) translate(4 221)">
<title>include/model/squares/Railroad.hpp</title>
<!-- Node1 -->
<g id="Node000001" class="node">
<title>Node1</title>
<g id="a_Node000001"><a xlink:title=" ">
<polygon fill="#999999" stroke="#666666" points="221.5,-217 107.5,-217 107.5,-187 221.5,-187 221.5,-217"/>
<text text-anchor="start" x="115.5" y="-205" font-family="Helvetica,sans-Serif" font-size="10.00">include/model/squares</text>
<text text-anchor="middle" x="164.5" y="-194" font-family="Helvetica,sans-Serif" font-size="10.00">/Railroad.hpp</text>
</a>
</g>
</g>
<!-- Node2 -->
<g id="Node000002" class="node">
<title>Node2</title>
<g id="a_Node000002"><a xlink:href="Property_8hpp.html" target="_top" xlink:title=" ">
<polygon fill="white" stroke="#666666" points="139,-145.5 68,-145.5 68,-126.5 139,-126.5 139,-145.5"/>
<text text-anchor="middle" x="103.5" y="-133.5" font-family="Helvetica,sans-Serif" font-size="10.00">Property.hpp</text>
</a>
</g>
</g>
<!-- Node1&#45;&gt;Node2 -->
<g id="edge1_Node000001_Node000002" class="edge">
<title>Node1&#45;&gt;Node2</title>
<g id="a_edge1_Node000001_Node000002"><a xlink:title=" ">
<path fill="none" stroke="#63b8ff" d="M150.96,-186.8C141.45,-176.82 128.72,-163.46 118.83,-153.09"/>
<polygon fill="#63b8ff" stroke="#63b8ff" points="121.36,-150.67 111.93,-145.84 116.3,-155.5 121.36,-150.67"/>
</a>
</g>
</g>
<!-- Node9 -->
<g id="Node000009" class="node">
<title>Node9</title>
<g id="a_Node000009"><a xlink:href="RailroadRentCalculator_8hpp.html" target="_top" xlink:title=" ">
<polygon fill="white" stroke="#666666" points="296,-151 157,-151 157,-121 296,-121 296,-151"/>
<text text-anchor="start" x="165" y="-139" font-family="Helvetica,sans-Serif" font-size="10.00">../../utils/strategy</text>
<text text-anchor="middle" x="226.5" y="-128" font-family="Helvetica,sans-Serif" font-size="10.00">/RailroadRentCalculator.hpp</text>
</a>
</g>
</g>
<!-- Node1&#45;&gt;Node9 -->
<g id="edge9_Node000001_Node000009" class="edge">
<title>Node1&#45;&gt;Node9</title>
<g id="a_edge9_Node000001_Node000009"><a xlink:title=" ">
<path fill="none" stroke="#63b8ff" d="M178.26,-186.8C186.29,-178.51 196.57,-167.89 205.59,-158.59"/>
<polygon fill="#63b8ff" stroke="#63b8ff" points="208.33,-160.78 212.78,-151.16 203.31,-155.91 208.33,-160.78"/>
</a>
</g>
</g>
<!-- Node3 -->
<g id="Node000003" class="node">
<title>Node3</title>
<g id="a_Node000003"><a xlink:href="Square_8hpp.html" target="_top" xlink:title=" ">
<polygon fill="white" stroke="#666666" points="136.5,-79.5 70.5,-79.5 70.5,-60.5 136.5,-60.5 136.5,-79.5"/>
<text text-anchor="middle" x="103.5" y="-67.5" font-family="Helvetica,sans-Serif" font-size="10.00">Square.hpp</text>
</a>
</g>
</g>
<!-- Node2&#45;&gt;Node3 -->
<g id="edge2_Node000002_Node000003" class="edge">
<title>Node2&#45;&gt;Node3</title>
<g id="a_edge2_Node000002_Node000003"><a xlink:title=" ">
<path fill="none" stroke="#63b8ff" d="M103.5,-126.37C103.5,-117.16 103.5,-102.29 103.5,-90.27"/>
<polygon fill="#63b8ff" stroke="#63b8ff" points="107,-89.91 103.5,-79.91 100,-89.91 107,-89.91"/>
</a>
</g>
</g>
<!-- Node5 -->
<g id="Node000005" class="node">
<title>Node5</title>
<g id="a_Node000005"><a xlink:title=" ">
<polygon fill="#e0e0e0" stroke="#999999" points="59,-19 0,-19 0,0 59,0 59,-19"/>
<text text-anchor="middle" x="29.5" y="-7" font-family="Helvetica,sans-Serif" font-size="10.00">stdexcept</text>
</a>
</g>
</g>
<!-- Node2&#45;&gt;Node5 -->
<g id="edge7_Node000002_Node000005" class="edge">
<title>Node2&#45;&gt;Node5</title>
<g id="a_edge7_Node000002_Node000005"><a xlink:title=" ">
<path fill="none" stroke="#63b8ff" d="M94.9,-126.4C85.75,-116.9 71.25,-100.83 61.5,-85 50.34,-66.89 41.21,-44.2 35.59,-28.65"/>
<polygon fill="#63b8ff" stroke="#63b8ff" points="38.88,-27.46 32.29,-19.16 32.27,-29.76 38.88,-27.46"/>
</a>
</g>
</g>
<!-- Node8 -->
<g id="Node000008" class="node">
<title>Node8</title>
<g id="a_Node000008"><a xlink:href="StrategyRentCalculator_8hpp.html" target="_top" xlink:title=" ">
<polygon fill="white" stroke="#666666" points="294.5,-85 154.5,-85 154.5,-55 294.5,-55 294.5,-85"/>
<text text-anchor="start" x="162.5" y="-73" font-family="Helvetica,sans-Serif" font-size="10.00">../../utils/strategy</text>
<text text-anchor="middle" x="224.5" y="-62" font-family="Helvetica,sans-Serif" font-size="10.00">/StrategyRentCalculator.hpp</text>
</a>
</g>
</g>
<!-- Node2&#45;&gt;Node8 -->
<g id="edge8_Node000002_Node000008" class="edge">
<title>Node2&#45;&gt;Node8</title>
<g id="a_edge8_Node000002_Node000008"><a xlink:title=" ">
<path fill="none" stroke="#63b8ff" d="M119.82,-126.37C137.39,-117.07 165.91,-101.99 188.74,-89.91"/>
<polygon fill="#63b8ff" stroke="#63b8ff" points="190.61,-92.89 197.81,-85.12 187.34,-86.7 190.61,-92.89"/>
</a>
</g>
</g>
<!-- Node4 -->
<g id="Node000004" class="node">
<title>Node4</title>
<g id="a_Node000004"><a xlink:title=" ">
<polygon fill="#e0e0e0" stroke="#999999" points="129.5,-19 77.5,-19 77.5,0 129.5,0 129.5,-19"/>
<text text-anchor="middle" x="103.5" y="-7" font-family="Helvetica,sans-Serif" font-size="10.00">memory</text>
</a>
</g>
</g>
<!-- Node3&#45;&gt;Node4 -->
<g id="edge3_Node000003_Node000004" class="edge">
<title>Node3&#45;&gt;Node4</title>
<g id="a_edge3_Node000003_Node000004"><a xlink:title=" ">
<path fill="none" stroke="#63b8ff" d="M103.5,-60.37C103.5,-52.25 103.5,-39.81 103.5,-29.39"/>
<polygon fill="#63b8ff" stroke="#63b8ff" points="107,-29.17 103.5,-19.17 100,-29.17 107,-29.17"/>
</a>
</g>
</g>
<!-- Node3&#45;&gt;Node5 -->
<g id="edge4_Node000003_Node000005" class="edge">
<title>Node3&#45;&gt;Node5</title>
<g id="a_edge4_Node000003_Node000005"><a xlink:title=" ">
<path fill="none" stroke="#63b8ff" d="M92.58,-60.37C80.99,-51.21 62.47,-36.56 48.48,-25.51"/>
<polygon fill="#63b8ff" stroke="#63b8ff" points="50.48,-22.62 40.46,-19.17 46.14,-28.11 50.48,-22.62"/>
</a>
</g>
</g>
<!-- Node6 -->
<g id="Node000006" class="node">
<title>Node6</title>
<g id="a_Node000006"><a xlink:title=" ">
<polygon fill="#e0e0e0" stroke="#999999" points="189,-19 148,-19 148,0 189,0 189,-19"/>
<text text-anchor="middle" x="168.5" y="-7" font-family="Helvetica,sans-Serif" font-size="10.00">string</text>
</a>
</g>
</g>
<!-- Node3&#45;&gt;Node6 -->
<g id="edge5_Node000003_Node000006" class="edge">
<title>Node3&#45;&gt;Node6</title>
<g id="a_edge5_Node000003_Node000006"><a xlink:title=" ">
<path fill="none" stroke="#63b8ff" d="M113.09,-60.37C123.08,-51.38 138.93,-37.11 151.13,-26.14"/>
<polygon fill="#63b8ff" stroke="#63b8ff" points="153.78,-28.46 158.87,-19.17 149.1,-23.26 153.78,-28.46"/>
</a>
</g>
</g>
<!-- Node7 -->
<g id="Node000007" class="node">
<title>Node7</title>
<g id="a_Node000007"><a xlink:title=" ">
<polygon fill="#e0e0e0" stroke="#999999" points="247.5,-19 207.5,-19 207.5,0 247.5,0 247.5,-19"/>
<text text-anchor="middle" x="227.5" y="-7" font-family="Helvetica,sans-Serif" font-size="10.00">utility</text>
</a>
</g>
</g>
<!-- Node3&#45;&gt;Node7 -->
<g id="edge6_Node000003_Node000007" class="edge">
<title>Node3&#45;&gt;Node7</title>
<g id="a_edge6_Node000003_Node000007"><a xlink:title=" ">
<path fill="none" stroke="#63b8ff" d="M121.53,-60.49C142.19,-50.75 176.28,-34.66 200.2,-23.38"/>
<polygon fill="#63b8ff" stroke="#63b8ff" points="201.9,-26.45 209.45,-19.02 198.91,-20.12 201.9,-26.45"/>
</a>
</g>
</g>
<!-- Node9&#45;&gt;Node8 -->
<g id="edge10_Node000009_Node000008" class="edge">
<title>Node9&#45;&gt;Node8</title>
<g id="a_edge10_Node000009_Node000008"><a xlink:title=" ">
<path fill="none" stroke="#63b8ff" d="M226.06,-120.8C225.82,-113.34 225.53,-103.99 225.26,-95.41"/>
<polygon fill="#63b8ff" stroke="#63b8ff" points="228.75,-95.05 224.94,-85.16 221.76,-95.27 228.75,-95.05"/>
</a>
</g>
</g>
<!-- Node10 -->
<g id="Node000010" class="node">
<title>Node10</title>
<g id="a_Node000010"><a xlink:title=" ">
<polygon fill="#e0e0e0" stroke="#999999" points="356.5,-79.5 312.5,-79.5 312.5,-60.5 356.5,-60.5 356.5,-79.5"/>
<text text-anchor="middle" x="334.5" y="-67.5" font-family="Helvetica,sans-Serif" font-size="10.00">cmath</text>
</a>
</g>
</g>
<!-- Node9&#45;&gt;Node10 -->
<g id="edge11_Node000009_Node000010" class="edge">
<title>Node9&#45;&gt;Node10</title>
<g id="a_edge11_Node000009_Node000010"><a xlink:title=" ">
<path fill="none" stroke="#63b8ff" d="M250.2,-120.95C268.39,-110.18 293.36,-95.38 311.4,-84.69"/>
<polygon fill="#63b8ff" stroke="#63b8ff" points="313.31,-87.63 320.13,-79.52 309.74,-81.6 313.31,-87.63"/>
</a>
</g>
</g>
</g>
</svg>
