<?xml version="1.0" encoding="UTF-8" standalone="no"?>
<!DOCTYPE svg PUBLIC "-//W3C//DTD SVG 1.1//EN"
 "http://www.w3.org/Graphics/SVG/1.1/DTD/svg11.dtd">
<!-- Generated by graphviz version 2.43.0 (0)
 -->
<!-- Title: include/utils/state/RollDiceState.hpp Pages: 1 -->
<svg width="230pt" height="203pt"
 viewBox="0.00 0.00 229.50 203.00" xmlns="http://www.w3.org/2000/svg" xmlns:xlink="http://www.w3.org/1999/xlink">
<g id="graph0" class="graph" transform="scale(1 1) rotate(0) translate(4 199)">
<title>include/utils/state/RollDiceState.hpp</title>
<!-- Node1 -->
<g id="Node000001" class="node">
<title>Node1</title>
<g id="a_Node000001"><a xlink:title=" ">
<polygon fill="#999999" stroke="#666666" points="139,-195 40,-195 40,-165 139,-165 139,-195"/>
<text text-anchor="start" x="48" y="-183" font-family="Helvetica,sans-Serif" font-size="10.00">include/utils/state</text>
<text text-anchor="middle" x="89.5" y="-172" font-family="Helvetica,sans-Serif" font-size="10.00">/RollDiceState.hpp</text>
</a>
</g>
</g>
<!-- Node2 -->
<g id="Node000002" class="node">
<title>Node2</title>
<g id="a_Node000002"><a xlink:href="GameState_8hpp.html" target="_top" xlink:title=" ">
<polygon fill="white" stroke="#666666" points="132,-74 47,-74 47,-55 132,-55 132,-74"/>
<text text-anchor="middle" x="89.5" y="-62" font-family="Helvetica,sans-Serif" font-size="10.00">GameState.hpp</text>
</a>
</g>
</g>
<!-- Node1&#45;&gt;Node2 -->
<g id="edge1_Node000001_Node000002" class="edge">
<title>Node1&#45;&gt;Node2</title>
<g id="a_edge1_Node000001_Node000002"><a xlink:title=" ">
<path fill="none" stroke="#63b8ff" d="M83.21,-164.81C77.81,-150.92 71.37,-129.11 74.5,-110 75.97,-101.05 78.99,-91.47 81.94,-83.51"/>
<polygon fill="#63b8ff" stroke="#63b8ff" points="85.22,-84.74 85.64,-74.15 78.71,-82.16 85.22,-84.74"/>
</a>
</g>
</g>
<!-- Node5 -->
<g id="Node000005" class="node">
<title>Node5</title>
<g id="a_Node000005"><a xlink:href="LandState_8hpp.html" target="_top" xlink:title=" ">
<polygon fill="white" stroke="#666666" points="163.5,-129 83.5,-129 83.5,-110 163.5,-110 163.5,-129"/>
<text text-anchor="middle" x="123.5" y="-117" font-family="Helvetica,sans-Serif" font-size="10.00">LandState.hpp</text>
</a>
</g>
</g>
<!-- Node1&#45;&gt;Node5 -->
<g id="edge4_Node000001_Node000005" class="edge">
<title>Node1&#45;&gt;Node5</title>
<g id="a_edge4_Node000001_Node000005"><a xlink:title=" ">
<path fill="none" stroke="#63b8ff" d="M97.73,-164.84C102.41,-156.78 108.32,-146.62 113.3,-138.06"/>
<polygon fill="#63b8ff" stroke="#63b8ff" points="116.41,-139.67 118.41,-129.27 110.35,-136.15 116.41,-139.67"/>
</a>
</g>
</g>
<!-- Node3 -->
<g id="Node000003" class="node">
<title>Node3</title>
<g id="a_Node000003"><a xlink:title=" ">
<polygon fill="#e0e0e0" stroke="#999999" points="59,-19 0,-19 0,0 59,0 59,-19"/>
<text text-anchor="middle" x="29.5" y="-7" font-family="Helvetica,sans-Serif" font-size="10.00">stdexcept</text>
</a>
</g>
</g>
<!-- Node2&#45;&gt;Node3 -->
<g id="edge2_Node000002_Node000003" class="edge">
<title>Node2&#45;&gt;Node3</title>
<g id="a_edge2_Node000002_Node000003"><a xlink:title=" ">
<path fill="none" stroke="#63b8ff" d="M79.86,-54.98C70.99,-47.15 57.63,-35.34 46.89,-25.86"/>
<polygon fill="#63b8ff" stroke="#63b8ff" points="49.13,-23.17 39.32,-19.17 44.49,-28.41 49.13,-23.17"/>
</a>
</g>
</g>
<!-- Node4 -->
<g id="Node000004" class="node">
<title>Node4</title>
<g id="a_Node000004"><a xlink:title=" ">
<polygon fill="#e0e0e0" stroke="#999999" points="221.5,-19 77.5,-19 77.5,0 221.5,0 221.5,-19"/>
<text text-anchor="middle" x="149.5" y="-7" font-family="Helvetica,sans-Serif" font-size="10.00">SFML/Window/Keyboard.hpp</text>
</a>
</g>
</g>
<!-- Node2&#45;&gt;Node4 -->
<g id="edge3_Node000002_Node000004" class="edge">
<title>Node2&#45;&gt;Node4</title>
<g id="a_edge3_Node000002_Node000004"><a xlink:title=" ">
<path fill="none" stroke="#63b8ff" d="M99.14,-54.98C108.01,-47.15 121.37,-35.34 132.11,-25.86"/>
<polygon fill="#63b8ff" stroke="#63b8ff" points="134.51,-28.41 139.68,-19.17 129.87,-23.17 134.51,-28.41"/>
</a>
</g>
</g>
<!-- Node5&#45;&gt;Node2 -->
<g id="edge5_Node000005_Node000002" class="edge">
<title>Node5&#45;&gt;Node2</title>
<g id="a_edge5_Node000005_Node000002"><a xlink:title=" ">
<path fill="none" stroke="#63b8ff" d="M117.89,-109.75C113.18,-102.42 106.33,-91.73 100.53,-82.7"/>
<polygon fill="#63b8ff" stroke="#63b8ff" points="103.36,-80.62 95.01,-74.09 97.46,-84.4 103.36,-80.62"/>
</a>
</g>
</g>
</g>
</svg>
