<?xml version="1.0" encoding="UTF-8" standalone="no"?>
<!DOCTYPE svg PUBLIC "-//W3C//DTD SVG 1.1//EN"
 "http://www.w3.org/Graphics/SVG/1.1/DTD/svg11.dtd">
<!-- Generated by graphviz version 2.43.0 (0)
 -->
<!-- Title: include/view/components/SFComponent.hpp Pages: 1 -->
<svg width="2403pt" height="434pt"
 viewBox="0.00 0.00 2403.00 434.00" xmlns="http://www.w3.org/2000/svg" xmlns:xlink="http://www.w3.org/1999/xlink">
<g id="graph0" class="graph" transform="scale(1 1) rotate(0) translate(4 430)">
<title>include/view/components/SFComponent.hpp</title>
<!-- Node1 -->
<g id="Node000001" class="node">
<title>Node1</title>
<g id="a_Node000001"><a xlink:title=" ">
<polygon fill="#999999" stroke="#666666" points="772,-426 645,-426 645,-396 772,-396 772,-426"/>
<text text-anchor="start" x="653" y="-414" font-family="Helvetica,sans-Serif" font-size="10.00">include/view/components</text>
<text text-anchor="middle" x="708.5" y="-403" font-family="Helvetica,sans-Serif" font-size="10.00">/SFComponent.hpp</text>
</a>
</g>
</g>
<!-- Node2 -->
<g id="Node000002" class="node">
<title>Node2</title>
<g id="a_Node000002"><a xlink:href="Button_8hpp.html" target="_top" xlink:title=" ">
<polygon fill="white" stroke="#666666" points="476,-360 349,-360 349,-330 476,-330 476,-360"/>
<text text-anchor="start" x="357" y="-348" font-family="Helvetica,sans-Serif" font-size="10.00">include/view/components</text>
<text text-anchor="middle" x="412.5" y="-337" font-family="Helvetica,sans-Serif" font-size="10.00">/Button.hpp</text>
</a>
</g>
</g>
<!-- Node1&#45;&gt;Node2 -->
<g id="edge1_Node000001_Node000002" class="edge">
<title>Node1&#45;&gt;Node2</title>
<g id="a_edge1_Node000001_Node000002"><a xlink:title=" ">
<path fill="none" stroke="#63b8ff" d="M634.78,-394.06C586.05,-383.52 522.81,-369.85 476.25,-359.78"/>
<polygon fill="#63b8ff" stroke="#63b8ff" points="634.12,-397.5 644.64,-396.19 635.6,-390.66 634.12,-397.5"/>
</a>
</g>
</g>
<!-- Node4 -->
<g id="Node000004" class="node">
<title>Node4</title>
<g id="a_Node000004"><a xlink:href="MonopolyBoard_8hpp.html" target="_top" xlink:title=" ">
<polygon fill="white" stroke="#666666" points="654,-360 527,-360 527,-330 654,-330 654,-360"/>
<text text-anchor="start" x="535" y="-348" font-family="Helvetica,sans-Serif" font-size="10.00">include/view/components</text>
<text text-anchor="middle" x="590.5" y="-337" font-family="Helvetica,sans-Serif" font-size="10.00">/MonopolyBoard.hpp</text>
</a>
</g>
</g>
<!-- Node1&#45;&gt;Node4 -->
<g id="edge3_Node000001_Node000004" class="edge">
<title>Node1&#45;&gt;Node4</title>
<g id="a_edge3_Node000001_Node000004"><a xlink:title=" ">
<path fill="none" stroke="#63b8ff" d="M673.66,-391.11C655.3,-381.14 633.15,-369.13 616.34,-360.01"/>
<polygon fill="#63b8ff" stroke="#63b8ff" points="672.15,-394.26 682.6,-395.95 675.48,-388.11 672.15,-394.26"/>
</a>
</g>
</g>
<!-- Node7 -->
<g id="Node000007" class="node">
<title>Node7</title>
<g id="a_Node000007"><a xlink:href="PlayerTokenComponent_8hpp.html" target="_top" xlink:title=" ">
<polygon fill="white" stroke="#666666" points="971,-360 828,-360 828,-330 971,-330 971,-360"/>
<text text-anchor="start" x="836" y="-348" font-family="Helvetica,sans-Serif" font-size="10.00">include/view/components</text>
<text text-anchor="middle" x="899.5" y="-337" font-family="Helvetica,sans-Serif" font-size="10.00">/PlayerTokenComponent.hpp</text>
</a>
</g>
</g>
<!-- Node1&#45;&gt;Node7 -->
<g id="edge6_Node000001_Node000007" class="edge">
<title>Node1&#45;&gt;Node7</title>
<g id="a_edge6_Node000001_Node000007"><a xlink:title=" ">
<path fill="none" stroke="#63b8ff" d="M760.06,-392.72C790.66,-382.47 828.97,-369.63 857.68,-360.01"/>
<polygon fill="#63b8ff" stroke="#63b8ff" points="758.79,-389.46 750.42,-395.95 761.01,-396.1 758.79,-389.46"/>
</a>
</g>
</g>
<!-- Node41 -->
<g id="Node000041" class="node">
<title>Node41</title>
<g id="a_Node000041"><a xlink:href="SFComposite_8hpp.html" target="_top" xlink:title=" ">
<polygon fill="white" stroke="#666666" points="2089,-294 1962,-294 1962,-264 2089,-264 2089,-294"/>
<text text-anchor="start" x="1970" y="-282" font-family="Helvetica,sans-Serif" font-size="10.00">include/view/components</text>
<text text-anchor="middle" x="2025.5" y="-271" font-family="Helvetica,sans-Serif" font-size="10.00">/SFComposite.hpp</text>
</a>
</g>
</g>
<!-- Node1&#45;&gt;Node41 -->
<g id="edge51_Node000001_Node000041" class="edge">
<title>Node1&#45;&gt;Node41</title>
<g id="a_edge51_Node000001_Node000041"><a xlink:title=" ">
<path fill="none" stroke="#63b8ff" d="M782.14,-402.73C1016.45,-379.6 1742.17,-307.97 1961.85,-286.28"/>
<polygon fill="#63b8ff" stroke="#63b8ff" points="781.63,-399.26 772.02,-403.73 782.32,-406.23 781.63,-399.26"/>
</a>
</g>
</g>
<!-- Node3 -->
<g id="Node000003" class="node">
<title>Node3</title>
<g id="a_Node000003"><a xlink:href="Button_8cpp.html" target="_top" xlink:title=" ">
<polygon fill="white" stroke="#666666" points="434.5,-294 324.5,-294 324.5,-264 434.5,-264 434.5,-294"/>
<text text-anchor="start" x="332.5" y="-282" font-family="Helvetica,sans-Serif" font-size="10.00">src/view/components</text>
<text text-anchor="middle" x="379.5" y="-271" font-family="Helvetica,sans-Serif" font-size="10.00">/Button.cpp</text>
</a>
</g>
</g>
<!-- Node2&#45;&gt;Node3 -->
<g id="edge2_Node000002_Node000003" class="edge">
<title>Node2&#45;&gt;Node3</title>
<g id="a_edge2_Node000002_Node000003"><a xlink:title=" ">
<path fill="none" stroke="#63b8ff" d="M400.48,-320.68C395.89,-311.79 390.82,-301.95 386.8,-294.16"/>
<polygon fill="#63b8ff" stroke="#63b8ff" points="397.48,-322.51 405.18,-329.8 403.7,-319.3 397.48,-322.51"/>
</a>
</g>
</g>
<!-- Node5 -->
<g id="Node000005" class="node">
<title>Node5</title>
<g id="a_Node000005"><a xlink:href="BoardView_8cpp.html" target="_top" xlink:title=" ">
<polygon fill="white" stroke="#666666" points="794.5,-162 684.5,-162 684.5,-132 794.5,-132 794.5,-162"/>
<text text-anchor="start" x="692.5" y="-150" font-family="Helvetica,sans-Serif" font-size="10.00">src/view/components</text>
<text text-anchor="middle" x="739.5" y="-139" font-family="Helvetica,sans-Serif" font-size="10.00">/BoardView.cpp</text>
</a>
</g>
</g>
<!-- Node4&#45;&gt;Node5 -->
<g id="edge4_Node000004_Node000005" class="edge">
<title>Node4&#45;&gt;Node5</title>
<g id="a_edge4_Node000004_Node000005"><a xlink:title=" ">
<path fill="none" stroke="#63b8ff" d="M586.66,-319.65C583.11,-288.12 581.93,-233.04 609.5,-198 619.7,-185.03 655.99,-171.67 687.64,-162.03"/>
<polygon fill="#63b8ff" stroke="#63b8ff" points="583.22,-320.29 587.97,-329.75 590.16,-319.39 583.22,-320.29"/>
</a>
</g>
</g>
<!-- Node6 -->
<g id="Node000006" class="node">
<title>Node6</title>
<g id="a_Node000006"><a xlink:href="MonopolyBoard_8cpp.html" target="_top" xlink:title=" ">
<polygon fill="white" stroke="#666666" points="562.5,-294 452.5,-294 452.5,-264 562.5,-264 562.5,-294"/>
<text text-anchor="start" x="460.5" y="-282" font-family="Helvetica,sans-Serif" font-size="10.00">src/view/components</text>
<text text-anchor="middle" x="507.5" y="-271" font-family="Helvetica,sans-Serif" font-size="10.00">/MonopolyBoard.cpp</text>
</a>
</g>
</g>
<!-- Node4&#45;&gt;Node6 -->
<g id="edge5_Node000004_Node000006" class="edge">
<title>Node4&#45;&gt;Node6</title>
<g id="a_edge5_Node000004_Node000006"><a xlink:title=" ">
<path fill="none" stroke="#63b8ff" d="M563.89,-323.48C551.48,-313.91 537.03,-302.77 525.87,-294.16"/>
<polygon fill="#63b8ff" stroke="#63b8ff" points="562.02,-326.46 572.08,-329.8 566.3,-320.92 562.02,-326.46"/>
</a>
</g>
</g>
<!-- Node8 -->
<g id="Node000008" class="node">
<title>Node8</title>
<g id="a_Node000008"><a xlink:href="BoardSquareComponent_8hpp.html" target="_top" xlink:title=" ">
<polygon fill="white" stroke="#666666" points="972,-294 827,-294 827,-264 972,-264 972,-294"/>
<text text-anchor="start" x="835" y="-282" font-family="Helvetica,sans-Serif" font-size="10.00">include/view/components</text>
<text text-anchor="middle" x="899.5" y="-271" font-family="Helvetica,sans-Serif" font-size="10.00">/BoardSquareComponent.hpp</text>
</a>
</g>
</g>
<!-- Node7&#45;&gt;Node8 -->
<g id="edge7_Node000007_Node000008" class="edge">
<title>Node7&#45;&gt;Node8</title>
<g id="a_edge7_Node000007_Node000008"><a xlink:title=" ">
<path fill="none" stroke="#63b8ff" d="M899.5,-319.54C899.5,-310.96 899.5,-301.61 899.5,-294.16"/>
<polygon fill="#63b8ff" stroke="#63b8ff" points="896,-319.8 899.5,-329.8 903,-319.8 896,-319.8"/>
</a>
</g>
</g>
<!-- Node40 -->
<g id="Node000040" class="node">
<title>Node40</title>
<g id="a_Node000040"><a xlink:href="PlayerTokenComponent_8cpp.html" target="_top" xlink:title=" ">
<polygon fill="white" stroke="#666666" points="1133,-294 990,-294 990,-264 1133,-264 1133,-294"/>
<text text-anchor="start" x="998" y="-282" font-family="Helvetica,sans-Serif" font-size="10.00">src/view/components</text>
<text text-anchor="middle" x="1061.5" y="-271" font-family="Helvetica,sans-Serif" font-size="10.00">/PlayerTokenComponent.cpp</text>
</a>
</g>
</g>
<!-- Node7&#45;&gt;Node40 -->
<g id="edge50_Node000007_Node000040" class="edge">
<title>Node7&#45;&gt;Node40</title>
<g id="a_edge50_Node000007_Node000040"><a xlink:title=" ">
<path fill="none" stroke="#63b8ff" d="M944.59,-326.19C970.31,-316.02 1002.1,-303.47 1026.03,-294.01"/>
<polygon fill="#63b8ff" stroke="#63b8ff" points="943.07,-323.03 935.05,-329.95 945.64,-329.54 943.07,-323.03"/>
</a>
</g>
</g>
<!-- Node9 -->
<g id="Node000009" class="node">
<title>Node9</title>
<g id="a_Node000009"><a xlink:href="BoardView_8hpp.html" target="_top" xlink:title=" ">
<polygon fill="white" stroke="#666666" points="1944,-228 1817,-228 1817,-198 1944,-198 1944,-228"/>
<text text-anchor="start" x="1825" y="-216" font-family="Helvetica,sans-Serif" font-size="10.00">include/view/components</text>
<text text-anchor="middle" x="1880.5" y="-205" font-family="Helvetica,sans-Serif" font-size="10.00">/BoardView.hpp</text>
</a>
</g>
</g>
<!-- Node8&#45;&gt;Node9 -->
<g id="edge8_Node000008_Node000009" class="edge">
<title>Node8&#45;&gt;Node9</title>
<g id="a_edge8_Node000008_Node000009"><a xlink:title=" ">
<path fill="none" stroke="#63b8ff" d="M982.41,-264.01C1349.08,-225.79 1446.45,-270.84 1808.5,-228 1811.28,-227.67 1814.12,-227.29 1816.98,-226.88"/>
<polygon fill="#63b8ff" stroke="#63b8ff" points="981.89,-260.55 972.31,-265.08 982.62,-267.51 981.89,-260.55"/>
</a>
</g>
</g>
<!-- Node18 -->
<g id="Node000018" class="node">
<title>Node18</title>
<g id="a_Node000018"><a xlink:href="ChanceSquare_8hpp.html" target="_top" xlink:title=" ">
<polygon fill="white" stroke="#666666" points="1326,-228 1199,-228 1199,-198 1326,-198 1326,-228"/>
<text text-anchor="start" x="1207" y="-216" font-family="Helvetica,sans-Serif" font-size="10.00">include/view/components</text>
<text text-anchor="middle" x="1262.5" y="-205" font-family="Helvetica,sans-Serif" font-size="10.00">/ChanceSquare.hpp</text>
</a>
</g>
</g>
<!-- Node8&#45;&gt;Node18 -->
<g id="edge18_Node000008_Node000018" class="edge">
<title>Node8&#45;&gt;Node18</title>
<g id="a_edge18_Node000008_Node000018"><a xlink:title=" ">
<path fill="none" stroke="#63b8ff" d="M982.14,-263.9C1060.84,-250.45 1170.25,-231.71 1190.5,-228 1193.26,-227.5 1196.07,-226.97 1198.91,-226.44"/>
<polygon fill="#63b8ff" stroke="#63b8ff" points="981.48,-260.46 972.22,-265.59 982.66,-267.36 981.48,-260.46"/>
</a>
</g>
</g>
<!-- Node20 -->
<g id="Node000020" class="node">
<title>Node20</title>
<g id="a_Node000020"><a xlink:href="CommunityChestSquare_8hpp.html" target="_top" xlink:title=" ">
<polygon fill="white" stroke="#666666" points="1490.5,-228 1344.5,-228 1344.5,-198 1490.5,-198 1490.5,-228"/>
<text text-anchor="start" x="1352.5" y="-216" font-family="Helvetica,sans-Serif" font-size="10.00">include/view/components</text>
<text text-anchor="middle" x="1417.5" y="-205" font-family="Helvetica,sans-Serif" font-size="10.00">/CommunityChestSquare.hpp</text>
</a>
</g>
</g>
<!-- Node8&#45;&gt;Node20 -->
<g id="edge21_Node000008_Node000020" class="edge">
<title>Node8&#45;&gt;Node20</title>
<g id="a_edge21_Node000008_Node000020"><a xlink:title=" ">
<path fill="none" stroke="#63b8ff" d="M982.39,-263.95C1139.92,-242.94 1182.01,-248.88 1335.5,-228 1338.36,-227.61 1341.28,-227.2 1344.22,-226.76"/>
<polygon fill="#63b8ff" stroke="#63b8ff" points="981.78,-260.5 972.34,-265.3 982.72,-267.43 981.78,-260.5"/>
</a>
</g>
</g>
<!-- Node22 -->
<g id="Node000022" class="node">
<title>Node22</title>
<g id="a_Node000022"><a xlink:href="CornerSquare_8hpp.html" target="_top" xlink:title=" ">
<polygon fill="white" stroke="#666666" points="1636,-228 1509,-228 1509,-198 1636,-198 1636,-228"/>
<text text-anchor="start" x="1517" y="-216" font-family="Helvetica,sans-Serif" font-size="10.00">include/view/components</text>
<text text-anchor="middle" x="1572.5" y="-205" font-family="Helvetica,sans-Serif" font-size="10.00">/CornerSquare.hpp</text>
</a>
</g>
</g>
<!-- Node8&#45;&gt;Node22 -->
<g id="edge24_Node000008_Node000022" class="edge">
<title>Node8&#45;&gt;Node22</title>
<g id="a_edge24_Node000008_Node000022"><a xlink:title=" ">
<path fill="none" stroke="#63b8ff" d="M982.34,-263.99C1212.37,-237.14 1273.89,-257.37 1499.5,-228 1502.57,-227.6 1505.71,-227.15 1508.87,-226.67"/>
<polygon fill="#63b8ff" stroke="#63b8ff" points="981.84,-260.53 972.32,-265.18 982.66,-267.48 981.84,-260.53"/>
</a>
</g>
</g>
<!-- Node23 -->
<g id="Node000023" class="node">
<title>Node23</title>
<g id="a_Node000023"><a xlink:href="FreeParkingSquare_8hpp.html" target="_top" xlink:title=" ">
<polygon fill="white" stroke="#666666" points="127,-228 0,-228 0,-198 127,-198 127,-228"/>
<text text-anchor="start" x="8" y="-216" font-family="Helvetica,sans-Serif" font-size="10.00">include/view/components</text>
<text text-anchor="middle" x="63.5" y="-205" font-family="Helvetica,sans-Serif" font-size="10.00">/FreeParkingSquare.hpp</text>
</a>
</g>
</g>
<!-- Node8&#45;&gt;Node23 -->
<g id="edge25_Node000008_Node000023" class="edge">
<title>Node8&#45;&gt;Node23</title>
<g id="a_edge25_Node000008_Node000023"><a xlink:title=" ">
<path fill="none" stroke="#63b8ff" d="M816.78,-273.92C647.21,-265.32 265.25,-244.79 135.5,-228 132.72,-227.64 129.89,-227.24 127.03,-226.81"/>
<polygon fill="#63b8ff" stroke="#63b8ff" points="816.73,-277.42 826.9,-274.43 817.09,-270.43 816.73,-277.42"/>
</a>
</g>
</g>
<!-- Node25 -->
<g id="Node000025" class="node">
<title>Node25</title>
<g id="a_Node000025"><a xlink:href="GoSquare_8hpp.html" target="_top" xlink:title=" ">
<polygon fill="white" stroke="#666666" points="272,-228 145,-228 145,-198 272,-198 272,-228"/>
<text text-anchor="start" x="153" y="-216" font-family="Helvetica,sans-Serif" font-size="10.00">include/view/components</text>
<text text-anchor="middle" x="208.5" y="-205" font-family="Helvetica,sans-Serif" font-size="10.00">/GoSquare.hpp</text>
</a>
</g>
</g>
<!-- Node8&#45;&gt;Node25 -->
<g id="edge28_Node000008_Node000025" class="edge">
<title>Node8&#45;&gt;Node25</title>
<g id="a_edge28_Node000008_Node000025"><a xlink:title=" ">
<path fill="none" stroke="#63b8ff" d="M816.66,-274.25C697.62,-268.19 471.47,-254.2 280.5,-228 277.72,-227.62 274.89,-227.2 272.04,-226.75"/>
<polygon fill="#63b8ff" stroke="#63b8ff" points="816.63,-277.75 826.79,-274.76 816.98,-270.76 816.63,-277.75"/>
</a>
</g>
</g>
<!-- Node27 -->
<g id="Node000027" class="node">
<title>Node27</title>
<g id="a_Node000027"><a xlink:href="GoToJailSquare_8hpp.html" target="_top" xlink:title=" ">
<polygon fill="white" stroke="#666666" points="417,-228 290,-228 290,-198 417,-198 417,-228"/>
<text text-anchor="start" x="298" y="-216" font-family="Helvetica,sans-Serif" font-size="10.00">include/view/components</text>
<text text-anchor="middle" x="353.5" y="-205" font-family="Helvetica,sans-Serif" font-size="10.00">/GoToJailSquare.hpp</text>
</a>
</g>
</g>
<!-- Node8&#45;&gt;Node27 -->
<g id="edge31_Node000008_Node000027" class="edge">
<title>Node8&#45;&gt;Node27</title>
<g id="a_edge31_Node000008_Node000027"><a xlink:title=" ">
<path fill="none" stroke="#63b8ff" d="M816.88,-271.48C722.08,-263.49 562.1,-248.45 425.5,-228 422.73,-227.59 419.9,-227.14 417.05,-226.67"/>
<polygon fill="#63b8ff" stroke="#63b8ff" points="816.72,-274.98 826.98,-272.32 817.31,-268 816.72,-274.98"/>
</a>
</g>
</g>
<!-- Node29 -->
<g id="Node000029" class="node">
<title>Node29</title>
<g id="a_Node000029"><a xlink:href="IncomeTaxSquare_8hpp.html" target="_top" xlink:title=" ">
<polygon fill="white" stroke="#666666" points="562,-228 435,-228 435,-198 562,-198 562,-228"/>
<text text-anchor="start" x="443" y="-216" font-family="Helvetica,sans-Serif" font-size="10.00">include/view/components</text>
<text text-anchor="middle" x="498.5" y="-205" font-family="Helvetica,sans-Serif" font-size="10.00">/IncomeTaxSquare.hpp</text>
</a>
</g>
</g>
<!-- Node8&#45;&gt;Node29 -->
<g id="edge34_Node000008_Node000029" class="edge">
<title>Node8&#45;&gt;Node29</title>
<g id="a_edge34_Node000008_Node000029"><a xlink:title=" ">
<path fill="none" stroke="#63b8ff" d="M816.93,-264.82C741.41,-252.77 631.28,-235.19 562.32,-224.19"/>
<polygon fill="#63b8ff" stroke="#63b8ff" points="816.46,-268.29 826.88,-266.41 817.56,-261.38 816.46,-268.29"/>
</a>
</g>
</g>
<!-- Node31 -->
<g id="Node000031" class="node">
<title>Node31</title>
<g id="a_Node000031"><a xlink:href="JailSquare_8hpp.html" target="_top" xlink:title=" ">
<polygon fill="white" stroke="#666666" points="746,-228 619,-228 619,-198 746,-198 746,-228"/>
<text text-anchor="start" x="627" y="-216" font-family="Helvetica,sans-Serif" font-size="10.00">include/view/components</text>
<text text-anchor="middle" x="682.5" y="-205" font-family="Helvetica,sans-Serif" font-size="10.00">/JailSquare.hpp</text>
</a>
</g>
</g>
<!-- Node8&#45;&gt;Node31 -->
<g id="edge37_Node000008_Node000031" class="edge">
<title>Node8&#45;&gt;Node31</title>
<g id="a_edge37_Node000008_Node000031"><a xlink:title=" ">
<path fill="none" stroke="#63b8ff" d="M842.27,-261.12C807.28,-250.8 763.06,-237.76 730.01,-228.01"/>
<polygon fill="#63b8ff" stroke="#63b8ff" points="841.3,-264.48 851.88,-263.95 843.28,-257.77 841.3,-264.48"/>
</a>
</g>
</g>
<!-- Node33 -->
<g id="Node000033" class="node">
<title>Node33</title>
<g id="a_Node000033"><a xlink:href="RailroadSquare_8hpp.html" target="_top" xlink:title=" ">
<polygon fill="white" stroke="#666666" points="891,-228 764,-228 764,-198 891,-198 891,-228"/>
<text text-anchor="start" x="772" y="-216" font-family="Helvetica,sans-Serif" font-size="10.00">include/view/components</text>
<text text-anchor="middle" x="827.5" y="-205" font-family="Helvetica,sans-Serif" font-size="10.00">/RailroadSquare.hpp</text>
</a>
</g>
</g>
<!-- Node8&#45;&gt;Node33 -->
<g id="edge40_Node000008_Node000033" class="edge">
<title>Node8&#45;&gt;Node33</title>
<g id="a_edge40_Node000008_Node000033"><a xlink:title=" ">
<path fill="none" stroke="#63b8ff" d="M875.79,-256.92C865.17,-247.49 852.93,-236.61 843.43,-228.16"/>
<polygon fill="#63b8ff" stroke="#63b8ff" points="873.72,-259.77 883.52,-263.8 878.37,-254.54 873.72,-259.77"/>
</a>
</g>
</g>
<!-- Node35 -->
<g id="Node000035" class="node">
<title>Node35</title>
<g id="a_Node000035"><a xlink:href="StreetSquare_8hpp.html" target="_top" xlink:title=" ">
<polygon fill="white" stroke="#666666" points="1036,-228 909,-228 909,-198 1036,-198 1036,-228"/>
<text text-anchor="start" x="917" y="-216" font-family="Helvetica,sans-Serif" font-size="10.00">include/view/components</text>
<text text-anchor="middle" x="972.5" y="-205" font-family="Helvetica,sans-Serif" font-size="10.00">/StreetSquare.hpp</text>
</a>
</g>
</g>
<!-- Node8&#45;&gt;Node35 -->
<g id="edge43_Node000008_Node000035" class="edge">
<title>Node8&#45;&gt;Node35</title>
<g id="a_edge43_Node000008_Node000035"><a xlink:title=" ">
<path fill="none" stroke="#63b8ff" d="M923.22,-257.2C934.06,-247.7 946.62,-236.69 956.34,-228.16"/>
<polygon fill="#63b8ff" stroke="#63b8ff" points="920.91,-254.57 915.7,-263.8 925.53,-259.84 920.91,-254.57"/>
</a>
</g>
</g>
<!-- Node37 -->
<g id="Node000037" class="node">
<title>Node37</title>
<g id="a_Node000037"><a xlink:href="UtilitySquare_8hpp.html" target="_top" xlink:title=" ">
<polygon fill="white" stroke="#666666" points="1181,-228 1054,-228 1054,-198 1181,-198 1181,-228"/>
<text text-anchor="start" x="1062" y="-216" font-family="Helvetica,sans-Serif" font-size="10.00">include/view/components</text>
<text text-anchor="middle" x="1117.5" y="-205" font-family="Helvetica,sans-Serif" font-size="10.00">/UtilitySquare.hpp</text>
</a>
</g>
</g>
<!-- Node8&#45;&gt;Node37 -->
<g id="edge46_Node000008_Node000037" class="edge">
<title>Node8&#45;&gt;Node37</title>
<g id="a_edge46_Node000008_Node000037"><a xlink:title=" ">
<path fill="none" stroke="#63b8ff" d="M956.99,-261.12C992.14,-250.8 1036.57,-237.76 1069.77,-228.01"/>
<polygon fill="#63b8ff" stroke="#63b8ff" points="955.95,-257.78 947.34,-263.95 957.92,-264.5 955.95,-257.78"/>
</a>
</g>
</g>
<!-- Node39 -->
<g id="Node000039" class="node">
<title>Node39</title>
<g id="a_Node000039"><a xlink:href="BoardSquareComponent_8cpp.html" target="_top" xlink:title=" ">
<polygon fill="white" stroke="#666666" points="1799,-228 1654,-228 1654,-198 1799,-198 1799,-228"/>
<text text-anchor="start" x="1662" y="-216" font-family="Helvetica,sans-Serif" font-size="10.00">src/view/components</text>
<text text-anchor="middle" x="1726.5" y="-205" font-family="Helvetica,sans-Serif" font-size="10.00">/BoardSquareComponent.cpp</text>
</a>
</g>
</g>
<!-- Node8&#45;&gt;Node39 -->
<g id="edge49_Node000008_Node000039" class="edge">
<title>Node8&#45;&gt;Node39</title>
<g id="a_edge49_Node000008_Node000039"><a xlink:title=" ">
<path fill="none" stroke="#63b8ff" d="M982.44,-264C1276.95,-231.75 1355.13,-260.85 1645.5,-228 1648.19,-227.7 1650.93,-227.36 1653.7,-227"/>
<polygon fill="#63b8ff" stroke="#63b8ff" points="981.87,-260.54 972.32,-265.12 982.64,-267.5 981.87,-260.54"/>
</a>
</g>
</g>
<!-- Node9&#45;&gt;Node5 -->
<g id="edge17_Node000009_Node000005" class="edge">
<title>Node9&#45;&gt;Node5</title>
<g id="a_edge17_Node000009_Node000005"><a xlink:title=" ">
<path fill="none" stroke="#63b8ff" d="M1806.76,-197.93C1362.65,-148.25 1243.58,-217.56 803.5,-162 800.57,-161.63 797.57,-161.19 794.55,-160.7"/>
<polygon fill="#63b8ff" stroke="#63b8ff" points="1806.65,-201.44 1816.98,-199.09 1807.44,-194.49 1806.65,-201.44"/>
</a>
</g>
</g>
<!-- Node10 -->
<g id="Node000010" class="node">
<title>Node10</title>
<g id="a_Node000010"><a xlink:href="GameView_8hpp.html" target="_top" xlink:title="Main view class for the Monopoly game&#39;s graphical interface.">
<polygon fill="white" stroke="#666666" points="1951,-156.5 1812,-156.5 1812,-137.5 1951,-137.5 1951,-156.5"/>
<text text-anchor="middle" x="1881.5" y="-144.5" font-family="Helvetica,sans-Serif" font-size="10.00">include/view/GameView.hpp</text>
</a>
</g>
</g>
<!-- Node9&#45;&gt;Node10 -->
<g id="edge9_Node000009_Node000010" class="edge">
<title>Node9&#45;&gt;Node10</title>
<g id="a_edge9_Node000009_Node000010"><a xlink:title=" ">
<path fill="none" stroke="#63b8ff" d="M1880.88,-187.6C1881.05,-176.8 1881.24,-164.78 1881.36,-156.84"/>
<polygon fill="#63b8ff" stroke="#63b8ff" points="1877.38,-187.74 1880.72,-197.8 1884.38,-187.85 1877.38,-187.74"/>
</a>
</g>
</g>
<!-- Node11 -->
<g id="Node000011" class="node">
<title>Node11</title>
<g id="a_Node000011"><a xlink:href="GameController_8hpp.html" target="_top" xlink:title="Main controller class for the Monopoly game implementation.">
<polygon fill="white" stroke="#666666" points="1868.5,-96 1762.5,-96 1762.5,-66 1868.5,-66 1868.5,-96"/>
<text text-anchor="start" x="1770.5" y="-84" font-family="Helvetica,sans-Serif" font-size="10.00">include/controller</text>
<text text-anchor="middle" x="1815.5" y="-73" font-family="Helvetica,sans-Serif" font-size="10.00">/GameController.hpp</text>
</a>
</g>
</g>
<!-- Node10&#45;&gt;Node11 -->
<g id="edge10_Node000010_Node000011" class="edge">
<title>Node10&#45;&gt;Node11</title>
<g id="a_edge10_Node000010_Node000011"><a xlink:title=" ">
<path fill="none" stroke="#63b8ff" d="M1865.11,-130.1C1854.35,-119.68 1840.42,-106.16 1830.06,-96.12"/>
<polygon fill="#63b8ff" stroke="#63b8ff" points="1862.98,-132.92 1872.6,-137.37 1867.86,-127.89 1862.98,-132.92"/>
</a>
</g>
</g>
<!-- Node17 -->
<g id="Node000017" class="node">
<title>Node17</title>
<g id="a_Node000017"><a xlink:href="GameView_8cpp.html" target="_top" xlink:title=" ">
<polygon fill="white" stroke="#666666" points="2008.5,-90.5 1886.5,-90.5 1886.5,-71.5 2008.5,-71.5 2008.5,-90.5"/>
<text text-anchor="middle" x="1947.5" y="-78.5" font-family="Helvetica,sans-Serif" font-size="10.00">src/view/GameView.cpp</text>
</a>
</g>
</g>
<!-- Node10&#45;&gt;Node17 -->
<g id="edge16_Node000010_Node000017" class="edge">
<title>Node10&#45;&gt;Node17</title>
<g id="a_edge16_Node000010_Node000017"><a xlink:title=" ">
<path fill="none" stroke="#63b8ff" d="M1897.66,-130.33C1910.44,-117.94 1927.82,-101.09 1938.32,-90.91"/>
<polygon fill="#63b8ff" stroke="#63b8ff" points="1895.14,-127.89 1890.4,-137.37 1900.02,-132.92 1895.14,-127.89"/>
</a>
</g>
</g>
<!-- Node12 -->
<g id="Node000012" class="node">
<title>Node12</title>
<g id="a_Node000012"><a xlink:href="GameController_8cpp.html" target="_top" xlink:title=" ">
<polygon fill="white" stroke="#666666" points="1624.5,-24.5 1462.5,-24.5 1462.5,-5.5 1624.5,-5.5 1624.5,-24.5"/>
<text text-anchor="middle" x="1543.5" y="-12.5" font-family="Helvetica,sans-Serif" font-size="10.00">src/controller/GameController.cpp</text>
</a>
</g>
</g>
<!-- Node11&#45;&gt;Node12 -->
<g id="edge11_Node000011_Node000012" class="edge">
<title>Node11&#45;&gt;Node12</title>
<g id="a_edge11_Node000011_Node000012"><a xlink:title=" ">
<path fill="none" stroke="#63b8ff" d="M1752.34,-65.14C1698.83,-52.55 1623.97,-34.93 1579.93,-24.57"/>
<polygon fill="#63b8ff" stroke="#63b8ff" points="1751.87,-68.62 1762.41,-67.51 1753.48,-61.81 1751.87,-68.62"/>
</a>
</g>
</g>
<!-- Node13 -->
<g id="Node000013" class="node">
<title>Node13</title>
<g id="a_Node000013"><a xlink:href="GameState_8cpp.html" target="_top" xlink:title=" ">
<polygon fill="white" stroke="#666666" points="1746,-30 1643,-30 1643,0 1746,0 1746,-30"/>
<text text-anchor="start" x="1651" y="-18" font-family="Helvetica,sans-Serif" font-size="10.00">src/controller/states</text>
<text text-anchor="middle" x="1694.5" y="-7" font-family="Helvetica,sans-Serif" font-size="10.00">/GameState.cpp</text>
</a>
</g>
</g>
<!-- Node11&#45;&gt;Node13 -->
<g id="edge12_Node000011_Node000013" class="edge">
<title>Node11&#45;&gt;Node13</title>
<g id="a_edge12_Node000011_Node000013"><a xlink:title=" ">
<path fill="none" stroke="#63b8ff" d="M1780.03,-61.24C1761.15,-51.25 1738.32,-39.18 1720.99,-30.01"/>
<polygon fill="#63b8ff" stroke="#63b8ff" points="1778.47,-64.37 1788.95,-65.95 1781.74,-58.19 1778.47,-64.37"/>
</a>
</g>
</g>
<!-- Node14 -->
<g id="Node000014" class="node">
<title>Node14</title>
<g id="a_Node000014"><a xlink:href="RollDiceState_8cpp.html" target="_top" xlink:title=" ">
<polygon fill="white" stroke="#666666" points="1867,-30 1764,-30 1764,0 1867,0 1867,-30"/>
<text text-anchor="start" x="1772" y="-18" font-family="Helvetica,sans-Serif" font-size="10.00">src/controller/states</text>
<text text-anchor="middle" x="1815.5" y="-7" font-family="Helvetica,sans-Serif" font-size="10.00">/RollDiceState.cpp</text>
</a>
</g>
</g>
<!-- Node11&#45;&gt;Node14 -->
<g id="edge13_Node000011_Node000014" class="edge">
<title>Node11&#45;&gt;Node14</title>
<g id="a_edge13_Node000011_Node000014"><a xlink:title=" ">
<path fill="none" stroke="#63b8ff" d="M1815.5,-55.54C1815.5,-46.96 1815.5,-37.61 1815.5,-30.16"/>
<polygon fill="#63b8ff" stroke="#63b8ff" points="1812,-55.8 1815.5,-65.8 1819,-55.8 1812,-55.8"/>
</a>
</g>
</g>
<!-- Node15 -->
<g id="Node000015" class="node">
<title>Node15</title>
<g id="a_Node000015"><a xlink:href="StartState_8cpp.html" target="_top" xlink:title=" ">
<polygon fill="white" stroke="#666666" points="1988,-30 1885,-30 1885,0 1988,0 1988,-30"/>
<text text-anchor="start" x="1893" y="-18" font-family="Helvetica,sans-Serif" font-size="10.00">src/controller/states</text>
<text text-anchor="middle" x="1936.5" y="-7" font-family="Helvetica,sans-Serif" font-size="10.00">/StartState.cpp</text>
</a>
</g>
</g>
<!-- Node11&#45;&gt;Node15 -->
<g id="edge14_Node000011_Node000015" class="edge">
<title>Node11&#45;&gt;Node15</title>
<g id="a_edge14_Node000011_Node000015"><a xlink:title=" ">
<path fill="none" stroke="#63b8ff" d="M1850.97,-61.24C1869.85,-51.25 1892.68,-39.18 1910.01,-30.01"/>
<polygon fill="#63b8ff" stroke="#63b8ff" points="1849.26,-58.19 1842.05,-65.95 1852.53,-64.37 1849.26,-58.19"/>
</a>
</g>
</g>
<!-- Node16 -->
<g id="Node000016" class="node">
<title>Node16</title>
<g id="a_Node000016"><a xlink:href="TurnState_8cpp.html" target="_top" xlink:title=" ">
<polygon fill="white" stroke="#666666" points="2109,-30 2006,-30 2006,0 2109,0 2109,-30"/>
<text text-anchor="start" x="2014" y="-18" font-family="Helvetica,sans-Serif" font-size="10.00">src/controller/states</text>
<text text-anchor="middle" x="2057.5" y="-7" font-family="Helvetica,sans-Serif" font-size="10.00">/TurnState.cpp</text>
</a>
</g>
</g>
<!-- Node11&#45;&gt;Node16 -->
<g id="edge15_Node000011_Node000016" class="edge">
<title>Node11&#45;&gt;Node16</title>
<g id="a_edge15_Node000011_Node000016"><a xlink:title=" ">
<path fill="none" stroke="#63b8ff" d="M1878.43,-63.36C1918.02,-52.89 1968.5,-39.54 2005.76,-29.68"/>
<polygon fill="#63b8ff" stroke="#63b8ff" points="1877.38,-60.01 1868.61,-65.95 1879.17,-66.78 1877.38,-60.01"/>
</a>
</g>
</g>
<!-- Node18&#45;&gt;Node5 -->
<g id="edge19_Node000018_Node000005" class="edge">
<title>Node18&#45;&gt;Node5</title>
<g id="a_edge19_Node000018_Node000005"><a xlink:title=" ">
<path fill="none" stroke="#63b8ff" d="M1188.85,-197.86C1017.73,-174.04 970.95,-188 803.5,-162 800.58,-161.55 797.59,-161.04 794.58,-160.5"/>
<polygon fill="#63b8ff" stroke="#63b8ff" points="1188.56,-201.35 1198.95,-199.29 1189.54,-194.42 1188.56,-201.35"/>
</a>
</g>
</g>
<!-- Node19 -->
<g id="Node000019" class="node">
<title>Node19</title>
<g id="a_Node000019"><a xlink:href="ChanceSquare_8cpp.html" target="_top" xlink:title=" ">
<polygon fill="white" stroke="#666666" points="1317.5,-162 1207.5,-162 1207.5,-132 1317.5,-132 1317.5,-162"/>
<text text-anchor="start" x="1215.5" y="-150" font-family="Helvetica,sans-Serif" font-size="10.00">src/view/components</text>
<text text-anchor="middle" x="1262.5" y="-139" font-family="Helvetica,sans-Serif" font-size="10.00">/ChanceSquare.cpp</text>
</a>
</g>
</g>
<!-- Node18&#45;&gt;Node19 -->
<g id="edge20_Node000018_Node000019" class="edge">
<title>Node18&#45;&gt;Node19</title>
<g id="a_edge20_Node000018_Node000019"><a xlink:title=" ">
<path fill="none" stroke="#63b8ff" d="M1262.5,-187.54C1262.5,-178.96 1262.5,-169.61 1262.5,-162.16"/>
<polygon fill="#63b8ff" stroke="#63b8ff" points="1259,-187.8 1262.5,-197.8 1266,-187.8 1259,-187.8"/>
</a>
</g>
</g>
<!-- Node20&#45;&gt;Node5 -->
<g id="edge22_Node000020_Node000005" class="edge">
<title>Node20&#45;&gt;Node5</title>
<g id="a_edge22_Node000020_Node000005"><a xlink:title=" ">
<path fill="none" stroke="#63b8ff" d="M1333.98,-197.91C1098.38,-170.73 1034.8,-194.94 803.5,-162 800.57,-161.58 797.58,-161.11 794.56,-160.59"/>
<polygon fill="#63b8ff" stroke="#63b8ff" points="1333.9,-201.42 1344.24,-199.11 1334.71,-194.47 1333.9,-201.42"/>
</a>
</g>
</g>
<!-- Node21 -->
<g id="Node000021" class="node">
<title>Node21</title>
<g id="a_Node000021"><a xlink:href="CommunityChestSquare_8cpp.html" target="_top" xlink:title=" ">
<polygon fill="white" stroke="#666666" points="1490.5,-162 1344.5,-162 1344.5,-132 1490.5,-132 1490.5,-162"/>
<text text-anchor="start" x="1352.5" y="-150" font-family="Helvetica,sans-Serif" font-size="10.00">src/view/components</text>
<text text-anchor="middle" x="1417.5" y="-139" font-family="Helvetica,sans-Serif" font-size="10.00">/CommunityChestSquare.cpp</text>
</a>
</g>
</g>
<!-- Node20&#45;&gt;Node21 -->
<g id="edge23_Node000020_Node000021" class="edge">
<title>Node20&#45;&gt;Node21</title>
<g id="a_edge23_Node000020_Node000021"><a xlink:title=" ">
<path fill="none" stroke="#63b8ff" d="M1417.5,-187.54C1417.5,-178.96 1417.5,-169.61 1417.5,-162.16"/>
<polygon fill="#63b8ff" stroke="#63b8ff" points="1414,-187.8 1417.5,-197.8 1421,-187.8 1414,-187.8"/>
</a>
</g>
</g>
<!-- Node23&#45;&gt;Node5 -->
<g id="edge26_Node000023_Node000005" class="edge">
<title>Node23&#45;&gt;Node5</title>
<g id="a_edge26_Node000023_Node000005"><a xlink:title=" ">
<path fill="none" stroke="#63b8ff" d="M137.06,-197.91C375.79,-167.76 440.61,-195.33 675.5,-162 678.43,-161.58 681.42,-161.11 684.44,-160.59"/>
<polygon fill="#63b8ff" stroke="#63b8ff" points="136.51,-194.45 127.03,-199.2 137.4,-201.4 136.51,-194.45"/>
</a>
</g>
</g>
<!-- Node24 -->
<g id="Node000024" class="node">
<title>Node24</title>
<g id="a_Node000024"><a xlink:href="FreeParkingSquare_8cpp.html" target="_top" xlink:title=" ">
<polygon fill="white" stroke="#666666" points="124.5,-162 2.5,-162 2.5,-132 124.5,-132 124.5,-162"/>
<text text-anchor="start" x="10.5" y="-150" font-family="Helvetica,sans-Serif" font-size="10.00">src/view/components</text>
<text text-anchor="middle" x="63.5" y="-139" font-family="Helvetica,sans-Serif" font-size="10.00">/FreeParkingSquare.cpp</text>
</a>
</g>
</g>
<!-- Node23&#45;&gt;Node24 -->
<g id="edge27_Node000023_Node000024" class="edge">
<title>Node23&#45;&gt;Node24</title>
<g id="a_edge27_Node000023_Node000024"><a xlink:title=" ">
<path fill="none" stroke="#63b8ff" d="M63.5,-187.54C63.5,-178.96 63.5,-169.61 63.5,-162.16"/>
<polygon fill="#63b8ff" stroke="#63b8ff" points="60,-187.8 63.5,-197.8 67,-187.8 60,-187.8"/>
</a>
</g>
</g>
<!-- Node25&#45;&gt;Node5 -->
<g id="edge29_Node000025_Node000005" class="edge">
<title>Node25&#45;&gt;Node5</title>
<g id="a_edge29_Node000025_Node000005"><a xlink:title=" ">
<path fill="none" stroke="#63b8ff" d="M282.09,-197.87C456.78,-173.71 504.51,-188.39 675.5,-162 678.42,-161.55 681.41,-161.05 684.42,-160.5"/>
<polygon fill="#63b8ff" stroke="#63b8ff" points="281.46,-194.42 272.04,-199.28 282.43,-201.36 281.46,-194.42"/>
</a>
</g>
</g>
<!-- Node26 -->
<g id="Node000026" class="node">
<title>Node26</title>
<g id="a_Node000026"><a xlink:href="GoSquare_8cpp.html" target="_top" xlink:title=" ">
<polygon fill="white" stroke="#666666" points="263.5,-162 153.5,-162 153.5,-132 263.5,-132 263.5,-162"/>
<text text-anchor="start" x="161.5" y="-150" font-family="Helvetica,sans-Serif" font-size="10.00">src/view/components</text>
<text text-anchor="middle" x="208.5" y="-139" font-family="Helvetica,sans-Serif" font-size="10.00">/GoSquare.cpp</text>
</a>
</g>
</g>
<!-- Node25&#45;&gt;Node26 -->
<g id="edge30_Node000025_Node000026" class="edge">
<title>Node25&#45;&gt;Node26</title>
<g id="a_edge30_Node000025_Node000026"><a xlink:title=" ">
<path fill="none" stroke="#63b8ff" d="M208.5,-187.54C208.5,-178.96 208.5,-169.61 208.5,-162.16"/>
<polygon fill="#63b8ff" stroke="#63b8ff" points="205,-187.8 208.5,-197.8 212,-187.8 205,-187.8"/>
</a>
</g>
</g>
<!-- Node27&#45;&gt;Node5 -->
<g id="edge32_Node000027_Node000005" class="edge">
<title>Node27&#45;&gt;Node5</title>
<g id="a_edge32_Node000027_Node000005"><a xlink:title=" ">
<path fill="none" stroke="#63b8ff" d="M426.98,-197.8C537.89,-179.42 568.17,-181.44 675.5,-162 678.41,-161.47 681.39,-160.91 684.39,-160.32"/>
<polygon fill="#63b8ff" stroke="#63b8ff" points="426.36,-194.36 417.07,-199.46 427.51,-201.26 426.36,-194.36"/>
</a>
</g>
</g>
<!-- Node28 -->
<g id="Node000028" class="node">
<title>Node28</title>
<g id="a_Node000028"><a xlink:href="GoToJailSquare_8cpp.html" target="_top" xlink:title=" ">
<polygon fill="white" stroke="#666666" points="402.5,-162 292.5,-162 292.5,-132 402.5,-132 402.5,-162"/>
<text text-anchor="start" x="300.5" y="-150" font-family="Helvetica,sans-Serif" font-size="10.00">src/view/components</text>
<text text-anchor="middle" x="347.5" y="-139" font-family="Helvetica,sans-Serif" font-size="10.00">/GoToJailSquare.cpp</text>
</a>
</g>
</g>
<!-- Node27&#45;&gt;Node28 -->
<g id="edge33_Node000027_Node000028" class="edge">
<title>Node27&#45;&gt;Node28</title>
<g id="a_edge33_Node000027_Node000028"><a xlink:title=" ">
<path fill="none" stroke="#63b8ff" d="M351.23,-187.83C350.42,-179.17 349.53,-169.7 348.83,-162.16"/>
<polygon fill="#63b8ff" stroke="#63b8ff" points="347.75,-188.17 352.17,-197.8 354.72,-187.51 347.75,-188.17"/>
</a>
</g>
</g>
<!-- Node29&#45;&gt;Node5 -->
<g id="edge35_Node000029_Node000005" class="edge">
<title>Node29&#45;&gt;Node5</title>
<g id="a_edge35_Node000029_Node000005"><a xlink:title=" ">
<path fill="none" stroke="#63b8ff" d="M561.06,-195.39C600.08,-185.03 649.72,-171.84 686.73,-162.01"/>
<polygon fill="#63b8ff" stroke="#63b8ff" points="560.16,-192.01 551.39,-197.95 561.95,-198.77 560.16,-192.01"/>
</a>
</g>
</g>
<!-- Node30 -->
<g id="Node000030" class="node">
<title>Node30</title>
<g id="a_Node000030"><a xlink:href="IncomeTaxSquare_8cpp.html" target="_top" xlink:title=" ">
<polygon fill="white" stroke="#666666" points="538,-162 421,-162 421,-132 538,-132 538,-162"/>
<text text-anchor="start" x="429" y="-150" font-family="Helvetica,sans-Serif" font-size="10.00">src/view/components</text>
<text text-anchor="middle" x="479.5" y="-139" font-family="Helvetica,sans-Serif" font-size="10.00">/IncomeTaxSquare.cpp</text>
</a>
</g>
</g>
<!-- Node29&#45;&gt;Node30 -->
<g id="edge36_Node000029_Node000030" class="edge">
<title>Node29&#45;&gt;Node30</title>
<g id="a_edge36_Node000029_Node000030"><a xlink:title=" ">
<path fill="none" stroke="#63b8ff" d="M491.41,-188.11C488.81,-179.38 485.97,-169.78 483.7,-162.16"/>
<polygon fill="#63b8ff" stroke="#63b8ff" points="488.08,-189.21 494.28,-197.8 494.79,-187.21 488.08,-189.21"/>
</a>
</g>
</g>
<!-- Node31&#45;&gt;Node5 -->
<g id="edge38_Node000031_Node000005" class="edge">
<title>Node31&#45;&gt;Node5</title>
<g id="a_edge38_Node000031_Node000005"><a xlink:title=" ">
<path fill="none" stroke="#63b8ff" d="M702.02,-190.09C710.24,-180.85 719.59,-170.36 726.89,-162.16"/>
<polygon fill="#63b8ff" stroke="#63b8ff" points="699.19,-188 695.15,-197.8 704.41,-192.66 699.19,-188"/>
</a>
</g>
</g>
<!-- Node32 -->
<g id="Node000032" class="node">
<title>Node32</title>
<g id="a_Node000032"><a xlink:href="JailSquare_8cpp.html" target="_top" xlink:title=" ">
<polygon fill="white" stroke="#666666" points="666.5,-162 556.5,-162 556.5,-132 666.5,-132 666.5,-162"/>
<text text-anchor="start" x="564.5" y="-150" font-family="Helvetica,sans-Serif" font-size="10.00">src/view/components</text>
<text text-anchor="middle" x="611.5" y="-139" font-family="Helvetica,sans-Serif" font-size="10.00">/JailSquare.cpp</text>
</a>
</g>
</g>
<!-- Node31&#45;&gt;Node32 -->
<g id="edge39_Node000031_Node000032" class="edge">
<title>Node31&#45;&gt;Node32</title>
<g id="a_edge39_Node000031_Node000032"><a xlink:title=" ">
<path fill="none" stroke="#63b8ff" d="M659.12,-190.92C648.65,-181.49 636.58,-170.61 627.21,-162.16"/>
<polygon fill="#63b8ff" stroke="#63b8ff" points="656.97,-193.7 666.74,-197.8 661.66,-188.5 656.97,-193.7"/>
</a>
</g>
</g>
<!-- Node33&#45;&gt;Node5 -->
<g id="edge41_Node000033_Node000005" class="edge">
<title>Node33&#45;&gt;Node5</title>
<g id="a_edge41_Node000033_Node000005"><a xlink:title=" ">
<path fill="none" stroke="#63b8ff" d="M799.66,-191.75C786.43,-182.13 770.93,-170.86 758.98,-162.16"/>
<polygon fill="#63b8ff" stroke="#63b8ff" points="797.82,-194.75 807.97,-197.8 801.94,-189.08 797.82,-194.75"/>
</a>
</g>
</g>
<!-- Node34 -->
<g id="Node000034" class="node">
<title>Node34</title>
<g id="a_Node000034"><a xlink:href="RailroadSquare_8cpp.html" target="_top" xlink:title=" ">
<polygon fill="white" stroke="#666666" points="922.5,-162 812.5,-162 812.5,-132 922.5,-132 922.5,-162"/>
<text text-anchor="start" x="820.5" y="-150" font-family="Helvetica,sans-Serif" font-size="10.00">src/view/components</text>
<text text-anchor="middle" x="867.5" y="-139" font-family="Helvetica,sans-Serif" font-size="10.00">/RailroadSquare.cpp</text>
</a>
</g>
</g>
<!-- Node33&#45;&gt;Node34 -->
<g id="edge42_Node000033_Node000034" class="edge">
<title>Node33&#45;&gt;Node34</title>
<g id="a_edge42_Node000033_Node000034"><a xlink:title=" ">
<path fill="none" stroke="#63b8ff" d="M841.72,-189.24C847.37,-180.21 853.68,-170.11 858.65,-162.16"/>
<polygon fill="#63b8ff" stroke="#63b8ff" points="838.71,-187.46 836.38,-197.8 844.65,-191.17 838.71,-187.46"/>
</a>
</g>
</g>
<!-- Node35&#45;&gt;Node5 -->
<g id="edge44_Node000035_Node000005" class="edge">
<title>Node35&#45;&gt;Node5</title>
<g id="a_edge44_Node000035_Node000005"><a xlink:title=" ">
<path fill="none" stroke="#63b8ff" d="M911.53,-195.25C873.89,-184.91 826.15,-171.8 790.51,-162.01"/>
<polygon fill="#63b8ff" stroke="#63b8ff" points="910.8,-198.68 921.37,-197.95 912.65,-191.93 910.8,-198.68"/>
</a>
</g>
</g>
<!-- Node36 -->
<g id="Node000036" class="node">
<title>Node36</title>
<g id="a_Node000036"><a xlink:href="StreetSquare_8cpp.html" target="_top" xlink:title=" ">
<polygon fill="white" stroke="#666666" points="1050.5,-162 940.5,-162 940.5,-132 1050.5,-132 1050.5,-162"/>
<text text-anchor="start" x="948.5" y="-150" font-family="Helvetica,sans-Serif" font-size="10.00">src/view/components</text>
<text text-anchor="middle" x="995.5" y="-139" font-family="Helvetica,sans-Serif" font-size="10.00">/StreetSquare.cpp</text>
</a>
</g>
</g>
<!-- Node35&#45;&gt;Node36 -->
<g id="edge45_Node000035_Node000036" class="edge">
<title>Node35&#45;&gt;Node36</title>
<g id="a_edge45_Node000035_Node000036"><a xlink:title=" ">
<path fill="none" stroke="#63b8ff" d="M981.09,-188.11C984.22,-179.38 987.67,-169.78 990.41,-162.16"/>
<polygon fill="#63b8ff" stroke="#63b8ff" points="977.69,-187.2 977.6,-197.8 984.28,-189.57 977.69,-187.2"/>
</a>
</g>
</g>
<!-- Node37&#45;&gt;Node5 -->
<g id="edge47_Node000037_Node000005" class="edge">
<title>Node37&#45;&gt;Node5</title>
<g id="a_edge47_Node000037_Node000005"><a xlink:title=" ">
<path fill="none" stroke="#63b8ff" d="M1043.99,-197.79C936.62,-179.72 907.32,-181.05 803.5,-162 800.59,-161.47 797.61,-160.9 794.61,-160.3"/>
<polygon fill="#63b8ff" stroke="#63b8ff" points="1043.48,-201.25 1053.92,-199.48 1044.65,-194.35 1043.48,-201.25"/>
</a>
</g>
</g>
<!-- Node38 -->
<g id="Node000038" class="node">
<title>Node38</title>
<g id="a_Node000038"><a xlink:href="UtilitySquare_8cpp.html" target="_top" xlink:title=" ">
<polygon fill="white" stroke="#666666" points="1178.5,-162 1068.5,-162 1068.5,-132 1178.5,-132 1178.5,-162"/>
<text text-anchor="start" x="1076.5" y="-150" font-family="Helvetica,sans-Serif" font-size="10.00">src/view/components</text>
<text text-anchor="middle" x="1123.5" y="-139" font-family="Helvetica,sans-Serif" font-size="10.00">/UtilitySquare.cpp</text>
</a>
</g>
</g>
<!-- Node37&#45;&gt;Node38 -->
<g id="edge48_Node000037_Node000038" class="edge">
<title>Node37&#45;&gt;Node38</title>
<g id="a_edge48_Node000037_Node000038"><a xlink:title=" ">
<path fill="none" stroke="#63b8ff" d="M1119.77,-187.83C1120.58,-179.17 1121.47,-169.7 1122.17,-162.16"/>
<polygon fill="#63b8ff" stroke="#63b8ff" points="1116.28,-187.51 1118.83,-197.8 1123.25,-188.17 1116.28,-187.51"/>
</a>
</g>
</g>
<!-- Node41&#45;&gt;Node9 -->
<g id="edge53_Node000041_Node000009" class="edge">
<title>Node41&#45;&gt;Node9</title>
<g id="a_edge53_Node000041_Node000009"><a xlink:title=" ">
<path fill="none" stroke="#63b8ff" d="M1984.23,-259.78C1961.37,-249.69 1933.38,-237.34 1912.25,-228.01"/>
<polygon fill="#63b8ff" stroke="#63b8ff" points="1983.12,-263.12 1993.68,-263.95 1985.94,-256.71 1983.12,-263.12"/>
</a>
</g>
</g>
<!-- Node42 -->
<g id="Node000042" class="node">
<title>Node42</title>
<g id="a_Node000042"><a xlink:href="BoardSquareComposite_8hpp.html" target="_top" xlink:title=" ">
<polygon fill="white" stroke="#666666" points="2249.5,-228 2107.5,-228 2107.5,-198 2249.5,-198 2249.5,-228"/>
<text text-anchor="start" x="2115.5" y="-216" font-family="Helvetica,sans-Serif" font-size="10.00">include/view/components</text>
<text text-anchor="middle" x="2178.5" y="-205" font-family="Helvetica,sans-Serif" font-size="10.00">/BoardSquareComposite.hpp</text>
</a>
</g>
</g>
<!-- Node41&#45;&gt;Node42 -->
<g id="edge52_Node000041_Node000042" class="edge">
<title>Node41&#45;&gt;Node42</title>
<g id="a_edge52_Node000041_Node000042"><a xlink:title=" ">
<path fill="none" stroke="#63b8ff" d="M2068.4,-260.05C2092.64,-249.91 2122.5,-237.43 2145,-228.01"/>
<polygon fill="#63b8ff" stroke="#63b8ff" points="2066.95,-256.87 2059.08,-263.95 2069.65,-263.32 2066.95,-256.87"/>
</a>
</g>
</g>
<!-- Node43 -->
<g id="Node000043" class="node">
<title>Node43</title>
<g id="a_Node000043"><a xlink:href="UserView_8hpp.html" target="_top" xlink:title=" ">
<polygon fill="white" stroke="#666666" points="2089,-228 1962,-228 1962,-198 2089,-198 2089,-228"/>
<text text-anchor="start" x="1970" y="-216" font-family="Helvetica,sans-Serif" font-size="10.00">include/view/components</text>
<text text-anchor="middle" x="2025.5" y="-205" font-family="Helvetica,sans-Serif" font-size="10.00">/UserView.hpp</text>
</a>
</g>
</g>
<!-- Node41&#45;&gt;Node43 -->
<g id="edge54_Node000041_Node000043" class="edge">
<title>Node41&#45;&gt;Node43</title>
<g id="a_edge54_Node000041_Node000043"><a xlink:title=" ">
<path fill="none" stroke="#63b8ff" d="M2025.5,-253.54C2025.5,-244.96 2025.5,-235.61 2025.5,-228.16"/>
<polygon fill="#63b8ff" stroke="#63b8ff" points="2022,-253.8 2025.5,-263.8 2029,-253.8 2022,-253.8"/>
</a>
</g>
</g>
<!-- Node45 -->
<g id="Node000045" class="node">
<title>Node45</title>
<g id="a_Node000045"><a xlink:href="Window_8hpp.html" target="_top" xlink:title=" ">
<polygon fill="white" stroke="#666666" points="2395,-228 2268,-228 2268,-198 2395,-198 2395,-228"/>
<text text-anchor="start" x="2276" y="-216" font-family="Helvetica,sans-Serif" font-size="10.00">include/view/components</text>
<text text-anchor="middle" x="2331.5" y="-205" font-family="Helvetica,sans-Serif" font-size="10.00">/Window.hpp</text>
</a>
</g>
</g>
<!-- Node41&#45;&gt;Node45 -->
<g id="edge57_Node000041_Node000045" class="edge">
<title>Node41&#45;&gt;Node45</title>
<g id="a_edge57_Node000041_Node000045"><a xlink:title=" ">
<path fill="none" stroke="#63b8ff" d="M2099.34,-262.56C2150.79,-251.8 2218.73,-237.59 2267.81,-227.32"/>
<polygon fill="#63b8ff" stroke="#63b8ff" points="2098.35,-259.19 2089.28,-264.66 2099.78,-266.04 2098.35,-259.19"/>
</a>
</g>
</g>
<!-- Node43&#45;&gt;Node10 -->
<g id="edge55_Node000043_Node000010" class="edge">
<title>Node43&#45;&gt;Node10</title>
<g id="a_edge55_Node000043_Node000010"><a xlink:title=" ">
<path fill="none" stroke="#63b8ff" d="M1984.51,-193.78C1956.97,-181.54 1921.96,-165.98 1900.66,-156.52"/>
<polygon fill="#63b8ff" stroke="#63b8ff" points="1983.34,-197.09 1993.9,-197.95 1986.18,-190.7 1983.34,-197.09"/>
</a>
</g>
</g>
<!-- Node44 -->
<g id="Node000044" class="node">
<title>Node44</title>
<g id="a_Node000044"><a xlink:href="UserView_8cpp.html" target="_top" xlink:title=" ">
<polygon fill="white" stroke="#666666" points="2080.5,-162 1970.5,-162 1970.5,-132 2080.5,-132 2080.5,-162"/>
<text text-anchor="start" x="1978.5" y="-150" font-family="Helvetica,sans-Serif" font-size="10.00">src/view/components</text>
<text text-anchor="middle" x="2025.5" y="-139" font-family="Helvetica,sans-Serif" font-size="10.00">/UserView.cpp</text>
</a>
</g>
</g>
<!-- Node43&#45;&gt;Node44 -->
<g id="edge56_Node000043_Node000044" class="edge">
<title>Node43&#45;&gt;Node44</title>
<g id="a_edge56_Node000043_Node000044"><a xlink:title=" ">
<path fill="none" stroke="#63b8ff" d="M2025.5,-187.54C2025.5,-178.96 2025.5,-169.61 2025.5,-162.16"/>
<polygon fill="#63b8ff" stroke="#63b8ff" points="2022,-187.8 2025.5,-197.8 2029,-187.8 2022,-187.8"/>
</a>
</g>
</g>
</g>
</svg>
