<?xml version="1.0" encoding="UTF-8" standalone="no"?>
<!DOCTYPE svg PUBLIC "-//W3C//DTD SVG 1.1//EN"
 "http://www.w3.org/Graphics/SVG/1.1/DTD/svg11.dtd">
<!-- Generated by graphviz version 2.43.0 (0)
 -->
<!-- Title: include/view/components/SFComposite.hpp Pages: 1 -->
<svg width="709pt" height="302pt"
 viewBox="0.00 0.00 708.50 302.00" xmlns="http://www.w3.org/2000/svg" xmlns:xlink="http://www.w3.org/1999/xlink">
<g id="graph0" class="graph" transform="scale(1 1) rotate(0) translate(4 298)">
<title>include/view/components/SFComposite.hpp</title>
<!-- Node1 -->
<g id="Node000001" class="node">
<title>Node1</title>
<g id="a_Node000001"><a xlink:title=" ">
<polygon fill="#999999" stroke="#666666" points="482.5,-294 355.5,-294 355.5,-264 482.5,-264 482.5,-294"/>
<text text-anchor="start" x="363.5" y="-282" font-family="Helvetica,sans-Serif" font-size="10.00">include/view/components</text>
<text text-anchor="middle" x="419" y="-271" font-family="Helvetica,sans-Serif" font-size="10.00">/SFComposite.hpp</text>
</a>
</g>
</g>
<!-- Node2 -->
<g id="Node000002" class="node">
<title>Node2</title>
<g id="a_Node000002"><a xlink:href="BoardSquareComposite_8hpp.html" target="_top" xlink:title=" ">
<polygon fill="white" stroke="#666666" points="265,-228 123,-228 123,-198 265,-198 265,-228"/>
<text text-anchor="start" x="131" y="-216" font-family="Helvetica,sans-Serif" font-size="10.00">include/view/components</text>
<text text-anchor="middle" x="194" y="-205" font-family="Helvetica,sans-Serif" font-size="10.00">/BoardSquareComposite.hpp</text>
</a>
</g>
</g>
<!-- Node1&#45;&gt;Node2 -->
<g id="edge1_Node000001_Node000002" class="edge">
<title>Node1&#45;&gt;Node2</title>
<g id="a_edge1_Node000001_Node000002"><a xlink:title=" ">
<path fill="none" stroke="#63b8ff" d="M359.66,-261.12C323.38,-250.8 277.53,-237.76 243.26,-228.01"/>
<polygon fill="#63b8ff" stroke="#63b8ff" points="359.05,-264.59 369.62,-263.95 360.96,-257.85 359.05,-264.59"/>
</a>
</g>
</g>
<!-- Node3 -->
<g id="Node000003" class="node">
<title>Node3</title>
<g id="a_Node000003"><a xlink:href="BoardView_8hpp.html" target="_top" xlink:title=" ">
<polygon fill="white" stroke="#666666" points="410.5,-228 283.5,-228 283.5,-198 410.5,-198 410.5,-228"/>
<text text-anchor="start" x="291.5" y="-216" font-family="Helvetica,sans-Serif" font-size="10.00">include/view/components</text>
<text text-anchor="middle" x="347" y="-205" font-family="Helvetica,sans-Serif" font-size="10.00">/BoardView.hpp</text>
</a>
</g>
</g>
<!-- Node1&#45;&gt;Node3 -->
<g id="edge2_Node000001_Node000003" class="edge">
<title>Node1&#45;&gt;Node3</title>
<g id="a_edge2_Node000001_Node000003"><a xlink:title=" ">
<path fill="none" stroke="#63b8ff" d="M395.29,-256.92C384.67,-247.49 372.43,-236.61 362.93,-228.16"/>
<polygon fill="#63b8ff" stroke="#63b8ff" points="393.22,-259.77 403.02,-263.8 397.87,-254.54 393.22,-259.77"/>
</a>
</g>
</g>
<!-- Node13 -->
<g id="Node000013" class="node">
<title>Node13</title>
<g id="a_Node000013"><a xlink:href="UserView_8hpp.html" target="_top" xlink:title=" ">
<polygon fill="white" stroke="#666666" points="555.5,-228 428.5,-228 428.5,-198 555.5,-198 555.5,-228"/>
<text text-anchor="start" x="436.5" y="-216" font-family="Helvetica,sans-Serif" font-size="10.00">include/view/components</text>
<text text-anchor="middle" x="492" y="-205" font-family="Helvetica,sans-Serif" font-size="10.00">/UserView.hpp</text>
</a>
</g>
</g>
<!-- Node1&#45;&gt;Node13 -->
<g id="edge12_Node000001_Node000013" class="edge">
<title>Node1&#45;&gt;Node13</title>
<g id="a_edge12_Node000001_Node000013"><a xlink:title=" ">
<path fill="none" stroke="#63b8ff" d="M442.72,-257.2C453.56,-247.7 466.12,-236.69 475.84,-228.16"/>
<polygon fill="#63b8ff" stroke="#63b8ff" points="440.41,-254.57 435.2,-263.8 445.03,-259.84 440.41,-254.57"/>
</a>
</g>
</g>
<!-- Node15 -->
<g id="Node000015" class="node">
<title>Node15</title>
<g id="a_Node000015"><a xlink:href="Window_8hpp.html" target="_top" xlink:title=" ">
<polygon fill="white" stroke="#666666" points="700.5,-228 573.5,-228 573.5,-198 700.5,-198 700.5,-228"/>
<text text-anchor="start" x="581.5" y="-216" font-family="Helvetica,sans-Serif" font-size="10.00">include/view/components</text>
<text text-anchor="middle" x="637" y="-205" font-family="Helvetica,sans-Serif" font-size="10.00">/Window.hpp</text>
</a>
</g>
</g>
<!-- Node1&#45;&gt;Node15 -->
<g id="edge15_Node000001_Node000015" class="edge">
<title>Node1&#45;&gt;Node15</title>
<g id="a_edge15_Node000001_Node000015"><a xlink:title=" ">
<path fill="none" stroke="#63b8ff" d="M476.49,-261.12C511.64,-250.8 556.07,-237.76 589.27,-228.01"/>
<polygon fill="#63b8ff" stroke="#63b8ff" points="475.45,-257.78 466.84,-263.95 477.42,-264.5 475.45,-257.78"/>
</a>
</g>
</g>
<!-- Node4 -->
<g id="Node000004" class="node">
<title>Node4</title>
<g id="a_Node000004"><a xlink:href="GameView_8hpp.html" target="_top" xlink:title="Main view class for the Monopoly game&#39;s graphical interface.">
<polygon fill="white" stroke="#666666" points="488.5,-156.5 349.5,-156.5 349.5,-137.5 488.5,-137.5 488.5,-156.5"/>
<text text-anchor="middle" x="419" y="-144.5" font-family="Helvetica,sans-Serif" font-size="10.00">include/view/GameView.hpp</text>
</a>
</g>
</g>
<!-- Node3&#45;&gt;Node4 -->
<g id="edge3_Node000003_Node000004" class="edge">
<title>Node3&#45;&gt;Node4</title>
<g id="a_edge3_Node000003_Node000004"><a xlink:title=" ">
<path fill="none" stroke="#63b8ff" d="M370.7,-190.93C383.73,-179.35 399.19,-165.61 409.05,-156.84"/>
<polygon fill="#63b8ff" stroke="#63b8ff" points="368.13,-188.54 362.98,-197.8 372.78,-193.77 368.13,-188.54"/>
</a>
</g>
</g>
<!-- Node12 -->
<g id="Node000012" class="node">
<title>Node12</title>
<g id="a_Node000012"><a xlink:href="BoardView_8cpp.html" target="_top" xlink:title=" ">
<polygon fill="white" stroke="#666666" points="331,-162 221,-162 221,-132 331,-132 331,-162"/>
<text text-anchor="start" x="229" y="-150" font-family="Helvetica,sans-Serif" font-size="10.00">src/view/components</text>
<text text-anchor="middle" x="276" y="-139" font-family="Helvetica,sans-Serif" font-size="10.00">/BoardView.cpp</text>
</a>
</g>
</g>
<!-- Node3&#45;&gt;Node12 -->
<g id="edge11_Node000003_Node000012" class="edge">
<title>Node3&#45;&gt;Node12</title>
<g id="a_edge11_Node000003_Node000012"><a xlink:title=" ">
<path fill="none" stroke="#63b8ff" d="M323.62,-190.92C313.15,-181.49 301.08,-170.61 291.71,-162.16"/>
<polygon fill="#63b8ff" stroke="#63b8ff" points="321.47,-193.7 331.24,-197.8 326.16,-188.5 321.47,-193.7"/>
</a>
</g>
</g>
<!-- Node5 -->
<g id="Node000005" class="node">
<title>Node5</title>
<g id="a_Node000005"><a xlink:href="GameController_8hpp.html" target="_top" xlink:title="Main controller class for the Monopoly game implementation.">
<polygon fill="white" stroke="#666666" points="406,-96 300,-96 300,-66 406,-66 406,-96"/>
<text text-anchor="start" x="308" y="-84" font-family="Helvetica,sans-Serif" font-size="10.00">include/controller</text>
<text text-anchor="middle" x="353" y="-73" font-family="Helvetica,sans-Serif" font-size="10.00">/GameController.hpp</text>
</a>
</g>
</g>
<!-- Node4&#45;&gt;Node5 -->
<g id="edge4_Node000004_Node000005" class="edge">
<title>Node4&#45;&gt;Node5</title>
<g id="a_edge4_Node000004_Node000005"><a xlink:title=" ">
<path fill="none" stroke="#63b8ff" d="M402.61,-130.1C391.85,-119.68 377.92,-106.16 367.56,-96.12"/>
<polygon fill="#63b8ff" stroke="#63b8ff" points="400.48,-132.92 410.1,-137.37 405.36,-127.89 400.48,-132.92"/>
</a>
</g>
</g>
<!-- Node11 -->
<g id="Node000011" class="node">
<title>Node11</title>
<g id="a_Node000011"><a xlink:href="GameView_8cpp.html" target="_top" xlink:title=" ">
<polygon fill="white" stroke="#666666" points="546,-90.5 424,-90.5 424,-71.5 546,-71.5 546,-90.5"/>
<text text-anchor="middle" x="485" y="-78.5" font-family="Helvetica,sans-Serif" font-size="10.00">src/view/GameView.cpp</text>
</a>
</g>
</g>
<!-- Node4&#45;&gt;Node11 -->
<g id="edge10_Node000004_Node000011" class="edge">
<title>Node4&#45;&gt;Node11</title>
<g id="a_edge10_Node000004_Node000011"><a xlink:title=" ">
<path fill="none" stroke="#63b8ff" d="M435.16,-130.33C447.94,-117.94 465.32,-101.09 475.82,-90.91"/>
<polygon fill="#63b8ff" stroke="#63b8ff" points="432.64,-127.89 427.9,-137.37 437.52,-132.92 432.64,-127.89"/>
</a>
</g>
</g>
<!-- Node6 -->
<g id="Node000006" class="node">
<title>Node6</title>
<g id="a_Node000006"><a xlink:href="GameController_8cpp.html" target="_top" xlink:title=" ">
<polygon fill="white" stroke="#666666" points="162,-24.5 0,-24.5 0,-5.5 162,-5.5 162,-24.5"/>
<text text-anchor="middle" x="81" y="-12.5" font-family="Helvetica,sans-Serif" font-size="10.00">src/controller/GameController.cpp</text>
</a>
</g>
</g>
<!-- Node5&#45;&gt;Node6 -->
<g id="edge5_Node000005_Node000006" class="edge">
<title>Node5&#45;&gt;Node6</title>
<g id="a_edge5_Node000005_Node000006"><a xlink:title=" ">
<path fill="none" stroke="#63b8ff" d="M289.84,-65.14C236.33,-52.55 161.47,-34.93 117.43,-24.57"/>
<polygon fill="#63b8ff" stroke="#63b8ff" points="289.37,-68.62 299.91,-67.51 290.98,-61.81 289.37,-68.62"/>
</a>
</g>
</g>
<!-- Node7 -->
<g id="Node000007" class="node">
<title>Node7</title>
<g id="a_Node000007"><a xlink:href="GameState_8cpp.html" target="_top" xlink:title=" ">
<polygon fill="white" stroke="#666666" points="283.5,-30 180.5,-30 180.5,0 283.5,0 283.5,-30"/>
<text text-anchor="start" x="188.5" y="-18" font-family="Helvetica,sans-Serif" font-size="10.00">src/controller/states</text>
<text text-anchor="middle" x="232" y="-7" font-family="Helvetica,sans-Serif" font-size="10.00">/GameState.cpp</text>
</a>
</g>
</g>
<!-- Node5&#45;&gt;Node7 -->
<g id="edge6_Node000005_Node000007" class="edge">
<title>Node5&#45;&gt;Node7</title>
<g id="a_edge6_Node000005_Node000007"><a xlink:title=" ">
<path fill="none" stroke="#63b8ff" d="M317.53,-61.24C298.65,-51.25 275.82,-39.18 258.49,-30.01"/>
<polygon fill="#63b8ff" stroke="#63b8ff" points="315.97,-64.37 326.45,-65.95 319.24,-58.19 315.97,-64.37"/>
</a>
</g>
</g>
<!-- Node8 -->
<g id="Node000008" class="node">
<title>Node8</title>
<g id="a_Node000008"><a xlink:href="RollDiceState_8cpp.html" target="_top" xlink:title=" ">
<polygon fill="white" stroke="#666666" points="404.5,-30 301.5,-30 301.5,0 404.5,0 404.5,-30"/>
<text text-anchor="start" x="309.5" y="-18" font-family="Helvetica,sans-Serif" font-size="10.00">src/controller/states</text>
<text text-anchor="middle" x="353" y="-7" font-family="Helvetica,sans-Serif" font-size="10.00">/RollDiceState.cpp</text>
</a>
</g>
</g>
<!-- Node5&#45;&gt;Node8 -->
<g id="edge7_Node000005_Node000008" class="edge">
<title>Node5&#45;&gt;Node8</title>
<g id="a_edge7_Node000005_Node000008"><a xlink:title=" ">
<path fill="none" stroke="#63b8ff" d="M353,-55.54C353,-46.96 353,-37.61 353,-30.16"/>
<polygon fill="#63b8ff" stroke="#63b8ff" points="349.5,-55.8 353,-65.8 356.5,-55.8 349.5,-55.8"/>
</a>
</g>
</g>
<!-- Node9 -->
<g id="Node000009" class="node">
<title>Node9</title>
<g id="a_Node000009"><a xlink:href="StartState_8cpp.html" target="_top" xlink:title=" ">
<polygon fill="white" stroke="#666666" points="525.5,-30 422.5,-30 422.5,0 525.5,0 525.5,-30"/>
<text text-anchor="start" x="430.5" y="-18" font-family="Helvetica,sans-Serif" font-size="10.00">src/controller/states</text>
<text text-anchor="middle" x="474" y="-7" font-family="Helvetica,sans-Serif" font-size="10.00">/StartState.cpp</text>
</a>
</g>
</g>
<!-- Node5&#45;&gt;Node9 -->
<g id="edge8_Node000005_Node000009" class="edge">
<title>Node5&#45;&gt;Node9</title>
<g id="a_edge8_Node000005_Node000009"><a xlink:title=" ">
<path fill="none" stroke="#63b8ff" d="M388.47,-61.24C407.35,-51.25 430.18,-39.18 447.51,-30.01"/>
<polygon fill="#63b8ff" stroke="#63b8ff" points="386.76,-58.19 379.55,-65.95 390.03,-64.37 386.76,-58.19"/>
</a>
</g>
</g>
<!-- Node10 -->
<g id="Node000010" class="node">
<title>Node10</title>
<g id="a_Node000010"><a xlink:href="TurnState_8cpp.html" target="_top" xlink:title=" ">
<polygon fill="white" stroke="#666666" points="646.5,-30 543.5,-30 543.5,0 646.5,0 646.5,-30"/>
<text text-anchor="start" x="551.5" y="-18" font-family="Helvetica,sans-Serif" font-size="10.00">src/controller/states</text>
<text text-anchor="middle" x="595" y="-7" font-family="Helvetica,sans-Serif" font-size="10.00">/TurnState.cpp</text>
</a>
</g>
</g>
<!-- Node5&#45;&gt;Node10 -->
<g id="edge9_Node000005_Node000010" class="edge">
<title>Node5&#45;&gt;Node10</title>
<g id="a_edge9_Node000005_Node000010"><a xlink:title=" ">
<path fill="none" stroke="#63b8ff" d="M415.93,-63.36C455.52,-52.89 506,-39.54 543.26,-29.68"/>
<polygon fill="#63b8ff" stroke="#63b8ff" points="414.88,-60.01 406.11,-65.95 416.67,-66.78 414.88,-60.01"/>
</a>
</g>
</g>
<!-- Node13&#45;&gt;Node4 -->
<g id="edge13_Node000013_Node000004" class="edge">
<title>Node13&#45;&gt;Node4</title>
<g id="a_edge13_Node000013_Node000004"><a xlink:title=" ">
<path fill="none" stroke="#63b8ff" d="M467.97,-190.93C454.76,-179.35 439.08,-165.61 429.09,-156.84"/>
<polygon fill="#63b8ff" stroke="#63b8ff" points="465.97,-193.84 475.8,-197.8 470.59,-188.57 465.97,-193.84"/>
</a>
</g>
</g>
<!-- Node14 -->
<g id="Node000014" class="node">
<title>Node14</title>
<g id="a_Node000014"><a xlink:href="UserView_8cpp.html" target="_top" xlink:title=" ">
<polygon fill="white" stroke="#666666" points="617,-162 507,-162 507,-132 617,-132 617,-162"/>
<text text-anchor="start" x="515" y="-150" font-family="Helvetica,sans-Serif" font-size="10.00">src/view/components</text>
<text text-anchor="middle" x="562" y="-139" font-family="Helvetica,sans-Serif" font-size="10.00">/UserView.cpp</text>
</a>
</g>
</g>
<!-- Node13&#45;&gt;Node14 -->
<g id="edge14_Node000013_Node000014" class="edge">
<title>Node13&#45;&gt;Node14</title>
<g id="a_edge14_Node000013_Node000014"><a xlink:title=" ">
<path fill="none" stroke="#63b8ff" d="M515.05,-190.92C525.37,-181.49 537.27,-170.61 546.51,-162.16"/>
<polygon fill="#63b8ff" stroke="#63b8ff" points="512.55,-188.47 507.54,-197.8 517.28,-193.63 512.55,-188.47"/>
</a>
</g>
</g>
</g>
</svg>
