<?xml version="1.0" encoding="UTF-8" standalone="no"?>
<!DOCTYPE svg PUBLIC "-//W3C//DTD SVG 1.1//EN"
 "http://www.w3.org/Graphics/SVG/1.1/DTD/svg11.dtd">
<!-- Generated by graphviz version 2.43.0 (0)
 -->
<!-- Title: include/utils/strategy/StrategyRentCalculator.hpp Pages: 1 -->
<svg width="881pt" height="478pt"
 viewBox="0.00 0.00 881.00 478.00" xmlns="http://www.w3.org/2000/svg" xmlns:xlink="http://www.w3.org/1999/xlink">
<g id="graph0" class="graph" transform="scale(1 1) rotate(0) translate(4 474)">
<title>include/utils/strategy/StrategyRentCalculator.hpp</title>
<!-- Node1 -->
<g id="Node000001" class="node">
<title>Node1</title>
<g id="a_Node000001"><a xlink:title=" ">
<polygon fill="#999999" stroke="#666666" points="662,-470 522,-470 522,-440 662,-440 662,-470"/>
<text text-anchor="start" x="530" y="-458" font-family="Helvetica,sans-Serif" font-size="10.00">include/utils/strategy</text>
<text text-anchor="middle" x="592" y="-447" font-family="Helvetica,sans-Serif" font-size="10.00">/StrategyRentCalculator.hpp</text>
</a>
</g>
</g>
<!-- Node2 -->
<g id="Node000002" class="node">
<title>Node2</title>
<g id="a_Node000002"><a xlink:href="Property_8hpp.html" target="_top" xlink:title=" ">
<polygon fill="white" stroke="#666666" points="579,-404 465,-404 465,-374 579,-374 579,-404"/>
<text text-anchor="start" x="473" y="-392" font-family="Helvetica,sans-Serif" font-size="10.00">include/model/squares</text>
<text text-anchor="middle" x="522" y="-381" font-family="Helvetica,sans-Serif" font-size="10.00">/Property.hpp</text>
</a>
</g>
</g>
<!-- Node1&#45;&gt;Node2 -->
<g id="edge1_Node000001_Node000002" class="edge">
<title>Node1&#45;&gt;Node2</title>
<g id="a_edge1_Node000001_Node000002"><a xlink:title=" ">
<path fill="none" stroke="#63b8ff" d="M568.95,-432.92C558.63,-423.49 546.73,-412.61 537.49,-404.16"/>
<polygon fill="#63b8ff" stroke="#63b8ff" points="566.72,-435.63 576.46,-439.8 571.45,-430.47 566.72,-435.63"/>
</a>
</g>
</g>
<!-- Node18 -->
<g id="Node000018" class="node">
<title>Node18</title>
<g id="a_Node000018"><a xlink:href="RailroadRentCalculator_8hpp.html" target="_top" xlink:title=" ">
<polygon fill="white" stroke="#666666" points="446.5,-404 307.5,-404 307.5,-374 446.5,-374 446.5,-404"/>
<text text-anchor="start" x="315.5" y="-392" font-family="Helvetica,sans-Serif" font-size="10.00">include/utils/strategy</text>
<text text-anchor="middle" x="377" y="-381" font-family="Helvetica,sans-Serif" font-size="10.00">/RailroadRentCalculator.hpp</text>
</a>
</g>
</g>
<!-- Node1&#45;&gt;Node18 -->
<g id="edge21_Node000001_Node000018" class="edge">
<title>Node1&#45;&gt;Node18</title>
<g id="a_edge21_Node000001_Node000018"><a xlink:title=" ">
<path fill="none" stroke="#63b8ff" d="M534.85,-436.99C500.26,-426.69 456.67,-413.72 424.07,-404.01"/>
<polygon fill="#63b8ff" stroke="#63b8ff" points="534.23,-440.46 544.82,-439.95 536.23,-433.75 534.23,-440.46"/>
</a>
</g>
</g>
<!-- Node19 -->
<g id="Node000019" class="node">
<title>Node19</title>
<g id="a_Node000019"><a xlink:href="StreetRentCalculator_8hpp.html" target="_top" xlink:title=" ">
<polygon fill="white" stroke="#666666" points="726.5,-404 597.5,-404 597.5,-374 726.5,-374 726.5,-404"/>
<text text-anchor="start" x="605.5" y="-392" font-family="Helvetica,sans-Serif" font-size="10.00">include/utils/strategy</text>
<text text-anchor="middle" x="662" y="-381" font-family="Helvetica,sans-Serif" font-size="10.00">/StreetRentCalculator.hpp</text>
</a>
</g>
</g>
<!-- Node1&#45;&gt;Node19 -->
<g id="edge23_Node000001_Node000019" class="edge">
<title>Node1&#45;&gt;Node19</title>
<g id="a_edge23_Node000001_Node000019"><a xlink:title=" ">
<path fill="none" stroke="#63b8ff" d="M615.05,-432.92C625.37,-423.49 637.27,-412.61 646.51,-404.16"/>
<polygon fill="#63b8ff" stroke="#63b8ff" points="612.55,-430.47 607.54,-439.8 617.28,-435.63 612.55,-430.47"/>
</a>
</g>
</g>
<!-- Node20 -->
<g id="Node000020" class="node">
<title>Node20</title>
<g id="a_Node000020"><a xlink:href="UtilityRentCalculator_8hpp.html" target="_top" xlink:title=" ">
<polygon fill="white" stroke="#666666" points="873,-404 745,-404 745,-374 873,-374 873,-404"/>
<text text-anchor="start" x="753" y="-392" font-family="Helvetica,sans-Serif" font-size="10.00">include/utils/strategy</text>
<text text-anchor="middle" x="809" y="-381" font-family="Helvetica,sans-Serif" font-size="10.00">/UtilityRentCalculator.hpp</text>
</a>
</g>
</g>
<!-- Node1&#45;&gt;Node20 -->
<g id="edge25_Node000001_Node000020" class="edge">
<title>Node1&#45;&gt;Node20</title>
<g id="a_edge25_Node000001_Node000020"><a xlink:title=" ">
<path fill="none" stroke="#63b8ff" d="M649.23,-437.12C684.22,-426.8 728.44,-413.76 761.49,-404.01"/>
<polygon fill="#63b8ff" stroke="#63b8ff" points="648.22,-433.77 639.62,-439.95 650.2,-440.48 648.22,-433.77"/>
</a>
</g>
</g>
<!-- Node3 -->
<g id="Node000003" class="node">
<title>Node3</title>
<g id="a_Node000003"><a xlink:href="Board_8hpp.html" target="_top" xlink:title=" ">
<polygon fill="white" stroke="#666666" points="626,-272 502,-272 502,-253 626,-253 626,-272"/>
<text text-anchor="middle" x="564" y="-260" font-family="Helvetica,sans-Serif" font-size="10.00">include/model/Board.hpp</text>
</a>
</g>
</g>
<!-- Node2&#45;&gt;Node3 -->
<g id="edge2_Node000002_Node000003" class="edge">
<title>Node2&#45;&gt;Node3</title>
<g id="a_edge2_Node000002_Node000003"><a xlink:title=" ">
<path fill="none" stroke="#63b8ff" d="M526.18,-363.63C529.33,-347.54 534.27,-326.16 541,-308 545.84,-294.95 553.61,-280.83 558.76,-272.08"/>
<polygon fill="#63b8ff" stroke="#63b8ff" points="522.68,-363.35 524.29,-373.82 529.56,-364.63 522.68,-363.35"/>
</a>
</g>
</g>
<!-- Node15 -->
<g id="Node000015" class="node">
<title>Node15</title>
<g id="a_Node000015"><a xlink:href="Railroad_8hpp.html" target="_top" xlink:title=" ">
<polygon fill="white" stroke="#666666" points="494,-338 380,-338 380,-308 494,-308 494,-338"/>
<text text-anchor="start" x="388" y="-326" font-family="Helvetica,sans-Serif" font-size="10.00">include/model/squares</text>
<text text-anchor="middle" x="437" y="-315" font-family="Helvetica,sans-Serif" font-size="10.00">/Railroad.hpp</text>
</a>
</g>
</g>
<!-- Node2&#45;&gt;Node15 -->
<g id="edge15_Node000002_Node000015" class="edge">
<title>Node2&#45;&gt;Node15</title>
<g id="a_edge15_Node000002_Node000015"><a xlink:title=" ">
<path fill="none" stroke="#63b8ff" d="M495.11,-367.75C482.33,-358.13 467.36,-346.86 455.81,-338.16"/>
<polygon fill="#63b8ff" stroke="#63b8ff" points="493.04,-370.58 503.14,-373.8 497.25,-364.99 493.04,-370.58"/>
</a>
</g>
</g>
<!-- Node16 -->
<g id="Node000016" class="node">
<title>Node16</title>
<g id="a_Node000016"><a xlink:href="Street_8hpp.html" target="_top" xlink:title=" ">
<polygon fill="white" stroke="#666666" points="664,-338 550,-338 550,-308 664,-308 664,-338"/>
<text text-anchor="start" x="558" y="-326" font-family="Helvetica,sans-Serif" font-size="10.00">include/model/squares</text>
<text text-anchor="middle" x="607" y="-315" font-family="Helvetica,sans-Serif" font-size="10.00">/Street.hpp</text>
</a>
</g>
</g>
<!-- Node2&#45;&gt;Node16 -->
<g id="edge17_Node000002_Node000016" class="edge">
<title>Node2&#45;&gt;Node16</title>
<g id="a_edge17_Node000002_Node000016"><a xlink:title=" ">
<path fill="none" stroke="#63b8ff" d="M548.89,-367.75C561.67,-358.13 576.64,-346.86 588.19,-338.16"/>
<polygon fill="#63b8ff" stroke="#63b8ff" points="546.75,-364.99 540.86,-373.8 550.96,-370.58 546.75,-364.99"/>
</a>
</g>
</g>
<!-- Node17 -->
<g id="Node000017" class="node">
<title>Node17</title>
<g id="a_Node000017"><a xlink:href="Utility_8hpp.html" target="_top" xlink:title=" ">
<polygon fill="white" stroke="#666666" points="796,-338 682,-338 682,-308 796,-308 796,-338"/>
<text text-anchor="start" x="690" y="-326" font-family="Helvetica,sans-Serif" font-size="10.00">include/model/squares</text>
<text text-anchor="middle" x="739" y="-315" font-family="Helvetica,sans-Serif" font-size="10.00">/Utility.hpp</text>
</a>
</g>
</g>
<!-- Node2&#45;&gt;Node17 -->
<g id="edge19_Node000002_Node000017" class="edge">
<title>Node2&#45;&gt;Node17</title>
<g id="a_edge19_Node000002_Node000017"><a xlink:title=" ">
<path fill="none" stroke="#63b8ff" d="M579.23,-371.12C614.22,-360.8 658.44,-347.76 691.49,-338.01"/>
<polygon fill="#63b8ff" stroke="#63b8ff" points="578.22,-367.77 569.62,-373.95 580.2,-374.48 578.22,-367.77"/>
</a>
</g>
</g>
<!-- Node4 -->
<g id="Node000004" class="node">
<title>Node4</title>
<g id="a_Node000004"><a xlink:href="GameModel_8hpp.html" target="_top" xlink:title="Core game logic implementation for Monopoly board game.">
<polygon fill="white" stroke="#666666" points="497.5,-151 346.5,-151 346.5,-132 497.5,-132 497.5,-151"/>
<text text-anchor="middle" x="422" y="-139" font-family="Helvetica,sans-Serif" font-size="10.00">include/model/GameModel.hpp</text>
</a>
</g>
</g>
<!-- Node3&#45;&gt;Node4 -->
<g id="edge3_Node000003_Node000004" class="edge">
<title>Node3&#45;&gt;Node4</title>
<g id="a_edge3_Node000003_Node000004"><a xlink:title=" ">
<path fill="none" stroke="#63b8ff" d="M491.59,-252.5C448.33,-245.47 399.28,-234 386,-217 369.47,-195.83 396.3,-165.83 411.96,-151.2"/>
<polygon fill="#63b8ff" stroke="#63b8ff" points="491.16,-255.98 501.58,-254.06 492.24,-249.06 491.16,-255.98"/>
</a>
</g>
</g>
<!-- Node12 -->
<g id="Node000012" class="node">
<title>Node12</title>
<g id="a_Node000012"><a xlink:href="MonopolyRules_8hpp.html" target="_top" xlink:title=" ">
<polygon fill="white" stroke="#666666" points="561,-211.5 395,-211.5 395,-192.5 561,-192.5 561,-211.5"/>
<text text-anchor="middle" x="478" y="-199.5" font-family="Helvetica,sans-Serif" font-size="10.00">include/model/MonopolyRules.hpp</text>
</a>
</g>
</g>
<!-- Node3&#45;&gt;Node12 -->
<g id="edge11_Node000003_Node000012" class="edge">
<title>Node3&#45;&gt;Node12</title>
<g id="a_edge11_Node000003_Node000012"><a xlink:title=" ">
<path fill="none" stroke="#63b8ff" d="M542.92,-247.16C526.58,-236.05 504.48,-221.01 490.74,-211.67"/>
<polygon fill="#63b8ff" stroke="#63b8ff" points="541.07,-250.14 551.31,-252.87 545.01,-244.35 541.07,-250.14"/>
</a>
</g>
</g>
<!-- Node13 -->
<g id="Node000013" class="node">
<title>Node13</title>
<g id="a_Node000013"><a xlink:href="BoardSquareComposite_8hpp.html" target="_top" xlink:title=" ">
<polygon fill="white" stroke="#666666" points="721,-217 579,-217 579,-187 721,-187 721,-217"/>
<text text-anchor="start" x="587" y="-205" font-family="Helvetica,sans-Serif" font-size="10.00">include/view/components</text>
<text text-anchor="middle" x="650" y="-194" font-family="Helvetica,sans-Serif" font-size="10.00">/BoardSquareComposite.hpp</text>
</a>
</g>
</g>
<!-- Node3&#45;&gt;Node13 -->
<g id="edge13_Node000003_Node000013" class="edge">
<title>Node3&#45;&gt;Node13</title>
<g id="a_edge13_Node000003_Node000013"><a xlink:title=" ">
<path fill="none" stroke="#63b8ff" d="M585.27,-247.03C598.69,-237.9 615.93,-226.17 629.25,-217.11"/>
<polygon fill="#63b8ff" stroke="#63b8ff" points="582.99,-244.35 576.69,-252.87 586.93,-250.14 582.99,-244.35"/>
</a>
</g>
</g>
<!-- Node14 -->
<g id="Node000014" class="node">
<title>Node14</title>
<g id="a_Node000014"><a xlink:href="Board_8cpp.html" target="_top" xlink:title=" ">
<polygon fill="white" stroke="#666666" points="846.5,-211.5 739.5,-211.5 739.5,-192.5 846.5,-192.5 846.5,-211.5"/>
<text text-anchor="middle" x="793" y="-199.5" font-family="Helvetica,sans-Serif" font-size="10.00">src/model/Board.cpp</text>
</a>
</g>
</g>
<!-- Node3&#45;&gt;Node14 -->
<g id="edge14_Node000003_Node000014" class="edge">
<title>Node3&#45;&gt;Node14</title>
<g id="a_edge14_Node000003_Node000014"><a xlink:title=" ">
<path fill="none" stroke="#63b8ff" d="M607.19,-250.47C651.46,-239.16 719.36,-221.81 759.66,-211.52"/>
<polygon fill="#63b8ff" stroke="#63b8ff" points="606.12,-247.13 597.3,-252.99 607.85,-253.91 606.12,-247.13"/>
</a>
</g>
</g>
<!-- Node5 -->
<g id="Node000005" class="node">
<title>Node5</title>
<g id="a_Node000005"><a xlink:href="GameController_8hpp.html" target="_top" xlink:title="Main controller class for the Monopoly game implementation.">
<polygon fill="white" stroke="#666666" points="406,-96 300,-96 300,-66 406,-66 406,-96"/>
<text text-anchor="start" x="308" y="-84" font-family="Helvetica,sans-Serif" font-size="10.00">include/controller</text>
<text text-anchor="middle" x="353" y="-73" font-family="Helvetica,sans-Serif" font-size="10.00">/GameController.hpp</text>
</a>
</g>
</g>
<!-- Node4&#45;&gt;Node5 -->
<g id="edge4_Node000004_Node000005" class="edge">
<title>Node4&#45;&gt;Node5</title>
<g id="a_edge4_Node000004_Node000005"><a xlink:title=" ">
<path fill="none" stroke="#63b8ff" d="M403.99,-125.23C393.37,-116.23 380.02,-104.91 369.65,-96.11"/>
<polygon fill="#63b8ff" stroke="#63b8ff" points="401.93,-128.07 411.82,-131.87 406.45,-122.73 401.93,-128.07"/>
</a>
</g>
</g>
<!-- Node11 -->
<g id="Node000011" class="node">
<title>Node11</title>
<g id="a_Node000011"><a xlink:href="GameModel_8cpp.html" target="_top" xlink:title=" ">
<polygon fill="white" stroke="#666666" points="558,-90.5 424,-90.5 424,-71.5 558,-71.5 558,-90.5"/>
<text text-anchor="middle" x="491" y="-78.5" font-family="Helvetica,sans-Serif" font-size="10.00">src/model/GameModel.cpp</text>
</a>
</g>
</g>
<!-- Node4&#45;&gt;Node11 -->
<g id="edge10_Node000004_Node000011" class="edge">
<title>Node4&#45;&gt;Node11</title>
<g id="a_edge10_Node000004_Node000011"><a xlink:title=" ">
<path fill="none" stroke="#63b8ff" d="M440.02,-125.22C453,-114.21 470.06,-99.75 480.78,-90.67"/>
<polygon fill="#63b8ff" stroke="#63b8ff" points="437.55,-122.73 432.18,-131.87 442.07,-128.07 437.55,-122.73"/>
</a>
</g>
</g>
<!-- Node6 -->
<g id="Node000006" class="node">
<title>Node6</title>
<g id="a_Node000006"><a xlink:href="GameController_8cpp.html" target="_top" xlink:title=" ">
<polygon fill="white" stroke="#666666" points="162,-24.5 0,-24.5 0,-5.5 162,-5.5 162,-24.5"/>
<text text-anchor="middle" x="81" y="-12.5" font-family="Helvetica,sans-Serif" font-size="10.00">src/controller/GameController.cpp</text>
</a>
</g>
</g>
<!-- Node5&#45;&gt;Node6 -->
<g id="edge5_Node000005_Node000006" class="edge">
<title>Node5&#45;&gt;Node6</title>
<g id="a_edge5_Node000005_Node000006"><a xlink:title=" ">
<path fill="none" stroke="#63b8ff" d="M289.84,-65.14C236.33,-52.55 161.47,-34.93 117.43,-24.57"/>
<polygon fill="#63b8ff" stroke="#63b8ff" points="289.37,-68.62 299.91,-67.51 290.98,-61.81 289.37,-68.62"/>
</a>
</g>
</g>
<!-- Node7 -->
<g id="Node000007" class="node">
<title>Node7</title>
<g id="a_Node000007"><a xlink:href="GameState_8cpp.html" target="_top" xlink:title=" ">
<polygon fill="white" stroke="#666666" points="283.5,-30 180.5,-30 180.5,0 283.5,0 283.5,-30"/>
<text text-anchor="start" x="188.5" y="-18" font-family="Helvetica,sans-Serif" font-size="10.00">src/controller/states</text>
<text text-anchor="middle" x="232" y="-7" font-family="Helvetica,sans-Serif" font-size="10.00">/GameState.cpp</text>
</a>
</g>
</g>
<!-- Node5&#45;&gt;Node7 -->
<g id="edge6_Node000005_Node000007" class="edge">
<title>Node5&#45;&gt;Node7</title>
<g id="a_edge6_Node000005_Node000007"><a xlink:title=" ">
<path fill="none" stroke="#63b8ff" d="M317.53,-61.24C298.65,-51.25 275.82,-39.18 258.49,-30.01"/>
<polygon fill="#63b8ff" stroke="#63b8ff" points="315.97,-64.37 326.45,-65.95 319.24,-58.19 315.97,-64.37"/>
</a>
</g>
</g>
<!-- Node8 -->
<g id="Node000008" class="node">
<title>Node8</title>
<g id="a_Node000008"><a xlink:href="RollDiceState_8cpp.html" target="_top" xlink:title=" ">
<polygon fill="white" stroke="#666666" points="404.5,-30 301.5,-30 301.5,0 404.5,0 404.5,-30"/>
<text text-anchor="start" x="309.5" y="-18" font-family="Helvetica,sans-Serif" font-size="10.00">src/controller/states</text>
<text text-anchor="middle" x="353" y="-7" font-family="Helvetica,sans-Serif" font-size="10.00">/RollDiceState.cpp</text>
</a>
</g>
</g>
<!-- Node5&#45;&gt;Node8 -->
<g id="edge7_Node000005_Node000008" class="edge">
<title>Node5&#45;&gt;Node8</title>
<g id="a_edge7_Node000005_Node000008"><a xlink:title=" ">
<path fill="none" stroke="#63b8ff" d="M353,-55.54C353,-46.96 353,-37.61 353,-30.16"/>
<polygon fill="#63b8ff" stroke="#63b8ff" points="349.5,-55.8 353,-65.8 356.5,-55.8 349.5,-55.8"/>
</a>
</g>
</g>
<!-- Node9 -->
<g id="Node000009" class="node">
<title>Node9</title>
<g id="a_Node000009"><a xlink:href="StartState_8cpp.html" target="_top" xlink:title=" ">
<polygon fill="white" stroke="#666666" points="525.5,-30 422.5,-30 422.5,0 525.5,0 525.5,-30"/>
<text text-anchor="start" x="430.5" y="-18" font-family="Helvetica,sans-Serif" font-size="10.00">src/controller/states</text>
<text text-anchor="middle" x="474" y="-7" font-family="Helvetica,sans-Serif" font-size="10.00">/StartState.cpp</text>
</a>
</g>
</g>
<!-- Node5&#45;&gt;Node9 -->
<g id="edge8_Node000005_Node000009" class="edge">
<title>Node5&#45;&gt;Node9</title>
<g id="a_edge8_Node000005_Node000009"><a xlink:title=" ">
<path fill="none" stroke="#63b8ff" d="M388.47,-61.24C407.35,-51.25 430.18,-39.18 447.51,-30.01"/>
<polygon fill="#63b8ff" stroke="#63b8ff" points="386.76,-58.19 379.55,-65.95 390.03,-64.37 386.76,-58.19"/>
</a>
</g>
</g>
<!-- Node10 -->
<g id="Node000010" class="node">
<title>Node10</title>
<g id="a_Node000010"><a xlink:href="TurnState_8cpp.html" target="_top" xlink:title=" ">
<polygon fill="white" stroke="#666666" points="646.5,-30 543.5,-30 543.5,0 646.5,0 646.5,-30"/>
<text text-anchor="start" x="551.5" y="-18" font-family="Helvetica,sans-Serif" font-size="10.00">src/controller/states</text>
<text text-anchor="middle" x="595" y="-7" font-family="Helvetica,sans-Serif" font-size="10.00">/TurnState.cpp</text>
</a>
</g>
</g>
<!-- Node5&#45;&gt;Node10 -->
<g id="edge9_Node000005_Node000010" class="edge">
<title>Node5&#45;&gt;Node10</title>
<g id="a_edge9_Node000005_Node000010"><a xlink:title=" ">
<path fill="none" stroke="#63b8ff" d="M415.93,-63.36C455.52,-52.89 506,-39.54 543.26,-29.68"/>
<polygon fill="#63b8ff" stroke="#63b8ff" points="414.88,-60.01 406.11,-65.95 416.67,-66.78 414.88,-60.01"/>
</a>
</g>
</g>
<!-- Node12&#45;&gt;Node4 -->
<g id="edge12_Node000012_Node000004" class="edge">
<title>Node12&#45;&gt;Node4</title>
<g id="a_edge12_Node000012_Node000004"><a xlink:title=" ">
<path fill="none" stroke="#63b8ff" d="M462.77,-185.09C452.31,-174.17 438.83,-160.08 430.3,-151.17"/>
<polygon fill="#63b8ff" stroke="#63b8ff" points="460.29,-187.56 469.74,-192.37 465.35,-182.72 460.29,-187.56"/>
</a>
</g>
</g>
<!-- Node15&#45;&gt;Node3 -->
<g id="edge16_Node000015_Node000003" class="edge">
<title>Node15&#45;&gt;Node3</title>
<g id="a_edge16_Node000015_Node000003"><a xlink:title=" ">
<path fill="none" stroke="#63b8ff" d="M476.57,-303.77C499.47,-293.22 527.24,-280.43 545.24,-272.14"/>
<polygon fill="#63b8ff" stroke="#63b8ff" points="475.04,-300.62 467.42,-307.99 477.97,-306.98 475.04,-300.62"/>
</a>
</g>
</g>
<!-- Node16&#45;&gt;Node3 -->
<g id="edge18_Node000016_Node000003" class="edge">
<title>Node16&#45;&gt;Node3</title>
<g id="a_edge18_Node000016_Node000003"><a xlink:title=" ">
<path fill="none" stroke="#63b8ff" d="M590.47,-299.51C583.47,-289.99 575.74,-279.47 570.44,-272.27"/>
<polygon fill="#63b8ff" stroke="#63b8ff" points="587.85,-301.85 596.59,-307.84 593.49,-297.71 587.85,-301.85"/>
</a>
</g>
</g>
<!-- Node17&#45;&gt;Node3 -->
<g id="edge20_Node000017_Node000003" class="edge">
<title>Node17&#45;&gt;Node3</title>
<g id="a_edge20_Node000017_Node000003"><a xlink:title=" ">
<path fill="none" stroke="#63b8ff" d="M687.37,-304.74C655.18,-293.98 615.15,-280.6 589.59,-272.05"/>
<polygon fill="#63b8ff" stroke="#63b8ff" points="686.49,-308.14 697.08,-307.99 688.71,-301.5 686.49,-308.14"/>
</a>
</g>
</g>
<!-- Node18&#45;&gt;Node15 -->
<g id="edge22_Node000018_Node000015" class="edge">
<title>Node18&#45;&gt;Node15</title>
<g id="a_edge22_Node000018_Node000015"><a xlink:title=" ">
<path fill="none" stroke="#63b8ff" d="M397.28,-366.37C406.01,-357.06 415.96,-346.44 423.72,-338.16"/>
<polygon fill="#63b8ff" stroke="#63b8ff" points="394.6,-364.11 390.32,-373.8 399.71,-368.89 394.6,-364.11"/>
</a>
</g>
</g>
<!-- Node19&#45;&gt;Node16 -->
<g id="edge24_Node000019_Node000016" class="edge">
<title>Node19&#45;&gt;Node16</title>
<g id="a_edge24_Node000019_Node000016"><a xlink:title=" ">
<path fill="none" stroke="#63b8ff" d="M643.17,-366.09C635.23,-356.85 626.22,-346.36 619.17,-338.16"/>
<polygon fill="#63b8ff" stroke="#63b8ff" points="640.62,-368.49 649.79,-373.8 645.93,-363.93 640.62,-368.49"/>
</a>
</g>
</g>
<!-- Node20&#45;&gt;Node17 -->
<g id="edge26_Node000020_Node000017" class="edge">
<title>Node20&#45;&gt;Node17</title>
<g id="a_edge26_Node000020_Node000017"><a xlink:title=" ">
<path fill="none" stroke="#63b8ff" d="M785.95,-366.92C775.63,-357.49 763.73,-346.61 754.49,-338.16"/>
<polygon fill="#63b8ff" stroke="#63b8ff" points="783.72,-369.63 793.46,-373.8 788.45,-364.47 783.72,-369.63"/>
</a>
</g>
</g>
</g>
</svg>
